<?xml version="1.0" encoding="UTF-8" standalone="no"?><svg xmlns="http://www.w3.org/2000/svg" xmlns:xlink="http://www.w3.org/1999/xlink" contentScriptType="application/ecmascript" contentStyleType="text/css" height="823px" preserveAspectRatio="none" style="width:2508px;height:823px;" version="1.1" viewBox="0 0 2508 823" width="2508px" zoomAndPan="magnify"><defs><filter height="300%" id="f1cmyazeqcnzky" width="300%" x="-1" y="-1"><feGaussianBlur result="blurOut" stdDeviation="2.0"/><feColorMatrix in="blurOut" result="blurOut2" type="matrix" values="0 0 0 0 0 0 0 0 0 0 0 0 0 0 0 0 0 0 .4 0"/><feOffset dx="4.0" dy="4.0" in="blurOut2" result="blurOut3"/><feBlend in="SourceGraphic" in2="blurOut3" mode="normal"/></filter></defs><g><!--MD5=[935a686a552498c9fe3db149d943753f]
class AllDSSynapses--><rect fill="#FEFECE" filter="url(#f1cmyazeqcnzky)" height="48" id="AllDSSynapses" style="stroke: #A80036; stroke-width: 1.5;" width="123" x="6" y="656"/><ellipse cx="21" cy="672" fill="#ADD1B2" rx="11" ry="11" style="stroke: #A80036; stroke-width: 1.0;"/><path d="M23.9688,677.6406 Q23.3906,677.9375 22.75,678.0781 Q22.1094,678.2344 21.4063,678.2344 Q18.9063,678.2344 17.5781,676.5938 Q16.2656,674.9375 16.2656,671.8125 Q16.2656,668.6875 17.5781,667.0313 Q18.9063,665.375 21.4063,665.375 Q22.1094,665.375 22.75,665.5313 Q23.4063,665.6875 23.9688,665.9844 L23.9688,668.7031 Q23.3438,668.125 22.75,667.8594 Q22.1563,667.5781 21.5313,667.5781 Q20.1875,667.5781 19.5,668.6563 Q18.8125,669.7188 18.8125,671.8125 Q18.8125,673.9063 19.5,674.9844 Q20.1875,676.0469 21.5313,676.0469 Q22.1563,676.0469 22.75,675.7813 Q23.3438,675.5 23.9688,674.9219 L23.9688,677.6406 Z "/><text fill="#000000" font-family="sans-serif" font-size="12" lengthAdjust="spacingAndGlyphs" textLength="91" x="35" y="676.1543">AllDSSynapses</text><line style="stroke: #A80036; stroke-width: 1.5;" x1="7" x2="128" y1="688" y2="688"/><line style="stroke: #A80036; stroke-width: 1.5;" x1="7" x2="128" y1="696" y2="696"/><!--MD5=[09c0093d34d85daed484b6b6f446313a]
class AllDynamicSTDPSynapses--><rect fill="#FEFECE" filter="url(#f1cmyazeqcnzky)" height="48" id="AllDynamicSTDPSynapses" style="stroke: #A80036; stroke-width: 1.5;" width="190" x="138.5" y="764"/><ellipse cx="153.5" cy="780" fill="#ADD1B2" rx="11" ry="11" style="stroke: #A80036; stroke-width: 1.0;"/><path d="M156.4688,785.6406 Q155.8906,785.9375 155.25,786.0781 Q154.6094,786.2344 153.9063,786.2344 Q151.4063,786.2344 150.0781,784.5938 Q148.7656,782.9375 148.7656,779.8125 Q148.7656,776.6875 150.0781,775.0313 Q151.4063,773.375 153.9063,773.375 Q154.6094,773.375 155.25,773.5313 Q155.9063,773.6875 156.4688,773.9844 L156.4688,776.7031 Q155.8438,776.125 155.25,775.8594 Q154.6563,775.5781 154.0313,775.5781 Q152.6875,775.5781 152,776.6563 Q151.3125,777.7188 151.3125,779.8125 Q151.3125,781.9063 152,782.9844 Q152.6875,784.0469 154.0313,784.0469 Q154.6563,784.0469 155.25,783.7813 Q155.8438,783.5 156.4688,782.9219 L156.4688,785.6406 Z "/><text fill="#000000" font-family="sans-serif" font-size="12" lengthAdjust="spacingAndGlyphs" textLength="158" x="167.5" y="784.1543">AllDynamicSTDPSynapses</text><line style="stroke: #A80036; stroke-width: 1.5;" x1="139.5" x2="327.5" y1="796" y2="796"/><line style="stroke: #A80036; stroke-width: 1.5;" x1="139.5" x2="327.5" y1="804" y2="804"/><!--MD5=[06f12ec46b87224fd0e1c514fed4a6e4]
class AllEdges--><rect fill="#FEFECE" filter="url(#f1cmyazeqcnzky)" height="48" id="AllEdges" style="stroke: #A80036; stroke-width: 1.5;" width="84" x="147.5" y="332"/><ellipse cx="162.5" cy="348" fill="#A9DCDF" rx="11" ry="11" style="stroke: #A80036; stroke-width: 1.0;"/><path d="M162.6094,343.3438 L161.4531,348.4219 L163.7813,348.4219 L162.6094,343.3438 Z M161.125,341.1094 L164.1094,341.1094 L167.4688,353.5 L165.0156,353.5 L164.25,350.4375 L160.9688,350.4375 L160.2188,353.5 L157.7813,353.5 L161.125,341.1094 Z "/><text fill="#000000" font-family="sans-serif" font-size="12" font-style="italic" lengthAdjust="spacingAndGlyphs" textLength="52" x="176.5" y="352.1543">AllEdges</text><line style="stroke: #A80036; stroke-width: 1.5;" x1="148.5" x2="230.5" y1="364" y2="364"/><line style="stroke: #A80036; stroke-width: 1.5;" x1="148.5" x2="230.5" y1="372" y2="372"/><!--MD5=[cf80cca85261d84eda43dbc026d5d8d1]
class AllIFNeurons--><rect fill="#FEFECE" filter="url(#f1cmyazeqcnzky)" height="48" id="AllIFNeurons" style="stroke: #A80036; stroke-width: 1.5;" width="109" x="1804" y="548"/><ellipse cx="1819" cy="564" fill="#ADD1B2" rx="11" ry="11" style="stroke: #A80036; stroke-width: 1.0;"/><path d="M1821.9688,569.6406 Q1821.3906,569.9375 1820.75,570.0781 Q1820.1094,570.2344 1819.4063,570.2344 Q1816.9063,570.2344 1815.5781,568.5938 Q1814.2656,566.9375 1814.2656,563.8125 Q1814.2656,560.6875 1815.5781,559.0313 Q1816.9063,557.375 1819.4063,557.375 Q1820.1094,557.375 1820.75,557.5313 Q1821.4063,557.6875 1821.9688,557.9844 L1821.9688,560.7031 Q1821.3438,560.125 1820.75,559.8594 Q1820.1563,559.5781 1819.5313,559.5781 Q1818.1875,559.5781 1817.5,560.6563 Q1816.8125,561.7188 1816.8125,563.8125 Q1816.8125,565.9063 1817.5,566.9844 Q1818.1875,568.0469 1819.5313,568.0469 Q1820.1563,568.0469 1820.75,567.7813 Q1821.3438,567.5 1821.9688,566.9219 L1821.9688,569.6406 Z "/><text fill="#000000" font-family="sans-serif" font-size="12" lengthAdjust="spacingAndGlyphs" textLength="77" x="1833" y="568.1543">AllIFNeurons</text><line style="stroke: #A80036; stroke-width: 1.5;" x1="1805" x2="1912" y1="580" y2="580"/><line style="stroke: #A80036; stroke-width: 1.5;" x1="1805" x2="1912" y1="588" y2="588"/><!--MD5=[a4e35ff6c4fc9c7a26a0ff69acb0e23b]
class AllIZHNeurons--><rect fill="#FEFECE" filter="url(#f1cmyazeqcnzky)" height="48" id="AllIZHNeurons" style="stroke: #A80036; stroke-width: 1.5;" width="120" x="1721.5" y="656"/><ellipse cx="1736.5" cy="672" fill="#ADD1B2" rx="11" ry="11" style="stroke: #A80036; stroke-width: 1.0;"/><path d="M1739.4688,677.6406 Q1738.8906,677.9375 1738.25,678.0781 Q1737.6094,678.2344 1736.9063,678.2344 Q1734.4063,678.2344 1733.0781,676.5938 Q1731.7656,674.9375 1731.7656,671.8125 Q1731.7656,668.6875 1733.0781,667.0313 Q1734.4063,665.375 1736.9063,665.375 Q1737.6094,665.375 1738.25,665.5313 Q1738.9063,665.6875 1739.4688,665.9844 L1739.4688,668.7031 Q1738.8438,668.125 1738.25,667.8594 Q1737.6563,667.5781 1737.0313,667.5781 Q1735.6875,667.5781 1735,668.6563 Q1734.3125,669.7188 1734.3125,671.8125 Q1734.3125,673.9063 1735,674.9844 Q1735.6875,676.0469 1737.0313,676.0469 Q1737.6563,676.0469 1738.25,675.7813 Q1738.8438,675.5 1739.4688,674.9219 L1739.4688,677.6406 Z "/><text fill="#000000" font-family="sans-serif" font-size="12" lengthAdjust="spacingAndGlyphs" textLength="88" x="1750.5" y="676.1543">AllIZHNeurons</text><line style="stroke: #A80036; stroke-width: 1.5;" x1="1722.5" x2="1840.5" y1="688" y2="688"/><line style="stroke: #A80036; stroke-width: 1.5;" x1="1722.5" x2="1840.5" y1="696" y2="696"/><!--MD5=[17306769ffb707adf94de37859054409]
class AllLIFNeurons--><rect fill="#FEFECE" filter="url(#f1cmyazeqcnzky)" height="48" id="AllLIFNeurons" style="stroke: #A80036; stroke-width: 1.5;" width="115" x="1877" y="656"/><ellipse cx="1892" cy="672" fill="#ADD1B2" rx="11" ry="11" style="stroke: #A80036; stroke-width: 1.0;"/><path d="M1894.9688,677.6406 Q1894.3906,677.9375 1893.75,678.0781 Q1893.1094,678.2344 1892.4063,678.2344 Q1889.9063,678.2344 1888.5781,676.5938 Q1887.2656,674.9375 1887.2656,671.8125 Q1887.2656,668.6875 1888.5781,667.0313 Q1889.9063,665.375 1892.4063,665.375 Q1893.1094,665.375 1893.75,665.5313 Q1894.4063,665.6875 1894.9688,665.9844 L1894.9688,668.7031 Q1894.3438,668.125 1893.75,667.8594 Q1893.1563,667.5781 1892.5313,667.5781 Q1891.1875,667.5781 1890.5,668.6563 Q1889.8125,669.7188 1889.8125,671.8125 Q1889.8125,673.9063 1890.5,674.9844 Q1891.1875,676.0469 1892.5313,676.0469 Q1893.1563,676.0469 1893.75,675.7813 Q1894.3438,675.5 1894.9688,674.9219 L1894.9688,677.6406 Z "/><text fill="#000000" font-family="sans-serif" font-size="12" lengthAdjust="spacingAndGlyphs" textLength="83" x="1906" y="676.1543">AllLIFNeurons</text><line style="stroke: #A80036; stroke-width: 1.5;" x1="1878" x2="1991" y1="688" y2="688"/><line style="stroke: #A80036; stroke-width: 1.5;" x1="1878" x2="1991" y1="696" y2="696"/><!--MD5=[96f31d00847e9628d93d2720c47b9604]
class AllNeuroEdges--><rect fill="#FEFECE" filter="url(#f1cmyazeqcnzky)" height="48" id="AllNeuroEdges" style="stroke: #A80036; stroke-width: 1.5;" width="123" x="89" y="440"/><ellipse cx="104" cy="456" fill="#ADD1B2" rx="11" ry="11" style="stroke: #A80036; stroke-width: 1.0;"/><path d="M106.9688,461.6406 Q106.3906,461.9375 105.75,462.0781 Q105.1094,462.2344 104.4063,462.2344 Q101.9063,462.2344 100.5781,460.5938 Q99.2656,458.9375 99.2656,455.8125 Q99.2656,452.6875 100.5781,451.0313 Q101.9063,449.375 104.4063,449.375 Q105.1094,449.375 105.75,449.5313 Q106.4063,449.6875 106.9688,449.9844 L106.9688,452.7031 Q106.3438,452.125 105.75,451.8594 Q105.1563,451.5781 104.5313,451.5781 Q103.1875,451.5781 102.5,452.6563 Q101.8125,453.7188 101.8125,455.8125 Q101.8125,457.9063 102.5,458.9844 Q103.1875,460.0469 104.5313,460.0469 Q105.1563,460.0469 105.75,459.7813 Q106.3438,459.5 106.9688,458.9219 L106.9688,461.6406 Z "/><text fill="#000000" font-family="sans-serif" font-size="12" lengthAdjust="spacingAndGlyphs" textLength="91" x="118" y="460.1543">AllNeuroEdges</text><line style="stroke: #A80036; stroke-width: 1.5;" x1="90" x2="211" y1="472" y2="472"/><line style="stroke: #A80036; stroke-width: 1.5;" x1="90" x2="211" y1="480" y2="480"/><!--MD5=[635988d62f36dba7a8b9baa086d12f03]
class AllSTDPSynapses--><rect fill="#FEFECE" filter="url(#f1cmyazeqcnzky)" height="48" id="AllSTDPSynapses" style="stroke: #A80036; stroke-width: 1.5;" width="138" x="164.5" y="656"/><ellipse cx="179.5" cy="672" fill="#ADD1B2" rx="11" ry="11" style="stroke: #A80036; stroke-width: 1.0;"/><path d="M182.4688,677.6406 Q181.8906,677.9375 181.25,678.0781 Q180.6094,678.2344 179.9063,678.2344 Q177.4063,678.2344 176.0781,676.5938 Q174.7656,674.9375 174.7656,671.8125 Q174.7656,668.6875 176.0781,667.0313 Q177.4063,665.375 179.9063,665.375 Q180.6094,665.375 181.25,665.5313 Q181.9063,665.6875 182.4688,665.9844 L182.4688,668.7031 Q181.8438,668.125 181.25,667.8594 Q180.6563,667.5781 180.0313,667.5781 Q178.6875,667.5781 178,668.6563 Q177.3125,669.7188 177.3125,671.8125 Q177.3125,673.9063 178,674.9844 Q178.6875,676.0469 180.0313,676.0469 Q180.6563,676.0469 181.25,675.7813 Q181.8438,675.5 182.4688,674.9219 L182.4688,677.6406 Z "/><text fill="#000000" font-family="sans-serif" font-size="12" lengthAdjust="spacingAndGlyphs" textLength="106" x="193.5" y="676.1543">AllSTDPSynapses</text><line style="stroke: #A80036; stroke-width: 1.5;" x1="165.5" x2="301.5" y1="688" y2="688"/><line style="stroke: #A80036; stroke-width: 1.5;" x1="165.5" x2="301.5" y1="696" y2="696"/><!--MD5=[00675e18512933602d55f5e0e2b1ab32]
class AllSpikingNeurons--><rect fill="#FEFECE" filter="url(#f1cmyazeqcnzky)" height="48" id="AllSpikingNeurons" style="stroke: #A80036; stroke-width: 1.5;" width="143" x="1716" y="440"/><ellipse cx="1731" cy="456" fill="#A9DCDF" rx="11" ry="11" style="stroke: #A80036; stroke-width: 1.0;"/><path d="M1731.1094,451.3438 L1729.9531,456.4219 L1732.2813,456.4219 L1731.1094,451.3438 Z M1729.625,449.1094 L1732.6094,449.1094 L1735.9688,461.5 L1733.5156,461.5 L1732.75,458.4375 L1729.4688,458.4375 L1728.7188,461.5 L1726.2813,461.5 L1729.625,449.1094 Z "/><text fill="#000000" font-family="sans-serif" font-size="12" font-style="italic" lengthAdjust="spacingAndGlyphs" textLength="111" x="1745" y="460.1543">AllSpikingNeurons</text><line style="stroke: #A80036; stroke-width: 1.5;" x1="1717" x2="1858" y1="472" y2="472"/><line style="stroke: #A80036; stroke-width: 1.5;" x1="1717" x2="1858" y1="480" y2="480"/><!--MD5=[cfe37ad1a50a7dcaaf80645f5fb9fa69]
class AllSpikingSynapses--><rect fill="#FEFECE" filter="url(#f1cmyazeqcnzky)" height="48" id="AllSpikingSynapses" style="stroke: #A80036; stroke-width: 1.5;" width="151" x="75" y="548"/><ellipse cx="90" cy="564" fill="#ADD1B2" rx="11" ry="11" style="stroke: #A80036; stroke-width: 1.0;"/><path d="M92.9688,569.6406 Q92.3906,569.9375 91.75,570.0781 Q91.1094,570.2344 90.4063,570.2344 Q87.9063,570.2344 86.5781,568.5938 Q85.2656,566.9375 85.2656,563.8125 Q85.2656,560.6875 86.5781,559.0313 Q87.9063,557.375 90.4063,557.375 Q91.1094,557.375 91.75,557.5313 Q92.4063,557.6875 92.9688,557.9844 L92.9688,560.7031 Q92.3438,560.125 91.75,559.8594 Q91.1563,559.5781 90.5313,559.5781 Q89.1875,559.5781 88.5,560.6563 Q87.8125,561.7188 87.8125,563.8125 Q87.8125,565.9063 88.5,566.9844 Q89.1875,568.0469 90.5313,568.0469 Q91.1563,568.0469 91.75,567.7813 Q92.3438,567.5 92.9688,566.9219 L92.9688,569.6406 Z "/><text fill="#000000" font-family="sans-serif" font-size="12" lengthAdjust="spacingAndGlyphs" textLength="119" x="104" y="568.1543">AllSpikingSynapses</text><line style="stroke: #A80036; stroke-width: 1.5;" x1="76" x2="225" y1="580" y2="580"/><line style="stroke: #A80036; stroke-width: 1.5;" x1="76" x2="225" y1="588" y2="588"/><!--MD5=[34dee175ca2f1207a5c8be9520f72c2f]
class AllVertices--><rect fill="#FEFECE" filter="url(#f1cmyazeqcnzky)" height="48" id="AllVertices" style="stroke: #A80036; stroke-width: 1.5;" width="96" x="1718.5" y="332"/><ellipse cx="1733.5" cy="348" fill="#A9DCDF" rx="11" ry="11" style="stroke: #A80036; stroke-width: 1.0;"/><path d="M1733.6094,343.3438 L1732.4531,348.4219 L1734.7813,348.4219 L1733.6094,343.3438 Z M1732.125,341.1094 L1735.1094,341.1094 L1738.4688,353.5 L1736.0156,353.5 L1735.25,350.4375 L1731.9688,350.4375 L1731.2188,353.5 L1728.7813,353.5 L1732.125,341.1094 Z "/><text fill="#000000" font-family="sans-serif" font-size="12" font-style="italic" lengthAdjust="spacingAndGlyphs" textLength="64" x="1747.5" y="352.1543">AllVertices</text><line style="stroke: #A80036; stroke-width: 1.5;" x1="1719.5" x2="1813.5" y1="364" y2="364"/><line style="stroke: #A80036; stroke-width: 1.5;" x1="1719.5" x2="1813.5" y1="372" y2="372"/><!--MD5=[d85fbbe7efff0e713ca3ebcdefdae521]
class CPUModel--><rect fill="#FEFECE" filter="url(#f1cmyazeqcnzky)" height="48" id="CPUModel" style="stroke: #A80036; stroke-width: 1.5;" width="94" x="1018.5" y="224"/><ellipse cx="1033.5" cy="240" fill="#ADD1B2" rx="11" ry="11" style="stroke: #A80036; stroke-width: 1.0;"/><path d="M1036.4688,245.6406 Q1035.8906,245.9375 1035.25,246.0781 Q1034.6094,246.2344 1033.9063,246.2344 Q1031.4063,246.2344 1030.0781,244.5938 Q1028.7656,242.9375 1028.7656,239.8125 Q1028.7656,236.6875 1030.0781,235.0313 Q1031.4063,233.375 1033.9063,233.375 Q1034.6094,233.375 1035.25,233.5313 Q1035.9063,233.6875 1036.4688,233.9844 L1036.4688,236.7031 Q1035.8438,236.125 1035.25,235.8594 Q1034.6563,235.5781 1034.0313,235.5781 Q1032.6875,235.5781 1032,236.6563 Q1031.3125,237.7188 1031.3125,239.8125 Q1031.3125,241.9063 1032,242.9844 Q1032.6875,244.0469 1034.0313,244.0469 Q1034.6563,244.0469 1035.25,243.7813 Q1035.8438,243.5 1036.4688,242.9219 L1036.4688,245.6406 Z "/><text fill="#000000" font-family="sans-serif" font-size="12" lengthAdjust="spacingAndGlyphs" textLength="62" x="1047.5" y="244.1543">CPUModel</text><line style="stroke: #A80036; stroke-width: 1.5;" x1="1019.5" x2="1111.5" y1="256" y2="256"/><line style="stroke: #A80036; stroke-width: 1.5;" x1="1019.5" x2="1111.5" y1="264" y2="264"/><!--MD5=[540eab1ed52846d003b47757435df453]
class ConnGrowth--><rect fill="#FEFECE" filter="url(#f1cmyazeqcnzky)" height="48" id="ConnGrowth" style="stroke: #A80036; stroke-width: 1.5;" width="108" x="452.5" y="332"/><ellipse cx="467.5" cy="348" fill="#ADD1B2" rx="11" ry="11" style="stroke: #A80036; stroke-width: 1.0;"/><path d="M470.4688,353.6406 Q469.8906,353.9375 469.25,354.0781 Q468.6094,354.2344 467.9063,354.2344 Q465.4063,354.2344 464.0781,352.5938 Q462.7656,350.9375 462.7656,347.8125 Q462.7656,344.6875 464.0781,343.0313 Q465.4063,341.375 467.9063,341.375 Q468.6094,341.375 469.25,341.5313 Q469.9063,341.6875 470.4688,341.9844 L470.4688,344.7031 Q469.8438,344.125 469.25,343.8594 Q468.6563,343.5781 468.0313,343.5781 Q466.6875,343.5781 466,344.6563 Q465.3125,345.7188 465.3125,347.8125 Q465.3125,349.9063 466,350.9844 Q466.6875,352.0469 468.0313,352.0469 Q468.6563,352.0469 469.25,351.7813 Q469.8438,351.5 470.4688,350.9219 L470.4688,353.6406 Z "/><text fill="#000000" font-family="sans-serif" font-size="12" lengthAdjust="spacingAndGlyphs" textLength="76" x="481.5" y="352.1543">ConnGrowth</text><line style="stroke: #A80036; stroke-width: 1.5;" x1="453.5" x2="559.5" y1="364" y2="364"/><line style="stroke: #A80036; stroke-width: 1.5;" x1="453.5" x2="559.5" y1="372" y2="372"/><!--MD5=[b671e9144a70d5380b4364952f259167]
class ConnStatic--><rect fill="#FEFECE" filter="url(#f1cmyazeqcnzky)" height="48" id="ConnStatic" style="stroke: #A80036; stroke-width: 1.5;" width="100" x="301.5" y="332"/><ellipse cx="316.5" cy="348" fill="#ADD1B2" rx="11" ry="11" style="stroke: #A80036; stroke-width: 1.0;"/><path d="M319.4688,353.6406 Q318.8906,353.9375 318.25,354.0781 Q317.6094,354.2344 316.9063,354.2344 Q314.4063,354.2344 313.0781,352.5938 Q311.7656,350.9375 311.7656,347.8125 Q311.7656,344.6875 313.0781,343.0313 Q314.4063,341.375 316.9063,341.375 Q317.6094,341.375 318.25,341.5313 Q318.9063,341.6875 319.4688,341.9844 L319.4688,344.7031 Q318.8438,344.125 318.25,343.8594 Q317.6563,343.5781 317.0313,343.5781 Q315.6875,343.5781 315,344.6563 Q314.3125,345.7188 314.3125,347.8125 Q314.3125,349.9063 315,350.9844 Q315.6875,352.0469 317.0313,352.0469 Q317.6563,352.0469 318.25,351.7813 Q318.8438,351.5 319.4688,350.9219 L319.4688,353.6406 Z "/><text fill="#000000" font-family="sans-serif" font-size="12" lengthAdjust="spacingAndGlyphs" textLength="68" x="330.5" y="352.1543">ConnStatic</text><line style="stroke: #A80036; stroke-width: 1.5;" x1="302.5" x2="400.5" y1="364" y2="364"/><line style="stroke: #A80036; stroke-width: 1.5;" x1="302.5" x2="400.5" y1="372" y2="372"/><!--MD5=[24bb951fb6b9ac52df1580923e830244]
class Connections--><rect fill="#FEFECE" filter="url(#f1cmyazeqcnzky)" height="48" id="Connections" style="stroke: #A80036; stroke-width: 1.5;" width="109" x="452" y="224"/><ellipse cx="467" cy="240" fill="#A9DCDF" rx="11" ry="11" style="stroke: #A80036; stroke-width: 1.0;"/><path d="M467.1094,235.3438 L465.9531,240.4219 L468.2813,240.4219 L467.1094,235.3438 Z M465.625,233.1094 L468.6094,233.1094 L471.9688,245.5 L469.5156,245.5 L468.75,242.4375 L465.4688,242.4375 L464.7188,245.5 L462.2813,245.5 L465.625,233.1094 Z "/><text fill="#000000" font-family="sans-serif" font-size="12" font-style="italic" lengthAdjust="spacingAndGlyphs" textLength="77" x="481" y="244.1543">Connections</text><line style="stroke: #A80036; stroke-width: 1.5;" x1="453" x2="560" y1="256" y2="256"/><line style="stroke: #A80036; stroke-width: 1.5;" x1="453" x2="560" y1="264" y2="264"/><!--MD5=[07560c205a8067cf69726ad645fec973]
class ConnectionsFactory--><rect fill="#FEFECE" filter="url(#f1cmyazeqcnzky)" height="48" id="ConnectionsFactory" style="stroke: #A80036; stroke-width: 1.5;" width="156" x="428.5" y="116"/><ellipse cx="443.5" cy="132" fill="#ADD1B2" rx="11" ry="11" style="stroke: #A80036; stroke-width: 1.0;"/><path d="M446.4688,137.6406 Q445.8906,137.9375 445.25,138.0781 Q444.6094,138.2344 443.9063,138.2344 Q441.4063,138.2344 440.0781,136.5938 Q438.7656,134.9375 438.7656,131.8125 Q438.7656,128.6875 440.0781,127.0313 Q441.4063,125.375 443.9063,125.375 Q444.6094,125.375 445.25,125.5313 Q445.9063,125.6875 446.4688,125.9844 L446.4688,128.7031 Q445.8438,128.125 445.25,127.8594 Q444.6563,127.5781 444.0313,127.5781 Q442.6875,127.5781 442,128.6563 Q441.3125,129.7188 441.3125,131.8125 Q441.3125,133.9063 442,134.9844 Q442.6875,136.0469 444.0313,136.0469 Q444.6563,136.0469 445.25,135.7813 Q445.8438,135.5 446.4688,134.9219 L446.4688,137.6406 Z "/><text fill="#000000" font-family="sans-serif" font-size="12" lengthAdjust="spacingAndGlyphs" textLength="124" x="457.5" y="136.1543">ConnectionsFactory</text><line style="stroke: #A80036; stroke-width: 1.5;" x1="429.5" x2="583.5" y1="148" y2="148"/><line style="stroke: #A80036; stroke-width: 1.5;" x1="429.5" x2="583.5" y1="156" y2="156"/><!--MD5=[12f7f85e6a82a668bac37f73aa8a25f9]
class DynamicLayout--><rect fill="#FEFECE" filter="url(#f1cmyazeqcnzky)" height="48" id="DynamicLayout" style="stroke: #A80036; stroke-width: 1.5;" width="125" x="1990" y="332"/><ellipse cx="2005" cy="348" fill="#ADD1B2" rx="11" ry="11" style="stroke: #A80036; stroke-width: 1.0;"/><path d="M2007.9688,353.6406 Q2007.3906,353.9375 2006.75,354.0781 Q2006.1094,354.2344 2005.4063,354.2344 Q2002.9063,354.2344 2001.5781,352.5938 Q2000.2656,350.9375 2000.2656,347.8125 Q2000.2656,344.6875 2001.5781,343.0313 Q2002.9063,341.375 2005.4063,341.375 Q2006.1094,341.375 2006.75,341.5313 Q2007.4063,341.6875 2007.9688,341.9844 L2007.9688,344.7031 Q2007.3438,344.125 2006.75,343.8594 Q2006.1563,343.5781 2005.5313,343.5781 Q2004.1875,343.5781 2003.5,344.6563 Q2002.8125,345.7188 2002.8125,347.8125 Q2002.8125,349.9063 2003.5,350.9844 Q2004.1875,352.0469 2005.5313,352.0469 Q2006.1563,352.0469 2006.75,351.7813 Q2007.3438,351.5 2007.9688,350.9219 L2007.9688,353.6406 Z "/><text fill="#000000" font-family="sans-serif" font-size="12" lengthAdjust="spacingAndGlyphs" textLength="93" x="2019" y="352.1543">DynamicLayout</text><line style="stroke: #A80036; stroke-width: 1.5;" x1="1991" x2="2114" y1="364" y2="364"/><line style="stroke: #A80036; stroke-width: 1.5;" x1="1991" x2="2114" y1="372" y2="372"/><!--MD5=[2137c854024e09e8076c84fb007b1c3c]
class EdgesFactory--><rect fill="#FEFECE" filter="url(#f1cmyazeqcnzky)" height="48" id="EdgesFactory" style="stroke: #A80036; stroke-width: 1.5;" width="117" x="131" y="224"/><ellipse cx="146" cy="240" fill="#ADD1B2" rx="11" ry="11" style="stroke: #A80036; stroke-width: 1.0;"/><path d="M148.9688,245.6406 Q148.3906,245.9375 147.75,246.0781 Q147.1094,246.2344 146.4063,246.2344 Q143.9063,246.2344 142.5781,244.5938 Q141.2656,242.9375 141.2656,239.8125 Q141.2656,236.6875 142.5781,235.0313 Q143.9063,233.375 146.4063,233.375 Q147.1094,233.375 147.75,233.5313 Q148.4063,233.6875 148.9688,233.9844 L148.9688,236.7031 Q148.3438,236.125 147.75,235.8594 Q147.1563,235.5781 146.5313,235.5781 Q145.1875,235.5781 144.5,236.6563 Q143.8125,237.7188 143.8125,239.8125 Q143.8125,241.9063 144.5,242.9844 Q145.1875,244.0469 146.5313,244.0469 Q147.1563,244.0469 147.75,243.7813 Q148.3438,243.5 148.9688,242.9219 L148.9688,245.6406 Z "/><text fill="#000000" font-family="sans-serif" font-size="12" lengthAdjust="spacingAndGlyphs" textLength="85" x="160" y="244.1543">EdgesFactory</text><line style="stroke: #A80036; stroke-width: 1.5;" x1="132" x2="247" y1="256" y2="256"/><line style="stroke: #A80036; stroke-width: 1.5;" x1="132" x2="247" y1="264" y2="264"/><!--MD5=[05f17831147ee39527b2431b4d22ccc3]
class EventBuffer--><rect fill="#FEFECE" filter="url(#f1cmyazeqcnzky)" height="48" id="EventBuffer" style="stroke: #A80036; stroke-width: 1.5;" width="104" x="1664.5" y="548"/><ellipse cx="1679.5" cy="564" fill="#ADD1B2" rx="11" ry="11" style="stroke: #A80036; stroke-width: 1.0;"/><path d="M1682.4688,569.6406 Q1681.8906,569.9375 1681.25,570.0781 Q1680.6094,570.2344 1679.9063,570.2344 Q1677.4063,570.2344 1676.0781,568.5938 Q1674.7656,566.9375 1674.7656,563.8125 Q1674.7656,560.6875 1676.0781,559.0313 Q1677.4063,557.375 1679.9063,557.375 Q1680.6094,557.375 1681.25,557.5313 Q1681.9063,557.6875 1682.4688,557.9844 L1682.4688,560.7031 Q1681.8438,560.125 1681.25,559.8594 Q1680.6563,559.5781 1680.0313,559.5781 Q1678.6875,559.5781 1678,560.6563 Q1677.3125,561.7188 1677.3125,563.8125 Q1677.3125,565.9063 1678,566.9844 Q1678.6875,568.0469 1680.0313,568.0469 Q1680.6563,568.0469 1681.25,567.7813 Q1681.8438,567.5 1682.4688,566.9219 L1682.4688,569.6406 Z "/><text fill="#000000" font-family="sans-serif" font-size="12" lengthAdjust="spacingAndGlyphs" textLength="72" x="1693.5" y="568.1543">EventBuffer</text><line style="stroke: #A80036; stroke-width: 1.5;" x1="1665.5" x2="1767.5" y1="580" y2="580"/><line style="stroke: #A80036; stroke-width: 1.5;" x1="1665.5" x2="1767.5" y1="588" y2="588"/><!--MD5=[c01d281453c5d4cdc24a7f27a30cb7c5]
class FixedLayout--><rect fill="#FEFECE" filter="url(#f1cmyazeqcnzky)" height="48" id="FixedLayout" style="stroke: #A80036; stroke-width: 1.5;" width="105" x="1850" y="332"/><ellipse cx="1865" cy="348" fill="#ADD1B2" rx="11" ry="11" style="stroke: #A80036; stroke-width: 1.0;"/><path d="M1867.9688,353.6406 Q1867.3906,353.9375 1866.75,354.0781 Q1866.1094,354.2344 1865.4063,354.2344 Q1862.9063,354.2344 1861.5781,352.5938 Q1860.2656,350.9375 1860.2656,347.8125 Q1860.2656,344.6875 1861.5781,343.0313 Q1862.9063,341.375 1865.4063,341.375 Q1866.1094,341.375 1866.75,341.5313 Q1867.4063,341.6875 1867.9688,341.9844 L1867.9688,344.7031 Q1867.3438,344.125 1866.75,343.8594 Q1866.1563,343.5781 1865.5313,343.5781 Q1864.1875,343.5781 1863.5,344.6563 Q1862.8125,345.7188 1862.8125,347.8125 Q1862.8125,349.9063 1863.5,350.9844 Q1864.1875,352.0469 1865.5313,352.0469 Q1866.1563,352.0469 1866.75,351.7813 Q1867.3438,351.5 1867.9688,350.9219 L1867.9688,353.6406 Z "/><text fill="#000000" font-family="sans-serif" font-size="12" lengthAdjust="spacingAndGlyphs" textLength="73" x="1879" y="352.1543">FixedLayout</text><line style="stroke: #A80036; stroke-width: 1.5;" x1="1851" x2="1954" y1="364" y2="364"/><line style="stroke: #A80036; stroke-width: 1.5;" x1="1851" x2="1954" y1="372" y2="372"/><!--MD5=[124ec3daa98f7d6a805c6f5a48dde9c7]
class GPUModel--><rect fill="#FEFECE" filter="url(#f1cmyazeqcnzky)" height="48" id="GPUModel" style="stroke: #A80036; stroke-width: 1.5;" width="95" x="650" y="224"/><ellipse cx="665" cy="240" fill="#ADD1B2" rx="11" ry="11" style="stroke: #A80036; stroke-width: 1.0;"/><path d="M667.9688,245.6406 Q667.3906,245.9375 666.75,246.0781 Q666.1094,246.2344 665.4063,246.2344 Q662.9063,246.2344 661.5781,244.5938 Q660.2656,242.9375 660.2656,239.8125 Q660.2656,236.6875 661.5781,235.0313 Q662.9063,233.375 665.4063,233.375 Q666.1094,233.375 666.75,233.5313 Q667.4063,233.6875 667.9688,233.9844 L667.9688,236.7031 Q667.3438,236.125 666.75,235.8594 Q666.1563,235.5781 665.5313,235.5781 Q664.1875,235.5781 663.5,236.6563 Q662.8125,237.7188 662.8125,239.8125 Q662.8125,241.9063 663.5,242.9844 Q664.1875,244.0469 665.5313,244.0469 Q666.1563,244.0469 666.75,243.7813 Q667.3438,243.5 667.9688,242.9219 L667.9688,245.6406 Z "/><text fill="#000000" font-family="sans-serif" font-size="12" lengthAdjust="spacingAndGlyphs" textLength="63" x="679" y="244.1543">GPUModel</text><line style="stroke: #A80036; stroke-width: 1.5;" x1="651" x2="744" y1="256" y2="256"/><line style="stroke: #A80036; stroke-width: 1.5;" x1="651" x2="744" y1="264" y2="264"/><!--MD5=[dd9a31495c85b5dc63c13c8cf57db1f9]
class GenericFunctionNode--><rect fill="#FEFECE" filter="url(#f1cmyazeqcnzky)" height="48" id="GenericFunctionNode" style="stroke: #A80036; stroke-width: 1.5;" width="167" x="1975" y="224"/><ellipse cx="1990" cy="240" fill="#ADD1B2" rx="11" ry="11" style="stroke: #A80036; stroke-width: 1.0;"/><path d="M1992.9688,245.6406 Q1992.3906,245.9375 1991.75,246.0781 Q1991.1094,246.2344 1990.4063,246.2344 Q1987.9063,246.2344 1986.5781,244.5938 Q1985.2656,242.9375 1985.2656,239.8125 Q1985.2656,236.6875 1986.5781,235.0313 Q1987.9063,233.375 1990.4063,233.375 Q1991.1094,233.375 1991.75,233.5313 Q1992.4063,233.6875 1992.9688,233.9844 L1992.9688,236.7031 Q1992.3438,236.125 1991.75,235.8594 Q1991.1563,235.5781 1990.5313,235.5781 Q1989.1875,235.5781 1988.5,236.6563 Q1987.8125,237.7188 1987.8125,239.8125 Q1987.8125,241.9063 1988.5,242.9844 Q1989.1875,244.0469 1990.5313,244.0469 Q1991.1563,244.0469 1991.75,243.7813 Q1992.3438,243.5 1992.9688,242.9219 L1992.9688,245.6406 Z "/><text fill="#000000" font-family="sans-serif" font-size="12" lengthAdjust="spacingAndGlyphs" textLength="135" x="2004" y="244.1543">GenericFunctionNode</text><line style="stroke: #A80036; stroke-width: 1.5;" x1="1976" x2="2141" y1="256" y2="256"/><line style="stroke: #A80036; stroke-width: 1.5;" x1="1976" x2="2141" y1="264" y2="264"/><!--MD5=[af68557a962a5f1f7548a7e590f8fd62]
class Hdf5GrowthRecorder--><rect fill="#FEFECE" filter="url(#f1cmyazeqcnzky)" height="48" id="Hdf5GrowthRecorder" style="stroke: #A80036; stroke-width: 1.5;" width="162" x="1518.5" y="440"/><ellipse cx="1533.5" cy="456" fill="#ADD1B2" rx="11" ry="11" style="stroke: #A80036; stroke-width: 1.0;"/><path d="M1536.4688,461.6406 Q1535.8906,461.9375 1535.25,462.0781 Q1534.6094,462.2344 1533.9063,462.2344 Q1531.4063,462.2344 1530.0781,460.5938 Q1528.7656,458.9375 1528.7656,455.8125 Q1528.7656,452.6875 1530.0781,451.0313 Q1531.4063,449.375 1533.9063,449.375 Q1534.6094,449.375 1535.25,449.5313 Q1535.9063,449.6875 1536.4688,449.9844 L1536.4688,452.7031 Q1535.8438,452.125 1535.25,451.8594 Q1534.6563,451.5781 1534.0313,451.5781 Q1532.6875,451.5781 1532,452.6563 Q1531.3125,453.7188 1531.3125,455.8125 Q1531.3125,457.9063 1532,458.9844 Q1532.6875,460.0469 1534.0313,460.0469 Q1534.6563,460.0469 1535.25,459.7813 Q1535.8438,459.5 1536.4688,458.9219 L1536.4688,461.6406 Z "/><text fill="#000000" font-family="sans-serif" font-size="12" lengthAdjust="spacingAndGlyphs" textLength="130" x="1547.5" y="460.1543">Hdf5GrowthRecorder</text><line style="stroke: #A80036; stroke-width: 1.5;" x1="1519.5" x2="1679.5" y1="472" y2="472"/><line style="stroke: #A80036; stroke-width: 1.5;" x1="1519.5" x2="1679.5" y1="480" y2="480"/><!--MD5=[2f81b0e77ba864956fe3cef8330f890e]
class Hdf5Recorder--><rect fill="#FEFECE" filter="url(#f1cmyazeqcnzky)" height="48" id="Hdf5Recorder" style="stroke: #A80036; stroke-width: 1.5;" width="118" x="1538.5" y="332"/><ellipse cx="1553.5" cy="348" fill="#ADD1B2" rx="11" ry="11" style="stroke: #A80036; stroke-width: 1.0;"/><path d="M1556.4688,353.6406 Q1555.8906,353.9375 1555.25,354.0781 Q1554.6094,354.2344 1553.9063,354.2344 Q1551.4063,354.2344 1550.0781,352.5938 Q1548.7656,350.9375 1548.7656,347.8125 Q1548.7656,344.6875 1550.0781,343.0313 Q1551.4063,341.375 1553.9063,341.375 Q1554.6094,341.375 1555.25,341.5313 Q1555.9063,341.6875 1556.4688,341.9844 L1556.4688,344.7031 Q1555.8438,344.125 1555.25,343.8594 Q1554.6563,343.5781 1554.0313,343.5781 Q1552.6875,343.5781 1552,344.6563 Q1551.3125,345.7188 1551.3125,347.8125 Q1551.3125,349.9063 1552,350.9844 Q1552.6875,352.0469 1554.0313,352.0469 Q1554.6563,352.0469 1555.25,351.7813 Q1555.8438,351.5 1556.4688,350.9219 L1556.4688,353.6406 Z "/><text fill="#000000" font-family="sans-serif" font-size="12" lengthAdjust="spacingAndGlyphs" textLength="86" x="1567.5" y="352.1543">Hdf5Recorder</text><line style="stroke: #A80036; stroke-width: 1.5;" x1="1539.5" x2="1655.5" y1="364" y2="364"/><line style="stroke: #A80036; stroke-width: 1.5;" x1="1539.5" x2="1655.5" y1="372" y2="372"/><!--MD5=[99788c5c01261f19cd519066f428e9b5]
class IFunctionNode--><rect fill="#FEFECE" filter="url(#f1cmyazeqcnzky)" height="48" id="IFunctionNode" style="stroke: #A80036; stroke-width: 1.5;" width="123" x="2166" y="116"/><ellipse cx="2181" cy="132" fill="#A9DCDF" rx="11" ry="11" style="stroke: #A80036; stroke-width: 1.0;"/><path d="M2181.1094,127.3438 L2179.9531,132.4219 L2182.2813,132.4219 L2181.1094,127.3438 Z M2179.625,125.1094 L2182.6094,125.1094 L2185.9688,137.5 L2183.5156,137.5 L2182.75,134.4375 L2179.4688,134.4375 L2178.7188,137.5 L2176.2813,137.5 L2179.625,125.1094 Z "/><text fill="#000000" font-family="sans-serif" font-size="12" font-style="italic" lengthAdjust="spacingAndGlyphs" textLength="91" x="2195" y="136.1543">IFunctionNode</text><line style="stroke: #A80036; stroke-width: 1.5;" x1="2167" x2="2288" y1="148" y2="148"/><line style="stroke: #A80036; stroke-width: 1.5;" x1="2167" x2="2288" y1="156" y2="156"/><!--MD5=[da7fc25461f009319ada69721cf8c2d1]
class Recorder--><rect fill="#FEFECE" filter="url(#f1cmyazeqcnzky)" height="48" id="Recorder" style="stroke: #A80036; stroke-width: 1.5;" width="89" x="1396" y="224"/><ellipse cx="1411" cy="240" fill="#A9DCDF" rx="11" ry="11" style="stroke: #A80036; stroke-width: 1.0;"/><path d="M1411.1094,235.3438 L1409.9531,240.4219 L1412.2813,240.4219 L1411.1094,235.3438 Z M1409.625,233.1094 L1412.6094,233.1094 L1415.9688,245.5 L1413.5156,245.5 L1412.75,242.4375 L1409.4688,242.4375 L1408.7188,245.5 L1406.2813,245.5 L1409.625,233.1094 Z "/><text fill="#000000" font-family="sans-serif" font-size="12" font-style="italic" lengthAdjust="spacingAndGlyphs" textLength="57" x="1425" y="244.1543">Recorder</text><line style="stroke: #A80036; stroke-width: 1.5;" x1="1397" x2="1484" y1="256" y2="256"/><line style="stroke: #A80036; stroke-width: 1.5;" x1="1397" x2="1484" y1="264" y2="264"/><!--MD5=[caebf2ddd0fe15aa1cd7c0f919e7d6a1]
class Layout--><rect fill="#FEFECE" filter="url(#f1cmyazeqcnzky)" height="48" id="Layout" style="stroke: #A80036; stroke-width: 1.5;" width="75" x="1865" y="224"/><ellipse cx="1880" cy="240" fill="#A9DCDF" rx="11" ry="11" style="stroke: #A80036; stroke-width: 1.0;"/><path d="M1880.1094,235.3438 L1878.9531,240.4219 L1881.2813,240.4219 L1880.1094,235.3438 Z M1878.625,233.1094 L1881.6094,233.1094 L1884.9688,245.5 L1882.5156,245.5 L1881.75,242.4375 L1878.4688,242.4375 L1877.7188,245.5 L1875.2813,245.5 L1878.625,233.1094 Z "/><text fill="#000000" font-family="sans-serif" font-size="12" font-style="italic" lengthAdjust="spacingAndGlyphs" textLength="43" x="1894" y="244.1543">Layout</text><line style="stroke: #A80036; stroke-width: 1.5;" x1="1866" x2="1939" y1="256" y2="256"/><line style="stroke: #A80036; stroke-width: 1.5;" x1="1866" x2="1939" y1="264" y2="264"/><!--MD5=[e2bec1e8f5041d1015728825611f3c9f]
class LayoutFactory--><rect fill="#FEFECE" filter="url(#f1cmyazeqcnzky)" height="48" id="LayoutFactory" style="stroke: #A80036; stroke-width: 1.5;" width="119" x="1843" y="116"/><ellipse cx="1858" cy="132" fill="#ADD1B2" rx="11" ry="11" style="stroke: #A80036; stroke-width: 1.0;"/><path d="M1860.9688,137.6406 Q1860.3906,137.9375 1859.75,138.0781 Q1859.1094,138.2344 1858.4063,138.2344 Q1855.9063,138.2344 1854.5781,136.5938 Q1853.2656,134.9375 1853.2656,131.8125 Q1853.2656,128.6875 1854.5781,127.0313 Q1855.9063,125.375 1858.4063,125.375 Q1859.1094,125.375 1859.75,125.5313 Q1860.4063,125.6875 1860.9688,125.9844 L1860.9688,128.7031 Q1860.3438,128.125 1859.75,127.8594 Q1859.1563,127.5781 1858.5313,127.5781 Q1857.1875,127.5781 1856.5,128.6563 Q1855.8125,129.7188 1855.8125,131.8125 Q1855.8125,133.9063 1856.5,134.9844 Q1857.1875,136.0469 1858.5313,136.0469 Q1859.1563,136.0469 1859.75,135.7813 Q1860.3438,135.5 1860.9688,134.9219 L1860.9688,137.6406 Z "/><text fill="#000000" font-family="sans-serif" font-size="12" lengthAdjust="spacingAndGlyphs" textLength="87" x="1872" y="136.1543">LayoutFactory</text><line style="stroke: #A80036; stroke-width: 1.5;" x1="1844" x2="1961" y1="148" y2="148"/><line style="stroke: #A80036; stroke-width: 1.5;" x1="1844" x2="1961" y1="156" y2="156"/><!--MD5=[7e20e022571e30ec1001cf6eabd7f3e2]
class Model--><rect fill="#FEFECE" filter="url(#f1cmyazeqcnzky)" height="48" id="Model" style="stroke: #A80036; stroke-width: 1.5;" width="69" x="1031" y="116"/><ellipse cx="1046" cy="132" fill="#A9DCDF" rx="11" ry="11" style="stroke: #A80036; stroke-width: 1.0;"/><path d="M1046.1094,127.3438 L1044.9531,132.4219 L1047.2813,132.4219 L1046.1094,127.3438 Z M1044.625,125.1094 L1047.6094,125.1094 L1050.9688,137.5 L1048.5156,137.5 L1047.75,134.4375 L1044.4688,134.4375 L1043.7188,137.5 L1041.2813,137.5 L1044.625,125.1094 Z "/><text fill="#000000" font-family="sans-serif" font-size="12" font-style="italic" lengthAdjust="spacingAndGlyphs" textLength="37" x="1060" y="136.1543">Model</text><line style="stroke: #A80036; stroke-width: 1.5;" x1="1032" x2="1099" y1="148" y2="148"/><line style="stroke: #A80036; stroke-width: 1.5;" x1="1032" x2="1099" y1="156" y2="156"/><!--MD5=[314e3b7c2db0a5a356d5ece57f37d58b]
class OperationManager--><rect fill="#FEFECE" filter="url(#f1cmyazeqcnzky)" height="48" id="OperationManager" style="stroke: #A80036; stroke-width: 1.5;" width="149" x="2153" y="8"/><ellipse cx="2168" cy="24" fill="#ADD1B2" rx="11" ry="11" style="stroke: #A80036; stroke-width: 1.0;"/><path d="M2170.9688,29.6406 Q2170.3906,29.9375 2169.75,30.0781 Q2169.1094,30.2344 2168.4063,30.2344 Q2165.9063,30.2344 2164.5781,28.5938 Q2163.2656,26.9375 2163.2656,23.8125 Q2163.2656,20.6875 2164.5781,19.0313 Q2165.9063,17.375 2168.4063,17.375 Q2169.1094,17.375 2169.75,17.5313 Q2170.4063,17.6875 2170.9688,17.9844 L2170.9688,20.7031 Q2170.3438,20.125 2169.75,19.8594 Q2169.1563,19.5781 2168.5313,19.5781 Q2167.1875,19.5781 2166.5,20.6563 Q2165.8125,21.7188 2165.8125,23.8125 Q2165.8125,25.9063 2166.5,26.9844 Q2167.1875,28.0469 2168.5313,28.0469 Q2169.1563,28.0469 2169.75,27.7813 Q2170.3438,27.5 2170.9688,26.9219 L2170.9688,29.6406 Z "/><text fill="#000000" font-family="sans-serif" font-size="12" lengthAdjust="spacingAndGlyphs" textLength="117" x="2182" y="28.1543">OperationManager</text><line style="stroke: #A80036; stroke-width: 1.5;" x1="2154" x2="2301" y1="40" y2="40"/><line style="stroke: #A80036; stroke-width: 1.5;" x1="2154" x2="2301" y1="48" y2="48"/><!--MD5=[fdf81c1c7218c7a86b85d500a2db5e87]
class Operations--><rect fill="#FEFECE" filter="url(#f1cmyazeqcnzky)" height="48" id="Operations" style="stroke: #A80036; stroke-width: 1.5;" width="101" x="2177" y="224"/><ellipse cx="2192" cy="240" fill="#ADD1B2" rx="11" ry="11" style="stroke: #A80036; stroke-width: 1.0;"/><path d="M2194.9688,245.6406 Q2194.3906,245.9375 2193.75,246.0781 Q2193.1094,246.2344 2192.4063,246.2344 Q2189.9063,246.2344 2188.5781,244.5938 Q2187.2656,242.9375 2187.2656,239.8125 Q2187.2656,236.6875 2188.5781,235.0313 Q2189.9063,233.375 2192.4063,233.375 Q2193.1094,233.375 2193.75,233.5313 Q2194.4063,233.6875 2194.9688,233.9844 L2194.9688,236.7031 Q2194.3438,236.125 2193.75,235.8594 Q2193.1563,235.5781 2192.5313,235.5781 Q2191.1875,235.5781 2190.5,236.6563 Q2189.8125,237.7188 2189.8125,239.8125 Q2189.8125,241.9063 2190.5,242.9844 Q2191.1875,244.0469 2192.5313,244.0469 Q2193.1563,244.0469 2193.75,243.7813 Q2194.3438,243.5 2194.9688,242.9219 L2194.9688,245.6406 Z "/><text fill="#000000" font-family="sans-serif" font-size="12" lengthAdjust="spacingAndGlyphs" textLength="69" x="2206" y="244.1543">Operations</text><line style="stroke: #A80036; stroke-width: 1.5;" x1="2178" x2="2277" y1="256" y2="256"/><line style="stroke: #A80036; stroke-width: 1.5;" x1="2178" x2="2277" y1="264" y2="264"/><!--MD5=[2d167d26ebdee84d71997832bfe86c3e]
class RecorderFactory--><rect fill="#FEFECE" filter="url(#f1cmyazeqcnzky)" height="48" id="RecorderFactory" style="stroke: #A80036; stroke-width: 1.5;" width="135" x="1373" y="116"/><ellipse cx="1388" cy="132" fill="#ADD1B2" rx="11" ry="11" style="stroke: #A80036; stroke-width: 1.0;"/><path d="M1390.9688,137.6406 Q1390.3906,137.9375 1389.75,138.0781 Q1389.1094,138.2344 1388.4063,138.2344 Q1385.9063,138.2344 1384.5781,136.5938 Q1383.2656,134.9375 1383.2656,131.8125 Q1383.2656,128.6875 1384.5781,127.0313 Q1385.9063,125.375 1388.4063,125.375 Q1389.1094,125.375 1389.75,125.5313 Q1390.4063,125.6875 1390.9688,125.9844 L1390.9688,128.7031 Q1390.3438,128.125 1389.75,127.8594 Q1389.1563,127.5781 1388.5313,127.5781 Q1387.1875,127.5781 1386.5,128.6563 Q1385.8125,129.7188 1385.8125,131.8125 Q1385.8125,133.9063 1386.5,134.9844 Q1387.1875,136.0469 1388.5313,136.0469 Q1389.1563,136.0469 1389.75,135.7813 Q1390.3438,135.5 1390.9688,134.9219 L1390.9688,137.6406 Z "/><text fill="#000000" font-family="sans-serif" font-size="12" lengthAdjust="spacingAndGlyphs" textLength="103" x="1402" y="136.1543">RecorderFactory</text><line style="stroke: #A80036; stroke-width: 1.5;" x1="1374" x2="1507" y1="148" y2="148"/><line style="stroke: #A80036; stroke-width: 1.5;" x1="1374" x2="1507" y1="156" y2="156"/><!--MD5=[e78d3bd29d68b8fbdb4aae8710e3db25]
class Simulator--><rect fill="#FEFECE" filter="url(#f1cmyazeqcnzky)" height="48" id="Simulator" style="stroke: #A80036; stroke-width: 1.5;" width="91" x="1020" y="8"/><ellipse cx="1035" cy="24" fill="#ADD1B2" rx="11" ry="11" style="stroke: #A80036; stroke-width: 1.0;"/><path d="M1037.9688,29.6406 Q1037.3906,29.9375 1036.75,30.0781 Q1036.1094,30.2344 1035.4063,30.2344 Q1032.9063,30.2344 1031.5781,28.5938 Q1030.2656,26.9375 1030.2656,23.8125 Q1030.2656,20.6875 1031.5781,19.0313 Q1032.9063,17.375 1035.4063,17.375 Q1036.1094,17.375 1036.75,17.5313 Q1037.4063,17.6875 1037.9688,17.9844 L1037.9688,20.7031 Q1037.3438,20.125 1036.75,19.8594 Q1036.1563,19.5781 1035.5313,19.5781 Q1034.1875,19.5781 1033.5,20.6563 Q1032.8125,21.7188 1032.8125,23.8125 Q1032.8125,25.9063 1033.5,26.9844 Q1034.1875,28.0469 1035.5313,28.0469 Q1036.1563,28.0469 1036.75,27.7813 Q1037.3438,27.5 1037.9688,26.9219 L1037.9688,29.6406 Z "/><text fill="#000000" font-family="sans-serif" font-size="12" lengthAdjust="spacingAndGlyphs" textLength="59" x="1049" y="28.1543">Simulator</text><line style="stroke: #A80036; stroke-width: 1.5;" x1="1021" x2="1110" y1="40" y2="40"/><line style="stroke: #A80036; stroke-width: 1.5;" x1="1021" x2="1110" y1="48" y2="48"/><!--MD5=[cc1c410fe2850b6da0ea695abfcea755]
class VerticesFactory--><rect fill="#FEFECE" filter="url(#f1cmyazeqcnzky)" height="48" id="VerticesFactory" style="stroke: #A80036; stroke-width: 1.5;" width="129" x="1701" y="224"/><ellipse cx="1716" cy="240" fill="#ADD1B2" rx="11" ry="11" style="stroke: #A80036; stroke-width: 1.0;"/><path d="M1718.9688,245.6406 Q1718.3906,245.9375 1717.75,246.0781 Q1717.1094,246.2344 1716.4063,246.2344 Q1713.9063,246.2344 1712.5781,244.5938 Q1711.2656,242.9375 1711.2656,239.8125 Q1711.2656,236.6875 1712.5781,235.0313 Q1713.9063,233.375 1716.4063,233.375 Q1717.1094,233.375 1717.75,233.5313 Q1718.4063,233.6875 1718.9688,233.9844 L1718.9688,236.7031 Q1718.3438,236.125 1717.75,235.8594 Q1717.1563,235.5781 1716.5313,235.5781 Q1715.1875,235.5781 1714.5,236.6563 Q1713.8125,237.7188 1713.8125,239.8125 Q1713.8125,241.9063 1714.5,242.9844 Q1715.1875,244.0469 1716.5313,244.0469 Q1717.1563,244.0469 1717.75,243.7813 Q1718.3438,243.5 1718.9688,242.9219 L1718.9688,245.6406 Z "/><text fill="#000000" font-family="sans-serif" font-size="12" lengthAdjust="spacingAndGlyphs" textLength="97" x="1730" y="244.1543">VerticesFactory</text><line style="stroke: #A80036; stroke-width: 1.5;" x1="1702" x2="1829" y1="256" y2="256"/><line style="stroke: #A80036; stroke-width: 1.5;" x1="1702" x2="1829" y1="264" y2="264"/><!--MD5=[e2fde7c48d35c1cbf959be266268237c]
class XmlRecorder--><rect fill="#FEFECE" filter="url(#f1cmyazeqcnzky)" height="48" id="XmlRecorder" style="stroke: #A80036; stroke-width: 1.5;" width="110" x="1385.5" y="332"/><ellipse cx="1400.5" cy="348" fill="#ADD1B2" rx="11" ry="11" style="stroke: #A80036; stroke-width: 1.0;"/><path d="M1403.4688,353.6406 Q1402.8906,353.9375 1402.25,354.0781 Q1401.6094,354.2344 1400.9063,354.2344 Q1398.4063,354.2344 1397.0781,352.5938 Q1395.7656,350.9375 1395.7656,347.8125 Q1395.7656,344.6875 1397.0781,343.0313 Q1398.4063,341.375 1400.9063,341.375 Q1401.6094,341.375 1402.25,341.5313 Q1402.9063,341.6875 1403.4688,341.9844 L1403.4688,344.7031 Q1402.8438,344.125 1402.25,343.8594 Q1401.6563,343.5781 1401.0313,343.5781 Q1399.6875,343.5781 1399,344.6563 Q1398.3125,345.7188 1398.3125,347.8125 Q1398.3125,349.9063 1399,350.9844 Q1399.6875,352.0469 1401.0313,352.0469 Q1401.6563,352.0469 1402.25,351.7813 Q1402.8438,351.5 1403.4688,350.9219 L1403.4688,353.6406 Z "/><text fill="#000000" font-family="sans-serif" font-size="12" lengthAdjust="spacingAndGlyphs" textLength="78" x="1414.5" y="352.1543">XmlRecorder</text><line style="stroke: #A80036; stroke-width: 1.5;" x1="1386.5" x2="1494.5" y1="364" y2="364"/><line style="stroke: #A80036; stroke-width: 1.5;" x1="1386.5" x2="1494.5" y1="372" y2="372"/><!--MD5=[ee90c8bb66c047e800df5fa57f6b4f59]
class Operations::op--><rect fill="#FEFECE" filter="url(#f1cmyazeqcnzky)" height="48" id="Operations::op" style="stroke: #A80036; stroke-width: 1.5;" width="125" x="2217" y="332"/><ellipse cx="2232" cy="348" fill="#EB937F" rx="11" ry="11" style="stroke: #A80036; stroke-width: 1.0;"/><path d="M2236.1094,354 L2228.3906,354 L2228.3906,341.6094 L2236.1094,341.6094 L2236.1094,343.7656 L2230.8438,343.7656 L2230.8438,346.4375 L2235.6094,346.4375 L2235.6094,348.5938 L2230.8438,348.5938 L2230.8438,351.8438 L2236.1094,351.8438 L2236.1094,354 Z "/><text fill="#000000" font-family="sans-serif" font-size="12" lengthAdjust="spacingAndGlyphs" textLength="93" x="2246" y="352.1543">Operations::op</text><line style="stroke: #A80036; stroke-width: 1.5;" x1="2218" x2="2341" y1="364" y2="364"/><line style="stroke: #A80036; stroke-width: 1.5;" x1="2218" x2="2341" y1="372" y2="372"/><!--MD5=[2c8a843ca32eecec980159abf8666d97]
class enumClassSynapses--><rect fill="#FEFECE" filter="url(#f1cmyazeqcnzky)" height="48" id="enumClassSynapses" style="stroke: #A80036; stroke-width: 1.5;" width="160" x="2337.5" y="8"/><ellipse cx="2352.5" cy="24" fill="#EB937F" rx="11" ry="11" style="stroke: #A80036; stroke-width: 1.0;"/><path d="M2356.6094,30 L2348.8906,30 L2348.8906,17.6094 L2356.6094,17.6094 L2356.6094,19.7656 L2351.3438,19.7656 L2351.3438,22.4375 L2356.1094,22.4375 L2356.1094,24.5938 L2351.3438,24.5938 L2351.3438,27.8438 L2356.6094,27.8438 L2356.6094,30 Z "/><text fill="#000000" font-family="sans-serif" font-size="12" lengthAdjust="spacingAndGlyphs" textLength="128" x="2366.5" y="28.1543">enumClassSynapses</text><line style="stroke: #A80036; stroke-width: 1.5;" x1="2338.5" x2="2496.5" y1="40" y2="40"/><line style="stroke: #A80036; stroke-width: 1.5;" x1="2338.5" x2="2496.5" y1="48" y2="48"/><!--MD5=[12eed8bfdcfc08849f14b9c8d25e6e94]
class AllDSSynapsesDeviceProperties--><rect fill="#FEFECE" filter="url(#f1cmyazeqcnzky)" height="48" id="AllDSSynapsesDeviceProperties" style="stroke: #A80036; stroke-width: 1.5;" width="229" x="975" y="440"/><ellipse cx="990" cy="456" fill="#ADD1B2" rx="11" ry="11" style="stroke: #A80036; stroke-width: 1.0;"/><path d="M992.9688,461.6406 Q992.3906,461.9375 991.75,462.0781 Q991.1094,462.2344 990.4063,462.2344 Q987.9063,462.2344 986.5781,460.5938 Q985.2656,458.9375 985.2656,455.8125 Q985.2656,452.6875 986.5781,451.0313 Q987.9063,449.375 990.4063,449.375 Q991.1094,449.375 991.75,449.5313 Q992.4063,449.6875 992.9688,449.9844 L992.9688,452.7031 Q992.3438,452.125 991.75,451.8594 Q991.1563,451.5781 990.5313,451.5781 Q989.1875,451.5781 988.5,452.6563 Q987.8125,453.7188 987.8125,455.8125 Q987.8125,457.9063 988.5,458.9844 Q989.1875,460.0469 990.5313,460.0469 Q991.1563,460.0469 991.75,459.7813 Q992.3438,459.5 992.9688,458.9219 L992.9688,461.6406 Z "/><text fill="#000000" font-family="sans-serif" font-size="12" lengthAdjust="spacingAndGlyphs" textLength="197" x="1004" y="460.1543">AllDSSynapsesDeviceProperties</text><line style="stroke: #A80036; stroke-width: 1.5;" x1="976" x2="1203" y1="472" y2="472"/><line style="stroke: #A80036; stroke-width: 1.5;" x1="976" x2="1203" y1="480" y2="480"/><!--MD5=[4b1be41c79a1ff75e3d6100484a928eb]
class AllDynamicSTDPSynapsesDeviceProperties--><rect fill="#FEFECE" filter="url(#f1cmyazeqcnzky)" height="48" id="AllDynamicSTDPSynapsesDeviceProperties" style="stroke: #A80036; stroke-width: 1.5;" width="296" x="1213.5" y="548"/><ellipse cx="1228.5" cy="564" fill="#ADD1B2" rx="11" ry="11" style="stroke: #A80036; stroke-width: 1.0;"/><path d="M1231.4688,569.6406 Q1230.8906,569.9375 1230.25,570.0781 Q1229.6094,570.2344 1228.9063,570.2344 Q1226.4063,570.2344 1225.0781,568.5938 Q1223.7656,566.9375 1223.7656,563.8125 Q1223.7656,560.6875 1225.0781,559.0313 Q1226.4063,557.375 1228.9063,557.375 Q1229.6094,557.375 1230.25,557.5313 Q1230.9063,557.6875 1231.4688,557.9844 L1231.4688,560.7031 Q1230.8438,560.125 1230.25,559.8594 Q1229.6563,559.5781 1229.0313,559.5781 Q1227.6875,559.5781 1227,560.6563 Q1226.3125,561.7188 1226.3125,563.8125 Q1226.3125,565.9063 1227,566.9844 Q1227.6875,568.0469 1229.0313,568.0469 Q1229.6563,568.0469 1230.25,567.7813 Q1230.8438,567.5 1231.4688,566.9219 L1231.4688,569.6406 Z "/><text fill="#000000" font-family="sans-serif" font-size="12" lengthAdjust="spacingAndGlyphs" textLength="264" x="1242.5" y="568.1543">AllDynamicSTDPSynapsesDeviceProperties</text><line style="stroke: #A80036; stroke-width: 1.5;" x1="1214.5" x2="1508.5" y1="580" y2="580"/><line style="stroke: #A80036; stroke-width: 1.5;" x1="1214.5" x2="1508.5" y1="588" y2="588"/><!--MD5=[017d3a10fe7408131050c5acc75b1a9b]
class AllEdgesDeviceProperties--><rect fill="#FEFECE" filter="url(#f1cmyazeqcnzky)" height="48" id="AllEdgesDeviceProperties" style="stroke: #A80036; stroke-width: 1.5;" width="191" x="1148" y="224"/><ellipse cx="1163" cy="240" fill="#ADD1B2" rx="11" ry="11" style="stroke: #A80036; stroke-width: 1.0;"/><path d="M1165.9688,245.6406 Q1165.3906,245.9375 1164.75,246.0781 Q1164.1094,246.2344 1163.4063,246.2344 Q1160.9063,246.2344 1159.5781,244.5938 Q1158.2656,242.9375 1158.2656,239.8125 Q1158.2656,236.6875 1159.5781,235.0313 Q1160.9063,233.375 1163.4063,233.375 Q1164.1094,233.375 1164.75,233.5313 Q1165.4063,233.6875 1165.9688,233.9844 L1165.9688,236.7031 Q1165.3438,236.125 1164.75,235.8594 Q1164.1563,235.5781 1163.5313,235.5781 Q1162.1875,235.5781 1161.5,236.6563 Q1160.8125,237.7188 1160.8125,239.8125 Q1160.8125,241.9063 1161.5,242.9844 Q1162.1875,244.0469 1163.5313,244.0469 Q1164.1563,244.0469 1164.75,243.7813 Q1165.3438,243.5 1165.9688,242.9219 L1165.9688,245.6406 Z "/><text fill="#000000" font-family="sans-serif" font-size="12" lengthAdjust="spacingAndGlyphs" textLength="159" x="1177" y="244.1543">AllEdgesDeviceProperties</text><line style="stroke: #A80036; stroke-width: 1.5;" x1="1149" x2="1338" y1="256" y2="256"/><line style="stroke: #A80036; stroke-width: 1.5;" x1="1149" x2="1338" y1="264" y2="264"/><!--MD5=[639115fe7f0fcce40793e2aa5cc37621]
class AllIFNeuronsDeviceProperties--><rect fill="#FEFECE" filter="url(#f1cmyazeqcnzky)" height="48" id="AllIFNeuronsDeviceProperties" style="stroke: #A80036; stroke-width: 1.5;" width="215" x="725" y="440"/><ellipse cx="740" cy="456" fill="#ADD1B2" rx="11" ry="11" style="stroke: #A80036; stroke-width: 1.0;"/><path d="M742.9688,461.6406 Q742.3906,461.9375 741.75,462.0781 Q741.1094,462.2344 740.4063,462.2344 Q737.9063,462.2344 736.5781,460.5938 Q735.2656,458.9375 735.2656,455.8125 Q735.2656,452.6875 736.5781,451.0313 Q737.9063,449.375 740.4063,449.375 Q741.1094,449.375 741.75,449.5313 Q742.4063,449.6875 742.9688,449.9844 L742.9688,452.7031 Q742.3438,452.125 741.75,451.8594 Q741.1563,451.5781 740.5313,451.5781 Q739.1875,451.5781 738.5,452.6563 Q737.8125,453.7188 737.8125,455.8125 Q737.8125,457.9063 738.5,458.9844 Q739.1875,460.0469 740.5313,460.0469 Q741.1563,460.0469 741.75,459.7813 Q742.3438,459.5 742.9688,458.9219 L742.9688,461.6406 Z "/><text fill="#000000" font-family="sans-serif" font-size="12" lengthAdjust="spacingAndGlyphs" textLength="183" x="754" y="460.1543">AllIFNeuronsDeviceProperties</text><line style="stroke: #A80036; stroke-width: 1.5;" x1="726" x2="939" y1="472" y2="472"/><line style="stroke: #A80036; stroke-width: 1.5;" x1="726" x2="939" y1="480" y2="480"/><!--MD5=[bc6843495936d398fdad119946a0d209]
class AllIZHNeuronsDeviceProperties--><rect fill="#FEFECE" filter="url(#f1cmyazeqcnzky)" height="48" id="AllIZHNeuronsDeviceProperties" style="stroke: #A80036; stroke-width: 1.5;" width="226" x="719.5" y="548"/><ellipse cx="734.5" cy="564" fill="#ADD1B2" rx="11" ry="11" style="stroke: #A80036; stroke-width: 1.0;"/><path d="M737.4688,569.6406 Q736.8906,569.9375 736.25,570.0781 Q735.6094,570.2344 734.9063,570.2344 Q732.4063,570.2344 731.0781,568.5938 Q729.7656,566.9375 729.7656,563.8125 Q729.7656,560.6875 731.0781,559.0313 Q732.4063,557.375 734.9063,557.375 Q735.6094,557.375 736.25,557.5313 Q736.9063,557.6875 737.4688,557.9844 L737.4688,560.7031 Q736.8438,560.125 736.25,559.8594 Q735.6563,559.5781 735.0313,559.5781 Q733.6875,559.5781 733,560.6563 Q732.3125,561.7188 732.3125,563.8125 Q732.3125,565.9063 733,566.9844 Q733.6875,568.0469 735.0313,568.0469 Q735.6563,568.0469 736.25,567.7813 Q736.8438,567.5 737.4688,566.9219 L737.4688,569.6406 Z "/><text fill="#000000" font-family="sans-serif" font-size="12" lengthAdjust="spacingAndGlyphs" textLength="194" x="748.5" y="568.1543">AllIZHNeuronsDeviceProperties</text><line style="stroke: #A80036; stroke-width: 1.5;" x1="720.5" x2="944.5" y1="580" y2="580"/><line style="stroke: #A80036; stroke-width: 1.5;" x1="720.5" x2="944.5" y1="588" y2="588"/><!--MD5=[a7843438017f4a8113b6a979c3ec4039]
class AllSTDPSynapsesDeviceProperties--><rect fill="#FEFECE" filter="url(#f1cmyazeqcnzky)" height="48" id="AllSTDPSynapsesDeviceProperties" style="stroke: #A80036; stroke-width: 1.5;" width="244" x="1239.5" y="440"/><ellipse cx="1254.5" cy="456" fill="#ADD1B2" rx="11" ry="11" style="stroke: #A80036; stroke-width: 1.0;"/><path d="M1257.4688,461.6406 Q1256.8906,461.9375 1256.25,462.0781 Q1255.6094,462.2344 1254.9063,462.2344 Q1252.4063,462.2344 1251.0781,460.5938 Q1249.7656,458.9375 1249.7656,455.8125 Q1249.7656,452.6875 1251.0781,451.0313 Q1252.4063,449.375 1254.9063,449.375 Q1255.6094,449.375 1256.25,449.5313 Q1256.9063,449.6875 1257.4688,449.9844 L1257.4688,452.7031 Q1256.8438,452.125 1256.25,451.8594 Q1255.6563,451.5781 1255.0313,451.5781 Q1253.6875,451.5781 1253,452.6563 Q1252.3125,453.7188 1252.3125,455.8125 Q1252.3125,457.9063 1253,458.9844 Q1253.6875,460.0469 1255.0313,460.0469 Q1255.6563,460.0469 1256.25,459.7813 Q1256.8438,459.5 1257.4688,458.9219 L1257.4688,461.6406 Z "/><text fill="#000000" font-family="sans-serif" font-size="12" lengthAdjust="spacingAndGlyphs" textLength="212" x="1268.5" y="460.1543">AllSTDPSynapsesDeviceProperties</text><line style="stroke: #A80036; stroke-width: 1.5;" x1="1240.5" x2="1482.5" y1="472" y2="472"/><line style="stroke: #A80036; stroke-width: 1.5;" x1="1240.5" x2="1482.5" y1="480" y2="480"/><!--MD5=[4ac84e1680f309079c4f5159a2743064]
class AllSpikingNeuronsDeviceProperties--><rect fill="#FEFECE" filter="url(#f1cmyazeqcnzky)" height="48" id="AllSpikingNeuronsDeviceProperties" style="stroke: #A80036; stroke-width: 1.5;" width="250" x="754.5" y="332"/><ellipse cx="769.5" cy="348" fill="#ADD1B2" rx="11" ry="11" style="stroke: #A80036; stroke-width: 1.0;"/><path d="M772.4688,353.6406 Q771.8906,353.9375 771.25,354.0781 Q770.6094,354.2344 769.9063,354.2344 Q767.4063,354.2344 766.0781,352.5938 Q764.7656,350.9375 764.7656,347.8125 Q764.7656,344.6875 766.0781,343.0313 Q767.4063,341.375 769.9063,341.375 Q770.6094,341.375 771.25,341.5313 Q771.9063,341.6875 772.4688,341.9844 L772.4688,344.7031 Q771.8438,344.125 771.25,343.8594 Q770.6563,343.5781 770.0313,343.5781 Q768.6875,343.5781 768,344.6563 Q767.3125,345.7188 767.3125,347.8125 Q767.3125,349.9063 768,350.9844 Q768.6875,352.0469 770.0313,352.0469 Q770.6563,352.0469 771.25,351.7813 Q771.8438,351.5 772.4688,350.9219 L772.4688,353.6406 Z "/><text fill="#000000" font-family="sans-serif" font-size="12" lengthAdjust="spacingAndGlyphs" textLength="218" x="783.5" y="352.1543">AllSpikingNeuronsDeviceProperties</text><line style="stroke: #A80036; stroke-width: 1.5;" x1="755.5" x2="1003.5" y1="364" y2="364"/><line style="stroke: #A80036; stroke-width: 1.5;" x1="755.5" x2="1003.5" y1="372" y2="372"/><!--MD5=[9207c363d1f0343d1c8507e42ff7f935]
class AllSpikingSynapsesDeviceProperties--><rect fill="#FEFECE" filter="url(#f1cmyazeqcnzky)" height="48" id="AllSpikingSynapsesDeviceProperties" style="stroke: #A80036; stroke-width: 1.5;" width="257" x="1068" y="332"/><ellipse cx="1083" cy="348" fill="#ADD1B2" rx="11" ry="11" style="stroke: #A80036; stroke-width: 1.0;"/><path d="M1085.9688,353.6406 Q1085.3906,353.9375 1084.75,354.0781 Q1084.1094,354.2344 1083.4063,354.2344 Q1080.9063,354.2344 1079.5781,352.5938 Q1078.2656,350.9375 1078.2656,347.8125 Q1078.2656,344.6875 1079.5781,343.0313 Q1080.9063,341.375 1083.4063,341.375 Q1084.1094,341.375 1084.75,341.5313 Q1085.4063,341.6875 1085.9688,341.9844 L1085.9688,344.7031 Q1085.3438,344.125 1084.75,343.8594 Q1084.1563,343.5781 1083.5313,343.5781 Q1082.1875,343.5781 1081.5,344.6563 Q1080.8125,345.7188 1080.8125,347.8125 Q1080.8125,349.9063 1081.5,350.9844 Q1082.1875,352.0469 1083.5313,352.0469 Q1084.1563,352.0469 1084.75,351.7813 Q1085.3438,351.5 1085.9688,350.9219 L1085.9688,353.6406 Z "/><text fill="#000000" font-family="sans-serif" font-size="12" lengthAdjust="spacingAndGlyphs" textLength="225" x="1097" y="352.1543">AllSpikingSynapsesDeviceProperties</text><line style="stroke: #A80036; stroke-width: 1.5;" x1="1069" x2="1324" y1="364" y2="364"/><line style="stroke: #A80036; stroke-width: 1.5;" x1="1069" x2="1324" y1="372" y2="372"/><!--MD5=[537ade6dbdfe6ef3b32240037651f8aa]
class AllVerticesDeviceProperties--><rect fill="#FEFECE" filter="url(#f1cmyazeqcnzky)" height="48" id="AllVerticesDeviceProperties" style="stroke: #A80036; stroke-width: 1.5;" width="203" x="780" y="224"/><ellipse cx="795" cy="240" fill="#ADD1B2" rx="11" ry="11" style="stroke: #A80036; stroke-width: 1.0;"/><path d="M797.9688,245.6406 Q797.3906,245.9375 796.75,246.0781 Q796.1094,246.2344 795.4063,246.2344 Q792.9063,246.2344 791.5781,244.5938 Q790.2656,242.9375 790.2656,239.8125 Q790.2656,236.6875 791.5781,235.0313 Q792.9063,233.375 795.4063,233.375 Q796.1094,233.375 796.75,233.5313 Q797.4063,233.6875 797.9688,233.9844 L797.9688,236.7031 Q797.3438,236.125 796.75,235.8594 Q796.1563,235.5781 795.5313,235.5781 Q794.1875,235.5781 793.5,236.6563 Q792.8125,237.7188 792.8125,239.8125 Q792.8125,241.9063 793.5,242.9844 Q794.1875,244.0469 795.5313,244.0469 Q796.1563,244.0469 796.75,243.7813 Q797.3438,243.5 797.9688,242.9219 L797.9688,245.6406 Z "/><text fill="#000000" font-family="sans-serif" font-size="12" lengthAdjust="spacingAndGlyphs" textLength="171" x="809" y="244.1543">AllVerticesDeviceProperties</text><line style="stroke: #A80036; stroke-width: 1.5;" x1="781" x2="982" y1="256" y2="256"/><line style="stroke: #A80036; stroke-width: 1.5;" x1="781" x2="982" y1="264" y2="264"/><!--MD5=[1ca6d9ba181062a9a4052698cf88a455]
class ConnGrowth::GrowthParams--><rect fill="#FEFECE" filter="url(#f1cmyazeqcnzky)" height="48" id="ConnGrowth::GrowthParams" style="stroke: #A80036; stroke-width: 1.5;" width="207" x="483" y="440"/><ellipse cx="498" cy="456" fill="#ADD1B2" rx="11" ry="11" style="stroke: #A80036; stroke-width: 1.0;"/><path d="M500.9688,461.6406 Q500.3906,461.9375 499.75,462.0781 Q499.1094,462.2344 498.4063,462.2344 Q495.9063,462.2344 494.5781,460.5938 Q493.2656,458.9375 493.2656,455.8125 Q493.2656,452.6875 494.5781,451.0313 Q495.9063,449.375 498.4063,449.375 Q499.1094,449.375 499.75,449.5313 Q500.4063,449.6875 500.9688,449.9844 L500.9688,452.7031 Q500.3438,452.125 499.75,451.8594 Q499.1563,451.5781 498.5313,451.5781 Q497.1875,451.5781 496.5,452.6563 Q495.8125,453.7188 495.8125,455.8125 Q495.8125,457.9063 496.5,458.9844 Q497.1875,460.0469 498.5313,460.0469 Q499.1563,460.0469 499.75,459.7813 Q500.3438,459.5 500.9688,458.9219 L500.9688,461.6406 Z "/><text fill="#000000" font-family="sans-serif" font-size="12" lengthAdjust="spacingAndGlyphs" textLength="175" x="512" y="460.1543">ConnGrowth::GrowthParams</text><line style="stroke: #A80036; stroke-width: 1.5;" x1="484" x2="689" y1="472" y2="472"/><line style="stroke: #A80036; stroke-width: 1.5;" x1="484" x2="689" y1="480" y2="480"/><!--MD5=[0db2b2f8d15a42d02f46e8af06351a10]
class ConnStatic::DistDestVertex--><rect fill="#FEFECE" filter="url(#f1cmyazeqcnzky)" height="48" id="ConnStatic::DistDestVertex" style="stroke: #A80036; stroke-width: 1.5;" width="201" x="247" y="440"/><ellipse cx="262" cy="456" fill="#ADD1B2" rx="11" ry="11" style="stroke: #A80036; stroke-width: 1.0;"/><path d="M264.9688,461.6406 Q264.3906,461.9375 263.75,462.0781 Q263.1094,462.2344 262.4063,462.2344 Q259.9063,462.2344 258.5781,460.5938 Q257.2656,458.9375 257.2656,455.8125 Q257.2656,452.6875 258.5781,451.0313 Q259.9063,449.375 262.4063,449.375 Q263.1094,449.375 263.75,449.5313 Q264.4063,449.6875 264.9688,449.9844 L264.9688,452.7031 Q264.3438,452.125 263.75,451.8594 Q263.1563,451.5781 262.5313,451.5781 Q261.1875,451.5781 260.5,452.6563 Q259.8125,453.7188 259.8125,455.8125 Q259.8125,457.9063 260.5,458.9844 Q261.1875,460.0469 262.5313,460.0469 Q263.1563,460.0469 263.75,459.7813 Q264.3438,459.5 264.9688,458.9219 L264.9688,461.6406 Z "/><text fill="#000000" font-family="sans-serif" font-size="12" lengthAdjust="spacingAndGlyphs" textLength="169" x="276" y="460.1543">ConnStatic::DistDestVertex</text><line style="stroke: #A80036; stroke-width: 1.5;" x1="248" x2="447" y1="472" y2="472"/><line style="stroke: #A80036; stroke-width: 1.5;" x1="248" x2="447" y1="480" y2="480"/><!--MD5=[0b11278c58281ab7c80e79be642856f2]
class EdgeIndexMap--><rect fill="#FEFECE" filter="url(#f1cmyazeqcnzky)" height="48" id="EdgeIndexMap" style="stroke: #A80036; stroke-width: 1.5;" width="123" x="596" y="332"/><ellipse cx="611" cy="348" fill="#ADD1B2" rx="11" ry="11" style="stroke: #A80036; stroke-width: 1.0;"/><path d="M613.9688,353.6406 Q613.3906,353.9375 612.75,354.0781 Q612.1094,354.2344 611.4063,354.2344 Q608.9063,354.2344 607.5781,352.5938 Q606.2656,350.9375 606.2656,347.8125 Q606.2656,344.6875 607.5781,343.0313 Q608.9063,341.375 611.4063,341.375 Q612.1094,341.375 612.75,341.5313 Q613.4063,341.6875 613.9688,341.9844 L613.9688,344.7031 Q613.3438,344.125 612.75,343.8594 Q612.1563,343.5781 611.5313,343.5781 Q610.1875,343.5781 609.5,344.6563 Q608.8125,345.7188 608.8125,347.8125 Q608.8125,349.9063 609.5,350.9844 Q610.1875,352.0469 611.5313,352.0469 Q612.1563,352.0469 612.75,351.7813 Q613.3438,351.5 613.9688,350.9219 L613.9688,353.6406 Z "/><text fill="#000000" font-family="sans-serif" font-size="12" lengthAdjust="spacingAndGlyphs" textLength="91" x="625" y="352.1543">EdgeIndexMap</text><line style="stroke: #A80036; stroke-width: 1.5;" x1="597" x2="718" y1="364" y2="364"/><line style="stroke: #A80036; stroke-width: 1.5;" x1="597" x2="718" y1="372" y2="372"/><!--MD5=[36cebae4583ca589f8881f15eca879f1]
reverse link AllEdges to AllNeuroEdges--><path d="M174.03,399.06 C168.94,412.89 163.47,427.76 159.08,439.68 " fill="none" id="AllEdges&lt;-AllNeuroEdges" style="stroke: #A80036; stroke-width: 1.0;"/><polygon fill="none" points="167.56,396.35,181.04,380,180.7,401.19,167.56,396.35" style="stroke: #A80036; stroke-width: 1.0;"/><!--MD5=[d895029eba7154c6905399e7eb5aaaea]
reverse link AllEdgesDeviceProperties to AllSpikingSynapsesDeviceProperties--><path d="M1225.07,290.57 C1218.87,304.54 1212.19,319.62 1206.84,331.68 " fill="none" id="AllEdgesDeviceProperties&lt;-AllSpikingSynapsesDeviceProperties" style="stroke: #A80036; stroke-width: 1.0;"/><polygon fill="none" points="1218.8,287.45,1233.3,272,1231.59,293.12,1218.8,287.45" style="stroke: #A80036; stroke-width: 1.0;"/><!--MD5=[b299d6e53b6ac4d2a1701b68b9dc7554]
reverse link AllIFNeurons to AllIZHNeurons--><path d="M1829.69,612.66 C1819.16,627.15 1807.6,643.07 1798.44,655.68 " fill="none" id="AllIFNeurons&lt;-AllIZHNeurons" style="stroke: #A80036; stroke-width: 1.0;"/><polygon fill="none" points="1824.37,608.07,1841.79,596,1835.7,616.3,1824.37,608.07" style="stroke: #A80036; stroke-width: 1.0;"/><!--MD5=[7d41fa10eee7108bf615579dc16f66c4]
reverse link AllIFNeurons to AllLIFNeurons--><path d="M1886.93,612.66 C1897.32,627.15 1908.74,643.07 1917.78,655.68 " fill="none" id="AllIFNeurons&lt;-AllLIFNeurons" style="stroke: #A80036; stroke-width: 1.0;"/><polygon fill="none" points="1880.96,616.33,1874.99,596,1892.33,608.18,1880.96,616.33" style="stroke: #A80036; stroke-width: 1.0;"/><!--MD5=[17cadfdde82fbd78aaa7ab65342c0454]
reverse link AllIFNeuronsDeviceProperties to AllIZHNeuronsDeviceProperties--><path d="M832.5,508.02 C832.5,521.58 832.5,536.04 832.5,547.68 " fill="none" id="AllIFNeuronsDeviceProperties&lt;-AllIZHNeuronsDeviceProperties" style="stroke: #A80036; stroke-width: 1.0;"/><polygon fill="none" points="825.5,508,832.5,488,839.5,508,825.5,508" style="stroke: #A80036; stroke-width: 1.0;"/><!--MD5=[3d383143b8365dcb1c00482aec0d8f87]
reverse link AllNeuroEdges to AllSpikingSynapses--><path d="M150.5,508.02 C150.5,521.58 150.5,536.04 150.5,547.68 " fill="none" id="AllNeuroEdges&lt;-AllSpikingSynapses" style="stroke: #A80036; stroke-width: 1.0;"/><polygon fill="none" points="143.5,508,150.5,488,157.5,508,143.5,508" style="stroke: #A80036; stroke-width: 1.0;"/><!--MD5=[5445f169f2d896f0fc54fbb0dd17c8d5]
reverse link AllSTDPSynapses to AllDynamicSTDPSynapses--><path d="M233.5,724.02 C233.5,737.58 233.5,752.04 233.5,763.68 " fill="none" id="AllSTDPSynapses&lt;-AllDynamicSTDPSynapses" style="stroke: #A80036; stroke-width: 1.0;"/><polygon fill="none" points="226.5,724,233.5,704,240.5,724,226.5,724" style="stroke: #A80036; stroke-width: 1.0;"/><!--MD5=[539a086fdc8dbc8028ce1b9c0d3cb21a]
reverse link AllSTDPSynapsesDeviceProperties to AllDynamicSTDPSynapsesDeviceProperties--><path d="M1361.5,508.02 C1361.5,521.58 1361.5,536.04 1361.5,547.68 " fill="none" id="AllSTDPSynapsesDeviceProperties&lt;-AllDynamicSTDPSynapsesDeviceProperties" style="stroke: #A80036; stroke-width: 1.0;"/><polygon fill="none" points="1354.5,508,1361.5,488,1368.5,508,1354.5,508" style="stroke: #A80036; stroke-width: 1.0;"/><!--MD5=[8724fdcf162cd93143062af7a28861a5]
reverse link AllSpikingNeurons to AllIFNeurons--><path d="M1814.06,504.66 C1823.77,519.15 1834.43,535.07 1842.88,547.68 " fill="none" id="AllSpikingNeurons&lt;-AllIFNeurons" style="stroke: #A80036; stroke-width: 1.0;"/><polygon fill="none" points="1808.22,508.51,1802.91,488,1819.85,500.72,1808.22,508.51" style="stroke: #A80036; stroke-width: 1.0;"/><!--MD5=[5fcb689111a9832bf7543527f372e607]
reverse link AllSpikingNeuronsDeviceProperties to AllIFNeuronsDeviceProperties--><path d="M861.07,398.57 C854.87,412.54 848.19,427.62 842.84,439.68 " fill="none" id="AllSpikingNeuronsDeviceProperties&lt;-AllIFNeuronsDeviceProperties" style="stroke: #A80036; stroke-width: 1.0;"/><polygon fill="none" points="854.8,395.45,869.3,380,867.59,401.12,854.8,395.45" style="stroke: #A80036; stroke-width: 1.0;"/><!--MD5=[f221506eaa2e129ebcab2e085332c1be]
reverse link AllSpikingSynapses to AllDSSynapses--><path d="M119.82,612.18 C108.37,626.8 95.74,642.93 85.76,655.68 " fill="none" id="AllSpikingSynapses&lt;-AllDSSynapses" style="stroke: #A80036; stroke-width: 1.0;"/><polygon fill="none" points="114.65,607.43,132.49,596,125.67,616.06,114.65,607.43" style="stroke: #A80036; stroke-width: 1.0;"/><!--MD5=[587b9d07fbc4fdda6579551662042140]
reverse link AllSpikingSynapses to AllSTDPSynapses--><path d="M181.18,612.18 C192.63,626.8 205.26,642.93 215.24,655.68 " fill="none" id="AllSpikingSynapses&lt;-AllSTDPSynapses" style="stroke: #A80036; stroke-width: 1.0;"/><polygon fill="none" points="175.33,616.06,168.51,596,186.35,607.43,175.33,616.06" style="stroke: #A80036; stroke-width: 1.0;"/><!--MD5=[23aac5e482fb680cc0cec1f0f0dd59a6]
reverse link AllSpikingSynapsesDeviceProperties to AllDSSynapsesDeviceProperties--><path d="M1158.87,394.28 C1143.62,409.39 1126.47,426.38 1113.04,439.68 " fill="none" id="AllSpikingSynapsesDeviceProperties&lt;-AllDSSynapsesDeviceProperties" style="stroke: #A80036; stroke-width: 1.0;"/><polygon fill="none" points="1154.15,389.1,1173.28,380,1164,399.05,1154.15,389.1" style="stroke: #A80036; stroke-width: 1.0;"/><!--MD5=[e9a3e383543838c874b32001a8709207]
reverse link AllSpikingSynapsesDeviceProperties to AllSTDPSynapsesDeviceProperties--><path d="M1249.14,390.81 C1274.04,406.81 1303.14,425.51 1325.48,439.86 " fill="none" id="AllSpikingSynapsesDeviceProperties&lt;-AllSTDPSynapsesDeviceProperties" style="stroke: #A80036; stroke-width: 1.0;"/><polygon fill="none" points="1245.35,396.7,1232.3,380,1252.91,384.92,1245.35,396.7" style="stroke: #A80036; stroke-width: 1.0;"/><!--MD5=[f591e114573ccd2409f159b73ea72911]
reverse link AllVertices to AllSpikingNeurons--><path d="M1775.02,400.02 C1777.71,413.58 1780.57,428.04 1782.88,439.68 " fill="none" id="AllVertices&lt;-AllSpikingNeurons" style="stroke: #A80036; stroke-width: 1.0;"/><polygon fill="none" points="1768.08,400.98,1771.06,380,1781.81,398.26,1768.08,400.98" style="stroke: #A80036; stroke-width: 1.0;"/><!--MD5=[fcd28df228b50666b72099cd983e7d22]
reverse link AllVerticesDeviceProperties to AllSpikingNeuronsDeviceProperties--><path d="M880.69,292.02 C880.43,305.58 880.16,320.04 879.94,331.68 " fill="none" id="AllVerticesDeviceProperties&lt;-AllSpikingNeuronsDeviceProperties" style="stroke: #A80036; stroke-width: 1.0;"/><polygon fill="none" points="873.69,291.86,881.07,272,887.69,292.13,873.69,291.86" style="stroke: #A80036; stroke-width: 1.0;"/><!--MD5=[10477add2578806cc5f98b33b8db5e65]
reverse link Connections to ConnGrowth--><path d="M506.5,292.02 C506.5,305.58 506.5,320.04 506.5,331.68 " fill="none" id="Connections&lt;-ConnGrowth" style="stroke: #A80036; stroke-width: 1.0;"/><polygon fill="none" points="499.5,292,506.5,272,513.5,292,499.5,292" style="stroke: #A80036; stroke-width: 1.0;"/><!--MD5=[513ec0388948448dab3ce17eb36460f7]
reverse link Connections to ConnStatic--><path d="M456.03,283.51 C432.87,299.35 406.02,317.71 385.33,331.86 " fill="none" id="Connections&lt;-ConnStatic" style="stroke: #A80036; stroke-width: 1.0;"/><polygon fill="none" points="452.41,277.51,472.87,272,460.31,289.07,452.41,277.51" style="stroke: #A80036; stroke-width: 1.0;"/><!--MD5=[19d836ace92e712b0d8c405f49d503c3]
reverse link Hdf5Recorder to Hdf5GrowthRecorder--><path d="M1598.31,400.02 C1598.57,413.58 1598.84,428.04 1599.06,439.68 " fill="none" id="Hdf5Recorder&lt;-Hdf5GrowthRecorder" style="stroke: #A80036; stroke-width: 1.0;"/><polygon fill="none" points="1591.31,400.13,1597.93,380,1605.31,399.86,1591.31,400.13" style="stroke: #A80036; stroke-width: 1.0;"/><!--MD5=[8dd8f9de4d0029903f75705d233ca28a]
reverse link IFunctionNode to GenericFunctionNode--><path d="M2173.59,174.81 C2148.08,190.81 2118.28,209.51 2095.39,223.86 " fill="none" id="IFunctionNode&lt;-GenericFunctionNode" style="stroke: #A80036; stroke-width: 1.0;"/><polygon fill="none" points="2170.17,168.7,2190.83,164,2177.61,180.56,2170.17,168.7" style="stroke: #A80036; stroke-width: 1.0;"/><!--MD5=[845bd816721334aa86e34ab601eef40f]
reverse link Recorder to Hdf5Recorder--><path d="M1491.27,283.28 C1514.81,299.17 1542.17,317.65 1563.23,331.86 " fill="none" id="Recorder&lt;-Hdf5Recorder" style="stroke: #A80036; stroke-width: 1.0;"/><polygon fill="none" points="1487.23,288.99,1474.57,272,1495.06,277.39,1487.23,288.99" style="stroke: #A80036; stroke-width: 1.0;"/><!--MD5=[8c205a24cdc96e40cc67ede097f563f5]
reverse link Recorder to XmlRecorder--><path d="M1440.5,292.02 C1440.5,305.58 1440.5,320.04 1440.5,331.68 " fill="none" id="Recorder&lt;-XmlRecorder" style="stroke: #A80036; stroke-width: 1.0;"/><polygon fill="none" points="1433.5,292,1440.5,272,1447.5,292,1433.5,292" style="stroke: #A80036; stroke-width: 1.0;"/><!--MD5=[7269b632a17f4028eba21f1bd63939ed]
reverse link Layout to DynamicLayout--><path d="M1951.67,283.75 C1974.01,299.53 1999.84,317.78 2019.76,331.86 " fill="none" id="Layout&lt;-DynamicLayout" style="stroke: #A80036; stroke-width: 1.0;"/><polygon fill="none" points="1947.34,289.26,1935.05,272,1955.42,277.83,1947.34,289.26" style="stroke: #A80036; stroke-width: 1.0;"/><!--MD5=[891067ebdc7a855417ab5d2553f427ef]
reverse link Layout to FixedLayout--><path d="M1902.5,292.02 C1902.5,305.58 1902.5,320.04 1902.5,331.68 " fill="none" id="Layout&lt;-FixedLayout" style="stroke: #A80036; stroke-width: 1.0;"/><polygon fill="none" points="1895.5,292,1902.5,272,1909.5,292,1895.5,292" style="stroke: #A80036; stroke-width: 1.0;"/><!--MD5=[a2a96d1a257e41c08a9c3a3f8aadcb29]
reverse link Model to CPUModel--><path d="M1065.5,184.02 C1065.5,197.58 1065.5,212.04 1065.5,223.68 " fill="none" id="Model&lt;-CPUModel" style="stroke: #A80036; stroke-width: 1.0;"/><polygon fill="none" points="1058.5,184,1065.5,164,1072.5,184,1058.5,184" style="stroke: #A80036; stroke-width: 1.0;"/><!--MD5=[8342ff62b1882cdc2aad46dd54e535e9]
reverse link Model to GPUModel--><path d="M1010.95,154.67 C950.02,170.23 848.63,197 762.5,224 C756.9,225.75 751.07,227.68 745.29,229.65 " fill="none" id="Model&lt;-GPUModel" style="stroke: #A80036; stroke-width: 1.0;"/><polygon fill="none" points="1009.62,147.78,1030.73,149.65,1013.06,161.35,1009.62,147.78" style="stroke: #A80036; stroke-width: 1.0;"/><!--MD5=[f7b242bc45f077880469141c87516fa7]
reverse link AllSpikingNeurons to EventBuffer--><path d="M1764.72,499.01 C1754.08,514.89 1741.68,533.41 1732.12,547.68 " fill="none" id="AllSpikingNeurons&lt;-EventBuffer" style="stroke: #A80036; stroke-width: 1.0;"/><polygon fill="#A80036" points="1772.09,488,1765.4285,490.7613,1765.4153,497.9724,1772.0768,495.2111,1772.09,488" style="stroke: #A80036; stroke-width: 1.0;"/><!--MD5=[25007e0d6d2bc2691ed586569b6b25e2]
reverse link Connections to AllEdges--><path d="M439.09,271.54 C376.27,292.55 284.53,323.22 231.54,340.94 " fill="none" id="Connections&lt;-AllEdges" style="stroke: #A80036; stroke-width: 1.0;"/><polygon fill="#A80036" points="451.64,267.34,444.6804,265.4523,440.2611,271.1506,447.2207,273.0382,451.64,267.34" style="stroke: #A80036; stroke-width: 1.0;"/><!--MD5=[82859cdc4fc284e53b85be6b34e88627]
reverse link Connections to EdgeIndexMap--><path d="M550.1,279.61 C573.83,296.26 602.71,316.54 624.54,331.86 " fill="none" id="Connections&lt;-EdgeIndexMap" style="stroke: #A80036; stroke-width: 1.0;"/><polygon fill="#A80036" points="539.26,272,541.8682,278.7229,549.0771,278.901,546.4689,272.1781,539.26,272" style="stroke: #A80036; stroke-width: 1.0;"/><!--MD5=[dbf6625826c2ccd9ab80e1a9e4bec40a]
reverse link ConnectionsFactory to Connections--><path d="M506.5,177.34 C506.5,192.68 506.5,210.1 506.5,223.68 " fill="none" id="ConnectionsFactory&lt;-Connections" style="stroke: #A80036; stroke-width: 1.0;"/><polygon fill="#A80036" points="506.5,164,502.5,170,506.5,176,510.5,170,506.5,164" style="stroke: #A80036; stroke-width: 1.0;"/><!--MD5=[324f5d3a776c0915160172bb3bb1f68c]
reverse link EdgesFactory to AllEdges--><path d="M189.5,285.34 C189.5,300.68 189.5,318.1 189.5,331.68 " fill="none" id="EdgesFactory&lt;-AllEdges" style="stroke: #A80036; stroke-width: 1.0;"/><polygon fill="#A80036" points="189.5,272,185.5,278,189.5,284,193.5,278,189.5,272" style="stroke: #A80036; stroke-width: 1.0;"/><!--MD5=[2b5495829f9173c044fb8801621d6187]
reverse link GPUModel to AllSpikingNeuronsDeviceProperties--><path d="M748.51,278.71 C777.39,295.53 812.98,316.26 839.77,331.86 " fill="none" id="GPUModel&lt;-AllSpikingNeuronsDeviceProperties" style="stroke: #A80036; stroke-width: 1.0;"/><polygon fill="#FFFFFF" points="736.99,272,740.1603,278.4768,747.3582,278.0415,744.188,271.5647,736.99,272" style="stroke: #A80036; stroke-width: 1.0;"/><!--MD5=[f6129bcb9c73284e17b33b28d9016c76]
reverse link GPUModel to AllSpikingSynapsesDeviceProperties--><path d="M757.68,270.65 C759.3,271.12 760.91,271.57 762.5,272 C863.76,299.43 980.67,321.24 1067.63,335.6 " fill="none" id="GPUModel&lt;-AllSpikingSynapsesDeviceProperties" style="stroke: #A80036; stroke-width: 1.0;"/><polygon fill="#FFFFFF" points="745.16,266.79,749.7107,272.3839,756.6245,270.3348,752.0738,264.7409,745.16,266.79" style="stroke: #A80036; stroke-width: 1.0;"/><!--MD5=[5aeaf2a6bd64d076c9a29b9ba5666847]
reverse link GPUModel to EdgeIndexMap--><path d="M684.14,284.4 C678.27,299.97 671.53,317.82 666.3,331.68 " fill="none" id="GPUModel&lt;-EdgeIndexMap" style="stroke: #A80036; stroke-width: 1.0;"/><polygon fill="#FFFFFF" points="688.82,272,682.9614,276.2044,684.5892,283.2294,690.4477,279.025,688.82,272" style="stroke: #A80036; stroke-width: 1.0;"/><!--MD5=[147440af9da7b06bb1c25492ebb2b6fc]
reverse link IFunctionNode to Operations--><path d="M2227.5,177.34 C2227.5,192.68 2227.5,210.1 2227.5,223.68 " fill="none" id="IFunctionNode&lt;-Operations" style="stroke: #A80036; stroke-width: 1.0;"/><polygon fill="#A80036" points="2227.5,164,2223.5,170,2227.5,176,2231.5,170,2227.5,164" style="stroke: #A80036; stroke-width: 1.0;"/><!--MD5=[9ced99db6c97f860d3e6f1f558ceb823]
reverse link IFunctionNode to Operations::op--><path d="M2263.26,173.86 C2276,187.91 2288.84,205.37 2295.5,224 C2308.38,260.03 2297.64,304.8 2288.63,331.57 " fill="none" id="IFunctionNode&lt;-Operations::op" style="stroke: #A80036; stroke-width: 1.0;"/><polygon fill="#A80036" points="2254.08,164.26,2255.34,171.3602,2262.3786,172.928,2261.1186,165.8278,2254.08,164.26" style="stroke: #A80036; stroke-width: 1.0;"/><!--MD5=[efb7ef13657b6fc949565044919673f3]
reverse link Layout to AllVertices--><path d="M1862.69,280.03 C1841.5,296.54 1815.89,316.5 1796.42,331.68 " fill="none" id="Layout&lt;-AllVertices" style="stroke: #A80036; stroke-width: 1.0;"/><polygon fill="#A80036" points="1872.99,272,1865.7984,272.5297,1863.5213,279.3719,1870.7129,278.8422,1872.99,272" style="stroke: #A80036; stroke-width: 1.0;"/><!--MD5=[95ba44a0b3c69ce18700dade6dfd248d]
reverse link LayoutFactory to Layout--><path d="M1902.5,177.34 C1902.5,192.68 1902.5,210.1 1902.5,223.68 " fill="none" id="LayoutFactory&lt;-Layout" style="stroke: #A80036; stroke-width: 1.0;"/><polygon fill="#A80036" points="1902.5,164,1898.5,170,1902.5,176,1906.5,170,1902.5,164" style="stroke: #A80036; stroke-width: 1.0;"/><!--MD5=[0e5738770afdb953f3cb9465cb228f84]
reverse link Model to Connections--><path d="M1017.93,150.02 C914.76,169.58 670.92,215.82 561.41,236.59 " fill="none" id="Model&lt;-Connections" style="stroke: #A80036; stroke-width: 1.0;"/><polygon fill="#A80036" points="1030.95,147.55,1024.3084,144.7413,1019.1612,149.7917,1025.8029,152.6004,1030.95,147.55" style="stroke: #A80036; stroke-width: 1.0;"/><!--MD5=[d5c05e7addc60f2ebe5e0e75048da45c]
reverse link Model to Recorder--><path d="M1112.94,154.41 C1185.92,175.04 1324.74,214.28 1395.94,234.4 " fill="none" id="Model&lt;-Recorder" style="stroke: #A80036; stroke-width: 1.0;"/><polygon fill="#A80036" points="1100.11,150.78,1104.7993,156.2582,1111.6597,154.0366,1106.9704,148.5584,1100.11,150.78" style="stroke: #A80036; stroke-width: 1.0;"/><!--MD5=[a911b337811af7fd7ce810fac5ac8c54]
reverse link Model to Layout--><path d="M1113.28,145.26 C1272.09,159.52 1776.34,205.76 1847.5,224 C1853.21,225.46 1859.11,227.42 1864.83,229.57 " fill="none" id="Model&lt;-Layout" style="stroke: #A80036; stroke-width: 1.0;"/><polygon fill="#A80036" points="1100.29,144.09,1105.9104,148.6079,1112.2424,145.1574,1106.622,140.6396,1100.29,144.09" style="stroke: #A80036; stroke-width: 1.0;"/><!--MD5=[da4e37961616ea89232dc94550b7be3e]
reverse link OperationManager to IFunctionNode--><path d="M2227.5,69.34 C2227.5,84.68 2227.5,102.1 2227.5,115.68 " fill="none" id="OperationManager&lt;-IFunctionNode" style="stroke: #A80036; stroke-width: 1.0;"/><polygon fill="#A80036" points="2227.5,56,2223.5,62,2227.5,68,2231.5,62,2227.5,56" style="stroke: #A80036; stroke-width: 1.0;"/><!--MD5=[81602e3d9bed7867a676258a1e30c7a1]
reverse link RecorderFactory to Recorder--><path d="M1440.5,177.34 C1440.5,192.68 1440.5,210.1 1440.5,223.68 " fill="none" id="RecorderFactory&lt;-Recorder" style="stroke: #A80036; stroke-width: 1.0;"/><polygon fill="#A80036" points="1440.5,164,1436.5,170,1440.5,176,1444.5,170,1440.5,164" style="stroke: #A80036; stroke-width: 1.0;"/><!--MD5=[263ae887246c1ce3b32534d14bc96b50]
reverse link Simulator to Model--><path d="M1065.5,69.34 C1065.5,84.68 1065.5,102.1 1065.5,115.68 " fill="none" id="Simulator&lt;-Model" style="stroke: #A80036; stroke-width: 1.0;"/><polygon fill="#A80036" points="1065.5,56,1061.5,62,1065.5,68,1069.5,62,1065.5,56" style="stroke: #A80036; stroke-width: 1.0;"/><!--MD5=[420839a3a3a413a1278c95e345e5584e]
reverse link VerticesFactory to AllVertices--><path d="M1765.84,285.34 C1765.99,300.68 1766.15,318.1 1766.28,331.68 " fill="none" id="VerticesFactory&lt;-AllVertices" style="stroke: #A80036; stroke-width: 1.0;"/><polygon fill="#A80036" points="1765.72,272,1761.7729,278.0349,1765.8255,283.9995,1769.7726,277.9646,1765.72,272" style="stroke: #A80036; stroke-width: 1.0;"/><!--MD5=[1c85b8207771a3600805682c49a79883]
reverse link ConnGrowth to ConnGrowth::GrowthParams--><path d="M533.22,392.4 C544.97,407.97 558.44,425.82 568.9,439.68 " fill="none" id="ConnGrowth&lt;-ConnGrowth::GrowthParams" style="stroke: #A80036; stroke-width: 1.0;"/><ellipse cx="528.6782" cy="386.3863" fill="#FFFFFF" rx="8" ry="8" style="stroke: #A80036; stroke-width: 1.0;"/><line style="stroke: #A80036; stroke-width: 1.0;" x1="533.4965" x2="523.86" y1="392.7725" y2="380"/><line style="stroke: #A80036; stroke-width: 1.0;" x1="522.292" x2="535.0645" y1="391.2045" y2="381.568"/><!--MD5=[7436606c18ecdbda5eaebb84cf9adb19]
reverse link ConnStatic to ConnStatic::DistDestVertex--><path d="M350.06,395.23 C349.5,410.1 348.87,426.65 348.38,439.68 " fill="none" id="ConnStatic&lt;-ConnStatic::DistDestVertex" style="stroke: #A80036; stroke-width: 1.0;"/><ellipse cx="350.3252" cy="387.9942" fill="#FFFFFF" rx="8" ry="8" style="stroke: #A80036; stroke-width: 1.0;"/><line style="stroke: #A80036; stroke-width: 1.0;" x1="350.0203" x2="350.63" y1="395.9884" y2="380"/><line style="stroke: #A80036; stroke-width: 1.0;" x1="342.331" x2="358.3194" y1="387.6894" y2="388.299"/><!--MD5=[5a8d3fbc42f80913afa6dc1778a071da]
reverse link Operations to Operations::op--><path d="M2245.56,285.81 C2253.03,301.04 2261.47,318.24 2268.06,331.68 " fill="none" id="Operations&lt;-Operations::op" style="stroke: #A80036; stroke-width: 1.0;"/><ellipse cx="2242.3027" cy="279.1827" fill="#FFFFFF" rx="8" ry="8" style="stroke: #A80036; stroke-width: 1.0;"/><line style="stroke: #A80036; stroke-width: 1.0;" x1="2245.8254" x2="2238.78" y1="286.3653" y2="272"/><line style="stroke: #A80036; stroke-width: 1.0;" x1="2235.12" x2="2249.4854" y1="282.7054" y2="275.66"/><!--MD5=[68af10ae4fb86cae5b15c4705e1a8aea]
@startuml GraphittiDomainDiagram






class AllDSSynapses {
}


class AllDynamicSTDPSynapses {
}


abstract class AllEdges {
}


class AllIFNeurons {
}


class AllIZHNeurons {
}


class AllLIFNeurons {
}


class AllNeuroEdges {
}


class AllSTDPSynapses {
}


abstract class AllSpikingNeurons {
}


class AllSpikingSynapses {
}


abstract class AllVertices {
}


class CPUModel {
}


class ConnGrowth {
}


class ConnStatic {
}


abstract class Connections {
}


class ConnectionsFactory {
}


class DynamicLayout {
}


class EdgesFactory {
}


class EventBuffer {
}


class FixedLayout {
}


class GPUModel {
}


class GenericFunctionNode {
}


class Hdf5GrowthRecorder {
}


class Hdf5Recorder {
}


abstract class IFunctionNode {
}


abstract class Recorder {
}


abstract class Layout {
}


class LayoutFactory {
}


abstract class Model {
}


class OperationManager {
}


class Operations {
}


class RecorderFactory {
}


class Simulator {
}


class VerticesFactory {
}


class XmlRecorder {
}


enum Operations::op {
}


enum enumClassSynapses {
}


class AllDSSynapsesDeviceProperties {
}


class AllDynamicSTDPSynapsesDeviceProperties {
}


class AllEdgesDeviceProperties {
}


class AllIFNeuronsDeviceProperties {
}


class AllIZHNeuronsDeviceProperties {
}


class AllSTDPSynapsesDeviceProperties {
}


class AllSpikingNeuronsDeviceProperties {
}


class AllSpikingSynapsesDeviceProperties {
}


class AllVerticesDeviceProperties {
}


class ConnGrowth::GrowthParams {
}


class ConnStatic::DistDestVertex {
}


class EdgeIndexMap {
}






.AllEdges <|- - .AllNeuroEdges


.AllEdgesDeviceProperties <|- - .AllSpikingSynapsesDeviceProperties


.AllIFNeurons <|- - .AllIZHNeurons


.AllIFNeurons <|- - .AllLIFNeurons


.AllIFNeuronsDeviceProperties <|- - .AllIZHNeuronsDeviceProperties


.AllNeuroEdges <|- - .AllSpikingSynapses


.AllSTDPSynapses <|- - .AllDynamicSTDPSynapses


.AllSTDPSynapsesDeviceProperties <|- - .AllDynamicSTDPSynapsesDeviceProperties


.AllSpikingNeurons <|- - .AllIFNeurons


.AllSpikingNeuronsDeviceProperties <|- - .AllIFNeuronsDeviceProperties


.AllSpikingSynapses <|- - .AllDSSynapses


.AllSpikingSynapses <|- - .AllSTDPSynapses


.AllSpikingSynapsesDeviceProperties <|- - .AllDSSynapsesDeviceProperties


.AllSpikingSynapsesDeviceProperties <|- - .AllSTDPSynapsesDeviceProperties


.AllVertices <|- - .AllSpikingNeurons


.AllVerticesDeviceProperties <|- - .AllSpikingNeuronsDeviceProperties


.Connections <|- - .ConnGrowth


.Connections <|- - .ConnStatic


.Hdf5Recorder <|- - .Hdf5GrowthRecorder


.IFunctionNode <|- - .GenericFunctionNode


.Recorder <|- - .Hdf5Recorder


.Recorder <|- - .XmlRecorder


.Layout <|- - .DynamicLayout


.Layout <|- - .FixedLayout


.Model <|- - .CPUModel


.Model <|- - .GPUModel






.AllSpikingNeurons *- - .EventBuffer


.Connections *- - .AllEdges


.Connections *- - .EdgeIndexMap


.ConnectionsFactory *- - .Connections


.EdgesFactory *- - .AllEdges


.GPUModel o- - .AllSpikingNeuronsDeviceProperties


.GPUModel o- - .AllSpikingSynapsesDeviceProperties


.GPUModel o- - .EdgeIndexMap


.IFunctionNode *- - .Operations


.IFunctionNode *- - .Operations::op


.Layout *- - .AllVertices


.LayoutFactory *- - .Layout


.Model *- - .Connections


.Model *- - .Recorder


.Model *- - .Layout


.OperationManager *- - .IFunctionNode


.RecorderFactory *- - .Recorder


.Simulator *- - .Model


.VerticesFactory *- - .AllVertices







.ConnGrowth +- - .ConnGrowth::GrowthParams


.ConnStatic +- - .ConnStatic::DistDestVertex


.Operations +- - .Operations::op




@enduml

PlantUML version 1.2020.02(Sun Mar 01 10:22:07 GMT 2020)
(GPL source distribution)
Java Runtime: OpenJDK Runtime Environment
JVM: OpenJDK 64-Bit Server VM
Java Version: 11.0.9+11-Ubuntu-0ubuntu1
Operating System: Linux
Default Encoding: ANSI_X3.4-1968
Language: en
Country: US
--></g></svg>