<svg xmlns="http://www.w3.org/2000/svg" xmlns:xlink="http://www.w3.org/1999/xlink" contentStyleType="text/css" height="2276px" preserveAspectRatio="none" style="width:1338px;height:2276px;background:#FFFFFF;" version="1.1" viewBox="0 0 1338 2276" width="1338px" zoomAndPan="magnify"><defs/><g><!--class CPUModel--><g id="elem_CPUModel"><rect codeLine="3" fill="#F1F1F1" height="162.0781" id="CPUModel" rx="2.5" ry="2.5" style="stroke:#181818;stroke-width:0.5;" width="296.1016" x="7" y="1714.5"/><ellipse cx="115.5513" cy="1730.5" fill="#ADD1B2" rx="11" ry="11" style="stroke:#181818;stroke-width:1;"/><path d="M118.52,1736.1406 Q117.9419,1736.4375 117.3013,1736.5781 Q116.6606,1736.7344 115.9575,1736.7344 Q113.4575,1736.7344 112.1294,1735.0938 Q110.8169,1733.4375 110.8169,1730.3125 Q110.8169,1727.1875 112.1294,1725.5313 Q113.4575,1723.875 115.9575,1723.875 Q116.6606,1723.875 117.3013,1724.0313 Q117.9575,1724.1875 118.52,1724.4844 L118.52,1727.2031 Q117.895,1726.625 117.3013,1726.3594 Q116.7075,1726.0781 116.0825,1726.0781 Q114.7388,1726.0781 114.0513,1727.1563 Q113.3638,1728.2188 113.3638,1730.3125 Q113.3638,1732.4063 114.0513,1733.4844 Q114.7388,1734.5469 116.0825,1734.5469 Q116.7075,1734.5469 117.3013,1734.2813 Q117.895,1734 118.52,1733.4219 L118.52,1736.1406 Z " fill="#000000"/><text fill="#000000" font-family="sans-serif" font-size="14" lengthAdjust="spacing" textLength="70.499" x="136.0513" y="1735.3467">CPUModel</text><line style="stroke:#181818;stroke-width:0.5;" x1="8" x2="302.1016" y1="1746.5" y2="1746.5"/><line style="stroke:#181818;stroke-width:0.5;" x1="8" x2="302.1016" y1="1754.5" y2="1754.5"/><ellipse cx="18" cy="1768.1484" fill="#84BE84" rx="3" ry="3" style="stroke:#038048;stroke-width:1;"/><text fill="#000000" font-family="sans-serif" font-size="14" lengthAdjust="spacing" textLength="81.4229" x="27" y="1771.4951">CPUModel()</text><ellipse cx="18" cy="1784.4453" fill="#84BE84" rx="3" ry="3" style="stroke:#038048;stroke-width:1;"/><text fill="#000000" font-family="sans-serif" font-size="14" font-style="italic" lengthAdjust="spacing" textLength="93.1533" x="27" y="1787.792">~CPUModel()</text><ellipse cx="18" cy="1800.7422" fill="#84BE84" rx="3" ry="3" style="stroke:#038048;stroke-width:1;"/><text fill="#000000" font-family="sans-serif" font-size="14" font-style="italic" lengthAdjust="spacing" textLength="172.0127" x="27" y="1804.0889">finish() : void &#171;override&#187;</text><ellipse cx="18" cy="1817.0391" fill="#84BE84" rx="3" ry="3" style="stroke:#038048;stroke-width:1;"/><text fill="#000000" font-family="sans-serif" font-size="14" font-style="italic" lengthAdjust="spacing" textLength="193.7783" x="27" y="1820.3857">advance() : void &#171;override&#187;</text><ellipse cx="18" cy="1833.3359" fill="#84BE84" rx="3" ry="3" style="stroke:#038048;stroke-width:1;"/><text fill="#000000" font-family="sans-serif" font-size="14" font-style="italic" lengthAdjust="spacing" textLength="270.1016" x="27" y="1836.6826">updateConnections() : void &#171;override&#187;</text><ellipse cx="18" cy="1849.6328" fill="#84BE84" rx="3" ry="3" style="stroke:#038048;stroke-width:1;"/><text fill="#000000" font-family="sans-serif" font-size="14" font-style="italic" lengthAdjust="spacing" textLength="239.7568" x="27" y="1852.9795">copyGPUtoCPU() : void &#171;override&#187;</text><ellipse cx="18" cy="1865.9297" fill="#84BE84" rx="3" ry="3" style="stroke:#038048;stroke-width:1;"/><text fill="#000000" font-family="sans-serif" font-size="14" font-style="italic" lengthAdjust="spacing" textLength="239.7568" x="27" y="1869.2764">copyCPUtoGPU() : void &#171;override&#187;</text></g><!--class GPUModel--><g id="elem_GPUModel"><rect codeLine="14" fill="#F1F1F1" height="439.125" id="GPUModel" rx="2.5" ry="2.5" style="stroke:#181818;stroke-width:0.5;" width="993.0596" x="338.5" y="1576"/><ellipse cx="794.9937" cy="1592" fill="#ADD1B2" rx="11" ry="11" style="stroke:#181818;stroke-width:1;"/><path d="M797.9624,1597.6406 Q797.3843,1597.9375 796.7437,1598.0781 Q796.103,1598.2344 795.3999,1598.2344 Q792.8999,1598.2344 791.5718,1596.5938 Q790.2593,1594.9375 790.2593,1591.8125 Q790.2593,1588.6875 791.5718,1587.0313 Q792.8999,1585.375 795.3999,1585.375 Q796.103,1585.375 796.7437,1585.5313 Q797.3999,1585.6875 797.9624,1585.9844 L797.9624,1588.7031 Q797.3374,1588.125 796.7437,1587.8594 Q796.1499,1587.5781 795.5249,1587.5781 Q794.1812,1587.5781 793.4937,1588.6563 Q792.8062,1589.7188 792.8062,1591.8125 Q792.8062,1593.9063 793.4937,1594.9844 Q794.1812,1596.0469 795.5249,1596.0469 Q796.1499,1596.0469 796.7437,1595.7813 Q797.3374,1595.5 797.9624,1594.9219 L797.9624,1597.6406 Z " fill="#000000"/><text fill="#000000" font-family="sans-serif" font-size="14" lengthAdjust="spacing" textLength="71.5723" x="815.4937" y="1596.8467">GPUModel</text><line style="stroke:#181818;stroke-width:0.5;" x1="339.5" x2="1330.5596" y1="1608" y2="1608"/><polygon fill="none" points="349.5,1616.6484,353.5,1620.6484,349.5,1624.6484,345.5,1620.6484" style="stroke:#B38D22;stroke-width:1;"/><text fill="#000000" font-family="sans-serif" font-size="14" lengthAdjust="spacing" textLength="138.8857" x="358.5" y="1624.9951">randNoise_d : float*</text><polygon fill="none" points="349.5,1632.9453,353.5,1636.9453,349.5,1640.9453,345.5,1636.9453" style="stroke:#B38D22;stroke-width:1;"/><text fill="#000000" font-family="sans-serif" font-size="14" lengthAdjust="spacing" textLength="330.2715" x="358.5" y="1641.292">edgeIndexMapDevice_ : EdgeIndexMapDevice*</text><polygon fill="none" points="349.5,1649.2422,353.5,1653.2422,349.5,1657.2422,345.5,1653.2422" style="stroke:#B38D22;stroke-width:1;"/><text fill="#000000" font-family="sans-serif" font-size="14" lengthAdjust="spacing" textLength="313.4482" x="358.5" y="1657.5889">allEdgesDevice_ : AllEdgesDeviceProperties*</text><polygon fill="none" points="349.5,1665.5391,353.5,1669.5391,349.5,1673.5391,345.5,1669.5391" style="stroke:#B38D22;stroke-width:1;"/><text fill="#000000" font-family="sans-serif" font-size="14" lengthAdjust="spacing" textLength="342.2549" x="358.5" y="1673.8857">allVerticesDevice_ : AllVerticesDeviceProperties*</text><line style="stroke:#181818;stroke-width:0.5;" x1="339.5" x2="1330.5596" y1="1681.1875" y2="1681.1875"/><ellipse cx="349.5" cy="1694.8359" fill="#84BE84" rx="3" ry="3" style="stroke:#038048;stroke-width:1;"/><text fill="#000000" font-family="sans-serif" font-size="14" lengthAdjust="spacing" textLength="82.4961" x="358.5" y="1698.1826">GPUModel()</text><ellipse cx="349.5" cy="1711.1328" fill="#84BE84" rx="3" ry="3" style="stroke:#038048;stroke-width:1;"/><text fill="#000000" font-family="sans-serif" font-size="14" font-style="italic" lengthAdjust="spacing" textLength="94.2266" x="358.5" y="1714.4795">~GPUModel()</text><ellipse cx="349.5" cy="1727.4297" fill="#84BE84" rx="3" ry="3" style="stroke:#038048;stroke-width:1;"/><text fill="#000000" font-family="sans-serif" font-size="14" font-style="italic" lengthAdjust="spacing" textLength="199.835" x="358.5" y="1730.7764">setupSim() : void &#171;override&#187;</text><ellipse cx="349.5" cy="1743.7266" fill="#84BE84" rx="3" ry="3" style="stroke:#038048;stroke-width:1;"/><text fill="#000000" font-family="sans-serif" font-size="14" font-style="italic" lengthAdjust="spacing" textLength="172.0127" x="358.5" y="1747.0732">finish() : void &#171;override&#187;</text><ellipse cx="349.5" cy="1760.0234" fill="#84BE84" rx="3" ry="3" style="stroke:#038048;stroke-width:1;"/><text fill="#000000" font-family="sans-serif" font-size="14" font-style="italic" lengthAdjust="spacing" textLength="193.7783" x="358.5" y="1763.3701">advance() : void &#171;override&#187;</text><ellipse cx="349.5" cy="1776.3203" fill="#84BE84" rx="3" ry="3" style="stroke:#038048;stroke-width:1;"/><text fill="#000000" font-family="sans-serif" font-size="14" font-style="italic" lengthAdjust="spacing" textLength="270.1016" x="358.5" y="1779.667">updateConnections() : void &#171;override&#187;</text><ellipse cx="349.5" cy="1792.6172" fill="#84BE84" rx="3" ry="3" style="stroke:#038048;stroke-width:1;"/><text fill="#000000" font-family="sans-serif" font-size="14" font-style="italic" lengthAdjust="spacing" textLength="239.7568" x="358.5" y="1795.9639">copyGPUtoCPU() : void &#171;override&#187;</text><ellipse cx="349.5" cy="1808.9141" fill="#84BE84" rx="3" ry="3" style="stroke:#038048;stroke-width:1;"/><text fill="#000000" font-family="sans-serif" font-size="14" font-style="italic" lengthAdjust="spacing" textLength="239.7568" x="358.5" y="1812.2607">copyCPUtoGPU() : void &#171;override&#187;</text><ellipse cx="349.5" cy="1825.2109" fill="#84BE84" rx="3" ry="3" style="stroke:#038048;stroke-width:1;"/><text fill="#000000" font-family="sans-serif" font-size="14" lengthAdjust="spacing" textLength="302.7842" x="358.5" y="1828.5576">printGPUEdgesPropsModel() : void {query}</text><polygon fill="#FFFF44" points="349.5,1836.5078,353.5,1840.5078,349.5,1844.5078,345.5,1840.5078" style="stroke:#B38D22;stroke-width:1;"/><text fill="#000000" font-family="sans-serif" font-size="14" lengthAdjust="spacing" textLength="514.2949" x="358.5" y="1844.8545">allocDeviceStruct(void* * allVerticesDevice, void** allEdgesDevice) : void</text><polygon fill="#FFFF44" points="349.5,1852.8047,353.5,1856.8047,349.5,1860.8047,345.5,1856.8047" style="stroke:#B38D22;stroke-width:1;"/><text fill="#000000" font-family="sans-serif" font-size="14" font-style="italic" lengthAdjust="spacing" textLength="525.7793" x="358.5" y="1861.1514">deleteDeviceStruct(void* * allVerticesDevice, void** allEdgesDevice) : void</text><rect fill="#F24D5C" height="6" style="stroke:#C82930;stroke-width:1;" width="6" x="346.5" y="1871.1016"/><text fill="#000000" font-family="sans-serif" font-size="14" lengthAdjust="spacing" textLength="252.5537" x="358.5" y="1877.4482">allocEdgeIndexMap(int count) : void</text><rect fill="#F24D5C" height="6" style="stroke:#C82930;stroke-width:1;" width="6" x="346.5" y="1887.3984"/><text fill="#000000" font-family="sans-serif" font-size="14" lengthAdjust="spacing" textLength="201.8379" x="358.5" y="1893.7451">deleteEdgeIndexMap() : void</text><ellipse cx="349.5" cy="1906.6953" fill="#84BE84" rx="3" ry="3" style="stroke:#038048;stroke-width:1;"/><text fill="#000000" font-family="sans-serif" font-size="14" lengthAdjust="spacing" textLength="662.0947" x="358.5" y="1910.042">copyEdgeIndexMapHostToDevice(EdgeIndexMap&amp; edgeIndexMapHost, int numVertices) : void</text><rect fill="#F24D5C" height="6" style="stroke:#C82930;stroke-width:1;" width="6" x="346.5" y="1919.9922"/><text fill="#000000" font-family="sans-serif" font-size="14" lengthAdjust="spacing" textLength="153.3027" x="358.5" y="1926.3389">updateHistory() : void</text><rect fill="#F24D5C" height="6" style="stroke:#C82930;stroke-width:1;" width="6" x="346.5" y="1936.2891"/><text fill="#000000" font-family="sans-serif" font-size="14" lengthAdjust="spacing" textLength="466.6211" x="358.5" y="1942.6357">eraseEdge(AllEdges&amp; edges, int vertexIndex, int edgeIndex) : void</text><rect fill="#F24D5C" height="6" style="stroke:#C82930;stroke-width:1;" width="6" x="346.5" y="1952.5859"/><text fill="#000000" font-family="sans-serif" font-size="14" lengthAdjust="spacing" textLength="956.5801" x="358.5" y="1958.9326">addEdge(AllEdges&amp; edges, edgeType type, int srcVertex, int destVertex, Coordinate&amp; source, Coordinate&amp; dest, BGFLOAT deltaT) : void</text><rect fill="#F24D5C" height="6" style="stroke:#C82930;stroke-width:1;" width="6" x="346.5" y="1968.8828"/><text fill="#000000" font-family="sans-serif" font-size="14" lengthAdjust="spacing" textLength="967.0596" x="358.5" y="1975.2295">createEdge(AllEdges&amp; edges, int vertexIndex, int edgeIndex, Coordinate source, Coordinate dest, BGFLOAT deltaT, edgeType type) : void</text><ellipse cx="349.5" cy="1988.1797" fill="#84BE84" rx="3" ry="3" style="stroke:#038048;stroke-width:1;"/><text fill="#000000" font-family="sans-serif" font-size="14" lengthAdjust="spacing" textLength="283.3564" x="358.5" y="1991.5264">normalMTGPU(float *randNoise_d) : void</text><ellipse cx="349.5" cy="2004.4766" fill="#84BE84" rx="3" ry="3" style="stroke:#038048;stroke-width:1;"/><text fill="#000000" font-family="sans-serif" font-size="14" lengthAdjust="spacing" textLength="905.4404" x="358.5" y="2007.8232">initMTGPU(unsigned int seed, unsigned int blocks, unsigned int threads, unsigned int nPerRng, unsigned int mt_rng_count) : void</text></g><!--class Model--><g id="elem_Model"><rect codeLine="42" fill="#F1F1F1" height="357.6406" id="Model" rx="2.5" ry="2.5" style="stroke:#181818;stroke-width:0.5;" width="407.8213" x="291" y="1158"/><ellipse cx="469.6436" cy="1174" fill="#A9DCDF" rx="11" ry="11" style="stroke:#181818;stroke-width:1;"/><path d="M469.7529,1169.3438 L468.5967,1174.4219 L470.9248,1174.4219 L469.7529,1169.3438 Z M468.2686,1167.1094 L471.2529,1167.1094 L474.6123,1179.5 L472.1592,1179.5 L471.3936,1176.4375 L468.1123,1176.4375 L467.3623,1179.5 L464.9248,1179.5 L468.2686,1167.1094 Z " fill="#000000"/><text fill="#000000" font-family="sans-serif" font-size="14" font-style="italic" lengthAdjust="spacing" textLength="42.0342" x="490.1436" y="1178.8467">Model</text><line style="stroke:#181818;stroke-width:0.5;" x1="292" x2="697.8213" y1="1190" y2="1190"/><polygon fill="none" points="302,1198.6484,306,1202.6484,302,1206.6484,298,1202.6484" style="stroke:#B38D22;stroke-width:1;"/><text fill="#000000" font-family="sans-serif" font-size="14" lengthAdjust="spacing" textLength="215.2773" x="311" y="1206.9951">fileLogger_ : log4cplus::Logger</text><polygon fill="none" points="302,1214.9453,306,1218.9453,302,1222.9453,298,1218.9453" style="stroke:#B38D22;stroke-width:1;"/><text fill="#000000" font-family="sans-serif" font-size="14" lengthAdjust="spacing" textLength="290.1514" x="311" y="1223.292">connections_ : shared_ptr&lt;Connections&gt;</text><polygon fill="none" points="302,1231.2422,306,1235.2422,302,1239.2422,298,1235.2422" style="stroke:#B38D22;stroke-width:1;"/><text fill="#000000" font-family="sans-serif" font-size="14" lengthAdjust="spacing" textLength="242.4707" x="311" y="1239.5889">recorder_ : shared_ptr&lt;Recorder&gt;</text><polygon fill="none" points="302,1247.5391,306,1251.5391,302,1255.5391,298,1251.5391" style="stroke:#B38D22;stroke-width:1;"/><text fill="#000000" font-family="sans-serif" font-size="14" lengthAdjust="spacing" textLength="210.4854" x="311" y="1255.8857">layout_ : shared_ptr&lt;Layout&gt;</text><line style="stroke:#181818;stroke-width:0.5;" x1="292" x2="697.8213" y1="1263.1875" y2="1263.1875"/><ellipse cx="302" cy="1276.8359" fill="#84BE84" rx="3" ry="3" style="stroke:#038048;stroke-width:1;"/><text fill="#000000" font-family="sans-serif" font-size="14" lengthAdjust="spacing" textLength="52.958" x="311" y="1280.1826">Model()</text><ellipse cx="302" cy="1293.1328" fill="#84BE84" rx="3" ry="3" style="stroke:#038048;stroke-width:1;"/><text fill="#000000" font-family="sans-serif" font-size="14" lengthAdjust="spacing" textLength="64.6885" x="311" y="1296.4795">~Model()</text><ellipse cx="302" cy="1309.4297" fill="#84BE84" rx="3" ry="3" style="stroke:#038048;stroke-width:1;"/><text fill="#000000" font-family="sans-serif" font-size="14" lengthAdjust="spacing" textLength="381.8213" x="311" y="1312.7764">getConnections() : shared_ptr&lt;Connections&gt; {query}</text><ellipse cx="302" cy="1325.7266" fill="#84BE84" rx="3" ry="3" style="stroke:#038048;stroke-width:1;"/><text fill="#000000" font-family="sans-serif" font-size="14" lengthAdjust="spacing" textLength="336.0342" x="311" y="1329.0732">getRecorder() : shared_ptr&lt;Recorder&gt; {query}</text><ellipse cx="302" cy="1342.0234" fill="#84BE84" rx="3" ry="3" style="stroke:#038048;stroke-width:1;"/><text fill="#000000" font-family="sans-serif" font-size="14" lengthAdjust="spacing" textLength="303.9873" x="311" y="1345.3701">getLayout() : shared_ptr&lt;Layout&gt; {query}</text><ellipse cx="302" cy="1358.3203" fill="#84BE84" rx="3" ry="3" style="stroke:#038048;stroke-width:1;"/><text fill="#000000" font-family="sans-serif" font-size="14" font-style="italic" lengthAdjust="spacing" textLength="113.6816" x="311" y="1361.667">advance() : void</text><polygon fill="#FFFF44" points="302,1369.6172,306,1373.6172,302,1377.6172,298,1373.6172" style="stroke:#B38D22;stroke-width:1;"/><text fill="#000000" font-family="sans-serif" font-size="14" font-style="italic" lengthAdjust="spacing" textLength="159.6602" x="311" y="1377.9639">copyCPUtoGPU() : void</text><polygon fill="#FFFF44" points="302,1385.9141,306,1389.9141,302,1393.9141,298,1389.9141" style="stroke:#B38D22;stroke-width:1;"/><text fill="#000000" font-family="sans-serif" font-size="14" font-style="italic" lengthAdjust="spacing" textLength="159.6602" x="311" y="1394.2607">copyGPUtoCPU() : void</text><polygon fill="#FFFF44" points="302,1402.2109,306,1406.2109,302,1410.2109,298,1406.2109" style="stroke:#B38D22;stroke-width:1;"/><text fill="#000000" font-family="sans-serif" font-size="14" lengthAdjust="spacing" textLength="173.2021" x="311" y="1410.5576">createAllVertices() : void</text><ellipse cx="302" cy="1423.5078" fill="#84BE84" rx="3" ry="3" style="stroke:#038048;stroke-width:1;"/><text fill="#000000" font-family="sans-serif" font-size="14" font-style="italic" lengthAdjust="spacing" textLength="91.916" x="311" y="1426.8545">finish() : void</text><polygon fill="#FFFF44" points="302,1434.8047,306,1438.8047,302,1442.8047,298,1438.8047" style="stroke:#B38D22;stroke-width:1;"/><text fill="#000000" font-family="sans-serif" font-size="14" lengthAdjust="spacing" textLength="196.4785" x="311" y="1443.1514">logSimStep() : void {query}</text><ellipse cx="302" cy="1456.1016" fill="#84BE84" rx="3" ry="3" style="stroke:#038048;stroke-width:1;"/><text fill="#000000" font-family="sans-serif" font-size="14" lengthAdjust="spacing" textLength="138.1201" x="311" y="1459.4482">saveResults() : void</text><ellipse cx="302" cy="1472.3984" fill="#84BE84" rx="3" ry="3" style="stroke:#038048;stroke-width:1;"/><text fill="#000000" font-family="sans-serif" font-size="14" lengthAdjust="spacing" textLength="119.7383" x="311" y="1475.7451">setupSim() : void</text><ellipse cx="302" cy="1488.6953" fill="#84BE84" rx="3" ry="3" style="stroke:#038048;stroke-width:1;"/><text fill="#000000" font-family="sans-serif" font-size="14" font-style="italic" lengthAdjust="spacing" textLength="190.0049" x="311" y="1492.042">updateConnections() : void</text><ellipse cx="302" cy="1504.9922" fill="#84BE84" rx="3" ry="3" style="stroke:#038048;stroke-width:1;"/><text fill="#000000" font-family="sans-serif" font-size="14" lengthAdjust="spacing" textLength="153.3027" x="311" y="1508.3389">updateHistory() : void</text></g><!--class Simulator--><g id="elem_Simulator"><rect codeLine="65" fill="#F1F1F1" height="1091" id="Simulator" rx="2.5" ry="2.5" style="stroke:#181818;stroke-width:0.5;" width="431.9111" x="279" y="7"/><ellipse cx="456.9224" cy="23" fill="#ADD1B2" rx="11" ry="11" style="stroke:#181818;stroke-width:1;"/><path d="M459.8911,28.6406 Q459.313,28.9375 458.6724,29.0781 Q458.0317,29.2344 457.3286,29.2344 Q454.8286,29.2344 453.5005,27.5938 Q452.188,25.9375 452.188,22.8125 Q452.188,19.6875 453.5005,18.0313 Q454.8286,16.375 457.3286,16.375 Q458.0317,16.375 458.6724,16.5313 Q459.3286,16.6875 459.8911,16.9844 L459.8911,19.7031 Q459.2661,19.125 458.6724,18.8594 Q458.0786,18.5781 457.4536,18.5781 Q456.1099,18.5781 455.4224,19.6563 Q454.7349,20.7188 454.7349,22.8125 Q454.7349,24.9063 455.4224,25.9844 Q456.1099,27.0469 457.4536,27.0469 Q458.0786,27.0469 458.6724,26.7813 Q459.2661,26.5 459.8911,25.9219 L459.8911,28.6406 Z " fill="#000000"/><text fill="#000000" font-family="sans-serif" font-size="14" lengthAdjust="spacing" textLength="67.5664" x="477.4224" y="27.8467">Simulator</text><line style="stroke:#181818;stroke-width:0.5;" x1="280" x2="709.9111" y1="39" y2="39"/><rect fill="none" height="6" style="stroke:#C82930;stroke-width:1;" width="6" x="287" y="49.6484"/><text fill="#000000" font-family="sans-serif" font-size="14" lengthAdjust="spacing" textLength="130.0811" x="299" y="55.9951">deltaT_ : BGFLOAT</text><rect fill="none" height="6" style="stroke:#C82930;stroke-width:1;" width="6" x="287" y="65.9453"/><text fill="#000000" font-family="sans-serif" font-size="14" lengthAdjust="spacing" textLength="189.5127" x="299" y="72.292">epochDuration_ : BGFLOAT</text><rect fill="none" height="6" style="stroke:#C82930;stroke-width:1;" width="6" x="287" y="82.2422"/><text fill="#000000" font-family="sans-serif" font-size="14" lengthAdjust="spacing" textLength="148.9824" x="299" y="88.5889">maxRate_ : BGFLOAT</text><rect fill="none" height="6" style="stroke:#C82930;stroke-width:1;" width="6" x="287" y="98.5391"/><text fill="#000000" font-family="sans-serif" font-size="14" lengthAdjust="spacing" textLength="134.4287" x="299" y="104.8857">short_timer : Timer</text><rect fill="none" height="6" style="stroke:#C82930;stroke-width:1;" width="6" x="287" y="114.8359"/><text fill="#000000" font-family="sans-serif" font-size="14" lengthAdjust="spacing" textLength="91.4512" x="299" y="121.1826">timer : Timer</text><rect fill="none" height="6" style="stroke:#C82930;stroke-width:1;" width="6" x="287" y="131.1328"/><text fill="#000000" font-family="sans-serif" font-size="14" lengthAdjust="spacing" textLength="294.8682" x="299" y="137.4795">rgEndogenouslyActiveNeuronMap_ : bool*</text><rect fill="none" height="6" style="stroke:#C82930;stroke-width:1;" width="6" x="287" y="147.4297"/><text fill="#000000" font-family="sans-serif" font-size="14" lengthAdjust="spacing" textLength="132.7949" x="299" y="153.7764">currentEpoch_ : int</text><rect fill="none" height="6" style="stroke:#C82930;stroke-width:1;" width="6" x="287" y="163.7266"/><text fill="#000000" font-family="sans-serif" font-size="14" lengthAdjust="spacing" textLength="83.4941" x="299" y="170.0732">height_ : int</text><rect fill="none" height="6" style="stroke:#C82930;stroke-width:1;" width="6" x="287" y="180.0234"/><text fill="#000000" font-family="sans-serif" font-size="14" lengthAdjust="spacing" textLength="181.043" x="299" y="186.3701">maxEdgesPerVertex_ : int</text><rect fill="none" height="6" style="stroke:#C82930;stroke-width:1;" width="6" x="287" y="196.3203"/><text fill="#000000" font-family="sans-serif" font-size="14" lengthAdjust="spacing" textLength="141.1279" x="299" y="202.667">maxFiringRate_ : int</text><rect fill="none" height="6" style="stroke:#C82930;stroke-width:1;" width="6" x="287" y="212.6172"/><text fill="#000000" font-family="sans-serif" font-size="14" lengthAdjust="spacing" textLength="120.415" x="299" y="218.9639">numEpochs_ : int</text><rect fill="none" height="6" style="stroke:#C82930;stroke-width:1;" width="6" x="287" y="228.9141"/><text fill="#000000" font-family="sans-serif" font-size="14" lengthAdjust="spacing" textLength="129.3291" x="299" y="235.2607">totalNeurons_ : int</text><rect fill="none" height="6" style="stroke:#C82930;stroke-width:1;" width="6" x="287" y="245.2109"/><text fill="#000000" font-family="sans-serif" font-size="14" lengthAdjust="spacing" textLength="77.458" x="299" y="251.5576">width_ : int</text><rect fill="none" height="6" style="stroke:#C82930;stroke-width:1;" width="6" x="287" y="261.5078"/><text fill="#000000" font-family="sans-serif" font-size="14" lengthAdjust="spacing" textLength="247.4541" x="299" y="267.8545">consoleLogger_ : log4cplus::Logger</text><rect fill="none" height="6" style="stroke:#C82930;stroke-width:1;" width="6" x="287" y="277.8047"/><text fill="#000000" font-family="sans-serif" font-size="14" lengthAdjust="spacing" textLength="228.9561" x="299" y="284.1514">edgeLogger_ : log4cplus::Logger</text><rect fill="none" height="6" style="stroke:#C82930;stroke-width:1;" width="6" x="287" y="294.1016"/><text fill="#000000" font-family="sans-serif" font-size="14" lengthAdjust="spacing" textLength="215.2773" x="299" y="300.4482">fileLogger_ : log4cplus::Logger</text><rect fill="none" height="6" style="stroke:#C82930;stroke-width:1;" width="6" x="287" y="310.3984"/><text fill="#000000" font-family="sans-serif" font-size="14" lengthAdjust="spacing" textLength="135.4609" x="299" y="316.7451">initRngSeed_ : long</text><rect fill="none" height="6" style="stroke:#C82930;stroke-width:1;" width="6" x="287" y="326.6953"/><text fill="#000000" font-family="sans-serif" font-size="14" lengthAdjust="spacing" textLength="150.5547" x="299" y="333.042">noiseRngSeed_ : long</text><rect fill="none" height="6" style="stroke:#C82930;stroke-width:1;" width="6" x="287" y="342.9922"/><text fill="#000000" font-family="sans-serif" font-size="14" lengthAdjust="spacing" textLength="204.8389" x="299" y="349.3389">model_ : shared_ptr&lt;Model&gt;</text><rect fill="none" height="6" style="stroke:#C82930;stroke-width:1;" width="6" x="287" y="359.2891"/><text fill="#000000" font-family="sans-serif" font-size="14" lengthAdjust="spacing" textLength="169.3945" x="299" y="365.6357">configFileName_ : string</text><rect fill="none" height="6" style="stroke:#C82930;stroke-width:1;" width="6" x="287" y="375.5859"/><text fill="#000000" font-family="sans-serif" font-size="14" lengthAdjust="spacing" textLength="228.71" x="299" y="381.9326">deserializationFileName_ : string</text><rect fill="none" height="6" style="stroke:#C82930;stroke-width:1;" width="6" x="287" y="391.8828"/><text fill="#000000" font-family="sans-serif" font-size="14" lengthAdjust="spacing" textLength="211.21" x="299" y="398.2295">serializationFileName_ : string</text><rect fill="none" height="6" style="stroke:#C82930;stroke-width:1;" width="6" x="287" y="408.1797"/><text fill="#000000" font-family="sans-serif" font-size="14" lengthAdjust="spacing" textLength="185.7939" x="299" y="414.5264">stimulusFileName_ : string</text><rect fill="none" height="6" style="stroke:#C82930;stroke-width:1;" width="6" x="287" y="424.4766"/><text fill="#000000" font-family="sans-serif" font-size="14" lengthAdjust="spacing" textLength="236.6738" x="299" y="430.8232">rgNeuronTypeMap_ : vertexType*</text><line style="stroke:#181818;stroke-width:0.5;" x1="280" x2="709.9111" y1="438.125" y2="438.125"/><rect fill="#F24D5C" height="6" style="stroke:#C82930;stroke-width:1;" width="6" x="287" y="448.7734"/><text fill="#000000" font-family="sans-serif" font-size="14" lengthAdjust="spacing" textLength="78.4902" x="299" y="455.1201">Simulator()</text><ellipse cx="290" cy="468.0703" fill="#84BE84" rx="3" ry="3" style="stroke:#038048;stroke-width:1;"/><text fill="#000000" font-family="sans-serif" font-size="14" lengthAdjust="spacing" textLength="90.2207" x="299" y="471.417">~Simulator()</text><ellipse cx="290" cy="484.3672" fill="#84BE84" rx="3" ry="3" style="stroke:#038048;stroke-width:1;"/><text fill="#000000" font-family="sans-serif" font-size="14" lengthAdjust="spacing" textLength="221.5664" x="299" y="487.7139">getDeltaT() : BGFLOAT {query}</text><ellipse cx="290" cy="500.6641" fill="#84BE84" rx="3" ry="3" style="stroke:#038048;stroke-width:1;"/><text fill="#000000" font-family="sans-serif" font-size="14" lengthAdjust="spacing" textLength="279.3369" x="299" y="504.0107">getEpochDuration() : BGFLOAT {query}</text><ellipse cx="290" cy="516.9609" fill="#84BE84" rx="3" ry="3" style="stroke:#038048;stroke-width:1;"/><text fill="#000000" font-family="sans-serif" font-size="14" lengthAdjust="spacing" textLength="237.0156" x="299" y="520.3076">getMaxRate() : BGFLOAT {query}</text><ellipse cx="290" cy="533.2578" fill="#84BE84" rx="3" ry="3" style="stroke:#038048;stroke-width:1;"/><text fill="#000000" font-family="sans-serif" font-size="14" lengthAdjust="spacing" text-decoration="underline" textLength="185.5615" x="299" y="536.6045">getInstance() : Simulator&amp;</text><ellipse cx="290" cy="549.5547" fill="#84BE84" rx="3" ry="3" style="stroke:#038048;stroke-width:1;"/><text fill="#000000" font-family="sans-serif" font-size="14" lengthAdjust="spacing" textLength="169.9346" x="299" y="552.9014">getShort_timer() : Timer</text><ellipse cx="290" cy="565.8516" fill="#84BE84" rx="3" ry="3" style="stroke:#038048;stroke-width:1;"/><text fill="#000000" font-family="sans-serif" font-size="14" lengthAdjust="spacing" textLength="128.4268" x="299" y="569.1982">getTimer() : Timer</text><ellipse cx="290" cy="582.1484" fill="#84BE84" rx="3" ry="3" style="stroke:#038048;stroke-width:1;"/><text fill="#000000" font-family="sans-serif" font-size="14" lengthAdjust="spacing" textLength="249.9629" x="299" y="585.4951">instantiateSimulatorObjects() : bool</text><ellipse cx="290" cy="598.4453" fill="#84BE84" rx="3" ry="3" style="stroke:#038048;stroke-width:1;"/><text fill="#000000" font-family="sans-serif" font-size="14" lengthAdjust="spacing" textLength="388.4316" x="299" y="601.792">getRgEndogenouslyActiveNeuronMap() : bool* {query}</text><ellipse cx="290" cy="614.7422" fill="#84BE84" rx="3" ry="3" style="stroke:#038048;stroke-width:1;"/><text fill="#000000" font-family="sans-serif" font-size="14" lengthAdjust="spacing" textLength="213.4727" x="299" y="618.0889">getCurrentStep() : int {query}</text><ellipse cx="290" cy="631.0391" fill="#84BE84" rx="3" ry="3" style="stroke:#038048;stroke-width:1;"/><text fill="#000000" font-family="sans-serif" font-size="14" lengthAdjust="spacing" textLength="174.7402" x="299" y="634.3857">getHeight() : int {query}</text><ellipse cx="290" cy="647.3359" fill="#84BE84" rx="3" ry="3" style="stroke:#038048;stroke-width:1;"/><text fill="#000000" font-family="sans-serif" font-size="14" lengthAdjust="spacing" textLength="269.0762" x="299" y="650.6826">getMaxEdgesPerVertex() : int {query}</text><ellipse cx="290" cy="663.6328" fill="#84BE84" rx="3" ry="3" style="stroke:#038048;stroke-width:1;"/><text fill="#000000" font-family="sans-serif" font-size="14" lengthAdjust="spacing" textLength="229.1611" x="299" y="666.9795">getMaxFiringRate() : int {query}</text><ellipse cx="290" cy="679.9297" fill="#84BE84" rx="3" ry="3" style="stroke:#038048;stroke-width:1;"/><text fill="#000000" font-family="sans-serif" font-size="14" lengthAdjust="spacing" textLength="211.6064" x="299" y="683.2764">getNumEpochs() : int {query}</text><ellipse cx="290" cy="696.2266" fill="#84BE84" rx="3" ry="3" style="stroke:#038048;stroke-width:1;"/><text fill="#000000" font-family="sans-serif" font-size="14" lengthAdjust="spacing" textLength="220.4658" x="299" y="699.5732">getTotalVertices() : int {query}</text><ellipse cx="290" cy="712.5234" fill="#84BE84" rx="3" ry="3" style="stroke:#038048;stroke-width:1;"/><text fill="#000000" font-family="sans-serif" font-size="14" lengthAdjust="spacing" textLength="169.4424" x="299" y="715.8701">getWidth() : int {query}</text><ellipse cx="290" cy="728.8203" fill="#84BE84" rx="3" ry="3" style="stroke:#038048;stroke-width:1;"/><text fill="#000000" font-family="sans-serif" font-size="14" lengthAdjust="spacing" textLength="225.292" x="299" y="732.167">getInitRngSeed() : long {query}</text><ellipse cx="290" cy="745.1172" fill="#84BE84" rx="3" ry="3" style="stroke:#038048;stroke-width:1;"/><text fill="#000000" font-family="sans-serif" font-size="14" lengthAdjust="spacing" textLength="241.7461" x="299" y="748.4639">getNoiseRngSeed() : long {query}</text><ellipse cx="290" cy="761.4141" fill="#84BE84" rx="3" ry="3" style="stroke:#038048;stroke-width:1;"/><text fill="#000000" font-family="sans-serif" font-size="14" lengthAdjust="spacing" textLength="292.8721" x="299" y="764.7607">getModel() : shared_ptr&lt;Model&gt; {query}</text><ellipse cx="290" cy="777.7109" fill="#84BE84" rx="3" ry="3" style="stroke:#038048;stroke-width:1;"/><text fill="#000000" font-family="sans-serif" font-size="14" lengthAdjust="spacing" textLength="261.0645" x="299" y="781.0576">getConfigFileName() : string {query}</text><ellipse cx="290" cy="794.0078" fill="#84BE84" rx="3" ry="3" style="stroke:#038048;stroke-width:1;"/><text fill="#000000" font-family="sans-serif" font-size="14" lengthAdjust="spacing" textLength="320.1953" x="299" y="797.3545">getDeserializationFileName() : string {query}</text><ellipse cx="290" cy="810.3047" fill="#84BE84" rx="3" ry="3" style="stroke:#038048;stroke-width:1;"/><text fill="#000000" font-family="sans-serif" font-size="14" lengthAdjust="spacing" textLength="302.3945" x="299" y="813.6514">getSerializationFileName() : string {query}</text><ellipse cx="290" cy="826.6016" fill="#84BE84" rx="3" ry="3" style="stroke:#038048;stroke-width:1;"/><text fill="#000000" font-family="sans-serif" font-size="14" lengthAdjust="spacing" textLength="276.9785" x="299" y="829.9482">getStimulusFileName() : string {query}</text><ellipse cx="290" cy="842.8984" fill="#84BE84" rx="3" ry="3" style="stroke:#038048;stroke-width:1;"/><text fill="#000000" font-family="sans-serif" font-size="14" lengthAdjust="spacing" textLength="330.2373" x="299" y="846.2451">getRgNeuronTypeMap() : vertexType* {query}</text><ellipse cx="290" cy="859.1953" fill="#84BE84" rx="3" ry="3" style="stroke:#038048;stroke-width:1;"/><text fill="#000000" font-family="sans-serif" font-size="14" lengthAdjust="spacing" textLength="389.1426" x="299" y="862.542">advanceEpoch(const int&amp; currentEpoch) : void {query}</text><ellipse cx="290" cy="875.4922" fill="#84BE84" rx="3" ry="3" style="stroke:#038048;stroke-width:1;"/><text fill="#000000" font-family="sans-serif" font-size="14" lengthAdjust="spacing" textLength="222.1406" x="299" y="878.8389">copyCPUSynapseToGPU() : void</text><ellipse cx="290" cy="891.7891" fill="#84BE84" rx="3" ry="3" style="stroke:#038048;stroke-width:1;"/><text fill="#000000" font-family="sans-serif" font-size="14" lengthAdjust="spacing" textLength="222.1406" x="299" y="895.1357">copyGPUSynapseToCPU() : void</text><ellipse cx="290" cy="908.0859" fill="#84BE84" rx="3" ry="3" style="stroke:#038048;stroke-width:1;"/><text fill="#000000" font-family="sans-serif" font-size="14" lengthAdjust="spacing" textLength="91.916" x="299" y="911.4326">finish() : void</text><rect fill="#F24D5C" height="6" style="stroke:#C82930;stroke-width:1;" width="6" x="287" y="921.3828"/><text fill="#000000" font-family="sans-serif" font-size="14" lengthAdjust="spacing" textLength="154.5127" x="299" y="927.7295">freeResources() : void</text><ellipse cx="290" cy="940.6797" fill="#84BE84" rx="3" ry="3" style="stroke:#038048;stroke-width:1;"/><text fill="#000000" font-family="sans-serif" font-size="14" lengthAdjust="spacing" textLength="164.8486" x="299" y="944.0264">loadParameters() : void</text><ellipse cx="290" cy="956.9766" fill="#84BE84" rx="3" ry="3" style="stroke:#038048;stroke-width:1;"/><text fill="#000000" font-family="sans-serif" font-size="14" lengthAdjust="spacing" textLength="230.501" x="299" y="960.3232">printParameters() : void {query}</text><ellipse cx="290" cy="973.2734" fill="#84BE84" rx="3" ry="3" style="stroke:#038048;stroke-width:1;"/><text fill="#000000" font-family="sans-serif" font-size="14" lengthAdjust="spacing" textLength="89.9336" x="299" y="976.6201">reset() : void</text><ellipse cx="290" cy="989.5703" fill="#84BE84" rx="3" ry="3" style="stroke:#038048;stroke-width:1;"/><text fill="#000000" font-family="sans-serif" font-size="14" lengthAdjust="spacing" textLength="200.7988" x="299" y="992.917">saveResults() : void {query}</text><ellipse cx="290" cy="1005.8672" fill="#84BE84" rx="3" ry="3" style="stroke:#038048;stroke-width:1;"/><text fill="#000000" font-family="sans-serif" font-size="14" lengthAdjust="spacing" textLength="346.7803" x="299" y="1009.2139">setConfigFileName(const string&amp; fileName) : void</text><ellipse cx="290" cy="1022.1641" fill="#84BE84" rx="3" ry="3" style="stroke:#038048;stroke-width:1;"/><text fill="#000000" font-family="sans-serif" font-size="14" lengthAdjust="spacing" textLength="405.9111" x="299" y="1025.5107">setDeserializationFileName(const string&amp; fileName) : void</text><ellipse cx="290" cy="1038.4609" fill="#84BE84" rx="3" ry="3" style="stroke:#038048;stroke-width:1;"/><text fill="#000000" font-family="sans-serif" font-size="14" lengthAdjust="spacing" textLength="388.1104" x="299" y="1041.8076">setSerializationFileName(const string&amp; fileName) : void</text><ellipse cx="290" cy="1054.7578" fill="#84BE84" rx="3" ry="3" style="stroke:#038048;stroke-width:1;"/><text fill="#000000" font-family="sans-serif" font-size="14" lengthAdjust="spacing" textLength="362.6943" x="299" y="1058.1045">setStimulusFileName(const string&amp; fileName) : void</text><ellipse cx="290" cy="1071.0547" fill="#84BE84" rx="3" ry="3" style="stroke:#038048;stroke-width:1;"/><text fill="#000000" font-family="sans-serif" font-size="14" lengthAdjust="spacing" textLength="93.3242" x="299" y="1074.4014">setup() : void</text><ellipse cx="290" cy="1087.3516" fill="#84BE84" rx="3" ry="3" style="stroke:#038048;stroke-width:1;"/><text fill="#000000" font-family="sans-serif" font-size="14" lengthAdjust="spacing" textLength="114.4336" x="299" y="1090.6982">simulate() : void</text></g><!--class EdgeIndexMapDevice--><g id="elem_EdgeIndexMapDevice"><rect codeLine="133" fill="#F1F1F1" height="145.7813" id="EdgeIndexMapDevice" rx="2.5" ry="2.5" style="stroke:#181818;stroke-width:0.5;" width="273.3994" x="406.5" y="2099.5"/><ellipse cx="463.228" cy="2115.5" fill="#ADD1B2" rx="11" ry="11" style="stroke:#181818;stroke-width:1;"/><path d="M466.1968,2121.1406 Q465.6187,2121.4375 464.978,2121.5781 Q464.3374,2121.7344 463.6343,2121.7344 Q461.1343,2121.7344 459.8062,2120.0938 Q458.4937,2118.4375 458.4937,2115.3125 Q458.4937,2112.1875 459.8062,2110.5313 Q461.1343,2108.875 463.6343,2108.875 Q464.3374,2108.875 464.978,2109.0313 Q465.6343,2109.1875 466.1968,2109.4844 L466.1968,2112.2031 Q465.5718,2111.625 464.978,2111.3594 Q464.3843,2111.0781 463.7593,2111.0781 Q462.4155,2111.0781 461.728,2112.1563 Q461.0405,2113.2188 461.0405,2115.3125 Q461.0405,2117.4063 461.728,2118.4844 Q462.4155,2119.5469 463.7593,2119.5469 Q464.3843,2119.5469 464.978,2119.2813 Q465.5718,2119 466.1968,2118.4219 L466.1968,2121.1406 Z " fill="#000000"/><text fill="#000000" font-family="sans-serif" font-size="14" lengthAdjust="spacing" textLength="151.4434" x="483.728" y="2120.3467">EdgeIndexMapDevice</text><line style="stroke:#181818;stroke-width:0.5;" x1="407.5" x2="678.8994" y1="2131.5" y2="2131.5"/><ellipse cx="417.5" cy="2145.1484" fill="none" rx="3" ry="3" style="stroke:#038048;stroke-width:1;"/><text fill="#000000" font-family="sans-serif" font-size="14" lengthAdjust="spacing" textLength="245.1162" x="426.5" y="2148.4951">outgoingEdgeIndexMap_ : BGSIZE*</text><ellipse cx="417.5" cy="2161.4453" fill="none" rx="3" ry="3" style="stroke:#038048;stroke-width:1;"/><text fill="#000000" font-family="sans-serif" font-size="14" lengthAdjust="spacing" textLength="216.6514" x="426.5" y="2164.792">outgoingEdgeBegin_ : BGSIZE*</text><ellipse cx="417.5" cy="2177.7422" fill="none" rx="3" ry="3" style="stroke:#038048;stroke-width:1;"/><text fill="#000000" font-family="sans-serif" font-size="14" lengthAdjust="spacing" textLength="218.3604" x="426.5" y="2181.0889">outgoingEdgeCount_ : BGSIZE*</text><ellipse cx="417.5" cy="2194.0391" fill="none" rx="3" ry="3" style="stroke:#038048;stroke-width:1;"/><text fill="#000000" font-family="sans-serif" font-size="14" lengthAdjust="spacing" textLength="247.3994" x="426.5" y="2197.3857">incomingEdgeIndexMap_ : BGSIZE*</text><ellipse cx="417.5" cy="2210.3359" fill="none" rx="3" ry="3" style="stroke:#038048;stroke-width:1;"/><text fill="#000000" font-family="sans-serif" font-size="14" lengthAdjust="spacing" textLength="218.9346" x="426.5" y="2213.6826">incomingEdgeBegin_ : BGSIZE*</text><ellipse cx="417.5" cy="2226.6328" fill="none" rx="3" ry="3" style="stroke:#038048;stroke-width:1;"/><text fill="#000000" font-family="sans-serif" font-size="14" lengthAdjust="spacing" textLength="220.6436" x="426.5" y="2229.9795">incomingEdgeCount_ : BGSIZE*</text><line style="stroke:#181818;stroke-width:0.5;" x1="407.5" x2="678.8994" y1="2237.2813" y2="2237.2813"/></g><!--class AllEdgesDeviceProperties--><g id="elem_AllEdgesDeviceProperties"><rect codeLine="143" fill="#F1F1F1" height="194.6719" id="AllEdgesDeviceProperties" rx="2.5" ry="2.5" style="stroke:#181818;stroke-width:0.5;" width="240.6963" x="714.5" y="2075"/><ellipse cx="742.833" cy="2091" fill="#ADD1B2" rx="11" ry="11" style="stroke:#181818;stroke-width:1;"/><path d="M745.8018,2096.6406 Q745.2236,2096.9375 744.583,2097.0781 Q743.9424,2097.2344 743.2393,2097.2344 Q740.7393,2097.2344 739.4111,2095.5938 Q738.0986,2093.9375 738.0986,2090.8125 Q738.0986,2087.6875 739.4111,2086.0313 Q740.7393,2084.375 743.2393,2084.375 Q743.9424,2084.375 744.583,2084.5313 Q745.2393,2084.6875 745.8018,2084.9844 L745.8018,2087.7031 Q745.1768,2087.125 744.583,2086.8594 Q743.9893,2086.5781 743.3643,2086.5781 Q742.0205,2086.5781 741.333,2087.6563 Q740.6455,2088.7188 740.6455,2090.8125 Q740.6455,2092.9063 741.333,2093.9844 Q742.0205,2095.0469 743.3643,2095.0469 Q743.9893,2095.0469 744.583,2094.7813 Q745.1768,2094.5 745.8018,2093.9219 L745.8018,2096.6406 Z " fill="#000000"/><text fill="#000000" font-family="sans-serif" font-size="14" lengthAdjust="spacing" textLength="179.0674" x="759.7959" y="2095.8467">AllEdgesDeviceProperties</text><line style="stroke:#181818;stroke-width:0.5;" x1="715.5" x2="954.1963" y1="2107" y2="2107"/><ellipse cx="725.5" cy="2120.6484" fill="none" rx="3" ry="3" style="stroke:#038048;stroke-width:1;"/><text fill="#000000" font-family="sans-serif" font-size="14" lengthAdjust="spacing" textLength="177.7891" x="734.5" y="2123.9951">sourceVertexIndex_ : int*</text><ellipse cx="725.5" cy="2136.9453" fill="none" rx="3" ry="3" style="stroke:#038048;stroke-width:1;"/><text fill="#000000" font-family="sans-serif" font-size="14" lengthAdjust="spacing" textLength="161.2734" x="734.5" y="2140.292">destVertexIndex_ : int*</text><ellipse cx="725.5" cy="2153.2422" fill="none" rx="3" ry="3" style="stroke:#038048;stroke-width:1;"/><text fill="#000000" font-family="sans-serif" font-size="14" lengthAdjust="spacing" textLength="106.9141" x="734.5" y="2156.5889">W_ : BGFLOAT*</text><ellipse cx="725.5" cy="2169.5391" fill="none" rx="3" ry="3" style="stroke:#038048;stroke-width:1;"/><text fill="#000000" font-family="sans-serif" font-size="14" lengthAdjust="spacing" textLength="128.2285" x="734.5" y="2172.8857">type_ : edgeType*</text><ellipse cx="725.5" cy="2185.8359" fill="none" rx="3" ry="3" style="stroke:#038048;stroke-width:1;"/><text fill="#000000" font-family="sans-serif" font-size="14" lengthAdjust="spacing" textLength="166.0791" x="734.5" y="2189.1826">inUse_ : unsigned char*</text><ellipse cx="725.5" cy="2202.1328" fill="none" rx="3" ry="3" style="stroke:#038048;stroke-width:1;"/><text fill="#000000" font-family="sans-serif" font-size="14" lengthAdjust="spacing" textLength="163.3926" x="734.5" y="2205.4795">edgeCounts_ : BGSIZE*</text><ellipse cx="725.5" cy="2218.4297" fill="none" rx="3" ry="3" style="stroke:#038048;stroke-width:1;"/><text fill="#000000" font-family="sans-serif" font-size="14" lengthAdjust="spacing" textLength="181.3438" x="734.5" y="2221.7764">totalEdgeCount_ : BGSIZE</text><ellipse cx="725.5" cy="2234.7266" fill="none" rx="3" ry="3" style="stroke:#038048;stroke-width:1;"/><text fill="#000000" font-family="sans-serif" font-size="14" lengthAdjust="spacing" textLength="214.6963" x="734.5" y="2238.0732">maxEdgesPerVertex_ : BGSIZE</text><ellipse cx="725.5" cy="2251.0234" fill="none" rx="3" ry="3" style="stroke:#038048;stroke-width:1;"/><text fill="#000000" font-family="sans-serif" font-size="14" lengthAdjust="spacing" textLength="135.2969" x="734.5" y="2254.3701">countVertices_ : int</text><line style="stroke:#181818;stroke-width:0.5;" x1="715.5" x2="954.1963" y1="2261.6719" y2="2261.6719"/></g><!--class AllVerticesDeviceProperties--><g id="elem_AllVerticesDeviceProperties"><rect codeLine="156" fill="#F1F1F1" height="48" id="AllVerticesDeviceProperties" rx="2.5" ry="2.5" style="stroke:#181818;stroke-width:0.5;" width="225.4707" x="990.5" y="2148.5"/><ellipse cx="1005.5" cy="2164.5" fill="#ADD1B2" rx="11" ry="11" style="stroke:#181818;stroke-width:1;"/><path d="M1008.4688,2170.1406 Q1007.8906,2170.4375 1007.25,2170.5781 Q1006.6094,2170.7344 1005.9063,2170.7344 Q1003.4063,2170.7344 1002.0781,2169.0938 Q1000.7656,2167.4375 1000.7656,2164.3125 Q1000.7656,2161.1875 1002.0781,2159.5313 Q1003.4063,2157.875 1005.9063,2157.875 Q1006.6094,2157.875 1007.25,2158.0313 Q1007.9063,2158.1875 1008.4688,2158.4844 L1008.4688,2161.2031 Q1007.8438,2160.625 1007.25,2160.3594 Q1006.6563,2160.0781 1006.0313,2160.0781 Q1004.6875,2160.0781 1004,2161.1563 Q1003.3125,2162.2188 1003.3125,2164.3125 Q1003.3125,2166.4063 1004,2167.4844 Q1004.6875,2168.5469 1006.0313,2168.5469 Q1006.6563,2168.5469 1007.25,2168.2813 Q1007.8438,2168 1008.4688,2167.4219 L1008.4688,2170.1406 Z " fill="#000000"/><text fill="#000000" font-family="sans-serif" font-size="14" lengthAdjust="spacing" textLength="193.4707" x="1019.5" y="2169.3467">AllVerticesDeviceProperties</text><line style="stroke:#181818;stroke-width:0.5;" x1="991.5" x2="1214.9707" y1="2180.5" y2="2180.5"/><line style="stroke:#181818;stroke-width:0.5;" x1="991.5" x2="1214.9707" y1="2188.5" y2="2188.5"/></g><!--reverse link Model to CPUModel--><g id="link_Model_CPUModel"><path codeLine="166" d="M351.5786,1530.5663 C300.5186,1599.1263 255.48,1659.59 214.65,1714.41 " fill="none" id="Model-backto-CPUModel" style="stroke:#181818;stroke-width:1;"/><polygon fill="none" points="362.33,1516.13,346.7665,1526.9825,356.3907,1534.1501,362.33,1516.13" style="stroke:#181818;stroke-width:1;"/></g><!--reverse link Model to GPUModel--><g id="link_Model_GPUModel"><path codeLine="169" d="M638.4229,1530.5652 C653.0529,1550.2052 657.32,1555.93 672.26,1575.99 " fill="none" id="Model-backto-GPUModel" style="stroke:#181818;stroke-width:1;"/><polygon fill="none" points="627.67,1516.13,633.6112,1534.1495,643.2346,1526.9809,627.67,1516.13" style="stroke:#181818;stroke-width:1;"/></g><!--reverse link GPUModel to EdgeIndexMapDevice--><g id="link_GPUModel_EdgeIndexMapDevice"><path codeLine="177" d="M657.3462,2024.6472 C633.8162,2054.8572 618.53,2074.5 599.28,2099.23 " fill="none" id="GPUModel-backto-EdgeIndexMapDevice" style="stroke:#181818;stroke-width:1;"/><polygon fill="none" points="664.72,2015.18,657.8774,2017.4556,657.3462,2024.6472,664.1888,2022.3715,664.72,2015.18" style="stroke:#181818;stroke-width:1;"/></g><!--reverse link GPUModel to AllEdgesDeviceProperties--><g id="link_GPUModel_AllEdgesDeviceProperties"><path codeLine="178" d="M835,2027.18 C835,2047.91 835,2056.12 835,2074.75 " fill="none" id="GPUModel-backto-AllEdgesDeviceProperties" style="stroke:#181818;stroke-width:1;"/><polygon fill="none" points="835,2015.18,831,2021.18,835,2027.18,839,2021.18,835,2015.18" style="stroke:#181818;stroke-width:1;"/></g><!--reverse link GPUModel to AllVerticesDeviceProperties--><g id="link_GPUModel_AllVerticesDeviceProperties"><path codeLine="179" d="M998.2572,2024.9431 C1037.0772,2079.2631 1066.36,2120.23 1086.51,2148.43 " fill="none" id="GPUModel-backto-AllVerticesDeviceProperties" style="stroke:#181818;stroke-width:1;"/><polygon fill="none" points="991.28,2015.18,991.5143,2022.3873,998.2572,2024.9431,998.023,2017.7358,991.28,2015.18" style="stroke:#181818;stroke-width:1;"/></g><!--reverse link Simulator to Model--><g id="link_Simulator_Model"><path codeLine="181" d="M495,1110.04 C495,1130.69 495,1138.67 495,1157.68 " fill="none" id="Simulator-backto-Model" style="stroke:#181818;stroke-width:1;"/><polygon fill="#181818" points="495,1098.04,491,1104.04,495,1110.04,499,1104.04,495,1098.04" style="stroke:#181818;stroke-width:1;"/></g><!--SRC=[tLXBJoCv43vFVeKb9CWaz73P4q9836y964G28-qbCjr5nxiTkzTsisHPvhTlsUw7tG_8ZlQq749SzTNJvIexUplas-Dl46j5TlP6epYZIf7Zs_jhaK16NaUVfjLY_1aNh_HHQKbZ_KP-336U66TgEVvCzicpO0avE13F82LBuF0mHDBacV8ODe4MUK8r70lEqLSckDf4A1Rv-lpsNWjqTLFyiS6V3-BVHbMIplqadGybQOYXG1VvZAqsSUj_dT1FqrmohX5mcgIWRgN8LPcn2l_wHm5o_JRwj4MpJCGdyCnYc6bPn7fi01Co8SXv0AcHeHn_ryfEBCTgTkHAAIhp_4HpeE6_KYmfJsu4Kx18aFYK2QedI0O4N_84NgvfxcGMo3xjK2SkK4-tmHq559CcunMe4XtwM0g4n40cigdqZOzn5t332gwRK2ANc03MSATcUttUXL1wBforiS_O9j22xH9ZZXUhoaVFg2lD2wQqa6lFNWIIAklCkCg6KwoSDYmg3I_MYYFKHZqTD4dwDPX_ytKEHEE7arSoVh0wtJ81fQlriH0oOHpzt2PA5DBKXKyps5tozVpiwjlHtDINfdFFYrW2rJyLYc-cntAluLPmtWvo8LSqkvwRysaBbKoywlM0s8AqWnLSiPH3uZ84aEoIWFI8TVMxQX7r4WDEsbH-2_AEfotgIYyaJnTXAPg-MvrNuXfmqtsR3lkZ_hhrn3Au4caAqfo6JAI_n7bMgFrzHqH4t3G_0r5BAY5Pv5eUU6tHTAWKTBjH3e2RNcM4xY36VG7PbgZe7dnBbhJ50DHflA9hKUYsFaVrjMMMikY5lJyomiROsy2xaCvCCDcr9Uvr8Rzp34ytuxn8SJBEDEGzCs2gw3FSWIeo7MZi3DHDnntY1XfEC-jHRv5Hv9foY-gLAxbW6RaJPp9Vda7Jjt8HBqyAIOtbW6NszCHAMBFLiGsgwDIN7ePTqvSxZA8V4AqSDpJ-gZGgZTy8YbzoN5I5K8UqxNJFbaBgXMQhifRdvfjZpTl4I3LWZzfQOqCnzZH3fsfhvKtKQdiK8YjFKNhA4v425uNAraUuVSzm0uKKl1f71ZlnWfNlIImg0TE62oc1kmmREhQVyhWxHbs3fYy5sRu0bYvrFmztmjrbGBfnCGWxOtZtIUjjwq1kYfNrJVMpvqBJy7Xr8DzPefTTLhIq_jSnc_e8VGvOZPyDcLU-DIHj_769zgX_6XUQ9NPT9JvepP6PL-yZFcplKrlKJEE0cU6KiZd814zR6JQJRXWIiKR3ekIQs3sfXcmtjRwwUetN4W_zqsW8YpwGIz0JIyymlXkwiWd79iQiNHpk81dDs5-s6VHXoc7bQN3UM7OO-qc_ja7yxD-XjJdMXNeN67qOJwHQUjh1tgMkuiprfhwVsX8sbB0j1CX524HjvIoqPJqsTQfDpMuJlqtqJAHoICxMdEOAvgrPEIq7PCqEv-IqC_-Y9mbcmjcxNJ2dy8AMt5A9IT0W0uvzG_MmF2ybxhOE9cRF8FNdRAUEN4PSxhV9KqaEP_1GJMqYE_jvoNQjRI9K16yPvOOGz8t_xXiDxm64JF4sbGgquFFTX9rT_dewQKE-GihuE_nZS-DjyHcFnUfz4pwapuJFxvXeWXnwOBfGNJK-DC-Iig5R2yt3gCFwxjquBC4yG0ojUf6KBjuhIwqV0Z4sHik2oclL2iiEcvwO3AztcZLi-xIevcOrcO9C3BsSCHaMY7zxE-IIBx5axRM9ICXitQebozrlQL_S0-NWxoWYNweVoqOj-db3TpgFqbH2QbNrwQn_TH96kbkORSJGhlRWXc96gytzTsB0LkuV]--></g></svg>