<?xml version="1.0" encoding="UTF-8" standalone="no"?><svg xmlns="http://www.w3.org/2000/svg" xmlns:xlink="http://www.w3.org/1999/xlink" contentScriptType="application/ecmascript" contentStyleType="text/css" height="1096px" preserveAspectRatio="none" style="width:1731px;height:1096px;" version="1.1" viewBox="0 0 1731 1096" width="1731px" zoomAndPan="magnify"><defs><filter height="300%" id="f1mwwy48ivmcw9" width="300%" x="-1" y="-1"><feGaussianBlur result="blurOut" stdDeviation="2.0"/><feColorMatrix in="blurOut" result="blurOut2" type="matrix" values="0 0 0 0 0 0 0 0 0 0 0 0 0 0 0 0 0 0 .4 0"/><feOffset dx="4.0" dy="4.0" in="blurOut2" result="blurOut3"/><feBlend in="SourceGraphic" in2="blurOut3" mode="normal"/></filter></defs><g><!--MD5=[2c2e2644034c00788261e03c85b06837]
cluster Core--><polygon fill="#FFFFFF" filter="url(#f1mwwy48ivmcw9)" points="332,32,376,32,383,54.2969,736,54.2969,736,438,332,438,332,32" style="stroke: #000000; stroke-width: 1.5;"/><line style="stroke: #000000; stroke-width: 1.5;" x1="332" x2="383" y1="54.2969" y2="54.2969"/><text fill="#000000" font-family="sans-serif" font-size="14" font-weight="bold" lengthAdjust="spacingAndGlyphs" textLength="38" x="336" y="46.9951">Core</text><!--MD5=[bcaa2b9ff15208c4e2012dff6dfdc182]
cluster Layouts--><polygon fill="#FFFFFF" filter="url(#f1mwwy48ivmcw9)" points="865,32,933,32,940,54.2969,1187,54.2969,1187,315,865,315,865,32" style="stroke: #000000; stroke-width: 1.5;"/><line style="stroke: #000000; stroke-width: 1.5;" x1="865" x2="940" y1="54.2969" y2="54.2969"/><text fill="#000000" font-family="sans-serif" font-size="14" font-weight="bold" lengthAdjust="spacingAndGlyphs" textLength="62" x="869" y="46.9951">Layouts</text><!--MD5=[8d26bb35548c3dcbc6e480db6528a15a]
cluster Vertices--><polygon fill="#FFFFFF" filter="url(#f1mwwy48ivmcw9)" points="1385,32,1457,32,1464,54.2969,1709,54.2969,1709,577,1385,577,1385,32" style="stroke: #000000; stroke-width: 1.5;"/><line style="stroke: #000000; stroke-width: 1.5;" x1="1385" x2="1464" y1="54.2969" y2="54.2969"/><text fill="#000000" font-family="sans-serif" font-size="14" font-weight="bold" lengthAdjust="spacingAndGlyphs" textLength="66" x="1389" y="46.9951">Vertices</text><!--MD5=[9168128f11ea68e0eeae1bee9b5f58d3]
cluster Recorders--><polygon fill="#FFFFFF" filter="url(#f1mwwy48ivmcw9)" points="30,478,118,478,125,500.2969,511,500.2969,511,900,30,900,30,478" style="stroke: #000000; stroke-width: 1.5;"/><line style="stroke: #000000; stroke-width: 1.5;" x1="30" x2="125" y1="500.2969" y2="500.2969"/><text fill="#000000" font-family="sans-serif" font-size="14" font-weight="bold" lengthAdjust="spacingAndGlyphs" textLength="82" x="34" y="492.9951">Recorders</text><!--MD5=[3a4496162e4aa4b8f639c92517849365]
cluster Connections--><polygon fill="#FFFFFF" filter="url(#f1mwwy48ivmcw9)" points="768,347,873,347,880,369.2969,1043,369.2969,1043,708,768,708,768,347" style="stroke: #000000; stroke-width: 1.5;"/><line style="stroke: #000000; stroke-width: 1.5;" x1="768" x2="880" y1="369.2969" y2="369.2969"/><text fill="#000000" font-family="sans-serif" font-size="14" font-weight="bold" lengthAdjust="spacingAndGlyphs" textLength="99" x="772" y="361.9951">Connections</text><!--MD5=[a69b11994f1325ca382ee696cdd1fd0b]
cluster Edges--><polygon fill="#FFFFFF" filter="url(#f1mwwy48ivmcw9)" points="1180,617,1234,617,1241,639.2969,1533,639.2969,1533,1084,1180,1084,1180,617" style="stroke: #000000; stroke-width: 1.5;"/><line style="stroke: #000000; stroke-width: 1.5;" x1="1180" x2="1241" y1="639.2969" y2="639.2969"/><text fill="#000000" font-family="sans-serif" font-size="14" font-weight="bold" lengthAdjust="spacingAndGlyphs" textLength="48" x="1184" y="631.9951">Edges</text><!--MD5=[e78d3bd29d68b8fbdb4aae8710e3db25]
class Simulator--><rect fill="#FEFECE" filter="url(#f1mwwy48ivmcw9)" height="32" id="Simulator" style="stroke: #A80036; stroke-width: 1.5;" width="91" x="620.5" y="75"/><ellipse cx="635.5" cy="91" fill="#ADD1B2" rx="11" ry="11" style="stroke: #A80036; stroke-width: 1.0;"/><path d="M638.4688,96.6406 Q637.8906,96.9375 637.25,97.0781 Q636.6094,97.2344 635.9063,97.2344 Q633.4063,97.2344 632.0781,95.5938 Q630.7656,93.9375 630.7656,90.8125 Q630.7656,87.6875 632.0781,86.0313 Q633.4063,84.375 635.9063,84.375 Q636.6094,84.375 637.25,84.5313 Q637.9063,84.6875 638.4688,84.9844 L638.4688,87.7031 Q637.8438,87.125 637.25,86.8594 Q636.6563,86.5781 636.0313,86.5781 Q634.6875,86.5781 634,87.6563 Q633.3125,88.7188 633.3125,90.8125 Q633.3125,92.9063 634,93.9844 Q634.6875,95.0469 636.0313,95.0469 Q636.6563,95.0469 637.25,94.7813 Q637.8438,94.5 638.4688,93.9219 L638.4688,96.6406 Z "/><text fill="#000000" font-family="sans-serif" font-size="12" lengthAdjust="spacingAndGlyphs" textLength="59" x="649.5" y="95.1543">Simulator</text><!--MD5=[0b94f3229ccc3f95d40f9de2aafb3991]
class CPUSpikingModel--><rect fill="#FEFECE" filter="url(#f1mwwy48ivmcw9)" height="32" id="CPUSpikingModel" style="stroke: #A80036; stroke-width: 1.5;" width="139" x="535.5" y="167"/><ellipse cx="550.5" cy="183" fill="#ADD1B2" rx="11" ry="11" style="stroke: #A80036; stroke-width: 1.0;"/><path d="M553.4688,188.6406 Q552.8906,188.9375 552.25,189.0781 Q551.6094,189.2344 550.9063,189.2344 Q548.4063,189.2344 547.0781,187.5938 Q545.7656,185.9375 545.7656,182.8125 Q545.7656,179.6875 547.0781,178.0313 Q548.4063,176.375 550.9063,176.375 Q551.6094,176.375 552.25,176.5313 Q552.9063,176.6875 553.4688,176.9844 L553.4688,179.7031 Q552.8438,179.125 552.25,178.8594 Q551.6563,178.5781 551.0313,178.5781 Q549.6875,178.5781 549,179.6563 Q548.3125,180.7188 548.3125,182.8125 Q548.3125,184.9063 549,185.9844 Q549.6875,187.0469 551.0313,187.0469 Q551.6563,187.0469 552.25,186.7813 Q552.8438,186.5 553.4688,185.9219 L553.4688,188.6406 Z "/><text fill="#000000" font-family="sans-serif" font-size="12" lengthAdjust="spacingAndGlyphs" textLength="107" x="564.5" y="187.1543">CPUSpikingModel</text><!--MD5=[7e20e022571e30ec1001cf6eabd7f3e2]
class Model--><rect fill="#FEFECE" filter="url(#f1mwwy48ivmcw9)" height="32" id="Model" style="stroke: #A80036; stroke-width: 1.5;" width="69" x="516.5" y="75"/><ellipse cx="531.5" cy="91" fill="#B4A7E5" rx="11" ry="11" style="stroke: #A80036; stroke-width: 1.0;"/><path d="M527.4219,86.7656 L527.4219,84.6094 L534.8125,84.6094 L534.8125,86.7656 L532.3438,86.7656 L532.3438,94.8438 L534.8125,94.8438 L534.8125,97 L527.4219,97 L527.4219,94.8438 L529.8906,94.8438 L529.8906,86.7656 L527.4219,86.7656 Z "/><text fill="#000000" font-family="sans-serif" font-size="12" font-style="italic" lengthAdjust="spacingAndGlyphs" textLength="37" x="545.5" y="95.1543">Model</text><!--MD5=[18485410d7357990dcee82f93ac6aaa8]
class GPUSpilingModel--><rect fill="#FEFECE" filter="url(#f1mwwy48ivmcw9)" height="32" id="GPUSpilingModel" style="stroke: #A80036; stroke-width: 1.5;" width="136" x="364" y="167"/><ellipse cx="379" cy="183" fill="#ADD1B2" rx="11" ry="11" style="stroke: #A80036; stroke-width: 1.0;"/><path d="M381.9688,188.6406 Q381.3906,188.9375 380.75,189.0781 Q380.1094,189.2344 379.4063,189.2344 Q376.9063,189.2344 375.5781,187.5938 Q374.2656,185.9375 374.2656,182.8125 Q374.2656,179.6875 375.5781,178.0313 Q376.9063,176.375 379.4063,176.375 Q380.1094,176.375 380.75,176.5313 Q381.4063,176.6875 381.9688,176.9844 L381.9688,179.7031 Q381.3438,179.125 380.75,178.8594 Q380.1563,178.5781 379.5313,178.5781 Q378.1875,178.5781 377.5,179.6563 Q376.8125,180.7188 376.8125,182.8125 Q376.8125,184.9063 377.5,185.9844 Q378.1875,187.0469 379.5313,187.0469 Q380.1563,187.0469 380.75,186.7813 Q381.3438,186.5 381.9688,185.9219 L381.9688,188.6406 Z "/><text fill="#000000" font-family="sans-serif" font-size="12" lengthAdjust="spacingAndGlyphs" textLength="104" x="393" y="187.1543">GPUSpilingModel</text><!--MD5=[fdf81c1c7218c7a86b85d500a2db5e87]
class Operations--><rect fill="#FEFECE" filter="url(#f1mwwy48ivmcw9)" height="32" id="Operations" style="stroke: #A80036; stroke-width: 1.5;" width="101" x="427.5" y="259"/><ellipse cx="442.5" cy="275" fill="#ADD1B2" rx="11" ry="11" style="stroke: #A80036; stroke-width: 1.0;"/><path d="M445.4688,280.6406 Q444.8906,280.9375 444.25,281.0781 Q443.6094,281.2344 442.9063,281.2344 Q440.4063,281.2344 439.0781,279.5938 Q437.7656,277.9375 437.7656,274.8125 Q437.7656,271.6875 439.0781,270.0313 Q440.4063,268.375 442.9063,268.375 Q443.6094,268.375 444.25,268.5313 Q444.9063,268.6875 445.4688,268.9844 L445.4688,271.7031 Q444.8438,271.125 444.25,270.8594 Q443.6563,270.5781 443.0313,270.5781 Q441.6875,270.5781 441,271.6563 Q440.3125,272.7188 440.3125,274.8125 Q440.3125,276.9063 441,277.9844 Q441.6875,279.0469 443.0313,279.0469 Q443.6563,279.0469 444.25,278.7813 Q444.8438,278.5 445.4688,277.9219 L445.4688,280.6406 Z "/><text fill="#000000" font-family="sans-serif" font-size="12" lengthAdjust="spacingAndGlyphs" textLength="69" x="456.5" y="279.1543">Operations</text><!--MD5=[314e3b7c2db0a5a356d5ece57f37d58b]
class OperationManager--><rect fill="#FEFECE" filter="url(#f1mwwy48ivmcw9)" height="32" id="OperationManager" style="stroke: #A80036; stroke-width: 1.5;" width="149" x="563.5" y="259"/><ellipse cx="578.5" cy="275" fill="#ADD1B2" rx="11" ry="11" style="stroke: #A80036; stroke-width: 1.0;"/><path d="M581.4688,280.6406 Q580.8906,280.9375 580.25,281.0781 Q579.6094,281.2344 578.9063,281.2344 Q576.4063,281.2344 575.0781,279.5938 Q573.7656,277.9375 573.7656,274.8125 Q573.7656,271.6875 575.0781,270.0313 Q576.4063,268.375 578.9063,268.375 Q579.6094,268.375 580.25,268.5313 Q580.9063,268.6875 581.4688,268.9844 L581.4688,271.7031 Q580.8438,271.125 580.25,270.8594 Q579.6563,270.5781 579.0313,270.5781 Q577.6875,270.5781 577,271.6563 Q576.3125,272.7188 576.3125,274.8125 Q576.3125,276.9063 577,277.9844 Q577.6875,279.0469 579.0313,279.0469 Q579.6563,279.0469 580.25,278.7813 Q580.8438,278.5 581.4688,277.9219 L581.4688,280.6406 Z "/><text fill="#000000" font-family="sans-serif" font-size="12" lengthAdjust="spacingAndGlyphs" textLength="117" x="592.5" y="279.1543">OperationManager</text><!--MD5=[eb1da731c4a897e81e143002ff161e69]
class ParameterManager--><rect fill="#FEFECE" filter="url(#f1mwwy48ivmcw9)" height="32" id="ParameterManager" style="stroke: #A80036; stroke-width: 1.5;" width="153" x="558.5" y="382"/><ellipse cx="573.5" cy="398" fill="#ADD1B2" rx="11" ry="11" style="stroke: #A80036; stroke-width: 1.0;"/><path d="M576.4688,403.6406 Q575.8906,403.9375 575.25,404.0781 Q574.6094,404.2344 573.9063,404.2344 Q571.4063,404.2344 570.0781,402.5938 Q568.7656,400.9375 568.7656,397.8125 Q568.7656,394.6875 570.0781,393.0313 Q571.4063,391.375 573.9063,391.375 Q574.6094,391.375 575.25,391.5313 Q575.9063,391.6875 576.4688,391.9844 L576.4688,394.7031 Q575.8438,394.125 575.25,393.8594 Q574.6563,393.5781 574.0313,393.5781 Q572.6875,393.5781 572,394.6563 Q571.3125,395.7188 571.3125,397.8125 Q571.3125,399.9063 572,400.9844 Q572.6875,402.0469 574.0313,402.0469 Q574.6563,402.0469 575.25,401.7813 Q575.8438,401.5 576.4688,400.9219 L576.4688,403.6406 Z "/><text fill="#000000" font-family="sans-serif" font-size="12" lengthAdjust="spacingAndGlyphs" textLength="121" x="587.5" y="402.1543">ParameterManager</text><!--MD5=[c01d281453c5d4cdc24a7f27a30cb7c5]
class FixedLayout--><rect fill="#FEFECE" filter="url(#f1mwwy48ivmcw9)" height="32" id="FixedLayout" style="stroke: #A80036; stroke-width: 1.5;" width="105" x="1049.5" y="167"/><ellipse cx="1064.5" cy="183" fill="#ADD1B2" rx="11" ry="11" style="stroke: #A80036; stroke-width: 1.0;"/><path d="M1067.4688,188.6406 Q1066.8906,188.9375 1066.25,189.0781 Q1065.6094,189.2344 1064.9063,189.2344 Q1062.4063,189.2344 1061.0781,187.5938 Q1059.7656,185.9375 1059.7656,182.8125 Q1059.7656,179.6875 1061.0781,178.0313 Q1062.4063,176.375 1064.9063,176.375 Q1065.6094,176.375 1066.25,176.5313 Q1066.9063,176.6875 1067.4688,176.9844 L1067.4688,179.7031 Q1066.8438,179.125 1066.25,178.8594 Q1065.6563,178.5781 1065.0313,178.5781 Q1063.6875,178.5781 1063,179.6563 Q1062.3125,180.7188 1062.3125,182.8125 Q1062.3125,184.9063 1063,185.9844 Q1063.6875,187.0469 1065.0313,187.0469 Q1065.6563,187.0469 1066.25,186.7813 Q1066.8438,186.5 1067.4688,185.9219 L1067.4688,188.6406 Z "/><text fill="#000000" font-family="sans-serif" font-size="12" lengthAdjust="spacingAndGlyphs" textLength="73" x="1078.5" y="187.1543">FixedLayout</text><!--MD5=[caebf2ddd0fe15aa1cd7c0f919e7d6a1]
class Layout--><rect fill="#FEFECE" filter="url(#f1mwwy48ivmcw9)" height="32" id="Layout" style="stroke: #A80036; stroke-width: 1.5;" width="75" x="1064.5" y="75"/><ellipse cx="1079.5" cy="91" fill="#B4A7E5" rx="11" ry="11" style="stroke: #A80036; stroke-width: 1.0;"/><path d="M1075.4219,86.7656 L1075.4219,84.6094 L1082.8125,84.6094 L1082.8125,86.7656 L1080.3438,86.7656 L1080.3438,94.8438 L1082.8125,94.8438 L1082.8125,97 L1075.4219,97 L1075.4219,94.8438 L1077.8906,94.8438 L1077.8906,86.7656 L1075.4219,86.7656 Z "/><text fill="#000000" font-family="sans-serif" font-size="12" font-style="italic" lengthAdjust="spacingAndGlyphs" textLength="43" x="1093.5" y="95.1543">Layout</text><!--MD5=[12f7f85e6a82a668bac37f73aa8a25f9]
class DynamicLayout--><rect fill="#FEFECE" filter="url(#f1mwwy48ivmcw9)" height="32" id="DynamicLayout" style="stroke: #A80036; stroke-width: 1.5;" width="125" x="889.5" y="167"/><ellipse cx="904.5" cy="183" fill="#ADD1B2" rx="11" ry="11" style="stroke: #A80036; stroke-width: 1.0;"/><path d="M907.4688,188.6406 Q906.8906,188.9375 906.25,189.0781 Q905.6094,189.2344 904.9063,189.2344 Q902.4063,189.2344 901.0781,187.5938 Q899.7656,185.9375 899.7656,182.8125 Q899.7656,179.6875 901.0781,178.0313 Q902.4063,176.375 904.9063,176.375 Q905.6094,176.375 906.25,176.5313 Q906.9063,176.6875 907.4688,176.9844 L907.4688,179.7031 Q906.8438,179.125 906.25,178.8594 Q905.6563,178.5781 905.0313,178.5781 Q903.6875,178.5781 903,179.6563 Q902.3125,180.7188 902.3125,182.8125 Q902.3125,184.9063 903,185.9844 Q903.6875,187.0469 905.0313,187.0469 Q905.6563,187.0469 906.25,186.7813 Q906.8438,186.5 907.4688,185.9219 L907.4688,188.6406 Z "/><text fill="#000000" font-family="sans-serif" font-size="12" lengthAdjust="spacingAndGlyphs" textLength="93" x="918.5" y="187.1543">DynamicLayout</text><!--MD5=[ceff05214af216b423c504875c83215d]
class LayoutsFactory--><rect fill="#FEFECE" filter="url(#f1mwwy48ivmcw9)" height="32" id="LayoutsFactory" style="stroke: #A80036; stroke-width: 1.5;" width="126" x="889" y="259"/><ellipse cx="904" cy="275" fill="#ADD1B2" rx="11" ry="11" style="stroke: #A80036; stroke-width: 1.0;"/><path d="M906.9688,280.6406 Q906.3906,280.9375 905.75,281.0781 Q905.1094,281.2344 904.4063,281.2344 Q901.9063,281.2344 900.5781,279.5938 Q899.2656,277.9375 899.2656,274.8125 Q899.2656,271.6875 900.5781,270.0313 Q901.9063,268.375 904.4063,268.375 Q905.1094,268.375 905.75,268.5313 Q906.4063,268.6875 906.9688,268.9844 L906.9688,271.7031 Q906.3438,271.125 905.75,270.8594 Q905.1563,270.5781 904.5313,270.5781 Q903.1875,270.5781 902.5,271.6563 Q901.8125,272.7188 901.8125,274.8125 Q901.8125,276.9063 902.5,277.9844 Q903.1875,279.0469 904.5313,279.0469 Q905.1563,279.0469 905.75,278.7813 Q906.3438,278.5 906.9688,277.9219 L906.9688,280.6406 Z "/><text fill="#000000" font-family="sans-serif" font-size="12" lengthAdjust="spacingAndGlyphs" textLength="94" x="918" y="279.1543">LayoutsFactory</text><!--MD5=[00675e18512933602d55f5e0e2b1ab32]
class AllSpikingNeurons--><rect fill="#FEFECE" filter="url(#f1mwwy48ivmcw9)" height="32" id="AllSpikingNeurons" style="stroke: #A80036; stroke-width: 1.5;" width="144" x="1417" y="167"/><ellipse cx="1432" cy="183" fill="#ADD1B2" rx="11" ry="11" style="stroke: #A80036; stroke-width: 1.0;"/><path d="M1434.9688,188.6406 Q1434.3906,188.9375 1433.75,189.0781 Q1433.1094,189.2344 1432.4063,189.2344 Q1429.9063,189.2344 1428.5781,187.5938 Q1427.2656,185.9375 1427.2656,182.8125 Q1427.2656,179.6875 1428.5781,178.0313 Q1429.9063,176.375 1432.4063,176.375 Q1433.1094,176.375 1433.75,176.5313 Q1434.4063,176.6875 1434.9688,176.9844 L1434.9688,179.7031 Q1434.3438,179.125 1433.75,178.8594 Q1433.1563,178.5781 1432.5313,178.5781 Q1431.1875,178.5781 1430.5,179.6563 Q1429.8125,180.7188 1429.8125,182.8125 Q1429.8125,184.9063 1430.5,185.9844 Q1431.1875,187.0469 1432.5313,187.0469 Q1433.1563,187.0469 1433.75,186.7813 Q1434.3438,186.5 1434.9688,185.9219 L1434.9688,188.6406 Z "/><text fill="#000000" font-family="sans-serif" font-size="12" lengthAdjust="spacingAndGlyphs" textLength="112" x="1446" y="187.1543">AllSpikingNeurons</text><!--MD5=[34dee175ca2f1207a5c8be9520f72c2f]
class AllVertices--><rect fill="#FEFECE" filter="url(#f1mwwy48ivmcw9)" height="32" id="AllVertices" style="stroke: #A80036; stroke-width: 1.5;" width="96" x="1434" y="75"/><ellipse cx="1449" cy="91" fill="#B4A7E5" rx="11" ry="11" style="stroke: #A80036; stroke-width: 1.0;"/><path d="M1444.9219,86.7656 L1444.9219,84.6094 L1452.3125,84.6094 L1452.3125,86.7656 L1449.8438,86.7656 L1449.8438,94.8438 L1452.3125,94.8438 L1452.3125,97 L1444.9219,97 L1444.9219,94.8438 L1447.3906,94.8438 L1447.3906,86.7656 L1444.9219,86.7656 Z "/><text fill="#000000" font-family="sans-serif" font-size="12" font-style="italic" lengthAdjust="spacingAndGlyphs" textLength="64" x="1463" y="95.1543">AllVertices</text><!--MD5=[cf80cca85261d84eda43dbc026d5d8d1]
class AllIFNeurons--><rect fill="#FEFECE" filter="url(#f1mwwy48ivmcw9)" height="32" id="AllIFNeurons" style="stroke: #A80036; stroke-width: 1.5;" width="109" x="1434.5" y="259"/><ellipse cx="1449.5" cy="275" fill="#ADD1B2" rx="11" ry="11" style="stroke: #A80036; stroke-width: 1.0;"/><path d="M1452.4688,280.6406 Q1451.8906,280.9375 1451.25,281.0781 Q1450.6094,281.2344 1449.9063,281.2344 Q1447.4063,281.2344 1446.0781,279.5938 Q1444.7656,277.9375 1444.7656,274.8125 Q1444.7656,271.6875 1446.0781,270.0313 Q1447.4063,268.375 1449.9063,268.375 Q1450.6094,268.375 1451.25,268.5313 Q1451.9063,268.6875 1452.4688,268.9844 L1452.4688,271.7031 Q1451.8438,271.125 1451.25,270.8594 Q1450.6563,270.5781 1450.0313,270.5781 Q1448.6875,270.5781 1448,271.6563 Q1447.3125,272.7188 1447.3125,274.8125 Q1447.3125,276.9063 1448,277.9844 Q1448.6875,279.0469 1450.0313,279.0469 Q1450.6563,279.0469 1451.25,278.7813 Q1451.8438,278.5 1452.4688,277.9219 L1452.4688,280.6406 Z "/><text fill="#000000" font-family="sans-serif" font-size="12" lengthAdjust="spacingAndGlyphs" textLength="77" x="1463.5" y="279.1543">AllIFNeurons</text><!--MD5=[260384eea3996f96db9f0f616389f648]
class AllLiFNeurons--><rect fill="#FEFECE" filter="url(#f1mwwy48ivmcw9)" height="32" id="AllLiFNeurons" style="stroke: #A80036; stroke-width: 1.5;" width="115" x="1569.5" y="382"/><ellipse cx="1584.5" cy="398" fill="#ADD1B2" rx="11" ry="11" style="stroke: #A80036; stroke-width: 1.0;"/><path d="M1587.4688,403.6406 Q1586.8906,403.9375 1586.25,404.0781 Q1585.6094,404.2344 1584.9063,404.2344 Q1582.4063,404.2344 1581.0781,402.5938 Q1579.7656,400.9375 1579.7656,397.8125 Q1579.7656,394.6875 1581.0781,393.0313 Q1582.4063,391.375 1584.9063,391.375 Q1585.6094,391.375 1586.25,391.5313 Q1586.9063,391.6875 1587.4688,391.9844 L1587.4688,394.7031 Q1586.8438,394.125 1586.25,393.8594 Q1585.6563,393.5781 1585.0313,393.5781 Q1583.6875,393.5781 1583,394.6563 Q1582.3125,395.7188 1582.3125,397.8125 Q1582.3125,399.9063 1583,400.9844 Q1583.6875,402.0469 1585.0313,402.0469 Q1585.6563,402.0469 1586.25,401.7813 Q1586.8438,401.5 1587.4688,400.9219 L1587.4688,403.6406 Z "/><text fill="#000000" font-family="sans-serif" font-size="12" lengthAdjust="spacingAndGlyphs" textLength="83" x="1598.5" y="402.1543">AllLiFNeurons</text><!--MD5=[71b076a97ded1832bf674b3762bc7b75]
class AllZHNeurons--><rect fill="#FEFECE" filter="url(#f1mwwy48ivmcw9)" height="32" id="AllZHNeurons" style="stroke: #A80036; stroke-width: 1.5;" width="117" x="1417.5" y="382"/><ellipse cx="1432.5" cy="398" fill="#ADD1B2" rx="11" ry="11" style="stroke: #A80036; stroke-width: 1.0;"/><path d="M1435.4688,403.6406 Q1434.8906,403.9375 1434.25,404.0781 Q1433.6094,404.2344 1432.9063,404.2344 Q1430.4063,404.2344 1429.0781,402.5938 Q1427.7656,400.9375 1427.7656,397.8125 Q1427.7656,394.6875 1429.0781,393.0313 Q1430.4063,391.375 1432.9063,391.375 Q1433.6094,391.375 1434.25,391.5313 Q1434.9063,391.6875 1435.4688,391.9844 L1435.4688,394.7031 Q1434.8438,394.125 1434.25,393.8594 Q1433.6563,393.5781 1433.0313,393.5781 Q1431.6875,393.5781 1431,394.6563 Q1430.3125,395.7188 1430.3125,397.8125 Q1430.3125,399.9063 1431,400.9844 Q1431.6875,402.0469 1433.0313,402.0469 Q1433.6563,402.0469 1434.25,401.7813 Q1434.8438,401.5 1435.4688,400.9219 L1435.4688,403.6406 Z "/><text fill="#000000" font-family="sans-serif" font-size="12" lengthAdjust="spacingAndGlyphs" textLength="85" x="1446.5" y="402.1543">AllZHNeurons</text><!--MD5=[cc1c410fe2850b6da0ea695abfcea755]
class VerticesFactory--><rect fill="#FEFECE" filter="url(#f1mwwy48ivmcw9)" height="32" id="VerticesFactory" style="stroke: #A80036; stroke-width: 1.5;" width="129" x="1417.5" y="521"/><ellipse cx="1432.5" cy="537" fill="#ADD1B2" rx="11" ry="11" style="stroke: #A80036; stroke-width: 1.0;"/><path d="M1435.4688,542.6406 Q1434.8906,542.9375 1434.25,543.0781 Q1433.6094,543.2344 1432.9063,543.2344 Q1430.4063,543.2344 1429.0781,541.5938 Q1427.7656,539.9375 1427.7656,536.8125 Q1427.7656,533.6875 1429.0781,532.0313 Q1430.4063,530.375 1432.9063,530.375 Q1433.6094,530.375 1434.25,530.5313 Q1434.9063,530.6875 1435.4688,530.9844 L1435.4688,533.7031 Q1434.8438,533.125 1434.25,532.8594 Q1433.6563,532.5781 1433.0313,532.5781 Q1431.6875,532.5781 1431,533.6563 Q1430.3125,534.7188 1430.3125,536.8125 Q1430.3125,538.9063 1431,539.9844 Q1431.6875,541.0469 1433.0313,541.0469 Q1433.6563,541.0469 1434.25,540.7813 Q1434.8438,540.5 1435.4688,539.9219 L1435.4688,542.6406 Z "/><text fill="#000000" font-family="sans-serif" font-size="12" lengthAdjust="spacingAndGlyphs" textLength="97" x="1446.5" y="541.1543">VerticesFactory</text><!--MD5=[9af66c322c1a3c2f0b44834865e098f3]
class XmLRecorder--><rect fill="#FEFECE" filter="url(#f1mwwy48ivmcw9)" height="32" id="XmLRecorder" style="stroke: #A80036; stroke-width: 1.5;" width="113" x="195.5" y="660"/><ellipse cx="210.5" cy="676" fill="#ADD1B2" rx="11" ry="11" style="stroke: #A80036; stroke-width: 1.0;"/><path d="M213.4688,681.6406 Q212.8906,681.9375 212.25,682.0781 Q211.6094,682.2344 210.9063,682.2344 Q208.4063,682.2344 207.0781,680.5938 Q205.7656,678.9375 205.7656,675.8125 Q205.7656,672.6875 207.0781,671.0313 Q208.4063,669.375 210.9063,669.375 Q211.6094,669.375 212.25,669.5313 Q212.9063,669.6875 213.4688,669.9844 L213.4688,672.7031 Q212.8438,672.125 212.25,671.8594 Q211.6563,671.5781 211.0313,671.5781 Q209.6875,671.5781 209,672.6563 Q208.3125,673.7188 208.3125,675.8125 Q208.3125,677.9063 209,678.9844 Q209.6875,680.0469 211.0313,680.0469 Q211.6563,680.0469 212.25,679.7813 Q212.8438,679.5 213.4688,678.9219 L213.4688,681.6406 Z "/><text fill="#000000" font-family="sans-serif" font-size="12" lengthAdjust="spacingAndGlyphs" textLength="81" x="224.5" y="680.1543">XmLRecorder</text><!--MD5=[a2efe13f97b9395dfb70e2255bd52698]
class IRecorder--><rect fill="#FEFECE" filter="url(#f1mwwy48ivmcw9)" height="32" id="IRecorder" style="stroke: #A80036; stroke-width: 1.5;" width="93" x="358.5" y="521"/><ellipse cx="373.5" cy="537" fill="#B4A7E5" rx="11" ry="11" style="stroke: #A80036; stroke-width: 1.0;"/><path d="M369.4219,532.7656 L369.4219,530.6094 L376.8125,530.6094 L376.8125,532.7656 L374.3438,532.7656 L374.3438,540.8438 L376.8125,540.8438 L376.8125,543 L369.4219,543 L369.4219,540.8438 L371.8906,540.8438 L371.8906,532.7656 L369.4219,532.7656 Z "/><text fill="#000000" font-family="sans-serif" font-size="12" font-style="italic" lengthAdjust="spacingAndGlyphs" textLength="61" x="387.5" y="541.1543">IRecorder</text><!--MD5=[68c26e8dbee30e67a392826e30173ce1]
class HDF5Recorder--><rect fill="#FEFECE" filter="url(#f1mwwy48ivmcw9)" height="32" id="HDF5Recorder" style="stroke: #A80036; stroke-width: 1.5;" width="122" x="344" y="660"/><ellipse cx="359" cy="676" fill="#ADD1B2" rx="11" ry="11" style="stroke: #A80036; stroke-width: 1.0;"/><path d="M361.9688,681.6406 Q361.3906,681.9375 360.75,682.0781 Q360.1094,682.2344 359.4063,682.2344 Q356.9063,682.2344 355.5781,680.5938 Q354.2656,678.9375 354.2656,675.8125 Q354.2656,672.6875 355.5781,671.0313 Q356.9063,669.375 359.4063,669.375 Q360.1094,669.375 360.75,669.5313 Q361.4063,669.6875 361.9688,669.9844 L361.9688,672.7031 Q361.3438,672.125 360.75,671.8594 Q360.1563,671.5781 359.5313,671.5781 Q358.1875,671.5781 357.5,672.6563 Q356.8125,673.7188 356.8125,675.8125 Q356.8125,677.9063 357.5,678.9844 Q358.1875,680.0469 359.5313,680.0469 Q360.1563,680.0469 360.75,679.7813 Q361.3438,679.5 361.9688,678.9219 L361.9688,681.6406 Z "/><text fill="#000000" font-family="sans-serif" font-size="12" lengthAdjust="spacingAndGlyphs" textLength="90" x="373" y="680.1543">HDF5Recorder</text><!--MD5=[c3e0b6f9949d2074781ec6fef8f97457]
class XmlGrowthRecroder--><rect fill="#FEFECE" filter="url(#f1mwwy48ivmcw9)" height="32" id="XmlGrowthRecroder" style="stroke: #A80036; stroke-width: 1.5;" width="154" x="62" y="752"/><ellipse cx="77" cy="768" fill="#ADD1B2" rx="11" ry="11" style="stroke: #A80036; stroke-width: 1.0;"/><path d="M79.9688,773.6406 Q79.3906,773.9375 78.75,774.0781 Q78.1094,774.2344 77.4063,774.2344 Q74.9063,774.2344 73.5781,772.5938 Q72.2656,770.9375 72.2656,767.8125 Q72.2656,764.6875 73.5781,763.0313 Q74.9063,761.375 77.4063,761.375 Q78.1094,761.375 78.75,761.5313 Q79.4063,761.6875 79.9688,761.9844 L79.9688,764.7031 Q79.3438,764.125 78.75,763.8594 Q78.1563,763.5781 77.5313,763.5781 Q76.1875,763.5781 75.5,764.6563 Q74.8125,765.7188 74.8125,767.8125 Q74.8125,769.9063 75.5,770.9844 Q76.1875,772.0469 77.5313,772.0469 Q78.1563,772.0469 78.75,771.7813 Q79.3438,771.5 79.9688,770.9219 L79.9688,773.6406 Z "/><text fill="#000000" font-family="sans-serif" font-size="12" lengthAdjust="spacingAndGlyphs" textLength="122" x="91" y="772.1543">XmlGrowthRecroder</text><!--MD5=[af68557a962a5f1f7548a7e590f8fd62]
class Hdf5GrowthRecorder--><rect fill="#FEFECE" filter="url(#f1mwwy48ivmcw9)" height="32" id="Hdf5GrowthRecorder" style="stroke: #A80036; stroke-width: 1.5;" width="162" x="325" y="752"/><ellipse cx="340" cy="768" fill="#ADD1B2" rx="11" ry="11" style="stroke: #A80036; stroke-width: 1.0;"/><path d="M342.9688,773.6406 Q342.3906,773.9375 341.75,774.0781 Q341.1094,774.2344 340.4063,774.2344 Q337.9063,774.2344 336.5781,772.5938 Q335.2656,770.9375 335.2656,767.8125 Q335.2656,764.6875 336.5781,763.0313 Q337.9063,761.375 340.4063,761.375 Q341.1094,761.375 341.75,761.5313 Q342.4063,761.6875 342.9688,761.9844 L342.9688,764.7031 Q342.3438,764.125 341.75,763.8594 Q341.1563,763.5781 340.5313,763.5781 Q339.1875,763.5781 338.5,764.6563 Q337.8125,765.7188 337.8125,767.8125 Q337.8125,769.9063 338.5,770.9844 Q339.1875,772.0469 340.5313,772.0469 Q341.1563,772.0469 341.75,771.7813 Q342.3438,771.5 342.9688,770.9219 L342.9688,773.6406 Z "/><text fill="#000000" font-family="sans-serif" font-size="12" lengthAdjust="spacingAndGlyphs" textLength="130" x="354" y="772.1543">Hdf5GrowthRecorder</text><!--MD5=[5309de41de0463c67105d9e754563b77]
class RecordersFactory--><rect fill="#FEFECE" filter="url(#f1mwwy48ivmcw9)" height="32" id="RecordersFactory" style="stroke: #A80036; stroke-width: 1.5;" width="142" x="218" y="844"/><ellipse cx="233" cy="860" fill="#ADD1B2" rx="11" ry="11" style="stroke: #A80036; stroke-width: 1.0;"/><path d="M235.9688,865.6406 Q235.3906,865.9375 234.75,866.0781 Q234.1094,866.2344 233.4063,866.2344 Q230.9063,866.2344 229.5781,864.5938 Q228.2656,862.9375 228.2656,859.8125 Q228.2656,856.6875 229.5781,855.0313 Q230.9063,853.375 233.4063,853.375 Q234.1094,853.375 234.75,853.5313 Q235.4063,853.6875 235.9688,853.9844 L235.9688,856.7031 Q235.3438,856.125 234.75,855.8594 Q234.1563,855.5781 233.5313,855.5781 Q232.1875,855.5781 231.5,856.6563 Q230.8125,857.7188 230.8125,859.8125 Q230.8125,861.9063 231.5,862.9844 Q232.1875,864.0469 233.5313,864.0469 Q234.1563,864.0469 234.75,863.7813 Q235.3438,863.5 235.9688,862.9219 L235.9688,865.6406 Z "/><text fill="#000000" font-family="sans-serif" font-size="12" lengthAdjust="spacingAndGlyphs" textLength="110" x="247" y="864.1543">RecordersFactory</text><!--MD5=[b671e9144a70d5380b4364952f259167]
class ConnStatic--><rect fill="#FEFECE" filter="url(#f1mwwy48ivmcw9)" height="32" id="ConnStatic" style="stroke: #A80036; stroke-width: 1.5;" width="100" x="927" y="521"/><ellipse cx="942" cy="537" fill="#ADD1B2" rx="11" ry="11" style="stroke: #A80036; stroke-width: 1.0;"/><path d="M944.9688,542.6406 Q944.3906,542.9375 943.75,543.0781 Q943.1094,543.2344 942.4063,543.2344 Q939.9063,543.2344 938.5781,541.5938 Q937.2656,539.9375 937.2656,536.8125 Q937.2656,533.6875 938.5781,532.0313 Q939.9063,530.375 942.4063,530.375 Q943.1094,530.375 943.75,530.5313 Q944.4063,530.6875 944.9688,530.9844 L944.9688,533.7031 Q944.3438,533.125 943.75,532.8594 Q943.1563,532.5781 942.5313,532.5781 Q941.1875,532.5781 940.5,533.6563 Q939.8125,534.7188 939.8125,536.8125 Q939.8125,538.9063 940.5,539.9844 Q941.1875,541.0469 942.5313,541.0469 Q943.1563,541.0469 943.75,540.7813 Q944.3438,540.5 944.9688,539.9219 L944.9688,542.6406 Z "/><text fill="#000000" font-family="sans-serif" font-size="12" lengthAdjust="spacingAndGlyphs" textLength="68" x="956" y="541.1543">ConnStatic</text><!--MD5=[24bb951fb6b9ac52df1580923e830244]
class Connections--><rect fill="#FEFECE" filter="url(#f1mwwy48ivmcw9)" height="32" id="Connections" style="stroke: #A80036; stroke-width: 1.5;" width="109" x="917.5" y="382"/><ellipse cx="932.5" cy="398" fill="#B4A7E5" rx="11" ry="11" style="stroke: #A80036; stroke-width: 1.0;"/><path d="M928.4219,393.7656 L928.4219,391.6094 L935.8125,391.6094 L935.8125,393.7656 L933.3438,393.7656 L933.3438,401.8438 L935.8125,401.8438 L935.8125,404 L928.4219,404 L928.4219,401.8438 L930.8906,401.8438 L930.8906,393.7656 L928.4219,393.7656 Z "/><text fill="#000000" font-family="sans-serif" font-size="12" font-style="italic" lengthAdjust="spacingAndGlyphs" textLength="77" x="946.5" y="402.1543">Connections</text><!--MD5=[540eab1ed52846d003b47757435df453]
class ConnGrowth--><rect fill="#FEFECE" filter="url(#f1mwwy48ivmcw9)" height="32" id="ConnGrowth" style="stroke: #A80036; stroke-width: 1.5;" width="108" x="784" y="521"/><ellipse cx="799" cy="537" fill="#ADD1B2" rx="11" ry="11" style="stroke: #A80036; stroke-width: 1.0;"/><path d="M801.9688,542.6406 Q801.3906,542.9375 800.75,543.0781 Q800.1094,543.2344 799.4063,543.2344 Q796.9063,543.2344 795.5781,541.5938 Q794.2656,539.9375 794.2656,536.8125 Q794.2656,533.6875 795.5781,532.0313 Q796.9063,530.375 799.4063,530.375 Q800.1094,530.375 800.75,530.5313 Q801.4063,530.6875 801.9688,530.9844 L801.9688,533.7031 Q801.3438,533.125 800.75,532.8594 Q800.1563,532.5781 799.5313,532.5781 Q798.1875,532.5781 797.5,533.6563 Q796.8125,534.7188 796.8125,536.8125 Q796.8125,538.9063 797.5,539.9844 Q798.1875,541.0469 799.5313,541.0469 Q800.1563,541.0469 800.75,540.7813 Q801.3438,540.5 801.9688,539.9219 L801.9688,542.6406 Z "/><text fill="#000000" font-family="sans-serif" font-size="12" lengthAdjust="spacingAndGlyphs" textLength="76" x="813" y="541.1543">ConnGrowth</text><!--MD5=[07560c205a8067cf69726ad645fec973]
class ConnectionsFactory--><rect fill="#FEFECE" filter="url(#f1mwwy48ivmcw9)" height="32" id="ConnectionsFactory" style="stroke: #A80036; stroke-width: 1.5;" width="156" x="784" y="660"/><ellipse cx="799" cy="676" fill="#ADD1B2" rx="11" ry="11" style="stroke: #A80036; stroke-width: 1.0;"/><path d="M801.9688,681.6406 Q801.3906,681.9375 800.75,682.0781 Q800.1094,682.2344 799.4063,682.2344 Q796.9063,682.2344 795.5781,680.5938 Q794.2656,678.9375 794.2656,675.8125 Q794.2656,672.6875 795.5781,671.0313 Q796.9063,669.375 799.4063,669.375 Q800.1094,669.375 800.75,669.5313 Q801.4063,669.6875 801.9688,669.9844 L801.9688,672.7031 Q801.3438,672.125 800.75,671.8594 Q800.1563,671.5781 799.5313,671.5781 Q798.1875,671.5781 797.5,672.6563 Q796.8125,673.7188 796.8125,675.8125 Q796.8125,677.9063 797.5,678.9844 Q798.1875,680.0469 799.5313,680.0469 Q800.1563,680.0469 800.75,679.7813 Q801.3438,679.5 801.9688,678.9219 L801.9688,681.6406 Z "/><text fill="#000000" font-family="sans-serif" font-size="12" lengthAdjust="spacingAndGlyphs" textLength="124" x="813" y="680.1543">ConnectionsFactory</text><!--MD5=[cfe37ad1a50a7dcaaf80645f5fb9fa69]
class AllSpikingSynapses--><rect fill="#FEFECE" filter="url(#f1mwwy48ivmcw9)" height="32" id="AllSpikingSynapses" style="stroke: #A80036; stroke-width: 1.5;" width="151" x="1204.5" y="752"/><ellipse cx="1219.5" cy="768" fill="#ADD1B2" rx="11" ry="11" style="stroke: #A80036; stroke-width: 1.0;"/><path d="M1222.4688,773.6406 Q1221.8906,773.9375 1221.25,774.0781 Q1220.6094,774.2344 1219.9063,774.2344 Q1217.4063,774.2344 1216.0781,772.5938 Q1214.7656,770.9375 1214.7656,767.8125 Q1214.7656,764.6875 1216.0781,763.0313 Q1217.4063,761.375 1219.9063,761.375 Q1220.6094,761.375 1221.25,761.5313 Q1221.9063,761.6875 1222.4688,761.9844 L1222.4688,764.7031 Q1221.8438,764.125 1221.25,763.8594 Q1220.6563,763.5781 1220.0313,763.5781 Q1218.6875,763.5781 1218,764.6563 Q1217.3125,765.7188 1217.3125,767.8125 Q1217.3125,769.9063 1218,770.9844 Q1218.6875,772.0469 1220.0313,772.0469 Q1220.6563,772.0469 1221.25,771.7813 Q1221.8438,771.5 1222.4688,770.9219 L1222.4688,773.6406 Z "/><text fill="#000000" font-family="sans-serif" font-size="12" lengthAdjust="spacingAndGlyphs" textLength="119" x="1233.5" y="772.1543">AllSpikingSynapses</text><!--MD5=[06f12ec46b87224fd0e1c514fed4a6e4]
class AllEdges--><rect fill="#FEFECE" filter="url(#f1mwwy48ivmcw9)" height="32" id="AllEdges" style="stroke: #A80036; stroke-width: 1.5;" width="84" x="1221" y="660"/><ellipse cx="1236" cy="676" fill="#B4A7E5" rx="11" ry="11" style="stroke: #A80036; stroke-width: 1.0;"/><path d="M1231.9219,671.7656 L1231.9219,669.6094 L1239.3125,669.6094 L1239.3125,671.7656 L1236.8438,671.7656 L1236.8438,679.8438 L1239.3125,679.8438 L1239.3125,682 L1231.9219,682 L1231.9219,679.8438 L1234.3906,679.8438 L1234.3906,671.7656 L1231.9219,671.7656 Z "/><text fill="#000000" font-family="sans-serif" font-size="12" font-style="italic" lengthAdjust="spacingAndGlyphs" textLength="52" x="1250" y="680.1543">AllEdges</text><!--MD5=[635988d62f36dba7a8b9baa086d12f03]
class AllSTDPSynapses--><rect fill="#FEFECE" filter="url(#f1mwwy48ivmcw9)" height="32" id="AllSTDPSynapses" style="stroke: #A80036; stroke-width: 1.5;" width="138" x="1204" y="844"/><ellipse cx="1219" cy="860" fill="#ADD1B2" rx="11" ry="11" style="stroke: #A80036; stroke-width: 1.0;"/><path d="M1221.9688,865.6406 Q1221.3906,865.9375 1220.75,866.0781 Q1220.1094,866.2344 1219.4063,866.2344 Q1216.9063,866.2344 1215.5781,864.5938 Q1214.2656,862.9375 1214.2656,859.8125 Q1214.2656,856.6875 1215.5781,855.0313 Q1216.9063,853.375 1219.4063,853.375 Q1220.1094,853.375 1220.75,853.5313 Q1221.4063,853.6875 1221.9688,853.9844 L1221.9688,856.7031 Q1221.3438,856.125 1220.75,855.8594 Q1220.1563,855.5781 1219.5313,855.5781 Q1218.1875,855.5781 1217.5,856.6563 Q1216.8125,857.7188 1216.8125,859.8125 Q1216.8125,861.9063 1217.5,862.9844 Q1218.1875,864.0469 1219.5313,864.0469 Q1220.1563,864.0469 1220.75,863.7813 Q1221.3438,863.5 1221.9688,862.9219 L1221.9688,865.6406 Z "/><text fill="#000000" font-family="sans-serif" font-size="12" lengthAdjust="spacingAndGlyphs" textLength="106" x="1233" y="864.1543">AllSTDPSynapses</text><!--MD5=[935a686a552498c9fe3db149d943753f]
class AllDSSynapses--><rect fill="#FEFECE" filter="url(#f1mwwy48ivmcw9)" height="32" id="AllDSSynapses" style="stroke: #A80036; stroke-width: 1.5;" width="123" x="1377.5" y="844"/><ellipse cx="1392.5" cy="860" fill="#ADD1B2" rx="11" ry="11" style="stroke: #A80036; stroke-width: 1.0;"/><path d="M1395.4688,865.6406 Q1394.8906,865.9375 1394.25,866.0781 Q1393.6094,866.2344 1392.9063,866.2344 Q1390.4063,866.2344 1389.0781,864.5938 Q1387.7656,862.9375 1387.7656,859.8125 Q1387.7656,856.6875 1389.0781,855.0313 Q1390.4063,853.375 1392.9063,853.375 Q1393.6094,853.375 1394.25,853.5313 Q1394.9063,853.6875 1395.4688,853.9844 L1395.4688,856.7031 Q1394.8438,856.125 1394.25,855.8594 Q1393.6563,855.5781 1393.0313,855.5781 Q1391.6875,855.5781 1391,856.6563 Q1390.3125,857.7188 1390.3125,859.8125 Q1390.3125,861.9063 1391,862.9844 Q1391.6875,864.0469 1393.0313,864.0469 Q1393.6563,864.0469 1394.25,863.7813 Q1394.8438,863.5 1395.4688,862.9219 L1395.4688,865.6406 Z "/><text fill="#000000" font-family="sans-serif" font-size="12" lengthAdjust="spacingAndGlyphs" textLength="91" x="1406.5" y="864.1543">AllDSSynapses</text><!--MD5=[fd6ea4ca2934104fc4a12eb686a910c8]
class AllDynamicsSTDPSynapses--><rect fill="#FEFECE" filter="url(#f1mwwy48ivmcw9)" height="32" id="AllDynamicsSTDPSynapses" style="stroke: #A80036; stroke-width: 1.5;" width="197" x="1204.5" y="936"/><ellipse cx="1219.5" cy="952" fill="#ADD1B2" rx="11" ry="11" style="stroke: #A80036; stroke-width: 1.0;"/><path d="M1222.4688,957.6406 Q1221.8906,957.9375 1221.25,958.0781 Q1220.6094,958.2344 1219.9063,958.2344 Q1217.4063,958.2344 1216.0781,956.5938 Q1214.7656,954.9375 1214.7656,951.8125 Q1214.7656,948.6875 1216.0781,947.0313 Q1217.4063,945.375 1219.9063,945.375 Q1220.6094,945.375 1221.25,945.5313 Q1221.9063,945.6875 1222.4688,945.9844 L1222.4688,948.7031 Q1221.8438,948.125 1221.25,947.8594 Q1220.6563,947.5781 1220.0313,947.5781 Q1218.6875,947.5781 1218,948.6563 Q1217.3125,949.7188 1217.3125,951.8125 Q1217.3125,953.9063 1218,954.9844 Q1218.6875,956.0469 1220.0313,956.0469 Q1220.6563,956.0469 1221.25,955.7813 Q1221.8438,955.5 1222.4688,954.9219 L1222.4688,957.6406 Z "/><text fill="#000000" font-family="sans-serif" font-size="12" lengthAdjust="spacingAndGlyphs" textLength="165" x="1233.5" y="956.1543">AllDynamicsSTDPSynapses</text><!--MD5=[2137c854024e09e8076c84fb007b1c3c]
class EdgesFactory--><rect fill="#FEFECE" filter="url(#f1mwwy48ivmcw9)" height="32" id="EdgesFactory" style="stroke: #A80036; stroke-width: 1.5;" width="117" x="1311.5" y="1028"/><ellipse cx="1326.5" cy="1044" fill="#ADD1B2" rx="11" ry="11" style="stroke: #A80036; stroke-width: 1.0;"/><path d="M1329.4688,1049.6406 Q1328.8906,1049.9375 1328.25,1050.0781 Q1327.6094,1050.2344 1326.9063,1050.2344 Q1324.4063,1050.2344 1323.0781,1048.5938 Q1321.7656,1046.9375 1321.7656,1043.8125 Q1321.7656,1040.6875 1323.0781,1039.0313 Q1324.4063,1037.375 1326.9063,1037.375 Q1327.6094,1037.375 1328.25,1037.5313 Q1328.9063,1037.6875 1329.4688,1037.9844 L1329.4688,1040.7031 Q1328.8438,1040.125 1328.25,1039.8594 Q1327.6563,1039.5781 1327.0313,1039.5781 Q1325.6875,1039.5781 1325,1040.6563 Q1324.3125,1041.7188 1324.3125,1043.8125 Q1324.3125,1045.9063 1325,1046.9844 Q1325.6875,1048.0469 1327.0313,1048.0469 Q1327.6563,1048.0469 1328.25,1047.7813 Q1328.8438,1047.5 1329.4688,1046.9219 L1329.4688,1049.6406 Z "/><text fill="#000000" font-family="sans-serif" font-size="12" lengthAdjust="spacingAndGlyphs" textLength="85" x="1340.5" y="1048.1543">EdgesFactory</text><!--MD5=[973c6b7f5e030bba668bdd48ca021633]
reverse link Model to CPUSpikingModel--><path d="M560.5,127.03 C560.5,127.03 560.5,166.85 560.5,166.85 " fill="none" id="Model&lt;-CPUSpikingModel" style="stroke: #A80036; stroke-width: 1.0; stroke-dasharray: 7.0,7.0;"/><polygon fill="none" points="553.5,127.03,560.5,107.03,567.5,127.03,553.5,127.03" style="stroke: #A80036; stroke-width: 1.0;"/><!--MD5=[d66cadd488ee8381e38c5b0e541bda43]
reverse link Model to GPUSpilingModel--><path d="M520.5,127.2 C520.5,127.2 520.5,175 520.5,175 C520.5,175 512.07,175 500.42,175 " fill="none" id="Model&lt;-GPUSpilingModel" style="stroke: #A80036; stroke-width: 1.0; stroke-dasharray: 7.0,7.0;"/><polygon fill="none" points="513.5,127.2,520.5,107.2,527.5,127.2,513.5,127.2" style="stroke: #A80036; stroke-width: 1.0;"/><!--MD5=[4261885617cbc7ccae7bbabfb2558444]
link Model to Simulator--><path d="M585.5,91 C585.5,91 607.45,91 607.45,91 " fill="none" id="Model-&gt;Simulator" style="stroke: #A80036; stroke-width: 1.0;"/><polygon fill="#FFFFFF" points="620.45,91,614.45,87,608.45,91,614.45,95,620.45,91" style="stroke: #A80036; stroke-width: 1.0;"/><!--MD5=[b4641bc02d5d8efe33d6033ed44bd980]
reverse link OperationManager to Operations--><path d="M550.15,275 C550.15,275 528.58,275 528.58,275 " fill="none" id="OperationManager&lt;-Operations" style="stroke: #A80036; stroke-width: 1.0;"/><polygon fill="#FFFFFF" points="563.15,275,557.15,271,551.15,275,557.15,279,563.15,275" style="stroke: #A80036; stroke-width: 1.0;"/><!--MD5=[e98819c6fcc605915f2efaee3c857d02]
link Simulator to OperationManager--><path d="M693,107.01 C693,107.01 693,253.9 693,253.9 " fill="none" id="Simulator-&gt;OperationManager" style="stroke: #A80036; stroke-width: 1.0;"/><polygon fill="#A80036" points="693,258.9,697,249.9,693,253.9,689,249.9,693,258.9" style="stroke: #A80036; stroke-width: 1.0;"/><!--MD5=[307fb440958d03911878633ccd88c544]
link CPUSpikingModel to GPUSpilingModel--><!--MD5=[1cea4de5324fc0a8457098da950d03ec]
link CPUSpikingModel to Operations--><!--MD5=[9593627a9002a106d0f96da7ffbf61a2]
link OperationManager to ParameterManager--><!--MD5=[891067ebdc7a855417ab5d2553f427ef]
reverse link Layout to FixedLayout--><path d="M1102,127.03 C1102,127.03 1102,166.85 1102,166.85 " fill="none" id="Layout&lt;-FixedLayout" style="stroke: #A80036; stroke-width: 1.0; stroke-dasharray: 7.0,7.0;"/><polygon fill="none" points="1095,127.03,1102,107.03,1109,127.03,1095,127.03" style="stroke: #A80036; stroke-width: 1.0;"/><!--MD5=[7269b632a17f4028eba21f1bd63939ed]
reverse link Layout to DynamicLayout--><path d="M1044.15,99 C1044.15,99 952,99 952,99 C952,99 952,142.39 952,166.8 " fill="none" id="Layout&lt;-DynamicLayout" style="stroke: #A80036; stroke-width: 1.0; stroke-dasharray: 7.0,7.0;"/><polygon fill="none" points="1044.15,92,1064.15,99,1044.15,106,1044.15,92" style="stroke: #A80036; stroke-width: 1.0;"/><!--MD5=[46eb6d5f62098a9931e8efdb8e99157c]
reverse link FixedLayout to LayoutsFactory--><path d="M1119.5,204.03 C1119.5,204.03 1119.5,275 1119.5,275 C1119.5,275 1062.76,275 1015.32,275 " fill="none" id="FixedLayout&lt;-LayoutsFactory" style="stroke: #A80036; stroke-width: 1.0;"/><polygon fill="#A80036" points="1119.5,199.03,1115.5,208.03,1119.5,204.03,1123.5,208.03,1119.5,199.03" style="stroke: #A80036; stroke-width: 1.0;"/><!--MD5=[c9003fa7673fea298ac6dea79519d34f]
reverse link DynamicLayout to LayoutsFactory--><path d="M952,204.03 C952,204.03 952,258.85 952,258.85 " fill="none" id="DynamicLayout&lt;-LayoutsFactory" style="stroke: #A80036; stroke-width: 1.0;"/><polygon fill="#A80036" points="952,199.03,948,208.03,952,204.03,956,208.03,952,199.03" style="stroke: #A80036; stroke-width: 1.0;"/><!--MD5=[f591e114573ccd2409f159b73ea72911]
reverse link AllVertices to AllSpikingNeurons--><path d="M1482,127.03 C1482,127.03 1482,166.85 1482,166.85 " fill="none" id="AllVertices&lt;-AllSpikingNeurons" style="stroke: #A80036; stroke-width: 1.0; stroke-dasharray: 7.0,7.0;"/><polygon fill="none" points="1475,127.03,1482,107.03,1489,127.03,1475,127.03" style="stroke: #A80036; stroke-width: 1.0;"/><!--MD5=[8724fdcf162cd93143062af7a28861a5]
reverse link AllSpikingNeurons to AllIFNeurons--><path d="M1489,219.03 C1489,219.03 1489,258.85 1489,258.85 " fill="none" id="AllSpikingNeurons&lt;-AllIFNeurons" style="stroke: #A80036; stroke-width: 1.0;"/><polygon fill="none" points="1482,219.03,1489,199.03,1496,219.03,1482,219.03" style="stroke: #A80036; stroke-width: 1.0;"/><!--MD5=[f5565d651accd6e6b1dad5fbc033ae63]
reverse link AllIFNeurons to AllLiFNeurons--><path d="M1540.5,311.41 C1540.5,311.41 1540.5,393 1540.5,393 C1540.5,393 1553.44,393 1569.3,393 " fill="none" id="AllIFNeurons&lt;-AllLiFNeurons" style="stroke: #A80036; stroke-width: 1.0;"/><polygon fill="none" points="1533.5,311.41,1540.5,291.41,1547.5,311.41,1533.5,311.41" style="stroke: #A80036; stroke-width: 1.0;"/><!--MD5=[62c6867a57863758a62158db896d0fc0]
reverse link AllIFNeurons to AllZHNeurons--><path d="M1484.5,311.08 C1484.5,311.08 1484.5,381.92 1484.5,381.92 " fill="none" id="AllIFNeurons&lt;-AllZHNeurons" style="stroke: #A80036; stroke-width: 1.0;"/><polygon fill="none" points="1477.5,311.08,1484.5,291.08,1491.5,311.08,1477.5,311.08" style="stroke: #A80036; stroke-width: 1.0;"/><!--MD5=[816076678d7e4925980428acffa4a6e0]
reverse link AllLiFNeurons to VerticesFactory--><path d="M1564.31,404 C1564.31,404 1537.5,404 1537.5,404 C1537.5,404 1537.5,485.58 1537.5,520.96 " fill="none" id="AllLiFNeurons&lt;-VerticesFactory" style="stroke: #A80036; stroke-width: 1.0;"/><polygon fill="#A80036" points="1569.31,404,1560.31,400,1564.31,404,1560.31,408,1569.31,404" style="stroke: #A80036; stroke-width: 1.0;"/><!--MD5=[3db3a0c82a3825d3c0c26b2962603658]
reverse link AllZHNeurons to VerticesFactory--><path d="M1476,419.22 C1476,419.22 1476,520.89 1476,520.89 " fill="none" id="AllZHNeurons&lt;-VerticesFactory" style="stroke: #A80036; stroke-width: 1.0;"/><polygon fill="#A80036" points="1476,414.22,1472,423.22,1476,419.22,1480,423.22,1476,414.22" style="stroke: #A80036; stroke-width: 1.0;"/><!--MD5=[a32c8dc18938f820152f805b5dcbc3e8]
reverse link IRecorder to XmLRecorder--><path d="M338.26,546 C338.26,546 252,546 252,546 C252,546 252,624.95 252,659.8 " fill="none" id="IRecorder&lt;-XmLRecorder" style="stroke: #A80036; stroke-width: 1.0; stroke-dasharray: 7.0,7.0;"/><polygon fill="none" points="338.26,539,358.26,546,338.26,553,338.26,539" style="stroke: #A80036; stroke-width: 1.0;"/><!--MD5=[a0b975066a710a7895b5153868e55a27]
reverse link IRecorder to HDF5Recorder--><path d="M405,573.22 C405,573.22 405,659.89 405,659.89 " fill="none" id="IRecorder&lt;-HDF5Recorder" style="stroke: #A80036; stroke-width: 1.0; stroke-dasharray: 7.0,7.0;"/><polygon fill="none" points="398,573.22,405,553.22,412,573.22,398,573.22" style="stroke: #A80036; stroke-width: 1.0;"/><!--MD5=[93e5a6ee61d1f05a63d1d290b5da68e0]
reverse link XmLRecorder to XmlGrowthRecroder--><path d="M205.75,712.03 C205.75,712.03 205.75,751.85 205.75,751.85 " fill="none" id="XmLRecorder&lt;-XmlGrowthRecroder" style="stroke: #A80036; stroke-width: 1.0;"/><polygon fill="none" points="198.75,712.03,205.75,692.03,212.75,712.03,198.75,712.03" style="stroke: #A80036; stroke-width: 1.0;"/><!--MD5=[9a9f80ee8e039ba0cdc0509d1d0ec35e]
reverse link HDF5Recorder to Hdf5GrowthRecorder--><path d="M405,712.03 C405,712.03 405,751.85 405,751.85 " fill="none" id="HDF5Recorder&lt;-Hdf5GrowthRecorder" style="stroke: #A80036; stroke-width: 1.0;"/><polygon fill="none" points="398,712.03,405,692.03,412,712.03,398,712.03" style="stroke: #A80036; stroke-width: 1.0;"/><!--MD5=[3af4f1eecf578f95c361f55f01de5f0e]
reverse link XmLRecorder to RecordersFactory--><path d="M278.33,697.01 C278.33,697.01 278.33,843.9 278.33,843.9 " fill="none" id="XmLRecorder&lt;-RecordersFactory" style="stroke: #A80036; stroke-width: 1.0;"/><polygon fill="#A80036" points="278.33,692.01,274.33,701.01,278.33,697.01,282.33,701.01,278.33,692.01" style="stroke: #A80036; stroke-width: 1.0;"/><!--MD5=[427f0813d0781cf9b4a277c1904c7c53]
reverse link HDF5Recorder to RecordersFactory--><path d="M338.71,676 C338.71,676 316.75,676 316.75,676 C316.75,676 316.75,799.23 316.75,843.99 " fill="none" id="HDF5Recorder&lt;-RecordersFactory" style="stroke: #A80036; stroke-width: 1.0;"/><polygon fill="#A80036" points="343.71,676,334.71,672,338.71,676,334.71,680,343.71,676" style="stroke: #A80036; stroke-width: 1.0;"/><!--MD5=[ef7aead4e4de6a506f4bd6283eeb5cc2]
reverse link XmlGrowthRecroder to RecordersFactory--><path d="M221,768 C221,768 248.17,768 248.17,768 C248.17,768 248.17,817.62 248.17,843.97 " fill="none" id="XmlGrowthRecroder&lt;-RecordersFactory" style="stroke: #A80036; stroke-width: 1.0;"/><polygon fill="#A80036" points="216,768,225,772,221,768,225,764,216,768" style="stroke: #A80036; stroke-width: 1.0;"/><!--MD5=[4190e7fed19e1823e30f66c46aadd182]
reverse link Hdf5GrowthRecorder to RecordersFactory--><path d="M342.5,789.03 C342.5,789.03 342.5,843.85 342.5,843.85 " fill="none" id="Hdf5GrowthRecorder&lt;-RecordersFactory" style="stroke: #A80036; stroke-width: 1.0;"/><polygon fill="#A80036" points="342.5,784.03,338.5,793.03,342.5,789.03,346.5,793.03,342.5,784.03" style="stroke: #A80036; stroke-width: 1.0;"/><!--MD5=[513ec0388948448dab3ce17eb36460f7]
reverse link Connections to ConnStatic--><path d="M976.75,434.22 C976.75,434.22 976.75,520.89 976.75,520.89 " fill="none" id="Connections&lt;-ConnStatic" style="stroke: #A80036; stroke-width: 1.0; stroke-dasharray: 7.0,7.0;"/><polygon fill="none" points="969.75,434.22,976.75,414.22,983.75,434.22,969.75,434.22" style="stroke: #A80036; stroke-width: 1.0;"/><!--MD5=[10477add2578806cc5f98b33b8db5e65]
reverse link Connections to ConnGrowth--><path d="M923.83,434.22 C923.83,434.22 923.83,537 923.83,537 C923.83,537 909.39,537 892.36,537 " fill="none" id="Connections&lt;-ConnGrowth" style="stroke: #A80036; stroke-width: 1.0; stroke-dasharray: 7.0,7.0;"/><polygon fill="none" points="916.83,434.22,923.83,414.22,930.83,434.22,916.83,434.22" style="stroke: #A80036; stroke-width: 1.0;"/><!--MD5=[ce8801c2acd2b0d49ec9478c2a92b972]
reverse link ConnStatic to ConnectionsFactory--><path d="M933.5,558.22 C933.5,558.22 933.5,659.89 933.5,659.89 " fill="none" id="ConnStatic&lt;-ConnectionsFactory" style="stroke: #A80036; stroke-width: 1.0;"/><polygon fill="#A80036" points="933.5,553.22,929.5,562.22,933.5,558.22,937.5,562.22,933.5,553.22" style="stroke: #A80036; stroke-width: 1.0;"/><!--MD5=[de55930b9c422267ee87a004d94dc6e8]
reverse link ConnGrowth to ConnectionsFactory--><path d="M838,558.22 C838,558.22 838,659.89 838,659.89 " fill="none" id="ConnGrowth&lt;-ConnectionsFactory" style="stroke: #A80036; stroke-width: 1.0;"/><polygon fill="#A80036" points="838,553.22,834,562.22,838,558.22,842,562.22,838,553.22" style="stroke: #A80036; stroke-width: 1.0;"/><!--MD5=[31245d3cee91cd73d7b7d218049e1649]
reverse link AllEdges to AllSpikingSynapses--><path d="M1263,712.03 C1263,712.03 1263,751.85 1263,751.85 " fill="none" id="AllEdges&lt;-AllSpikingSynapses" style="stroke: #A80036; stroke-width: 1.0; stroke-dasharray: 7.0,7.0;"/><polygon fill="none" points="1256,712.03,1263,692.03,1270,712.03,1256,712.03" style="stroke: #A80036; stroke-width: 1.0;"/><!--MD5=[587b9d07fbc4fdda6579551662042140]
reverse link AllSpikingSynapses to AllSTDPSynapses--><path d="M1273.25,804.03 C1273.25,804.03 1273.25,843.85 1273.25,843.85 " fill="none" id="AllSpikingSynapses&lt;-AllSTDPSynapses" style="stroke: #A80036; stroke-width: 1.0;"/><polygon fill="none" points="1266.25,804.03,1273.25,784.03,1280.25,804.03,1266.25,804.03" style="stroke: #A80036; stroke-width: 1.0;"/><!--MD5=[f221506eaa2e129ebcab2e085332c1be]
reverse link AllSpikingSynapses to AllDSSynapses--><path d="M1348.75,804.03 C1348.75,804.03 1348.75,860 1348.75,860 C1348.75,860 1361.44,860 1377.31,860 " fill="none" id="AllSpikingSynapses&lt;-AllDSSynapses" style="stroke: #A80036; stroke-width: 1.0;"/><polygon fill="none" points="1341.75,804.03,1348.75,784.03,1355.75,804.03,1341.75,804.03" style="stroke: #A80036; stroke-width: 1.0;"/><!--MD5=[b9dc5ca9d326f6b2e35f4ef44c514701]
reverse link AllSTDPSynapses to AllDynamicsSTDPSynapses--><path d="M1250.33,896.03 C1250.33,896.03 1250.33,935.85 1250.33,935.85 " fill="none" id="AllSTDPSynapses&lt;-AllDynamicsSTDPSynapses" style="stroke: #A80036; stroke-width: 1.0;"/><polygon fill="none" points="1243.33,896.03,1250.33,876.03,1257.33,896.03,1243.33,896.03" style="stroke: #A80036; stroke-width: 1.0;"/><!--MD5=[4407787554ed777fb67af52573db306c]
reverse link AllSTDPSynapses to EdgesFactory--><path d="M1296.17,881.09 C1296.17,881.09 1296.17,906 1296.17,906 C1296.17,906 1410.5,906 1410.5,906 C1410.5,906 1410.5,991.5 1410.5,1027.9 " fill="none" id="AllSTDPSynapses&lt;-EdgesFactory" style="stroke: #A80036; stroke-width: 1.0;"/><polygon fill="#A80036" points="1296.17,876.09,1292.17,885.09,1296.17,881.09,1300.17,885.09,1296.17,876.09" style="stroke: #A80036; stroke-width: 1.0;"/><!--MD5=[541346a73ae12603d046e53bdf8cd025]
reverse link AllDSSynapses to EdgesFactory--><path d="M1419.5,881.01 C1419.5,881.01 1419.5,1027.9 1419.5,1027.9 " fill="none" id="AllDSSynapses&lt;-EdgesFactory" style="stroke: #A80036; stroke-width: 1.0;"/><polygon fill="#A80036" points="1419.5,876.01,1415.5,885.01,1419.5,881.01,1423.5,885.01,1419.5,876.01" style="stroke: #A80036; stroke-width: 1.0;"/><!--MD5=[1104c1ad87384c985d15bad9d62e0bea]
reverse link AllDynamicsSTDPSynapses to EdgesFactory--><path d="M1356.5,973.03 C1356.5,973.03 1356.5,1027.85 1356.5,1027.85 " fill="none" id="AllDynamicsSTDPSynapses&lt;-EdgesFactory" style="stroke: #A80036; stroke-width: 1.0;"/><polygon fill="#A80036" points="1356.5,968.03,1352.5,977.03,1356.5,973.03,1360.5,977.03,1356.5,968.03" style="stroke: #A80036; stroke-width: 1.0;"/><!--MD5=[d95cba7a564e0eb2f945d9455f1e08a4]
link Core to Layouts--><!--MD5=[3a074d6a93e7e88a957dba9b80e50081]
link Layouts to Vertices--><!--MD5=[42be6bbbc523329e8d13badc94475598]
link Core to Recorders--><!--MD5=[9f00652237e409965a409b02122331f2]
link Layouts to Connections--><!--MD5=[e07bd046f8fc72b6c553dc19b1427184]
link Vertices to Edges--><!--MD5=[2c61cf99b0bec386ca840c193763b14a]
link Simulator to LayoutsFactory--><path d="M711.67,83 C738.07,83 766.12,83 766.12,83 C766.12,83 766.12,275 766.12,275 C766.12,275 883.81,275 883.81,275 " fill="none" id="Simulator-&gt;LayoutsFactory" style="stroke: #FF0000; stroke-width: 1.0;"/><polygon fill="#FF0000" points="888.81,275,879.81,271,883.81,275,879.81,279,888.81,275" style="stroke: #FF0000; stroke-width: 1.0;"/><!--MD5=[54271b6078ede2b7f4d9940e12d64874]
link Simulator to ConnectionsFactory--><path d="M711.93,91 C730.77,91 748.25,91 748.25,91 C748.25,91 748.25,676 748.25,676 C748.25,676 778.93,676 778.93,676 " fill="none" id="Simulator-&gt;ConnectionsFactory" style="stroke: #FF0000; stroke-width: 1.0;"/><polygon fill="#FF0000" points="783.93,676,774.93,672,778.93,676,774.93,680,783.93,676" style="stroke: #FF0000; stroke-width: 1.0;"/><!--MD5=[a911b337811af7fd7ce810fac5ac8c54]
reverse link Model to Layout--><path d="M551,64.17 C551,64.17 551,63 551,63 C551,63 1102,63 1102,63 C1102,63 1102,68.55 1102,74.71 " fill="none" id="Model&lt;-Layout" style="stroke: #FF0000; stroke-width: 1.0;"/><polygon fill="#FFFFFF" points="551,74.71,555,68.71,551,62.71,547,68.71,551,74.71" style="stroke: #FF0000; stroke-width: 1.0;"/><!--MD5=[0e5738770afdb953f3cb9465cb228f84]
reverse link Model to Connections--><path d="M532,120.14 C532,120.14 532,337 532,337 C532,337 966.25,337 966.25,337 C966.25,337 966.25,363.9 966.25,381.97 " fill="none" id="Model&lt;-Connections" style="stroke: #FF0000; stroke-width: 1.0;"/><polygon fill="#FFFFFF" points="532,107.14,528,113.14,532,119.14,536,113.14,532,107.14" style="stroke: #FF0000; stroke-width: 1.0;"/><!--MD5=[efb7ef13657b6fc949565044919673f3]
reverse link Layout to AllVertices--><path d="M1152.83,97 C1152.83,97 1433.98,97 1433.98,97 " fill="none" id="Layout&lt;-AllVertices" style="stroke: #FF0000; stroke-width: 1.0;"/><polygon fill="#FFFFFF" points="1139.83,97,1145.83,101,1151.83,97,1145.83,93,1139.83,97" style="stroke: #FF0000; stroke-width: 1.0;"/><!--MD5=[30ebdb8fe104fc5727699212f68639a3]
link Layout to VerticesFactory--><path d="M1139.75,102 C1153.73,102 1166.25,102 1166.25,102 C1166.25,102 1166.25,537 1166.25,537 C1166.25,537 1412.34,537 1412.34,537 " fill="none" id="Layout-&gt;VerticesFactory" style="stroke: #FF0000; stroke-width: 1.0;"/><polygon fill="#FF0000" points="1417.34,537,1408.34,533,1412.34,537,1408.34,541,1417.34,537" style="stroke: #FF0000; stroke-width: 1.0;"/><!--MD5=[c1506f01115880aaa731ab3eaa932dd8]
reverse link Connections to IRecorder--><path d="M920.67,427.24 C920.67,427.24 920.67,468 920.67,468 C920.67,468 439.5,468 439.5,468 C439.5,468 439.5,500.61 439.5,521 " fill="none" id="Connections&lt;-IRecorder" style="stroke: #FF0000; stroke-width: 1.0;"/><polygon fill="#FFFFFF" points="920.67,414.24,916.67,420.24,920.67,426.24,924.67,420.24,920.67,414.24" style="stroke: #FF0000; stroke-width: 1.0;"/><!--MD5=[25007e0d6d2bc2691ed586569b6b25e2]
reverse link Connections to AllEdges--><path d="M1039.73,398 C1039.73,398 1263,398 1263,398 C1263,398 1263,600.52 1263,659.85 " fill="none" id="Connections&lt;-AllEdges" style="stroke: #FF0000; stroke-width: 1.0;"/><polygon fill="#FFFFFF" points="1026.73,398,1032.73,402,1038.73,398,1032.73,394,1026.73,398" style="stroke: #FF0000; stroke-width: 1.0;"/><!--MD5=[da0f83d06ff47bb168b7cef8eff40793]
reverse link Connections to RecordersFactory--><path d="M912.47,398 C912.47,398 730.38,398 730.38,398 C730.38,398 730.38,860 730.38,860 C730.38,860 485.32,860 360.41,860 " fill="none" id="Connections&lt;-RecordersFactory" style="stroke: #FF0000; stroke-width: 1.0;"/><polygon fill="#FF0000" points="917.47,398,908.47,394,912.47,398,908.47,402,917.47,398" style="stroke: #FF0000; stroke-width: 1.0;"/><!--MD5=[9163dfda51af3a292478a4de1670a816]
reverse link Connections to EdgesFactory--><path d="M1031.6,406 C1031.6,406 1084.5,406 1084.5,406 C1084.5,406 1084.5,1044 1084.5,1044 C1084.5,1044 1227.61,1044 1311.19,1044 " fill="none" id="Connections&lt;-EdgesFactory" style="stroke: #FF0000; stroke-width: 1.0;"/><polygon fill="#FF0000" points="1026.6,406,1035.6,410,1031.6,406,1035.6,402,1026.6,406" style="stroke: #FF0000; stroke-width: 1.0;"/><!--MD5=[083220efd709d2dcbf4ee6c86d4eff36]
@startuml package UML

skinparam linetype ortho
hide members

package Core{
   class Simulator
   class CPUSpikingModel implements Model
	class GPUSpilingModel implements Model
	class Operations
	class OperationManager
	class ParameterManager

	Model -left-o Simulator 
	Operations -right-o OperationManager   
	Simulator - - -> OperationManager 

	CPUSpikingModel-[hidden]right>GPUSpilingModel
	CPUSpikingModel-[hidden]->Operations
   OperationManager -[hidden]->ParameterManager
}

package Layouts{
	class FixedLayout implements Layout
	class DynamicLayout implements Layout
	class LayoutsFactory
	FixedLayout <- - LayoutsFactory
	DynamicLayout<- - LayoutsFactory	
}

package Vertices{
	class AllSpikingNeurons implements AllVertices
	class AllIFNeurons extends AllSpikingNeurons
	class AllLiFNeurons extends AllIFNeurons
	class AllZHNeurons extends AllIFNeurons
	class VerticesFactory 
	VerticesFactory -up->AllLiFNeurons
	VerticesFactory -up->AllZHNeurons
}

package Recorders{
	class  XmLRecorder implements IRecorder
	class HDF5Recorder implements IRecorder
	class XmlGrowthRecroder extends XmLRecorder
	class Hdf5GrowthRecorder extends HDF5Recorder
	class RecordersFactory
	XmLRecorder <- - RecordersFactory
	HDF5Recorder<- - RecordersFactory
	XmlGrowthRecroder<- - RecordersFactory
	Hdf5GrowthRecorder<- - RecordersFactory
}

package Connections{
	class ConnStatic implements Connections
	class ConnGrowth Implements Connections
	class ConnectionsFactory
	ConnectionsFactory - -up> ConnStatic
	ConnectionsFactory - -up> ConnGrowth  
}

package Edges{
	class AllSpikingSynapses implements AllEdges
	class AllSTDPSynapses extends AllSpikingSynapses
	class AllDSSynapses extends AllSpikingSynapses
	class AllDynamicsSTDPSynapses extends AllSTDPSynapses
	class EdgesFactory
	EdgesFactory - -up->AllSTDPSynapses
	EdgesFactory - -up->AllDSSynapses
	EdgesFactory - -up>AllDynamicsSTDPSynapses
}

Core -[hidden]right>  Layouts
Layouts -[hidden]right> Vertices
Core -[hidden]down- - -> Recorders
Layouts -[hidden]down- - ->Connections
Vertices -[hidden]down- - - - -> Edges

Simulator -[#red]->LayoutsFactory
Simulator -[#red]- ->ConnectionsFactory
Model o-[#red] Layout
Model o-[#red]- - Connections
Layout o-[#red] AllVertices
Layout -[#red]- - -> VerticesFactory

Connections o-[#red]- IRecorder
Connections o-[#red]- AllEdges
Connections <-[#red]- - - - RecordersFactory
Connections <-[#red]- - - - EdgesFactory

@enduml

PlantUML version 1.2020.02(Sun Mar 01 10:22:07 GMT 2020)
(GPL source distribution)
Java Runtime: OpenJDK Runtime Environment
JVM: OpenJDK 64-Bit Server VM
Java Version: 11.0.9+11-Ubuntu-0ubuntu1
Operating System: Linux
Default Encoding: ANSI_X3.4-1968
Language: en
Country: US
--></g></svg>