<?xml version="1.0" encoding="UTF-8" standalone="no"?><svg xmlns="http://www.w3.org/2000/svg" xmlns:xlink="http://www.w3.org/1999/xlink" contentScriptType="application/ecmascript" contentStyleType="text/css" height="1096px" preserveAspectRatio="none" style="width:1753px;height:1096px;" version="1.1" viewBox="0 0 1753 1096" width="1753px" zoomAndPan="magnify"><defs><filter height="300%" id="fzrdpbrvbeknb" width="300%" x="-1" y="-1"><feGaussianBlur result="blurOut" stdDeviation="2.0"/><feColorMatrix in="blurOut" result="blurOut2" type="matrix" values="0 0 0 0 0 0 0 0 0 0 0 0 0 0 0 0 0 0 .4 0"/><feOffset dx="4.0" dy="4.0" in="blurOut2" result="blurOut3"/><feBlend in="SourceGraphic" in2="blurOut3" mode="normal"/></filter></defs><g><!--MD5=[2c2e2644034c00788261e03c85b06837]
cluster Core--><polygon fill="#FFFFFF" filter="url(#fzrdpbrvbeknb)" points="354,32,398,32,405,54.2969,758,54.2969,758,438,354,438,354,32" style="stroke: #000000; stroke-width: 1.5;"/><line style="stroke: #000000; stroke-width: 1.5;" x1="354" x2="405" y1="54.2969" y2="54.2969"/><text fill="#000000" font-family="sans-serif" font-size="14" font-weight="bold" lengthAdjust="spacingAndGlyphs" textLength="38" x="358" y="46.9951">Core</text><!--MD5=[bcaa2b9ff15208c4e2012dff6dfdc182]
cluster Layouts--><polygon fill="#FFFFFF" filter="url(#fzrdpbrvbeknb)" points="887,32,955,32,962,54.2969,1209,54.2969,1209,315,887,315,887,32" style="stroke: #000000; stroke-width: 1.5;"/><line style="stroke: #000000; stroke-width: 1.5;" x1="887" x2="962" y1="54.2969" y2="54.2969"/><text fill="#000000" font-family="sans-serif" font-size="14" font-weight="bold" lengthAdjust="spacingAndGlyphs" textLength="62" x="891" y="46.9951">Layouts</text><!--MD5=[8d26bb35548c3dcbc6e480db6528a15a]
cluster Vertices--><polygon fill="#FFFFFF" filter="url(#fzrdpbrvbeknb)" points="1407,32,1479,32,1486,54.2969,1731,54.2969,1731,577,1407,577,1407,32" style="stroke: #000000; stroke-width: 1.5;"/><line style="stroke: #000000; stroke-width: 1.5;" x1="1407" x2="1486" y1="54.2969" y2="54.2969"/><text fill="#000000" font-family="sans-serif" font-size="14" font-weight="bold" lengthAdjust="spacingAndGlyphs" textLength="66" x="1411" y="46.9951">Vertices</text><!--MD5=[9168128f11ea68e0eeae1bee9b5f58d3]
cluster Recorders--><polygon fill="#FFFFFF" filter="url(#fzrdpbrvbeknb)" points="30,478,118,478,125,500.2969,511,500.2969,511,900,30,900,30,478" style="stroke: #000000; stroke-width: 1.5;"/><line style="stroke: #000000; stroke-width: 1.5;" x1="30" x2="125" y1="500.2969" y2="500.2969"/><text fill="#000000" font-family="sans-serif" font-size="14" font-weight="bold" lengthAdjust="spacingAndGlyphs" textLength="82" x="34" y="492.9951">Recorders</text><!--MD5=[3a4496162e4aa4b8f639c92517849365]
cluster Connections--><polygon fill="#FFFFFF" filter="url(#fzrdpbrvbeknb)" points="790,347,895,347,902,369.2969,1065,369.2969,1065,708,790,708,790,347" style="stroke: #000000; stroke-width: 1.5;"/><line style="stroke: #000000; stroke-width: 1.5;" x1="790" x2="902" y1="369.2969" y2="369.2969"/><text fill="#000000" font-family="sans-serif" font-size="14" font-weight="bold" lengthAdjust="spacingAndGlyphs" textLength="99" x="794" y="361.9951">Connections</text><!--MD5=[a69b11994f1325ca382ee696cdd1fd0b]
cluster Edges--><polygon fill="#FFFFFF" filter="url(#fzrdpbrvbeknb)" points="1202,617,1256,617,1263,639.2969,1555,639.2969,1555,1084,1202,1084,1202,617" style="stroke: #000000; stroke-width: 1.5;"/><line style="stroke: #000000; stroke-width: 1.5;" x1="1202" x2="1263" y1="639.2969" y2="639.2969"/><text fill="#000000" font-family="sans-serif" font-size="14" font-weight="bold" lengthAdjust="spacingAndGlyphs" textLength="48" x="1206" y="631.9951">Edges</text><!--MD5=[e78d3bd29d68b8fbdb4aae8710e3db25]
class Simulator--><rect fill="#FEFECE" filter="url(#fzrdpbrvbeknb)" height="32" id="Simulator" style="stroke: #A80036; stroke-width: 1.5;" width="91" x="642.5" y="75"/><ellipse cx="657.5" cy="91" fill="#ADD1B2" rx="11" ry="11" style="stroke: #A80036; stroke-width: 1.0;"/><path d="M660.4688,96.6406 Q659.8906,96.9375 659.25,97.0781 Q658.6094,97.2344 657.9063,97.2344 Q655.4063,97.2344 654.0781,95.5938 Q652.7656,93.9375 652.7656,90.8125 Q652.7656,87.6875 654.0781,86.0313 Q655.4063,84.375 657.9063,84.375 Q658.6094,84.375 659.25,84.5313 Q659.9063,84.6875 660.4688,84.9844 L660.4688,87.7031 Q659.8438,87.125 659.25,86.8594 Q658.6563,86.5781 658.0313,86.5781 Q656.6875,86.5781 656,87.6563 Q655.3125,88.7188 655.3125,90.8125 Q655.3125,92.9063 656,93.9844 Q656.6875,95.0469 658.0313,95.0469 Q658.6563,95.0469 659.25,94.7813 Q659.8438,94.5 660.4688,93.9219 L660.4688,96.6406 Z "/><text fill="#000000" font-family="sans-serif" font-size="12" lengthAdjust="spacingAndGlyphs" textLength="59" x="671.5" y="95.1543">Simulator</text><!--MD5=[0b94f3229ccc3f95d40f9de2aafb3991]
class CPUSpikingModel--><rect fill="#FEFECE" filter="url(#fzrdpbrvbeknb)" height="32" id="CPUSpikingModel" style="stroke: #A80036; stroke-width: 1.5;" width="139" x="386.5" y="167"/><ellipse cx="401.5" cy="183" fill="#ADD1B2" rx="11" ry="11" style="stroke: #A80036; stroke-width: 1.0;"/><path d="M404.4688,188.6406 Q403.8906,188.9375 403.25,189.0781 Q402.6094,189.2344 401.9063,189.2344 Q399.4063,189.2344 398.0781,187.5938 Q396.7656,185.9375 396.7656,182.8125 Q396.7656,179.6875 398.0781,178.0313 Q399.4063,176.375 401.9063,176.375 Q402.6094,176.375 403.25,176.5313 Q403.9063,176.6875 404.4688,176.9844 L404.4688,179.7031 Q403.8438,179.125 403.25,178.8594 Q402.6563,178.5781 402.0313,178.5781 Q400.6875,178.5781 400,179.6563 Q399.3125,180.7188 399.3125,182.8125 Q399.3125,184.9063 400,185.9844 Q400.6875,187.0469 402.0313,187.0469 Q402.6563,187.0469 403.25,186.7813 Q403.8438,186.5 404.4688,185.9219 L404.4688,188.6406 Z "/><text fill="#000000" font-family="sans-serif" font-size="12" lengthAdjust="spacingAndGlyphs" textLength="107" x="415.5" y="187.1543">CPUSpikingModel</text><!--MD5=[7e20e022571e30ec1001cf6eabd7f3e2]
class Model--><rect fill="#FEFECE" filter="url(#fzrdpbrvbeknb)" height="32" id="Model" style="stroke: #A80036; stroke-width: 1.5;" width="69" x="538.5" y="75"/><ellipse cx="553.5" cy="91" fill="#B4A7E5" rx="11" ry="11" style="stroke: #A80036; stroke-width: 1.0;"/><path d="M549.4219,86.7656 L549.4219,84.6094 L556.8125,84.6094 L556.8125,86.7656 L554.3438,86.7656 L554.3438,94.8438 L556.8125,94.8438 L556.8125,97 L549.4219,97 L549.4219,94.8438 L551.8906,94.8438 L551.8906,86.7656 L549.4219,86.7656 Z "/><text fill="#000000" font-family="sans-serif" font-size="12" font-style="italic" lengthAdjust="spacingAndGlyphs" textLength="37" x="567.5" y="95.1543">Model</text><!--MD5=[18485410d7357990dcee82f93ac6aaa8]
class GPUSpilingModel--><rect fill="#FEFECE" filter="url(#fzrdpbrvbeknb)" height="32" id="GPUSpilingModel" style="stroke: #A80036; stroke-width: 1.5;" width="136" x="561" y="167"/><ellipse cx="576" cy="183" fill="#ADD1B2" rx="11" ry="11" style="stroke: #A80036; stroke-width: 1.0;"/><path d="M578.9688,188.6406 Q578.3906,188.9375 577.75,189.0781 Q577.1094,189.2344 576.4063,189.2344 Q573.9063,189.2344 572.5781,187.5938 Q571.2656,185.9375 571.2656,182.8125 Q571.2656,179.6875 572.5781,178.0313 Q573.9063,176.375 576.4063,176.375 Q577.1094,176.375 577.75,176.5313 Q578.4063,176.6875 578.9688,176.9844 L578.9688,179.7031 Q578.3438,179.125 577.75,178.8594 Q577.1563,178.5781 576.5313,178.5781 Q575.1875,178.5781 574.5,179.6563 Q573.8125,180.7188 573.8125,182.8125 Q573.8125,184.9063 574.5,185.9844 Q575.1875,187.0469 576.5313,187.0469 Q577.1563,187.0469 577.75,186.7813 Q578.3438,186.5 578.9688,185.9219 L578.9688,188.6406 Z "/><text fill="#000000" font-family="sans-serif" font-size="12" lengthAdjust="spacingAndGlyphs" textLength="104" x="590" y="187.1543">GPUSpilingModel</text><!--MD5=[fdf81c1c7218c7a86b85d500a2db5e87]
class Operations--><rect fill="#FEFECE" filter="url(#fzrdpbrvbeknb)" height="32" id="Operations" style="stroke: #A80036; stroke-width: 1.5;" width="101" x="415.5" y="259"/><ellipse cx="430.5" cy="275" fill="#ADD1B2" rx="11" ry="11" style="stroke: #A80036; stroke-width: 1.0;"/><path d="M433.4688,280.6406 Q432.8906,280.9375 432.25,281.0781 Q431.6094,281.2344 430.9063,281.2344 Q428.4063,281.2344 427.0781,279.5938 Q425.7656,277.9375 425.7656,274.8125 Q425.7656,271.6875 427.0781,270.0313 Q428.4063,268.375 430.9063,268.375 Q431.6094,268.375 432.25,268.5313 Q432.9063,268.6875 433.4688,268.9844 L433.4688,271.7031 Q432.8438,271.125 432.25,270.8594 Q431.6563,270.5781 431.0313,270.5781 Q429.6875,270.5781 429,271.6563 Q428.3125,272.7188 428.3125,274.8125 Q428.3125,276.9063 429,277.9844 Q429.6875,279.0469 431.0313,279.0469 Q431.6563,279.0469 432.25,278.7813 Q432.8438,278.5 433.4688,277.9219 L433.4688,280.6406 Z "/><text fill="#000000" font-family="sans-serif" font-size="12" lengthAdjust="spacingAndGlyphs" textLength="69" x="444.5" y="279.1543">Operations</text><!--MD5=[314e3b7c2db0a5a356d5ece57f37d58b]
class OperationManager--><rect fill="#FEFECE" filter="url(#fzrdpbrvbeknb)" height="32" id="OperationManager" style="stroke: #A80036; stroke-width: 1.5;" width="149" x="571.5" y="259"/><ellipse cx="586.5" cy="275" fill="#ADD1B2" rx="11" ry="11" style="stroke: #A80036; stroke-width: 1.0;"/><path d="M589.4688,280.6406 Q588.8906,280.9375 588.25,281.0781 Q587.6094,281.2344 586.9063,281.2344 Q584.4063,281.2344 583.0781,279.5938 Q581.7656,277.9375 581.7656,274.8125 Q581.7656,271.6875 583.0781,270.0313 Q584.4063,268.375 586.9063,268.375 Q587.6094,268.375 588.25,268.5313 Q588.9063,268.6875 589.4688,268.9844 L589.4688,271.7031 Q588.8438,271.125 588.25,270.8594 Q587.6563,270.5781 587.0313,270.5781 Q585.6875,270.5781 585,271.6563 Q584.3125,272.7188 584.3125,274.8125 Q584.3125,276.9063 585,277.9844 Q585.6875,279.0469 587.0313,279.0469 Q587.6563,279.0469 588.25,278.7813 Q588.8438,278.5 589.4688,277.9219 L589.4688,280.6406 Z "/><text fill="#000000" font-family="sans-serif" font-size="12" lengthAdjust="spacingAndGlyphs" textLength="117" x="600.5" y="279.1543">OperationManager</text><!--MD5=[eb1da731c4a897e81e143002ff161e69]
class ParameterManager--><rect fill="#FEFECE" filter="url(#fzrdpbrvbeknb)" height="32" id="ParameterManager" style="stroke: #A80036; stroke-width: 1.5;" width="153" x="569.5" y="382"/><ellipse cx="584.5" cy="398" fill="#ADD1B2" rx="11" ry="11" style="stroke: #A80036; stroke-width: 1.0;"/><path d="M587.4688,403.6406 Q586.8906,403.9375 586.25,404.0781 Q585.6094,404.2344 584.9063,404.2344 Q582.4063,404.2344 581.0781,402.5938 Q579.7656,400.9375 579.7656,397.8125 Q579.7656,394.6875 581.0781,393.0313 Q582.4063,391.375 584.9063,391.375 Q585.6094,391.375 586.25,391.5313 Q586.9063,391.6875 587.4688,391.9844 L587.4688,394.7031 Q586.8438,394.125 586.25,393.8594 Q585.6563,393.5781 585.0313,393.5781 Q583.6875,393.5781 583,394.6563 Q582.3125,395.7188 582.3125,397.8125 Q582.3125,399.9063 583,400.9844 Q583.6875,402.0469 585.0313,402.0469 Q585.6563,402.0469 586.25,401.7813 Q586.8438,401.5 587.4688,400.9219 L587.4688,403.6406 Z "/><text fill="#000000" font-family="sans-serif" font-size="12" lengthAdjust="spacingAndGlyphs" textLength="121" x="598.5" y="402.1543">ParameterManager</text><!--MD5=[c01d281453c5d4cdc24a7f27a30cb7c5]
class FixedLayout--><rect fill="#FEFECE" filter="url(#fzrdpbrvbeknb)" height="32" id="FixedLayout" style="stroke: #A80036; stroke-width: 1.5;" width="105" x="1071.5" y="167"/><ellipse cx="1086.5" cy="183" fill="#ADD1B2" rx="11" ry="11" style="stroke: #A80036; stroke-width: 1.0;"/><path d="M1089.4688,188.6406 Q1088.8906,188.9375 1088.25,189.0781 Q1087.6094,189.2344 1086.9063,189.2344 Q1084.4063,189.2344 1083.0781,187.5938 Q1081.7656,185.9375 1081.7656,182.8125 Q1081.7656,179.6875 1083.0781,178.0313 Q1084.4063,176.375 1086.9063,176.375 Q1087.6094,176.375 1088.25,176.5313 Q1088.9063,176.6875 1089.4688,176.9844 L1089.4688,179.7031 Q1088.8438,179.125 1088.25,178.8594 Q1087.6563,178.5781 1087.0313,178.5781 Q1085.6875,178.5781 1085,179.6563 Q1084.3125,180.7188 1084.3125,182.8125 Q1084.3125,184.9063 1085,185.9844 Q1085.6875,187.0469 1087.0313,187.0469 Q1087.6563,187.0469 1088.25,186.7813 Q1088.8438,186.5 1089.4688,185.9219 L1089.4688,188.6406 Z "/><text fill="#000000" font-family="sans-serif" font-size="12" lengthAdjust="spacingAndGlyphs" textLength="73" x="1100.5" y="187.1543">FixedLayout</text><!--MD5=[caebf2ddd0fe15aa1cd7c0f919e7d6a1]
class Layout--><rect fill="#FEFECE" filter="url(#fzrdpbrvbeknb)" height="32" id="Layout" style="stroke: #A80036; stroke-width: 1.5;" width="75" x="1086.5" y="75"/><ellipse cx="1101.5" cy="91" fill="#B4A7E5" rx="11" ry="11" style="stroke: #A80036; stroke-width: 1.0;"/><path d="M1097.4219,86.7656 L1097.4219,84.6094 L1104.8125,84.6094 L1104.8125,86.7656 L1102.3438,86.7656 L1102.3438,94.8438 L1104.8125,94.8438 L1104.8125,97 L1097.4219,97 L1097.4219,94.8438 L1099.8906,94.8438 L1099.8906,86.7656 L1097.4219,86.7656 Z "/><text fill="#000000" font-family="sans-serif" font-size="12" font-style="italic" lengthAdjust="spacingAndGlyphs" textLength="43" x="1115.5" y="95.1543">Layout</text><!--MD5=[12f7f85e6a82a668bac37f73aa8a25f9]
class DynamicLayout--><rect fill="#FEFECE" filter="url(#fzrdpbrvbeknb)" height="32" id="DynamicLayout" style="stroke: #A80036; stroke-width: 1.5;" width="125" x="911.5" y="167"/><ellipse cx="926.5" cy="183" fill="#ADD1B2" rx="11" ry="11" style="stroke: #A80036; stroke-width: 1.0;"/><path d="M929.4688,188.6406 Q928.8906,188.9375 928.25,189.0781 Q927.6094,189.2344 926.9063,189.2344 Q924.4063,189.2344 923.0781,187.5938 Q921.7656,185.9375 921.7656,182.8125 Q921.7656,179.6875 923.0781,178.0313 Q924.4063,176.375 926.9063,176.375 Q927.6094,176.375 928.25,176.5313 Q928.9063,176.6875 929.4688,176.9844 L929.4688,179.7031 Q928.8438,179.125 928.25,178.8594 Q927.6563,178.5781 927.0313,178.5781 Q925.6875,178.5781 925,179.6563 Q924.3125,180.7188 924.3125,182.8125 Q924.3125,184.9063 925,185.9844 Q925.6875,187.0469 927.0313,187.0469 Q927.6563,187.0469 928.25,186.7813 Q928.8438,186.5 929.4688,185.9219 L929.4688,188.6406 Z "/><text fill="#000000" font-family="sans-serif" font-size="12" lengthAdjust="spacingAndGlyphs" textLength="93" x="940.5" y="187.1543">DynamicLayout</text><!--MD5=[ceff05214af216b423c504875c83215d]
class LayoutsFactory--><rect fill="#FEFECE" filter="url(#fzrdpbrvbeknb)" height="32" id="LayoutsFactory" style="stroke: #A80036; stroke-width: 1.5;" width="126" x="911" y="259"/><ellipse cx="926" cy="275" fill="#ADD1B2" rx="11" ry="11" style="stroke: #A80036; stroke-width: 1.0;"/><path d="M928.9688,280.6406 Q928.3906,280.9375 927.75,281.0781 Q927.1094,281.2344 926.4063,281.2344 Q923.9063,281.2344 922.5781,279.5938 Q921.2656,277.9375 921.2656,274.8125 Q921.2656,271.6875 922.5781,270.0313 Q923.9063,268.375 926.4063,268.375 Q927.1094,268.375 927.75,268.5313 Q928.4063,268.6875 928.9688,268.9844 L928.9688,271.7031 Q928.3438,271.125 927.75,270.8594 Q927.1563,270.5781 926.5313,270.5781 Q925.1875,270.5781 924.5,271.6563 Q923.8125,272.7188 923.8125,274.8125 Q923.8125,276.9063 924.5,277.9844 Q925.1875,279.0469 926.5313,279.0469 Q927.1563,279.0469 927.75,278.7813 Q928.3438,278.5 928.9688,277.9219 L928.9688,280.6406 Z "/><text fill="#000000" font-family="sans-serif" font-size="12" lengthAdjust="spacingAndGlyphs" textLength="94" x="940" y="279.1543">LayoutsFactory</text><!--MD5=[00675e18512933602d55f5e0e2b1ab32]
class AllSpikingNeurons--><rect fill="#FEFECE" filter="url(#fzrdpbrvbeknb)" height="32" id="AllSpikingNeurons" style="stroke: #A80036; stroke-width: 1.5;" width="144" x="1439" y="167"/><ellipse cx="1454" cy="183" fill="#ADD1B2" rx="11" ry="11" style="stroke: #A80036; stroke-width: 1.0;"/><path d="M1456.9688,188.6406 Q1456.3906,188.9375 1455.75,189.0781 Q1455.1094,189.2344 1454.4063,189.2344 Q1451.9063,189.2344 1450.5781,187.5938 Q1449.2656,185.9375 1449.2656,182.8125 Q1449.2656,179.6875 1450.5781,178.0313 Q1451.9063,176.375 1454.4063,176.375 Q1455.1094,176.375 1455.75,176.5313 Q1456.4063,176.6875 1456.9688,176.9844 L1456.9688,179.7031 Q1456.3438,179.125 1455.75,178.8594 Q1455.1563,178.5781 1454.5313,178.5781 Q1453.1875,178.5781 1452.5,179.6563 Q1451.8125,180.7188 1451.8125,182.8125 Q1451.8125,184.9063 1452.5,185.9844 Q1453.1875,187.0469 1454.5313,187.0469 Q1455.1563,187.0469 1455.75,186.7813 Q1456.3438,186.5 1456.9688,185.9219 L1456.9688,188.6406 Z "/><text fill="#000000" font-family="sans-serif" font-size="12" lengthAdjust="spacingAndGlyphs" textLength="112" x="1468" y="187.1543">AllSpikingNeurons</text><!--MD5=[34dee175ca2f1207a5c8be9520f72c2f]
class AllVertices--><rect fill="#FEFECE" filter="url(#fzrdpbrvbeknb)" height="32" id="AllVertices" style="stroke: #A80036; stroke-width: 1.5;" width="96" x="1456" y="75"/><ellipse cx="1471" cy="91" fill="#B4A7E5" rx="11" ry="11" style="stroke: #A80036; stroke-width: 1.0;"/><path d="M1466.9219,86.7656 L1466.9219,84.6094 L1474.3125,84.6094 L1474.3125,86.7656 L1471.8438,86.7656 L1471.8438,94.8438 L1474.3125,94.8438 L1474.3125,97 L1466.9219,97 L1466.9219,94.8438 L1469.3906,94.8438 L1469.3906,86.7656 L1466.9219,86.7656 Z "/><text fill="#000000" font-family="sans-serif" font-size="12" font-style="italic" lengthAdjust="spacingAndGlyphs" textLength="64" x="1485" y="95.1543">AllVertices</text><!--MD5=[cf80cca85261d84eda43dbc026d5d8d1]
class AllIFNeurons--><rect fill="#FEFECE" filter="url(#fzrdpbrvbeknb)" height="32" id="AllIFNeurons" style="stroke: #A80036; stroke-width: 1.5;" width="109" x="1456.5" y="259"/><ellipse cx="1471.5" cy="275" fill="#ADD1B2" rx="11" ry="11" style="stroke: #A80036; stroke-width: 1.0;"/><path d="M1474.4688,280.6406 Q1473.8906,280.9375 1473.25,281.0781 Q1472.6094,281.2344 1471.9063,281.2344 Q1469.4063,281.2344 1468.0781,279.5938 Q1466.7656,277.9375 1466.7656,274.8125 Q1466.7656,271.6875 1468.0781,270.0313 Q1469.4063,268.375 1471.9063,268.375 Q1472.6094,268.375 1473.25,268.5313 Q1473.9063,268.6875 1474.4688,268.9844 L1474.4688,271.7031 Q1473.8438,271.125 1473.25,270.8594 Q1472.6563,270.5781 1472.0313,270.5781 Q1470.6875,270.5781 1470,271.6563 Q1469.3125,272.7188 1469.3125,274.8125 Q1469.3125,276.9063 1470,277.9844 Q1470.6875,279.0469 1472.0313,279.0469 Q1472.6563,279.0469 1473.25,278.7813 Q1473.8438,278.5 1474.4688,277.9219 L1474.4688,280.6406 Z "/><text fill="#000000" font-family="sans-serif" font-size="12" lengthAdjust="spacingAndGlyphs" textLength="77" x="1485.5" y="279.1543">AllIFNeurons</text><!--MD5=[260384eea3996f96db9f0f616389f648]
class AllLiFNeurons--><rect fill="#FEFECE" filter="url(#fzrdpbrvbeknb)" height="32" id="AllLiFNeurons" style="stroke: #A80036; stroke-width: 1.5;" width="115" x="1591.5" y="382"/><ellipse cx="1606.5" cy="398" fill="#ADD1B2" rx="11" ry="11" style="stroke: #A80036; stroke-width: 1.0;"/><path d="M1609.4688,403.6406 Q1608.8906,403.9375 1608.25,404.0781 Q1607.6094,404.2344 1606.9063,404.2344 Q1604.4063,404.2344 1603.0781,402.5938 Q1601.7656,400.9375 1601.7656,397.8125 Q1601.7656,394.6875 1603.0781,393.0313 Q1604.4063,391.375 1606.9063,391.375 Q1607.6094,391.375 1608.25,391.5313 Q1608.9063,391.6875 1609.4688,391.9844 L1609.4688,394.7031 Q1608.8438,394.125 1608.25,393.8594 Q1607.6563,393.5781 1607.0313,393.5781 Q1605.6875,393.5781 1605,394.6563 Q1604.3125,395.7188 1604.3125,397.8125 Q1604.3125,399.9063 1605,400.9844 Q1605.6875,402.0469 1607.0313,402.0469 Q1607.6563,402.0469 1608.25,401.7813 Q1608.8438,401.5 1609.4688,400.9219 L1609.4688,403.6406 Z "/><text fill="#000000" font-family="sans-serif" font-size="12" lengthAdjust="spacingAndGlyphs" textLength="83" x="1620.5" y="402.1543">AllLiFNeurons</text><!--MD5=[71b076a97ded1832bf674b3762bc7b75]
class AllZHNeurons--><rect fill="#FEFECE" filter="url(#fzrdpbrvbeknb)" height="32" id="AllZHNeurons" style="stroke: #A80036; stroke-width: 1.5;" width="117" x="1439.5" y="382"/><ellipse cx="1454.5" cy="398" fill="#ADD1B2" rx="11" ry="11" style="stroke: #A80036; stroke-width: 1.0;"/><path d="M1457.4688,403.6406 Q1456.8906,403.9375 1456.25,404.0781 Q1455.6094,404.2344 1454.9063,404.2344 Q1452.4063,404.2344 1451.0781,402.5938 Q1449.7656,400.9375 1449.7656,397.8125 Q1449.7656,394.6875 1451.0781,393.0313 Q1452.4063,391.375 1454.9063,391.375 Q1455.6094,391.375 1456.25,391.5313 Q1456.9063,391.6875 1457.4688,391.9844 L1457.4688,394.7031 Q1456.8438,394.125 1456.25,393.8594 Q1455.6563,393.5781 1455.0313,393.5781 Q1453.6875,393.5781 1453,394.6563 Q1452.3125,395.7188 1452.3125,397.8125 Q1452.3125,399.9063 1453,400.9844 Q1453.6875,402.0469 1455.0313,402.0469 Q1455.6563,402.0469 1456.25,401.7813 Q1456.8438,401.5 1457.4688,400.9219 L1457.4688,403.6406 Z "/><text fill="#000000" font-family="sans-serif" font-size="12" lengthAdjust="spacingAndGlyphs" textLength="85" x="1468.5" y="402.1543">AllZHNeurons</text><!--MD5=[cc1c410fe2850b6da0ea695abfcea755]
class VerticesFactory--><rect fill="#FEFECE" filter="url(#fzrdpbrvbeknb)" height="32" id="VerticesFactory" style="stroke: #A80036; stroke-width: 1.5;" width="129" x="1439.5" y="521"/><ellipse cx="1454.5" cy="537" fill="#ADD1B2" rx="11" ry="11" style="stroke: #A80036; stroke-width: 1.0;"/><path d="M1457.4688,542.6406 Q1456.8906,542.9375 1456.25,543.0781 Q1455.6094,543.2344 1454.9063,543.2344 Q1452.4063,543.2344 1451.0781,541.5938 Q1449.7656,539.9375 1449.7656,536.8125 Q1449.7656,533.6875 1451.0781,532.0313 Q1452.4063,530.375 1454.9063,530.375 Q1455.6094,530.375 1456.25,530.5313 Q1456.9063,530.6875 1457.4688,530.9844 L1457.4688,533.7031 Q1456.8438,533.125 1456.25,532.8594 Q1455.6563,532.5781 1455.0313,532.5781 Q1453.6875,532.5781 1453,533.6563 Q1452.3125,534.7188 1452.3125,536.8125 Q1452.3125,538.9063 1453,539.9844 Q1453.6875,541.0469 1455.0313,541.0469 Q1455.6563,541.0469 1456.25,540.7813 Q1456.8438,540.5 1457.4688,539.9219 L1457.4688,542.6406 Z "/><text fill="#000000" font-family="sans-serif" font-size="12" lengthAdjust="spacingAndGlyphs" textLength="97" x="1468.5" y="541.1543">VerticesFactory</text><!--MD5=[9af66c322c1a3c2f0b44834865e098f3]
class XmLRecorder--><rect fill="#FEFECE" filter="url(#fzrdpbrvbeknb)" height="32" id="XmLRecorder" style="stroke: #A80036; stroke-width: 1.5;" width="113" x="195.5" y="660"/><ellipse cx="210.5" cy="676" fill="#ADD1B2" rx="11" ry="11" style="stroke: #A80036; stroke-width: 1.0;"/><path d="M213.4688,681.6406 Q212.8906,681.9375 212.25,682.0781 Q211.6094,682.2344 210.9063,682.2344 Q208.4063,682.2344 207.0781,680.5938 Q205.7656,678.9375 205.7656,675.8125 Q205.7656,672.6875 207.0781,671.0313 Q208.4063,669.375 210.9063,669.375 Q211.6094,669.375 212.25,669.5313 Q212.9063,669.6875 213.4688,669.9844 L213.4688,672.7031 Q212.8438,672.125 212.25,671.8594 Q211.6563,671.5781 211.0313,671.5781 Q209.6875,671.5781 209,672.6563 Q208.3125,673.7188 208.3125,675.8125 Q208.3125,677.9063 209,678.9844 Q209.6875,680.0469 211.0313,680.0469 Q211.6563,680.0469 212.25,679.7813 Q212.8438,679.5 213.4688,678.9219 L213.4688,681.6406 Z "/><text fill="#000000" font-family="sans-serif" font-size="12" lengthAdjust="spacingAndGlyphs" textLength="81" x="224.5" y="680.1543">XmLRecorder</text><!--MD5=[a2efe13f97b9395dfb70e2255bd52698]
class IRecorder--><rect fill="#FEFECE" filter="url(#fzrdpbrvbeknb)" height="32" id="IRecorder" style="stroke: #A80036; stroke-width: 1.5;" width="93" x="368.5" y="521"/><ellipse cx="383.5" cy="537" fill="#B4A7E5" rx="11" ry="11" style="stroke: #A80036; stroke-width: 1.0;"/><path d="M379.4219,532.7656 L379.4219,530.6094 L386.8125,530.6094 L386.8125,532.7656 L384.3438,532.7656 L384.3438,540.8438 L386.8125,540.8438 L386.8125,543 L379.4219,543 L379.4219,540.8438 L381.8906,540.8438 L381.8906,532.7656 L379.4219,532.7656 Z "/><text fill="#000000" font-family="sans-serif" font-size="12" font-style="italic" lengthAdjust="spacingAndGlyphs" textLength="61" x="397.5" y="541.1543">IRecorder</text><!--MD5=[68c26e8dbee30e67a392826e30173ce1]
class HDF5Recorder--><rect fill="#FEFECE" filter="url(#fzrdpbrvbeknb)" height="32" id="HDF5Recorder" style="stroke: #A80036; stroke-width: 1.5;" width="122" x="354" y="660"/><ellipse cx="369" cy="676" fill="#ADD1B2" rx="11" ry="11" style="stroke: #A80036; stroke-width: 1.0;"/><path d="M371.9688,681.6406 Q371.3906,681.9375 370.75,682.0781 Q370.1094,682.2344 369.4063,682.2344 Q366.9063,682.2344 365.5781,680.5938 Q364.2656,678.9375 364.2656,675.8125 Q364.2656,672.6875 365.5781,671.0313 Q366.9063,669.375 369.4063,669.375 Q370.1094,669.375 370.75,669.5313 Q371.4063,669.6875 371.9688,669.9844 L371.9688,672.7031 Q371.3438,672.125 370.75,671.8594 Q370.1563,671.5781 369.5313,671.5781 Q368.1875,671.5781 367.5,672.6563 Q366.8125,673.7188 366.8125,675.8125 Q366.8125,677.9063 367.5,678.9844 Q368.1875,680.0469 369.5313,680.0469 Q370.1563,680.0469 370.75,679.7813 Q371.3438,679.5 371.9688,678.9219 L371.9688,681.6406 Z "/><text fill="#000000" font-family="sans-serif" font-size="12" lengthAdjust="spacingAndGlyphs" textLength="90" x="383" y="680.1543">HDF5Recorder</text><!--MD5=[c3e0b6f9949d2074781ec6fef8f97457]
class XmlGrowthRecroder--><rect fill="#FEFECE" filter="url(#fzrdpbrvbeknb)" height="32" id="XmlGrowthRecroder" style="stroke: #A80036; stroke-width: 1.5;" width="154" x="62" y="752"/><ellipse cx="77" cy="768" fill="#ADD1B2" rx="11" ry="11" style="stroke: #A80036; stroke-width: 1.0;"/><path d="M79.9688,773.6406 Q79.3906,773.9375 78.75,774.0781 Q78.1094,774.2344 77.4063,774.2344 Q74.9063,774.2344 73.5781,772.5938 Q72.2656,770.9375 72.2656,767.8125 Q72.2656,764.6875 73.5781,763.0313 Q74.9063,761.375 77.4063,761.375 Q78.1094,761.375 78.75,761.5313 Q79.4063,761.6875 79.9688,761.9844 L79.9688,764.7031 Q79.3438,764.125 78.75,763.8594 Q78.1563,763.5781 77.5313,763.5781 Q76.1875,763.5781 75.5,764.6563 Q74.8125,765.7188 74.8125,767.8125 Q74.8125,769.9063 75.5,770.9844 Q76.1875,772.0469 77.5313,772.0469 Q78.1563,772.0469 78.75,771.7813 Q79.3438,771.5 79.9688,770.9219 L79.9688,773.6406 Z "/><text fill="#000000" font-family="sans-serif" font-size="12" lengthAdjust="spacingAndGlyphs" textLength="122" x="91" y="772.1543">XmlGrowthRecroder</text><!--MD5=[af68557a962a5f1f7548a7e590f8fd62]
class Hdf5GrowthRecorder--><rect fill="#FEFECE" filter="url(#fzrdpbrvbeknb)" height="32" id="Hdf5GrowthRecorder" style="stroke: #A80036; stroke-width: 1.5;" width="162" x="288" y="752"/><ellipse cx="303" cy="768" fill="#ADD1B2" rx="11" ry="11" style="stroke: #A80036; stroke-width: 1.0;"/><path d="M305.9688,773.6406 Q305.3906,773.9375 304.75,774.0781 Q304.1094,774.2344 303.4063,774.2344 Q300.9063,774.2344 299.5781,772.5938 Q298.2656,770.9375 298.2656,767.8125 Q298.2656,764.6875 299.5781,763.0313 Q300.9063,761.375 303.4063,761.375 Q304.1094,761.375 304.75,761.5313 Q305.4063,761.6875 305.9688,761.9844 L305.9688,764.7031 Q305.3438,764.125 304.75,763.8594 Q304.1563,763.5781 303.5313,763.5781 Q302.1875,763.5781 301.5,764.6563 Q300.8125,765.7188 300.8125,767.8125 Q300.8125,769.9063 301.5,770.9844 Q302.1875,772.0469 303.5313,772.0469 Q304.1563,772.0469 304.75,771.7813 Q305.3438,771.5 305.9688,770.9219 L305.9688,773.6406 Z "/><text fill="#000000" font-family="sans-serif" font-size="12" lengthAdjust="spacingAndGlyphs" textLength="130" x="317" y="772.1543">Hdf5GrowthRecorder</text><!--MD5=[5309de41de0463c67105d9e754563b77]
class RecordersFactory--><rect fill="#FEFECE" filter="url(#fzrdpbrvbeknb)" height="32" id="RecordersFactory" style="stroke: #A80036; stroke-width: 1.5;" width="142" x="298" y="844"/><ellipse cx="313" cy="860" fill="#ADD1B2" rx="11" ry="11" style="stroke: #A80036; stroke-width: 1.0;"/><path d="M315.9688,865.6406 Q315.3906,865.9375 314.75,866.0781 Q314.1094,866.2344 313.4063,866.2344 Q310.9063,866.2344 309.5781,864.5938 Q308.2656,862.9375 308.2656,859.8125 Q308.2656,856.6875 309.5781,855.0313 Q310.9063,853.375 313.4063,853.375 Q314.1094,853.375 314.75,853.5313 Q315.4063,853.6875 315.9688,853.9844 L315.9688,856.7031 Q315.3438,856.125 314.75,855.8594 Q314.1563,855.5781 313.5313,855.5781 Q312.1875,855.5781 311.5,856.6563 Q310.8125,857.7188 310.8125,859.8125 Q310.8125,861.9063 311.5,862.9844 Q312.1875,864.0469 313.5313,864.0469 Q314.1563,864.0469 314.75,863.7813 Q315.3438,863.5 315.9688,862.9219 L315.9688,865.6406 Z "/><text fill="#000000" font-family="sans-serif" font-size="12" lengthAdjust="spacingAndGlyphs" textLength="110" x="327" y="864.1543">RecordersFactory</text><!--MD5=[b671e9144a70d5380b4364952f259167]
class ConnStatic--><rect fill="#FEFECE" filter="url(#fzrdpbrvbeknb)" height="32" id="ConnStatic" style="stroke: #A80036; stroke-width: 1.5;" width="100" x="949" y="521"/><ellipse cx="964" cy="537" fill="#ADD1B2" rx="11" ry="11" style="stroke: #A80036; stroke-width: 1.0;"/><path d="M966.9688,542.6406 Q966.3906,542.9375 965.75,543.0781 Q965.1094,543.2344 964.4063,543.2344 Q961.9063,543.2344 960.5781,541.5938 Q959.2656,539.9375 959.2656,536.8125 Q959.2656,533.6875 960.5781,532.0313 Q961.9063,530.375 964.4063,530.375 Q965.1094,530.375 965.75,530.5313 Q966.4063,530.6875 966.9688,530.9844 L966.9688,533.7031 Q966.3438,533.125 965.75,532.8594 Q965.1563,532.5781 964.5313,532.5781 Q963.1875,532.5781 962.5,533.6563 Q961.8125,534.7188 961.8125,536.8125 Q961.8125,538.9063 962.5,539.9844 Q963.1875,541.0469 964.5313,541.0469 Q965.1563,541.0469 965.75,540.7813 Q966.3438,540.5 966.9688,539.9219 L966.9688,542.6406 Z "/><text fill="#000000" font-family="sans-serif" font-size="12" lengthAdjust="spacingAndGlyphs" textLength="68" x="978" y="541.1543">ConnStatic</text><!--MD5=[24bb951fb6b9ac52df1580923e830244]
class Connections--><rect fill="#FEFECE" filter="url(#fzrdpbrvbeknb)" height="32" id="Connections" style="stroke: #A80036; stroke-width: 1.5;" width="109" x="939.5" y="382"/><ellipse cx="954.5" cy="398" fill="#B4A7E5" rx="11" ry="11" style="stroke: #A80036; stroke-width: 1.0;"/><path d="M950.4219,393.7656 L950.4219,391.6094 L957.8125,391.6094 L957.8125,393.7656 L955.3438,393.7656 L955.3438,401.8438 L957.8125,401.8438 L957.8125,404 L950.4219,404 L950.4219,401.8438 L952.8906,401.8438 L952.8906,393.7656 L950.4219,393.7656 Z "/><text fill="#000000" font-family="sans-serif" font-size="12" font-style="italic" lengthAdjust="spacingAndGlyphs" textLength="77" x="968.5" y="402.1543">Connections</text><!--MD5=[540eab1ed52846d003b47757435df453]
class ConnGrowth--><rect fill="#FEFECE" filter="url(#fzrdpbrvbeknb)" height="32" id="ConnGrowth" style="stroke: #A80036; stroke-width: 1.5;" width="108" x="806" y="521"/><ellipse cx="821" cy="537" fill="#ADD1B2" rx="11" ry="11" style="stroke: #A80036; stroke-width: 1.0;"/><path d="M823.9688,542.6406 Q823.3906,542.9375 822.75,543.0781 Q822.1094,543.2344 821.4063,543.2344 Q818.9063,543.2344 817.5781,541.5938 Q816.2656,539.9375 816.2656,536.8125 Q816.2656,533.6875 817.5781,532.0313 Q818.9063,530.375 821.4063,530.375 Q822.1094,530.375 822.75,530.5313 Q823.4063,530.6875 823.9688,530.9844 L823.9688,533.7031 Q823.3438,533.125 822.75,532.8594 Q822.1563,532.5781 821.5313,532.5781 Q820.1875,532.5781 819.5,533.6563 Q818.8125,534.7188 818.8125,536.8125 Q818.8125,538.9063 819.5,539.9844 Q820.1875,541.0469 821.5313,541.0469 Q822.1563,541.0469 822.75,540.7813 Q823.3438,540.5 823.9688,539.9219 L823.9688,542.6406 Z "/><text fill="#000000" font-family="sans-serif" font-size="12" lengthAdjust="spacingAndGlyphs" textLength="76" x="835" y="541.1543">ConnGrowth</text><!--MD5=[07560c205a8067cf69726ad645fec973]
class ConnectionsFactory--><rect fill="#FEFECE" filter="url(#fzrdpbrvbeknb)" height="32" id="ConnectionsFactory" style="stroke: #A80036; stroke-width: 1.5;" width="156" x="806" y="660"/><ellipse cx="821" cy="676" fill="#ADD1B2" rx="11" ry="11" style="stroke: #A80036; stroke-width: 1.0;"/><path d="M823.9688,681.6406 Q823.3906,681.9375 822.75,682.0781 Q822.1094,682.2344 821.4063,682.2344 Q818.9063,682.2344 817.5781,680.5938 Q816.2656,678.9375 816.2656,675.8125 Q816.2656,672.6875 817.5781,671.0313 Q818.9063,669.375 821.4063,669.375 Q822.1094,669.375 822.75,669.5313 Q823.4063,669.6875 823.9688,669.9844 L823.9688,672.7031 Q823.3438,672.125 822.75,671.8594 Q822.1563,671.5781 821.5313,671.5781 Q820.1875,671.5781 819.5,672.6563 Q818.8125,673.7188 818.8125,675.8125 Q818.8125,677.9063 819.5,678.9844 Q820.1875,680.0469 821.5313,680.0469 Q822.1563,680.0469 822.75,679.7813 Q823.3438,679.5 823.9688,678.9219 L823.9688,681.6406 Z "/><text fill="#000000" font-family="sans-serif" font-size="12" lengthAdjust="spacingAndGlyphs" textLength="124" x="835" y="680.1543">ConnectionsFactory</text><!--MD5=[cfe37ad1a50a7dcaaf80645f5fb9fa69]
class AllSpikingSynapses--><rect fill="#FEFECE" filter="url(#fzrdpbrvbeknb)" height="32" id="AllSpikingSynapses" style="stroke: #A80036; stroke-width: 1.5;" width="151" x="1226.5" y="752"/><ellipse cx="1241.5" cy="768" fill="#ADD1B2" rx="11" ry="11" style="stroke: #A80036; stroke-width: 1.0;"/><path d="M1244.4688,773.6406 Q1243.8906,773.9375 1243.25,774.0781 Q1242.6094,774.2344 1241.9063,774.2344 Q1239.4063,774.2344 1238.0781,772.5938 Q1236.7656,770.9375 1236.7656,767.8125 Q1236.7656,764.6875 1238.0781,763.0313 Q1239.4063,761.375 1241.9063,761.375 Q1242.6094,761.375 1243.25,761.5313 Q1243.9063,761.6875 1244.4688,761.9844 L1244.4688,764.7031 Q1243.8438,764.125 1243.25,763.8594 Q1242.6563,763.5781 1242.0313,763.5781 Q1240.6875,763.5781 1240,764.6563 Q1239.3125,765.7188 1239.3125,767.8125 Q1239.3125,769.9063 1240,770.9844 Q1240.6875,772.0469 1242.0313,772.0469 Q1242.6563,772.0469 1243.25,771.7813 Q1243.8438,771.5 1244.4688,770.9219 L1244.4688,773.6406 Z "/><text fill="#000000" font-family="sans-serif" font-size="12" lengthAdjust="spacingAndGlyphs" textLength="119" x="1255.5" y="772.1543">AllSpikingSynapses</text><!--MD5=[06f12ec46b87224fd0e1c514fed4a6e4]
class AllEdges--><rect fill="#FEFECE" filter="url(#fzrdpbrvbeknb)" height="32" id="AllEdges" style="stroke: #A80036; stroke-width: 1.5;" width="84" x="1243" y="660"/><ellipse cx="1258" cy="676" fill="#B4A7E5" rx="11" ry="11" style="stroke: #A80036; stroke-width: 1.0;"/><path d="M1253.9219,671.7656 L1253.9219,669.6094 L1261.3125,669.6094 L1261.3125,671.7656 L1258.8438,671.7656 L1258.8438,679.8438 L1261.3125,679.8438 L1261.3125,682 L1253.9219,682 L1253.9219,679.8438 L1256.3906,679.8438 L1256.3906,671.7656 L1253.9219,671.7656 Z "/><text fill="#000000" font-family="sans-serif" font-size="12" font-style="italic" lengthAdjust="spacingAndGlyphs" textLength="52" x="1272" y="680.1543">AllEdges</text><!--MD5=[635988d62f36dba7a8b9baa086d12f03]
class AllSTDPSynapses--><rect fill="#FEFECE" filter="url(#fzrdpbrvbeknb)" height="32" id="AllSTDPSynapses" style="stroke: #A80036; stroke-width: 1.5;" width="138" x="1226" y="844"/><ellipse cx="1241" cy="860" fill="#ADD1B2" rx="11" ry="11" style="stroke: #A80036; stroke-width: 1.0;"/><path d="M1243.9688,865.6406 Q1243.3906,865.9375 1242.75,866.0781 Q1242.1094,866.2344 1241.4063,866.2344 Q1238.9063,866.2344 1237.5781,864.5938 Q1236.2656,862.9375 1236.2656,859.8125 Q1236.2656,856.6875 1237.5781,855.0313 Q1238.9063,853.375 1241.4063,853.375 Q1242.1094,853.375 1242.75,853.5313 Q1243.4063,853.6875 1243.9688,853.9844 L1243.9688,856.7031 Q1243.3438,856.125 1242.75,855.8594 Q1242.1563,855.5781 1241.5313,855.5781 Q1240.1875,855.5781 1239.5,856.6563 Q1238.8125,857.7188 1238.8125,859.8125 Q1238.8125,861.9063 1239.5,862.9844 Q1240.1875,864.0469 1241.5313,864.0469 Q1242.1563,864.0469 1242.75,863.7813 Q1243.3438,863.5 1243.9688,862.9219 L1243.9688,865.6406 Z "/><text fill="#000000" font-family="sans-serif" font-size="12" lengthAdjust="spacingAndGlyphs" textLength="106" x="1255" y="864.1543">AllSTDPSynapses</text><!--MD5=[935a686a552498c9fe3db149d943753f]
class AllDSSynapses--><rect fill="#FEFECE" filter="url(#fzrdpbrvbeknb)" height="32" id="AllDSSynapses" style="stroke: #A80036; stroke-width: 1.5;" width="123" x="1399.5" y="844"/><ellipse cx="1414.5" cy="860" fill="#ADD1B2" rx="11" ry="11" style="stroke: #A80036; stroke-width: 1.0;"/><path d="M1417.4688,865.6406 Q1416.8906,865.9375 1416.25,866.0781 Q1415.6094,866.2344 1414.9063,866.2344 Q1412.4063,866.2344 1411.0781,864.5938 Q1409.7656,862.9375 1409.7656,859.8125 Q1409.7656,856.6875 1411.0781,855.0313 Q1412.4063,853.375 1414.9063,853.375 Q1415.6094,853.375 1416.25,853.5313 Q1416.9063,853.6875 1417.4688,853.9844 L1417.4688,856.7031 Q1416.8438,856.125 1416.25,855.8594 Q1415.6563,855.5781 1415.0313,855.5781 Q1413.6875,855.5781 1413,856.6563 Q1412.3125,857.7188 1412.3125,859.8125 Q1412.3125,861.9063 1413,862.9844 Q1413.6875,864.0469 1415.0313,864.0469 Q1415.6563,864.0469 1416.25,863.7813 Q1416.8438,863.5 1417.4688,862.9219 L1417.4688,865.6406 Z "/><text fill="#000000" font-family="sans-serif" font-size="12" lengthAdjust="spacingAndGlyphs" textLength="91" x="1428.5" y="864.1543">AllDSSynapses</text><!--MD5=[fd6ea4ca2934104fc4a12eb686a910c8]
class AllDynamicsSTDPSynapses--><rect fill="#FEFECE" filter="url(#fzrdpbrvbeknb)" height="32" id="AllDynamicsSTDPSynapses" style="stroke: #A80036; stroke-width: 1.5;" width="197" x="1263.5" y="936"/><ellipse cx="1278.5" cy="952" fill="#ADD1B2" rx="11" ry="11" style="stroke: #A80036; stroke-width: 1.0;"/><path d="M1281.4688,957.6406 Q1280.8906,957.9375 1280.25,958.0781 Q1279.6094,958.2344 1278.9063,958.2344 Q1276.4063,958.2344 1275.0781,956.5938 Q1273.7656,954.9375 1273.7656,951.8125 Q1273.7656,948.6875 1275.0781,947.0313 Q1276.4063,945.375 1278.9063,945.375 Q1279.6094,945.375 1280.25,945.5313 Q1280.9063,945.6875 1281.4688,945.9844 L1281.4688,948.7031 Q1280.8438,948.125 1280.25,947.8594 Q1279.6563,947.5781 1279.0313,947.5781 Q1277.6875,947.5781 1277,948.6563 Q1276.3125,949.7188 1276.3125,951.8125 Q1276.3125,953.9063 1277,954.9844 Q1277.6875,956.0469 1279.0313,956.0469 Q1279.6563,956.0469 1280.25,955.7813 Q1280.8438,955.5 1281.4688,954.9219 L1281.4688,957.6406 Z "/><text fill="#000000" font-family="sans-serif" font-size="12" lengthAdjust="spacingAndGlyphs" textLength="165" x="1292.5" y="956.1543">AllDynamicsSTDPSynapses</text><!--MD5=[2137c854024e09e8076c84fb007b1c3c]
class EdgesFactory--><rect fill="#FEFECE" filter="url(#fzrdpbrvbeknb)" height="32" id="EdgesFactory" style="stroke: #A80036; stroke-width: 1.5;" width="117" x="1264.5" y="1028"/><ellipse cx="1279.5" cy="1044" fill="#ADD1B2" rx="11" ry="11" style="stroke: #A80036; stroke-width: 1.0;"/><path d="M1282.4688,1049.6406 Q1281.8906,1049.9375 1281.25,1050.0781 Q1280.6094,1050.2344 1279.9063,1050.2344 Q1277.4063,1050.2344 1276.0781,1048.5938 Q1274.7656,1046.9375 1274.7656,1043.8125 Q1274.7656,1040.6875 1276.0781,1039.0313 Q1277.4063,1037.375 1279.9063,1037.375 Q1280.6094,1037.375 1281.25,1037.5313 Q1281.9063,1037.6875 1282.4688,1037.9844 L1282.4688,1040.7031 Q1281.8438,1040.125 1281.25,1039.8594 Q1280.6563,1039.5781 1280.0313,1039.5781 Q1278.6875,1039.5781 1278,1040.6563 Q1277.3125,1041.7188 1277.3125,1043.8125 Q1277.3125,1045.9063 1278,1046.9844 Q1278.6875,1048.0469 1280.0313,1048.0469 Q1280.6563,1048.0469 1281.25,1047.7813 Q1281.8438,1047.5 1282.4688,1046.9219 L1282.4688,1049.6406 Z "/><text fill="#000000" font-family="sans-serif" font-size="12" lengthAdjust="spacingAndGlyphs" textLength="85" x="1293.5" y="1048.1543">EdgesFactory</text><!--MD5=[973c6b7f5e030bba668bdd48ca021633]
reverse link Model to CPUSpikingModel--><path d="M546,127.36 C546,127.36 546,178 546,178 C546,178 537.43,178 525.58,178 " fill="none" id="Model&lt;-CPUSpikingModel" style="stroke: #A80036; stroke-width: 1.0; stroke-dasharray: 7.0,7.0;"/><polygon fill="none" points="539,127.36,546,107.36,553,127.36,539,127.36" style="stroke: #A80036; stroke-width: 1.0;"/><!--MD5=[d66cadd488ee8381e38c5b0e541bda43]
reverse link Model to GPUSpilingModel--><path d="M584.25,127.03 C584.25,127.03 584.25,166.85 584.25,166.85 " fill="none" id="Model&lt;-GPUSpilingModel" style="stroke: #A80036; stroke-width: 1.0; stroke-dasharray: 7.0,7.0;"/><polygon fill="none" points="577.25,127.03,584.25,107.03,591.25,127.03,577.25,127.03" style="stroke: #A80036; stroke-width: 1.0;"/><!--MD5=[4261885617cbc7ccae7bbabfb2558444]
link Model to Simulator--><path d="M607.5,91 C607.5,91 629.45,91 629.45,91 " fill="none" id="Model-&gt;Simulator" style="stroke: #A80036; stroke-width: 1.0;"/><polygon fill="#FFFFFF" points="642.45,91,636.45,87,630.45,91,636.45,95,642.45,91" style="stroke: #A80036; stroke-width: 1.0;"/><!--MD5=[5bf98a6404126ff4d0e11de1c88a6866]
reverse link Operations to OperationManager--><path d="M529.62,275 C529.62,275 571.23,275 571.23,275 " fill="none" id="Operations&lt;-OperationManager" style="stroke: #A80036; stroke-width: 1.0;"/><polygon fill="#FFFFFF" points="516.62,275,522.62,279,528.62,275,522.62,271,516.62,275" style="stroke: #A80036; stroke-width: 1.0;"/><!--MD5=[e98819c6fcc605915f2efaee3c857d02]
link Simulator to OperationManager--><path d="M708.75,107.01 C708.75,107.01 708.75,253.9 708.75,253.9 " fill="none" id="Simulator-&gt;OperationManager" style="stroke: #A80036; stroke-width: 1.0;"/><polygon fill="#A80036" points="708.75,258.9,712.75,249.9,708.75,253.9,704.75,249.9,708.75,258.9" style="stroke: #A80036; stroke-width: 1.0;"/><!--MD5=[307fb440958d03911878633ccd88c544]
link CPUSpikingModel to GPUSpilingModel--><!--MD5=[1cea4de5324fc0a8457098da950d03ec]
link CPUSpikingModel to Operations--><!--MD5=[9593627a9002a106d0f96da7ffbf61a2]
link OperationManager to ParameterManager--><!--MD5=[891067ebdc7a855417ab5d2553f427ef]
reverse link Layout to FixedLayout--><path d="M1124,127.03 C1124,127.03 1124,166.85 1124,166.85 " fill="none" id="Layout&lt;-FixedLayout" style="stroke: #A80036; stroke-width: 1.0; stroke-dasharray: 7.0,7.0;"/><polygon fill="none" points="1117,127.03,1124,107.03,1131,127.03,1117,127.03" style="stroke: #A80036; stroke-width: 1.0;"/><!--MD5=[7269b632a17f4028eba21f1bd63939ed]
reverse link Layout to DynamicLayout--><path d="M1066.15,91 C1066.15,91 974,91 974,91 C974,91 974,140.62 974,166.97 " fill="none" id="Layout&lt;-DynamicLayout" style="stroke: #A80036; stroke-width: 1.0; stroke-dasharray: 7.0,7.0;"/><polygon fill="none" points="1066.15,84,1086.15,91,1066.15,98,1066.15,84" style="stroke: #A80036; stroke-width: 1.0;"/><!--MD5=[46eb6d5f62098a9931e8efdb8e99157c]
reverse link FixedLayout to LayoutsFactory--><path d="M1141.5,204.03 C1141.5,204.03 1141.5,275 1141.5,275 C1141.5,275 1084.76,275 1037.32,275 " fill="none" id="FixedLayout&lt;-LayoutsFactory" style="stroke: #A80036; stroke-width: 1.0;"/><polygon fill="#A80036" points="1141.5,199.03,1137.5,208.03,1141.5,204.03,1145.5,208.03,1141.5,199.03" style="stroke: #A80036; stroke-width: 1.0;"/><!--MD5=[c9003fa7673fea298ac6dea79519d34f]
reverse link DynamicLayout to LayoutsFactory--><path d="M974,204.03 C974,204.03 974,258.85 974,258.85 " fill="none" id="DynamicLayout&lt;-LayoutsFactory" style="stroke: #A80036; stroke-width: 1.0;"/><polygon fill="#A80036" points="974,199.03,970,208.03,974,204.03,978,208.03,974,199.03" style="stroke: #A80036; stroke-width: 1.0;"/><!--MD5=[f591e114573ccd2409f159b73ea72911]
reverse link AllVertices to AllSpikingNeurons--><path d="M1504,127.03 C1504,127.03 1504,166.85 1504,166.85 " fill="none" id="AllVertices&lt;-AllSpikingNeurons" style="stroke: #A80036; stroke-width: 1.0; stroke-dasharray: 7.0,7.0;"/><polygon fill="none" points="1497,127.03,1504,107.03,1511,127.03,1497,127.03" style="stroke: #A80036; stroke-width: 1.0;"/><!--MD5=[8724fdcf162cd93143062af7a28861a5]
reverse link AllSpikingNeurons to AllIFNeurons--><path d="M1511,219.03 C1511,219.03 1511,258.85 1511,258.85 " fill="none" id="AllSpikingNeurons&lt;-AllIFNeurons" style="stroke: #A80036; stroke-width: 1.0;"/><polygon fill="none" points="1504,219.03,1511,199.03,1518,219.03,1504,219.03" style="stroke: #A80036; stroke-width: 1.0;"/><!--MD5=[f5565d651accd6e6b1dad5fbc033ae63]
reverse link AllIFNeurons to AllLiFNeurons--><path d="M1562.5,311.41 C1562.5,311.41 1562.5,393 1562.5,393 C1562.5,393 1575.44,393 1591.3,393 " fill="none" id="AllIFNeurons&lt;-AllLiFNeurons" style="stroke: #A80036; stroke-width: 1.0;"/><polygon fill="none" points="1555.5,311.41,1562.5,291.41,1569.5,311.41,1555.5,311.41" style="stroke: #A80036; stroke-width: 1.0;"/><!--MD5=[62c6867a57863758a62158db896d0fc0]
reverse link AllIFNeurons to AllZHNeurons--><path d="M1506.5,311.08 C1506.5,311.08 1506.5,381.92 1506.5,381.92 " fill="none" id="AllIFNeurons&lt;-AllZHNeurons" style="stroke: #A80036; stroke-width: 1.0;"/><polygon fill="none" points="1499.5,311.08,1506.5,291.08,1513.5,311.08,1499.5,311.08" style="stroke: #A80036; stroke-width: 1.0;"/><!--MD5=[816076678d7e4925980428acffa4a6e0]
reverse link AllLiFNeurons to VerticesFactory--><path d="M1586.31,404 C1586.31,404 1559.5,404 1559.5,404 C1559.5,404 1559.5,485.58 1559.5,520.96 " fill="none" id="AllLiFNeurons&lt;-VerticesFactory" style="stroke: #A80036; stroke-width: 1.0;"/><polygon fill="#A80036" points="1591.31,404,1582.31,400,1586.31,404,1582.31,408,1591.31,404" style="stroke: #A80036; stroke-width: 1.0;"/><!--MD5=[3db3a0c82a3825d3c0c26b2962603658]
reverse link AllZHNeurons to VerticesFactory--><path d="M1498,419.22 C1498,419.22 1498,520.89 1498,520.89 " fill="none" id="AllZHNeurons&lt;-VerticesFactory" style="stroke: #A80036; stroke-width: 1.0;"/><polygon fill="#A80036" points="1498,414.22,1494,423.22,1498,419.22,1502,423.22,1498,414.22" style="stroke: #A80036; stroke-width: 1.0;"/><!--MD5=[a32c8dc18938f820152f805b5dcbc3e8]
reverse link IRecorder to XmLRecorder--><path d="M348.29,546 C348.29,546 252,546 252,546 C252,546 252,624.95 252,659.8 " fill="none" id="IRecorder&lt;-XmLRecorder" style="stroke: #A80036; stroke-width: 1.0; stroke-dasharray: 7.0,7.0;"/><polygon fill="none" points="348.29,539,368.29,546,348.29,553,348.29,539" style="stroke: #A80036; stroke-width: 1.0;"/><!--MD5=[a0b975066a710a7895b5153868e55a27]
reverse link IRecorder to HDF5Recorder--><path d="M415,573.22 C415,573.22 415,659.89 415,659.89 " fill="none" id="IRecorder&lt;-HDF5Recorder" style="stroke: #A80036; stroke-width: 1.0; stroke-dasharray: 7.0,7.0;"/><polygon fill="none" points="408,573.22,415,553.22,422,573.22,408,573.22" style="stroke: #A80036; stroke-width: 1.0;"/><!--MD5=[93e5a6ee61d1f05a63d1d290b5da68e0]
reverse link XmLRecorder to XmlGrowthRecroder--><path d="M205.75,712.03 C205.75,712.03 205.75,751.85 205.75,751.85 " fill="none" id="XmLRecorder&lt;-XmlGrowthRecroder" style="stroke: #A80036; stroke-width: 1.0;"/><polygon fill="none" points="198.75,712.03,205.75,692.03,212.75,712.03,198.75,712.03" style="stroke: #A80036; stroke-width: 1.0;"/><!--MD5=[9a9f80ee8e039ba0cdc0509d1d0ec35e]
reverse link HDF5Recorder to Hdf5GrowthRecorder--><path d="M402,712.03 C402,712.03 402,751.85 402,751.85 " fill="none" id="HDF5Recorder&lt;-Hdf5GrowthRecorder" style="stroke: #A80036; stroke-width: 1.0;"/><polygon fill="none" points="395,712.03,402,692.03,409,712.03,395,712.03" style="stroke: #A80036; stroke-width: 1.0;"/><!--MD5=[3af4f1eecf578f95c361f55f01de5f0e]
reverse link XmLRecorder to RecordersFactory--><path d="M252,697.2 C252,697.2 252,855 252,855 C252,855 273.41,855 297.91,855 " fill="none" id="XmLRecorder&lt;-RecordersFactory" style="stroke: #A80036; stroke-width: 1.0;"/><polygon fill="#A80036" points="252,692.2,248,701.2,252,697.2,256,701.2,252,692.2" style="stroke: #A80036; stroke-width: 1.0;"/><!--MD5=[427f0813d0781cf9b4a277c1904c7c53]
reverse link HDF5Recorder to RecordersFactory--><path d="M463,697.2 C463,697.2 463,855 463,855 C463,855 453.36,855 440.25,855 " fill="none" id="HDF5Recorder&lt;-RecordersFactory" style="stroke: #A80036; stroke-width: 1.0;"/><polygon fill="#A80036" points="463,692.2,459,701.2,463,697.2,467,701.2,463,692.2" style="stroke: #A80036; stroke-width: 1.0;"/><!--MD5=[ef7aead4e4de6a506f4bd6283eeb5cc2]
reverse link XmlGrowthRecroder to RecordersFactory--><path d="M139,789.18 C139,789.18 139,866 139,866 C139,866 230.25,866 297.8,866 " fill="none" id="XmlGrowthRecroder&lt;-RecordersFactory" style="stroke: #A80036; stroke-width: 1.0;"/><polygon fill="#A80036" points="139,784.18,135,793.18,139,789.18,143,793.18,139,784.18" style="stroke: #A80036; stroke-width: 1.0;"/><!--MD5=[4190e7fed19e1823e30f66c46aadd182]
reverse link Hdf5GrowthRecorder to RecordersFactory--><path d="M369,789.03 C369,789.03 369,843.85 369,843.85 " fill="none" id="Hdf5GrowthRecorder&lt;-RecordersFactory" style="stroke: #A80036; stroke-width: 1.0;"/><polygon fill="#A80036" points="369,784.03,365,793.03,369,789.03,373,793.03,369,784.03" style="stroke: #A80036; stroke-width: 1.0;"/><!--MD5=[513ec0388948448dab3ce17eb36460f7]
reverse link Connections to ConnStatic--><path d="M998.75,434.22 C998.75,434.22 998.75,520.89 998.75,520.89 " fill="none" id="Connections&lt;-ConnStatic" style="stroke: #A80036; stroke-width: 1.0; stroke-dasharray: 7.0,7.0;"/><polygon fill="none" points="991.75,434.22,998.75,414.22,1005.75,434.22,991.75,434.22" style="stroke: #A80036; stroke-width: 1.0;"/><!--MD5=[10477add2578806cc5f98b33b8db5e65]
reverse link Connections to ConnGrowth--><path d="M945.83,434.22 C945.83,434.22 945.83,537 945.83,537 C945.83,537 931.39,537 914.36,537 " fill="none" id="Connections&lt;-ConnGrowth" style="stroke: #A80036; stroke-width: 1.0; stroke-dasharray: 7.0,7.0;"/><polygon fill="none" points="938.83,434.22,945.83,414.22,952.83,434.22,938.83,434.22" style="stroke: #A80036; stroke-width: 1.0;"/><!--MD5=[ce8801c2acd2b0d49ec9478c2a92b972]
reverse link ConnStatic to ConnectionsFactory--><path d="M955.5,558.22 C955.5,558.22 955.5,659.89 955.5,659.89 " fill="none" id="ConnStatic&lt;-ConnectionsFactory" style="stroke: #A80036; stroke-width: 1.0;"/><polygon fill="#A80036" points="955.5,553.22,951.5,562.22,955.5,558.22,959.5,562.22,955.5,553.22" style="stroke: #A80036; stroke-width: 1.0;"/><!--MD5=[de55930b9c422267ee87a004d94dc6e8]
reverse link ConnGrowth to ConnectionsFactory--><path d="M860,558.22 C860,558.22 860,659.89 860,659.89 " fill="none" id="ConnGrowth&lt;-ConnectionsFactory" style="stroke: #A80036; stroke-width: 1.0;"/><polygon fill="#A80036" points="860,553.22,856,562.22,860,558.22,864,562.22,860,553.22" style="stroke: #A80036; stroke-width: 1.0;"/><!--MD5=[31245d3cee91cd73d7b7d218049e1649]
reverse link AllEdges to AllSpikingSynapses--><path d="M1285,712.03 C1285,712.03 1285,751.85 1285,751.85 " fill="none" id="AllEdges&lt;-AllSpikingSynapses" style="stroke: #A80036; stroke-width: 1.0; stroke-dasharray: 7.0,7.0;"/><polygon fill="none" points="1278,712.03,1285,692.03,1292,712.03,1278,712.03" style="stroke: #A80036; stroke-width: 1.0;"/><!--MD5=[587b9d07fbc4fdda6579551662042140]
reverse link AllSpikingSynapses to AllSTDPSynapses--><path d="M1295.25,804.03 C1295.25,804.03 1295.25,843.85 1295.25,843.85 " fill="none" id="AllSpikingSynapses&lt;-AllSTDPSynapses" style="stroke: #A80036; stroke-width: 1.0;"/><polygon fill="none" points="1288.25,804.03,1295.25,784.03,1302.25,804.03,1288.25,804.03" style="stroke: #A80036; stroke-width: 1.0;"/><!--MD5=[f221506eaa2e129ebcab2e085332c1be]
reverse link AllSpikingSynapses to AllDSSynapses--><path d="M1370.75,804.03 C1370.75,804.03 1370.75,860 1370.75,860 C1370.75,860 1383.44,860 1399.31,860 " fill="none" id="AllSpikingSynapses&lt;-AllDSSynapses" style="stroke: #A80036; stroke-width: 1.0;"/><polygon fill="none" points="1363.75,804.03,1370.75,784.03,1377.75,804.03,1363.75,804.03" style="stroke: #A80036; stroke-width: 1.0;"/><!--MD5=[b9dc5ca9d326f6b2e35f4ef44c514701]
reverse link AllSTDPSynapses to AllDynamicsSTDPSynapses--><path d="M1313.75,896.03 C1313.75,896.03 1313.75,935.85 1313.75,935.85 " fill="none" id="AllSTDPSynapses&lt;-AllDynamicsSTDPSynapses" style="stroke: #A80036; stroke-width: 1.0;"/><polygon fill="none" points="1306.75,896.03,1313.75,876.03,1320.75,896.03,1306.75,896.03" style="stroke: #A80036; stroke-width: 1.0;"/><!--MD5=[4407787554ed777fb67af52573db306c]
reverse link AllSTDPSynapses to EdgesFactory--><path d="M1244.75,881.2 C1244.75,881.2 1244.75,1039 1244.75,1039 C1244.75,1039 1253.17,1039 1264.5,1039 " fill="none" id="AllSTDPSynapses&lt;-EdgesFactory" style="stroke: #A80036; stroke-width: 1.0;"/><polygon fill="#A80036" points="1244.75,876.2,1240.75,885.2,1244.75,881.2,1248.75,885.2,1244.75,876.2" style="stroke: #A80036; stroke-width: 1.0;"/><!--MD5=[541346a73ae12603d046e53bdf8cd025]
reverse link AllDSSynapses to EdgesFactory--><path d="M1491.5,881.01 C1491.5,881.01 1491.5,1044 1491.5,1044 C1491.5,1044 1430.52,1044 1381.93,1044 " fill="none" id="AllDSSynapses&lt;-EdgesFactory" style="stroke: #A80036; stroke-width: 1.0;"/><polygon fill="#A80036" points="1491.5,876.01,1487.5,885.01,1491.5,881.01,1495.5,885.01,1491.5,876.01" style="stroke: #A80036; stroke-width: 1.0;"/><!--MD5=[1104c1ad87384c985d15bad9d62e0bea]
reverse link AllDynamicsSTDPSynapses to EdgesFactory--><path d="M1323,973.03 C1323,973.03 1323,1027.85 1323,1027.85 " fill="none" id="AllDynamicsSTDPSynapses&lt;-EdgesFactory" style="stroke: #A80036; stroke-width: 1.0;"/><polygon fill="#A80036" points="1323,968.03,1319,977.03,1323,973.03,1327,977.03,1323,968.03" style="stroke: #A80036; stroke-width: 1.0;"/><!--MD5=[d95cba7a564e0eb2f945d9455f1e08a4]
link Core to Layouts--><!--MD5=[3a074d6a93e7e88a957dba9b80e50081]
link Layouts to Vertices--><!--MD5=[42be6bbbc523329e8d13badc94475598]
link Core to Recorders--><!--MD5=[9f00652237e409965a409b02122331f2]
link Layouts to Connections--><!--MD5=[e07bd046f8fc72b6c553dc19b1427184]
link Vertices to Edges--><!--MD5=[2c61cf99b0bec386ca840c193763b14a]
link Simulator to LayoutsFactory--><path d="M730.75,107.01 C730.75,151.77 730.75,275 730.75,275 C730.75,275 905.72,275 905.72,275 " fill="none" id="Simulator-&gt;LayoutsFactory" style="stroke: #FF0000; stroke-width: 1.0;"/><polygon fill="#FF0000" points="910.72,275,901.72,271,905.72,275,901.72,279,910.72,275" style="stroke: #FF0000; stroke-width: 1.0;"/><!--MD5=[54271b6078ede2b7f4d9940e12d64874]
link Simulator to ConnectionsFactory--><path d="M728,107.26 C728,201.74 728,676 728,676 C728,676 800.54,676 800.54,676 " fill="none" id="Simulator-&gt;ConnectionsFactory" style="stroke: #FF0000; stroke-width: 1.0;"/><polygon fill="#FF0000" points="805.54,676,796.54,672,800.54,676,796.54,680,805.54,676" style="stroke: #FF0000; stroke-width: 1.0;"/><!--MD5=[a911b337811af7fd7ce810fac5ac8c54]
reverse link Model to Layout--><path d="M573,64.17 C573,64.17 573,63 573,63 C573,63 1124,63 1124,63 C1124,63 1124,68.55 1124,74.71 " fill="none" id="Model&lt;-Layout" style="stroke: #FF0000; stroke-width: 1.0;"/><polygon fill="#FFFFFF" points="573,74.71,577,68.71,573,62.71,569,68.71,573,74.71" style="stroke: #FF0000; stroke-width: 1.0;"/><!--MD5=[0e5738770afdb953f3cb9465cb228f84]
reverse link Model to Connections--><path d="M553.5,120.14 C553.5,120.14 553.5,337 553.5,337 C553.5,337 988.25,337 988.25,337 C988.25,337 988.25,363.9 988.25,381.97 " fill="none" id="Model&lt;-Connections" style="stroke: #FF0000; stroke-width: 1.0;"/><polygon fill="#FFFFFF" points="553.5,107.14,549.5,113.14,553.5,119.14,557.5,113.14,553.5,107.14" style="stroke: #FF0000; stroke-width: 1.0;"/><!--MD5=[efb7ef13657b6fc949565044919673f3]
reverse link Layout to AllVertices--><path d="M1174.83,97 C1174.83,97 1455.98,97 1455.98,97 " fill="none" id="Layout&lt;-AllVertices" style="stroke: #FF0000; stroke-width: 1.0;"/><polygon fill="#FFFFFF" points="1161.83,97,1167.83,101,1173.83,97,1167.83,93,1161.83,97" style="stroke: #FF0000; stroke-width: 1.0;"/><!--MD5=[30ebdb8fe104fc5727699212f68639a3]
link Layout to VerticesFactory--><path d="M1161.75,102 C1175.73,102 1188.25,102 1188.25,102 C1188.25,102 1188.25,537 1188.25,537 C1188.25,537 1434.34,537 1434.34,537 " fill="none" id="Layout-&gt;VerticesFactory" style="stroke: #FF0000; stroke-width: 1.0;"/><polygon fill="#FF0000" points="1439.34,537,1430.34,533,1434.34,537,1430.34,541,1439.34,537" style="stroke: #FF0000; stroke-width: 1.0;"/><!--MD5=[c1506f01115880aaa731ab3eaa932dd8]
reverse link Connections to IRecorder--><path d="M942.67,427.24 C942.67,427.24 942.67,468 942.67,468 C942.67,468 438.5,468 438.5,468 C438.5,468 438.5,500.61 438.5,521 " fill="none" id="Connections&lt;-IRecorder" style="stroke: #FF0000; stroke-width: 1.0;"/><polygon fill="#FFFFFF" points="942.67,414.24,938.67,420.24,942.67,426.24,946.67,420.24,942.67,414.24" style="stroke: #FF0000; stroke-width: 1.0;"/><!--MD5=[25007e0d6d2bc2691ed586569b6b25e2]
reverse link Connections to AllEdges--><path d="M1061.73,398 C1061.73,398 1285,398 1285,398 C1285,398 1285,600.52 1285,659.85 " fill="none" id="Connections&lt;-AllEdges" style="stroke: #FF0000; stroke-width: 1.0;"/><polygon fill="#FFFFFF" points="1048.73,398,1054.73,402,1060.73,398,1054.73,394,1048.73,398" style="stroke: #FF0000; stroke-width: 1.0;"/><!--MD5=[da0f83d06ff47bb168b7cef8eff40793]
reverse link Connections to RecordersFactory--><path d="M934.29,398 C934.29,398 725.25,398 725.25,398 C725.25,398 725.25,866 725.25,866 C725.25,866 544.2,866 440.24,866 " fill="none" id="Connections&lt;-RecordersFactory" style="stroke: #FF0000; stroke-width: 1.0;"/><polygon fill="#FF0000" points="939.29,398,930.29,394,934.29,398,930.29,402,939.29,398" style="stroke: #FF0000; stroke-width: 1.0;"/><!--MD5=[9163dfda51af3a292478a4de1670a816]
reverse link Connections to EdgesFactory--><path d="M1053.6,406 C1053.6,406 1106.5,406 1106.5,406 C1106.5,406 1106.5,1050 1106.5,1050 C1106.5,1050 1200.29,1050 1264.41,1050 " fill="none" id="Connections&lt;-EdgesFactory" style="stroke: #FF0000; stroke-width: 1.0;"/><polygon fill="#FF0000" points="1048.6,406,1057.6,410,1053.6,406,1057.6,402,1048.6,406" style="stroke: #FF0000; stroke-width: 1.0;"/><!--MD5=[47c28cd4837f6dfe7087618595472490]
@startuml package UML

skinparam linetype ortho
hide members

package Core{
   class Simulator
   class CPUSpikingModel implements Model
	class GPUSpilingModel implements Model
	class Operations
	class OperationManager
	class ParameterManager

	Model -left-o Simulator 
	Operations o-right- OperationManager   
	Simulator - - -> OperationManager 

	CPUSpikingModel-[hidden]right>GPUSpilingModel
	CPUSpikingModel-[hidden]->Operations
   OperationManager -[hidden]->ParameterManager
}

package Layouts{
	class FixedLayout implements Layout
	class DynamicLayout implements Layout
	class LayoutsFactory
	FixedLayout <- - LayoutsFactory
	DynamicLayout<- - LayoutsFactory	
}

package Vertices{
	class AllSpikingNeurons implements AllVertices
	class AllIFNeurons extends AllSpikingNeurons
	class AllLiFNeurons extends AllIFNeurons
	class AllZHNeurons extends AllIFNeurons
	class VerticesFactory 
	VerticesFactory -up->AllLiFNeurons
	VerticesFactory -up->AllZHNeurons
}

package Recorders{
	class  XmLRecorder implements IRecorder
	class HDF5Recorder implements IRecorder
	class XmlGrowthRecroder extends XmLRecorder
	class Hdf5GrowthRecorder extends HDF5Recorder
	class RecordersFactory
	XmLRecorder <- - RecordersFactory
	HDF5Recorder<- - RecordersFactory
	XmlGrowthRecroder<- - RecordersFactory
	Hdf5GrowthRecorder<- - RecordersFactory
}

package Connections{
	class ConnStatic implements Connections
	class ConnGrowth Implements Connections
	class ConnectionsFactory
	ConnectionsFactory - -up> ConnStatic
	ConnectionsFactory - -up> ConnGrowth  
}

package Edges{
	class AllSpikingSynapses implements AllEdges
	class AllSTDPSynapses extends AllSpikingSynapses
	class AllDSSynapses extends AllSpikingSynapses
	class AllDynamicsSTDPSynapses extends AllSTDPSynapses
	class EdgesFactory
	EdgesFactory - -up->AllSTDPSynapses
	EdgesFactory - -up->AllDSSynapses
	EdgesFactory - -up>AllDynamicsSTDPSynapses
}

Core -[hidden]right>  Layouts
Layouts -[hidden]right> Vertices
Core -[hidden]down- - -> Recorders
Layouts -[hidden]down- - ->Connections
Vertices -[hidden]down- - - - -> Edges

Simulator -[#red]->LayoutsFactory
Simulator -[#red]- ->ConnectionsFactory
Model o-[#red] Layout
Model o-[#red]- - Connections
Layout o-[#red] AllVertices
Layout -[#red]- - -> VerticesFactory

Connections o-[#red]- IRecorder
Connections o-[#red]- AllEdges
Connections <-[#red]- - - - RecordersFactory
Connections <-[#red]- - - - EdgesFactory

@enduml

PlantUML version 1.2020.02(Sun Mar 01 10:22:07 GMT 2020)
(GPL source distribution)
Java Runtime: OpenJDK Runtime Environment
JVM: OpenJDK 64-Bit Server VM
Java Version: 11.0.9+11-Ubuntu-0ubuntu1
Operating System: Linux
Default Encoding: ANSI_X3.4-1968
Language: en
Country: US
--></g></svg>