<?xml version="1.0" encoding="UTF-8" standalone="no"?><svg xmlns="http://www.w3.org/2000/svg" xmlns:xlink="http://www.w3.org/1999/xlink" contentScriptType="application/ecmascript" contentStyleType="text/css" height="1316px" preserveAspectRatio="none" style="width:2021px;height:1316px;" version="1.1" viewBox="0 0 2021 1316" width="2021px" zoomAndPan="magnify"><defs><filter height="300%" id="fxe4j9u1vc8yf" width="300%" x="-1" y="-1"><feGaussianBlur result="blurOut" stdDeviation="2.0"/><feColorMatrix in="blurOut" result="blurOut2" type="matrix" values="0 0 0 0 0 0 0 0 0 0 0 0 0 0 0 0 0 0 .4 0"/><feOffset dx="4.0" dy="4.0" in="blurOut2" result="blurOut3"/><feBlend in="SourceGraphic" in2="blurOut3" mode="normal"/></filter></defs><g><!--MD5=[2c2e2644034c00788261e03c85b06837]
cluster Core--><polygon fill="#FFFFFF" filter="url(#fxe4j9u1vc8yf)" points="30,32,74,32,81,54.2969,545,54.2969,545,444,30,444,30,32" style="stroke: #000000; stroke-width: 1.5;"/><line style="stroke: #000000; stroke-width: 1.5;" x1="30" x2="81" y1="54.2969" y2="54.2969"/><text fill="#000000" font-family="sans-serif" font-size="14" font-weight="bold" lengthAdjust="spacingAndGlyphs" textLength="38" x="34" y="46.9951">Core</text><!--MD5=[bcaa2b9ff15208c4e2012dff6dfdc182]
cluster Layouts--><polygon fill="#FFFFFF" filter="url(#fxe4j9u1vc8yf)" points="1113,32,1181,32,1188,54.2969,1435,54.2969,1435,333,1113,333,1113,32" style="stroke: #000000; stroke-width: 1.5;"/><line style="stroke: #000000; stroke-width: 1.5;" x1="1113" x2="1188" y1="54.2969" y2="54.2969"/><text fill="#000000" font-family="sans-serif" font-size="14" font-weight="bold" lengthAdjust="spacingAndGlyphs" textLength="62" x="1117" y="46.9951">Layouts</text><!--MD5=[8d26bb35548c3dcbc6e480db6528a15a]
cluster Vertices--><polygon fill="#FFFFFF" filter="url(#fxe4j9u1vc8yf)" points="1675,32,1747,32,1754,54.2969,1999,54.2969,1999,608,1675,608,1675,32" style="stroke: #000000; stroke-width: 1.5;"/><line style="stroke: #000000; stroke-width: 1.5;" x1="1675" x2="1754" y1="54.2969" y2="54.2969"/><text fill="#000000" font-family="sans-serif" font-size="14" font-weight="bold" lengthAdjust="spacingAndGlyphs" textLength="66" x="1679" y="46.9951">Vertices</text><!--MD5=[9168128f11ea68e0eeae1bee9b5f58d3]
cluster Recorders--><polygon fill="#FFFFFF" filter="url(#fxe4j9u1vc8yf)" points="636,509,724,509,731,531.2969,928,531.2969,928,1084,636,1084,636,509" style="stroke: #000000; stroke-width: 1.5;"/><line style="stroke: #000000; stroke-width: 1.5;" x1="636" x2="731" y1="531.2969" y2="531.2969"/><text fill="#000000" font-family="sans-serif" font-size="14" font-weight="bold" lengthAdjust="spacingAndGlyphs" textLength="82" x="640" y="523.9951">Recorders</text><!--MD5=[3a4496162e4aa4b8f639c92517849365]
cluster Connections--><polygon fill="#FFFFFF" filter="url(#fxe4j9u1vc8yf)" points="1007,517,1112,517,1119,539.2969,1282,539.2969,1282,872,1007,872,1007,517" style="stroke: #000000; stroke-width: 1.5;"/><line style="stroke: #000000; stroke-width: 1.5;" x1="1007" x2="1119" y1="539.2969" y2="539.2969"/><text fill="#000000" font-family="sans-serif" font-size="14" font-weight="bold" lengthAdjust="spacingAndGlyphs" textLength="99" x="1011" y="531.9951">Connections</text><!--MD5=[a69b11994f1325ca382ee696cdd1fd0b]
cluster Edges--><polygon fill="#FFFFFF" filter="url(#fxe4j9u1vc8yf)" points="1348,657,1402,657,1409,679.2969,1896,679.2969,1896,1304,1348,1304,1348,657" style="stroke: #000000; stroke-width: 1.5;"/><line style="stroke: #000000; stroke-width: 1.5;" x1="1348" x2="1409" y1="679.2969" y2="679.2969"/><text fill="#000000" font-family="sans-serif" font-size="14" font-weight="bold" lengthAdjust="spacingAndGlyphs" textLength="48" x="1352" y="671.9951">Edges</text><!--MD5=[e78d3bd29d68b8fbdb4aae8710e3db25]
class Simulator--><rect fill="#FEFECE" filter="url(#fxe4j9u1vc8yf)" height="32" id="Simulator" style="stroke: #A80036; stroke-width: 1.5;" width="91" x="410.5" y="75"/><ellipse cx="425.5" cy="91" fill="#ADD1B2" rx="11" ry="11" style="stroke: #A80036; stroke-width: 1.0;"/><path d="M428.4688,96.6406 Q427.8906,96.9375 427.25,97.0781 Q426.6094,97.2344 425.9063,97.2344 Q423.4063,97.2344 422.0781,95.5938 Q420.7656,93.9375 420.7656,90.8125 Q420.7656,87.6875 422.0781,86.0313 Q423.4063,84.375 425.9063,84.375 Q426.6094,84.375 427.25,84.5313 Q427.9063,84.6875 428.4688,84.9844 L428.4688,87.7031 Q427.8438,87.125 427.25,86.8594 Q426.6563,86.5781 426.0313,86.5781 Q424.6875,86.5781 424,87.6563 Q423.3125,88.7188 423.3125,90.8125 Q423.3125,92.9063 424,93.9844 Q424.6875,95.0469 426.0313,95.0469 Q426.6563,95.0469 427.25,94.7813 Q427.8438,94.5 428.4688,93.9219 L428.4688,96.6406 Z "/><text fill="#000000" font-family="sans-serif" font-size="12" lengthAdjust="spacingAndGlyphs" textLength="59" x="439.5" y="95.1543">Simulator</text><!--MD5=[0b94f3229ccc3f95d40f9de2aafb3991]
class CPUSpikingModel--><rect fill="#FEFECE" filter="url(#fxe4j9u1vc8yf)" height="32" id="CPUSpikingModel" style="stroke: #A80036; stroke-width: 1.5;" width="139" x="229.5" y="168"/><ellipse cx="244.5" cy="184" fill="#ADD1B2" rx="11" ry="11" style="stroke: #A80036; stroke-width: 1.0;"/><path d="M247.4688,189.6406 Q246.8906,189.9375 246.25,190.0781 Q245.6094,190.2344 244.9063,190.2344 Q242.4063,190.2344 241.0781,188.5938 Q239.7656,186.9375 239.7656,183.8125 Q239.7656,180.6875 241.0781,179.0313 Q242.4063,177.375 244.9063,177.375 Q245.6094,177.375 246.25,177.5313 Q246.9063,177.6875 247.4688,177.9844 L247.4688,180.7031 Q246.8438,180.125 246.25,179.8594 Q245.6563,179.5781 245.0313,179.5781 Q243.6875,179.5781 243,180.6563 Q242.3125,181.7188 242.3125,183.8125 Q242.3125,185.9063 243,186.9844 Q243.6875,188.0469 245.0313,188.0469 Q245.6563,188.0469 246.25,187.7813 Q246.8438,187.5 247.4688,186.9219 L247.4688,189.6406 Z "/><text fill="#000000" font-family="sans-serif" font-size="12" lengthAdjust="spacingAndGlyphs" textLength="107" x="258.5" y="188.1543">CPUSpikingModel</text><!--MD5=[7e20e022571e30ec1001cf6eabd7f3e2]
class Model--><rect fill="#FEFECE" filter="url(#fxe4j9u1vc8yf)" height="32" id="Model" style="stroke: #A80036; stroke-width: 1.5;" width="69" x="306.5" y="75"/><ellipse cx="321.5" cy="91" fill="#B4A7E5" rx="11" ry="11" style="stroke: #A80036; stroke-width: 1.0;"/><path d="M317.4219,86.7656 L317.4219,84.6094 L324.8125,84.6094 L324.8125,86.7656 L322.3438,86.7656 L322.3438,94.8438 L324.8125,94.8438 L324.8125,97 L317.4219,97 L317.4219,94.8438 L319.8906,94.8438 L319.8906,86.7656 L317.4219,86.7656 Z "/><text fill="#000000" font-family="sans-serif" font-size="12" font-style="italic" lengthAdjust="spacingAndGlyphs" textLength="37" x="335.5" y="95.1543">Model</text><!--MD5=[9f94b75dce46dbb71fc5aed3e87d7d49]
class GPUSpikingModel--><rect fill="#FEFECE" filter="url(#fxe4j9u1vc8yf)" height="32" id="GPUSpikingModel" style="stroke: #A80036; stroke-width: 1.5;" width="140" x="54" y="168"/><ellipse cx="69" cy="184" fill="#ADD1B2" rx="11" ry="11" style="stroke: #A80036; stroke-width: 1.0;"/><path d="M71.9688,189.6406 Q71.3906,189.9375 70.75,190.0781 Q70.1094,190.2344 69.4063,190.2344 Q66.9063,190.2344 65.5781,188.5938 Q64.2656,186.9375 64.2656,183.8125 Q64.2656,180.6875 65.5781,179.0313 Q66.9063,177.375 69.4063,177.375 Q70.1094,177.375 70.75,177.5313 Q71.4063,177.6875 71.9688,177.9844 L71.9688,180.7031 Q71.3438,180.125 70.75,179.8594 Q70.1563,179.5781 69.5313,179.5781 Q68.1875,179.5781 67.5,180.6563 Q66.8125,181.7188 66.8125,183.8125 Q66.8125,185.9063 67.5,186.9844 Q68.1875,188.0469 69.5313,188.0469 Q70.1563,188.0469 70.75,187.7813 Q71.3438,187.5 71.9688,186.9219 L71.9688,189.6406 Z "/><text fill="#000000" font-family="sans-serif" font-size="12" lengthAdjust="spacingAndGlyphs" textLength="108" x="83" y="188.1543">GPUSpikingModel</text><!--MD5=[fdf81c1c7218c7a86b85d500a2db5e87]
class Operations--><rect fill="#FEFECE" filter="url(#fxe4j9u1vc8yf)" height="32" id="Operations" style="stroke: #A80036; stroke-width: 1.5;" width="101" x="228.5" y="277"/><ellipse cx="243.5" cy="293" fill="#ADD1B2" rx="11" ry="11" style="stroke: #A80036; stroke-width: 1.0;"/><path d="M246.4688,298.6406 Q245.8906,298.9375 245.25,299.0781 Q244.6094,299.2344 243.9063,299.2344 Q241.4063,299.2344 240.0781,297.5938 Q238.7656,295.9375 238.7656,292.8125 Q238.7656,289.6875 240.0781,288.0313 Q241.4063,286.375 243.9063,286.375 Q244.6094,286.375 245.25,286.5313 Q245.9063,286.6875 246.4688,286.9844 L246.4688,289.7031 Q245.8438,289.125 245.25,288.8594 Q244.6563,288.5781 244.0313,288.5781 Q242.6875,288.5781 242,289.6563 Q241.3125,290.7188 241.3125,292.8125 Q241.3125,294.9063 242,295.9844 Q242.6875,297.0469 244.0313,297.0469 Q244.6563,297.0469 245.25,296.7813 Q245.8438,296.5 246.4688,295.9219 L246.4688,298.6406 Z "/><text fill="#000000" font-family="sans-serif" font-size="12" lengthAdjust="spacingAndGlyphs" textLength="69" x="257.5" y="297.1543">Operations</text><!--MD5=[314e3b7c2db0a5a356d5ece57f37d58b]
class OperationManager--><rect fill="#FEFECE" filter="url(#fxe4j9u1vc8yf)" height="32" id="OperationManager" style="stroke: #A80036; stroke-width: 1.5;" width="149" x="364.5" y="277"/><ellipse cx="379.5" cy="293" fill="#ADD1B2" rx="11" ry="11" style="stroke: #A80036; stroke-width: 1.0;"/><path d="M382.4688,298.6406 Q381.8906,298.9375 381.25,299.0781 Q380.6094,299.2344 379.9063,299.2344 Q377.4063,299.2344 376.0781,297.5938 Q374.7656,295.9375 374.7656,292.8125 Q374.7656,289.6875 376.0781,288.0313 Q377.4063,286.375 379.9063,286.375 Q380.6094,286.375 381.25,286.5313 Q381.9063,286.6875 382.4688,286.9844 L382.4688,289.7031 Q381.8438,289.125 381.25,288.8594 Q380.6563,288.5781 380.0313,288.5781 Q378.6875,288.5781 378,289.6563 Q377.3125,290.7188 377.3125,292.8125 Q377.3125,294.9063 378,295.9844 Q378.6875,297.0469 380.0313,297.0469 Q380.6563,297.0469 381.25,296.7813 Q381.8438,296.5 382.4688,295.9219 L382.4688,298.6406 Z "/><text fill="#000000" font-family="sans-serif" font-size="12" lengthAdjust="spacingAndGlyphs" textLength="117" x="393.5" y="297.1543">OperationManager</text><!--MD5=[eb1da731c4a897e81e143002ff161e69]
class ParameterManager--><rect fill="#FEFECE" filter="url(#fxe4j9u1vc8yf)" height="32" id="ParameterManager" style="stroke: #A80036; stroke-width: 1.5;" width="153" x="359.5" y="388"/><ellipse cx="374.5" cy="404" fill="#ADD1B2" rx="11" ry="11" style="stroke: #A80036; stroke-width: 1.0;"/><path d="M377.4688,409.6406 Q376.8906,409.9375 376.25,410.0781 Q375.6094,410.2344 374.9063,410.2344 Q372.4063,410.2344 371.0781,408.5938 Q369.7656,406.9375 369.7656,403.8125 Q369.7656,400.6875 371.0781,399.0313 Q372.4063,397.375 374.9063,397.375 Q375.6094,397.375 376.25,397.5313 Q376.9063,397.6875 377.4688,397.9844 L377.4688,400.7031 Q376.8438,400.125 376.25,399.8594 Q375.6563,399.5781 375.0313,399.5781 Q373.6875,399.5781 373,400.6563 Q372.3125,401.7188 372.3125,403.8125 Q372.3125,405.9063 373,406.9844 Q373.6875,408.0469 375.0313,408.0469 Q375.6563,408.0469 376.25,407.7813 Q376.8438,407.5 377.4688,406.9219 L377.4688,409.6406 Z "/><text fill="#000000" font-family="sans-serif" font-size="12" lengthAdjust="spacingAndGlyphs" textLength="121" x="388.5" y="408.1543">ParameterManager</text><!--MD5=[c01d281453c5d4cdc24a7f27a30cb7c5]
class FixedLayout--><rect fill="#FEFECE" filter="url(#fxe4j9u1vc8yf)" height="32" id="FixedLayout" style="stroke: #A80036; stroke-width: 1.5;" width="105" x="1297.5" y="168"/><ellipse cx="1312.5" cy="184" fill="#ADD1B2" rx="11" ry="11" style="stroke: #A80036; stroke-width: 1.0;"/><path d="M1315.4688,189.6406 Q1314.8906,189.9375 1314.25,190.0781 Q1313.6094,190.2344 1312.9063,190.2344 Q1310.4063,190.2344 1309.0781,188.5938 Q1307.7656,186.9375 1307.7656,183.8125 Q1307.7656,180.6875 1309.0781,179.0313 Q1310.4063,177.375 1312.9063,177.375 Q1313.6094,177.375 1314.25,177.5313 Q1314.9063,177.6875 1315.4688,177.9844 L1315.4688,180.7031 Q1314.8438,180.125 1314.25,179.8594 Q1313.6563,179.5781 1313.0313,179.5781 Q1311.6875,179.5781 1311,180.6563 Q1310.3125,181.7188 1310.3125,183.8125 Q1310.3125,185.9063 1311,186.9844 Q1311.6875,188.0469 1313.0313,188.0469 Q1313.6563,188.0469 1314.25,187.7813 Q1314.8438,187.5 1315.4688,186.9219 L1315.4688,189.6406 Z "/><text fill="#000000" font-family="sans-serif" font-size="12" lengthAdjust="spacingAndGlyphs" textLength="73" x="1326.5" y="188.1543">FixedLayout</text><!--MD5=[caebf2ddd0fe15aa1cd7c0f919e7d6a1]
class Layout--><rect fill="#FEFECE" filter="url(#fxe4j9u1vc8yf)" height="32" id="Layout" style="stroke: #A80036; stroke-width: 1.5;" width="75" x="1312.5" y="75"/><ellipse cx="1327.5" cy="91" fill="#B4A7E5" rx="11" ry="11" style="stroke: #A80036; stroke-width: 1.0;"/><path d="M1323.4219,86.7656 L1323.4219,84.6094 L1330.8125,84.6094 L1330.8125,86.7656 L1328.3438,86.7656 L1328.3438,94.8438 L1330.8125,94.8438 L1330.8125,97 L1323.4219,97 L1323.4219,94.8438 L1325.8906,94.8438 L1325.8906,86.7656 L1323.4219,86.7656 Z "/><text fill="#000000" font-family="sans-serif" font-size="12" font-style="italic" lengthAdjust="spacingAndGlyphs" textLength="43" x="1341.5" y="95.1543">Layout</text><!--MD5=[12f7f85e6a82a668bac37f73aa8a25f9]
class DynamicLayout--><rect fill="#FEFECE" filter="url(#fxe4j9u1vc8yf)" height="32" id="DynamicLayout" style="stroke: #A80036; stroke-width: 1.5;" width="125" x="1137.5" y="168"/><ellipse cx="1152.5" cy="184" fill="#ADD1B2" rx="11" ry="11" style="stroke: #A80036; stroke-width: 1.0;"/><path d="M1155.4688,189.6406 Q1154.8906,189.9375 1154.25,190.0781 Q1153.6094,190.2344 1152.9063,190.2344 Q1150.4063,190.2344 1149.0781,188.5938 Q1147.7656,186.9375 1147.7656,183.8125 Q1147.7656,180.6875 1149.0781,179.0313 Q1150.4063,177.375 1152.9063,177.375 Q1153.6094,177.375 1154.25,177.5313 Q1154.9063,177.6875 1155.4688,177.9844 L1155.4688,180.7031 Q1154.8438,180.125 1154.25,179.8594 Q1153.6563,179.5781 1153.0313,179.5781 Q1151.6875,179.5781 1151,180.6563 Q1150.3125,181.7188 1150.3125,183.8125 Q1150.3125,185.9063 1151,186.9844 Q1151.6875,188.0469 1153.0313,188.0469 Q1153.6563,188.0469 1154.25,187.7813 Q1154.8438,187.5 1155.4688,186.9219 L1155.4688,189.6406 Z "/><text fill="#000000" font-family="sans-serif" font-size="12" lengthAdjust="spacingAndGlyphs" textLength="93" x="1166.5" y="188.1543">DynamicLayout</text><!--MD5=[ceff05214af216b423c504875c83215d]
class LayoutsFactory--><rect fill="#FEFECE" filter="url(#fxe4j9u1vc8yf)" height="32" id="LayoutsFactory" style="stroke: #A80036; stroke-width: 1.5;" width="126" x="1137" y="277"/><ellipse cx="1152" cy="293" fill="#ADD1B2" rx="11" ry="11" style="stroke: #A80036; stroke-width: 1.0;"/><path d="M1154.9688,298.6406 Q1154.3906,298.9375 1153.75,299.0781 Q1153.1094,299.2344 1152.4063,299.2344 Q1149.9063,299.2344 1148.5781,297.5938 Q1147.2656,295.9375 1147.2656,292.8125 Q1147.2656,289.6875 1148.5781,288.0313 Q1149.9063,286.375 1152.4063,286.375 Q1153.1094,286.375 1153.75,286.5313 Q1154.4063,286.6875 1154.9688,286.9844 L1154.9688,289.7031 Q1154.3438,289.125 1153.75,288.8594 Q1153.1563,288.5781 1152.5313,288.5781 Q1151.1875,288.5781 1150.5,289.6563 Q1149.8125,290.7188 1149.8125,292.8125 Q1149.8125,294.9063 1150.5,295.9844 Q1151.1875,297.0469 1152.5313,297.0469 Q1153.1563,297.0469 1153.75,296.7813 Q1154.3438,296.5 1154.9688,295.9219 L1154.9688,298.6406 Z "/><text fill="#000000" font-family="sans-serif" font-size="12" lengthAdjust="spacingAndGlyphs" textLength="94" x="1166" y="297.1543">LayoutsFactory</text><!--MD5=[00675e18512933602d55f5e0e2b1ab32]
class AllSpikingNeurons--><rect fill="#FEFECE" filter="url(#fxe4j9u1vc8yf)" height="32" id="AllSpikingNeurons" style="stroke: #A80036; stroke-width: 1.5;" width="144" x="1707" y="168"/><ellipse cx="1722" cy="184" fill="#ADD1B2" rx="11" ry="11" style="stroke: #A80036; stroke-width: 1.0;"/><path d="M1724.9688,189.6406 Q1724.3906,189.9375 1723.75,190.0781 Q1723.1094,190.2344 1722.4063,190.2344 Q1719.9063,190.2344 1718.5781,188.5938 Q1717.2656,186.9375 1717.2656,183.8125 Q1717.2656,180.6875 1718.5781,179.0313 Q1719.9063,177.375 1722.4063,177.375 Q1723.1094,177.375 1723.75,177.5313 Q1724.4063,177.6875 1724.9688,177.9844 L1724.9688,180.7031 Q1724.3438,180.125 1723.75,179.8594 Q1723.1563,179.5781 1722.5313,179.5781 Q1721.1875,179.5781 1720.5,180.6563 Q1719.8125,181.7188 1719.8125,183.8125 Q1719.8125,185.9063 1720.5,186.9844 Q1721.1875,188.0469 1722.5313,188.0469 Q1723.1563,188.0469 1723.75,187.7813 Q1724.3438,187.5 1724.9688,186.9219 L1724.9688,189.6406 Z "/><text fill="#000000" font-family="sans-serif" font-size="12" lengthAdjust="spacingAndGlyphs" textLength="112" x="1736" y="188.1543">AllSpikingNeurons</text><!--MD5=[34dee175ca2f1207a5c8be9520f72c2f]
class AllVertices--><rect fill="#FEFECE" filter="url(#fxe4j9u1vc8yf)" height="32" id="AllVertices" style="stroke: #A80036; stroke-width: 1.5;" width="96" x="1724" y="75"/><ellipse cx="1739" cy="91" fill="#B4A7E5" rx="11" ry="11" style="stroke: #A80036; stroke-width: 1.0;"/><path d="M1734.9219,86.7656 L1734.9219,84.6094 L1742.3125,84.6094 L1742.3125,86.7656 L1739.8438,86.7656 L1739.8438,94.8438 L1742.3125,94.8438 L1742.3125,97 L1734.9219,97 L1734.9219,94.8438 L1737.3906,94.8438 L1737.3906,86.7656 L1734.9219,86.7656 Z "/><text fill="#000000" font-family="sans-serif" font-size="12" font-style="italic" lengthAdjust="spacingAndGlyphs" textLength="64" x="1753" y="95.1543">AllVertices</text><!--MD5=[cf80cca85261d84eda43dbc026d5d8d1]
class AllIFNeurons--><rect fill="#FEFECE" filter="url(#fxe4j9u1vc8yf)" height="32" id="AllIFNeurons" style="stroke: #A80036; stroke-width: 1.5;" width="109" x="1724.5" y="277"/><ellipse cx="1739.5" cy="293" fill="#ADD1B2" rx="11" ry="11" style="stroke: #A80036; stroke-width: 1.0;"/><path d="M1742.4688,298.6406 Q1741.8906,298.9375 1741.25,299.0781 Q1740.6094,299.2344 1739.9063,299.2344 Q1737.4063,299.2344 1736.0781,297.5938 Q1734.7656,295.9375 1734.7656,292.8125 Q1734.7656,289.6875 1736.0781,288.0313 Q1737.4063,286.375 1739.9063,286.375 Q1740.6094,286.375 1741.25,286.5313 Q1741.9063,286.6875 1742.4688,286.9844 L1742.4688,289.7031 Q1741.8438,289.125 1741.25,288.8594 Q1740.6563,288.5781 1740.0313,288.5781 Q1738.6875,288.5781 1738,289.6563 Q1737.3125,290.7188 1737.3125,292.8125 Q1737.3125,294.9063 1738,295.9844 Q1738.6875,297.0469 1740.0313,297.0469 Q1740.6563,297.0469 1741.25,296.7813 Q1741.8438,296.5 1742.4688,295.9219 L1742.4688,298.6406 Z "/><text fill="#000000" font-family="sans-serif" font-size="12" lengthAdjust="spacingAndGlyphs" textLength="77" x="1753.5" y="297.1543">AllIFNeurons</text><!--MD5=[260384eea3996f96db9f0f616389f648]
class AllLiFNeurons--><rect fill="#FEFECE" filter="url(#fxe4j9u1vc8yf)" height="32" id="AllLiFNeurons" style="stroke: #A80036; stroke-width: 1.5;" width="115" x="1707.5" y="388"/><ellipse cx="1722.5" cy="404" fill="#ADD1B2" rx="11" ry="11" style="stroke: #A80036; stroke-width: 1.0;"/><path d="M1725.4688,409.6406 Q1724.8906,409.9375 1724.25,410.0781 Q1723.6094,410.2344 1722.9063,410.2344 Q1720.4063,410.2344 1719.0781,408.5938 Q1717.7656,406.9375 1717.7656,403.8125 Q1717.7656,400.6875 1719.0781,399.0313 Q1720.4063,397.375 1722.9063,397.375 Q1723.6094,397.375 1724.25,397.5313 Q1724.9063,397.6875 1725.4688,397.9844 L1725.4688,400.7031 Q1724.8438,400.125 1724.25,399.8594 Q1723.6563,399.5781 1723.0313,399.5781 Q1721.6875,399.5781 1721,400.6563 Q1720.3125,401.7188 1720.3125,403.8125 Q1720.3125,405.9063 1721,406.9844 Q1721.6875,408.0469 1723.0313,408.0469 Q1723.6563,408.0469 1724.25,407.7813 Q1724.8438,407.5 1725.4688,406.9219 L1725.4688,409.6406 Z "/><text fill="#000000" font-family="sans-serif" font-size="12" lengthAdjust="spacingAndGlyphs" textLength="83" x="1736.5" y="408.1543">AllLiFNeurons</text><!--MD5=[71b076a97ded1832bf674b3762bc7b75]
class AllZHNeurons--><rect fill="#FEFECE" filter="url(#fxe4j9u1vc8yf)" height="32" id="AllZHNeurons" style="stroke: #A80036; stroke-width: 1.5;" width="117" x="1857.5" y="388"/><ellipse cx="1872.5" cy="404" fill="#ADD1B2" rx="11" ry="11" style="stroke: #A80036; stroke-width: 1.0;"/><path d="M1875.4688,409.6406 Q1874.8906,409.9375 1874.25,410.0781 Q1873.6094,410.2344 1872.9063,410.2344 Q1870.4063,410.2344 1869.0781,408.5938 Q1867.7656,406.9375 1867.7656,403.8125 Q1867.7656,400.6875 1869.0781,399.0313 Q1870.4063,397.375 1872.9063,397.375 Q1873.6094,397.375 1874.25,397.5313 Q1874.9063,397.6875 1875.4688,397.9844 L1875.4688,400.7031 Q1874.8438,400.125 1874.25,399.8594 Q1873.6563,399.5781 1873.0313,399.5781 Q1871.6875,399.5781 1871,400.6563 Q1870.3125,401.7188 1870.3125,403.8125 Q1870.3125,405.9063 1871,406.9844 Q1871.6875,408.0469 1873.0313,408.0469 Q1873.6563,408.0469 1874.25,407.7813 Q1874.8438,407.5 1875.4688,406.9219 L1875.4688,409.6406 Z "/><text fill="#000000" font-family="sans-serif" font-size="12" lengthAdjust="spacingAndGlyphs" textLength="85" x="1886.5" y="408.1543">AllZHNeurons</text><!--MD5=[cc1c410fe2850b6da0ea695abfcea755]
class VerticesFactory--><rect fill="#FEFECE" filter="url(#fxe4j9u1vc8yf)" height="32" id="VerticesFactory" style="stroke: #A80036; stroke-width: 1.5;" width="129" x="1707.5" y="552"/><ellipse cx="1722.5" cy="568" fill="#ADD1B2" rx="11" ry="11" style="stroke: #A80036; stroke-width: 1.0;"/><path d="M1725.4688,573.6406 Q1724.8906,573.9375 1724.25,574.0781 Q1723.6094,574.2344 1722.9063,574.2344 Q1720.4063,574.2344 1719.0781,572.5938 Q1717.7656,570.9375 1717.7656,567.8125 Q1717.7656,564.6875 1719.0781,563.0313 Q1720.4063,561.375 1722.9063,561.375 Q1723.6094,561.375 1724.25,561.5313 Q1724.9063,561.6875 1725.4688,561.9844 L1725.4688,564.7031 Q1724.8438,564.125 1724.25,563.8594 Q1723.6563,563.5781 1723.0313,563.5781 Q1721.6875,563.5781 1721,564.6563 Q1720.3125,565.7188 1720.3125,567.8125 Q1720.3125,569.9063 1721,570.9844 Q1721.6875,572.0469 1723.0313,572.0469 Q1723.6563,572.0469 1724.25,571.7813 Q1724.8438,571.5 1725.4688,570.9219 L1725.4688,573.6406 Z "/><text fill="#000000" font-family="sans-serif" font-size="12" lengthAdjust="spacingAndGlyphs" textLength="97" x="1736.5" y="572.1543">VerticesFactory</text><!--MD5=[9af66c322c1a3c2f0b44834865e098f3]
class XmLRecorder--><rect fill="#FEFECE" filter="url(#fxe4j9u1vc8yf)" height="32" id="XmLRecorder" style="stroke: #A80036; stroke-width: 1.5;" width="113" x="668.5" y="762"/><ellipse cx="683.5" cy="778" fill="#ADD1B2" rx="11" ry="11" style="stroke: #A80036; stroke-width: 1.0;"/><path d="M686.4688,783.6406 Q685.8906,783.9375 685.25,784.0781 Q684.6094,784.2344 683.9063,784.2344 Q681.4063,784.2344 680.0781,782.5938 Q678.7656,780.9375 678.7656,777.8125 Q678.7656,774.6875 680.0781,773.0313 Q681.4063,771.375 683.9063,771.375 Q684.6094,771.375 685.25,771.5313 Q685.9063,771.6875 686.4688,771.9844 L686.4688,774.7031 Q685.8438,774.125 685.25,773.8594 Q684.6563,773.5781 684.0313,773.5781 Q682.6875,773.5781 682,774.6563 Q681.3125,775.7188 681.3125,777.8125 Q681.3125,779.9063 682,780.9844 Q682.6875,782.0469 684.0313,782.0469 Q684.6563,782.0469 685.25,781.7813 Q685.8438,781.5 686.4688,780.9219 L686.4688,783.6406 Z "/><text fill="#000000" font-family="sans-serif" font-size="12" lengthAdjust="spacingAndGlyphs" textLength="81" x="697.5" y="782.1543">XmLRecorder</text><!--MD5=[da7fc25461f009319ada69721cf8c2d1]
class Recorder--><rect fill="#FEFECE" filter="url(#fxe4j9u1vc8yf)" height="32" id="Recorder" style="stroke: #A80036; stroke-width: 1.5;" width="89" x="706.5" y="552"/><ellipse cx="721.5" cy="568" fill="#B4A7E5" rx="11" ry="11" style="stroke: #A80036; stroke-width: 1.0;"/><path d="M717.4219,563.7656 L717.4219,561.6094 L724.8125,561.6094 L724.8125,563.7656 L722.3438,563.7656 L722.3438,571.8438 L724.8125,571.8438 L724.8125,574 L717.4219,574 L717.4219,571.8438 L719.8906,571.8438 L719.8906,563.7656 L717.4219,563.7656 Z "/><text fill="#000000" font-family="sans-serif" font-size="12" font-style="italic" lengthAdjust="spacingAndGlyphs" textLength="57" x="735.5" y="572.1543">Recorder</text><!--MD5=[68c26e8dbee30e67a392826e30173ce1]
class HDF5Recorder--><rect fill="#FEFECE" filter="url(#fxe4j9u1vc8yf)" height="32" id="HDF5Recorder" style="stroke: #A80036; stroke-width: 1.5;" width="122" x="761" y="700"/><ellipse cx="776" cy="716" fill="#ADD1B2" rx="11" ry="11" style="stroke: #A80036; stroke-width: 1.0;"/><path d="M778.9688,721.6406 Q778.3906,721.9375 777.75,722.0781 Q777.1094,722.2344 776.4063,722.2344 Q773.9063,722.2344 772.5781,720.5938 Q771.2656,718.9375 771.2656,715.8125 Q771.2656,712.6875 772.5781,711.0313 Q773.9063,709.375 776.4063,709.375 Q777.1094,709.375 777.75,709.5313 Q778.4063,709.6875 778.9688,709.9844 L778.9688,712.7031 Q778.3438,712.125 777.75,711.8594 Q777.1563,711.5781 776.5313,711.5781 Q775.1875,711.5781 774.5,712.6563 Q773.8125,713.7188 773.8125,715.8125 Q773.8125,717.9063 774.5,718.9844 Q775.1875,720.0469 776.5313,720.0469 Q777.1563,720.0469 777.75,719.7813 Q778.3438,719.5 778.9688,718.9219 L778.9688,721.6406 Z "/><text fill="#000000" font-family="sans-serif" font-size="12" lengthAdjust="spacingAndGlyphs" textLength="90" x="790" y="720.1543">HDF5Recorder</text><!--MD5=[af68557a962a5f1f7548a7e590f8fd62]
class Hdf5GrowthRecorder--><rect fill="#FEFECE" filter="url(#fxe4j9u1vc8yf)" height="32" id="Hdf5GrowthRecorder" style="stroke: #A80036; stroke-width: 1.5;" width="162" x="742" y="824"/><ellipse cx="757" cy="840" fill="#ADD1B2" rx="11" ry="11" style="stroke: #A80036; stroke-width: 1.0;"/><path d="M759.9688,845.6406 Q759.3906,845.9375 758.75,846.0781 Q758.1094,846.2344 757.4063,846.2344 Q754.9063,846.2344 753.5781,844.5938 Q752.2656,842.9375 752.2656,839.8125 Q752.2656,836.6875 753.5781,835.0313 Q754.9063,833.375 757.4063,833.375 Q758.1094,833.375 758.75,833.5313 Q759.4063,833.6875 759.9688,833.9844 L759.9688,836.7031 Q759.3438,836.125 758.75,835.8594 Q758.1563,835.5781 757.5313,835.5781 Q756.1875,835.5781 755.5,836.6563 Q754.8125,837.7188 754.8125,839.8125 Q754.8125,841.9063 755.5,842.9844 Q756.1875,844.0469 757.5313,844.0469 Q758.1563,844.0469 758.75,843.7813 Q759.3438,843.5 759.9688,842.9219 L759.9688,845.6406 Z "/><text fill="#000000" font-family="sans-serif" font-size="12" lengthAdjust="spacingAndGlyphs" textLength="130" x="771" y="844.1543">Hdf5GrowthRecorder</text><!--MD5=[5309de41de0463c67105d9e754563b77]
class RecordersFactory--><rect fill="#FEFECE" filter="url(#fxe4j9u1vc8yf)" height="32" id="RecordersFactory" style="stroke: #A80036; stroke-width: 1.5;" width="142" x="677" y="1028"/><ellipse cx="692" cy="1044" fill="#ADD1B2" rx="11" ry="11" style="stroke: #A80036; stroke-width: 1.0;"/><path d="M694.9688,1049.6406 Q694.3906,1049.9375 693.75,1050.0781 Q693.1094,1050.2344 692.4063,1050.2344 Q689.9063,1050.2344 688.5781,1048.5938 Q687.2656,1046.9375 687.2656,1043.8125 Q687.2656,1040.6875 688.5781,1039.0313 Q689.9063,1037.375 692.4063,1037.375 Q693.1094,1037.375 693.75,1037.5313 Q694.4063,1037.6875 694.9688,1037.9844 L694.9688,1040.7031 Q694.3438,1040.125 693.75,1039.8594 Q693.1563,1039.5781 692.5313,1039.5781 Q691.1875,1039.5781 690.5,1040.6563 Q689.8125,1041.7188 689.8125,1043.8125 Q689.8125,1045.9063 690.5,1046.9844 Q691.1875,1048.0469 692.5313,1048.0469 Q693.1563,1048.0469 693.75,1047.7813 Q694.3438,1047.5 694.9688,1046.9219 L694.9688,1049.6406 Z "/><text fill="#000000" font-family="sans-serif" font-size="12" lengthAdjust="spacingAndGlyphs" textLength="110" x="706" y="1048.1543">RecordersFactory</text><!--MD5=[b671e9144a70d5380b4364952f259167]
class ConnStatic--><rect fill="#FEFECE" filter="url(#fxe4j9u1vc8yf)" height="32" id="ConnStatic" style="stroke: #A80036; stroke-width: 1.5;" width="100" x="1166" y="700"/><ellipse cx="1181" cy="716" fill="#ADD1B2" rx="11" ry="11" style="stroke: #A80036; stroke-width: 1.0;"/><path d="M1183.9688,721.6406 Q1183.3906,721.9375 1182.75,722.0781 Q1182.1094,722.2344 1181.4063,722.2344 Q1178.9063,722.2344 1177.5781,720.5938 Q1176.2656,718.9375 1176.2656,715.8125 Q1176.2656,712.6875 1177.5781,711.0313 Q1178.9063,709.375 1181.4063,709.375 Q1182.1094,709.375 1182.75,709.5313 Q1183.4063,709.6875 1183.9688,709.9844 L1183.9688,712.7031 Q1183.3438,712.125 1182.75,711.8594 Q1182.1563,711.5781 1181.5313,711.5781 Q1180.1875,711.5781 1179.5,712.6563 Q1178.8125,713.7188 1178.8125,715.8125 Q1178.8125,717.9063 1179.5,718.9844 Q1180.1875,720.0469 1181.5313,720.0469 Q1182.1563,720.0469 1182.75,719.7813 Q1183.3438,719.5 1183.9688,718.9219 L1183.9688,721.6406 Z "/><text fill="#000000" font-family="sans-serif" font-size="12" lengthAdjust="spacingAndGlyphs" textLength="68" x="1195" y="720.1543">ConnStatic</text><!--MD5=[24bb951fb6b9ac52df1580923e830244]
class Connections--><rect fill="#FEFECE" filter="url(#fxe4j9u1vc8yf)" height="32" id="Connections" style="stroke: #A80036; stroke-width: 1.5;" width="109" x="1156.5" y="552"/><ellipse cx="1171.5" cy="568" fill="#B4A7E5" rx="11" ry="11" style="stroke: #A80036; stroke-width: 1.0;"/><path d="M1167.4219,563.7656 L1167.4219,561.6094 L1174.8125,561.6094 L1174.8125,563.7656 L1172.3438,563.7656 L1172.3438,571.8438 L1174.8125,571.8438 L1174.8125,574 L1167.4219,574 L1167.4219,571.8438 L1169.8906,571.8438 L1169.8906,563.7656 L1167.4219,563.7656 Z "/><text fill="#000000" font-family="sans-serif" font-size="12" font-style="italic" lengthAdjust="spacingAndGlyphs" textLength="77" x="1185.5" y="572.1543">Connections</text><!--MD5=[540eab1ed52846d003b47757435df453]
class ConnGrowth--><rect fill="#FEFECE" filter="url(#fxe4j9u1vc8yf)" height="32" id="ConnGrowth" style="stroke: #A80036; stroke-width: 1.5;" width="108" x="1023" y="700"/><ellipse cx="1038" cy="716" fill="#ADD1B2" rx="11" ry="11" style="stroke: #A80036; stroke-width: 1.0;"/><path d="M1040.9688,721.6406 Q1040.3906,721.9375 1039.75,722.0781 Q1039.1094,722.2344 1038.4063,722.2344 Q1035.9063,722.2344 1034.5781,720.5938 Q1033.2656,718.9375 1033.2656,715.8125 Q1033.2656,712.6875 1034.5781,711.0313 Q1035.9063,709.375 1038.4063,709.375 Q1039.1094,709.375 1039.75,709.5313 Q1040.4063,709.6875 1040.9688,709.9844 L1040.9688,712.7031 Q1040.3438,712.125 1039.75,711.8594 Q1039.1563,711.5781 1038.5313,711.5781 Q1037.1875,711.5781 1036.5,712.6563 Q1035.8125,713.7188 1035.8125,715.8125 Q1035.8125,717.9063 1036.5,718.9844 Q1037.1875,720.0469 1038.5313,720.0469 Q1039.1563,720.0469 1039.75,719.7813 Q1040.3438,719.5 1040.9688,718.9219 L1040.9688,721.6406 Z "/><text fill="#000000" font-family="sans-serif" font-size="12" lengthAdjust="spacingAndGlyphs" textLength="76" x="1052" y="720.1543">ConnGrowth</text><!--MD5=[07560c205a8067cf69726ad645fec973]
class ConnectionsFactory--><rect fill="#FEFECE" filter="url(#fxe4j9u1vc8yf)" height="32" id="ConnectionsFactory" style="stroke: #A80036; stroke-width: 1.5;" width="156" x="1023" y="824"/><ellipse cx="1038" cy="840" fill="#ADD1B2" rx="11" ry="11" style="stroke: #A80036; stroke-width: 1.0;"/><path d="M1040.9688,845.6406 Q1040.3906,845.9375 1039.75,846.0781 Q1039.1094,846.2344 1038.4063,846.2344 Q1035.9063,846.2344 1034.5781,844.5938 Q1033.2656,842.9375 1033.2656,839.8125 Q1033.2656,836.6875 1034.5781,835.0313 Q1035.9063,833.375 1038.4063,833.375 Q1039.1094,833.375 1039.75,833.5313 Q1040.4063,833.6875 1040.9688,833.9844 L1040.9688,836.7031 Q1040.3438,836.125 1039.75,835.8594 Q1039.1563,835.5781 1038.5313,835.5781 Q1037.1875,835.5781 1036.5,836.6563 Q1035.8125,837.7188 1035.8125,839.8125 Q1035.8125,841.9063 1036.5,842.9844 Q1037.1875,844.0469 1038.5313,844.0469 Q1039.1563,844.0469 1039.75,843.7813 Q1040.3438,843.5 1040.9688,842.9219 L1040.9688,845.6406 Z "/><text fill="#000000" font-family="sans-serif" font-size="12" lengthAdjust="spacingAndGlyphs" textLength="124" x="1052" y="844.1543">ConnectionsFactory</text><!--MD5=[96f31d00847e9628d93d2720c47b9604]
class AllNeuroEdges--><rect fill="#FEFECE" filter="url(#fxe4j9u1vc8yf)" height="32" id="AllNeuroEdges" style="stroke: #A80036; stroke-width: 1.5;" width="123" x="1465.5" y="824"/><ellipse cx="1480.5" cy="840" fill="#ADD1B2" rx="11" ry="11" style="stroke: #A80036; stroke-width: 1.0;"/><path d="M1483.4688,845.6406 Q1482.8906,845.9375 1482.25,846.0781 Q1481.6094,846.2344 1480.9063,846.2344 Q1478.4063,846.2344 1477.0781,844.5938 Q1475.7656,842.9375 1475.7656,839.8125 Q1475.7656,836.6875 1477.0781,835.0313 Q1478.4063,833.375 1480.9063,833.375 Q1481.6094,833.375 1482.25,833.5313 Q1482.9063,833.6875 1483.4688,833.9844 L1483.4688,836.7031 Q1482.8438,836.125 1482.25,835.8594 Q1481.6563,835.5781 1481.0313,835.5781 Q1479.6875,835.5781 1479,836.6563 Q1478.3125,837.7188 1478.3125,839.8125 Q1478.3125,841.9063 1479,842.9844 Q1479.6875,844.0469 1481.0313,844.0469 Q1481.6563,844.0469 1482.25,843.7813 Q1482.8438,843.5 1483.4688,842.9219 L1483.4688,845.6406 Z "/><text fill="#000000" font-family="sans-serif" font-size="12" lengthAdjust="spacingAndGlyphs" textLength="91" x="1494.5" y="844.1543">AllNeuroEdges</text><!--MD5=[06f12ec46b87224fd0e1c514fed4a6e4]
class AllEdges--><rect fill="#FEFECE" filter="url(#fxe4j9u1vc8yf)" height="32" id="AllEdges" style="stroke: #A80036; stroke-width: 1.5;" width="84" x="1382" y="700"/><ellipse cx="1397" cy="716" fill="#B4A7E5" rx="11" ry="11" style="stroke: #A80036; stroke-width: 1.0;"/><path d="M1392.9219,711.7656 L1392.9219,709.6094 L1400.3125,709.6094 L1400.3125,711.7656 L1397.8438,711.7656 L1397.8438,719.8438 L1400.3125,719.8438 L1400.3125,722 L1392.9219,722 L1392.9219,719.8438 L1395.3906,719.8438 L1395.3906,711.7656 L1392.9219,711.7656 Z "/><text fill="#000000" font-family="sans-serif" font-size="12" font-style="italic" lengthAdjust="spacingAndGlyphs" textLength="52" x="1411" y="720.1543">AllEdges</text><!--MD5=[cfe37ad1a50a7dcaaf80645f5fb9fa69]
class AllSpikingSynapses--><rect fill="#FEFECE" filter="url(#fxe4j9u1vc8yf)" height="32" id="AllSpikingSynapses" style="stroke: #A80036; stroke-width: 1.5;" width="151" x="1475.5" y="935"/><ellipse cx="1490.5" cy="951" fill="#ADD1B2" rx="11" ry="11" style="stroke: #A80036; stroke-width: 1.0;"/><path d="M1493.4688,956.6406 Q1492.8906,956.9375 1492.25,957.0781 Q1491.6094,957.2344 1490.9063,957.2344 Q1488.4063,957.2344 1487.0781,955.5938 Q1485.7656,953.9375 1485.7656,950.8125 Q1485.7656,947.6875 1487.0781,946.0313 Q1488.4063,944.375 1490.9063,944.375 Q1491.6094,944.375 1492.25,944.5313 Q1492.9063,944.6875 1493.4688,944.9844 L1493.4688,947.7031 Q1492.8438,947.125 1492.25,946.8594 Q1491.6563,946.5781 1491.0313,946.5781 Q1489.6875,946.5781 1489,947.6563 Q1488.3125,948.7188 1488.3125,950.8125 Q1488.3125,952.9063 1489,953.9844 Q1489.6875,955.0469 1491.0313,955.0469 Q1491.6563,955.0469 1492.25,954.7813 Q1492.8438,954.5 1493.4688,953.9219 L1493.4688,956.6406 Z "/><text fill="#000000" font-family="sans-serif" font-size="12" lengthAdjust="spacingAndGlyphs" textLength="119" x="1504.5" y="955.1543">AllSpikingSynapses</text><!--MD5=[635988d62f36dba7a8b9baa086d12f03]
class AllSTDPSynapses--><rect fill="#FEFECE" filter="url(#fxe4j9u1vc8yf)" height="32" id="AllSTDPSynapses" style="stroke: #A80036; stroke-width: 1.5;" width="138" x="1482" y="1028"/><ellipse cx="1497" cy="1044" fill="#ADD1B2" rx="11" ry="11" style="stroke: #A80036; stroke-width: 1.0;"/><path d="M1499.9688,1049.6406 Q1499.3906,1049.9375 1498.75,1050.0781 Q1498.1094,1050.2344 1497.4063,1050.2344 Q1494.9063,1050.2344 1493.5781,1048.5938 Q1492.2656,1046.9375 1492.2656,1043.8125 Q1492.2656,1040.6875 1493.5781,1039.0313 Q1494.9063,1037.375 1497.4063,1037.375 Q1498.1094,1037.375 1498.75,1037.5313 Q1499.4063,1037.6875 1499.9688,1037.9844 L1499.9688,1040.7031 Q1499.3438,1040.125 1498.75,1039.8594 Q1498.1563,1039.5781 1497.5313,1039.5781 Q1496.1875,1039.5781 1495.5,1040.6563 Q1494.8125,1041.7188 1494.8125,1043.8125 Q1494.8125,1045.9063 1495.5,1046.9844 Q1496.1875,1048.0469 1497.5313,1048.0469 Q1498.1563,1048.0469 1498.75,1047.7813 Q1499.3438,1047.5 1499.9688,1046.9219 L1499.9688,1049.6406 Z "/><text fill="#000000" font-family="sans-serif" font-size="12" lengthAdjust="spacingAndGlyphs" textLength="106" x="1511" y="1048.1543">AllSTDPSynapses</text><!--MD5=[935a686a552498c9fe3db149d943753f]
class AllDSSynapses--><rect fill="#FEFECE" filter="url(#fxe4j9u1vc8yf)" height="32" id="AllDSSynapses" style="stroke: #A80036; stroke-width: 1.5;" width="123" x="1702.5" y="1028"/><ellipse cx="1717.5" cy="1044" fill="#ADD1B2" rx="11" ry="11" style="stroke: #A80036; stroke-width: 1.0;"/><path d="M1720.4688,1049.6406 Q1719.8906,1049.9375 1719.25,1050.0781 Q1718.6094,1050.2344 1717.9063,1050.2344 Q1715.4063,1050.2344 1714.0781,1048.5938 Q1712.7656,1046.9375 1712.7656,1043.8125 Q1712.7656,1040.6875 1714.0781,1039.0313 Q1715.4063,1037.375 1717.9063,1037.375 Q1718.6094,1037.375 1719.25,1037.5313 Q1719.9063,1037.6875 1720.4688,1037.9844 L1720.4688,1040.7031 Q1719.8438,1040.125 1719.25,1039.8594 Q1718.6563,1039.5781 1718.0313,1039.5781 Q1716.6875,1039.5781 1716,1040.6563 Q1715.3125,1041.7188 1715.3125,1043.8125 Q1715.3125,1045.9063 1716,1046.9844 Q1716.6875,1048.0469 1718.0313,1048.0469 Q1718.6563,1048.0469 1719.25,1047.7813 Q1719.8438,1047.5 1720.4688,1046.9219 L1720.4688,1049.6406 Z "/><text fill="#000000" font-family="sans-serif" font-size="12" lengthAdjust="spacingAndGlyphs" textLength="91" x="1731.5" y="1048.1543">AllDSSynapses</text><!--MD5=[fd6ea4ca2934104fc4a12eb686a910c8]
class AllDynamicsSTDPSynapses--><rect fill="#FEFECE" filter="url(#fxe4j9u1vc8yf)" height="32" id="AllDynamicsSTDPSynapses" style="stroke: #A80036; stroke-width: 1.5;" width="197" x="1372.5" y="1139"/><ellipse cx="1387.5" cy="1155" fill="#ADD1B2" rx="11" ry="11" style="stroke: #A80036; stroke-width: 1.0;"/><path d="M1390.4688,1160.6406 Q1389.8906,1160.9375 1389.25,1161.0781 Q1388.6094,1161.2344 1387.9063,1161.2344 Q1385.4063,1161.2344 1384.0781,1159.5938 Q1382.7656,1157.9375 1382.7656,1154.8125 Q1382.7656,1151.6875 1384.0781,1150.0313 Q1385.4063,1148.375 1387.9063,1148.375 Q1388.6094,1148.375 1389.25,1148.5313 Q1389.9063,1148.6875 1390.4688,1148.9844 L1390.4688,1151.7031 Q1389.8438,1151.125 1389.25,1150.8594 Q1388.6563,1150.5781 1388.0313,1150.5781 Q1386.6875,1150.5781 1386,1151.6563 Q1385.3125,1152.7188 1385.3125,1154.8125 Q1385.3125,1156.9063 1386,1157.9844 Q1386.6875,1159.0469 1388.0313,1159.0469 Q1388.6563,1159.0469 1389.25,1158.7813 Q1389.8438,1158.5 1390.4688,1157.9219 L1390.4688,1160.6406 Z "/><text fill="#000000" font-family="sans-serif" font-size="12" lengthAdjust="spacingAndGlyphs" textLength="165" x="1401.5" y="1159.1543">AllDynamicsSTDPSynapses</text><!--MD5=[2137c854024e09e8076c84fb007b1c3c]
class EdgesFactory--><rect fill="#FEFECE" filter="url(#fxe4j9u1vc8yf)" height="32" id="EdgesFactory" style="stroke: #A80036; stroke-width: 1.5;" width="117" x="1538.5" y="1248"/><ellipse cx="1553.5" cy="1264" fill="#ADD1B2" rx="11" ry="11" style="stroke: #A80036; stroke-width: 1.0;"/><path d="M1556.4688,1269.6406 Q1555.8906,1269.9375 1555.25,1270.0781 Q1554.6094,1270.2344 1553.9063,1270.2344 Q1551.4063,1270.2344 1550.0781,1268.5938 Q1548.7656,1266.9375 1548.7656,1263.8125 Q1548.7656,1260.6875 1550.0781,1259.0313 Q1551.4063,1257.375 1553.9063,1257.375 Q1554.6094,1257.375 1555.25,1257.5313 Q1555.9063,1257.6875 1556.4688,1257.9844 L1556.4688,1260.7031 Q1555.8438,1260.125 1555.25,1259.8594 Q1554.6563,1259.5781 1554.0313,1259.5781 Q1552.6875,1259.5781 1552,1260.6563 Q1551.3125,1261.7188 1551.3125,1263.8125 Q1551.3125,1265.9063 1552,1266.9844 Q1552.6875,1268.0469 1554.0313,1268.0469 Q1554.6563,1268.0469 1555.25,1267.7813 Q1555.8438,1267.5 1556.4688,1266.9219 L1556.4688,1269.6406 Z "/><text fill="#000000" font-family="sans-serif" font-size="12" lengthAdjust="spacingAndGlyphs" textLength="85" x="1567.5" y="1268.1543">EdgesFactory</text><!--MD5=[a2efe13f97b9395dfb70e2255bd52698]
class IRecorder--><rect fill="#FEFECE" filter="url(#fxe4j9u1vc8yf)" height="32" id="IRecorder" style="stroke: #A80036; stroke-width: 1.5;" width="92" x="569" y="388"/><ellipse cx="584" cy="404" fill="#ADD1B2" rx="11" ry="11" style="stroke: #A80036; stroke-width: 1.0;"/><path d="M586.9688,409.6406 Q586.3906,409.9375 585.75,410.0781 Q585.1094,410.2344 584.4063,410.2344 Q581.9063,410.2344 580.5781,408.5938 Q579.2656,406.9375 579.2656,403.8125 Q579.2656,400.6875 580.5781,399.0313 Q581.9063,397.375 584.4063,397.375 Q585.1094,397.375 585.75,397.5313 Q586.4063,397.6875 586.9688,397.9844 L586.9688,400.7031 Q586.3438,400.125 585.75,399.8594 Q585.1563,399.5781 584.5313,399.5781 Q583.1875,399.5781 582.5,400.6563 Q581.8125,401.7188 581.8125,403.8125 Q581.8125,405.9063 582.5,406.9844 Q583.1875,408.0469 584.5313,408.0469 Q585.1563,408.0469 585.75,407.7813 Q586.3438,407.5 586.9688,406.9219 L586.9688,409.6406 Z "/><text fill="#000000" font-family="sans-serif" font-size="12" lengthAdjust="spacingAndGlyphs" textLength="60" x="598" y="408.1543">IRecorder</text><!--MD5=[973c6b7f5e030bba668bdd48ca021633]
reverse link Model to CPUSpikingModel--><path d="M337.5,127.2 C337.5,127.2 337.5,167.99 337.5,167.99 " fill="none" id="Model&lt;-CPUSpikingModel" style="stroke: #A80036; stroke-width: 1.0; stroke-dasharray: 7.0,7.0;"/><polygon fill="none" points="330.5,127.2,337.5,107.2,344.5,127.2,330.5,127.2" style="stroke: #A80036; stroke-width: 1.0;"/><!--MD5=[9b59bd471ffb8f31c7aa79faa06b052a]
reverse link Model to GPUSpikingModel--><path d="M286.14,91 C286.14,91 124,91 124,91 C124,91 124,141.16 124,167.8 " fill="none" id="Model&lt;-GPUSpikingModel" style="stroke: #A80036; stroke-width: 1.0; stroke-dasharray: 7.0,7.0;"/><polygon fill="none" points="286.14,84,306.14,91,286.14,98,286.14,84" style="stroke: #A80036; stroke-width: 1.0;"/><!--MD5=[4261885617cbc7ccae7bbabfb2558444]
link Model to Simulator--><path d="M375.5,91 C375.5,91 397.45,91 397.45,91 " fill="none" id="Model-&gt;Simulator" style="stroke: #A80036; stroke-width: 1.0;"/><polygon fill="#FFFFFF" points="410.45,91,404.45,87,398.45,91,404.45,95,410.45,91" style="stroke: #A80036; stroke-width: 1.0;"/><!--MD5=[b4641bc02d5d8efe33d6033ed44bd980]
reverse link OperationManager to Operations--><path d="M351.15,293 C351.15,293 329.58,293 329.58,293 " fill="none" id="OperationManager&lt;-Operations" style="stroke: #A80036; stroke-width: 1.0;"/><polygon fill="#FFFFFF" points="364.15,293,358.15,289,352.15,293,358.15,297,364.15,293" style="stroke: #A80036; stroke-width: 1.0;"/><!--MD5=[e98819c6fcc605915f2efaee3c857d02]
link Simulator to OperationManager--><path d="M456,107.19 C456,107.19 456,271.73 456,271.73 " fill="none" id="Simulator-&gt;OperationManager" style="stroke: #A80036; stroke-width: 1.0;"/><polygon fill="#A80036" points="456,276.73,460,267.73,456,271.73,452,267.73,456,276.73" style="stroke: #A80036; stroke-width: 1.0;"/><text fill="#000000" font-family="sans-serif" font-size="13" lengthAdjust="spacingAndGlyphs" textLength="72" x="440" y="188.5669">commands</text><!--MD5=[b35dc4a9eded40af5f77166015eedcf0]
link CPUSpikingModel to GPUSpikingModel--><!--MD5=[1cea4de5324fc0a8457098da950d03ec]
link CPUSpikingModel to Operations--><!--MD5=[9593627a9002a106d0f96da7ffbf61a2]
link OperationManager to ParameterManager--><!--MD5=[891067ebdc7a855417ab5d2553f427ef]
reverse link Layout to FixedLayout--><path d="M1362.5,127.2 C1362.5,127.2 1362.5,167.99 1362.5,167.99 " fill="none" id="Layout&lt;-FixedLayout" style="stroke: #A80036; stroke-width: 1.0; stroke-dasharray: 7.0,7.0;"/><polygon fill="none" points="1355.5,127.2,1362.5,107.2,1369.5,127.2,1355.5,127.2" style="stroke: #A80036; stroke-width: 1.0;"/><!--MD5=[7269b632a17f4028eba21f1bd63939ed]
reverse link Layout to DynamicLayout--><path d="M1292.15,104 C1292.15,104 1200,104 1200,104 C1200,104 1200,144.43 1200,167.81 " fill="none" id="Layout&lt;-DynamicLayout" style="stroke: #A80036; stroke-width: 1.0; stroke-dasharray: 7.0,7.0;"/><polygon fill="none" points="1292.15,97,1312.15,104,1292.15,111,1292.15,97" style="stroke: #A80036; stroke-width: 1.0;"/><!--MD5=[46eb6d5f62098a9931e8efdb8e99157c]
reverse link FixedLayout to LayoutsFactory--><path d="M1335,205.08 C1335,205.08 1335,293 1335,293 C1335,293 1298.29,293 1263.15,293 " fill="none" id="FixedLayout&lt;-LayoutsFactory" style="stroke: #A80036; stroke-width: 1.0;"/><polygon fill="#A80036" points="1335,200.08,1331,209.08,1335,205.08,1339,209.08,1335,200.08" style="stroke: #A80036; stroke-width: 1.0;"/><text fill="#000000" font-family="sans-serif" font-size="13" lengthAdjust="spacingAndGlyphs" textLength="75" x="1323" y="243.0669">instantiates</text><!--MD5=[c9003fa7673fea298ac6dea79519d34f]
reverse link DynamicLayout to LayoutsFactory--><path d="M1200,205.08 C1200,205.08 1200,276.85 1200,276.85 " fill="none" id="DynamicLayout&lt;-LayoutsFactory" style="stroke: #A80036; stroke-width: 1.0;"/><polygon fill="#A80036" points="1200,200.08,1196,209.08,1200,205.08,1204,209.08,1200,200.08" style="stroke: #A80036; stroke-width: 1.0;"/><text fill="#000000" font-family="sans-serif" font-size="13" lengthAdjust="spacingAndGlyphs" textLength="75" x="1201" y="243.0669">instantiates</text><!--MD5=[f591e114573ccd2409f159b73ea72911]
reverse link AllVertices to AllSpikingNeurons--><path d="M1772,127.2 C1772,127.2 1772,167.99 1772,167.99 " fill="none" id="AllVertices&lt;-AllSpikingNeurons" style="stroke: #A80036; stroke-width: 1.0; stroke-dasharray: 7.0,7.0;"/><polygon fill="none" points="1765,127.2,1772,107.2,1779,127.2,1765,127.2" style="stroke: #A80036; stroke-width: 1.0;"/><!--MD5=[8724fdcf162cd93143062af7a28861a5]
reverse link AllSpikingNeurons to AllIFNeurons--><path d="M1779,220.08 C1779,220.08 1779,276.85 1779,276.85 " fill="none" id="AllSpikingNeurons&lt;-AllIFNeurons" style="stroke: #A80036; stroke-width: 1.0;"/><polygon fill="none" points="1772,220.08,1779,200.08,1786,220.08,1772,220.08" style="stroke: #A80036; stroke-width: 1.0;"/><!--MD5=[f5565d651accd6e6b1dad5fbc033ae63]
reverse link AllIFNeurons to AllLiFNeurons--><path d="M1773.5,329.38 C1773.5,329.38 1773.5,387.92 1773.5,387.92 " fill="none" id="AllIFNeurons&lt;-AllLiFNeurons" style="stroke: #A80036; stroke-width: 1.0;"/><polygon fill="none" points="1766.5,329.38,1773.5,309.38,1780.5,329.38,1766.5,329.38" style="stroke: #A80036; stroke-width: 1.0;"/><!--MD5=[62c6867a57863758a62158db896d0fc0]
reverse link AllIFNeurons to AllZHNeurons--><path d="M1829.83,329.1 C1829.83,329.1 1829.83,399 1829.83,399 C1829.83,399 1841.95,399 1857.1,399 " fill="none" id="AllIFNeurons&lt;-AllZHNeurons" style="stroke: #A80036; stroke-width: 1.0;"/><polygon fill="none" points="1822.83,329.1,1829.83,309.1,1836.83,329.1,1822.83,329.1" style="stroke: #A80036; stroke-width: 1.0;"/><!--MD5=[816076678d7e4925980428acffa4a6e0]
reverse link AllLiFNeurons to VerticesFactory--><path d="M1765,425.02 C1765,425.02 1765,551.67 1765,551.67 " fill="none" id="AllLiFNeurons&lt;-VerticesFactory" style="stroke: #A80036; stroke-width: 1.0;"/><polygon fill="#A80036" points="1765,420.02,1761,429.02,1765,425.02,1769,429.02,1765,420.02" style="stroke: #A80036; stroke-width: 1.0;"/><text fill="#000000" font-family="sans-serif" font-size="13" lengthAdjust="spacingAndGlyphs" textLength="75" x="1769" y="481.0669">instantiates</text><!--MD5=[3db3a0c82a3825d3c0c26b2962603658]
reverse link AllZHNeurons to VerticesFactory--><path d="M1852.33,410 C1852.33,410 1826.17,410 1826.17,410 C1826.17,410 1826.17,511.81 1826.17,551.98 " fill="none" id="AllZHNeurons&lt;-VerticesFactory" style="stroke: #A80036; stroke-width: 1.0;"/><polygon fill="#A80036" points="1857.33,410,1848.33,406,1852.33,410,1848.33,414,1857.33,410" style="stroke: #A80036; stroke-width: 1.0;"/><text fill="#000000" font-family="sans-serif" font-size="13" lengthAdjust="spacingAndGlyphs" textLength="75" x="1894" y="481.0669">instantiates</text><!--MD5=[16520218a3b5eef62fb8416182a783b3]
reverse link Recorder to XmLRecorder--><path d="M733.75,604.13 C733.75,604.13 733.75,761.82 733.75,761.82 " fill="none" id="Recorder&lt;-XmLRecorder" style="stroke: #A80036; stroke-width: 1.0; stroke-dasharray: 7.0,7.0;"/><polygon fill="none" points="726.75,604.13,733.75,584.13,740.75,604.13,726.75,604.13" style="stroke: #A80036; stroke-width: 1.0;"/><!--MD5=[52a577aad4db1cf7d2b852494df73e13]
reverse link Recorder to HDF5Recorder--><path d="M778.25,604.12 C778.25,604.12 778.25,699.9 778.25,699.9 " fill="none" id="Recorder&lt;-HDF5Recorder" style="stroke: #A80036; stroke-width: 1.0; stroke-dasharray: 7.0,7.0;"/><polygon fill="none" points="771.25,604.12,778.25,584.12,785.25,604.12,771.25,604.12" style="stroke: #A80036; stroke-width: 1.0;"/><!--MD5=[9a9f80ee8e039ba0cdc0509d1d0ec35e]
reverse link HDF5Recorder to Hdf5GrowthRecorder--><path d="M849.17,752.21 C849.17,752.21 849.17,823.79 849.17,823.79 " fill="none" id="HDF5Recorder&lt;-Hdf5GrowthRecorder" style="stroke: #A80036; stroke-width: 1.0;"/><polygon fill="none" points="842.17,752.21,849.17,732.21,856.17,752.21,842.17,752.21" style="stroke: #A80036; stroke-width: 1.0;"/><!--MD5=[3af4f1eecf578f95c361f55f01de5f0e]
reverse link XmLRecorder to RecordersFactory--><path d="M698.67,799.24 C698.67,799.24 698.67,1027.97 698.67,1027.97 " fill="none" id="XmLRecorder&lt;-RecordersFactory" style="stroke: #A80036; stroke-width: 1.0;"/><polygon fill="#A80036" points="698.67,794.24,694.67,803.24,698.67,799.24,702.67,803.24,698.67,794.24" style="stroke: #A80036; stroke-width: 1.0;"/><text fill="#000000" font-family="sans-serif" font-size="13" lengthAdjust="spacingAndGlyphs" textLength="75" x="704" y="901.0669">instantiates</text><!--MD5=[427f0813d0781cf9b4a277c1904c7c53]
reverse link HDF5Recorder to RecordersFactory--><path d="M815.33,737.2 C815.33,737.2 815.33,809 815.33,809 C815.33,809 720.33,809 720.33,809 C720.33,809 720.33,974.75 720.33,1027.85 " fill="none" id="HDF5Recorder&lt;-RecordersFactory" style="stroke: #A80036; stroke-width: 1.0;"/><polygon fill="#A80036" points="815.33,732.2,811.33,741.2,815.33,737.2,819.33,741.2,815.33,732.2" style="stroke: #A80036; stroke-width: 1.0;"/><text fill="#000000" font-family="sans-serif" font-size="13" lengthAdjust="spacingAndGlyphs" textLength="75" x="821" y="901.0669">instantiates</text><!--MD5=[4190e7fed19e1823e30f66c46aadd182]
reverse link Hdf5GrowthRecorder to RecordersFactory--><path d="M780.5,861.01 C780.5,861.01 780.5,1027.78 780.5,1027.78 " fill="none" id="Hdf5GrowthRecorder&lt;-RecordersFactory" style="stroke: #A80036; stroke-width: 1.0;"/><polygon fill="#A80036" points="780.5,856.01,776.5,865.01,780.5,861.01,784.5,865.01,780.5,856.01" style="stroke: #A80036; stroke-width: 1.0;"/><text fill="#000000" font-family="sans-serif" font-size="13" lengthAdjust="spacingAndGlyphs" textLength="75" x="828" y="955.5669">instantiates</text><!--MD5=[513ec0388948448dab3ce17eb36460f7]
reverse link Connections to ConnStatic--><path d="M1215.75,604.12 C1215.75,604.12 1215.75,699.9 1215.75,699.9 " fill="none" id="Connections&lt;-ConnStatic" style="stroke: #A80036; stroke-width: 1.0; stroke-dasharray: 7.0,7.0;"/><polygon fill="none" points="1208.75,604.12,1215.75,584.12,1222.75,604.12,1208.75,604.12" style="stroke: #A80036; stroke-width: 1.0;"/><!--MD5=[10477add2578806cc5f98b33b8db5e65]
reverse link Connections to ConnGrowth--><path d="M1161.25,604.12 C1161.25,604.12 1161.25,716 1161.25,716 C1161.25,716 1147.61,716 1131.31,716 " fill="none" id="Connections&lt;-ConnGrowth" style="stroke: #A80036; stroke-width: 1.0; stroke-dasharray: 7.0,7.0;"/><polygon fill="none" points="1154.25,604.12,1161.25,584.12,1168.25,604.12,1154.25,604.12" style="stroke: #A80036; stroke-width: 1.0;"/><!--MD5=[ce8801c2acd2b0d49ec9478c2a92b972]
reverse link ConnStatic to ConnectionsFactory--><path d="M1172.5,737.21 C1172.5,737.21 1172.5,823.79 1172.5,823.79 " fill="none" id="ConnStatic&lt;-ConnectionsFactory" style="stroke: #A80036; stroke-width: 1.0;"/><polygon fill="#A80036" points="1172.5,732.21,1168.5,741.21,1172.5,737.21,1176.5,741.21,1172.5,732.21" style="stroke: #A80036; stroke-width: 1.0;"/><text fill="#000000" font-family="sans-serif" font-size="13" lengthAdjust="spacingAndGlyphs" textLength="75" x="1190" y="782.5669">instantiates</text><!--MD5=[de55930b9c422267ee87a004d94dc6e8]
reverse link ConnGrowth to ConnectionsFactory--><path d="M1077,737.21 C1077,737.21 1077,823.79 1077,823.79 " fill="none" id="ConnGrowth&lt;-ConnectionsFactory" style="stroke: #A80036; stroke-width: 1.0;"/><polygon fill="#A80036" points="1077,732.21,1073,741.21,1077,737.21,1081,741.21,1077,732.21" style="stroke: #A80036; stroke-width: 1.0;"/><text fill="#000000" font-family="sans-serif" font-size="13" lengthAdjust="spacingAndGlyphs" textLength="75" x="1073" y="782.5669">instantiates</text><!--MD5=[36cebae4583ca589f8881f15eca879f1]
reverse link AllEdges to AllNeuroEdges--><path d="M1423.75,752.21 C1423.75,752.21 1423.75,840 1423.75,840 C1423.75,840 1443.34,840 1465.45,840 " fill="none" id="AllEdges&lt;-AllNeuroEdges" style="stroke: #A80036; stroke-width: 1.0; stroke-dasharray: 7.0,7.0;"/><polygon fill="none" points="1416.75,752.21,1423.75,732.21,1430.75,752.21,1416.75,752.21" style="stroke: #A80036; stroke-width: 1.0;"/><!--MD5=[3d383143b8365dcb1c00482aec0d8f87]
reverse link AllNeuroEdges to AllSpikingSynapses--><path d="M1532,876.38 C1532,876.38 1532,934.92 1532,934.92 " fill="none" id="AllNeuroEdges&lt;-AllSpikingSynapses" style="stroke: #A80036; stroke-width: 1.0;"/><polygon fill="none" points="1525,876.38,1532,856.38,1539,876.38,1525,876.38" style="stroke: #A80036; stroke-width: 1.0;"/><!--MD5=[587b9d07fbc4fdda6579551662042140]
reverse link AllSpikingSynapses to AllSTDPSynapses--><path d="M1551,987.2 C1551,987.2 1551,1027.99 1551,1027.99 " fill="none" id="AllSpikingSynapses&lt;-AllSTDPSynapses" style="stroke: #A80036; stroke-width: 1.0;"/><polygon fill="none" points="1544,987.2,1551,967.2,1558,987.2,1544,987.2" style="stroke: #A80036; stroke-width: 1.0;"/><!--MD5=[f221506eaa2e129ebcab2e085332c1be]
reverse link AllSpikingSynapses to AllDSSynapses--><path d="M1646.67,951 C1646.67,951 1766.5,951 1766.5,951 C1766.5,951 1766.5,1001.16 1766.5,1027.8 " fill="none" id="AllSpikingSynapses&lt;-AllDSSynapses" style="stroke: #A80036; stroke-width: 1.0;"/><polygon fill="none" points="1646.67,958,1626.67,951,1646.67,944,1646.67,958" style="stroke: #A80036; stroke-width: 1.0;"/><!--MD5=[b9dc5ca9d326f6b2e35f4ef44c514701]
reverse link AllSTDPSynapses to AllDynamicsSTDPSynapses--><path d="M1525.75,1080.38 C1525.75,1080.38 1525.75,1138.92 1525.75,1138.92 " fill="none" id="AllSTDPSynapses&lt;-AllDynamicsSTDPSynapses" style="stroke: #A80036; stroke-width: 1.0;"/><polygon fill="none" points="1518.75,1080.38,1525.75,1060.38,1532.75,1080.38,1518.75,1080.38" style="stroke: #A80036; stroke-width: 1.0;"/><!--MD5=[4407787554ed777fb67af52573db306c]
reverse link AllSTDPSynapses to EdgesFactory--><path d="M1594.75,1065.18 C1594.75,1065.18 1594.75,1247.8 1594.75,1247.8 " fill="none" id="AllSTDPSynapses&lt;-EdgesFactory" style="stroke: #A80036; stroke-width: 1.0;"/><polygon fill="#A80036" points="1594.75,1060.18,1590.75,1069.18,1594.75,1065.18,1598.75,1069.18,1594.75,1060.18" style="stroke: #A80036; stroke-width: 1.0;"/><text fill="#000000" font-family="sans-serif" font-size="13" lengthAdjust="spacingAndGlyphs" textLength="75" x="1641" y="1159.5669">instantiates</text><!--MD5=[541346a73ae12603d046e53bdf8cd025]
reverse link AllDSSynapses to EdgesFactory--><path d="M1697.49,1044 C1697.49,1044 1645.83,1044 1645.83,1044 C1645.83,1044 1645.83,1197.02 1645.83,1247.82 " fill="none" id="AllDSSynapses&lt;-EdgesFactory" style="stroke: #A80036; stroke-width: 1.0;"/><polygon fill="#A80036" points="1702.49,1044,1693.49,1040,1697.49,1044,1693.49,1048,1702.49,1044" style="stroke: #A80036; stroke-width: 1.0;"/><text fill="#000000" font-family="sans-serif" font-size="13" lengthAdjust="spacingAndGlyphs" textLength="75" x="1788" y="1159.5669">instantiates</text><!--MD5=[1104c1ad87384c985d15bad9d62e0bea]
reverse link AllDynamicsSTDPSynapses to EdgesFactory--><path d="M1554,1176.08 C1554,1176.08 1554,1247.85 1554,1247.85 " fill="none" id="AllDynamicsSTDPSynapses&lt;-EdgesFactory" style="stroke: #A80036; stroke-width: 1.0;"/><polygon fill="#A80036" points="1554,1171.08,1550,1180.08,1554,1176.08,1558,1180.08,1554,1171.08" style="stroke: #A80036; stroke-width: 1.0;"/><text fill="#000000" font-family="sans-serif" font-size="13" lengthAdjust="spacingAndGlyphs" textLength="75" x="1514" y="1214.0669">instantiates</text><!--MD5=[2c61cf99b0bec386ca840c193763b14a]
link Simulator to LayoutsFactory--><path d="M501.5,98 C516.07,98 528.5,98 528.5,98 C528.5,98 528.5,293 528.5,293 C528.5,293 1131.83,293 1131.83,293 " fill="none" id="Simulator-&gt;LayoutsFactory" style="stroke: #FF0000; stroke-width: 1.0;"/><polygon fill="#FF0000" points="1136.83,293,1127.83,289,1131.83,293,1127.83,297,1136.83,293" style="stroke: #FF0000; stroke-width: 1.0;"/><text fill="#000000" font-family="sans-serif" font-size="13" lengthAdjust="spacingAndGlyphs" textLength="72" x="945" y="188.5669">commands</text><!--MD5=[54271b6078ede2b7f4d9940e12d64874]
link Simulator to ConnectionsFactory--><path d="M501.93,95 C626.86,95 963.5,95 963.5,95 C963.5,95 963.5,840 963.5,840 C963.5,840 1017.61,840 1017.61,840 " fill="none" id="Simulator-&gt;ConnectionsFactory" style="stroke: #FF0000; stroke-width: 1.0;"/><polygon fill="#FF0000" points="1022.61,840,1013.61,836,1017.61,840,1013.61,844,1022.61,840" style="stroke: #FF0000; stroke-width: 1.0;"/><text fill="#000000" font-family="sans-serif" font-size="13" lengthAdjust="spacingAndGlyphs" textLength="72" x="874" y="408.5669">commands</text><!--MD5=[b713f3d69270fc8ec7550a1fa12578d8]
link Simulator to RecordersFactory--><path d="M501.85,101 C512.61,101 521,101 521,101 C521,101 521,1044 521,1044 C521,1044 671.8,1044 671.8,1044 " fill="none" id="Simulator-&gt;RecordersFactory" style="stroke: #FF0000; stroke-width: 1.0;"/><polygon fill="#FF0000" points="676.8,1044,667.8,1040,671.8,1044,667.8,1048,676.8,1044" style="stroke: #FF0000; stroke-width: 1.0;"/><text fill="#000000" font-family="sans-serif" font-size="13" lengthAdjust="spacingAndGlyphs" textLength="72" x="536" y="572.5669">commands</text><!--MD5=[a911b337811af7fd7ce810fac5ac8c54]
reverse link Model to Layout--><path d="M372,120.34 C372,120.34 372,128 372,128 C372,128 1337.5,128 1337.5,128 C1337.5,128 1337.5,117.25 1337.5,107.34 " fill="none" id="Model&lt;-Layout" style="stroke: #FF0000; stroke-width: 1.0;"/><polygon fill="#FFFFFF" points="372,107.34,368,113.34,372,119.34,376,113.34,372,107.34" style="stroke: #FF0000; stroke-width: 1.0;"/><!--MD5=[0e5738770afdb953f3cb9465cb228f84]
reverse link Model to Connections--><path d="M373.75,120.2 C373.75,120.2 373.75,184 373.75,184 C373.75,184 839.25,184 839.25,184 C839.25,184 839.25,568 839.25,568 C839.25,568 1052.74,568 1156.15,568 " fill="none" id="Model&lt;-Connections" style="stroke: #FF0000; stroke-width: 1.0;"/><polygon fill="#FFFFFF" points="373.75,107.2,369.75,113.2,373.75,119.2,377.75,113.2,373.75,107.2" style="stroke: #FF0000; stroke-width: 1.0;"/><!--MD5=[68c77613e519ddb3f64ca187dac87597]
reverse link Model to IRecorder--><path d="M370.25,120.18 C370.25,120.18 370.25,148 370.25,148 C370.25,148 615,148 615,148 C615,148 615,331.94 615,387.99 " fill="none" id="Model&lt;-IRecorder" style="stroke: #FF0000; stroke-width: 1.0;"/><polygon fill="#FFFFFF" points="370.25,107.18,366.25,113.18,370.25,119.18,374.25,113.18,370.25,107.18" style="stroke: #FF0000; stroke-width: 1.0;"/><!--MD5=[efb7ef13657b6fc949565044919673f3]
reverse link Layout to AllVertices--><path d="M1400.82,83 C1400.82,83 1723.89,83 1723.89,83 " fill="none" id="Layout&lt;-AllVertices" style="stroke: #FF0000; stroke-width: 1.0;"/><polygon fill="#FFFFFF" points="1387.82,83,1393.82,87,1399.82,83,1393.82,79,1387.82,83" style="stroke: #FF0000; stroke-width: 1.0;"/><!--MD5=[30ebdb8fe104fc5727699212f68639a3]
link Layout to VerticesFactory--><path d="M1387.75,100 C1401.73,100 1414.25,100 1414.25,100 C1414.25,100 1414.25,559 1414.25,559 C1414.25,559 1702.21,559 1702.21,559 " fill="none" id="Layout-&gt;VerticesFactory" style="stroke: #FF0000; stroke-width: 1.0;"/><polygon fill="#FF0000" points="1707.21,559,1698.21,555,1702.21,559,1698.21,563,1707.21,559" style="stroke: #FF0000; stroke-width: 1.0;"/><text fill="#000000" font-family="sans-serif" font-size="13" lengthAdjust="spacingAndGlyphs" textLength="72" x="1457" y="297.5669">commands</text><!--MD5=[25007e0d6d2bc2691ed586569b6b25e2]
reverse link Connections to AllEdges--><path d="M1278.87,578 C1278.87,578 1392.25,578 1392.25,578 C1392.25,578 1392.25,663.5 1392.25,699.9 " fill="none" id="Connections&lt;-AllEdges" style="stroke: #FF0000; stroke-width: 1.0;"/><polygon fill="#FFFFFF" points="1265.87,578,1271.87,582,1277.87,578,1271.87,574,1265.87,578" style="stroke: #FF0000; stroke-width: 1.0;"/><!--MD5=[485b9368dfec1399f74485e1b2980e82]
link Connections to EdgesFactory--><path d="M1265.71,572 C1380.54,572 1636.17,572 1636.17,572 C1636.17,572 1636.17,1242.91 1636.17,1242.91 " fill="none" id="Connections-&gt;EdgesFactory" style="stroke: #FF0000; stroke-width: 1.0;"/><polygon fill="#FF0000" points="1636.17,1247.91,1640.17,1238.91,1636.17,1242.91,1632.17,1238.91,1636.17,1247.91" style="stroke: #FF0000; stroke-width: 1.0;"/><text fill="#000000" font-family="sans-serif" font-size="13" lengthAdjust="spacingAndGlyphs" textLength="72" x="1320" y="955.5669">commands</text><!--MD5=[d95cba7a564e0eb2f945d9455f1e08a4]
link Core to Layouts--><!--MD5=[3a074d6a93e7e88a957dba9b80e50081]
link Layouts to Vertices--><!--MD5=[42be6bbbc523329e8d13badc94475598]
link Core to Recorders--><!--MD5=[9f00652237e409965a409b02122331f2]
link Layouts to Connections--><!--MD5=[e07bd046f8fc72b6c553dc19b1427184]
link Vertices to Edges--><!--MD5=[aab9caacdb8576b171487a4f10f6b98f]
@startuml package UML

skinparam linetype ortho
hide members

package Core{
   class Simulator
   class CPUSpikingModel implements Model
   class GPUSpikingModel implements Model
   class Operations
   class OperationManager 
   class ParameterManager 

   Model -left-o Simulator 
   Operations -right-o OperationManager   
   Simulator - - -> OperationManager : commands 
  
   CPUSpikingModel -[hidden]right> GPUSpikingModel
   CPUSpikingModel -[hidden]-> Operations
   OperationManager -[hidden]-> ParameterManager
}

package Layouts{
   class FixedLayout implements Layout
   class DynamicLayout implements Layout
   class LayoutsFactory
   FixedLayout <- - LayoutsFactory : instantiates
   DynamicLayout <- - LayoutsFactory : instantiates
}

package Vertices{
   class AllSpikingNeurons implements AllVertices
   class AllIFNeurons extends AllSpikingNeurons
   class AllLiFNeurons extends AllIFNeurons
   class AllZHNeurons extends AllIFNeurons
   class VerticesFactory 
   VerticesFactory -up-> AllLiFNeurons : instantiates
   VerticesFactory -up-> AllZHNeurons : instantiates
}

package Recorders{
   class  XmLRecorder implements Recorder
   class HDF5Recorder implements Recorder
   class Hdf5GrowthRecorder extends HDF5Recorder
   class RecordersFactory
   XmLRecorder <- - RecordersFactory : instantiates
   HDF5Recorder <- - RecordersFactory : instantiates
   Hdf5GrowthRecorder <- - - RecordersFactory : instantiates
}

package Connections{
   class ConnStatic implements Connections
   class ConnGrowth Implements Connections
   class ConnectionsFactory
   ConnectionsFactory - -up> ConnStatic : instantiates
   ConnectionsFactory - -up> ConnGrowth  : instantiates
}

package Edges{
   class AllNeuroEdges implements AllEdges
   class AllSpikingSynapses extends AllNeuroEdges
   class AllSTDPSynapses extends AllSpikingSynapses
   class AllDSSynapses extends AllSpikingSynapses
   class AllDynamicsSTDPSynapses extends AllSTDPSynapses
   class EdgesFactory
   EdgesFactory - -up-> AllSTDPSynapses : instantiates
   EdgesFactory - -up-> AllDSSynapses : instantiates
   EdgesFactory - -up> AllDynamicsSTDPSynapses : instantiates
}

Simulator -[#red]-> LayoutsFactory : commands
Simulator -[#red]- - - -> ConnectionsFactory: commands
Simulator -[#red]- - - -> RecordersFactory: commands
Model o-[#red] Layout
Model o-[#red]- - Connections
Model o-[#red]- - - IRecorder

Layout o-[#red] AllVertices
Layout -[#red]- - -> VerticesFactory : commands

Connections o-[#red]- AllEdges
Connections -[#red]- - -> EdgesFactory : commands

Core -[hidden]right>  Layouts
Layouts -[hidden]right> Vertices
Core -[hidden]down- - - -> Recorders
Layouts -[hidden]down- - - -> Connections
Vertices -[hidden]down- - - - -> Edges
@enduml

PlantUML version 1.2020.02(Sun Mar 01 10:22:07 GMT 2020)
(GPL source distribution)
Java Runtime: OpenJDK Runtime Environment
JVM: OpenJDK 64-Bit Server VM
Java Version: 11.0.9+11-Ubuntu-0ubuntu1
Operating System: Linux
Default Encoding: ANSI_X3.4-1968
Language: en
Country: US
--></g></svg>