<?xml version="1.0" encoding="UTF-8" standalone="no"?><svg xmlns="http://www.w3.org/2000/svg" xmlns:xlink="http://www.w3.org/1999/xlink" contentScriptType="application/ecmascript" contentStyleType="text/css" height="1270px" preserveAspectRatio="none" style="width:1637px;height:1270px;" version="1.1" viewBox="0 0 1637 1270" width="1637px" zoomAndPan="magnify"><defs><filter height="300%" id="fqxmx5kvdl6fy" width="300%" x="-1" y="-1"><feGaussianBlur result="blurOut" stdDeviation="2.0"/><feColorMatrix in="blurOut" result="blurOut2" type="matrix" values="0 0 0 0 0 0 0 0 0 0 0 0 0 0 0 0 0 0 .4 0"/><feOffset dx="4.0" dy="4.0" in="blurOut2" result="blurOut3"/><feBlend in="SourceGraphic" in2="blurOut3" mode="normal"/></filter></defs><g><!--MD5=[2c2e2644034c00788261e03c85b06837]
cluster Core--><polygon fill="#FFFFFF" filter="url(#fqxmx5kvdl6fy)" points="35,6,73,6,80,28.2969,521,28.2969,521,418,35,418,35,6" style="stroke:#000000;stroke-width:1.5;"/><line style="stroke:#000000;stroke-width:1.5;" x1="35" x2="80" y1="28.2969" y2="28.2969"/><text fill="#000000" font-family="sans-serif" font-size="14" font-weight="bold" lengthAdjust="spacingAndGlyphs" textLength="32" x="39" y="20.9951">Core</text><!--MD5=[bcaa2b9ff15208c4e2012dff6dfdc182]
cluster Layouts--><polygon fill="#FFFFFF" filter="url(#fqxmx5kvdl6fy)" points="863,6,925,6,932,28.2969,1166,28.2969,1166,307,863,307,863,6" style="stroke:#000000;stroke-width:1.5;"/><line style="stroke:#000000;stroke-width:1.5;" x1="863" x2="932" y1="28.2969" y2="28.2969"/><text fill="#000000" font-family="sans-serif" font-size="14" font-weight="bold" lengthAdjust="spacingAndGlyphs" textLength="56" x="867" y="20.9951">Layouts</text><!--MD5=[8d26bb35548c3dcbc6e480db6528a15a]
cluster Vertices--><polygon fill="#FFFFFF" filter="url(#fqxmx5kvdl6fy)" points="1301,6,1363,6,1370,28.2969,1605,28.2969,1605,582,1301,582,1301,6" style="stroke:#000000;stroke-width:1.5;"/><line style="stroke:#000000;stroke-width:1.5;" x1="1301" x2="1370" y1="28.2969" y2="28.2969"/><text fill="#000000" font-family="sans-serif" font-size="14" font-weight="bold" lengthAdjust="spacingAndGlyphs" textLength="56" x="1305" y="20.9951">Vertices</text><!--MD5=[9168128f11ea68e0eeae1bee9b5f58d3]
cluster Recorders--><polygon fill="#FFFFFF" filter="url(#fqxmx5kvdl6fy)" points="35,483,110,483,117,505.2969,488,505.2969,488,1043,35,1043,35,483" style="stroke:#000000;stroke-width:1.5;"/><line style="stroke:#000000;stroke-width:1.5;" x1="35" x2="117" y1="505.2969" y2="505.2969"/><text fill="#000000" font-family="sans-serif" font-size="14" font-weight="bold" lengthAdjust="spacingAndGlyphs" textLength="69" x="39" y="497.9951">Recorders</text><!--MD5=[3a4496162e4aa4b8f639c92517849365]
cluster Connections--><polygon fill="#FFFFFF" filter="url(#fqxmx5kvdl6fy)" points="782,491,875,491,882,513.2969,1040,513.2969,1040,831,782,831,782,491" style="stroke:#000000;stroke-width:1.5;"/><line style="stroke:#000000;stroke-width:1.5;" x1="782" x2="882" y1="513.2969" y2="513.2969"/><text fill="#000000" font-family="sans-serif" font-size="14" font-weight="bold" lengthAdjust="spacingAndGlyphs" textLength="87" x="786" y="505.9951">Connections</text><!--MD5=[a69b11994f1325ca382ee696cdd1fd0b]
cluster Edges--><polygon fill="#FFFFFF" filter="url(#fqxmx5kvdl6fy)" points="1106,631,1152,631,1159,653.2969,1620,653.2969,1620,1263,1106,1263,1106,631" style="stroke:#000000;stroke-width:1.5;"/><line style="stroke:#000000;stroke-width:1.5;" x1="1106" x2="1159" y1="653.2969" y2="653.2969"/><text fill="#000000" font-family="sans-serif" font-size="14" font-weight="bold" lengthAdjust="spacingAndGlyphs" textLength="40" x="1110" y="645.9951">Edges</text><!--MD5=[e78d3bd29d68b8fbdb4aae8710e3db25]
class Simulator--><rect codeLine="10" fill="#FEFECE" filter="url(#fqxmx5kvdl6fy)" height="32" id="Simulator" style="stroke:#A80036;stroke-width:1.5;" width="85" x="379.5" y="49"/><ellipse cx="394.5" cy="65" fill="#ADD1B2" rx="11" ry="11" style="stroke:#A80036;stroke-width:1.0;"/><path d="M394.4375,60.8281 Q393.6875,60.8281 393.125,61.125 Q392.5625,61.4063 392.1719,61.9375 Q391.7813,62.4688 391.5781,63.25 Q391.3906,64.0156 391.3906,64.9688 Q391.3906,65.9375 391.5625,66.7031 Q391.75,67.4531 392.1094,67.9688 Q392.4844,68.4844 393.0625,68.7656 Q393.6406,69.0313 394.4375,69.0313 Q395.1719,69.0313 395.9063,68.8594 Q396.6563,68.6875 397.5313,68.3906 L397.5313,70.5469 Q397.125,70.7031 396.7344,70.8281 Q396.3438,70.9375 395.9375,71.0156 Q395.5313,71.0938 395.1094,71.125 Q394.6875,71.1719 394.1875,71.1719 Q392.7813,71.1719 391.75,70.7188 Q390.7344,70.2656 390.0625,69.4531 Q389.3906,68.6406 389.0625,67.5 Q388.7344,66.3438 388.7344,64.9531 Q388.7344,63.5781 389.1094,62.4219 Q389.4844,61.2656 390.2031,60.4375 Q390.9219,59.6094 391.9844,59.1563 Q393.0469,58.6875 394.4375,58.6875 Q395.3438,58.6875 396.25,58.9219 Q397.1563,59.1406 397.9844,59.5469 L397.1563,61.6406 Q396.4688,61.3125 395.7813,61.0781 Q395.0938,60.8281 394.4375,60.8281 Z " fill="#000000"/><text fill="#000000" font-family="sans-serif" font-size="12" lengthAdjust="spacingAndGlyphs" textLength="53" x="408.5" y="69.1543">Simulator</text><!--MD5=[0b94f3229ccc3f95d40f9de2aafb3991]
class CPUSpikingModel--><rect codeLine="11" fill="#FEFECE" filter="url(#fqxmx5kvdl6fy)" height="32" id="CPUSpikingModel" style="stroke:#A80036;stroke-width:1.5;" width="128" x="224" y="142"/><ellipse cx="239" cy="158" fill="#ADD1B2" rx="11" ry="11" style="stroke:#A80036;stroke-width:1.0;"/><path d="M238.9375,153.8281 Q238.1875,153.8281 237.625,154.125 Q237.0625,154.4063 236.6719,154.9375 Q236.2813,155.4688 236.0781,156.25 Q235.8906,157.0156 235.8906,157.9688 Q235.8906,158.9375 236.0625,159.7031 Q236.25,160.4531 236.6094,160.9688 Q236.9844,161.4844 237.5625,161.7656 Q238.1406,162.0313 238.9375,162.0313 Q239.6719,162.0313 240.4063,161.8594 Q241.1563,161.6875 242.0313,161.3906 L242.0313,163.5469 Q241.625,163.7031 241.2344,163.8281 Q240.8438,163.9375 240.4375,164.0156 Q240.0313,164.0938 239.6094,164.125 Q239.1875,164.1719 238.6875,164.1719 Q237.2813,164.1719 236.25,163.7188 Q235.2344,163.2656 234.5625,162.4531 Q233.8906,161.6406 233.5625,160.5 Q233.2344,159.3438 233.2344,157.9531 Q233.2344,156.5781 233.6094,155.4219 Q233.9844,154.2656 234.7031,153.4375 Q235.4219,152.6094 236.4844,152.1563 Q237.5469,151.6875 238.9375,151.6875 Q239.8438,151.6875 240.75,151.9219 Q241.6563,152.1406 242.4844,152.5469 L241.6563,154.6406 Q240.9688,154.3125 240.2813,154.0781 Q239.5938,153.8281 238.9375,153.8281 Z " fill="#000000"/><text fill="#000000" font-family="sans-serif" font-size="12" lengthAdjust="spacingAndGlyphs" textLength="96" x="253" y="162.1543">CPUSpikingModel</text><!--MD5=[7e20e022571e30ec1001cf6eabd7f3e2]
class Model--><rect fill="#FEFECE" filter="url(#fqxmx5kvdl6fy)" height="32" id="Model" style="stroke:#A80036;stroke-width:1.5;" width="67" x="271.5" y="49"/><ellipse cx="286.5" cy="65" fill="#B4A7E5" rx="11" ry="11" style="stroke:#A80036;stroke-width:1.0;"/><path d="M289.0625,71 L283.5469,71 L283.5469,69.5313 L285.0313,68.8594 L285.0313,61 L283.5469,60.3281 L283.5469,58.8594 L289.0625,58.8594 L289.0625,60.3281 L287.5938,61 L287.5938,68.8594 L289.0625,69.5313 L289.0625,71 Z " fill="#000000"/><text fill="#000000" font-family="sans-serif" font-size="12" font-style="italic" lengthAdjust="spacingAndGlyphs" textLength="35" x="300.5" y="69.1543">Model</text><!--MD5=[9f94b75dce46dbb71fc5aed3e87d7d49]
class GPUSpikingModel--><rect codeLine="12" fill="#FEFECE" filter="url(#fqxmx5kvdl6fy)" height="32" id="GPUSpikingModel" style="stroke:#A80036;stroke-width:1.5;" width="129" x="59.5" y="142"/><ellipse cx="74.5" cy="158" fill="#ADD1B2" rx="11" ry="11" style="stroke:#A80036;stroke-width:1.0;"/><path d="M74.4375,153.8281 Q73.6875,153.8281 73.125,154.125 Q72.5625,154.4063 72.1719,154.9375 Q71.7813,155.4688 71.5781,156.25 Q71.3906,157.0156 71.3906,157.9688 Q71.3906,158.9375 71.5625,159.7031 Q71.75,160.4531 72.1094,160.9688 Q72.4844,161.4844 73.0625,161.7656 Q73.6406,162.0313 74.4375,162.0313 Q75.1719,162.0313 75.9063,161.8594 Q76.6563,161.6875 77.5313,161.3906 L77.5313,163.5469 Q77.125,163.7031 76.7344,163.8281 Q76.3438,163.9375 75.9375,164.0156 Q75.5313,164.0938 75.1094,164.125 Q74.6875,164.1719 74.1875,164.1719 Q72.7813,164.1719 71.75,163.7188 Q70.7344,163.2656 70.0625,162.4531 Q69.3906,161.6406 69.0625,160.5 Q68.7344,159.3438 68.7344,157.9531 Q68.7344,156.5781 69.1094,155.4219 Q69.4844,154.2656 70.2031,153.4375 Q70.9219,152.6094 71.9844,152.1563 Q73.0469,151.6875 74.4375,151.6875 Q75.3438,151.6875 76.25,151.9219 Q77.1563,152.1406 77.9844,152.5469 L77.1563,154.6406 Q76.4688,154.3125 75.7813,154.0781 Q75.0938,153.8281 74.4375,153.8281 Z " fill="#000000"/><text fill="#000000" font-family="sans-serif" font-size="12" lengthAdjust="spacingAndGlyphs" textLength="97" x="88.5" y="162.1543">GPUSpikingModel</text><!--MD5=[fdf81c1c7218c7a86b85d500a2db5e87]
class Operations--><rect codeLine="13" fill="#FEFECE" filter="url(#fqxmx5kvdl6fy)" height="32" id="Operations" style="stroke:#A80036;stroke-width:1.5;" width="93" x="224.5" y="251"/><ellipse cx="239.5" cy="267" fill="#ADD1B2" rx="11" ry="11" style="stroke:#A80036;stroke-width:1.0;"/><path d="M239.4375,262.8281 Q238.6875,262.8281 238.125,263.125 Q237.5625,263.4063 237.1719,263.9375 Q236.7813,264.4688 236.5781,265.25 Q236.3906,266.0156 236.3906,266.9688 Q236.3906,267.9375 236.5625,268.7031 Q236.75,269.4531 237.1094,269.9688 Q237.4844,270.4844 238.0625,270.7656 Q238.6406,271.0313 239.4375,271.0313 Q240.1719,271.0313 240.9063,270.8594 Q241.6563,270.6875 242.5313,270.3906 L242.5313,272.5469 Q242.125,272.7031 241.7344,272.8281 Q241.3438,272.9375 240.9375,273.0156 Q240.5313,273.0938 240.1094,273.125 Q239.6875,273.1719 239.1875,273.1719 Q237.7813,273.1719 236.75,272.7188 Q235.7344,272.2656 235.0625,271.4531 Q234.3906,270.6406 234.0625,269.5 Q233.7344,268.3438 233.7344,266.9531 Q233.7344,265.5781 234.1094,264.4219 Q234.4844,263.2656 235.2031,262.4375 Q235.9219,261.6094 236.9844,261.1563 Q238.0469,260.6875 239.4375,260.6875 Q240.3438,260.6875 241.25,260.9219 Q242.1563,261.1406 242.9844,261.5469 L242.1563,263.6406 Q241.4688,263.3125 240.7813,263.0781 Q240.0938,262.8281 239.4375,262.8281 Z " fill="#000000"/><text fill="#000000" font-family="sans-serif" font-size="12" lengthAdjust="spacingAndGlyphs" textLength="61" x="253.5" y="271.1543">Operations</text><!--MD5=[314e3b7c2db0a5a356d5ece57f37d58b]
class OperationManager--><rect codeLine="14" fill="#FEFECE" filter="url(#fqxmx5kvdl6fy)" height="32" id="OperationManager" style="stroke:#A80036;stroke-width:1.5;" width="136" x="353" y="251"/><ellipse cx="368" cy="267" fill="#ADD1B2" rx="11" ry="11" style="stroke:#A80036;stroke-width:1.0;"/><path d="M367.9375,262.8281 Q367.1875,262.8281 366.625,263.125 Q366.0625,263.4063 365.6719,263.9375 Q365.2813,264.4688 365.0781,265.25 Q364.8906,266.0156 364.8906,266.9688 Q364.8906,267.9375 365.0625,268.7031 Q365.25,269.4531 365.6094,269.9688 Q365.9844,270.4844 366.5625,270.7656 Q367.1406,271.0313 367.9375,271.0313 Q368.6719,271.0313 369.4063,270.8594 Q370.1563,270.6875 371.0313,270.3906 L371.0313,272.5469 Q370.625,272.7031 370.2344,272.8281 Q369.8438,272.9375 369.4375,273.0156 Q369.0313,273.0938 368.6094,273.125 Q368.1875,273.1719 367.6875,273.1719 Q366.2813,273.1719 365.25,272.7188 Q364.2344,272.2656 363.5625,271.4531 Q362.8906,270.6406 362.5625,269.5 Q362.2344,268.3438 362.2344,266.9531 Q362.2344,265.5781 362.6094,264.4219 Q362.9844,263.2656 363.7031,262.4375 Q364.4219,261.6094 365.4844,261.1563 Q366.5469,260.6875 367.9375,260.6875 Q368.8438,260.6875 369.75,260.9219 Q370.6563,261.1406 371.4844,261.5469 L370.6563,263.6406 Q369.9688,263.3125 369.2813,263.0781 Q368.5938,262.8281 367.9375,262.8281 Z " fill="#000000"/><text fill="#000000" font-family="sans-serif" font-size="12" lengthAdjust="spacingAndGlyphs" textLength="104" x="382" y="271.1543">OperationManager</text><!--MD5=[eb1da731c4a897e81e143002ff161e69]
class ParameterManager--><rect codeLine="15" fill="#FEFECE" filter="url(#fqxmx5kvdl6fy)" height="32" id="ParameterManager" style="stroke:#A80036;stroke-width:1.5;" width="139" x="332.5" y="362"/><ellipse cx="347.5" cy="378" fill="#ADD1B2" rx="11" ry="11" style="stroke:#A80036;stroke-width:1.0;"/><path d="M347.4375,373.8281 Q346.6875,373.8281 346.125,374.125 Q345.5625,374.4063 345.1719,374.9375 Q344.7813,375.4688 344.5781,376.25 Q344.3906,377.0156 344.3906,377.9688 Q344.3906,378.9375 344.5625,379.7031 Q344.75,380.4531 345.1094,380.9688 Q345.4844,381.4844 346.0625,381.7656 Q346.6406,382.0313 347.4375,382.0313 Q348.1719,382.0313 348.9063,381.8594 Q349.6563,381.6875 350.5313,381.3906 L350.5313,383.5469 Q350.125,383.7031 349.7344,383.8281 Q349.3438,383.9375 348.9375,384.0156 Q348.5313,384.0938 348.1094,384.125 Q347.6875,384.1719 347.1875,384.1719 Q345.7813,384.1719 344.75,383.7188 Q343.7344,383.2656 343.0625,382.4531 Q342.3906,381.6406 342.0625,380.5 Q341.7344,379.3438 341.7344,377.9531 Q341.7344,376.5781 342.1094,375.4219 Q342.4844,374.2656 343.2031,373.4375 Q343.9219,372.6094 344.9844,372.1563 Q346.0469,371.6875 347.4375,371.6875 Q348.3438,371.6875 349.25,371.9219 Q350.1563,372.1406 350.9844,372.5469 L350.1563,374.6406 Q349.4688,374.3125 348.7813,374.0781 Q348.0938,373.8281 347.4375,373.8281 Z " fill="#000000"/><text fill="#000000" font-family="sans-serif" font-size="12" lengthAdjust="spacingAndGlyphs" textLength="107" x="361.5" y="382.1543">ParameterManager</text><!--MD5=[c01d281453c5d4cdc24a7f27a30cb7c5]
class FixedLayout--><rect codeLine="30" fill="#FEFECE" filter="url(#fqxmx5kvdl6fy)" height="32" id="FixedLayout" style="stroke:#A80036;stroke-width:1.5;" width="97" x="1037.5" y="142"/><ellipse cx="1052.5" cy="158" fill="#ADD1B2" rx="11" ry="11" style="stroke:#A80036;stroke-width:1.0;"/><path d="M1052.4375,153.8281 Q1051.6875,153.8281 1051.125,154.125 Q1050.5625,154.4063 1050.1719,154.9375 Q1049.7813,155.4688 1049.5781,156.25 Q1049.3906,157.0156 1049.3906,157.9688 Q1049.3906,158.9375 1049.5625,159.7031 Q1049.75,160.4531 1050.1094,160.9688 Q1050.4844,161.4844 1051.0625,161.7656 Q1051.6406,162.0313 1052.4375,162.0313 Q1053.1719,162.0313 1053.9063,161.8594 Q1054.6563,161.6875 1055.5313,161.3906 L1055.5313,163.5469 Q1055.125,163.7031 1054.7344,163.8281 Q1054.3438,163.9375 1053.9375,164.0156 Q1053.5313,164.0938 1053.1094,164.125 Q1052.6875,164.1719 1052.1875,164.1719 Q1050.7813,164.1719 1049.75,163.7188 Q1048.7344,163.2656 1048.0625,162.4531 Q1047.3906,161.6406 1047.0625,160.5 Q1046.7344,159.3438 1046.7344,157.9531 Q1046.7344,156.5781 1047.1094,155.4219 Q1047.4844,154.2656 1048.2031,153.4375 Q1048.9219,152.6094 1049.9844,152.1563 Q1051.0469,151.6875 1052.4375,151.6875 Q1053.3438,151.6875 1054.25,151.9219 Q1055.1563,152.1406 1055.9844,152.5469 L1055.1563,154.6406 Q1054.4688,154.3125 1053.7813,154.0781 Q1053.0938,153.8281 1052.4375,153.8281 Z " fill="#000000"/><text fill="#000000" font-family="sans-serif" font-size="12" lengthAdjust="spacingAndGlyphs" textLength="65" x="1066.5" y="162.1543">FixedLayout</text><!--MD5=[caebf2ddd0fe15aa1cd7c0f919e7d6a1]
class Layout--><rect fill="#FEFECE" filter="url(#fqxmx5kvdl6fy)" height="32" id="Layout" style="stroke:#A80036;stroke-width:1.5;" width="68" x="1052" y="49"/><ellipse cx="1067" cy="65" fill="#B4A7E5" rx="11" ry="11" style="stroke:#A80036;stroke-width:1.0;"/><path d="M1069.5625,71 L1064.0469,71 L1064.0469,69.5313 L1065.5313,68.8594 L1065.5313,61 L1064.0469,60.3281 L1064.0469,58.8594 L1069.5625,58.8594 L1069.5625,60.3281 L1068.0938,61 L1068.0938,68.8594 L1069.5625,69.5313 L1069.5625,71 Z " fill="#000000"/><text fill="#000000" font-family="sans-serif" font-size="12" font-style="italic" lengthAdjust="spacingAndGlyphs" textLength="36" x="1081" y="69.1543">Layout</text><!--MD5=[12f7f85e6a82a668bac37f73aa8a25f9]
class DynamicLayout--><rect codeLine="31" fill="#FEFECE" filter="url(#fqxmx5kvdl6fy)" height="32" id="DynamicLayout" style="stroke:#A80036;stroke-width:1.5;" width="115" x="887.5" y="142"/><ellipse cx="902.5" cy="158" fill="#ADD1B2" rx="11" ry="11" style="stroke:#A80036;stroke-width:1.0;"/><path d="M902.4375,153.8281 Q901.6875,153.8281 901.125,154.125 Q900.5625,154.4063 900.1719,154.9375 Q899.7813,155.4688 899.5781,156.25 Q899.3906,157.0156 899.3906,157.9688 Q899.3906,158.9375 899.5625,159.7031 Q899.75,160.4531 900.1094,160.9688 Q900.4844,161.4844 901.0625,161.7656 Q901.6406,162.0313 902.4375,162.0313 Q903.1719,162.0313 903.9063,161.8594 Q904.6563,161.6875 905.5313,161.3906 L905.5313,163.5469 Q905.125,163.7031 904.7344,163.8281 Q904.3438,163.9375 903.9375,164.0156 Q903.5313,164.0938 903.1094,164.125 Q902.6875,164.1719 902.1875,164.1719 Q900.7813,164.1719 899.75,163.7188 Q898.7344,163.2656 898.0625,162.4531 Q897.3906,161.6406 897.0625,160.5 Q896.7344,159.3438 896.7344,157.9531 Q896.7344,156.5781 897.1094,155.4219 Q897.4844,154.2656 898.2031,153.4375 Q898.9219,152.6094 899.9844,152.1563 Q901.0469,151.6875 902.4375,151.6875 Q903.3438,151.6875 904.25,151.9219 Q905.1563,152.1406 905.9844,152.5469 L905.1563,154.6406 Q904.4688,154.3125 903.7813,154.0781 Q903.0938,153.8281 902.4375,153.8281 Z " fill="#000000"/><text fill="#000000" font-family="sans-serif" font-size="12" lengthAdjust="spacingAndGlyphs" textLength="83" x="916.5" y="162.1543">DynamicLayout</text><!--MD5=[ceff05214af216b423c504875c83215d]
class LayoutsFactory--><rect codeLine="32" fill="#FEFECE" filter="url(#fqxmx5kvdl6fy)" height="32" id="LayoutsFactory" style="stroke:#A80036;stroke-width:1.5;" width="113" x="888.5" y="251"/><ellipse cx="903.5" cy="267" fill="#ADD1B2" rx="11" ry="11" style="stroke:#A80036;stroke-width:1.0;"/><path d="M903.4375,262.8281 Q902.6875,262.8281 902.125,263.125 Q901.5625,263.4063 901.1719,263.9375 Q900.7813,264.4688 900.5781,265.25 Q900.3906,266.0156 900.3906,266.9688 Q900.3906,267.9375 900.5625,268.7031 Q900.75,269.4531 901.1094,269.9688 Q901.4844,270.4844 902.0625,270.7656 Q902.6406,271.0313 903.4375,271.0313 Q904.1719,271.0313 904.9063,270.8594 Q905.6563,270.6875 906.5313,270.3906 L906.5313,272.5469 Q906.125,272.7031 905.7344,272.8281 Q905.3438,272.9375 904.9375,273.0156 Q904.5313,273.0938 904.1094,273.125 Q903.6875,273.1719 903.1875,273.1719 Q901.7813,273.1719 900.75,272.7188 Q899.7344,272.2656 899.0625,271.4531 Q898.3906,270.6406 898.0625,269.5 Q897.7344,268.3438 897.7344,266.9531 Q897.7344,265.5781 898.1094,264.4219 Q898.4844,263.2656 899.2031,262.4375 Q899.9219,261.6094 900.9844,261.1563 Q902.0469,260.6875 903.4375,260.6875 Q904.3438,260.6875 905.25,260.9219 Q906.1563,261.1406 906.9844,261.5469 L906.1563,263.6406 Q905.4688,263.3125 904.7813,263.0781 Q904.0938,262.8281 903.4375,262.8281 Z " fill="#000000"/><text fill="#000000" font-family="sans-serif" font-size="12" lengthAdjust="spacingAndGlyphs" textLength="81" x="917.5" y="271.1543">LayoutsFactory</text><!--MD5=[00675e18512933602d55f5e0e2b1ab32]
class AllSpikingNeurons--><rect codeLine="39" fill="#FEFECE" filter="url(#fqxmx5kvdl6fy)" height="32" id="AllSpikingNeurons" style="stroke:#A80036;stroke-width:1.5;" width="131" x="1325.5" y="142"/><ellipse cx="1340.5" cy="158" fill="#ADD1B2" rx="11" ry="11" style="stroke:#A80036;stroke-width:1.0;"/><path d="M1340.4375,153.8281 Q1339.6875,153.8281 1339.125,154.125 Q1338.5625,154.4063 1338.1719,154.9375 Q1337.7813,155.4688 1337.5781,156.25 Q1337.3906,157.0156 1337.3906,157.9688 Q1337.3906,158.9375 1337.5625,159.7031 Q1337.75,160.4531 1338.1094,160.9688 Q1338.4844,161.4844 1339.0625,161.7656 Q1339.6406,162.0313 1340.4375,162.0313 Q1341.1719,162.0313 1341.9063,161.8594 Q1342.6563,161.6875 1343.5313,161.3906 L1343.5313,163.5469 Q1343.125,163.7031 1342.7344,163.8281 Q1342.3438,163.9375 1341.9375,164.0156 Q1341.5313,164.0938 1341.1094,164.125 Q1340.6875,164.1719 1340.1875,164.1719 Q1338.7813,164.1719 1337.75,163.7188 Q1336.7344,163.2656 1336.0625,162.4531 Q1335.3906,161.6406 1335.0625,160.5 Q1334.7344,159.3438 1334.7344,157.9531 Q1334.7344,156.5781 1335.1094,155.4219 Q1335.4844,154.2656 1336.2031,153.4375 Q1336.9219,152.6094 1337.9844,152.1563 Q1339.0469,151.6875 1340.4375,151.6875 Q1341.3438,151.6875 1342.25,151.9219 Q1343.1563,152.1406 1343.9844,152.5469 L1343.1563,154.6406 Q1342.4688,154.3125 1341.7813,154.0781 Q1341.0938,153.8281 1340.4375,153.8281 Z " fill="#000000"/><text fill="#000000" font-family="sans-serif" font-size="12" lengthAdjust="spacingAndGlyphs" textLength="99" x="1354.5" y="162.1543">AllSpikingNeurons</text><!--MD5=[34dee175ca2f1207a5c8be9520f72c2f]
class AllVertices--><rect fill="#FEFECE" filter="url(#fqxmx5kvdl6fy)" height="32" id="AllVertices" style="stroke:#A80036;stroke-width:1.5;" width="89" x="1335.5" y="49"/><ellipse cx="1350.5" cy="65" fill="#B4A7E5" rx="11" ry="11" style="stroke:#A80036;stroke-width:1.0;"/><path d="M1353.0625,71 L1347.5469,71 L1347.5469,69.5313 L1349.0313,68.8594 L1349.0313,61 L1347.5469,60.3281 L1347.5469,58.8594 L1353.0625,58.8594 L1353.0625,60.3281 L1351.5938,61 L1351.5938,68.8594 L1353.0625,69.5313 L1353.0625,71 Z " fill="#000000"/><text fill="#000000" font-family="sans-serif" font-size="12" font-style="italic" lengthAdjust="spacingAndGlyphs" textLength="57" x="1364.5" y="69.1543">AllVertices</text><!--MD5=[cf80cca85261d84eda43dbc026d5d8d1]
class AllIFNeurons--><rect codeLine="40" fill="#FEFECE" filter="url(#fqxmx5kvdl6fy)" height="32" id="AllIFNeurons" style="stroke:#A80036;stroke-width:1.5;" width="102" x="1340" y="251"/><ellipse cx="1355" cy="267" fill="#ADD1B2" rx="11" ry="11" style="stroke:#A80036;stroke-width:1.0;"/><path d="M1354.9375,262.8281 Q1354.1875,262.8281 1353.625,263.125 Q1353.0625,263.4063 1352.6719,263.9375 Q1352.2813,264.4688 1352.0781,265.25 Q1351.8906,266.0156 1351.8906,266.9688 Q1351.8906,267.9375 1352.0625,268.7031 Q1352.25,269.4531 1352.6094,269.9688 Q1352.9844,270.4844 1353.5625,270.7656 Q1354.1406,271.0313 1354.9375,271.0313 Q1355.6719,271.0313 1356.4063,270.8594 Q1357.1563,270.6875 1358.0313,270.3906 L1358.0313,272.5469 Q1357.625,272.7031 1357.2344,272.8281 Q1356.8438,272.9375 1356.4375,273.0156 Q1356.0313,273.0938 1355.6094,273.125 Q1355.1875,273.1719 1354.6875,273.1719 Q1353.2813,273.1719 1352.25,272.7188 Q1351.2344,272.2656 1350.5625,271.4531 Q1349.8906,270.6406 1349.5625,269.5 Q1349.2344,268.3438 1349.2344,266.9531 Q1349.2344,265.5781 1349.6094,264.4219 Q1349.9844,263.2656 1350.7031,262.4375 Q1351.4219,261.6094 1352.4844,261.1563 Q1353.5469,260.6875 1354.9375,260.6875 Q1355.8438,260.6875 1356.75,260.9219 Q1357.6563,261.1406 1358.4844,261.5469 L1357.6563,263.6406 Q1356.9688,263.3125 1356.2813,263.0781 Q1355.5938,262.8281 1354.9375,262.8281 Z " fill="#000000"/><text fill="#000000" font-family="sans-serif" font-size="12" lengthAdjust="spacingAndGlyphs" textLength="70" x="1369" y="271.1543">AllIFNeurons</text><!--MD5=[260384eea3996f96db9f0f616389f648]
class AllLiFNeurons--><rect codeLine="41" fill="#FEFECE" filter="url(#fqxmx5kvdl6fy)" height="32" id="AllLiFNeurons" style="stroke:#A80036;stroke-width:1.5;" width="107" x="1324.5" y="362"/><ellipse cx="1339.5" cy="378" fill="#ADD1B2" rx="11" ry="11" style="stroke:#A80036;stroke-width:1.0;"/><path d="M1339.4375,373.8281 Q1338.6875,373.8281 1338.125,374.125 Q1337.5625,374.4063 1337.1719,374.9375 Q1336.7813,375.4688 1336.5781,376.25 Q1336.3906,377.0156 1336.3906,377.9688 Q1336.3906,378.9375 1336.5625,379.7031 Q1336.75,380.4531 1337.1094,380.9688 Q1337.4844,381.4844 1338.0625,381.7656 Q1338.6406,382.0313 1339.4375,382.0313 Q1340.1719,382.0313 1340.9063,381.8594 Q1341.6563,381.6875 1342.5313,381.3906 L1342.5313,383.5469 Q1342.125,383.7031 1341.7344,383.8281 Q1341.3438,383.9375 1340.9375,384.0156 Q1340.5313,384.0938 1340.1094,384.125 Q1339.6875,384.1719 1339.1875,384.1719 Q1337.7813,384.1719 1336.75,383.7188 Q1335.7344,383.2656 1335.0625,382.4531 Q1334.3906,381.6406 1334.0625,380.5 Q1333.7344,379.3438 1333.7344,377.9531 Q1333.7344,376.5781 1334.1094,375.4219 Q1334.4844,374.2656 1335.2031,373.4375 Q1335.9219,372.6094 1336.9844,372.1563 Q1338.0469,371.6875 1339.4375,371.6875 Q1340.3438,371.6875 1341.25,371.9219 Q1342.1563,372.1406 1342.9844,372.5469 L1342.1563,374.6406 Q1341.4688,374.3125 1340.7813,374.0781 Q1340.0938,373.8281 1339.4375,373.8281 Z " fill="#000000"/><text fill="#000000" font-family="sans-serif" font-size="12" lengthAdjust="spacingAndGlyphs" textLength="75" x="1353.5" y="382.1543">AllLiFNeurons</text><!--MD5=[71b076a97ded1832bf674b3762bc7b75]
class AllZHNeurons--><rect codeLine="42" fill="#FEFECE" filter="url(#fqxmx5kvdl6fy)" height="32" id="AllZHNeurons" style="stroke:#A80036;stroke-width:1.5;" width="107" x="1466.5" y="362"/><ellipse cx="1481.5" cy="378" fill="#ADD1B2" rx="11" ry="11" style="stroke:#A80036;stroke-width:1.0;"/><path d="M1481.4375,373.8281 Q1480.6875,373.8281 1480.125,374.125 Q1479.5625,374.4063 1479.1719,374.9375 Q1478.7813,375.4688 1478.5781,376.25 Q1478.3906,377.0156 1478.3906,377.9688 Q1478.3906,378.9375 1478.5625,379.7031 Q1478.75,380.4531 1479.1094,380.9688 Q1479.4844,381.4844 1480.0625,381.7656 Q1480.6406,382.0313 1481.4375,382.0313 Q1482.1719,382.0313 1482.9063,381.8594 Q1483.6563,381.6875 1484.5313,381.3906 L1484.5313,383.5469 Q1484.125,383.7031 1483.7344,383.8281 Q1483.3438,383.9375 1482.9375,384.0156 Q1482.5313,384.0938 1482.1094,384.125 Q1481.6875,384.1719 1481.1875,384.1719 Q1479.7813,384.1719 1478.75,383.7188 Q1477.7344,383.2656 1477.0625,382.4531 Q1476.3906,381.6406 1476.0625,380.5 Q1475.7344,379.3438 1475.7344,377.9531 Q1475.7344,376.5781 1476.1094,375.4219 Q1476.4844,374.2656 1477.2031,373.4375 Q1477.9219,372.6094 1478.9844,372.1563 Q1480.0469,371.6875 1481.4375,371.6875 Q1482.3438,371.6875 1483.25,371.9219 Q1484.1563,372.1406 1484.9844,372.5469 L1484.1563,374.6406 Q1483.4688,374.3125 1482.7813,374.0781 Q1482.0938,373.8281 1481.4375,373.8281 Z " fill="#000000"/><text fill="#000000" font-family="sans-serif" font-size="12" lengthAdjust="spacingAndGlyphs" textLength="75" x="1495.5" y="382.1543">AllZHNeurons</text><!--MD5=[cc1c410fe2850b6da0ea695abfcea755]
class VerticesFactory--><rect codeLine="43" fill="#FEFECE" filter="url(#fqxmx5kvdl6fy)" height="32" id="VerticesFactory" style="stroke:#A80036;stroke-width:1.5;" width="115" x="1325.5" y="526"/><ellipse cx="1340.5" cy="542" fill="#ADD1B2" rx="11" ry="11" style="stroke:#A80036;stroke-width:1.0;"/><path d="M1340.4375,537.8281 Q1339.6875,537.8281 1339.125,538.125 Q1338.5625,538.4063 1338.1719,538.9375 Q1337.7813,539.4688 1337.5781,540.25 Q1337.3906,541.0156 1337.3906,541.9688 Q1337.3906,542.9375 1337.5625,543.7031 Q1337.75,544.4531 1338.1094,544.9688 Q1338.4844,545.4844 1339.0625,545.7656 Q1339.6406,546.0313 1340.4375,546.0313 Q1341.1719,546.0313 1341.9063,545.8594 Q1342.6563,545.6875 1343.5313,545.3906 L1343.5313,547.5469 Q1343.125,547.7031 1342.7344,547.8281 Q1342.3438,547.9375 1341.9375,548.0156 Q1341.5313,548.0938 1341.1094,548.125 Q1340.6875,548.1719 1340.1875,548.1719 Q1338.7813,548.1719 1337.75,547.7188 Q1336.7344,547.2656 1336.0625,546.4531 Q1335.3906,545.6406 1335.0625,544.5 Q1334.7344,543.3438 1334.7344,541.9531 Q1334.7344,540.5781 1335.1094,539.4219 Q1335.4844,538.2656 1336.2031,537.4375 Q1336.9219,536.6094 1337.9844,536.1563 Q1339.0469,535.6875 1340.4375,535.6875 Q1341.3438,535.6875 1342.25,535.9219 Q1343.1563,536.1406 1343.9844,536.5469 L1343.1563,538.6406 Q1342.4688,538.3125 1341.7813,538.0781 Q1341.0938,537.8281 1340.4375,537.8281 Z " fill="#000000"/><text fill="#000000" font-family="sans-serif" font-size="12" lengthAdjust="spacingAndGlyphs" textLength="83" x="1354.5" y="546.1543">VerticesFactory</text><!--MD5=[9af66c322c1a3c2f0b44834865e098f3]
class XmLRecorder--><rect codeLine="50" fill="#FEFECE" filter="url(#fqxmx5kvdl6fy)" height="32" id="XmLRecorder" style="stroke:#A80036;stroke-width:1.5;" width="105" x="295.5" y="674"/><ellipse cx="310.5" cy="690" fill="#ADD1B2" rx="11" ry="11" style="stroke:#A80036;stroke-width:1.0;"/><path d="M310.4375,685.8281 Q309.6875,685.8281 309.125,686.125 Q308.5625,686.4063 308.1719,686.9375 Q307.7813,687.4688 307.5781,688.25 Q307.3906,689.0156 307.3906,689.9688 Q307.3906,690.9375 307.5625,691.7031 Q307.75,692.4531 308.1094,692.9688 Q308.4844,693.4844 309.0625,693.7656 Q309.6406,694.0313 310.4375,694.0313 Q311.1719,694.0313 311.9063,693.8594 Q312.6563,693.6875 313.5313,693.3906 L313.5313,695.5469 Q313.125,695.7031 312.7344,695.8281 Q312.3438,695.9375 311.9375,696.0156 Q311.5313,696.0938 311.1094,696.125 Q310.6875,696.1719 310.1875,696.1719 Q308.7813,696.1719 307.75,695.7188 Q306.7344,695.2656 306.0625,694.4531 Q305.3906,693.6406 305.0625,692.5 Q304.7344,691.3438 304.7344,689.9531 Q304.7344,688.5781 305.1094,687.4219 Q305.4844,686.2656 306.2031,685.4375 Q306.9219,684.6094 307.9844,684.1563 Q309.0469,683.6875 310.4375,683.6875 Q311.3438,683.6875 312.25,683.9219 Q313.1563,684.1406 313.9844,684.5469 L313.1563,686.6406 Q312.4688,686.3125 311.7813,686.0781 Q311.0938,685.8281 310.4375,685.8281 Z " fill="#000000"/><text fill="#000000" font-family="sans-serif" font-size="12" lengthAdjust="spacingAndGlyphs" textLength="73" x="324.5" y="694.1543">XmLRecorder</text><!--MD5=[a2efe13f97b9395dfb70e2255bd52698]
class IRecorder--><rect fill="#FEFECE" filter="url(#fqxmx5kvdl6fy)" height="32" id="IRecorder" style="stroke:#A80036;stroke-width:1.5;" width="85" x="135.5" y="526"/><ellipse cx="150.5" cy="542" fill="#B4A7E5" rx="11" ry="11" style="stroke:#A80036;stroke-width:1.0;"/><path d="M153.0625,548 L147.5469,548 L147.5469,546.5313 L149.0313,545.8594 L149.0313,538 L147.5469,537.3281 L147.5469,535.8594 L153.0625,535.8594 L153.0625,537.3281 L151.5938,538 L151.5938,545.8594 L153.0625,546.5313 L153.0625,548 Z " fill="#000000"/><text fill="#000000" font-family="sans-serif" font-size="12" font-style="italic" lengthAdjust="spacingAndGlyphs" textLength="53" x="164.5" y="546.1543">IRecorder</text><!--MD5=[68c26e8dbee30e67a392826e30173ce1]
class HDF5Recorder--><rect codeLine="51" fill="#FEFECE" filter="url(#fqxmx5kvdl6fy)" height="32" id="HDF5Recorder" style="stroke:#A80036;stroke-width:1.5;" width="110" x="123" y="674"/><ellipse cx="138" cy="690" fill="#ADD1B2" rx="11" ry="11" style="stroke:#A80036;stroke-width:1.0;"/><path d="M137.9375,685.8281 Q137.1875,685.8281 136.625,686.125 Q136.0625,686.4063 135.6719,686.9375 Q135.2813,687.4688 135.0781,688.25 Q134.8906,689.0156 134.8906,689.9688 Q134.8906,690.9375 135.0625,691.7031 Q135.25,692.4531 135.6094,692.9688 Q135.9844,693.4844 136.5625,693.7656 Q137.1406,694.0313 137.9375,694.0313 Q138.6719,694.0313 139.4063,693.8594 Q140.1563,693.6875 141.0313,693.3906 L141.0313,695.5469 Q140.625,695.7031 140.2344,695.8281 Q139.8438,695.9375 139.4375,696.0156 Q139.0313,696.0938 138.6094,696.125 Q138.1875,696.1719 137.6875,696.1719 Q136.2813,696.1719 135.25,695.7188 Q134.2344,695.2656 133.5625,694.4531 Q132.8906,693.6406 132.5625,692.5 Q132.2344,691.3438 132.2344,689.9531 Q132.2344,688.5781 132.6094,687.4219 Q132.9844,686.2656 133.7031,685.4375 Q134.4219,684.6094 135.4844,684.1563 Q136.5469,683.6875 137.9375,683.6875 Q138.8438,683.6875 139.75,683.9219 Q140.6563,684.1406 141.4844,684.5469 L140.6563,686.6406 Q139.9688,686.3125 139.2813,686.0781 Q138.5938,685.8281 137.9375,685.8281 Z " fill="#000000"/><text fill="#000000" font-family="sans-serif" font-size="12" lengthAdjust="spacingAndGlyphs" textLength="78" x="152" y="694.1543">HDF5Recorder</text><!--MD5=[c3e0b6f9949d2074781ec6fef8f97457]
class XmlGrowthRecroder--><rect codeLine="52" fill="#FEFECE" filter="url(#fqxmx5kvdl6fy)" height="32" id="XmlGrowthRecroder" style="stroke:#A80036;stroke-width:1.5;" width="141" x="277.5" y="783"/><ellipse cx="292.5" cy="799" fill="#ADD1B2" rx="11" ry="11" style="stroke:#A80036;stroke-width:1.0;"/><path d="M292.4375,794.8281 Q291.6875,794.8281 291.125,795.125 Q290.5625,795.4063 290.1719,795.9375 Q289.7813,796.4688 289.5781,797.25 Q289.3906,798.0156 289.3906,798.9688 Q289.3906,799.9375 289.5625,800.7031 Q289.75,801.4531 290.1094,801.9688 Q290.4844,802.4844 291.0625,802.7656 Q291.6406,803.0313 292.4375,803.0313 Q293.1719,803.0313 293.9063,802.8594 Q294.6563,802.6875 295.5313,802.3906 L295.5313,804.5469 Q295.125,804.7031 294.7344,804.8281 Q294.3438,804.9375 293.9375,805.0156 Q293.5313,805.0938 293.1094,805.125 Q292.6875,805.1719 292.1875,805.1719 Q290.7813,805.1719 289.75,804.7188 Q288.7344,804.2656 288.0625,803.4531 Q287.3906,802.6406 287.0625,801.5 Q286.7344,800.3438 286.7344,798.9531 Q286.7344,797.5781 287.1094,796.4219 Q287.4844,795.2656 288.2031,794.4375 Q288.9219,793.6094 289.9844,793.1563 Q291.0469,792.6875 292.4375,792.6875 Q293.3438,792.6875 294.25,792.9219 Q295.1563,793.1406 295.9844,793.5469 L295.1563,795.6406 Q294.4688,795.3125 293.7813,795.0781 Q293.0938,794.8281 292.4375,794.8281 Z " fill="#000000"/><text fill="#000000" font-family="sans-serif" font-size="12" lengthAdjust="spacingAndGlyphs" textLength="109" x="306.5" y="803.1543">XmlGrowthRecroder</text><!--MD5=[af68557a962a5f1f7548a7e590f8fd62]
class Hdf5GrowthRecorder--><rect codeLine="53" fill="#FEFECE" filter="url(#fqxmx5kvdl6fy)" height="32" id="Hdf5GrowthRecorder" style="stroke:#A80036;stroke-width:1.5;" width="145" x="59.5" y="783"/><ellipse cx="74.5" cy="799" fill="#ADD1B2" rx="11" ry="11" style="stroke:#A80036;stroke-width:1.0;"/><path d="M74.4375,794.8281 Q73.6875,794.8281 73.125,795.125 Q72.5625,795.4063 72.1719,795.9375 Q71.7813,796.4688 71.5781,797.25 Q71.3906,798.0156 71.3906,798.9688 Q71.3906,799.9375 71.5625,800.7031 Q71.75,801.4531 72.1094,801.9688 Q72.4844,802.4844 73.0625,802.7656 Q73.6406,803.0313 74.4375,803.0313 Q75.1719,803.0313 75.9063,802.8594 Q76.6563,802.6875 77.5313,802.3906 L77.5313,804.5469 Q77.125,804.7031 76.7344,804.8281 Q76.3438,804.9375 75.9375,805.0156 Q75.5313,805.0938 75.1094,805.125 Q74.6875,805.1719 74.1875,805.1719 Q72.7813,805.1719 71.75,804.7188 Q70.7344,804.2656 70.0625,803.4531 Q69.3906,802.6406 69.0625,801.5 Q68.7344,800.3438 68.7344,798.9531 Q68.7344,797.5781 69.1094,796.4219 Q69.4844,795.2656 70.2031,794.4375 Q70.9219,793.6094 71.9844,793.1563 Q73.0469,792.6875 74.4375,792.6875 Q75.3438,792.6875 76.25,792.9219 Q77.1563,793.1406 77.9844,793.5469 L77.1563,795.6406 Q76.4688,795.3125 75.7813,795.0781 Q75.0938,794.8281 74.4375,794.8281 Z " fill="#000000"/><text fill="#000000" font-family="sans-serif" font-size="12" lengthAdjust="spacingAndGlyphs" textLength="113" x="88.5" y="803.1543">Hdf5GrowthRecorder</text><!--MD5=[5309de41de0463c67105d9e754563b77]
class RecordersFactory--><rect codeLine="54" fill="#FEFECE" filter="url(#fqxmx5kvdl6fy)" height="32" id="RecordersFactory" style="stroke:#A80036;stroke-width:1.5;" width="126" x="174" y="987"/><ellipse cx="189" cy="1003" fill="#ADD1B2" rx="11" ry="11" style="stroke:#A80036;stroke-width:1.0;"/><path d="M188.9375,998.8281 Q188.1875,998.8281 187.625,999.125 Q187.0625,999.4063 186.6719,999.9375 Q186.2813,1000.4688 186.0781,1001.25 Q185.8906,1002.0156 185.8906,1002.9688 Q185.8906,1003.9375 186.0625,1004.7031 Q186.25,1005.4531 186.6094,1005.9688 Q186.9844,1006.4844 187.5625,1006.7656 Q188.1406,1007.0313 188.9375,1007.0313 Q189.6719,1007.0313 190.4063,1006.8594 Q191.1563,1006.6875 192.0313,1006.3906 L192.0313,1008.5469 Q191.625,1008.7031 191.2344,1008.8281 Q190.8438,1008.9375 190.4375,1009.0156 Q190.0313,1009.0938 189.6094,1009.125 Q189.1875,1009.1719 188.6875,1009.1719 Q187.2813,1009.1719 186.25,1008.7188 Q185.2344,1008.2656 184.5625,1007.4531 Q183.8906,1006.6406 183.5625,1005.5 Q183.2344,1004.3438 183.2344,1002.9531 Q183.2344,1001.5781 183.6094,1000.4219 Q183.9844,999.2656 184.7031,998.4375 Q185.4219,997.6094 186.4844,997.1563 Q187.5469,996.6875 188.9375,996.6875 Q189.8438,996.6875 190.75,996.9219 Q191.6563,997.1406 192.4844,997.5469 L191.6563,999.6406 Q190.9688,999.3125 190.2813,999.0781 Q189.5938,998.8281 188.9375,998.8281 Z " fill="#000000"/><text fill="#000000" font-family="sans-serif" font-size="12" lengthAdjust="spacingAndGlyphs" textLength="94" x="203" y="1007.1543">RecordersFactory</text><!--MD5=[b671e9144a70d5380b4364952f259167]
class ConnStatic--><rect codeLine="63" fill="#FEFECE" filter="url(#fqxmx5kvdl6fy)" height="32" id="ConnStatic" style="stroke:#A80036;stroke-width:1.5;" width="91" x="798.5" y="674"/><ellipse cx="813.5" cy="690" fill="#ADD1B2" rx="11" ry="11" style="stroke:#A80036;stroke-width:1.0;"/><path d="M813.4375,685.8281 Q812.6875,685.8281 812.125,686.125 Q811.5625,686.4063 811.1719,686.9375 Q810.7813,687.4688 810.5781,688.25 Q810.3906,689.0156 810.3906,689.9688 Q810.3906,690.9375 810.5625,691.7031 Q810.75,692.4531 811.1094,692.9688 Q811.4844,693.4844 812.0625,693.7656 Q812.6406,694.0313 813.4375,694.0313 Q814.1719,694.0313 814.9063,693.8594 Q815.6563,693.6875 816.5313,693.3906 L816.5313,695.5469 Q816.125,695.7031 815.7344,695.8281 Q815.3438,695.9375 814.9375,696.0156 Q814.5313,696.0938 814.1094,696.125 Q813.6875,696.1719 813.1875,696.1719 Q811.7813,696.1719 810.75,695.7188 Q809.7344,695.2656 809.0625,694.4531 Q808.3906,693.6406 808.0625,692.5 Q807.7344,691.3438 807.7344,689.9531 Q807.7344,688.5781 808.1094,687.4219 Q808.4844,686.2656 809.2031,685.4375 Q809.9219,684.6094 810.9844,684.1563 Q812.0469,683.6875 813.4375,683.6875 Q814.3438,683.6875 815.25,683.9219 Q816.1563,684.1406 816.9844,684.5469 L816.1563,686.6406 Q815.4688,686.3125 814.7813,686.0781 Q814.0938,685.8281 813.4375,685.8281 Z " fill="#000000"/><text fill="#000000" font-family="sans-serif" font-size="12" lengthAdjust="spacingAndGlyphs" textLength="59" x="827.5" y="694.1543">ConnStatic</text><!--MD5=[24bb951fb6b9ac52df1580923e830244]
class Connections--><rect fill="#FEFECE" filter="url(#fqxmx5kvdl6fy)" height="32" id="Connections" style="stroke:#A80036;stroke-width:1.5;" width="100" x="924" y="526"/><ellipse cx="939" cy="542" fill="#B4A7E5" rx="11" ry="11" style="stroke:#A80036;stroke-width:1.0;"/><path d="M941.5625,548 L936.0469,548 L936.0469,546.5313 L937.5313,545.8594 L937.5313,538 L936.0469,537.3281 L936.0469,535.8594 L941.5625,535.8594 L941.5625,537.3281 L940.0938,538 L940.0938,545.8594 L941.5625,546.5313 L941.5625,548 Z " fill="#000000"/><text fill="#000000" font-family="sans-serif" font-size="12" font-style="italic" lengthAdjust="spacingAndGlyphs" textLength="68" x="953" y="546.1543">Connections</text><!--MD5=[540eab1ed52846d003b47757435df453]
class ConnGrowth--><rect codeLine="64" fill="#FEFECE" filter="url(#fqxmx5kvdl6fy)" height="32" id="ConnGrowth" style="stroke:#A80036;stroke-width:1.5;" width="99" x="924.5" y="674"/><ellipse cx="939.5" cy="690" fill="#ADD1B2" rx="11" ry="11" style="stroke:#A80036;stroke-width:1.0;"/><path d="M939.4375,685.8281 Q938.6875,685.8281 938.125,686.125 Q937.5625,686.4063 937.1719,686.9375 Q936.7813,687.4688 936.5781,688.25 Q936.3906,689.0156 936.3906,689.9688 Q936.3906,690.9375 936.5625,691.7031 Q936.75,692.4531 937.1094,692.9688 Q937.4844,693.4844 938.0625,693.7656 Q938.6406,694.0313 939.4375,694.0313 Q940.1719,694.0313 940.9063,693.8594 Q941.6563,693.6875 942.5313,693.3906 L942.5313,695.5469 Q942.125,695.7031 941.7344,695.8281 Q941.3438,695.9375 940.9375,696.0156 Q940.5313,696.0938 940.1094,696.125 Q939.6875,696.1719 939.1875,696.1719 Q937.7813,696.1719 936.75,695.7188 Q935.7344,695.2656 935.0625,694.4531 Q934.3906,693.6406 934.0625,692.5 Q933.7344,691.3438 933.7344,689.9531 Q933.7344,688.5781 934.1094,687.4219 Q934.4844,686.2656 935.2031,685.4375 Q935.9219,684.6094 936.9844,684.1563 Q938.0469,683.6875 939.4375,683.6875 Q940.3438,683.6875 941.25,683.9219 Q942.1563,684.1406 942.9844,684.5469 L942.1563,686.6406 Q941.4688,686.3125 940.7813,686.0781 Q940.0938,685.8281 939.4375,685.8281 Z " fill="#000000"/><text fill="#000000" font-family="sans-serif" font-size="12" lengthAdjust="spacingAndGlyphs" textLength="67" x="953.5" y="694.1543">ConnGrowth</text><!--MD5=[07560c205a8067cf69726ad645fec973]
class ConnectionsFactory--><rect codeLine="65" fill="#FEFECE" filter="url(#fqxmx5kvdl6fy)" height="32" id="ConnectionsFactory" style="stroke:#A80036;stroke-width:1.5;" width="139" x="798.5" y="783"/><ellipse cx="813.5" cy="799" fill="#ADD1B2" rx="11" ry="11" style="stroke:#A80036;stroke-width:1.0;"/><path d="M813.4375,794.8281 Q812.6875,794.8281 812.125,795.125 Q811.5625,795.4063 811.1719,795.9375 Q810.7813,796.4688 810.5781,797.25 Q810.3906,798.0156 810.3906,798.9688 Q810.3906,799.9375 810.5625,800.7031 Q810.75,801.4531 811.1094,801.9688 Q811.4844,802.4844 812.0625,802.7656 Q812.6406,803.0313 813.4375,803.0313 Q814.1719,803.0313 814.9063,802.8594 Q815.6563,802.6875 816.5313,802.3906 L816.5313,804.5469 Q816.125,804.7031 815.7344,804.8281 Q815.3438,804.9375 814.9375,805.0156 Q814.5313,805.0938 814.1094,805.125 Q813.6875,805.1719 813.1875,805.1719 Q811.7813,805.1719 810.75,804.7188 Q809.7344,804.2656 809.0625,803.4531 Q808.3906,802.6406 808.0625,801.5 Q807.7344,800.3438 807.7344,798.9531 Q807.7344,797.5781 808.1094,796.4219 Q808.4844,795.2656 809.2031,794.4375 Q809.9219,793.6094 810.9844,793.1563 Q812.0469,792.6875 813.4375,792.6875 Q814.3438,792.6875 815.25,792.9219 Q816.1563,793.1406 816.9844,793.5469 L816.1563,795.6406 Q815.4688,795.3125 814.7813,795.0781 Q814.0938,794.8281 813.4375,794.8281 Z " fill="#000000"/><text fill="#000000" font-family="sans-serif" font-size="12" lengthAdjust="spacingAndGlyphs" textLength="107" x="827.5" y="803.1543">ConnectionsFactory</text><!--MD5=[96f31d00847e9628d93d2720c47b9604]
class AllNeuroEdges--><rect codeLine="72" fill="#FEFECE" filter="url(#fqxmx5kvdl6fy)" height="32" id="AllNeuroEdges" style="stroke:#A80036;stroke-width:1.5;" width="111" x="1190.5" y="783"/><ellipse cx="1205.5" cy="799" fill="#ADD1B2" rx="11" ry="11" style="stroke:#A80036;stroke-width:1.0;"/><path d="M1205.4375,794.8281 Q1204.6875,794.8281 1204.125,795.125 Q1203.5625,795.4063 1203.1719,795.9375 Q1202.7813,796.4688 1202.5781,797.25 Q1202.3906,798.0156 1202.3906,798.9688 Q1202.3906,799.9375 1202.5625,800.7031 Q1202.75,801.4531 1203.1094,801.9688 Q1203.4844,802.4844 1204.0625,802.7656 Q1204.6406,803.0313 1205.4375,803.0313 Q1206.1719,803.0313 1206.9063,802.8594 Q1207.6563,802.6875 1208.5313,802.3906 L1208.5313,804.5469 Q1208.125,804.7031 1207.7344,804.8281 Q1207.3438,804.9375 1206.9375,805.0156 Q1206.5313,805.0938 1206.1094,805.125 Q1205.6875,805.1719 1205.1875,805.1719 Q1203.7813,805.1719 1202.75,804.7188 Q1201.7344,804.2656 1201.0625,803.4531 Q1200.3906,802.6406 1200.0625,801.5 Q1199.7344,800.3438 1199.7344,798.9531 Q1199.7344,797.5781 1200.1094,796.4219 Q1200.4844,795.2656 1201.2031,794.4375 Q1201.9219,793.6094 1202.9844,793.1563 Q1204.0469,792.6875 1205.4375,792.6875 Q1206.3438,792.6875 1207.25,792.9219 Q1208.1563,793.1406 1208.9844,793.5469 L1208.1563,795.6406 Q1207.4688,795.3125 1206.7813,795.0781 Q1206.0938,794.8281 1205.4375,794.8281 Z " fill="#000000"/><text fill="#000000" font-family="sans-serif" font-size="12" lengthAdjust="spacingAndGlyphs" textLength="79" x="1219.5" y="803.1543">AllNeuroEdges</text><!--MD5=[06f12ec46b87224fd0e1c514fed4a6e4]
class AllEdges--><rect fill="#FEFECE" filter="url(#fqxmx5kvdl6fy)" height="32" id="AllEdges" style="stroke:#A80036;stroke-width:1.5;" width="77" x="1138.5" y="674"/><ellipse cx="1153.5" cy="690" fill="#B4A7E5" rx="11" ry="11" style="stroke:#A80036;stroke-width:1.0;"/><path d="M1156.0625,696 L1150.5469,696 L1150.5469,694.5313 L1152.0313,693.8594 L1152.0313,686 L1150.5469,685.3281 L1150.5469,683.8594 L1156.0625,683.8594 L1156.0625,685.3281 L1154.5938,686 L1154.5938,693.8594 L1156.0625,694.5313 L1156.0625,696 Z " fill="#000000"/><text fill="#000000" font-family="sans-serif" font-size="12" font-style="italic" lengthAdjust="spacingAndGlyphs" textLength="45" x="1167.5" y="694.1543">AllEdges</text><!--MD5=[cfe37ad1a50a7dcaaf80645f5fb9fa69]
class AllSpikingSynapses--><rect codeLine="73" fill="#FEFECE" filter="url(#fqxmx5kvdl6fy)" height="32" id="AllSpikingSynapses" style="stroke:#A80036;stroke-width:1.5;" width="136" x="1238" y="894"/><ellipse cx="1253" cy="910" fill="#ADD1B2" rx="11" ry="11" style="stroke:#A80036;stroke-width:1.0;"/><path d="M1252.9375,905.8281 Q1252.1875,905.8281 1251.625,906.125 Q1251.0625,906.4063 1250.6719,906.9375 Q1250.2813,907.4688 1250.0781,908.25 Q1249.8906,909.0156 1249.8906,909.9688 Q1249.8906,910.9375 1250.0625,911.7031 Q1250.25,912.4531 1250.6094,912.9688 Q1250.9844,913.4844 1251.5625,913.7656 Q1252.1406,914.0313 1252.9375,914.0313 Q1253.6719,914.0313 1254.4063,913.8594 Q1255.1563,913.6875 1256.0313,913.3906 L1256.0313,915.5469 Q1255.625,915.7031 1255.2344,915.8281 Q1254.8438,915.9375 1254.4375,916.0156 Q1254.0313,916.0938 1253.6094,916.125 Q1253.1875,916.1719 1252.6875,916.1719 Q1251.2813,916.1719 1250.25,915.7188 Q1249.2344,915.2656 1248.5625,914.4531 Q1247.8906,913.6406 1247.5625,912.5 Q1247.2344,911.3438 1247.2344,909.9531 Q1247.2344,908.5781 1247.6094,907.4219 Q1247.9844,906.2656 1248.7031,905.4375 Q1249.4219,904.6094 1250.4844,904.1563 Q1251.5469,903.6875 1252.9375,903.6875 Q1253.8438,903.6875 1254.75,903.9219 Q1255.6563,904.1406 1256.4844,904.5469 L1255.6563,906.6406 Q1254.9688,906.3125 1254.2813,906.0781 Q1253.5938,905.8281 1252.9375,905.8281 Z " fill="#000000"/><text fill="#000000" font-family="sans-serif" font-size="12" lengthAdjust="spacingAndGlyphs" textLength="104" x="1267" y="914.1543">AllSpikingSynapses</text><!--MD5=[635988d62f36dba7a8b9baa086d12f03]
class AllSTDPSynapses--><rect codeLine="74" fill="#FEFECE" filter="url(#fqxmx5kvdl6fy)" height="32" id="AllSTDPSynapses" style="stroke:#A80036;stroke-width:1.5;" width="126" x="1243" y="987"/><ellipse cx="1258" cy="1003" fill="#ADD1B2" rx="11" ry="11" style="stroke:#A80036;stroke-width:1.0;"/><path d="M1257.9375,998.8281 Q1257.1875,998.8281 1256.625,999.125 Q1256.0625,999.4063 1255.6719,999.9375 Q1255.2813,1000.4688 1255.0781,1001.25 Q1254.8906,1002.0156 1254.8906,1002.9688 Q1254.8906,1003.9375 1255.0625,1004.7031 Q1255.25,1005.4531 1255.6094,1005.9688 Q1255.9844,1006.4844 1256.5625,1006.7656 Q1257.1406,1007.0313 1257.9375,1007.0313 Q1258.6719,1007.0313 1259.4063,1006.8594 Q1260.1563,1006.6875 1261.0313,1006.3906 L1261.0313,1008.5469 Q1260.625,1008.7031 1260.2344,1008.8281 Q1259.8438,1008.9375 1259.4375,1009.0156 Q1259.0313,1009.0938 1258.6094,1009.125 Q1258.1875,1009.1719 1257.6875,1009.1719 Q1256.2813,1009.1719 1255.25,1008.7188 Q1254.2344,1008.2656 1253.5625,1007.4531 Q1252.8906,1006.6406 1252.5625,1005.5 Q1252.2344,1004.3438 1252.2344,1002.9531 Q1252.2344,1001.5781 1252.6094,1000.4219 Q1252.9844,999.2656 1253.7031,998.4375 Q1254.4219,997.6094 1255.4844,997.1563 Q1256.5469,996.6875 1257.9375,996.6875 Q1258.8438,996.6875 1259.75,996.9219 Q1260.6563,997.1406 1261.4844,997.5469 L1260.6563,999.6406 Q1259.9688,999.3125 1259.2813,999.0781 Q1258.5938,998.8281 1257.9375,998.8281 Z " fill="#000000"/><text fill="#000000" font-family="sans-serif" font-size="12" lengthAdjust="spacingAndGlyphs" textLength="94" x="1272" y="1007.1543">AllSTDPSynapses</text><!--MD5=[935a686a552498c9fe3db149d943753f]
class AllDSSynapses--><rect codeLine="75" fill="#FEFECE" filter="url(#fqxmx5kvdl6fy)" height="32" id="AllDSSynapses" style="stroke:#A80036;stroke-width:1.5;" width="112" x="1434" y="987"/><ellipse cx="1449" cy="1003" fill="#ADD1B2" rx="11" ry="11" style="stroke:#A80036;stroke-width:1.0;"/><path d="M1448.9375,998.8281 Q1448.1875,998.8281 1447.625,999.125 Q1447.0625,999.4063 1446.6719,999.9375 Q1446.2813,1000.4688 1446.0781,1001.25 Q1445.8906,1002.0156 1445.8906,1002.9688 Q1445.8906,1003.9375 1446.0625,1004.7031 Q1446.25,1005.4531 1446.6094,1005.9688 Q1446.9844,1006.4844 1447.5625,1006.7656 Q1448.1406,1007.0313 1448.9375,1007.0313 Q1449.6719,1007.0313 1450.4063,1006.8594 Q1451.1563,1006.6875 1452.0313,1006.3906 L1452.0313,1008.5469 Q1451.625,1008.7031 1451.2344,1008.8281 Q1450.8438,1008.9375 1450.4375,1009.0156 Q1450.0313,1009.0938 1449.6094,1009.125 Q1449.1875,1009.1719 1448.6875,1009.1719 Q1447.2813,1009.1719 1446.25,1008.7188 Q1445.2344,1008.2656 1444.5625,1007.4531 Q1443.8906,1006.6406 1443.5625,1005.5 Q1443.2344,1004.3438 1443.2344,1002.9531 Q1443.2344,1001.5781 1443.6094,1000.4219 Q1443.9844,999.2656 1444.7031,998.4375 Q1445.4219,997.6094 1446.4844,997.1563 Q1447.5469,996.6875 1448.9375,996.6875 Q1449.8438,996.6875 1450.75,996.9219 Q1451.6563,997.1406 1452.4844,997.5469 L1451.6563,999.6406 Q1450.9688,999.3125 1450.2813,999.0781 Q1449.5938,998.8281 1448.9375,998.8281 Z " fill="#000000"/><text fill="#000000" font-family="sans-serif" font-size="12" lengthAdjust="spacingAndGlyphs" textLength="80" x="1463" y="1007.1543">AllDSSynapses</text><!--MD5=[fd6ea4ca2934104fc4a12eb686a910c8]
class AllDynamicsSTDPSynapses--><rect codeLine="76" fill="#FEFECE" filter="url(#fqxmx5kvdl6fy)" height="32" id="AllDynamicsSTDPSynapses" style="stroke:#A80036;stroke-width:1.5;" width="179" x="1130.5" y="1098"/><ellipse cx="1145.5" cy="1114" fill="#ADD1B2" rx="11" ry="11" style="stroke:#A80036;stroke-width:1.0;"/><path d="M1145.4375,1109.8281 Q1144.6875,1109.8281 1144.125,1110.125 Q1143.5625,1110.4063 1143.1719,1110.9375 Q1142.7813,1111.4688 1142.5781,1112.25 Q1142.3906,1113.0156 1142.3906,1113.9688 Q1142.3906,1114.9375 1142.5625,1115.7031 Q1142.75,1116.4531 1143.1094,1116.9688 Q1143.4844,1117.4844 1144.0625,1117.7656 Q1144.6406,1118.0313 1145.4375,1118.0313 Q1146.1719,1118.0313 1146.9063,1117.8594 Q1147.6563,1117.6875 1148.5313,1117.3906 L1148.5313,1119.5469 Q1148.125,1119.7031 1147.7344,1119.8281 Q1147.3438,1119.9375 1146.9375,1120.0156 Q1146.5313,1120.0938 1146.1094,1120.125 Q1145.6875,1120.1719 1145.1875,1120.1719 Q1143.7813,1120.1719 1142.75,1119.7188 Q1141.7344,1119.2656 1141.0625,1118.4531 Q1140.3906,1117.6406 1140.0625,1116.5 Q1139.7344,1115.3438 1139.7344,1113.9531 Q1139.7344,1112.5781 1140.1094,1111.4219 Q1140.4844,1110.2656 1141.2031,1109.4375 Q1141.9219,1108.6094 1142.9844,1108.1563 Q1144.0469,1107.6875 1145.4375,1107.6875 Q1146.3438,1107.6875 1147.25,1107.9219 Q1148.1563,1108.1406 1148.9844,1108.5469 L1148.1563,1110.6406 Q1147.4688,1110.3125 1146.7813,1110.0781 Q1146.0938,1109.8281 1145.4375,1109.8281 Z " fill="#000000"/><text fill="#000000" font-family="sans-serif" font-size="12" lengthAdjust="spacingAndGlyphs" textLength="147" x="1159.5" y="1118.1543">AllDynamicsSTDPSynapses</text><!--MD5=[2137c854024e09e8076c84fb007b1c3c]
class EdgesFactory--><rect codeLine="77" fill="#FEFECE" filter="url(#fqxmx5kvdl6fy)" height="32" id="EdgesFactory" style="stroke:#A80036;stroke-width:1.5;" width="103" x="1288.5" y="1207"/><ellipse cx="1303.5" cy="1223" fill="#ADD1B2" rx="11" ry="11" style="stroke:#A80036;stroke-width:1.0;"/><path d="M1303.4375,1218.8281 Q1302.6875,1218.8281 1302.125,1219.125 Q1301.5625,1219.4063 1301.1719,1219.9375 Q1300.7813,1220.4688 1300.5781,1221.25 Q1300.3906,1222.0156 1300.3906,1222.9688 Q1300.3906,1223.9375 1300.5625,1224.7031 Q1300.75,1225.4531 1301.1094,1225.9688 Q1301.4844,1226.4844 1302.0625,1226.7656 Q1302.6406,1227.0313 1303.4375,1227.0313 Q1304.1719,1227.0313 1304.9063,1226.8594 Q1305.6563,1226.6875 1306.5313,1226.3906 L1306.5313,1228.5469 Q1306.125,1228.7031 1305.7344,1228.8281 Q1305.3438,1228.9375 1304.9375,1229.0156 Q1304.5313,1229.0938 1304.1094,1229.125 Q1303.6875,1229.1719 1303.1875,1229.1719 Q1301.7813,1229.1719 1300.75,1228.7188 Q1299.7344,1228.2656 1299.0625,1227.4531 Q1298.3906,1226.6406 1298.0625,1225.5 Q1297.7344,1224.3438 1297.7344,1222.9531 Q1297.7344,1221.5781 1298.1094,1220.4219 Q1298.4844,1219.2656 1299.2031,1218.4375 Q1299.9219,1217.6094 1300.9844,1217.1563 Q1302.0469,1216.6875 1303.4375,1216.6875 Q1304.3438,1216.6875 1305.25,1216.9219 Q1306.1563,1217.1406 1306.9844,1217.5469 L1306.1563,1219.6406 Q1305.4688,1219.3125 1304.7813,1219.0781 Q1304.0938,1218.8281 1303.4375,1218.8281 Z " fill="#000000"/><text fill="#000000" font-family="sans-serif" font-size="12" lengthAdjust="spacingAndGlyphs" textLength="71" x="1317.5" y="1227.1543">EdgesFactory</text><!--MD5=[973c6b7f5e030bba668bdd48ca021633]
reverse link Model to CPUSpikingModel--><path d="M293.83,101.2 C293.83,101.2 293.83,141.99 293.83,141.99 " fill="none" id="Model-backto-CPUSpikingModel" style="stroke:#A80036;stroke-width:1.0;stroke-dasharray:7.0,7.0;"/><polygon fill="none" points="286.83,101.2,293.83,81.2,300.83,101.2,286.83,101.2" style="stroke:#A80036;stroke-width:1.0;"/><!--MD5=[9b59bd471ffb8f31c7aa79faa06b052a]
reverse link Model to GPUSpikingModel--><path d="M251.38,60 C251.38,60 124,60 124,60 C124,60 124,113.98 124,141.82 " fill="none" id="Model-backto-GPUSpikingModel" style="stroke:#A80036;stroke-width:1.0;stroke-dasharray:7.0,7.0;"/><polygon fill="none" points="251.38,53,271.38,60,251.38,67,251.38,53" style="stroke:#A80036;stroke-width:1.0;"/><!--MD5=[263ae887246c1ce3b32534d14bc96b50]
reverse link Simulator to Model--><path codeLine="18" d="M366.43,65 C366.43,65 338.56,65 338.56,65 " fill="none" id="Simulator-backto-Model" style="stroke:#A80036;stroke-width:1.0;"/><polygon fill="#FFFFFF" points="379.43,65,373.43,61,367.43,65,373.43,69,379.43,65" style="stroke:#A80036;stroke-width:1.0;"/><!--MD5=[20e356328185d61bc8b45199d7b6779f]
link Operations to OperationManager--><path codeLine="19" d="M317.64,267 C317.64,267 339.92,267 339.92,267 " fill="none" id="Operations-to-OperationManager" style="stroke:#A80036;stroke-width:1.0;"/><polygon fill="#FFFFFF" points="352.92,267,346.92,263,340.92,267,346.92,271,352.92,267" style="stroke:#A80036;stroke-width:1.0;"/><!--MD5=[e98819c6fcc605915f2efaee3c857d02]
link Simulator to OperationManager--><path codeLine="20" d="M422,81.19 C422,81.19 422,245.73 422,245.73 " fill="none" id="Simulator-to-OperationManager" style="stroke:#A80036;stroke-width:1.0;"/><polygon fill="#A80036" points="422,250.73,426,241.73,422,245.73,418,241.73,422,250.73" style="stroke:#A80036;stroke-width:1.0;"/><text fill="#000000" font-family="sans-serif" font-size="13" lengthAdjust="spacingAndGlyphs" textLength="65" x="423" y="162.5669">commands</text><!--MD5=[b35dc4a9eded40af5f77166015eedcf0]
link CPUSpikingModel to GPUSpikingModel--><!--MD5=[1cea4de5324fc0a8457098da950d03ec]
link CPUSpikingModel to Operations--><!--MD5=[9593627a9002a106d0f96da7ffbf61a2]
link OperationManager to ParameterManager--><!--MD5=[891067ebdc7a855417ab5d2553f427ef]
reverse link Layout to FixedLayout--><path d="M1086,101.2 C1086,101.2 1086,141.99 1086,141.99 " fill="none" id="Layout-backto-FixedLayout" style="stroke:#A80036;stroke-width:1.0;stroke-dasharray:7.0,7.0;"/><polygon fill="none" points="1079,101.2,1086,81.2,1093,101.2,1079,101.2" style="stroke:#A80036;stroke-width:1.0;"/><!--MD5=[7269b632a17f4028eba21f1bd63939ed]
reverse link Layout to DynamicLayout--><path d="M1031.87,78 C1031.87,78 945,78 945,78 C945,78 945,118.43 945,141.81 " fill="none" id="Layout-backto-DynamicLayout" style="stroke:#A80036;stroke-width:1.0;stroke-dasharray:7.0,7.0;"/><polygon fill="none" points="1031.87,71,1051.87,78,1031.87,85,1031.87,71" style="stroke:#A80036;stroke-width:1.0;"/><!--MD5=[46eb6d5f62098a9931e8efdb8e99157c]
reverse link FixedLayout to LayoutsFactory--><path codeLine="33" d="M1084,179.08 C1084,179.08 1084,267 1084,267 C1084,267 1040.02,267 1001.54,267 " fill="none" id="FixedLayout-backto-LayoutsFactory" style="stroke:#A80036;stroke-width:1.0;"/><polygon fill="#A80036" points="1084,174.08,1080,183.08,1084,179.08,1088,183.08,1084,174.08" style="stroke:#A80036;stroke-width:1.0;"/><text fill="#000000" font-family="sans-serif" font-size="13" lengthAdjust="spacingAndGlyphs" textLength="67" x="1060" y="217.0669">instantiates</text><!--MD5=[c9003fa7673fea298ac6dea79519d34f]
reverse link DynamicLayout to LayoutsFactory--><path codeLine="34" d="M945,179.08 C945,179.08 945,250.85 945,250.85 " fill="none" id="DynamicLayout-backto-LayoutsFactory" style="stroke:#A80036;stroke-width:1.0;"/><polygon fill="#A80036" points="945,174.08,941,183.08,945,179.08,949,183.08,945,174.08" style="stroke:#A80036;stroke-width:1.0;"/><text fill="#000000" font-family="sans-serif" font-size="13" lengthAdjust="spacingAndGlyphs" textLength="67" x="946" y="217.0669">instantiates</text><!--MD5=[f591e114573ccd2409f159b73ea72911]
reverse link AllVertices to AllSpikingNeurons--><path d="M1380,101.2 C1380,101.2 1380,141.99 1380,141.99 " fill="none" id="AllVertices-backto-AllSpikingNeurons" style="stroke:#A80036;stroke-width:1.0;stroke-dasharray:7.0,7.0;"/><polygon fill="none" points="1373,101.2,1380,81.2,1387,101.2,1373,101.2" style="stroke:#A80036;stroke-width:1.0;"/><!--MD5=[8724fdcf162cd93143062af7a28861a5]
reverse link AllSpikingNeurons to AllIFNeurons--><path d="M1391,194.08 C1391,194.08 1391,250.85 1391,250.85 " fill="none" id="AllSpikingNeurons-backto-AllIFNeurons" style="stroke:#A80036;stroke-width:1.0;"/><polygon fill="none" points="1384,194.08,1391,174.08,1398,194.08,1384,194.08" style="stroke:#A80036;stroke-width:1.0;"/><!--MD5=[f5565d651accd6e6b1dad5fbc033ae63]
reverse link AllIFNeurons to AllLiFNeurons--><path d="M1385.75,303.38 C1385.75,303.38 1385.75,361.92 1385.75,361.92 " fill="none" id="AllIFNeurons-backto-AllLiFNeurons" style="stroke:#A80036;stroke-width:1.0;"/><polygon fill="none" points="1378.75,303.38,1385.75,283.38,1392.75,303.38,1378.75,303.38" style="stroke:#A80036;stroke-width:1.0;"/><!--MD5=[62c6867a57863758a62158db896d0fc0]
reverse link AllIFNeurons to AllZHNeurons--><path d="M1437.5,303.1 C1437.5,303.1 1437.5,373 1437.5,373 C1437.5,373 1450.6,373 1466.35,373 " fill="none" id="AllIFNeurons-backto-AllZHNeurons" style="stroke:#A80036;stroke-width:1.0;"/><polygon fill="none" points="1430.5,303.1,1437.5,283.1,1444.5,303.1,1430.5,303.1" style="stroke:#A80036;stroke-width:1.0;"/><!--MD5=[816076678d7e4925980428acffa4a6e0]
reverse link AllLiFNeurons to VerticesFactory--><path codeLine="44" d="M1378.5,399.02 C1378.5,399.02 1378.5,525.67 1378.5,525.67 " fill="none" id="AllLiFNeurons-backto-VerticesFactory" style="stroke:#A80036;stroke-width:1.0;"/><polygon fill="#A80036" points="1378.5,394.02,1374.5,403.02,1378.5,399.02,1382.5,403.02,1378.5,394.02" style="stroke:#A80036;stroke-width:1.0;"/><text fill="#000000" font-family="sans-serif" font-size="13" lengthAdjust="spacingAndGlyphs" textLength="67" x="1381" y="455.0669">instantiates</text><!--MD5=[3db3a0c82a3825d3c0c26b2962603658]
reverse link AllZHNeurons to VerticesFactory--><path codeLine="45" d="M1461.34,384 C1461.34,384 1434.5,384 1434.5,384 C1434.5,384 1434.5,485.81 1434.5,525.98 " fill="none" id="AllZHNeurons-backto-VerticesFactory" style="stroke:#A80036;stroke-width:1.0;"/><polygon fill="#A80036" points="1466.34,384,1457.34,380,1461.34,384,1457.34,388,1466.34,384" style="stroke:#A80036;stroke-width:1.0;"/><text fill="#000000" font-family="sans-serif" font-size="13" lengthAdjust="spacingAndGlyphs" textLength="67" x="1498" y="455.0669">instantiates</text><!--MD5=[a32c8dc18938f820152f805b5dcbc3e8]
reverse link IRecorder to XmLRecorder--><path d="M240.79,548 C240.79,548 306.5,548 306.5,548 C306.5,548 306.5,636.85 306.5,673.99 " fill="none" id="IRecorder-backto-XmLRecorder" style="stroke:#A80036;stroke-width:1.0;stroke-dasharray:7.0,7.0;"/><polygon fill="none" points="240.79,555,220.79,548,240.79,541,240.79,555" style="stroke:#A80036;stroke-width:1.0;"/><!--MD5=[a0b975066a710a7895b5153868e55a27]
reverse link IRecorder to HDF5Recorder--><path d="M178,578.12 C178,578.12 178,673.9 178,673.9 " fill="none" id="IRecorder-backto-HDF5Recorder" style="stroke:#A80036;stroke-width:1.0;stroke-dasharray:7.0,7.0;"/><polygon fill="none" points="171,578.12,178,558.12,185,578.12,171,578.12" style="stroke:#A80036;stroke-width:1.0;"/><!--MD5=[93e5a6ee61d1f05a63d1d290b5da68e0]
reverse link XmLRecorder to XmlGrowthRecroder--><path d="M348,726.08 C348,726.08 348,782.85 348,782.85 " fill="none" id="XmLRecorder-backto-XmlGrowthRecroder" style="stroke:#A80036;stroke-width:1.0;"/><polygon fill="none" points="341,726.08,348,706.08,355,726.08,341,726.08" style="stroke:#A80036;stroke-width:1.0;"/><!--MD5=[9a9f80ee8e039ba0cdc0509d1d0ec35e]
reverse link HDF5Recorder to Hdf5GrowthRecorder--><path d="M163.75,726.08 C163.75,726.08 163.75,782.85 163.75,782.85 " fill="none" id="HDF5Recorder-backto-Hdf5GrowthRecorder" style="stroke:#A80036;stroke-width:1.0;"/><polygon fill="none" points="156.75,726.08,163.75,706.08,170.75,726.08,156.75,726.08" style="stroke:#A80036;stroke-width:1.0;"/><!--MD5=[3af4f1eecf578f95c361f55f01de5f0e]
reverse link XmLRecorder to RecordersFactory--><path codeLine="55" d="M290.39,690 C290.39,690 255.25,690 255.25,690 C255.25,690 255.25,922.21 255.25,986.61 " fill="none" id="XmLRecorder-backto-RecordersFactory" style="stroke:#A80036;stroke-width:1.0;"/><polygon fill="#A80036" points="295.39,690,286.39,686,290.39,690,286.39,694,295.39,690" style="stroke:#A80036;stroke-width:1.0;"/><text fill="#000000" font-family="sans-serif" font-size="13" lengthAdjust="spacingAndGlyphs" textLength="67" x="388" y="860.0669">instantiates</text><!--MD5=[427f0813d0781cf9b4a277c1904c7c53]
reverse link HDF5Recorder to RecordersFactory--><path codeLine="56" d="M218.75,711.39 C218.75,711.39 218.75,986.77 218.75,986.77 " fill="none" id="HDF5Recorder-backto-RecordersFactory" style="stroke:#A80036;stroke-width:1.0;"/><polygon fill="#A80036" points="218.75,706.39,214.75,715.39,218.75,711.39,222.75,715.39,218.75,706.39" style="stroke:#A80036;stroke-width:1.0;"/><text fill="#000000" font-family="sans-serif" font-size="13" lengthAdjust="spacingAndGlyphs" textLength="67" x="238" y="860.0669">instantiates</text><!--MD5=[ef7aead4e4de6a506f4bd6283eeb5cc2]
reverse link XmlGrowthRecroder to RecordersFactory--><path codeLine="57" d="M288.75,820.01 C288.75,820.01 288.75,986.78 288.75,986.78 " fill="none" id="XmlGrowthRecroder-backto-RecordersFactory" style="stroke:#A80036;stroke-width:1.0;"/><polygon fill="#A80036" points="288.75,815.01,284.75,824.01,288.75,820.01,292.75,824.01,288.75,815.01" style="stroke:#A80036;stroke-width:1.0;"/><text fill="#000000" font-family="sans-serif" font-size="13" lengthAdjust="spacingAndGlyphs" textLength="67" x="309" y="914.5669">instantiates</text><!--MD5=[4190e7fed19e1823e30f66c46aadd182]
reverse link Hdf5GrowthRecorder to RecordersFactory--><path codeLine="58" d="M189.25,820.01 C189.25,820.01 189.25,986.78 189.25,986.78 " fill="none" id="Hdf5GrowthRecorder-backto-RecordersFactory" style="stroke:#A80036;stroke-width:1.0;"/><polygon fill="#A80036" points="189.25,815.01,185.25,824.01,189.25,820.01,193.25,824.01,189.25,815.01" style="stroke:#A80036;stroke-width:1.0;"/><text fill="#000000" font-family="sans-serif" font-size="13" lengthAdjust="spacingAndGlyphs" textLength="67" x="133" y="914.5669">instantiates</text><!--MD5=[513ec0388948448dab3ce17eb36460f7]
reverse link Connections to ConnStatic--><path d="M903.73,553 C903.73,553 843,553 843,553 C843,553 843,637.46 843,673.75 " fill="none" id="Connections-backto-ConnStatic" style="stroke:#A80036;stroke-width:1.0;stroke-dasharray:7.0,7.0;"/><polygon fill="none" points="903.73,546,923.73,553,903.73,560,903.73,546" style="stroke:#A80036;stroke-width:1.0;"/><!--MD5=[10477add2578806cc5f98b33b8db5e65]
reverse link Connections to ConnGrowth--><path d="M974,578.12 C974,578.12 974,673.9 974,673.9 " fill="none" id="Connections-backto-ConnGrowth" style="stroke:#A80036;stroke-width:1.0;stroke-dasharray:7.0,7.0;"/><polygon fill="none" points="967,578.12,974,558.12,981,578.12,967,578.12" style="stroke:#A80036;stroke-width:1.0;"/><!--MD5=[ce8801c2acd2b0d49ec9478c2a92b972]
reverse link ConnStatic to ConnectionsFactory--><path codeLine="66" d="M844,711.08 C844,711.08 844,782.85 844,782.85 " fill="none" id="ConnStatic-backto-ConnectionsFactory" style="stroke:#A80036;stroke-width:1.0;"/><polygon fill="#A80036" points="844,706.08,840,715.08,844,711.08,848,715.08,844,706.08" style="stroke:#A80036;stroke-width:1.0;"/><text fill="#000000" font-family="sans-serif" font-size="13" lengthAdjust="spacingAndGlyphs" textLength="67" x="845" y="749.0669">instantiates</text><!--MD5=[de55930b9c422267ee87a004d94dc6e8]
reverse link ConnGrowth to ConnectionsFactory--><path codeLine="67" d="M931,711.08 C931,711.08 931,782.85 931,782.85 " fill="none" id="ConnGrowth-backto-ConnectionsFactory" style="stroke:#A80036;stroke-width:1.0;"/><polygon fill="#A80036" points="931,706.08,927,715.08,931,711.08,935,715.08,931,706.08" style="stroke:#A80036;stroke-width:1.0;"/><text fill="#000000" font-family="sans-serif" font-size="13" lengthAdjust="spacingAndGlyphs" textLength="67" x="955" y="749.0669">instantiates</text><!--MD5=[36cebae4583ca589f8881f15eca879f1]
reverse link AllEdges to AllNeuroEdges--><path d="M1203,726.08 C1203,726.08 1203,782.85 1203,782.85 " fill="none" id="AllEdges-backto-AllNeuroEdges" style="stroke:#A80036;stroke-width:1.0;stroke-dasharray:7.0,7.0;"/><polygon fill="none" points="1196,726.08,1203,706.08,1210,726.08,1196,726.08" style="stroke:#A80036;stroke-width:1.0;"/><!--MD5=[3d383143b8365dcb1c00482aec0d8f87]
reverse link AllNeuroEdges to AllSpikingSynapses--><path d="M1269.75,835.38 C1269.75,835.38 1269.75,893.92 1269.75,893.92 " fill="none" id="AllNeuroEdges-backto-AllSpikingSynapses" style="stroke:#A80036;stroke-width:1.0;"/><polygon fill="none" points="1262.75,835.38,1269.75,815.38,1276.75,835.38,1262.75,835.38" style="stroke:#A80036;stroke-width:1.0;"/><!--MD5=[587b9d07fbc4fdda6579551662042140]
reverse link AllSpikingSynapses to AllSTDPSynapses--><path d="M1306,946.2 C1306,946.2 1306,986.99 1306,986.99 " fill="none" id="AllSpikingSynapses-backto-AllSTDPSynapses" style="stroke:#A80036;stroke-width:1.0;"/><polygon fill="none" points="1299,946.2,1306,926.2,1313,946.2,1299,946.2" style="stroke:#A80036;stroke-width:1.0;"/><!--MD5=[f221506eaa2e129ebcab2e085332c1be]
reverse link AllSpikingSynapses to AllDSSynapses--><path d="M1394.27,910 C1394.27,910 1449.25,910 1449.25,910 C1449.25,910 1449.25,960.16 1449.25,986.8 " fill="none" id="AllSpikingSynapses-backto-AllDSSynapses" style="stroke:#A80036;stroke-width:1.0;"/><polygon fill="none" points="1394.27,917,1374.27,910,1394.27,903,1394.27,917" style="stroke:#A80036;stroke-width:1.0;"/><!--MD5=[b9dc5ca9d326f6b2e35f4ef44c514701]
reverse link AllSTDPSynapses to AllDynamicsSTDPSynapses--><path d="M1276.25,1039.38 C1276.25,1039.38 1276.25,1097.92 1276.25,1097.92 " fill="none" id="AllSTDPSynapses-backto-AllDynamicsSTDPSynapses" style="stroke:#A80036;stroke-width:1.0;"/><polygon fill="none" points="1269.25,1039.38,1276.25,1019.38,1283.25,1039.38,1269.25,1039.38" style="stroke:#A80036;stroke-width:1.0;"/><!--MD5=[4407787554ed777fb67af52573db306c]
reverse link AllSTDPSynapses to EdgesFactory--><path codeLine="78" d="M1339.25,1024.18 C1339.25,1024.18 1339.25,1206.8 1339.25,1206.8 " fill="none" id="AllSTDPSynapses-backto-EdgesFactory" style="stroke:#A80036;stroke-width:1.0;"/><polygon fill="#A80036" points="1339.25,1019.18,1335.25,1028.18,1339.25,1024.18,1343.25,1028.18,1339.25,1019.18" style="stroke:#A80036;stroke-width:1.0;"/><text fill="#000000" font-family="sans-serif" font-size="13" lengthAdjust="spacingAndGlyphs" textLength="67" x="1381" y="1118.5669">instantiates</text><!--MD5=[541346a73ae12603d046e53bdf8cd025]
reverse link AllDSSynapses to EdgesFactory--><path codeLine="79" d="M1428.86,1003 C1428.86,1003 1382.75,1003 1382.75,1003 C1382.75,1003 1382.75,1156.02 1382.75,1206.82 " fill="none" id="AllDSSynapses-backto-EdgesFactory" style="stroke:#A80036;stroke-width:1.0;"/><polygon fill="#A80036" points="1433.86,1003,1424.86,999,1428.86,1003,1424.86,1007,1433.86,1003" style="stroke:#A80036;stroke-width:1.0;"/><text fill="#000000" font-family="sans-serif" font-size="13" lengthAdjust="spacingAndGlyphs" textLength="67" x="1520" y="1118.5669">instantiates</text><!--MD5=[1104c1ad87384c985d15bad9d62e0bea]
reverse link AllDynamicsSTDPSynapses to EdgesFactory--><path codeLine="80" d="M1299,1135.08 C1299,1135.08 1299,1206.85 1299,1206.85 " fill="none" id="AllDynamicsSTDPSynapses-backto-EdgesFactory" style="stroke:#A80036;stroke-width:1.0;"/><polygon fill="#A80036" points="1299,1130.08,1295,1139.08,1299,1135.08,1303,1139.08,1299,1130.08" style="stroke:#A80036;stroke-width:1.0;"/><text fill="#000000" font-family="sans-serif" font-size="13" lengthAdjust="spacingAndGlyphs" textLength="67" x="1261" y="1173.0669">instantiates</text><!--MD5=[2c61cf99b0bec386ca840c193763b14a]
link Simulator to LayoutsFactory--><path codeLine="84" d="M464.62,69 C485.52,69 506.25,69 506.25,69 C506.25,69 506.25,267 506.25,267 C506.25,267 883.09,267 883.09,267 " fill="none" id="Simulator-to-LayoutsFactory" style="stroke:#FF0000;stroke-width:1.0;"/><polygon fill="#FF0000" points="888.09,267,879.09,263,883.09,267,879.09,271,888.09,267" style="stroke:#FF0000;stroke-width:1.0;"/><text fill="#000000" font-family="sans-serif" font-size="13" lengthAdjust="spacingAndGlyphs" textLength="65" x="702" y="162.5669">commands</text><!--MD5=[54271b6078ede2b7f4d9940e12d64874]
link Simulator to ConnectionsFactory--><path codeLine="85" d="M464.92,72 C483.25,72 500.5,72 500.5,72 C500.5,72 500.5,799 500.5,799 C500.5,799 793.44,799 793.44,799 " fill="none" id="Simulator-to-ConnectionsFactory" style="stroke:#FF0000;stroke-width:1.0;"/><polygon fill="#FF0000" points="798.44,799,789.44,795,793.44,799,789.44,803,798.44,799" style="stroke:#FF0000;stroke-width:1.0;"/><text fill="#000000" font-family="sans-serif" font-size="13" lengthAdjust="spacingAndGlyphs" textLength="65" x="543" y="382.5669">commands</text><!--MD5=[b713f3d69270fc8ec7550a1fa12578d8]
link Simulator to RecordersFactory--><path codeLine="86" d="M464.74,75 C480.58,75 494.75,75 494.75,75 C494.75,75 494.75,1003 494.75,1003 C494.75,1003 305.05,1003 305.05,1003 " fill="none" id="Simulator-to-RecordersFactory" style="stroke:#FF0000;stroke-width:1.0;"/><polygon fill="#FF0000" points="300.05,1003,309.05,1007,305.05,1003,309.05,999,300.05,1003" style="stroke:#FF0000;stroke-width:1.0;"/><text fill="#000000" font-family="sans-serif" font-size="13" lengthAdjust="spacingAndGlyphs" textLength="65" x="7" y="546.5669">commands</text><!--MD5=[a911b337811af7fd7ce810fac5ac8c54]
reverse link Model to Layout--><path codeLine="87" d="M305,35.99 C305,35.99 305,22 305,22 C305,22 1086,22 1086,22 C1086,22 1086,36.76 1086,48.99 " fill="none" id="Model-backto-Layout" style="stroke:#FF0000;stroke-width:1.0;"/><polygon fill="#FFFFFF" points="305,48.99,309,42.99,305,36.99,301,42.99,305,48.99" style="stroke:#FF0000;stroke-width:1.0;"/><!--MD5=[0e5738770afdb953f3cb9465cb228f84]
reverse link Model to Connections--><path codeLine="88" d="M316.17,94.17 C316.17,94.17 316.17,112 316.17,112 C316.17,112 1013.25,112 1013.25,112 C1013.25,112 1013.25,447.87 1013.25,525.93 " fill="none" id="Model-backto-Connections" style="stroke:#FF0000;stroke-width:1.0;"/><polygon fill="#FFFFFF" points="316.17,81.17,312.17,87.17,316.17,93.17,320.17,87.17,316.17,81.17" style="stroke:#FF0000;stroke-width:1.0;"/><!--MD5=[68c77613e519ddb3f64ca187dac87597]
reverse link Model to IRecorder--><path codeLine="89" d="M258.26,71 C258.26,71 204.5,71 204.5,71 C204.5,71 204.5,442.97 204.5,525.79 " fill="none" id="Model-backto-IRecorder" style="stroke:#FF0000;stroke-width:1.0;"/><polygon fill="#FFFFFF" points="271.26,71,265.26,67,259.26,71,265.26,75,271.26,71" style="stroke:#FF0000;stroke-width:1.0;"/><!--MD5=[efb7ef13657b6fc949565044919673f3]
reverse link Layout to AllVertices--><path codeLine="92" d="M1133.01,71 C1133.01,71 1335.29,71 1335.29,71 " fill="none" id="Layout-backto-AllVertices" style="stroke:#FF0000;stroke-width:1.0;"/><polygon fill="#FFFFFF" points="1120.01,71,1126.01,75,1132.01,71,1126.01,67,1120.01,71" style="stroke:#FF0000;stroke-width:1.0;"/><!--MD5=[30ebdb8fe104fc5727699212f68639a3]
link Layout to VerticesFactory--><path codeLine="93" d="M1120.32,76 C1135.87,76 1150.83,76 1150.83,76 C1150.83,76 1150.83,539 1150.83,539 C1150.83,539 1320.31,539 1320.31,539 " fill="none" id="Layout-to-VerticesFactory" style="stroke:#FF0000;stroke-width:1.0;"/><polygon fill="#FF0000" points="1325.31,539,1316.31,535,1320.31,539,1316.31,543,1325.31,539" style="stroke:#FF0000;stroke-width:1.0;"/><text fill="#000000" font-family="sans-serif" font-size="13" lengthAdjust="spacingAndGlyphs" textLength="65" x="1140" y="271.5669">commands</text><!--MD5=[25007e0d6d2bc2691ed586569b6b25e2]
reverse link Connections to AllEdges--><path codeLine="97" d="M1037.28,552 C1037.28,552 1144.67,552 1144.67,552 C1144.67,552 1144.67,637.5 1144.67,673.9 " fill="none" id="Connections-backto-AllEdges" style="stroke:#FF0000;stroke-width:1.0;"/><polygon fill="#FFFFFF" points="1024.28,552,1030.28,556,1036.28,552,1030.28,548,1024.28,552" style="stroke:#FF0000;stroke-width:1.0;"/><!--MD5=[485b9368dfec1399f74485e1b2980e82]
link Connections to EdgesFactory--><path codeLine="98" d="M1024.24,533 C1028.22,533 1030.75,533 1030.75,533 C1030.75,533 1030.75,1223 1030.75,1223 C1030.75,1223 1283.24,1223 1283.24,1223 " fill="none" id="Connections-to-EdgesFactory" style="stroke:#FF0000;stroke-width:1.0;"/><polygon fill="#FF0000" points="1288.24,1223,1279.24,1219,1283.24,1223,1279.24,1227,1288.24,1223" style="stroke:#FF0000;stroke-width:1.0;"/><text fill="#000000" font-family="sans-serif" font-size="13" lengthAdjust="spacingAndGlyphs" textLength="65" x="1078" y="914.5669">commands</text><!--MD5=[d95cba7a564e0eb2f945d9455f1e08a4]
link Core to Layouts--><!--MD5=[3a074d6a93e7e88a957dba9b80e50081]
link Layouts to Vertices--><!--MD5=[42be6bbbc523329e8d13badc94475598]
link Core to Recorders--><!--MD5=[9f00652237e409965a409b02122331f2]
link Layouts to Connections--><!--MD5=[e07bd046f8fc72b6c553dc19b1427184]
link Vertices to Edges--><!--MD5=[a40800691356dd6779a3ba3dc759a2a4]
@startuml package UML

/'set up line '/
skinparam linetype ortho
/'hide the class members '/
hide members

/'package '/
package Core{
   /'class '/
   class Simulator
   class CPUSpikingModel implements Model
   class GPUSpikingModel implements Model
   class Operations
   class OperationManager 
   class ParameterManager 

   /'class relationships in this package '/
   Model -left-o Simulator 
   Operations -right-o OperationManager   
   Simulator - - -> OperationManager : commands 
  
   /' relative position of classes in this diagram'/
   CPUSpikingModel -[hidden]right> GPUSpikingModel
   CPUSpikingModel -[hidden]-> Operations
   OperationManager -[hidden]-> ParameterManager
}

/'package '/
package Layouts{
   class FixedLayout implements Layout
   class DynamicLayout implements Layout
   class LayoutsFactory
   FixedLayout <- - LayoutsFactory : instantiates
   DynamicLayout <- - LayoutsFactory : instantiates
}

/'package '/
package Vertices{
   class AllSpikingNeurons implements AllVertices
   class AllIFNeurons extends AllSpikingNeurons
   class AllLiFNeurons extends AllIFNeurons
   class AllZHNeurons extends AllIFNeurons
   class VerticesFactory 
   VerticesFactory -up-> AllLiFNeurons : instantiates
   VerticesFactory -up-> AllZHNeurons : instantiates
}

/'package '/
package Recorders{
   class  XmLRecorder implements IRecorder
   class HDF5Recorder implements IRecorder
   class XmlGrowthRecroder extends XmLRecorder
   class Hdf5GrowthRecorder extends HDF5Recorder
   class RecordersFactory
   XmLRecorder <- - RecordersFactory : instantiates
   HDF5Recorder <- - RecordersFactory : instantiates
   XmlGrowthRecroder <- - - RecordersFactory : instantiates
   Hdf5GrowthRecorder <- - - RecordersFactory : instantiates
}

/'package '/
package Connections{
   class ConnStatic implements Connections
   class ConnGrowth Implements Connections
   class ConnectionsFactory
   ConnectionsFactory - -up> ConnStatic : instantiates
   ConnectionsFactory - -up> ConnGrowth  : instantiates
}

/'package '/
package Edges{
   class AllNeuroEdges implements AllEdges
   class AllSpikingSynapses extends AllNeuroEdges
   class AllSTDPSynapses extends AllSpikingSynapses
   class AllDSSynapses extends AllSpikingSynapses
   class AllDynamicsSTDPSynapses extends AllSTDPSynapses
   class EdgesFactory
   EdgesFactory - -up-> AllSTDPSynapses : instantiates
   EdgesFactory - -up-> AllDSSynapses : instantiates
   EdgesFactory - -up> AllDynamicsSTDPSynapses : instantiates
}

/'relationship of classes in Core and other packages'/
Simulator -[#red]-> LayoutsFactory : commands
Simulator -[#red]- - - -> ConnectionsFactory: commands
Simulator -[#red]- - - -> RecordersFactory: commands
Model o-[#red] Layout
Model o-[#red]- - Connections
Model o-[#red]- - - IRecorder

'relationship of classes in package Layouts and Vertices'/
Layout o-[#red] AllVertices
Layout -[#red]- - -> VerticesFactory : commands

/'relationship of classes in package connections and other package'/
/'Connections here refers to the interface in package'/
Connections o-[#red]- AllEdges
Connections -[#red]- - -> EdgesFactory : commands

/'overall image layout'/
/'set up relative packages position in this diagram '/
Core -[hidden]right>  Layouts
Layouts -[hidden]right> Vertices
Core -[hidden]down- - - -> Recorders
Layouts -[hidden]down- - - -> Connections
Vertices -[hidden]down- - - - -> Edges
@enduml

@startuml package UML

skinparam linetype ortho
hide members

package Core{
   class Simulator
   class CPUSpikingModel implements Model
   class GPUSpikingModel implements Model
   class Operations
   class OperationManager 
   class ParameterManager 

   Model -left-o Simulator 
   Operations -right-o OperationManager   
   Simulator - - -> OperationManager : commands 
  
   CPUSpikingModel -[hidden]right> GPUSpikingModel
   CPUSpikingModel -[hidden]-> Operations
   OperationManager -[hidden]-> ParameterManager
}

package Layouts{
   class FixedLayout implements Layout
   class DynamicLayout implements Layout
   class LayoutsFactory
   FixedLayout <- - LayoutsFactory : instantiates
   DynamicLayout <- - LayoutsFactory : instantiates
}

package Vertices{
   class AllSpikingNeurons implements AllVertices
   class AllIFNeurons extends AllSpikingNeurons
   class AllLiFNeurons extends AllIFNeurons
   class AllZHNeurons extends AllIFNeurons
   class VerticesFactory 
   VerticesFactory -up-> AllLiFNeurons : instantiates
   VerticesFactory -up-> AllZHNeurons : instantiates
}

package Recorders{
   class  XmLRecorder implements IRecorder
   class HDF5Recorder implements IRecorder
   class XmlGrowthRecroder extends XmLRecorder
   class Hdf5GrowthRecorder extends HDF5Recorder
   class RecordersFactory
   XmLRecorder <- - RecordersFactory : instantiates
   HDF5Recorder <- - RecordersFactory : instantiates
   XmlGrowthRecroder <- - - RecordersFactory : instantiates
   Hdf5GrowthRecorder <- - - RecordersFactory : instantiates
}

package Connections{
   class ConnStatic implements Connections
   class ConnGrowth Implements Connections
   class ConnectionsFactory
   ConnectionsFactory - -up> ConnStatic : instantiates
   ConnectionsFactory - -up> ConnGrowth  : instantiates
}

package Edges{
   class AllNeuroEdges implements AllEdges
   class AllSpikingSynapses extends AllNeuroEdges
   class AllSTDPSynapses extends AllSpikingSynapses
   class AllDSSynapses extends AllSpikingSynapses
   class AllDynamicsSTDPSynapses extends AllSTDPSynapses
   class EdgesFactory
   EdgesFactory - -up-> AllSTDPSynapses : instantiates
   EdgesFactory - -up-> AllDSSynapses : instantiates
   EdgesFactory - -up> AllDynamicsSTDPSynapses : instantiates
}

Simulator -[#red]-> LayoutsFactory : commands
Simulator -[#red]- - - -> ConnectionsFactory: commands
Simulator -[#red]- - - -> RecordersFactory: commands
Model o-[#red] Layout
Model o-[#red]- - Connections
Model o-[#red]- - - IRecorder

Layout o-[#red] AllVertices
Layout -[#red]- - -> VerticesFactory : commands

Connections o-[#red]- AllEdges
Connections -[#red]- - -> EdgesFactory : commands

Core -[hidden]right>  Layouts
Layouts -[hidden]right> Vertices
Core -[hidden]down- - - -> Recorders
Layouts -[hidden]down- - - -> Connections
Vertices -[hidden]down- - - - -> Edges
@enduml

PlantUML version 1.2020.23(Sun Dec 13 19:14:58 GMT 2020)
(GPL source distribution)
Java Runtime: OpenJDK Runtime Environment
JVM: OpenJDK 64-Bit Server VM
Default Encoding: UTF-8
Language: en
Country: US
--></g></svg>