<?xml version="1.0" encoding="UTF-8" standalone="no"?><svg xmlns="http://www.w3.org/2000/svg" xmlns:xlink="http://www.w3.org/1999/xlink" contentScriptType="application/ecmascript" contentStyleType="text/css" height="1245px" preserveAspectRatio="none" style="width:2064px;height:1245px;" version="1.1" viewBox="0 0 2064 1245" width="2064px" zoomAndPan="magnify"><defs><filter height="300%" id="f11ke5tcw6wj8y" width="300%" x="-1" y="-1"><feGaussianBlur result="blurOut" stdDeviation="2.0"/><feColorMatrix in="blurOut" result="blurOut2" type="matrix" values="0 0 0 0 0 0 0 0 0 0 0 0 0 0 0 0 0 0 .4 0"/><feOffset dx="4.0" dy="4.0" in="blurOut2" result="blurOut3"/><feBlend in="SourceGraphic" in2="blurOut3" mode="normal"/></filter></defs><g><!--MD5=[2c2e2644034c00788261e03c85b06837]
cluster Core--><polygon fill="#FFFFFF" filter="url(#f11ke5tcw6wj8y)" points="439,32,483,32,490,54.2969,954,54.2969,954,481,439,481,439,32" style="stroke: #000000; stroke-width: 1.5;"/><line style="stroke: #000000; stroke-width: 1.5;" x1="439" x2="490" y1="54.2969" y2="54.2969"/><text fill="#000000" font-family="sans-serif" font-size="14" font-weight="bold" lengthAdjust="spacingAndGlyphs" textLength="38" x="443" y="46.9951">Core</text><!--MD5=[bcaa2b9ff15208c4e2012dff6dfdc182]
cluster Layouts--><polygon fill="#FFFFFF" filter="url(#f11ke5tcw6wj8y)" points="1156,32,1224,32,1231,54.2969,1478,54.2969,1478,333,1156,333,1156,32" style="stroke: #000000; stroke-width: 1.5;"/><line style="stroke: #000000; stroke-width: 1.5;" x1="1156" x2="1231" y1="54.2969" y2="54.2969"/><text fill="#000000" font-family="sans-serif" font-size="14" font-weight="bold" lengthAdjust="spacingAndGlyphs" textLength="62" x="1160" y="46.9951">Layouts</text><!--MD5=[8d26bb35548c3dcbc6e480db6528a15a]
cluster Vertices--><polygon fill="#FFFFFF" filter="url(#f11ke5tcw6wj8y)" points="1718,32,1790,32,1797,54.2969,2042,54.2969,2042,645,1718,645,1718,32" style="stroke: #000000; stroke-width: 1.5;"/><line style="stroke: #000000; stroke-width: 1.5;" x1="1718" x2="1797" y1="54.2969" y2="54.2969"/><text fill="#000000" font-family="sans-serif" font-size="14" font-weight="bold" lengthAdjust="spacingAndGlyphs" textLength="66" x="1722" y="46.9951">Vertices</text><!--MD5=[9168128f11ea68e0eeae1bee9b5f58d3]
cluster Recorders--><polygon fill="#FFFFFF" filter="url(#f11ke5tcw6wj8y)" points="30,546,118,546,125,568.2969,731,568.2969,731,1013,30,1013,30,546" style="stroke: #000000; stroke-width: 1.5;"/><line style="stroke: #000000; stroke-width: 1.5;" x1="30" x2="125" y1="568.2969" y2="568.2969"/><text fill="#000000" font-family="sans-serif" font-size="14" font-weight="bold" lengthAdjust="spacingAndGlyphs" textLength="82" x="34" y="560.9951">Recorders</text><!--MD5=[3a4496162e4aa4b8f639c92517849365]
cluster Connections--><polygon fill="#FFFFFF" filter="url(#f11ke5tcw6wj8y)" points="986,390,1091,390,1098,412.2969,1261,412.2969,1261,801,986,801,986,390" style="stroke: #000000; stroke-width: 1.5;"/><line style="stroke: #000000; stroke-width: 1.5;" x1="986" x2="1098" y1="412.2969" y2="412.2969"/><text fill="#000000" font-family="sans-serif" font-size="14" font-weight="bold" lengthAdjust="spacingAndGlyphs" textLength="99" x="990" y="404.9951">Connections</text><!--MD5=[a69b11994f1325ca382ee696cdd1fd0b]
cluster Edges--><polygon fill="#FFFFFF" filter="url(#f11ke5tcw6wj8y)" points="1327,710,1381,710,1388,732.2969,1875,732.2969,1875,1233,1327,1233,1327,710" style="stroke: #000000; stroke-width: 1.5;"/><line style="stroke: #000000; stroke-width: 1.5;" x1="1327" x2="1388" y1="732.2969" y2="732.2969"/><text fill="#000000" font-family="sans-serif" font-size="14" font-weight="bold" lengthAdjust="spacingAndGlyphs" textLength="48" x="1331" y="724.9951">Edges</text><!--MD5=[e78d3bd29d68b8fbdb4aae8710e3db25]
class Simulator--><rect fill="#FEFECE" filter="url(#f11ke5tcw6wj8y)" height="32" id="Simulator" style="stroke: #A80036; stroke-width: 1.5;" width="91" x="810.5" y="75"/><ellipse cx="825.5" cy="91" fill="#ADD1B2" rx="11" ry="11" style="stroke: #A80036; stroke-width: 1.0;"/><path d="M828.4688,96.6406 Q827.8906,96.9375 827.25,97.0781 Q826.6094,97.2344 825.9063,97.2344 Q823.4063,97.2344 822.0781,95.5938 Q820.7656,93.9375 820.7656,90.8125 Q820.7656,87.6875 822.0781,86.0313 Q823.4063,84.375 825.9063,84.375 Q826.6094,84.375 827.25,84.5313 Q827.9063,84.6875 828.4688,84.9844 L828.4688,87.7031 Q827.8438,87.125 827.25,86.8594 Q826.6563,86.5781 826.0313,86.5781 Q824.6875,86.5781 824,87.6563 Q823.3125,88.7188 823.3125,90.8125 Q823.3125,92.9063 824,93.9844 Q824.6875,95.0469 826.0313,95.0469 Q826.6563,95.0469 827.25,94.7813 Q827.8438,94.5 828.4688,93.9219 L828.4688,96.6406 Z "/><text fill="#000000" font-family="sans-serif" font-size="12" lengthAdjust="spacingAndGlyphs" textLength="59" x="839.5" y="95.1543">Simulator</text><!--MD5=[0b94f3229ccc3f95d40f9de2aafb3991]
class CPUSpikingModel--><rect fill="#FEFECE" filter="url(#f11ke5tcw6wj8y)" height="32" id="CPUSpikingModel" style="stroke: #A80036; stroke-width: 1.5;" width="139" x="646.5" y="168"/><ellipse cx="661.5" cy="184" fill="#ADD1B2" rx="11" ry="11" style="stroke: #A80036; stroke-width: 1.0;"/><path d="M664.4688,189.6406 Q663.8906,189.9375 663.25,190.0781 Q662.6094,190.2344 661.9063,190.2344 Q659.4063,190.2344 658.0781,188.5938 Q656.7656,186.9375 656.7656,183.8125 Q656.7656,180.6875 658.0781,179.0313 Q659.4063,177.375 661.9063,177.375 Q662.6094,177.375 663.25,177.5313 Q663.9063,177.6875 664.4688,177.9844 L664.4688,180.7031 Q663.8438,180.125 663.25,179.8594 Q662.6563,179.5781 662.0313,179.5781 Q660.6875,179.5781 660,180.6563 Q659.3125,181.7188 659.3125,183.8125 Q659.3125,185.9063 660,186.9844 Q660.6875,188.0469 662.0313,188.0469 Q662.6563,188.0469 663.25,187.7813 Q663.8438,187.5 664.4688,186.9219 L664.4688,189.6406 Z "/><text fill="#000000" font-family="sans-serif" font-size="12" lengthAdjust="spacingAndGlyphs" textLength="107" x="675.5" y="188.1543">CPUSpikingModel</text><!--MD5=[7e20e022571e30ec1001cf6eabd7f3e2]
class Model--><rect fill="#FEFECE" filter="url(#f11ke5tcw6wj8y)" height="32" id="Model" style="stroke: #A80036; stroke-width: 1.5;" width="69" x="706.5" y="75"/><ellipse cx="721.5" cy="91" fill="#B4A7E5" rx="11" ry="11" style="stroke: #A80036; stroke-width: 1.0;"/><path d="M717.4219,86.7656 L717.4219,84.6094 L724.8125,84.6094 L724.8125,86.7656 L722.3438,86.7656 L722.3438,94.8438 L724.8125,94.8438 L724.8125,97 L717.4219,97 L717.4219,94.8438 L719.8906,94.8438 L719.8906,86.7656 L717.4219,86.7656 Z "/><text fill="#000000" font-family="sans-serif" font-size="12" font-style="italic" lengthAdjust="spacingAndGlyphs" textLength="37" x="735.5" y="95.1543">Model</text><!--MD5=[9f94b75dce46dbb71fc5aed3e87d7d49]
class GPUSpikingModel--><rect fill="#FEFECE" filter="url(#f11ke5tcw6wj8y)" height="32" id="GPUSpikingModel" style="stroke: #A80036; stroke-width: 1.5;" width="140" x="471" y="168"/><ellipse cx="486" cy="184" fill="#ADD1B2" rx="11" ry="11" style="stroke: #A80036; stroke-width: 1.0;"/><path d="M488.9688,189.6406 Q488.3906,189.9375 487.75,190.0781 Q487.1094,190.2344 486.4063,190.2344 Q483.9063,190.2344 482.5781,188.5938 Q481.2656,186.9375 481.2656,183.8125 Q481.2656,180.6875 482.5781,179.0313 Q483.9063,177.375 486.4063,177.375 Q487.1094,177.375 487.75,177.5313 Q488.4063,177.6875 488.9688,177.9844 L488.9688,180.7031 Q488.3438,180.125 487.75,179.8594 Q487.1563,179.5781 486.5313,179.5781 Q485.1875,179.5781 484.5,180.6563 Q483.8125,181.7188 483.8125,183.8125 Q483.8125,185.9063 484.5,186.9844 Q485.1875,188.0469 486.5313,188.0469 Q487.1563,188.0469 487.75,187.7813 Q488.3438,187.5 488.9688,186.9219 L488.9688,189.6406 Z "/><text fill="#000000" font-family="sans-serif" font-size="12" lengthAdjust="spacingAndGlyphs" textLength="108" x="500" y="188.1543">GPUSpikingModel</text><!--MD5=[fdf81c1c7218c7a86b85d500a2db5e87]
class Operations--><rect fill="#FEFECE" filter="url(#f11ke5tcw6wj8y)" height="32" id="Operations" style="stroke: #A80036; stroke-width: 1.5;" width="101" x="645.5" y="277"/><ellipse cx="660.5" cy="293" fill="#ADD1B2" rx="11" ry="11" style="stroke: #A80036; stroke-width: 1.0;"/><path d="M663.4688,298.6406 Q662.8906,298.9375 662.25,299.0781 Q661.6094,299.2344 660.9063,299.2344 Q658.4063,299.2344 657.0781,297.5938 Q655.7656,295.9375 655.7656,292.8125 Q655.7656,289.6875 657.0781,288.0313 Q658.4063,286.375 660.9063,286.375 Q661.6094,286.375 662.25,286.5313 Q662.9063,286.6875 663.4688,286.9844 L663.4688,289.7031 Q662.8438,289.125 662.25,288.8594 Q661.6563,288.5781 661.0313,288.5781 Q659.6875,288.5781 659,289.6563 Q658.3125,290.7188 658.3125,292.8125 Q658.3125,294.9063 659,295.9844 Q659.6875,297.0469 661.0313,297.0469 Q661.6563,297.0469 662.25,296.7813 Q662.8438,296.5 663.4688,295.9219 L663.4688,298.6406 Z "/><text fill="#000000" font-family="sans-serif" font-size="12" lengthAdjust="spacingAndGlyphs" textLength="69" x="674.5" y="297.1543">Operations</text><!--MD5=[314e3b7c2db0a5a356d5ece57f37d58b]
class OperationManager--><rect fill="#FEFECE" filter="url(#f11ke5tcw6wj8y)" height="32" id="OperationManager" style="stroke: #A80036; stroke-width: 1.5;" width="149" x="781.5" y="277"/><ellipse cx="796.5" cy="293" fill="#ADD1B2" rx="11" ry="11" style="stroke: #A80036; stroke-width: 1.0;"/><path d="M799.4688,298.6406 Q798.8906,298.9375 798.25,299.0781 Q797.6094,299.2344 796.9063,299.2344 Q794.4063,299.2344 793.0781,297.5938 Q791.7656,295.9375 791.7656,292.8125 Q791.7656,289.6875 793.0781,288.0313 Q794.4063,286.375 796.9063,286.375 Q797.6094,286.375 798.25,286.5313 Q798.9063,286.6875 799.4688,286.9844 L799.4688,289.7031 Q798.8438,289.125 798.25,288.8594 Q797.6563,288.5781 797.0313,288.5781 Q795.6875,288.5781 795,289.6563 Q794.3125,290.7188 794.3125,292.8125 Q794.3125,294.9063 795,295.9844 Q795.6875,297.0469 797.0313,297.0469 Q797.6563,297.0469 798.25,296.7813 Q798.8438,296.5 799.4688,295.9219 L799.4688,298.6406 Z "/><text fill="#000000" font-family="sans-serif" font-size="12" lengthAdjust="spacingAndGlyphs" textLength="117" x="810.5" y="297.1543">OperationManager</text><!--MD5=[eb1da731c4a897e81e143002ff161e69]
class ParameterManager--><rect fill="#FEFECE" filter="url(#f11ke5tcw6wj8y)" height="32" id="ParameterManager" style="stroke: #A80036; stroke-width: 1.5;" width="153" x="776.5" y="425"/><ellipse cx="791.5" cy="441" fill="#ADD1B2" rx="11" ry="11" style="stroke: #A80036; stroke-width: 1.0;"/><path d="M794.4688,446.6406 Q793.8906,446.9375 793.25,447.0781 Q792.6094,447.2344 791.9063,447.2344 Q789.4063,447.2344 788.0781,445.5938 Q786.7656,443.9375 786.7656,440.8125 Q786.7656,437.6875 788.0781,436.0313 Q789.4063,434.375 791.9063,434.375 Q792.6094,434.375 793.25,434.5313 Q793.9063,434.6875 794.4688,434.9844 L794.4688,437.7031 Q793.8438,437.125 793.25,436.8594 Q792.6563,436.5781 792.0313,436.5781 Q790.6875,436.5781 790,437.6563 Q789.3125,438.7188 789.3125,440.8125 Q789.3125,442.9063 790,443.9844 Q790.6875,445.0469 792.0313,445.0469 Q792.6563,445.0469 793.25,444.7813 Q793.8438,444.5 794.4688,443.9219 L794.4688,446.6406 Z "/><text fill="#000000" font-family="sans-serif" font-size="12" lengthAdjust="spacingAndGlyphs" textLength="121" x="805.5" y="445.1543">ParameterManager</text><!--MD5=[c01d281453c5d4cdc24a7f27a30cb7c5]
class FixedLayout--><rect fill="#FEFECE" filter="url(#f11ke5tcw6wj8y)" height="32" id="FixedLayout" style="stroke: #A80036; stroke-width: 1.5;" width="105" x="1340.5" y="168"/><ellipse cx="1355.5" cy="184" fill="#ADD1B2" rx="11" ry="11" style="stroke: #A80036; stroke-width: 1.0;"/><path d="M1358.4688,189.6406 Q1357.8906,189.9375 1357.25,190.0781 Q1356.6094,190.2344 1355.9063,190.2344 Q1353.4063,190.2344 1352.0781,188.5938 Q1350.7656,186.9375 1350.7656,183.8125 Q1350.7656,180.6875 1352.0781,179.0313 Q1353.4063,177.375 1355.9063,177.375 Q1356.6094,177.375 1357.25,177.5313 Q1357.9063,177.6875 1358.4688,177.9844 L1358.4688,180.7031 Q1357.8438,180.125 1357.25,179.8594 Q1356.6563,179.5781 1356.0313,179.5781 Q1354.6875,179.5781 1354,180.6563 Q1353.3125,181.7188 1353.3125,183.8125 Q1353.3125,185.9063 1354,186.9844 Q1354.6875,188.0469 1356.0313,188.0469 Q1356.6563,188.0469 1357.25,187.7813 Q1357.8438,187.5 1358.4688,186.9219 L1358.4688,189.6406 Z "/><text fill="#000000" font-family="sans-serif" font-size="12" lengthAdjust="spacingAndGlyphs" textLength="73" x="1369.5" y="188.1543">FixedLayout</text><!--MD5=[caebf2ddd0fe15aa1cd7c0f919e7d6a1]
class Layout--><rect fill="#FEFECE" filter="url(#f11ke5tcw6wj8y)" height="32" id="Layout" style="stroke: #A80036; stroke-width: 1.5;" width="75" x="1355.5" y="75"/><ellipse cx="1370.5" cy="91" fill="#B4A7E5" rx="11" ry="11" style="stroke: #A80036; stroke-width: 1.0;"/><path d="M1366.4219,86.7656 L1366.4219,84.6094 L1373.8125,84.6094 L1373.8125,86.7656 L1371.3438,86.7656 L1371.3438,94.8438 L1373.8125,94.8438 L1373.8125,97 L1366.4219,97 L1366.4219,94.8438 L1368.8906,94.8438 L1368.8906,86.7656 L1366.4219,86.7656 Z "/><text fill="#000000" font-family="sans-serif" font-size="12" font-style="italic" lengthAdjust="spacingAndGlyphs" textLength="43" x="1384.5" y="95.1543">Layout</text><!--MD5=[12f7f85e6a82a668bac37f73aa8a25f9]
class DynamicLayout--><rect fill="#FEFECE" filter="url(#f11ke5tcw6wj8y)" height="32" id="DynamicLayout" style="stroke: #A80036; stroke-width: 1.5;" width="125" x="1180.5" y="168"/><ellipse cx="1195.5" cy="184" fill="#ADD1B2" rx="11" ry="11" style="stroke: #A80036; stroke-width: 1.0;"/><path d="M1198.4688,189.6406 Q1197.8906,189.9375 1197.25,190.0781 Q1196.6094,190.2344 1195.9063,190.2344 Q1193.4063,190.2344 1192.0781,188.5938 Q1190.7656,186.9375 1190.7656,183.8125 Q1190.7656,180.6875 1192.0781,179.0313 Q1193.4063,177.375 1195.9063,177.375 Q1196.6094,177.375 1197.25,177.5313 Q1197.9063,177.6875 1198.4688,177.9844 L1198.4688,180.7031 Q1197.8438,180.125 1197.25,179.8594 Q1196.6563,179.5781 1196.0313,179.5781 Q1194.6875,179.5781 1194,180.6563 Q1193.3125,181.7188 1193.3125,183.8125 Q1193.3125,185.9063 1194,186.9844 Q1194.6875,188.0469 1196.0313,188.0469 Q1196.6563,188.0469 1197.25,187.7813 Q1197.8438,187.5 1198.4688,186.9219 L1198.4688,189.6406 Z "/><text fill="#000000" font-family="sans-serif" font-size="12" lengthAdjust="spacingAndGlyphs" textLength="93" x="1209.5" y="188.1543">DynamicLayout</text><!--MD5=[ceff05214af216b423c504875c83215d]
class LayoutsFactory--><rect fill="#FEFECE" filter="url(#f11ke5tcw6wj8y)" height="32" id="LayoutsFactory" style="stroke: #A80036; stroke-width: 1.5;" width="126" x="1180" y="277"/><ellipse cx="1195" cy="293" fill="#ADD1B2" rx="11" ry="11" style="stroke: #A80036; stroke-width: 1.0;"/><path d="M1197.9688,298.6406 Q1197.3906,298.9375 1196.75,299.0781 Q1196.1094,299.2344 1195.4063,299.2344 Q1192.9063,299.2344 1191.5781,297.5938 Q1190.2656,295.9375 1190.2656,292.8125 Q1190.2656,289.6875 1191.5781,288.0313 Q1192.9063,286.375 1195.4063,286.375 Q1196.1094,286.375 1196.75,286.5313 Q1197.4063,286.6875 1197.9688,286.9844 L1197.9688,289.7031 Q1197.3438,289.125 1196.75,288.8594 Q1196.1563,288.5781 1195.5313,288.5781 Q1194.1875,288.5781 1193.5,289.6563 Q1192.8125,290.7188 1192.8125,292.8125 Q1192.8125,294.9063 1193.5,295.9844 Q1194.1875,297.0469 1195.5313,297.0469 Q1196.1563,297.0469 1196.75,296.7813 Q1197.3438,296.5 1197.9688,295.9219 L1197.9688,298.6406 Z "/><text fill="#000000" font-family="sans-serif" font-size="12" lengthAdjust="spacingAndGlyphs" textLength="94" x="1209" y="297.1543">LayoutsFactory</text><!--MD5=[00675e18512933602d55f5e0e2b1ab32]
class AllSpikingNeurons--><rect fill="#FEFECE" filter="url(#f11ke5tcw6wj8y)" height="32" id="AllSpikingNeurons" style="stroke: #A80036; stroke-width: 1.5;" width="144" x="1750" y="168"/><ellipse cx="1765" cy="184" fill="#ADD1B2" rx="11" ry="11" style="stroke: #A80036; stroke-width: 1.0;"/><path d="M1767.9688,189.6406 Q1767.3906,189.9375 1766.75,190.0781 Q1766.1094,190.2344 1765.4063,190.2344 Q1762.9063,190.2344 1761.5781,188.5938 Q1760.2656,186.9375 1760.2656,183.8125 Q1760.2656,180.6875 1761.5781,179.0313 Q1762.9063,177.375 1765.4063,177.375 Q1766.1094,177.375 1766.75,177.5313 Q1767.4063,177.6875 1767.9688,177.9844 L1767.9688,180.7031 Q1767.3438,180.125 1766.75,179.8594 Q1766.1563,179.5781 1765.5313,179.5781 Q1764.1875,179.5781 1763.5,180.6563 Q1762.8125,181.7188 1762.8125,183.8125 Q1762.8125,185.9063 1763.5,186.9844 Q1764.1875,188.0469 1765.5313,188.0469 Q1766.1563,188.0469 1766.75,187.7813 Q1767.3438,187.5 1767.9688,186.9219 L1767.9688,189.6406 Z "/><text fill="#000000" font-family="sans-serif" font-size="12" lengthAdjust="spacingAndGlyphs" textLength="112" x="1779" y="188.1543">AllSpikingNeurons</text><!--MD5=[34dee175ca2f1207a5c8be9520f72c2f]
class AllVertices--><rect fill="#FEFECE" filter="url(#f11ke5tcw6wj8y)" height="32" id="AllVertices" style="stroke: #A80036; stroke-width: 1.5;" width="96" x="1767" y="75"/><ellipse cx="1782" cy="91" fill="#B4A7E5" rx="11" ry="11" style="stroke: #A80036; stroke-width: 1.0;"/><path d="M1777.9219,86.7656 L1777.9219,84.6094 L1785.3125,84.6094 L1785.3125,86.7656 L1782.8438,86.7656 L1782.8438,94.8438 L1785.3125,94.8438 L1785.3125,97 L1777.9219,97 L1777.9219,94.8438 L1780.3906,94.8438 L1780.3906,86.7656 L1777.9219,86.7656 Z "/><text fill="#000000" font-family="sans-serif" font-size="12" font-style="italic" lengthAdjust="spacingAndGlyphs" textLength="64" x="1796" y="95.1543">AllVertices</text><!--MD5=[cf80cca85261d84eda43dbc026d5d8d1]
class AllIFNeurons--><rect fill="#FEFECE" filter="url(#f11ke5tcw6wj8y)" height="32" id="AllIFNeurons" style="stroke: #A80036; stroke-width: 1.5;" width="109" x="1767.5" y="277"/><ellipse cx="1782.5" cy="293" fill="#ADD1B2" rx="11" ry="11" style="stroke: #A80036; stroke-width: 1.0;"/><path d="M1785.4688,298.6406 Q1784.8906,298.9375 1784.25,299.0781 Q1783.6094,299.2344 1782.9063,299.2344 Q1780.4063,299.2344 1779.0781,297.5938 Q1777.7656,295.9375 1777.7656,292.8125 Q1777.7656,289.6875 1779.0781,288.0313 Q1780.4063,286.375 1782.9063,286.375 Q1783.6094,286.375 1784.25,286.5313 Q1784.9063,286.6875 1785.4688,286.9844 L1785.4688,289.7031 Q1784.8438,289.125 1784.25,288.8594 Q1783.6563,288.5781 1783.0313,288.5781 Q1781.6875,288.5781 1781,289.6563 Q1780.3125,290.7188 1780.3125,292.8125 Q1780.3125,294.9063 1781,295.9844 Q1781.6875,297.0469 1783.0313,297.0469 Q1783.6563,297.0469 1784.25,296.7813 Q1784.8438,296.5 1785.4688,295.9219 L1785.4688,298.6406 Z "/><text fill="#000000" font-family="sans-serif" font-size="12" lengthAdjust="spacingAndGlyphs" textLength="77" x="1796.5" y="297.1543">AllIFNeurons</text><!--MD5=[260384eea3996f96db9f0f616389f648]
class AllLiFNeurons--><rect fill="#FEFECE" filter="url(#f11ke5tcw6wj8y)" height="32" id="AllLiFNeurons" style="stroke: #A80036; stroke-width: 1.5;" width="115" x="1750.5" y="425"/><ellipse cx="1765.5" cy="441" fill="#ADD1B2" rx="11" ry="11" style="stroke: #A80036; stroke-width: 1.0;"/><path d="M1768.4688,446.6406 Q1767.8906,446.9375 1767.25,447.0781 Q1766.6094,447.2344 1765.9063,447.2344 Q1763.4063,447.2344 1762.0781,445.5938 Q1760.7656,443.9375 1760.7656,440.8125 Q1760.7656,437.6875 1762.0781,436.0313 Q1763.4063,434.375 1765.9063,434.375 Q1766.6094,434.375 1767.25,434.5313 Q1767.9063,434.6875 1768.4688,434.9844 L1768.4688,437.7031 Q1767.8438,437.125 1767.25,436.8594 Q1766.6563,436.5781 1766.0313,436.5781 Q1764.6875,436.5781 1764,437.6563 Q1763.3125,438.7188 1763.3125,440.8125 Q1763.3125,442.9063 1764,443.9844 Q1764.6875,445.0469 1766.0313,445.0469 Q1766.6563,445.0469 1767.25,444.7813 Q1767.8438,444.5 1768.4688,443.9219 L1768.4688,446.6406 Z "/><text fill="#000000" font-family="sans-serif" font-size="12" lengthAdjust="spacingAndGlyphs" textLength="83" x="1779.5" y="445.1543">AllLiFNeurons</text><!--MD5=[71b076a97ded1832bf674b3762bc7b75]
class AllZHNeurons--><rect fill="#FEFECE" filter="url(#f11ke5tcw6wj8y)" height="32" id="AllZHNeurons" style="stroke: #A80036; stroke-width: 1.5;" width="117" x="1900.5" y="425"/><ellipse cx="1915.5" cy="441" fill="#ADD1B2" rx="11" ry="11" style="stroke: #A80036; stroke-width: 1.0;"/><path d="M1918.4688,446.6406 Q1917.8906,446.9375 1917.25,447.0781 Q1916.6094,447.2344 1915.9063,447.2344 Q1913.4063,447.2344 1912.0781,445.5938 Q1910.7656,443.9375 1910.7656,440.8125 Q1910.7656,437.6875 1912.0781,436.0313 Q1913.4063,434.375 1915.9063,434.375 Q1916.6094,434.375 1917.25,434.5313 Q1917.9063,434.6875 1918.4688,434.9844 L1918.4688,437.7031 Q1917.8438,437.125 1917.25,436.8594 Q1916.6563,436.5781 1916.0313,436.5781 Q1914.6875,436.5781 1914,437.6563 Q1913.3125,438.7188 1913.3125,440.8125 Q1913.3125,442.9063 1914,443.9844 Q1914.6875,445.0469 1916.0313,445.0469 Q1916.6563,445.0469 1917.25,444.7813 Q1917.8438,444.5 1918.4688,443.9219 L1918.4688,446.6406 Z "/><text fill="#000000" font-family="sans-serif" font-size="12" lengthAdjust="spacingAndGlyphs" textLength="85" x="1929.5" y="445.1543">AllZHNeurons</text><!--MD5=[cc1c410fe2850b6da0ea695abfcea755]
class VerticesFactory--><rect fill="#FEFECE" filter="url(#f11ke5tcw6wj8y)" height="32" id="VerticesFactory" style="stroke: #A80036; stroke-width: 1.5;" width="129" x="1750.5" y="589"/><ellipse cx="1765.5" cy="605" fill="#ADD1B2" rx="11" ry="11" style="stroke: #A80036; stroke-width: 1.0;"/><path d="M1768.4688,610.6406 Q1767.8906,610.9375 1767.25,611.0781 Q1766.6094,611.2344 1765.9063,611.2344 Q1763.4063,611.2344 1762.0781,609.5938 Q1760.7656,607.9375 1760.7656,604.8125 Q1760.7656,601.6875 1762.0781,600.0313 Q1763.4063,598.375 1765.9063,598.375 Q1766.6094,598.375 1767.25,598.5313 Q1767.9063,598.6875 1768.4688,598.9844 L1768.4688,601.7031 Q1767.8438,601.125 1767.25,600.8594 Q1766.6563,600.5781 1766.0313,600.5781 Q1764.6875,600.5781 1764,601.6563 Q1763.3125,602.7188 1763.3125,604.8125 Q1763.3125,606.9063 1764,607.9844 Q1764.6875,609.0469 1766.0313,609.0469 Q1766.6563,609.0469 1767.25,608.7813 Q1767.8438,608.5 1768.4688,607.9219 L1768.4688,610.6406 Z "/><text fill="#000000" font-family="sans-serif" font-size="12" lengthAdjust="spacingAndGlyphs" textLength="97" x="1779.5" y="609.1543">VerticesFactory</text><!--MD5=[9af66c322c1a3c2f0b44834865e098f3]
class XmLRecorder--><rect fill="#FEFECE" filter="url(#f11ke5tcw6wj8y)" height="32" id="XmLRecorder" style="stroke: #A80036; stroke-width: 1.5;" width="113" x="479.5" y="753"/><ellipse cx="494.5" cy="769" fill="#ADD1B2" rx="11" ry="11" style="stroke: #A80036; stroke-width: 1.0;"/><path d="M497.4688,774.6406 Q496.8906,774.9375 496.25,775.0781 Q495.6094,775.2344 494.9063,775.2344 Q492.4063,775.2344 491.0781,773.5938 Q489.7656,771.9375 489.7656,768.8125 Q489.7656,765.6875 491.0781,764.0313 Q492.4063,762.375 494.9063,762.375 Q495.6094,762.375 496.25,762.5313 Q496.9063,762.6875 497.4688,762.9844 L497.4688,765.7031 Q496.8438,765.125 496.25,764.8594 Q495.6563,764.5781 495.0313,764.5781 Q493.6875,764.5781 493,765.6563 Q492.3125,766.7188 492.3125,768.8125 Q492.3125,770.9063 493,771.9844 Q493.6875,773.0469 495.0313,773.0469 Q495.6563,773.0469 496.25,772.7813 Q496.8438,772.5 497.4688,771.9219 L497.4688,774.6406 Z "/><text fill="#000000" font-family="sans-serif" font-size="12" lengthAdjust="spacingAndGlyphs" textLength="81" x="508.5" y="773.1543">XmLRecorder</text><!--MD5=[a2efe13f97b9395dfb70e2255bd52698]
class IRecorder--><rect fill="#FEFECE" filter="url(#f11ke5tcw6wj8y)" height="32" id="IRecorder" style="stroke: #A80036; stroke-width: 1.5;" width="93" x="489.5" y="589"/><ellipse cx="504.5" cy="605" fill="#B4A7E5" rx="11" ry="11" style="stroke: #A80036; stroke-width: 1.0;"/><path d="M500.4219,600.7656 L500.4219,598.6094 L507.8125,598.6094 L507.8125,600.7656 L505.3438,600.7656 L505.3438,608.8438 L507.8125,608.8438 L507.8125,611 L500.4219,611 L500.4219,608.8438 L502.8906,608.8438 L502.8906,600.7656 L500.4219,600.7656 Z "/><text fill="#000000" font-family="sans-serif" font-size="12" font-style="italic" lengthAdjust="spacingAndGlyphs" textLength="61" x="518.5" y="609.1543">IRecorder</text><!--MD5=[68c26e8dbee30e67a392826e30173ce1]
class HDF5Recorder--><rect fill="#FEFECE" filter="url(#f11ke5tcw6wj8y)" height="32" id="HDF5Recorder" style="stroke: #A80036; stroke-width: 1.5;" width="122" x="229" y="753"/><ellipse cx="244" cy="769" fill="#ADD1B2" rx="11" ry="11" style="stroke: #A80036; stroke-width: 1.0;"/><path d="M246.9688,774.6406 Q246.3906,774.9375 245.75,775.0781 Q245.1094,775.2344 244.4063,775.2344 Q241.9063,775.2344 240.5781,773.5938 Q239.2656,771.9375 239.2656,768.8125 Q239.2656,765.6875 240.5781,764.0313 Q241.9063,762.375 244.4063,762.375 Q245.1094,762.375 245.75,762.5313 Q246.4063,762.6875 246.9688,762.9844 L246.9688,765.7031 Q246.3438,765.125 245.75,764.8594 Q245.1563,764.5781 244.5313,764.5781 Q243.1875,764.5781 242.5,765.6563 Q241.8125,766.7188 241.8125,768.8125 Q241.8125,770.9063 242.5,771.9844 Q243.1875,773.0469 244.5313,773.0469 Q245.1563,773.0469 245.75,772.7813 Q246.3438,772.5 246.9688,771.9219 L246.9688,774.6406 Z "/><text fill="#000000" font-family="sans-serif" font-size="12" lengthAdjust="spacingAndGlyphs" textLength="90" x="258" y="773.1543">HDF5Recorder</text><!--MD5=[c3e0b6f9949d2074781ec6fef8f97457]
class XmlGrowthRecroder--><rect fill="#FEFECE" filter="url(#f11ke5tcw6wj8y)" height="32" id="XmlGrowthRecroder" style="stroke: #A80036; stroke-width: 1.5;" width="154" x="553" y="848"/><ellipse cx="568" cy="864" fill="#ADD1B2" rx="11" ry="11" style="stroke: #A80036; stroke-width: 1.0;"/><path d="M570.9688,869.6406 Q570.3906,869.9375 569.75,870.0781 Q569.1094,870.2344 568.4063,870.2344 Q565.9063,870.2344 564.5781,868.5938 Q563.2656,866.9375 563.2656,863.8125 Q563.2656,860.6875 564.5781,859.0313 Q565.9063,857.375 568.4063,857.375 Q569.1094,857.375 569.75,857.5313 Q570.4063,857.6875 570.9688,857.9844 L570.9688,860.7031 Q570.3438,860.125 569.75,859.8594 Q569.1563,859.5781 568.5313,859.5781 Q567.1875,859.5781 566.5,860.6563 Q565.8125,861.7188 565.8125,863.8125 Q565.8125,865.9063 566.5,866.9844 Q567.1875,868.0469 568.5313,868.0469 Q569.1563,868.0469 569.75,867.7813 Q570.3438,867.5 570.9688,866.9219 L570.9688,869.6406 Z "/><text fill="#000000" font-family="sans-serif" font-size="12" lengthAdjust="spacingAndGlyphs" textLength="122" x="582" y="868.1543">XmlGrowthRecroder</text><!--MD5=[af68557a962a5f1f7548a7e590f8fd62]
class Hdf5GrowthRecorder--><rect fill="#FEFECE" filter="url(#f11ke5tcw6wj8y)" height="32" id="Hdf5GrowthRecorder" style="stroke: #A80036; stroke-width: 1.5;" width="162" x="209" y="848"/><ellipse cx="224" cy="864" fill="#ADD1B2" rx="11" ry="11" style="stroke: #A80036; stroke-width: 1.0;"/><path d="M226.9688,869.6406 Q226.3906,869.9375 225.75,870.0781 Q225.1094,870.2344 224.4063,870.2344 Q221.9063,870.2344 220.5781,868.5938 Q219.2656,866.9375 219.2656,863.8125 Q219.2656,860.6875 220.5781,859.0313 Q221.9063,857.375 224.4063,857.375 Q225.1094,857.375 225.75,857.5313 Q226.4063,857.6875 226.9688,857.9844 L226.9688,860.7031 Q226.3438,860.125 225.75,859.8594 Q225.1563,859.5781 224.5313,859.5781 Q223.1875,859.5781 222.5,860.6563 Q221.8125,861.7188 221.8125,863.8125 Q221.8125,865.9063 222.5,866.9844 Q223.1875,868.0469 224.5313,868.0469 Q225.1563,868.0469 225.75,867.7813 Q226.3438,867.5 226.9688,866.9219 L226.9688,869.6406 Z "/><text fill="#000000" font-family="sans-serif" font-size="12" lengthAdjust="spacingAndGlyphs" textLength="130" x="238" y="868.1543">Hdf5GrowthRecorder</text><!--MD5=[5309de41de0463c67105d9e754563b77]
class RecordersFactory--><rect fill="#FEFECE" filter="url(#f11ke5tcw6wj8y)" height="32" id="RecordersFactory" style="stroke: #A80036; stroke-width: 1.5;" width="142" x="370" y="957"/><ellipse cx="385" cy="973" fill="#ADD1B2" rx="11" ry="11" style="stroke: #A80036; stroke-width: 1.0;"/><path d="M387.9688,978.6406 Q387.3906,978.9375 386.75,979.0781 Q386.1094,979.2344 385.4063,979.2344 Q382.9063,979.2344 381.5781,977.5938 Q380.2656,975.9375 380.2656,972.8125 Q380.2656,969.6875 381.5781,968.0313 Q382.9063,966.375 385.4063,966.375 Q386.1094,966.375 386.75,966.5313 Q387.4063,966.6875 387.9688,966.9844 L387.9688,969.7031 Q387.3438,969.125 386.75,968.8594 Q386.1563,968.5781 385.5313,968.5781 Q384.1875,968.5781 383.5,969.6563 Q382.8125,970.7188 382.8125,972.8125 Q382.8125,974.9063 383.5,975.9844 Q384.1875,977.0469 385.5313,977.0469 Q386.1563,977.0469 386.75,976.7813 Q387.3438,976.5 387.9688,975.9219 L387.9688,978.6406 Z "/><text fill="#000000" font-family="sans-serif" font-size="12" lengthAdjust="spacingAndGlyphs" textLength="110" x="399" y="977.1543">RecordersFactory</text><!--MD5=[b671e9144a70d5380b4364952f259167]
class ConnStatic--><rect fill="#FEFECE" filter="url(#f11ke5tcw6wj8y)" height="32" id="ConnStatic" style="stroke: #A80036; stroke-width: 1.5;" width="100" x="1145" y="589"/><ellipse cx="1160" cy="605" fill="#ADD1B2" rx="11" ry="11" style="stroke: #A80036; stroke-width: 1.0;"/><path d="M1162.9688,610.6406 Q1162.3906,610.9375 1161.75,611.0781 Q1161.1094,611.2344 1160.4063,611.2344 Q1157.9063,611.2344 1156.5781,609.5938 Q1155.2656,607.9375 1155.2656,604.8125 Q1155.2656,601.6875 1156.5781,600.0313 Q1157.9063,598.375 1160.4063,598.375 Q1161.1094,598.375 1161.75,598.5313 Q1162.4063,598.6875 1162.9688,598.9844 L1162.9688,601.7031 Q1162.3438,601.125 1161.75,600.8594 Q1161.1563,600.5781 1160.5313,600.5781 Q1159.1875,600.5781 1158.5,601.6563 Q1157.8125,602.7188 1157.8125,604.8125 Q1157.8125,606.9063 1158.5,607.9844 Q1159.1875,609.0469 1160.5313,609.0469 Q1161.1563,609.0469 1161.75,608.7813 Q1162.3438,608.5 1162.9688,607.9219 L1162.9688,610.6406 Z "/><text fill="#000000" font-family="sans-serif" font-size="12" lengthAdjust="spacingAndGlyphs" textLength="68" x="1174" y="609.1543">ConnStatic</text><!--MD5=[24bb951fb6b9ac52df1580923e830244]
class Connections--><rect fill="#FEFECE" filter="url(#f11ke5tcw6wj8y)" height="32" id="Connections" style="stroke: #A80036; stroke-width: 1.5;" width="109" x="1072.5" y="425"/><ellipse cx="1087.5" cy="441" fill="#B4A7E5" rx="11" ry="11" style="stroke: #A80036; stroke-width: 1.0;"/><path d="M1083.4219,436.7656 L1083.4219,434.6094 L1090.8125,434.6094 L1090.8125,436.7656 L1088.3438,436.7656 L1088.3438,444.8438 L1090.8125,444.8438 L1090.8125,447 L1083.4219,447 L1083.4219,444.8438 L1085.8906,444.8438 L1085.8906,436.7656 L1083.4219,436.7656 Z "/><text fill="#000000" font-family="sans-serif" font-size="12" font-style="italic" lengthAdjust="spacingAndGlyphs" textLength="77" x="1101.5" y="445.1543">Connections</text><!--MD5=[540eab1ed52846d003b47757435df453]
class ConnGrowth--><rect fill="#FEFECE" filter="url(#f11ke5tcw6wj8y)" height="32" id="ConnGrowth" style="stroke: #A80036; stroke-width: 1.5;" width="108" x="1002" y="589"/><ellipse cx="1017" cy="605" fill="#ADD1B2" rx="11" ry="11" style="stroke: #A80036; stroke-width: 1.0;"/><path d="M1019.9688,610.6406 Q1019.3906,610.9375 1018.75,611.0781 Q1018.1094,611.2344 1017.4063,611.2344 Q1014.9063,611.2344 1013.5781,609.5938 Q1012.2656,607.9375 1012.2656,604.8125 Q1012.2656,601.6875 1013.5781,600.0313 Q1014.9063,598.375 1017.4063,598.375 Q1018.1094,598.375 1018.75,598.5313 Q1019.4063,598.6875 1019.9688,598.9844 L1019.9688,601.7031 Q1019.3438,601.125 1018.75,600.8594 Q1018.1563,600.5781 1017.5313,600.5781 Q1016.1875,600.5781 1015.5,601.6563 Q1014.8125,602.7188 1014.8125,604.8125 Q1014.8125,606.9063 1015.5,607.9844 Q1016.1875,609.0469 1017.5313,609.0469 Q1018.1563,609.0469 1018.75,608.7813 Q1019.3438,608.5 1019.9688,607.9219 L1019.9688,610.6406 Z "/><text fill="#000000" font-family="sans-serif" font-size="12" lengthAdjust="spacingAndGlyphs" textLength="76" x="1031" y="609.1543">ConnGrowth</text><!--MD5=[07560c205a8067cf69726ad645fec973]
class ConnectionsFactory--><rect fill="#FEFECE" filter="url(#f11ke5tcw6wj8y)" height="32" id="ConnectionsFactory" style="stroke: #A80036; stroke-width: 1.5;" width="156" x="1002" y="753"/><ellipse cx="1017" cy="769" fill="#ADD1B2" rx="11" ry="11" style="stroke: #A80036; stroke-width: 1.0;"/><path d="M1019.9688,774.6406 Q1019.3906,774.9375 1018.75,775.0781 Q1018.1094,775.2344 1017.4063,775.2344 Q1014.9063,775.2344 1013.5781,773.5938 Q1012.2656,771.9375 1012.2656,768.8125 Q1012.2656,765.6875 1013.5781,764.0313 Q1014.9063,762.375 1017.4063,762.375 Q1018.1094,762.375 1018.75,762.5313 Q1019.4063,762.6875 1019.9688,762.9844 L1019.9688,765.7031 Q1019.3438,765.125 1018.75,764.8594 Q1018.1563,764.5781 1017.5313,764.5781 Q1016.1875,764.5781 1015.5,765.6563 Q1014.8125,766.7188 1014.8125,768.8125 Q1014.8125,770.9063 1015.5,771.9844 Q1016.1875,773.0469 1017.5313,773.0469 Q1018.1563,773.0469 1018.75,772.7813 Q1019.3438,772.5 1019.9688,771.9219 L1019.9688,774.6406 Z "/><text fill="#000000" font-family="sans-serif" font-size="12" lengthAdjust="spacingAndGlyphs" textLength="124" x="1031" y="773.1543">ConnectionsFactory</text><!--MD5=[cfe37ad1a50a7dcaaf80645f5fb9fa69]
class AllSpikingSynapses--><rect fill="#FEFECE" filter="url(#f11ke5tcw6wj8y)" height="32" id="AllSpikingSynapses" style="stroke: #A80036; stroke-width: 1.5;" width="151" x="1436.5" y="848"/><ellipse cx="1451.5" cy="864" fill="#ADD1B2" rx="11" ry="11" style="stroke: #A80036; stroke-width: 1.0;"/><path d="M1454.4688,869.6406 Q1453.8906,869.9375 1453.25,870.0781 Q1452.6094,870.2344 1451.9063,870.2344 Q1449.4063,870.2344 1448.0781,868.5938 Q1446.7656,866.9375 1446.7656,863.8125 Q1446.7656,860.6875 1448.0781,859.0313 Q1449.4063,857.375 1451.9063,857.375 Q1452.6094,857.375 1453.25,857.5313 Q1453.9063,857.6875 1454.4688,857.9844 L1454.4688,860.7031 Q1453.8438,860.125 1453.25,859.8594 Q1452.6563,859.5781 1452.0313,859.5781 Q1450.6875,859.5781 1450,860.6563 Q1449.3125,861.7188 1449.3125,863.8125 Q1449.3125,865.9063 1450,866.9844 Q1450.6875,868.0469 1452.0313,868.0469 Q1452.6563,868.0469 1453.25,867.7813 Q1453.8438,867.5 1454.4688,866.9219 L1454.4688,869.6406 Z "/><text fill="#000000" font-family="sans-serif" font-size="12" lengthAdjust="spacingAndGlyphs" textLength="119" x="1465.5" y="868.1543">AllSpikingSynapses</text><!--MD5=[06f12ec46b87224fd0e1c514fed4a6e4]
class AllEdges--><rect fill="#FEFECE" filter="url(#f11ke5tcw6wj8y)" height="32" id="AllEdges" style="stroke: #A80036; stroke-width: 1.5;" width="84" x="1389" y="753"/><ellipse cx="1404" cy="769" fill="#B4A7E5" rx="11" ry="11" style="stroke: #A80036; stroke-width: 1.0;"/><path d="M1399.9219,764.7656 L1399.9219,762.6094 L1407.3125,762.6094 L1407.3125,764.7656 L1404.8438,764.7656 L1404.8438,772.8438 L1407.3125,772.8438 L1407.3125,775 L1399.9219,775 L1399.9219,772.8438 L1402.3906,772.8438 L1402.3906,764.7656 L1399.9219,764.7656 Z "/><text fill="#000000" font-family="sans-serif" font-size="12" font-style="italic" lengthAdjust="spacingAndGlyphs" textLength="52" x="1418" y="773.1543">AllEdges</text><!--MD5=[635988d62f36dba7a8b9baa086d12f03]
class AllSTDPSynapses--><rect fill="#FEFECE" filter="url(#f11ke5tcw6wj8y)" height="32" id="AllSTDPSynapses" style="stroke: #A80036; stroke-width: 1.5;" width="138" x="1443" y="957"/><ellipse cx="1458" cy="973" fill="#ADD1B2" rx="11" ry="11" style="stroke: #A80036; stroke-width: 1.0;"/><path d="M1460.9688,978.6406 Q1460.3906,978.9375 1459.75,979.0781 Q1459.1094,979.2344 1458.4063,979.2344 Q1455.9063,979.2344 1454.5781,977.5938 Q1453.2656,975.9375 1453.2656,972.8125 Q1453.2656,969.6875 1454.5781,968.0313 Q1455.9063,966.375 1458.4063,966.375 Q1459.1094,966.375 1459.75,966.5313 Q1460.4063,966.6875 1460.9688,966.9844 L1460.9688,969.7031 Q1460.3438,969.125 1459.75,968.8594 Q1459.1563,968.5781 1458.5313,968.5781 Q1457.1875,968.5781 1456.5,969.6563 Q1455.8125,970.7188 1455.8125,972.8125 Q1455.8125,974.9063 1456.5,975.9844 Q1457.1875,977.0469 1458.5313,977.0469 Q1459.1563,977.0469 1459.75,976.7813 Q1460.3438,976.5 1460.9688,975.9219 L1460.9688,978.6406 Z "/><text fill="#000000" font-family="sans-serif" font-size="12" lengthAdjust="spacingAndGlyphs" textLength="106" x="1472" y="977.1543">AllSTDPSynapses</text><!--MD5=[935a686a552498c9fe3db149d943753f]
class AllDSSynapses--><rect fill="#FEFECE" filter="url(#f11ke5tcw6wj8y)" height="32" id="AllDSSynapses" style="stroke: #A80036; stroke-width: 1.5;" width="123" x="1660.5" y="957"/><ellipse cx="1675.5" cy="973" fill="#ADD1B2" rx="11" ry="11" style="stroke: #A80036; stroke-width: 1.0;"/><path d="M1678.4688,978.6406 Q1677.8906,978.9375 1677.25,979.0781 Q1676.6094,979.2344 1675.9063,979.2344 Q1673.4063,979.2344 1672.0781,977.5938 Q1670.7656,975.9375 1670.7656,972.8125 Q1670.7656,969.6875 1672.0781,968.0313 Q1673.4063,966.375 1675.9063,966.375 Q1676.6094,966.375 1677.25,966.5313 Q1677.9063,966.6875 1678.4688,966.9844 L1678.4688,969.7031 Q1677.8438,969.125 1677.25,968.8594 Q1676.6563,968.5781 1676.0313,968.5781 Q1674.6875,968.5781 1674,969.6563 Q1673.3125,970.7188 1673.3125,972.8125 Q1673.3125,974.9063 1674,975.9844 Q1674.6875,977.0469 1676.0313,977.0469 Q1676.6563,977.0469 1677.25,976.7813 Q1677.8438,976.5 1678.4688,975.9219 L1678.4688,978.6406 Z "/><text fill="#000000" font-family="sans-serif" font-size="12" lengthAdjust="spacingAndGlyphs" textLength="91" x="1689.5" y="977.1543">AllDSSynapses</text><!--MD5=[fd6ea4ca2934104fc4a12eb686a910c8]
class AllDynamicsSTDPSynapses--><rect fill="#FEFECE" filter="url(#f11ke5tcw6wj8y)" height="32" id="AllDynamicsSTDPSynapses" style="stroke: #A80036; stroke-width: 1.5;" width="197" x="1498.5" y="1068"/><ellipse cx="1513.5" cy="1084" fill="#ADD1B2" rx="11" ry="11" style="stroke: #A80036; stroke-width: 1.0;"/><path d="M1516.4688,1089.6406 Q1515.8906,1089.9375 1515.25,1090.0781 Q1514.6094,1090.2344 1513.9063,1090.2344 Q1511.4063,1090.2344 1510.0781,1088.5938 Q1508.7656,1086.9375 1508.7656,1083.8125 Q1508.7656,1080.6875 1510.0781,1079.0313 Q1511.4063,1077.375 1513.9063,1077.375 Q1514.6094,1077.375 1515.25,1077.5313 Q1515.9063,1077.6875 1516.4688,1077.9844 L1516.4688,1080.7031 Q1515.8438,1080.125 1515.25,1079.8594 Q1514.6563,1079.5781 1514.0313,1079.5781 Q1512.6875,1079.5781 1512,1080.6563 Q1511.3125,1081.7188 1511.3125,1083.8125 Q1511.3125,1085.9063 1512,1086.9844 Q1512.6875,1088.0469 1514.0313,1088.0469 Q1514.6563,1088.0469 1515.25,1087.7813 Q1515.8438,1087.5 1516.4688,1086.9219 L1516.4688,1089.6406 Z "/><text fill="#000000" font-family="sans-serif" font-size="12" lengthAdjust="spacingAndGlyphs" textLength="165" x="1527.5" y="1088.1543">AllDynamicsSTDPSynapses</text><!--MD5=[2137c854024e09e8076c84fb007b1c3c]
class EdgesFactory--><rect fill="#FEFECE" filter="url(#f11ke5tcw6wj8y)" height="32" id="EdgesFactory" style="stroke: #A80036; stroke-width: 1.5;" width="117" x="1402.5" y="1177"/><ellipse cx="1417.5" cy="1193" fill="#ADD1B2" rx="11" ry="11" style="stroke: #A80036; stroke-width: 1.0;"/><path d="M1420.4688,1198.6406 Q1419.8906,1198.9375 1419.25,1199.0781 Q1418.6094,1199.2344 1417.9063,1199.2344 Q1415.4063,1199.2344 1414.0781,1197.5938 Q1412.7656,1195.9375 1412.7656,1192.8125 Q1412.7656,1189.6875 1414.0781,1188.0313 Q1415.4063,1186.375 1417.9063,1186.375 Q1418.6094,1186.375 1419.25,1186.5313 Q1419.9063,1186.6875 1420.4688,1186.9844 L1420.4688,1189.7031 Q1419.8438,1189.125 1419.25,1188.8594 Q1418.6563,1188.5781 1418.0313,1188.5781 Q1416.6875,1188.5781 1416,1189.6563 Q1415.3125,1190.7188 1415.3125,1192.8125 Q1415.3125,1194.9063 1416,1195.9844 Q1416.6875,1197.0469 1418.0313,1197.0469 Q1418.6563,1197.0469 1419.25,1196.7813 Q1419.8438,1196.5 1420.4688,1195.9219 L1420.4688,1198.6406 Z "/><text fill="#000000" font-family="sans-serif" font-size="12" lengthAdjust="spacingAndGlyphs" textLength="85" x="1431.5" y="1197.1543">EdgesFactory</text><!--MD5=[973c6b7f5e030bba668bdd48ca021633]
reverse link Model to CPUSpikingModel--><path d="M729.5,127.2 C729.5,127.2 729.5,167.99 729.5,167.99 " fill="none" id="Model&lt;-CPUSpikingModel" style="stroke: #A80036; stroke-width: 1.0; stroke-dasharray: 7.0,7.0;"/><polygon fill="none" points="722.5,127.2,729.5,107.2,736.5,127.2,722.5,127.2" style="stroke: #A80036; stroke-width: 1.0;"/><!--MD5=[9b59bd471ffb8f31c7aa79faa06b052a]
reverse link Model to GPUSpikingModel--><path d="M686.16,100 C686.16,100 541,100 541,100 C541,100 541,143.39 541,167.8 " fill="none" id="Model&lt;-GPUSpikingModel" style="stroke: #A80036; stroke-width: 1.0; stroke-dasharray: 7.0,7.0;"/><polygon fill="none" points="686.16,93,706.16,100,686.16,107,686.16,93" style="stroke: #A80036; stroke-width: 1.0;"/><!--MD5=[4261885617cbc7ccae7bbabfb2558444]
link Model to Simulator--><path d="M775.5,91 C775.5,91 797.45,91 797.45,91 " fill="none" id="Model-&gt;Simulator" style="stroke: #A80036; stroke-width: 1.0;"/><polygon fill="#FFFFFF" points="810.45,91,804.45,87,798.45,91,804.45,95,810.45,91" style="stroke: #A80036; stroke-width: 1.0;"/><!--MD5=[b4641bc02d5d8efe33d6033ed44bd980]
reverse link OperationManager to Operations--><path d="M768.15,293 C768.15,293 746.58,293 746.58,293 " fill="none" id="OperationManager&lt;-Operations" style="stroke: #A80036; stroke-width: 1.0;"/><polygon fill="#FFFFFF" points="781.15,293,775.15,289,769.15,293,775.15,297,781.15,293" style="stroke: #A80036; stroke-width: 1.0;"/><!--MD5=[e98819c6fcc605915f2efaee3c857d02]
link Simulator to OperationManager--><path d="M856,107.19 C856,107.19 856,271.73 856,271.73 " fill="none" id="Simulator-&gt;OperationManager" style="stroke: #A80036; stroke-width: 1.0;"/><polygon fill="#A80036" points="856,276.73,860,267.73,856,271.73,852,267.73,856,276.73" style="stroke: #A80036; stroke-width: 1.0;"/><text fill="#000000" font-family="sans-serif" font-size="13" lengthAdjust="spacingAndGlyphs" textLength="72" x="857" y="188.5669">commands</text><!--MD5=[b35dc4a9eded40af5f77166015eedcf0]
link CPUSpikingModel to GPUSpikingModel--><!--MD5=[1cea4de5324fc0a8457098da950d03ec]
link CPUSpikingModel to Operations--><!--MD5=[9593627a9002a106d0f96da7ffbf61a2]
link OperationManager to ParameterManager--><!--MD5=[891067ebdc7a855417ab5d2553f427ef]
reverse link Layout to FixedLayout--><path d="M1393,127.2 C1393,127.2 1393,167.99 1393,167.99 " fill="none" id="Layout&lt;-FixedLayout" style="stroke: #A80036; stroke-width: 1.0; stroke-dasharray: 7.0,7.0;"/><polygon fill="none" points="1386,127.2,1393,107.2,1400,127.2,1386,127.2" style="stroke: #A80036; stroke-width: 1.0;"/><!--MD5=[7269b632a17f4028eba21f1bd63939ed]
reverse link Layout to DynamicLayout--><path d="M1335.15,99 C1335.15,99 1243,99 1243,99 C1243,99 1243,142.91 1243,167.61 " fill="none" id="Layout&lt;-DynamicLayout" style="stroke: #A80036; stroke-width: 1.0; stroke-dasharray: 7.0,7.0;"/><polygon fill="none" points="1335.15,92,1355.15,99,1335.15,106,1335.15,92" style="stroke: #A80036; stroke-width: 1.0;"/><!--MD5=[46eb6d5f62098a9931e8efdb8e99157c]
reverse link FixedLayout to LayoutsFactory--><path d="M1364.75,205.08 C1364.75,205.08 1364.75,293 1364.75,293 C1364.75,293 1335.72,293 1306.01,293 " fill="none" id="FixedLayout&lt;-LayoutsFactory" style="stroke: #A80036; stroke-width: 1.0;"/><polygon fill="#A80036" points="1364.75,200.08,1360.75,209.08,1364.75,205.08,1368.75,209.08,1364.75,200.08" style="stroke: #A80036; stroke-width: 1.0;"/><text fill="#000000" font-family="sans-serif" font-size="13" lengthAdjust="spacingAndGlyphs" textLength="75" x="1366" y="243.0669">instantiates</text><!--MD5=[c9003fa7673fea298ac6dea79519d34f]
reverse link DynamicLayout to LayoutsFactory--><path d="M1243,205.08 C1243,205.08 1243,276.85 1243,276.85 " fill="none" id="DynamicLayout&lt;-LayoutsFactory" style="stroke: #A80036; stroke-width: 1.0;"/><polygon fill="#A80036" points="1243,200.08,1239,209.08,1243,205.08,1247,209.08,1243,200.08" style="stroke: #A80036; stroke-width: 1.0;"/><text fill="#000000" font-family="sans-serif" font-size="13" lengthAdjust="spacingAndGlyphs" textLength="75" x="1244" y="243.0669">instantiates</text><!--MD5=[f591e114573ccd2409f159b73ea72911]
reverse link AllVertices to AllSpikingNeurons--><path d="M1815,127.2 C1815,127.2 1815,167.99 1815,167.99 " fill="none" id="AllVertices&lt;-AllSpikingNeurons" style="stroke: #A80036; stroke-width: 1.0; stroke-dasharray: 7.0,7.0;"/><polygon fill="none" points="1808,127.2,1815,107.2,1822,127.2,1808,127.2" style="stroke: #A80036; stroke-width: 1.0;"/><!--MD5=[8724fdcf162cd93143062af7a28861a5]
reverse link AllSpikingNeurons to AllIFNeurons--><path d="M1822,220.08 C1822,220.08 1822,276.85 1822,276.85 " fill="none" id="AllSpikingNeurons&lt;-AllIFNeurons" style="stroke: #A80036; stroke-width: 1.0;"/><polygon fill="none" points="1815,220.08,1822,200.08,1829,220.08,1815,220.08" style="stroke: #A80036; stroke-width: 1.0;"/><!--MD5=[f5565d651accd6e6b1dad5fbc033ae63]
reverse link AllIFNeurons to AllLiFNeurons--><path d="M1816.5,329.12 C1816.5,329.12 1816.5,424.9 1816.5,424.9 " fill="none" id="AllIFNeurons&lt;-AllLiFNeurons" style="stroke: #A80036; stroke-width: 1.0;"/><polygon fill="none" points="1809.5,329.12,1816.5,309.12,1823.5,329.12,1809.5,329.12" style="stroke: #A80036; stroke-width: 1.0;"/><!--MD5=[62c6867a57863758a62158db896d0fc0]
reverse link AllIFNeurons to AllZHNeurons--><path d="M1872.83,329.13 C1872.83,329.13 1872.83,436 1872.83,436 C1872.83,436 1884.95,436 1900.1,436 " fill="none" id="AllIFNeurons&lt;-AllZHNeurons" style="stroke: #A80036; stroke-width: 1.0;"/><polygon fill="none" points="1865.83,329.13,1872.83,309.13,1879.83,329.13,1865.83,329.13" style="stroke: #A80036; stroke-width: 1.0;"/><!--MD5=[816076678d7e4925980428acffa4a6e0]
reverse link AllLiFNeurons to VerticesFactory--><path d="M1808,462.02 C1808,462.02 1808,588.67 1808,588.67 " fill="none" id="AllLiFNeurons&lt;-VerticesFactory" style="stroke: #A80036; stroke-width: 1.0;"/><polygon fill="#A80036" points="1808,457.02,1804,466.02,1808,462.02,1812,466.02,1808,457.02" style="stroke: #A80036; stroke-width: 1.0;"/><text fill="#000000" font-family="sans-serif" font-size="13" lengthAdjust="spacingAndGlyphs" textLength="75" x="1812" y="518.0669">instantiates</text><!--MD5=[3db3a0c82a3825d3c0c26b2962603658]
reverse link AllZHNeurons to VerticesFactory--><path d="M1895.33,447 C1895.33,447 1869.17,447 1869.17,447 C1869.17,447 1869.17,548.81 1869.17,588.98 " fill="none" id="AllZHNeurons&lt;-VerticesFactory" style="stroke: #A80036; stroke-width: 1.0;"/><polygon fill="#A80036" points="1900.33,447,1891.33,443,1895.33,447,1891.33,451,1900.33,447" style="stroke: #A80036; stroke-width: 1.0;"/><text fill="#000000" font-family="sans-serif" font-size="13" lengthAdjust="spacingAndGlyphs" textLength="75" x="1937" y="518.0669">instantiates</text><!--MD5=[a32c8dc18938f820152f805b5dcbc3e8]
reverse link IRecorder to XmLRecorder--><path d="M536,641.02 C536,641.02 536,752.67 536,752.67 " fill="none" id="IRecorder&lt;-XmLRecorder" style="stroke: #A80036; stroke-width: 1.0; stroke-dasharray: 7.0,7.0;"/><polygon fill="none" points="529,641.02,536,621.02,543,641.02,529,641.02" style="stroke: #A80036; stroke-width: 1.0;"/><!--MD5=[a0b975066a710a7895b5153868e55a27]
reverse link IRecorder to HDF5Recorder--><path d="M469.44,614 C469.44,614 290,614 290,614 C290,614 290,713.39 290,753 " fill="none" id="IRecorder&lt;-HDF5Recorder" style="stroke: #A80036; stroke-width: 1.0; stroke-dasharray: 7.0,7.0;"/><polygon fill="none" points="469.44,607,489.44,614,469.44,621,469.44,607" style="stroke: #A80036; stroke-width: 1.0;"/><!--MD5=[93e5a6ee61d1f05a63d1d290b5da68e0]
reverse link XmLRecorder to XmlGrowthRecroder--><path d="M572.75,805.12 C572.75,805.12 572.75,847.81 572.75,847.81 " fill="none" id="XmLRecorder&lt;-XmlGrowthRecroder" style="stroke: #A80036; stroke-width: 1.0;"/><polygon fill="none" points="565.75,805.12,572.75,785.12,579.75,805.12,565.75,805.12" style="stroke: #A80036; stroke-width: 1.0;"/><!--MD5=[9a9f80ee8e039ba0cdc0509d1d0ec35e]
reverse link HDF5Recorder to Hdf5GrowthRecorder--><path d="M290,805.12 C290,805.12 290,847.81 290,847.81 " fill="none" id="HDF5Recorder&lt;-Hdf5GrowthRecorder" style="stroke: #A80036; stroke-width: 1.0;"/><polygon fill="none" points="283,805.12,290,785.12,297,805.12,283,805.12" style="stroke: #A80036; stroke-width: 1.0;"/><!--MD5=[3af4f1eecf578f95c361f55f01de5f0e]
reverse link XmLRecorder to RecordersFactory--><path d="M490.33,790.01 C490.33,790.01 490.33,956.78 490.33,956.78 " fill="none" id="XmLRecorder&lt;-RecordersFactory" style="stroke: #A80036; stroke-width: 1.0;"/><polygon fill="#A80036" points="490.33,785.01,486.33,794.01,490.33,790.01,494.33,794.01,490.33,785.01" style="stroke: #A80036; stroke-width: 1.0;"/><text fill="#000000" font-family="sans-serif" font-size="13" lengthAdjust="spacingAndGlyphs" textLength="75" x="442" y="868.5669">instantiates</text><!--MD5=[427f0813d0781cf9b4a277c1904c7c53]
reverse link HDF5Recorder to RecordersFactory--><path d="M356.28,769 C356.28,769 421,769 421,769 C421,769 421,908.9 421,956.99 " fill="none" id="HDF5Recorder&lt;-RecordersFactory" style="stroke: #A80036; stroke-width: 1.0;"/><polygon fill="#A80036" points="351.28,769,360.28,773,356.28,769,360.28,765,351.28,769" style="stroke: #A80036; stroke-width: 1.0;"/><text fill="#000000" font-family="sans-serif" font-size="13" lengthAdjust="spacingAndGlyphs" textLength="75" x="98" y="868.5669">instantiates</text><!--MD5=[ef7aead4e4de6a506f4bd6283eeb5cc2]
reverse link XmlGrowthRecroder to RecordersFactory--><path d="M547.83,859 C547.83,859 501.17,859 501.17,859 C501.17,859 501.17,925.14 501.17,956.67 " fill="none" id="XmlGrowthRecroder&lt;-RecordersFactory" style="stroke: #A80036; stroke-width: 1.0;"/><polygon fill="#A80036" points="552.83,859,543.83,855,547.83,859,543.83,863,552.83,859" style="stroke: #A80036; stroke-width: 1.0;"/><text fill="#000000" font-family="sans-serif" font-size="13" lengthAdjust="spacingAndGlyphs" textLength="75" x="557" y="923.0669">instantiates</text><!--MD5=[4190e7fed19e1823e30f66c46aadd182]
reverse link Hdf5GrowthRecorder to RecordersFactory--><path d="M376.15,870 C376.15,870 396,870 396,870 C396,870 396,927.94 396,956.91 " fill="none" id="Hdf5GrowthRecorder&lt;-RecordersFactory" style="stroke: #A80036; stroke-width: 1.0;"/><polygon fill="#A80036" points="371.15,870,380.15,874,376.15,870,380.15,866,371.15,870" style="stroke: #A80036; stroke-width: 1.0;"/><text fill="#000000" font-family="sans-serif" font-size="13" lengthAdjust="spacingAndGlyphs" textLength="75" x="325" y="923.0669">instantiates</text><!--MD5=[513ec0388948448dab3ce17eb36460f7]
reverse link Connections to ConnStatic--><path d="M1163.25,477.02 C1163.25,477.02 1163.25,588.67 1163.25,588.67 " fill="none" id="Connections&lt;-ConnStatic" style="stroke: #A80036; stroke-width: 1.0; stroke-dasharray: 7.0,7.0;"/><polygon fill="none" points="1156.25,477.02,1163.25,457.02,1170.25,477.02,1156.25,477.02" style="stroke: #A80036; stroke-width: 1.0;"/><!--MD5=[10477add2578806cc5f98b33b8db5e65]
reverse link Connections to ConnGrowth--><path d="M1091.25,477.02 C1091.25,477.02 1091.25,588.67 1091.25,588.67 " fill="none" id="Connections&lt;-ConnGrowth" style="stroke: #A80036; stroke-width: 1.0; stroke-dasharray: 7.0,7.0;"/><polygon fill="none" points="1084.25,477.02,1091.25,457.02,1098.25,477.02,1084.25,477.02" style="stroke: #A80036; stroke-width: 1.0;"/><!--MD5=[ce8801c2acd2b0d49ec9478c2a92b972]
reverse link ConnStatic to ConnectionsFactory--><path d="M1151.5,626.02 C1151.5,626.02 1151.5,752.67 1151.5,752.67 " fill="none" id="ConnStatic&lt;-ConnectionsFactory" style="stroke: #A80036; stroke-width: 1.0;"/><polygon fill="#A80036" points="1151.5,621.02,1147.5,630.02,1151.5,626.02,1155.5,630.02,1151.5,621.02" style="stroke: #A80036; stroke-width: 1.0;"/><text fill="#000000" font-family="sans-serif" font-size="13" lengthAdjust="spacingAndGlyphs" textLength="75" x="1169" y="682.0669">instantiates</text><!--MD5=[de55930b9c422267ee87a004d94dc6e8]
reverse link ConnGrowth to ConnectionsFactory--><path d="M1056,626.02 C1056,626.02 1056,752.67 1056,752.67 " fill="none" id="ConnGrowth&lt;-ConnectionsFactory" style="stroke: #A80036; stroke-width: 1.0;"/><polygon fill="#A80036" points="1056,621.02,1052,630.02,1056,626.02,1060,630.02,1056,621.02" style="stroke: #A80036; stroke-width: 1.0;"/><text fill="#000000" font-family="sans-serif" font-size="13" lengthAdjust="spacingAndGlyphs" textLength="75" x="1052" y="682.0669">instantiates</text><!--MD5=[31245d3cee91cd73d7b7d218049e1649]
reverse link AllEdges to AllSpikingSynapses--><path d="M1454.75,805.12 C1454.75,805.12 1454.75,847.81 1454.75,847.81 " fill="none" id="AllEdges&lt;-AllSpikingSynapses" style="stroke: #A80036; stroke-width: 1.0; stroke-dasharray: 7.0,7.0;"/><polygon fill="none" points="1447.75,805.12,1454.75,785.12,1461.75,805.12,1447.75,805.12" style="stroke: #A80036; stroke-width: 1.0;"/><!--MD5=[587b9d07fbc4fdda6579551662042140]
reverse link AllSpikingSynapses to AllSTDPSynapses--><path d="M1512,900.08 C1512,900.08 1512,956.85 1512,956.85 " fill="none" id="AllSpikingSynapses&lt;-AllSTDPSynapses" style="stroke: #A80036; stroke-width: 1.0;"/><polygon fill="none" points="1505,900.08,1512,880.08,1519,900.08,1505,900.08" style="stroke: #A80036; stroke-width: 1.0;"/><!--MD5=[f221506eaa2e129ebcab2e085332c1be]
reverse link AllSpikingSynapses to AllDSSynapses--><path d="M1607.61,864 C1607.61,864 1692.75,864 1692.75,864 C1692.75,864 1692.75,926.6 1692.75,956.92 " fill="none" id="AllSpikingSynapses&lt;-AllDSSynapses" style="stroke: #A80036; stroke-width: 1.0;"/><polygon fill="none" points="1607.61,871,1587.61,864,1607.61,857,1607.61,871" style="stroke: #A80036; stroke-width: 1.0;"/><!--MD5=[b9dc5ca9d326f6b2e35f4ef44c514701]
reverse link AllSTDPSynapses to AllDynamicsSTDPSynapses--><path d="M1539.75,1009.38 C1539.75,1009.38 1539.75,1067.92 1539.75,1067.92 " fill="none" id="AllSTDPSynapses&lt;-AllDynamicsSTDPSynapses" style="stroke: #A80036; stroke-width: 1.0;"/><polygon fill="none" points="1532.75,1009.38,1539.75,989.38,1546.75,1009.38,1532.75,1009.38" style="stroke: #A80036; stroke-width: 1.0;"/><!--MD5=[4407787554ed777fb67af52573db306c]
reverse link AllSTDPSynapses to EdgesFactory--><path d="M1470.75,994.18 C1470.75,994.18 1470.75,1176.8 1470.75,1176.8 " fill="none" id="AllSTDPSynapses&lt;-EdgesFactory" style="stroke: #A80036; stroke-width: 1.0;"/><polygon fill="#A80036" points="1470.75,989.18,1466.75,998.18,1470.75,994.18,1474.75,998.18,1470.75,989.18" style="stroke: #A80036; stroke-width: 1.0;"/><text fill="#000000" font-family="sans-serif" font-size="13" lengthAdjust="spacingAndGlyphs" textLength="75" x="1387" y="1088.5669">instantiates</text><!--MD5=[541346a73ae12603d046e53bdf8cd025]
reverse link AllDSSynapses to EdgesFactory--><path d="M1739.5,994.18 C1739.5,994.18 1739.5,1193 1739.5,1193 C1739.5,1193 1601.43,1193 1519.72,1193 " fill="none" id="AllDSSynapses&lt;-EdgesFactory" style="stroke: #A80036; stroke-width: 1.0;"/><polygon fill="#A80036" points="1739.5,989.18,1735.5,998.18,1739.5,994.18,1743.5,998.18,1739.5,989.18" style="stroke: #A80036; stroke-width: 1.0;"/><text fill="#000000" font-family="sans-serif" font-size="13" lengthAdjust="spacingAndGlyphs" textLength="75" x="1767" y="1088.5669">instantiates</text><!--MD5=[1104c1ad87384c985d15bad9d62e0bea]
reverse link AllDynamicsSTDPSynapses to EdgesFactory--><path d="M1509,1105.08 C1509,1105.08 1509,1176.85 1509,1176.85 " fill="none" id="AllDynamicsSTDPSynapses&lt;-EdgesFactory" style="stroke: #A80036; stroke-width: 1.0;"/><polygon fill="#A80036" points="1509,1100.08,1505,1109.08,1509,1105.08,1513,1109.08,1509,1100.08" style="stroke: #A80036; stroke-width: 1.0;"/><text fill="#000000" font-family="sans-serif" font-size="13" lengthAdjust="spacingAndGlyphs" textLength="75" x="1513" y="1143.0669">instantiates</text><!--MD5=[d95cba7a564e0eb2f945d9455f1e08a4]
link Core to Layouts--><!--MD5=[3a074d6a93e7e88a957dba9b80e50081]
link Layouts to Vertices--><!--MD5=[42be6bbbc523329e8d13badc94475598]
link Core to Recorders--><!--MD5=[9f00652237e409965a409b02122331f2]
link Layouts to Connections--><!--MD5=[e07bd046f8fc72b6c553dc19b1427184]
link Vertices to Edges--><!--MD5=[2c61cf99b0bec386ca840c193763b14a]
link Simulator to LayoutsFactory--><path d="M901.69,83 C939.73,83 987.7,83 987.7,83 C987.7,83 987.7,293 987.7,293 C987.7,293 1174.89,293 1174.89,293 " fill="none" id="Simulator-&gt;LayoutsFactory" style="stroke: #FF0000; stroke-width: 1.0;"/><polygon fill="#FF0000" points="1179.89,293,1170.89,289,1174.89,293,1170.89,297,1179.89,293" style="stroke: #FF0000; stroke-width: 1.0;"/><text fill="#000000" font-family="sans-serif" font-size="13" lengthAdjust="spacingAndGlyphs" textLength="72" x="1072" y="188.5669">commands</text><!--MD5=[54271b6078ede2b7f4d9940e12d64874]
link Simulator to ConnectionsFactory--><path d="M901.7,91 C923.46,91 944.8,91 944.8,91 C944.8,91 944.8,769 944.8,769 C944.8,769 996.75,769 996.75,769 " fill="none" id="Simulator-&gt;ConnectionsFactory" style="stroke: #FF0000; stroke-width: 1.0;"/><polygon fill="#FF0000" points="1001.75,769,992.75,765,996.75,769,992.75,773,1001.75,769" style="stroke: #FF0000; stroke-width: 1.0;"/><text fill="#000000" font-family="sans-serif" font-size="13" lengthAdjust="spacingAndGlyphs" textLength="72" x="626" y="370.0669">commands</text><!--MD5=[a911b337811af7fd7ce810fac5ac8c54]
reverse link Model to Layout--><path d="M741,64.17 C741,64.17 741,63 741,63 C741,63 1393,63 1393,63 C1393,63 1393,68.55 1393,74.71 " fill="none" id="Model&lt;-Layout" style="stroke: #FF0000; stroke-width: 1.0;"/><polygon fill="#FFFFFF" points="741,74.71,745,68.71,741,62.71,737,68.71,741,74.71" style="stroke: #FF0000; stroke-width: 1.0;"/><!--MD5=[0e5738770afdb953f3cb9465cb228f84]
reverse link Model to Connections--><path d="M752.5,120.17 C752.5,120.17 752.5,138 752.5,138 C752.5,138 1126.25,138 1126.25,138 C1126.25,138 1126.25,361.77 1126.25,424.71 " fill="none" id="Model&lt;-Connections" style="stroke: #FF0000; stroke-width: 1.0;"/><polygon fill="#FFFFFF" points="752.5,107.17,748.5,113.17,752.5,119.17,756.5,113.17,752.5,107.17" style="stroke: #FF0000; stroke-width: 1.0;"/><!--MD5=[efb7ef13657b6fc949565044919673f3]
reverse link Layout to AllVertices--><path d="M1443.82,83 C1443.82,83 1766.89,83 1766.89,83 " fill="none" id="Layout&lt;-AllVertices" style="stroke: #FF0000; stroke-width: 1.0;"/><polygon fill="#FFFFFF" points="1430.82,83,1436.82,87,1442.82,83,1436.82,79,1430.82,83" style="stroke: #FF0000; stroke-width: 1.0;"/><!--MD5=[30ebdb8fe104fc5727699212f68639a3]
link Layout to VerticesFactory--><path d="M1430.75,100 C1444.73,100 1457.25,100 1457.25,100 C1457.25,100 1457.25,605 1457.25,605 C1457.25,605 1745.21,605 1745.21,605 " fill="none" id="Layout-&gt;VerticesFactory" style="stroke: #FF0000; stroke-width: 1.0;"/><polygon fill="#FF0000" points="1750.21,605,1741.21,601,1745.21,605,1741.21,609,1750.21,605" style="stroke: #FF0000; stroke-width: 1.0;"/><text fill="#000000" font-family="sans-serif" font-size="13" lengthAdjust="spacingAndGlyphs" textLength="72" x="1500" y="297.5669">commands</text><!--MD5=[c1506f01115880aaa731ab3eaa932dd8]
reverse link Connections to IRecorder--><path d="M1059.49,436 C1059.49,436 959.1,436 959.1,436 C959.1,436 959.1,605 959.1,605 C959.1,605 693.05,605 582.9,605 " fill="none" id="Connections&lt;-IRecorder" style="stroke: #FF0000; stroke-width: 1.0;"/><polygon fill="#FFFFFF" points="1072.49,436,1066.49,432,1060.49,436,1066.49,440,1072.49,436" style="stroke: #FF0000; stroke-width: 1.0;"/><!--MD5=[25007e0d6d2bc2691ed586569b6b25e2]
reverse link Connections to AllEdges--><path d="M1194.59,441 C1194.59,441 1417.25,441 1417.25,441 C1417.25,441 1417.25,686.55 1417.25,752.73 " fill="none" id="Connections&lt;-AllEdges" style="stroke: #FF0000; stroke-width: 1.0;"/><polygon fill="#FFFFFF" points="1181.59,441,1187.59,445,1193.59,441,1187.59,437,1181.59,441" style="stroke: #FF0000; stroke-width: 1.0;"/><!--MD5=[667bd891f405c7f0704357e7745df727]
link Connections to RecordersFactory--><path d="M1072.41,447 C1028.26,447 973.4,447 973.4,447 C973.4,447 973.4,973 973.4,973 C973.4,973 517.25,973 517.25,973 " fill="none" id="Connections-&gt;RecordersFactory" style="stroke: #FF0000; stroke-width: 1.0;"/><polygon fill="#FF0000" points="512.25,973,521.25,977,517.25,973,521.25,969,512.25,973" style="stroke: #FF0000; stroke-width: 1.0;"/><text fill="#000000" font-family="sans-serif" font-size="13" lengthAdjust="spacingAndGlyphs" textLength="72" x="850" y="773.5669">commands</text><!--MD5=[485b9368dfec1399f74485e1b2980e82]
link Connections to EdgesFactory--><path d="M1181.87,449 C1224.18,449 1275.5,449 1275.5,449 C1275.5,449 1275.5,1193 1275.5,1193 C1275.5,1193 1397.31,1193 1397.31,1193 " fill="none" id="Connections-&gt;EdgesFactory" style="stroke: #FF0000; stroke-width: 1.0;"/><polygon fill="#FF0000" points="1402.31,1193,1393.31,1189,1397.31,1193,1393.31,1197,1402.31,1193" style="stroke: #FF0000; stroke-width: 1.0;"/><text fill="#000000" font-family="sans-serif" font-size="13" lengthAdjust="spacingAndGlyphs" textLength="72" x="1299" y="868.5669">commands</text><!--MD5=[0da719abe01c8258f97b6c9e3602bfbe]
@startuml package UML

skinparam linetype ortho
hide members

package Core{
   class Simulator
   class CPUSpikingModel implements Model
   class GPUSpikingModel implements Model
   class Operations
   class OperationManager 
   class ParameterManager 

   Model -left-o Simulator 
   Operations -right-o OperationManager   
   Simulator - - -> OperationManager : commands 
  
   CPUSpikingModel -[hidden]right> GPUSpikingModel
   CPUSpikingModel -[hidden]-> Operations
   OperationManager -[hidden]-> ParameterManager
}

package Layouts{
   class FixedLayout implements Layout
   class DynamicLayout implements Layout
   class LayoutsFactory
   FixedLayout <- - LayoutsFactory : instantiates
   DynamicLayout <- - LayoutsFactory	: instantiates
}

package Vertices{
   class AllSpikingNeurons implements AllVertices
   class AllIFNeurons extends AllSpikingNeurons
   class AllLiFNeurons extends AllIFNeurons
   class AllZHNeurons extends AllIFNeurons
   class VerticesFactory 
   VerticesFactory -up-> AllLiFNeurons : instantiates
   VerticesFactory -up-> AllZHNeurons : instantiates
}

package Recorders{
   class  XmLRecorder implements IRecorder
   class HDF5Recorder implements IRecorder
   class XmlGrowthRecroder extends XmLRecorder
   class Hdf5GrowthRecorder extends HDF5Recorder
   class RecordersFactory
   XmLRecorder <- - RecordersFactory : instantiates
   HDF5Recorder <- - RecordersFactory : instantiates
   XmlGrowthRecroder <- - RecordersFactory : instantiates
   Hdf5GrowthRecorder <- - RecordersFactory : instantiates
}

package Connections{
   class ConnStatic implements Connections
   class ConnGrowth Implements Connections
   class ConnectionsFactory
   ConnectionsFactory - -up> ConnStatic : instantiates
   ConnectionsFactory - -up> ConnGrowth  : instantiates
}

package Edges{
   class AllSpikingSynapses implements AllEdges
   class AllSTDPSynapses extends AllSpikingSynapses
   class AllDSSynapses extends AllSpikingSynapses
   class AllDynamicsSTDPSynapses extends AllSTDPSynapses
   class EdgesFactory
   EdgesFactory - -up-> AllSTDPSynapses : instantiates
   EdgesFactory - -up-> AllDSSynapses : instantiates
   EdgesFactory - -up> AllDynamicsSTDPSynapses : instantiates
}

Core -[hidden]right>  Layouts
Layouts -[hidden]right> Vertices
Core -[hidden]down- - -> Recorders
Layouts -[hidden]down- - -> Connections
Vertices -[hidden]down- - - - -> Edges

Simulator -[#red]-> LayoutsFactory : commands
Simulator -[#red]- -> ConnectionsFactory: commands
Model o-[#red] Layout
Model o-[#red]- - Connections
Layout o-[#red] AllVertices
Layout -[#red]- - -> VerticesFactory : commands

Connections o-[#red]- IRecorder
Connections o-[#red]- AllEdges
Connections -[#red]- - - -> RecordersFactory : commands
Connections -[#red]- - - -> EdgesFactory : commands
@enduml

PlantUML version 1.2020.02(Sun Mar 01 10:22:07 GMT 2020)
(GPL source distribution)
Java Runtime: OpenJDK Runtime Environment
JVM: OpenJDK 64-Bit Server VM
Java Version: 11.0.9+11-Ubuntu-0ubuntu1
Operating System: Linux
Default Encoding: ANSI_X3.4-1968
Language: en
Country: US
--></g></svg>