<?xml version="1.0" encoding="UTF-8" standalone="no"?><svg xmlns="http://www.w3.org/2000/svg" xmlns:xlink="http://www.w3.org/1999/xlink" contentScriptType="application/ecmascript" contentStyleType="text/css" height="1190px" preserveAspectRatio="none" style="width:1909px;height:1190px;" version="1.1" viewBox="0 0 1909 1190" width="1909px" zoomAndPan="magnify"><defs><filter height="300%" id="f1fnkg8gzg2alp" width="300%" x="-1" y="-1"><feGaussianBlur result="blurOut" stdDeviation="2.0"/><feColorMatrix in="blurOut" result="blurOut2" type="matrix" values="0 0 0 0 0 0 0 0 0 0 0 0 0 0 0 0 0 0 .4 0"/><feOffset dx="4.0" dy="4.0" in="blurOut2" result="blurOut3"/><feBlend in="SourceGraphic" in2="blurOut3" mode="normal"/></filter></defs><g><!--MD5=[2c2e2644034c00788261e03c85b06837]
cluster Core--><polygon fill="#FFFFFF" filter="url(#f1fnkg8gzg2alp)" points="158,32,202,32,209,54.2969,673,54.2969,673,444,158,444,158,32" style="stroke: #000000; stroke-width: 1.5;"/><line style="stroke: #000000; stroke-width: 1.5;" x1="158" x2="209" y1="54.2969" y2="54.2969"/><text fill="#000000" font-family="sans-serif" font-size="14" font-weight="bold" lengthAdjust="spacingAndGlyphs" textLength="38" x="162" y="46.9951">Core</text><!--MD5=[bcaa2b9ff15208c4e2012dff6dfdc182]
cluster Layouts--><polygon fill="#FFFFFF" filter="url(#f1fnkg8gzg2alp)" points="1022,32,1090,32,1097,54.2969,1344,54.2969,1344,333,1022,333,1022,32" style="stroke: #000000; stroke-width: 1.5;"/><line style="stroke: #000000; stroke-width: 1.5;" x1="1022" x2="1097" y1="54.2969" y2="54.2969"/><text fill="#000000" font-family="sans-serif" font-size="14" font-weight="bold" lengthAdjust="spacingAndGlyphs" textLength="62" x="1026" y="46.9951">Layouts</text><!--MD5=[8d26bb35548c3dcbc6e480db6528a15a]
cluster Vertices--><polygon fill="#FFFFFF" filter="url(#f1fnkg8gzg2alp)" points="1563,32,1635,32,1642,54.2969,1887,54.2969,1887,592,1563,592,1563,32" style="stroke: #000000; stroke-width: 1.5;"/><line style="stroke: #000000; stroke-width: 1.5;" x1="1563" x2="1642" y1="54.2969" y2="54.2969"/><text fill="#000000" font-family="sans-serif" font-size="14" font-weight="bold" lengthAdjust="spacingAndGlyphs" textLength="66" x="1567" y="46.9951">Vertices</text><!--MD5=[9168128f11ea68e0eeae1bee9b5f58d3]
cluster Recorders--><polygon fill="#FFFFFF" filter="url(#f1fnkg8gzg2alp)" points="30,641,118,641,125,663.2969,511,663.2969,511,1178,30,1178,30,641" style="stroke: #000000; stroke-width: 1.5;"/><line style="stroke: #000000; stroke-width: 1.5;" x1="30" x2="125" y1="663.2969" y2="663.2969"/><text fill="#000000" font-family="sans-serif" font-size="14" font-weight="bold" lengthAdjust="spacingAndGlyphs" textLength="82" x="34" y="655.9951">Recorders</text><!--MD5=[3a4496162e4aa4b8f639c92517849365]
cluster Connections--><polygon fill="#FFFFFF" filter="url(#f1fnkg8gzg2alp)" points="648,501,753,501,760,523.2969,923,523.2969,923,841,648,841,648,501" style="stroke: #000000; stroke-width: 1.5;"/><line style="stroke: #000000; stroke-width: 1.5;" x1="648" x2="760" y1="523.2969" y2="523.2969"/><text fill="#000000" font-family="sans-serif" font-size="14" font-weight="bold" lengthAdjust="spacingAndGlyphs" textLength="99" x="652" y="515.9951">Connections</text><!--MD5=[a69b11994f1325ca382ee696cdd1fd0b]
cluster Edges--><polygon fill="#FFFFFF" filter="url(#f1fnkg8gzg2alp)" points="1002,641,1056,641,1063,663.2969,1550,663.2969,1550,1178,1002,1178,1002,641" style="stroke: #000000; stroke-width: 1.5;"/><line style="stroke: #000000; stroke-width: 1.5;" x1="1002" x2="1063" y1="663.2969" y2="663.2969"/><text fill="#000000" font-family="sans-serif" font-size="14" font-weight="bold" lengthAdjust="spacingAndGlyphs" textLength="48" x="1006" y="655.9951">Edges</text><!--MD5=[e78d3bd29d68b8fbdb4aae8710e3db25]
class Simulator--><rect fill="#FEFECE" filter="url(#f1fnkg8gzg2alp)" height="32" id="Simulator" style="stroke: #A80036; stroke-width: 1.5;" width="91" x="538.5" y="75"/><ellipse cx="553.5" cy="91" fill="#ADD1B2" rx="11" ry="11" style="stroke: #A80036; stroke-width: 1.0;"/><path d="M556.4688,96.6406 Q555.8906,96.9375 555.25,97.0781 Q554.6094,97.2344 553.9063,97.2344 Q551.4063,97.2344 550.0781,95.5938 Q548.7656,93.9375 548.7656,90.8125 Q548.7656,87.6875 550.0781,86.0313 Q551.4063,84.375 553.9063,84.375 Q554.6094,84.375 555.25,84.5313 Q555.9063,84.6875 556.4688,84.9844 L556.4688,87.7031 Q555.8438,87.125 555.25,86.8594 Q554.6563,86.5781 554.0313,86.5781 Q552.6875,86.5781 552,87.6563 Q551.3125,88.7188 551.3125,90.8125 Q551.3125,92.9063 552,93.9844 Q552.6875,95.0469 554.0313,95.0469 Q554.6563,95.0469 555.25,94.7813 Q555.8438,94.5 556.4688,93.9219 L556.4688,96.6406 Z "/><text fill="#000000" font-family="sans-serif" font-size="12" lengthAdjust="spacingAndGlyphs" textLength="59" x="567.5" y="95.1543">Simulator</text><!--MD5=[0b94f3229ccc3f95d40f9de2aafb3991]
class CPUSpikingModel--><rect fill="#FEFECE" filter="url(#f1fnkg8gzg2alp)" height="32" id="CPUSpikingModel" style="stroke: #A80036; stroke-width: 1.5;" width="139" x="357.5" y="168"/><ellipse cx="372.5" cy="184" fill="#ADD1B2" rx="11" ry="11" style="stroke: #A80036; stroke-width: 1.0;"/><path d="M375.4688,189.6406 Q374.8906,189.9375 374.25,190.0781 Q373.6094,190.2344 372.9063,190.2344 Q370.4063,190.2344 369.0781,188.5938 Q367.7656,186.9375 367.7656,183.8125 Q367.7656,180.6875 369.0781,179.0313 Q370.4063,177.375 372.9063,177.375 Q373.6094,177.375 374.25,177.5313 Q374.9063,177.6875 375.4688,177.9844 L375.4688,180.7031 Q374.8438,180.125 374.25,179.8594 Q373.6563,179.5781 373.0313,179.5781 Q371.6875,179.5781 371,180.6563 Q370.3125,181.7188 370.3125,183.8125 Q370.3125,185.9063 371,186.9844 Q371.6875,188.0469 373.0313,188.0469 Q373.6563,188.0469 374.25,187.7813 Q374.8438,187.5 375.4688,186.9219 L375.4688,189.6406 Z "/><text fill="#000000" font-family="sans-serif" font-size="12" lengthAdjust="spacingAndGlyphs" textLength="107" x="386.5" y="188.1543">CPUSpikingModel</text><!--MD5=[7e20e022571e30ec1001cf6eabd7f3e2]
class Model--><rect fill="#FEFECE" filter="url(#f1fnkg8gzg2alp)" height="32" id="Model" style="stroke: #A80036; stroke-width: 1.5;" width="69" x="434.5" y="75"/><ellipse cx="449.5" cy="91" fill="#B4A7E5" rx="11" ry="11" style="stroke: #A80036; stroke-width: 1.0;"/><path d="M445.4219,86.7656 L445.4219,84.6094 L452.8125,84.6094 L452.8125,86.7656 L450.3438,86.7656 L450.3438,94.8438 L452.8125,94.8438 L452.8125,97 L445.4219,97 L445.4219,94.8438 L447.8906,94.8438 L447.8906,86.7656 L445.4219,86.7656 Z "/><text fill="#000000" font-family="sans-serif" font-size="12" font-style="italic" lengthAdjust="spacingAndGlyphs" textLength="37" x="463.5" y="95.1543">Model</text><!--MD5=[9f94b75dce46dbb71fc5aed3e87d7d49]
class GPUSpikingModel--><rect fill="#FEFECE" filter="url(#f1fnkg8gzg2alp)" height="32" id="GPUSpikingModel" style="stroke: #A80036; stroke-width: 1.5;" width="140" x="182" y="168"/><ellipse cx="197" cy="184" fill="#ADD1B2" rx="11" ry="11" style="stroke: #A80036; stroke-width: 1.0;"/><path d="M199.9688,189.6406 Q199.3906,189.9375 198.75,190.0781 Q198.1094,190.2344 197.4063,190.2344 Q194.9063,190.2344 193.5781,188.5938 Q192.2656,186.9375 192.2656,183.8125 Q192.2656,180.6875 193.5781,179.0313 Q194.9063,177.375 197.4063,177.375 Q198.1094,177.375 198.75,177.5313 Q199.4063,177.6875 199.9688,177.9844 L199.9688,180.7031 Q199.3438,180.125 198.75,179.8594 Q198.1563,179.5781 197.5313,179.5781 Q196.1875,179.5781 195.5,180.6563 Q194.8125,181.7188 194.8125,183.8125 Q194.8125,185.9063 195.5,186.9844 Q196.1875,188.0469 197.5313,188.0469 Q198.1563,188.0469 198.75,187.7813 Q199.3438,187.5 199.9688,186.9219 L199.9688,189.6406 Z "/><text fill="#000000" font-family="sans-serif" font-size="12" lengthAdjust="spacingAndGlyphs" textLength="108" x="211" y="188.1543">GPUSpikingModel</text><!--MD5=[fdf81c1c7218c7a86b85d500a2db5e87]
class Operations--><rect fill="#FEFECE" filter="url(#f1fnkg8gzg2alp)" height="32" id="Operations" style="stroke: #A80036; stroke-width: 1.5;" width="101" x="356.5" y="277"/><ellipse cx="371.5" cy="293" fill="#ADD1B2" rx="11" ry="11" style="stroke: #A80036; stroke-width: 1.0;"/><path d="M374.4688,298.6406 Q373.8906,298.9375 373.25,299.0781 Q372.6094,299.2344 371.9063,299.2344 Q369.4063,299.2344 368.0781,297.5938 Q366.7656,295.9375 366.7656,292.8125 Q366.7656,289.6875 368.0781,288.0313 Q369.4063,286.375 371.9063,286.375 Q372.6094,286.375 373.25,286.5313 Q373.9063,286.6875 374.4688,286.9844 L374.4688,289.7031 Q373.8438,289.125 373.25,288.8594 Q372.6563,288.5781 372.0313,288.5781 Q370.6875,288.5781 370,289.6563 Q369.3125,290.7188 369.3125,292.8125 Q369.3125,294.9063 370,295.9844 Q370.6875,297.0469 372.0313,297.0469 Q372.6563,297.0469 373.25,296.7813 Q373.8438,296.5 374.4688,295.9219 L374.4688,298.6406 Z "/><text fill="#000000" font-family="sans-serif" font-size="12" lengthAdjust="spacingAndGlyphs" textLength="69" x="385.5" y="297.1543">Operations</text><!--MD5=[314e3b7c2db0a5a356d5ece57f37d58b]
class OperationManager--><rect fill="#FEFECE" filter="url(#f1fnkg8gzg2alp)" height="32" id="OperationManager" style="stroke: #A80036; stroke-width: 1.5;" width="149" x="492.5" y="277"/><ellipse cx="507.5" cy="293" fill="#ADD1B2" rx="11" ry="11" style="stroke: #A80036; stroke-width: 1.0;"/><path d="M510.4688,298.6406 Q509.8906,298.9375 509.25,299.0781 Q508.6094,299.2344 507.9063,299.2344 Q505.4063,299.2344 504.0781,297.5938 Q502.7656,295.9375 502.7656,292.8125 Q502.7656,289.6875 504.0781,288.0313 Q505.4063,286.375 507.9063,286.375 Q508.6094,286.375 509.25,286.5313 Q509.9063,286.6875 510.4688,286.9844 L510.4688,289.7031 Q509.8438,289.125 509.25,288.8594 Q508.6563,288.5781 508.0313,288.5781 Q506.6875,288.5781 506,289.6563 Q505.3125,290.7188 505.3125,292.8125 Q505.3125,294.9063 506,295.9844 Q506.6875,297.0469 508.0313,297.0469 Q508.6563,297.0469 509.25,296.7813 Q509.8438,296.5 510.4688,295.9219 L510.4688,298.6406 Z "/><text fill="#000000" font-family="sans-serif" font-size="12" lengthAdjust="spacingAndGlyphs" textLength="117" x="521.5" y="297.1543">OperationManager</text><!--MD5=[eb1da731c4a897e81e143002ff161e69]
class ParameterManager--><rect fill="#FEFECE" filter="url(#f1fnkg8gzg2alp)" height="32" id="ParameterManager" style="stroke: #A80036; stroke-width: 1.5;" width="153" x="487.5" y="388"/><ellipse cx="502.5" cy="404" fill="#ADD1B2" rx="11" ry="11" style="stroke: #A80036; stroke-width: 1.0;"/><path d="M505.4688,409.6406 Q504.8906,409.9375 504.25,410.0781 Q503.6094,410.2344 502.9063,410.2344 Q500.4063,410.2344 499.0781,408.5938 Q497.7656,406.9375 497.7656,403.8125 Q497.7656,400.6875 499.0781,399.0313 Q500.4063,397.375 502.9063,397.375 Q503.6094,397.375 504.25,397.5313 Q504.9063,397.6875 505.4688,397.9844 L505.4688,400.7031 Q504.8438,400.125 504.25,399.8594 Q503.6563,399.5781 503.0313,399.5781 Q501.6875,399.5781 501,400.6563 Q500.3125,401.7188 500.3125,403.8125 Q500.3125,405.9063 501,406.9844 Q501.6875,408.0469 503.0313,408.0469 Q503.6563,408.0469 504.25,407.7813 Q504.8438,407.5 505.4688,406.9219 L505.4688,409.6406 Z "/><text fill="#000000" font-family="sans-serif" font-size="12" lengthAdjust="spacingAndGlyphs" textLength="121" x="516.5" y="408.1543">ParameterManager</text><!--MD5=[c01d281453c5d4cdc24a7f27a30cb7c5]
class FixedLayout--><rect fill="#FEFECE" filter="url(#f1fnkg8gzg2alp)" height="32" id="FixedLayout" style="stroke: #A80036; stroke-width: 1.5;" width="105" x="1206.5" y="168"/><ellipse cx="1221.5" cy="184" fill="#ADD1B2" rx="11" ry="11" style="stroke: #A80036; stroke-width: 1.0;"/><path d="M1224.4688,189.6406 Q1223.8906,189.9375 1223.25,190.0781 Q1222.6094,190.2344 1221.9063,190.2344 Q1219.4063,190.2344 1218.0781,188.5938 Q1216.7656,186.9375 1216.7656,183.8125 Q1216.7656,180.6875 1218.0781,179.0313 Q1219.4063,177.375 1221.9063,177.375 Q1222.6094,177.375 1223.25,177.5313 Q1223.9063,177.6875 1224.4688,177.9844 L1224.4688,180.7031 Q1223.8438,180.125 1223.25,179.8594 Q1222.6563,179.5781 1222.0313,179.5781 Q1220.6875,179.5781 1220,180.6563 Q1219.3125,181.7188 1219.3125,183.8125 Q1219.3125,185.9063 1220,186.9844 Q1220.6875,188.0469 1222.0313,188.0469 Q1222.6563,188.0469 1223.25,187.7813 Q1223.8438,187.5 1224.4688,186.9219 L1224.4688,189.6406 Z "/><text fill="#000000" font-family="sans-serif" font-size="12" lengthAdjust="spacingAndGlyphs" textLength="73" x="1235.5" y="188.1543">FixedLayout</text><!--MD5=[caebf2ddd0fe15aa1cd7c0f919e7d6a1]
class Layout--><rect fill="#FEFECE" filter="url(#f1fnkg8gzg2alp)" height="32" id="Layout" style="stroke: #A80036; stroke-width: 1.5;" width="75" x="1221.5" y="75"/><ellipse cx="1236.5" cy="91" fill="#B4A7E5" rx="11" ry="11" style="stroke: #A80036; stroke-width: 1.0;"/><path d="M1232.4219,86.7656 L1232.4219,84.6094 L1239.8125,84.6094 L1239.8125,86.7656 L1237.3438,86.7656 L1237.3438,94.8438 L1239.8125,94.8438 L1239.8125,97 L1232.4219,97 L1232.4219,94.8438 L1234.8906,94.8438 L1234.8906,86.7656 L1232.4219,86.7656 Z "/><text fill="#000000" font-family="sans-serif" font-size="12" font-style="italic" lengthAdjust="spacingAndGlyphs" textLength="43" x="1250.5" y="95.1543">Layout</text><!--MD5=[12f7f85e6a82a668bac37f73aa8a25f9]
class DynamicLayout--><rect fill="#FEFECE" filter="url(#f1fnkg8gzg2alp)" height="32" id="DynamicLayout" style="stroke: #A80036; stroke-width: 1.5;" width="125" x="1046.5" y="168"/><ellipse cx="1061.5" cy="184" fill="#ADD1B2" rx="11" ry="11" style="stroke: #A80036; stroke-width: 1.0;"/><path d="M1064.4688,189.6406 Q1063.8906,189.9375 1063.25,190.0781 Q1062.6094,190.2344 1061.9063,190.2344 Q1059.4063,190.2344 1058.0781,188.5938 Q1056.7656,186.9375 1056.7656,183.8125 Q1056.7656,180.6875 1058.0781,179.0313 Q1059.4063,177.375 1061.9063,177.375 Q1062.6094,177.375 1063.25,177.5313 Q1063.9063,177.6875 1064.4688,177.9844 L1064.4688,180.7031 Q1063.8438,180.125 1063.25,179.8594 Q1062.6563,179.5781 1062.0313,179.5781 Q1060.6875,179.5781 1060,180.6563 Q1059.3125,181.7188 1059.3125,183.8125 Q1059.3125,185.9063 1060,186.9844 Q1060.6875,188.0469 1062.0313,188.0469 Q1062.6563,188.0469 1063.25,187.7813 Q1063.8438,187.5 1064.4688,186.9219 L1064.4688,189.6406 Z "/><text fill="#000000" font-family="sans-serif" font-size="12" lengthAdjust="spacingAndGlyphs" textLength="93" x="1075.5" y="188.1543">DynamicLayout</text><!--MD5=[ceff05214af216b423c504875c83215d]
class LayoutsFactory--><rect fill="#FEFECE" filter="url(#f1fnkg8gzg2alp)" height="32" id="LayoutsFactory" style="stroke: #A80036; stroke-width: 1.5;" width="126" x="1046" y="277"/><ellipse cx="1061" cy="293" fill="#ADD1B2" rx="11" ry="11" style="stroke: #A80036; stroke-width: 1.0;"/><path d="M1063.9688,298.6406 Q1063.3906,298.9375 1062.75,299.0781 Q1062.1094,299.2344 1061.4063,299.2344 Q1058.9063,299.2344 1057.5781,297.5938 Q1056.2656,295.9375 1056.2656,292.8125 Q1056.2656,289.6875 1057.5781,288.0313 Q1058.9063,286.375 1061.4063,286.375 Q1062.1094,286.375 1062.75,286.5313 Q1063.4063,286.6875 1063.9688,286.9844 L1063.9688,289.7031 Q1063.3438,289.125 1062.75,288.8594 Q1062.1563,288.5781 1061.5313,288.5781 Q1060.1875,288.5781 1059.5,289.6563 Q1058.8125,290.7188 1058.8125,292.8125 Q1058.8125,294.9063 1059.5,295.9844 Q1060.1875,297.0469 1061.5313,297.0469 Q1062.1563,297.0469 1062.75,296.7813 Q1063.3438,296.5 1063.9688,295.9219 L1063.9688,298.6406 Z "/><text fill="#000000" font-family="sans-serif" font-size="12" lengthAdjust="spacingAndGlyphs" textLength="94" x="1075" y="297.1543">LayoutsFactory</text><!--MD5=[00675e18512933602d55f5e0e2b1ab32]
class AllSpikingNeurons--><rect fill="#FEFECE" filter="url(#f1fnkg8gzg2alp)" height="32" id="AllSpikingNeurons" style="stroke: #A80036; stroke-width: 1.5;" width="144" x="1595" y="168"/><ellipse cx="1610" cy="184" fill="#ADD1B2" rx="11" ry="11" style="stroke: #A80036; stroke-width: 1.0;"/><path d="M1612.9688,189.6406 Q1612.3906,189.9375 1611.75,190.0781 Q1611.1094,190.2344 1610.4063,190.2344 Q1607.9063,190.2344 1606.5781,188.5938 Q1605.2656,186.9375 1605.2656,183.8125 Q1605.2656,180.6875 1606.5781,179.0313 Q1607.9063,177.375 1610.4063,177.375 Q1611.1094,177.375 1611.75,177.5313 Q1612.4063,177.6875 1612.9688,177.9844 L1612.9688,180.7031 Q1612.3438,180.125 1611.75,179.8594 Q1611.1563,179.5781 1610.5313,179.5781 Q1609.1875,179.5781 1608.5,180.6563 Q1607.8125,181.7188 1607.8125,183.8125 Q1607.8125,185.9063 1608.5,186.9844 Q1609.1875,188.0469 1610.5313,188.0469 Q1611.1563,188.0469 1611.75,187.7813 Q1612.3438,187.5 1612.9688,186.9219 L1612.9688,189.6406 Z "/><text fill="#000000" font-family="sans-serif" font-size="12" lengthAdjust="spacingAndGlyphs" textLength="112" x="1624" y="188.1543">AllSpikingNeurons</text><!--MD5=[34dee175ca2f1207a5c8be9520f72c2f]
class AllVertices--><rect fill="#FEFECE" filter="url(#f1fnkg8gzg2alp)" height="32" id="AllVertices" style="stroke: #A80036; stroke-width: 1.5;" width="96" x="1612" y="75"/><ellipse cx="1627" cy="91" fill="#B4A7E5" rx="11" ry="11" style="stroke: #A80036; stroke-width: 1.0;"/><path d="M1622.9219,86.7656 L1622.9219,84.6094 L1630.3125,84.6094 L1630.3125,86.7656 L1627.8438,86.7656 L1627.8438,94.8438 L1630.3125,94.8438 L1630.3125,97 L1622.9219,97 L1622.9219,94.8438 L1625.3906,94.8438 L1625.3906,86.7656 L1622.9219,86.7656 Z "/><text fill="#000000" font-family="sans-serif" font-size="12" font-style="italic" lengthAdjust="spacingAndGlyphs" textLength="64" x="1641" y="95.1543">AllVertices</text><!--MD5=[cf80cca85261d84eda43dbc026d5d8d1]
class AllIFNeurons--><rect fill="#FEFECE" filter="url(#f1fnkg8gzg2alp)" height="32" id="AllIFNeurons" style="stroke: #A80036; stroke-width: 1.5;" width="109" x="1612.5" y="277"/><ellipse cx="1627.5" cy="293" fill="#ADD1B2" rx="11" ry="11" style="stroke: #A80036; stroke-width: 1.0;"/><path d="M1630.4688,298.6406 Q1629.8906,298.9375 1629.25,299.0781 Q1628.6094,299.2344 1627.9063,299.2344 Q1625.4063,299.2344 1624.0781,297.5938 Q1622.7656,295.9375 1622.7656,292.8125 Q1622.7656,289.6875 1624.0781,288.0313 Q1625.4063,286.375 1627.9063,286.375 Q1628.6094,286.375 1629.25,286.5313 Q1629.9063,286.6875 1630.4688,286.9844 L1630.4688,289.7031 Q1629.8438,289.125 1629.25,288.8594 Q1628.6563,288.5781 1628.0313,288.5781 Q1626.6875,288.5781 1626,289.6563 Q1625.3125,290.7188 1625.3125,292.8125 Q1625.3125,294.9063 1626,295.9844 Q1626.6875,297.0469 1628.0313,297.0469 Q1628.6563,297.0469 1629.25,296.7813 Q1629.8438,296.5 1630.4688,295.9219 L1630.4688,298.6406 Z "/><text fill="#000000" font-family="sans-serif" font-size="12" lengthAdjust="spacingAndGlyphs" textLength="77" x="1641.5" y="297.1543">AllIFNeurons</text><!--MD5=[260384eea3996f96db9f0f616389f648]
class AllLiFNeurons--><rect fill="#FEFECE" filter="url(#f1fnkg8gzg2alp)" height="32" id="AllLiFNeurons" style="stroke: #A80036; stroke-width: 1.5;" width="115" x="1595.5" y="388"/><ellipse cx="1610.5" cy="404" fill="#ADD1B2" rx="11" ry="11" style="stroke: #A80036; stroke-width: 1.0;"/><path d="M1613.4688,409.6406 Q1612.8906,409.9375 1612.25,410.0781 Q1611.6094,410.2344 1610.9063,410.2344 Q1608.4063,410.2344 1607.0781,408.5938 Q1605.7656,406.9375 1605.7656,403.8125 Q1605.7656,400.6875 1607.0781,399.0313 Q1608.4063,397.375 1610.9063,397.375 Q1611.6094,397.375 1612.25,397.5313 Q1612.9063,397.6875 1613.4688,397.9844 L1613.4688,400.7031 Q1612.8438,400.125 1612.25,399.8594 Q1611.6563,399.5781 1611.0313,399.5781 Q1609.6875,399.5781 1609,400.6563 Q1608.3125,401.7188 1608.3125,403.8125 Q1608.3125,405.9063 1609,406.9844 Q1609.6875,408.0469 1611.0313,408.0469 Q1611.6563,408.0469 1612.25,407.7813 Q1612.8438,407.5 1613.4688,406.9219 L1613.4688,409.6406 Z "/><text fill="#000000" font-family="sans-serif" font-size="12" lengthAdjust="spacingAndGlyphs" textLength="83" x="1624.5" y="408.1543">AllLiFNeurons</text><!--MD5=[71b076a97ded1832bf674b3762bc7b75]
class AllZHNeurons--><rect fill="#FEFECE" filter="url(#f1fnkg8gzg2alp)" height="32" id="AllZHNeurons" style="stroke: #A80036; stroke-width: 1.5;" width="117" x="1745.5" y="388"/><ellipse cx="1760.5" cy="404" fill="#ADD1B2" rx="11" ry="11" style="stroke: #A80036; stroke-width: 1.0;"/><path d="M1763.4688,409.6406 Q1762.8906,409.9375 1762.25,410.0781 Q1761.6094,410.2344 1760.9063,410.2344 Q1758.4063,410.2344 1757.0781,408.5938 Q1755.7656,406.9375 1755.7656,403.8125 Q1755.7656,400.6875 1757.0781,399.0313 Q1758.4063,397.375 1760.9063,397.375 Q1761.6094,397.375 1762.25,397.5313 Q1762.9063,397.6875 1763.4688,397.9844 L1763.4688,400.7031 Q1762.8438,400.125 1762.25,399.8594 Q1761.6563,399.5781 1761.0313,399.5781 Q1759.6875,399.5781 1759,400.6563 Q1758.3125,401.7188 1758.3125,403.8125 Q1758.3125,405.9063 1759,406.9844 Q1759.6875,408.0469 1761.0313,408.0469 Q1761.6563,408.0469 1762.25,407.7813 Q1762.8438,407.5 1763.4688,406.9219 L1763.4688,409.6406 Z "/><text fill="#000000" font-family="sans-serif" font-size="12" lengthAdjust="spacingAndGlyphs" textLength="85" x="1774.5" y="408.1543">AllZHNeurons</text><!--MD5=[cc1c410fe2850b6da0ea695abfcea755]
class VerticesFactory--><rect fill="#FEFECE" filter="url(#f1fnkg8gzg2alp)" height="32" id="VerticesFactory" style="stroke: #A80036; stroke-width: 1.5;" width="129" x="1595.5" y="536"/><ellipse cx="1610.5" cy="552" fill="#ADD1B2" rx="11" ry="11" style="stroke: #A80036; stroke-width: 1.0;"/><path d="M1613.4688,557.6406 Q1612.8906,557.9375 1612.25,558.0781 Q1611.6094,558.2344 1610.9063,558.2344 Q1608.4063,558.2344 1607.0781,556.5938 Q1605.7656,554.9375 1605.7656,551.8125 Q1605.7656,548.6875 1607.0781,547.0313 Q1608.4063,545.375 1610.9063,545.375 Q1611.6094,545.375 1612.25,545.5313 Q1612.9063,545.6875 1613.4688,545.9844 L1613.4688,548.7031 Q1612.8438,548.125 1612.25,547.8594 Q1611.6563,547.5781 1611.0313,547.5781 Q1609.6875,547.5781 1609,548.6563 Q1608.3125,549.7188 1608.3125,551.8125 Q1608.3125,553.9063 1609,554.9844 Q1609.6875,556.0469 1611.0313,556.0469 Q1611.6563,556.0469 1612.25,555.7813 Q1612.8438,555.5 1613.4688,554.9219 L1613.4688,557.6406 Z "/><text fill="#000000" font-family="sans-serif" font-size="12" lengthAdjust="spacingAndGlyphs" textLength="97" x="1624.5" y="556.1543">VerticesFactory</text><!--MD5=[9af66c322c1a3c2f0b44834865e098f3]
class XmLRecorder--><rect fill="#FEFECE" filter="url(#f1fnkg8gzg2alp)" height="32" id="XmLRecorder" style="stroke: #A80036; stroke-width: 1.5;" width="113" x="195.5" y="793"/><ellipse cx="210.5" cy="809" fill="#ADD1B2" rx="11" ry="11" style="stroke: #A80036; stroke-width: 1.0;"/><path d="M213.4688,814.6406 Q212.8906,814.9375 212.25,815.0781 Q211.6094,815.2344 210.9063,815.2344 Q208.4063,815.2344 207.0781,813.5938 Q205.7656,811.9375 205.7656,808.8125 Q205.7656,805.6875 207.0781,804.0313 Q208.4063,802.375 210.9063,802.375 Q211.6094,802.375 212.25,802.5313 Q212.9063,802.6875 213.4688,802.9844 L213.4688,805.7031 Q212.8438,805.125 212.25,804.8594 Q211.6563,804.5781 211.0313,804.5781 Q209.6875,804.5781 209,805.6563 Q208.3125,806.7188 208.3125,808.8125 Q208.3125,810.9063 209,811.9844 Q209.6875,813.0469 211.0313,813.0469 Q211.6563,813.0469 212.25,812.7813 Q212.8438,812.5 213.4688,811.9219 L213.4688,814.6406 Z "/><text fill="#000000" font-family="sans-serif" font-size="12" lengthAdjust="spacingAndGlyphs" textLength="81" x="224.5" y="813.1543">XmLRecorder</text><!--MD5=[a2efe13f97b9395dfb70e2255bd52698]
class IRecorder--><rect fill="#FEFECE" filter="url(#f1fnkg8gzg2alp)" height="32" id="IRecorder" style="stroke: #A80036; stroke-width: 1.5;" width="93" x="369.5" y="684"/><ellipse cx="384.5" cy="700" fill="#B4A7E5" rx="11" ry="11" style="stroke: #A80036; stroke-width: 1.0;"/><path d="M380.4219,695.7656 L380.4219,693.6094 L387.8125,693.6094 L387.8125,695.7656 L385.3438,695.7656 L385.3438,703.8438 L387.8125,703.8438 L387.8125,706 L380.4219,706 L380.4219,703.8438 L382.8906,703.8438 L382.8906,695.7656 L380.4219,695.7656 Z "/><text fill="#000000" font-family="sans-serif" font-size="12" font-style="italic" lengthAdjust="spacingAndGlyphs" textLength="61" x="398.5" y="704.1543">IRecorder</text><!--MD5=[68c26e8dbee30e67a392826e30173ce1]
class HDF5Recorder--><rect fill="#FEFECE" filter="url(#f1fnkg8gzg2alp)" height="32" id="HDF5Recorder" style="stroke: #A80036; stroke-width: 1.5;" width="122" x="355" y="793"/><ellipse cx="370" cy="809" fill="#ADD1B2" rx="11" ry="11" style="stroke: #A80036; stroke-width: 1.0;"/><path d="M372.9688,814.6406 Q372.3906,814.9375 371.75,815.0781 Q371.1094,815.2344 370.4063,815.2344 Q367.9063,815.2344 366.5781,813.5938 Q365.2656,811.9375 365.2656,808.8125 Q365.2656,805.6875 366.5781,804.0313 Q367.9063,802.375 370.4063,802.375 Q371.1094,802.375 371.75,802.5313 Q372.4063,802.6875 372.9688,802.9844 L372.9688,805.7031 Q372.3438,805.125 371.75,804.8594 Q371.1563,804.5781 370.5313,804.5781 Q369.1875,804.5781 368.5,805.6563 Q367.8125,806.7188 367.8125,808.8125 Q367.8125,810.9063 368.5,811.9844 Q369.1875,813.0469 370.5313,813.0469 Q371.1563,813.0469 371.75,812.7813 Q372.3438,812.5 372.9688,811.9219 L372.9688,814.6406 Z "/><text fill="#000000" font-family="sans-serif" font-size="12" lengthAdjust="spacingAndGlyphs" textLength="90" x="384" y="813.1543">HDF5Recorder</text><!--MD5=[c3e0b6f9949d2074781ec6fef8f97457]
class XmlGrowthRecroder--><rect fill="#FEFECE" filter="url(#f1fnkg8gzg2alp)" height="32" id="XmlGrowthRecroder" style="stroke: #A80036; stroke-width: 1.5;" width="154" x="62" y="904"/><ellipse cx="77" cy="920" fill="#ADD1B2" rx="11" ry="11" style="stroke: #A80036; stroke-width: 1.0;"/><path d="M79.9688,925.6406 Q79.3906,925.9375 78.75,926.0781 Q78.1094,926.2344 77.4063,926.2344 Q74.9063,926.2344 73.5781,924.5938 Q72.2656,922.9375 72.2656,919.8125 Q72.2656,916.6875 73.5781,915.0313 Q74.9063,913.375 77.4063,913.375 Q78.1094,913.375 78.75,913.5313 Q79.4063,913.6875 79.9688,913.9844 L79.9688,916.7031 Q79.3438,916.125 78.75,915.8594 Q78.1563,915.5781 77.5313,915.5781 Q76.1875,915.5781 75.5,916.6563 Q74.8125,917.7188 74.8125,919.8125 Q74.8125,921.9063 75.5,922.9844 Q76.1875,924.0469 77.5313,924.0469 Q78.1563,924.0469 78.75,923.7813 Q79.3438,923.5 79.9688,922.9219 L79.9688,925.6406 Z "/><text fill="#000000" font-family="sans-serif" font-size="12" lengthAdjust="spacingAndGlyphs" textLength="122" x="91" y="924.1543">XmlGrowthRecroder</text><!--MD5=[af68557a962a5f1f7548a7e590f8fd62]
class Hdf5GrowthRecorder--><rect fill="#FEFECE" filter="url(#f1fnkg8gzg2alp)" height="32" id="Hdf5GrowthRecorder" style="stroke: #A80036; stroke-width: 1.5;" width="162" x="288" y="904"/><ellipse cx="303" cy="920" fill="#ADD1B2" rx="11" ry="11" style="stroke: #A80036; stroke-width: 1.0;"/><path d="M305.9688,925.6406 Q305.3906,925.9375 304.75,926.0781 Q304.1094,926.2344 303.4063,926.2344 Q300.9063,926.2344 299.5781,924.5938 Q298.2656,922.9375 298.2656,919.8125 Q298.2656,916.6875 299.5781,915.0313 Q300.9063,913.375 303.4063,913.375 Q304.1094,913.375 304.75,913.5313 Q305.4063,913.6875 305.9688,913.9844 L305.9688,916.7031 Q305.3438,916.125 304.75,915.8594 Q304.1563,915.5781 303.5313,915.5781 Q302.1875,915.5781 301.5,916.6563 Q300.8125,917.7188 300.8125,919.8125 Q300.8125,921.9063 301.5,922.9844 Q302.1875,924.0469 303.5313,924.0469 Q304.1563,924.0469 304.75,923.7813 Q305.3438,923.5 305.9688,922.9219 L305.9688,925.6406 Z "/><text fill="#000000" font-family="sans-serif" font-size="12" lengthAdjust="spacingAndGlyphs" textLength="130" x="317" y="924.1543">Hdf5GrowthRecorder</text><!--MD5=[5309de41de0463c67105d9e754563b77]
class RecordersFactory--><rect fill="#FEFECE" filter="url(#f1fnkg8gzg2alp)" height="32" id="RecordersFactory" style="stroke: #A80036; stroke-width: 1.5;" width="142" x="252" y="1122"/><ellipse cx="267" cy="1138" fill="#ADD1B2" rx="11" ry="11" style="stroke: #A80036; stroke-width: 1.0;"/><path d="M269.9688,1143.6406 Q269.3906,1143.9375 268.75,1144.0781 Q268.1094,1144.2344 267.4063,1144.2344 Q264.9063,1144.2344 263.5781,1142.5938 Q262.2656,1140.9375 262.2656,1137.8125 Q262.2656,1134.6875 263.5781,1133.0313 Q264.9063,1131.375 267.4063,1131.375 Q268.1094,1131.375 268.75,1131.5313 Q269.4063,1131.6875 269.9688,1131.9844 L269.9688,1134.7031 Q269.3438,1134.125 268.75,1133.8594 Q268.1563,1133.5781 267.5313,1133.5781 Q266.1875,1133.5781 265.5,1134.6563 Q264.8125,1135.7188 264.8125,1137.8125 Q264.8125,1139.9063 265.5,1140.9844 Q266.1875,1142.0469 267.5313,1142.0469 Q268.1563,1142.0469 268.75,1141.7813 Q269.3438,1141.5 269.9688,1140.9219 L269.9688,1143.6406 Z "/><text fill="#000000" font-family="sans-serif" font-size="12" lengthAdjust="spacingAndGlyphs" textLength="110" x="281" y="1142.1543">RecordersFactory</text><!--MD5=[b671e9144a70d5380b4364952f259167]
class ConnStatic--><rect fill="#FEFECE" filter="url(#f1fnkg8gzg2alp)" height="32" id="ConnStatic" style="stroke: #A80036; stroke-width: 1.5;" width="100" x="664" y="684"/><ellipse cx="679" cy="700" fill="#ADD1B2" rx="11" ry="11" style="stroke: #A80036; stroke-width: 1.0;"/><path d="M681.9688,705.6406 Q681.3906,705.9375 680.75,706.0781 Q680.1094,706.2344 679.4063,706.2344 Q676.9063,706.2344 675.5781,704.5938 Q674.2656,702.9375 674.2656,699.8125 Q674.2656,696.6875 675.5781,695.0313 Q676.9063,693.375 679.4063,693.375 Q680.1094,693.375 680.75,693.5313 Q681.4063,693.6875 681.9688,693.9844 L681.9688,696.7031 Q681.3438,696.125 680.75,695.8594 Q680.1563,695.5781 679.5313,695.5781 Q678.1875,695.5781 677.5,696.6563 Q676.8125,697.7188 676.8125,699.8125 Q676.8125,701.9063 677.5,702.9844 Q678.1875,704.0469 679.5313,704.0469 Q680.1563,704.0469 680.75,703.7813 Q681.3438,703.5 681.9688,702.9219 L681.9688,705.6406 Z "/><text fill="#000000" font-family="sans-serif" font-size="12" lengthAdjust="spacingAndGlyphs" textLength="68" x="693" y="704.1543">ConnStatic</text><!--MD5=[24bb951fb6b9ac52df1580923e830244]
class Connections--><rect fill="#FEFECE" filter="url(#f1fnkg8gzg2alp)" height="32" id="Connections" style="stroke: #A80036; stroke-width: 1.5;" width="109" x="664.5" y="536"/><ellipse cx="679.5" cy="552" fill="#B4A7E5" rx="11" ry="11" style="stroke: #A80036; stroke-width: 1.0;"/><path d="M675.4219,547.7656 L675.4219,545.6094 L682.8125,545.6094 L682.8125,547.7656 L680.3438,547.7656 L680.3438,555.8438 L682.8125,555.8438 L682.8125,558 L675.4219,558 L675.4219,555.8438 L677.8906,555.8438 L677.8906,547.7656 L675.4219,547.7656 Z "/><text fill="#000000" font-family="sans-serif" font-size="12" font-style="italic" lengthAdjust="spacingAndGlyphs" textLength="77" x="693.5" y="556.1543">Connections</text><!--MD5=[540eab1ed52846d003b47757435df453]
class ConnGrowth--><rect fill="#FEFECE" filter="url(#f1fnkg8gzg2alp)" height="32" id="ConnGrowth" style="stroke: #A80036; stroke-width: 1.5;" width="108" x="799" y="684"/><ellipse cx="814" cy="700" fill="#ADD1B2" rx="11" ry="11" style="stroke: #A80036; stroke-width: 1.0;"/><path d="M816.9688,705.6406 Q816.3906,705.9375 815.75,706.0781 Q815.1094,706.2344 814.4063,706.2344 Q811.9063,706.2344 810.5781,704.5938 Q809.2656,702.9375 809.2656,699.8125 Q809.2656,696.6875 810.5781,695.0313 Q811.9063,693.375 814.4063,693.375 Q815.1094,693.375 815.75,693.5313 Q816.4063,693.6875 816.9688,693.9844 L816.9688,696.7031 Q816.3438,696.125 815.75,695.8594 Q815.1563,695.5781 814.5313,695.5781 Q813.1875,695.5781 812.5,696.6563 Q811.8125,697.7188 811.8125,699.8125 Q811.8125,701.9063 812.5,702.9844 Q813.1875,704.0469 814.5313,704.0469 Q815.1563,704.0469 815.75,703.7813 Q816.3438,703.5 816.9688,702.9219 L816.9688,705.6406 Z "/><text fill="#000000" font-family="sans-serif" font-size="12" lengthAdjust="spacingAndGlyphs" textLength="76" x="828" y="704.1543">ConnGrowth</text><!--MD5=[07560c205a8067cf69726ad645fec973]
class ConnectionsFactory--><rect fill="#FEFECE" filter="url(#f1fnkg8gzg2alp)" height="32" id="ConnectionsFactory" style="stroke: #A80036; stroke-width: 1.5;" width="156" x="751" y="793"/><ellipse cx="766" cy="809" fill="#ADD1B2" rx="11" ry="11" style="stroke: #A80036; stroke-width: 1.0;"/><path d="M768.9688,814.6406 Q768.3906,814.9375 767.75,815.0781 Q767.1094,815.2344 766.4063,815.2344 Q763.9063,815.2344 762.5781,813.5938 Q761.2656,811.9375 761.2656,808.8125 Q761.2656,805.6875 762.5781,804.0313 Q763.9063,802.375 766.4063,802.375 Q767.1094,802.375 767.75,802.5313 Q768.4063,802.6875 768.9688,802.9844 L768.9688,805.7031 Q768.3438,805.125 767.75,804.8594 Q767.1563,804.5781 766.5313,804.5781 Q765.1875,804.5781 764.5,805.6563 Q763.8125,806.7188 763.8125,808.8125 Q763.8125,810.9063 764.5,811.9844 Q765.1875,813.0469 766.5313,813.0469 Q767.1563,813.0469 767.75,812.7813 Q768.3438,812.5 768.9688,811.9219 L768.9688,814.6406 Z "/><text fill="#000000" font-family="sans-serif" font-size="12" lengthAdjust="spacingAndGlyphs" textLength="124" x="780" y="813.1543">ConnectionsFactory</text><!--MD5=[cfe37ad1a50a7dcaaf80645f5fb9fa69]
class AllSpikingSynapses--><rect fill="#FEFECE" filter="url(#f1fnkg8gzg2alp)" height="32" id="AllSpikingSynapses" style="stroke: #A80036; stroke-width: 1.5;" width="151" x="1026.5" y="793"/><ellipse cx="1041.5" cy="809" fill="#ADD1B2" rx="11" ry="11" style="stroke: #A80036; stroke-width: 1.0;"/><path d="M1044.4688,814.6406 Q1043.8906,814.9375 1043.25,815.0781 Q1042.6094,815.2344 1041.9063,815.2344 Q1039.4063,815.2344 1038.0781,813.5938 Q1036.7656,811.9375 1036.7656,808.8125 Q1036.7656,805.6875 1038.0781,804.0313 Q1039.4063,802.375 1041.9063,802.375 Q1042.6094,802.375 1043.25,802.5313 Q1043.9063,802.6875 1044.4688,802.9844 L1044.4688,805.7031 Q1043.8438,805.125 1043.25,804.8594 Q1042.6563,804.5781 1042.0313,804.5781 Q1040.6875,804.5781 1040,805.6563 Q1039.3125,806.7188 1039.3125,808.8125 Q1039.3125,810.9063 1040,811.9844 Q1040.6875,813.0469 1042.0313,813.0469 Q1042.6563,813.0469 1043.25,812.7813 Q1043.8438,812.5 1044.4688,811.9219 L1044.4688,814.6406 Z "/><text fill="#000000" font-family="sans-serif" font-size="12" lengthAdjust="spacingAndGlyphs" textLength="119" x="1055.5" y="813.1543">AllSpikingSynapses</text><!--MD5=[06f12ec46b87224fd0e1c514fed4a6e4]
class AllEdges--><rect fill="#FEFECE" filter="url(#f1fnkg8gzg2alp)" height="32" id="AllEdges" style="stroke: #A80036; stroke-width: 1.5;" width="84" x="1043" y="684"/><ellipse cx="1058" cy="700" fill="#B4A7E5" rx="11" ry="11" style="stroke: #A80036; stroke-width: 1.0;"/><path d="M1053.9219,695.7656 L1053.9219,693.6094 L1061.3125,693.6094 L1061.3125,695.7656 L1058.8438,695.7656 L1058.8438,703.8438 L1061.3125,703.8438 L1061.3125,706 L1053.9219,706 L1053.9219,703.8438 L1056.3906,703.8438 L1056.3906,695.7656 L1053.9219,695.7656 Z "/><text fill="#000000" font-family="sans-serif" font-size="12" font-style="italic" lengthAdjust="spacingAndGlyphs" textLength="52" x="1072" y="704.1543">AllEdges</text><!--MD5=[635988d62f36dba7a8b9baa086d12f03]
class AllSTDPSynapses--><rect fill="#FEFECE" filter="url(#f1fnkg8gzg2alp)" height="32" id="AllSTDPSynapses" style="stroke: #A80036; stroke-width: 1.5;" width="138" x="1185" y="904"/><ellipse cx="1200" cy="920" fill="#ADD1B2" rx="11" ry="11" style="stroke: #A80036; stroke-width: 1.0;"/><path d="M1202.9688,925.6406 Q1202.3906,925.9375 1201.75,926.0781 Q1201.1094,926.2344 1200.4063,926.2344 Q1197.9063,926.2344 1196.5781,924.5938 Q1195.2656,922.9375 1195.2656,919.8125 Q1195.2656,916.6875 1196.5781,915.0313 Q1197.9063,913.375 1200.4063,913.375 Q1201.1094,913.375 1201.75,913.5313 Q1202.4063,913.6875 1202.9688,913.9844 L1202.9688,916.7031 Q1202.3438,916.125 1201.75,915.8594 Q1201.1563,915.5781 1200.5313,915.5781 Q1199.1875,915.5781 1198.5,916.6563 Q1197.8125,917.7188 1197.8125,919.8125 Q1197.8125,921.9063 1198.5,922.9844 Q1199.1875,924.0469 1200.5313,924.0469 Q1201.1563,924.0469 1201.75,923.7813 Q1202.3438,923.5 1202.9688,922.9219 L1202.9688,925.6406 Z "/><text fill="#000000" font-family="sans-serif" font-size="12" lengthAdjust="spacingAndGlyphs" textLength="106" x="1214" y="924.1543">AllSTDPSynapses</text><!--MD5=[935a686a552498c9fe3db149d943753f]
class AllDSSynapses--><rect fill="#FEFECE" filter="url(#f1fnkg8gzg2alp)" height="32" id="AllDSSynapses" style="stroke: #A80036; stroke-width: 1.5;" width="123" x="1026.5" y="904"/><ellipse cx="1041.5" cy="920" fill="#ADD1B2" rx="11" ry="11" style="stroke: #A80036; stroke-width: 1.0;"/><path d="M1044.4688,925.6406 Q1043.8906,925.9375 1043.25,926.0781 Q1042.6094,926.2344 1041.9063,926.2344 Q1039.4063,926.2344 1038.0781,924.5938 Q1036.7656,922.9375 1036.7656,919.8125 Q1036.7656,916.6875 1038.0781,915.0313 Q1039.4063,913.375 1041.9063,913.375 Q1042.6094,913.375 1043.25,913.5313 Q1043.9063,913.6875 1044.4688,913.9844 L1044.4688,916.7031 Q1043.8438,916.125 1043.25,915.8594 Q1042.6563,915.5781 1042.0313,915.5781 Q1040.6875,915.5781 1040,916.6563 Q1039.3125,917.7188 1039.3125,919.8125 Q1039.3125,921.9063 1040,922.9844 Q1040.6875,924.0469 1042.0313,924.0469 Q1042.6563,924.0469 1043.25,923.7813 Q1043.8438,923.5 1044.4688,922.9219 L1044.4688,925.6406 Z "/><text fill="#000000" font-family="sans-serif" font-size="12" lengthAdjust="spacingAndGlyphs" textLength="91" x="1055.5" y="924.1543">AllDSSynapses</text><!--MD5=[fd6ea4ca2934104fc4a12eb686a910c8]
class AllDynamicsSTDPSynapses--><rect fill="#FEFECE" filter="url(#f1fnkg8gzg2alp)" height="32" id="AllDynamicsSTDPSynapses" style="stroke: #A80036; stroke-width: 1.5;" width="197" x="1320.5" y="1013"/><ellipse cx="1335.5" cy="1029" fill="#ADD1B2" rx="11" ry="11" style="stroke: #A80036; stroke-width: 1.0;"/><path d="M1338.4688,1034.6406 Q1337.8906,1034.9375 1337.25,1035.0781 Q1336.6094,1035.2344 1335.9063,1035.2344 Q1333.4063,1035.2344 1332.0781,1033.5938 Q1330.7656,1031.9375 1330.7656,1028.8125 Q1330.7656,1025.6875 1332.0781,1024.0313 Q1333.4063,1022.375 1335.9063,1022.375 Q1336.6094,1022.375 1337.25,1022.5313 Q1337.9063,1022.6875 1338.4688,1022.9844 L1338.4688,1025.7031 Q1337.8438,1025.125 1337.25,1024.8594 Q1336.6563,1024.5781 1336.0313,1024.5781 Q1334.6875,1024.5781 1334,1025.6563 Q1333.3125,1026.7188 1333.3125,1028.8125 Q1333.3125,1030.9063 1334,1031.9844 Q1334.6875,1033.0469 1336.0313,1033.0469 Q1336.6563,1033.0469 1337.25,1032.7813 Q1337.8438,1032.5 1338.4688,1031.9219 L1338.4688,1034.6406 Z "/><text fill="#000000" font-family="sans-serif" font-size="12" lengthAdjust="spacingAndGlyphs" textLength="165" x="1349.5" y="1033.1543">AllDynamicsSTDPSynapses</text><!--MD5=[2137c854024e09e8076c84fb007b1c3c]
class EdgesFactory--><rect fill="#FEFECE" filter="url(#f1fnkg8gzg2alp)" height="32" id="EdgesFactory" style="stroke: #A80036; stroke-width: 1.5;" width="117" x="1088.5" y="1122"/><ellipse cx="1103.5" cy="1138" fill="#ADD1B2" rx="11" ry="11" style="stroke: #A80036; stroke-width: 1.0;"/><path d="M1106.4688,1143.6406 Q1105.8906,1143.9375 1105.25,1144.0781 Q1104.6094,1144.2344 1103.9063,1144.2344 Q1101.4063,1144.2344 1100.0781,1142.5938 Q1098.7656,1140.9375 1098.7656,1137.8125 Q1098.7656,1134.6875 1100.0781,1133.0313 Q1101.4063,1131.375 1103.9063,1131.375 Q1104.6094,1131.375 1105.25,1131.5313 Q1105.9063,1131.6875 1106.4688,1131.9844 L1106.4688,1134.7031 Q1105.8438,1134.125 1105.25,1133.8594 Q1104.6563,1133.5781 1104.0313,1133.5781 Q1102.6875,1133.5781 1102,1134.6563 Q1101.3125,1135.7188 1101.3125,1137.8125 Q1101.3125,1139.9063 1102,1140.9844 Q1102.6875,1142.0469 1104.0313,1142.0469 Q1104.6563,1142.0469 1105.25,1141.7813 Q1105.8438,1141.5 1106.4688,1140.9219 L1106.4688,1143.6406 Z "/><text fill="#000000" font-family="sans-serif" font-size="12" lengthAdjust="spacingAndGlyphs" textLength="85" x="1117.5" y="1142.1543">EdgesFactory</text><!--MD5=[973c6b7f5e030bba668bdd48ca021633]
reverse link Model to CPUSpikingModel--><path d="M465.5,127.2 C465.5,127.2 465.5,167.99 465.5,167.99 " fill="none" id="Model&lt;-CPUSpikingModel" style="stroke: #A80036; stroke-width: 1.0; stroke-dasharray: 7.0,7.0;"/><polygon fill="none" points="458.5,127.2,465.5,107.2,472.5,127.2,458.5,127.2" style="stroke: #A80036; stroke-width: 1.0;"/><!--MD5=[9b59bd471ffb8f31c7aa79faa06b052a]
reverse link Model to GPUSpikingModel--><path d="M414.14,91 C414.14,91 252,91 252,91 C252,91 252,141.16 252,167.8 " fill="none" id="Model&lt;-GPUSpikingModel" style="stroke: #A80036; stroke-width: 1.0; stroke-dasharray: 7.0,7.0;"/><polygon fill="none" points="414.14,84,434.14,91,414.14,98,414.14,84" style="stroke: #A80036; stroke-width: 1.0;"/><!--MD5=[4261885617cbc7ccae7bbabfb2558444]
link Model to Simulator--><path d="M503.5,91 C503.5,91 525.45,91 525.45,91 " fill="none" id="Model-&gt;Simulator" style="stroke: #A80036; stroke-width: 1.0;"/><polygon fill="#FFFFFF" points="538.45,91,532.45,87,526.45,91,532.45,95,538.45,91" style="stroke: #A80036; stroke-width: 1.0;"/><!--MD5=[b4641bc02d5d8efe33d6033ed44bd980]
reverse link OperationManager to Operations--><path d="M479.15,293 C479.15,293 457.58,293 457.58,293 " fill="none" id="OperationManager&lt;-Operations" style="stroke: #A80036; stroke-width: 1.0;"/><polygon fill="#FFFFFF" points="492.15,293,486.15,289,480.15,293,486.15,297,492.15,293" style="stroke: #A80036; stroke-width: 1.0;"/><!--MD5=[e98819c6fcc605915f2efaee3c857d02]
link Simulator to OperationManager--><path d="M584,107.19 C584,107.19 584,271.73 584,271.73 " fill="none" id="Simulator-&gt;OperationManager" style="stroke: #A80036; stroke-width: 1.0;"/><polygon fill="#A80036" points="584,276.73,588,267.73,584,271.73,580,267.73,584,276.73" style="stroke: #A80036; stroke-width: 1.0;"/><text fill="#000000" font-family="sans-serif" font-size="13" lengthAdjust="spacingAndGlyphs" textLength="72" x="568" y="188.5669">commands</text><!--MD5=[b35dc4a9eded40af5f77166015eedcf0]
link CPUSpikingModel to GPUSpikingModel--><!--MD5=[1cea4de5324fc0a8457098da950d03ec]
link CPUSpikingModel to Operations--><!--MD5=[9593627a9002a106d0f96da7ffbf61a2]
link OperationManager to ParameterManager--><!--MD5=[891067ebdc7a855417ab5d2553f427ef]
reverse link Layout to FixedLayout--><path d="M1271.5,127.2 C1271.5,127.2 1271.5,167.99 1271.5,167.99 " fill="none" id="Layout&lt;-FixedLayout" style="stroke: #A80036; stroke-width: 1.0; stroke-dasharray: 7.0,7.0;"/><polygon fill="none" points="1264.5,127.2,1271.5,107.2,1278.5,127.2,1264.5,127.2" style="stroke: #A80036; stroke-width: 1.0;"/><!--MD5=[7269b632a17f4028eba21f1bd63939ed]
reverse link Layout to DynamicLayout--><path d="M1201.15,104 C1201.15,104 1109,104 1109,104 C1109,104 1109,144.43 1109,167.81 " fill="none" id="Layout&lt;-DynamicLayout" style="stroke: #A80036; stroke-width: 1.0; stroke-dasharray: 7.0,7.0;"/><polygon fill="none" points="1201.15,97,1221.15,104,1201.15,111,1201.15,97" style="stroke: #A80036; stroke-width: 1.0;"/><!--MD5=[46eb6d5f62098a9931e8efdb8e99157c]
reverse link FixedLayout to LayoutsFactory--><path d="M1259,205.08 C1259,205.08 1259,293 1259,293 C1259,293 1213.17,293 1172.18,293 " fill="none" id="FixedLayout&lt;-LayoutsFactory" style="stroke: #A80036; stroke-width: 1.0;"/><polygon fill="#A80036" points="1259,200.08,1255,209.08,1259,205.08,1263,209.08,1259,200.08" style="stroke: #A80036; stroke-width: 1.0;"/><text fill="#000000" font-family="sans-serif" font-size="13" lengthAdjust="spacingAndGlyphs" textLength="75" x="1231" y="243.0669">instantiates</text><!--MD5=[c9003fa7673fea298ac6dea79519d34f]
reverse link DynamicLayout to LayoutsFactory--><path d="M1109,205.08 C1109,205.08 1109,276.85 1109,276.85 " fill="none" id="DynamicLayout&lt;-LayoutsFactory" style="stroke: #A80036; stroke-width: 1.0;"/><polygon fill="#A80036" points="1109,200.08,1105,209.08,1109,205.08,1113,209.08,1109,200.08" style="stroke: #A80036; stroke-width: 1.0;"/><text fill="#000000" font-family="sans-serif" font-size="13" lengthAdjust="spacingAndGlyphs" textLength="75" x="1110" y="243.0669">instantiates</text><!--MD5=[f591e114573ccd2409f159b73ea72911]
reverse link AllVertices to AllSpikingNeurons--><path d="M1660,127.2 C1660,127.2 1660,167.99 1660,167.99 " fill="none" id="AllVertices&lt;-AllSpikingNeurons" style="stroke: #A80036; stroke-width: 1.0; stroke-dasharray: 7.0,7.0;"/><polygon fill="none" points="1653,127.2,1660,107.2,1667,127.2,1653,127.2" style="stroke: #A80036; stroke-width: 1.0;"/><!--MD5=[8724fdcf162cd93143062af7a28861a5]
reverse link AllSpikingNeurons to AllIFNeurons--><path d="M1667,220.08 C1667,220.08 1667,276.85 1667,276.85 " fill="none" id="AllSpikingNeurons&lt;-AllIFNeurons" style="stroke: #A80036; stroke-width: 1.0;"/><polygon fill="none" points="1660,220.08,1667,200.08,1674,220.08,1660,220.08" style="stroke: #A80036; stroke-width: 1.0;"/><!--MD5=[f5565d651accd6e6b1dad5fbc033ae63]
reverse link AllIFNeurons to AllLiFNeurons--><path d="M1661.5,329.38 C1661.5,329.38 1661.5,387.92 1661.5,387.92 " fill="none" id="AllIFNeurons&lt;-AllLiFNeurons" style="stroke: #A80036; stroke-width: 1.0;"/><polygon fill="none" points="1654.5,329.38,1661.5,309.38,1668.5,329.38,1654.5,329.38" style="stroke: #A80036; stroke-width: 1.0;"/><!--MD5=[62c6867a57863758a62158db896d0fc0]
reverse link AllIFNeurons to AllZHNeurons--><path d="M1717.83,329.1 C1717.83,329.1 1717.83,399 1717.83,399 C1717.83,399 1729.95,399 1745.1,399 " fill="none" id="AllIFNeurons&lt;-AllZHNeurons" style="stroke: #A80036; stroke-width: 1.0;"/><polygon fill="none" points="1710.83,329.1,1717.83,309.1,1724.83,329.1,1710.83,329.1" style="stroke: #A80036; stroke-width: 1.0;"/><!--MD5=[816076678d7e4925980428acffa4a6e0]
reverse link AllLiFNeurons to VerticesFactory--><path d="M1653,425.12 C1653,425.12 1653,535.9 1653,535.9 " fill="none" id="AllLiFNeurons&lt;-VerticesFactory" style="stroke: #A80036; stroke-width: 1.0;"/><polygon fill="#A80036" points="1653,420.12,1649,429.12,1653,425.12,1657,429.12,1653,420.12" style="stroke: #A80036; stroke-width: 1.0;"/><text fill="#000000" font-family="sans-serif" font-size="13" lengthAdjust="spacingAndGlyphs" textLength="75" x="1657" y="481.0669">instantiates</text><!--MD5=[3db3a0c82a3825d3c0c26b2962603658]
reverse link AllZHNeurons to VerticesFactory--><path d="M1740.33,410 C1740.33,410 1714.17,410 1714.17,410 C1714.17,410 1714.17,498.85 1714.17,535.99 " fill="none" id="AllZHNeurons&lt;-VerticesFactory" style="stroke: #A80036; stroke-width: 1.0;"/><polygon fill="#A80036" points="1745.33,410,1736.33,406,1740.33,410,1736.33,414,1745.33,410" style="stroke: #A80036; stroke-width: 1.0;"/><text fill="#000000" font-family="sans-serif" font-size="13" lengthAdjust="spacingAndGlyphs" textLength="75" x="1782" y="481.0669">instantiates</text><!--MD5=[a32c8dc18938f820152f805b5dcbc3e8]
reverse link IRecorder to XmLRecorder--><path d="M349.44,709 C349.44,709 252,709 252,709 C252,709 252,764.67 252,792.93 " fill="none" id="IRecorder&lt;-XmLRecorder" style="stroke: #A80036; stroke-width: 1.0; stroke-dasharray: 7.0,7.0;"/><polygon fill="none" points="349.44,702,369.44,709,349.44,716,349.44,702" style="stroke: #A80036; stroke-width: 1.0;"/><!--MD5=[a0b975066a710a7895b5153868e55a27]
reverse link IRecorder to HDF5Recorder--><path d="M416,736.08 C416,736.08 416,792.85 416,792.85 " fill="none" id="IRecorder&lt;-HDF5Recorder" style="stroke: #A80036; stroke-width: 1.0; stroke-dasharray: 7.0,7.0;"/><polygon fill="none" points="409,736.08,416,716.08,423,736.08,409,736.08" style="stroke: #A80036; stroke-width: 1.0;"/><!--MD5=[93e5a6ee61d1f05a63d1d290b5da68e0]
reverse link XmLRecorder to XmlGrowthRecroder--><path d="M205.75,845.38 C205.75,845.38 205.75,903.92 205.75,903.92 " fill="none" id="XmLRecorder&lt;-XmlGrowthRecroder" style="stroke: #A80036; stroke-width: 1.0;"/><polygon fill="none" points="198.75,845.38,205.75,825.38,212.75,845.38,198.75,845.38" style="stroke: #A80036; stroke-width: 1.0;"/><!--MD5=[9a9f80ee8e039ba0cdc0509d1d0ec35e]
reverse link HDF5Recorder to Hdf5GrowthRecorder--><path d="M402.5,845.38 C402.5,845.38 402.5,903.92 402.5,903.92 " fill="none" id="HDF5Recorder&lt;-Hdf5GrowthRecorder" style="stroke: #A80036; stroke-width: 1.0;"/><polygon fill="none" points="395.5,845.38,402.5,825.38,409.5,845.38,395.5,845.38" style="stroke: #A80036; stroke-width: 1.0;"/><!--MD5=[3af4f1eecf578f95c361f55f01de5f0e]
reverse link XmLRecorder to RecordersFactory--><path d="M276,830.32 C276,830.32 276,1121.97 276,1121.97 " fill="none" id="XmLRecorder&lt;-RecordersFactory" style="stroke: #A80036; stroke-width: 1.0;"/><polygon fill="#A80036" points="276,825.32,272,834.32,276,830.32,280,834.32,276,825.32" style="stroke: #A80036; stroke-width: 1.0;"/><text fill="#000000" font-family="sans-serif" font-size="13" lengthAdjust="spacingAndGlyphs" textLength="75" x="253" y="979.0669">instantiates</text><!--MD5=[427f0813d0781cf9b4a277c1904c7c53]
reverse link HDF5Recorder to RecordersFactory--><path d="M463.5,830.07 C463.5,830.07 463.5,1133 463.5,1133 C463.5,1133 428.92,1133 394.07,1133 " fill="none" id="HDF5Recorder&lt;-RecordersFactory" style="stroke: #A80036; stroke-width: 1.0;"/><polygon fill="#A80036" points="463.5,825.07,459.5,834.07,463.5,830.07,467.5,834.07,463.5,825.07" style="stroke: #A80036; stroke-width: 1.0;"/><text fill="#000000" font-family="sans-serif" font-size="13" lengthAdjust="spacingAndGlyphs" textLength="75" x="411" y="979.0669">instantiates</text><!--MD5=[ef7aead4e4de6a506f4bd6283eeb5cc2]
reverse link XmlGrowthRecroder to RecordersFactory--><path d="M221.03,920 C221.03,920 264,920 264,920 C264,920 264,1071.63 264,1121.97 " fill="none" id="XmlGrowthRecroder&lt;-RecordersFactory" style="stroke: #A80036; stroke-width: 1.0;"/><polygon fill="#A80036" points="216.03,920,225.03,924,221.03,920,225.03,916,216.03,920" style="stroke: #A80036; stroke-width: 1.0;"/><text fill="#000000" font-family="sans-serif" font-size="13" lengthAdjust="spacingAndGlyphs" textLength="75" x="140" y="1033.5669">instantiates</text><!--MD5=[4190e7fed19e1823e30f66c46aadd182]
reverse link Hdf5GrowthRecorder to RecordersFactory--><path d="M341,941.03 C341,941.03 341,1121.95 341,1121.95 " fill="none" id="Hdf5GrowthRecorder&lt;-RecordersFactory" style="stroke: #A80036; stroke-width: 1.0;"/><polygon fill="#A80036" points="341,936.03,337,945.03,341,941.03,345,945.03,341,936.03" style="stroke: #A80036; stroke-width: 1.0;"/><text fill="#000000" font-family="sans-serif" font-size="13" lengthAdjust="spacingAndGlyphs" textLength="75" x="324" y="1033.5669">instantiates</text><!--MD5=[513ec0388948448dab3ce17eb36460f7]
reverse link Connections to ConnStatic--><path d="M714.25,588.12 C714.25,588.12 714.25,683.9 714.25,683.9 " fill="none" id="Connections&lt;-ConnStatic" style="stroke: #A80036; stroke-width: 1.0; stroke-dasharray: 7.0,7.0;"/><polygon fill="none" points="707.25,588.12,714.25,568.12,721.25,588.12,707.25,588.12" style="stroke: #A80036; stroke-width: 1.0;"/><!--MD5=[10477add2578806cc5f98b33b8db5e65]
reverse link Connections to ConnGrowth--><path d="M768.75,588.12 C768.75,588.12 768.75,700 768.75,700 C768.75,700 782.39,700 798.69,700 " fill="none" id="Connections&lt;-ConnGrowth" style="stroke: #A80036; stroke-width: 1.0; stroke-dasharray: 7.0,7.0;"/><polygon fill="none" points="761.75,588.12,768.75,568.12,775.75,588.12,761.75,588.12" style="stroke: #A80036; stroke-width: 1.0;"/><!--MD5=[ce8801c2acd2b0d49ec9478c2a92b972]
reverse link ConnStatic to ConnectionsFactory--><path d="M757.5,721.08 C757.5,721.08 757.5,792.85 757.5,792.85 " fill="none" id="ConnStatic&lt;-ConnectionsFactory" style="stroke: #A80036; stroke-width: 1.0;"/><polygon fill="#A80036" points="757.5,716.08,753.5,725.08,757.5,721.08,761.5,725.08,757.5,716.08" style="stroke: #A80036; stroke-width: 1.0;"/><text fill="#000000" font-family="sans-serif" font-size="13" lengthAdjust="spacingAndGlyphs" textLength="75" x="714" y="759.0669">instantiates</text><!--MD5=[de55930b9c422267ee87a004d94dc6e8]
reverse link ConnGrowth to ConnectionsFactory--><path d="M853,721.08 C853,721.08 853,792.85 853,792.85 " fill="none" id="ConnGrowth&lt;-ConnectionsFactory" style="stroke: #A80036; stroke-width: 1.0;"/><polygon fill="#A80036" points="853,716.08,849,725.08,853,721.08,857,725.08,853,716.08" style="stroke: #A80036; stroke-width: 1.0;"/><text fill="#000000" font-family="sans-serif" font-size="13" lengthAdjust="spacingAndGlyphs" textLength="75" x="831" y="759.0669">instantiates</text><!--MD5=[31245d3cee91cd73d7b7d218049e1649]
reverse link AllEdges to AllSpikingSynapses--><path d="M1085,736.08 C1085,736.08 1085,792.85 1085,792.85 " fill="none" id="AllEdges&lt;-AllSpikingSynapses" style="stroke: #A80036; stroke-width: 1.0; stroke-dasharray: 7.0,7.0;"/><polygon fill="none" points="1078,736.08,1085,716.08,1092,736.08,1078,736.08" style="stroke: #A80036; stroke-width: 1.0;"/><!--MD5=[587b9d07fbc4fdda6579551662042140]
reverse link AllSpikingSynapses to AllSTDPSynapses--><path d="M1193.94,809 C1193.94,809 1195.75,809 1195.75,809 C1195.75,809 1195.75,872.75 1195.75,903.62 " fill="none" id="AllSpikingSynapses&lt;-AllSTDPSynapses" style="stroke: #A80036; stroke-width: 1.0;"/><polygon fill="none" points="1197.67,816,1177.67,809,1197.67,802,1197.67,816" style="stroke: #A80036; stroke-width: 1.0;"/><!--MD5=[f221506eaa2e129ebcab2e085332c1be]
reverse link AllSpikingSynapses to AllDSSynapses--><path d="M1088,845.38 C1088,845.38 1088,903.92 1088,903.92 " fill="none" id="AllSpikingSynapses&lt;-AllDSSynapses" style="stroke: #A80036; stroke-width: 1.0;"/><polygon fill="none" points="1081,845.38,1088,825.38,1095,845.38,1081,845.38" style="stroke: #A80036; stroke-width: 1.0;"/><!--MD5=[b9dc5ca9d326f6b2e35f4ef44c514701]
reverse link AllSTDPSynapses to AllDynamicsSTDPSynapses--><path d="M1328.41,920 C1328.41,920 1329,920 1329,920 C1329,920 1329,982.6 1329,1012.92 " fill="none" id="AllSTDPSynapses&lt;-AllDynamicsSTDPSynapses" style="stroke: #A80036; stroke-width: 1.0;"/><polygon fill="none" points="1343.12,927,1323.11,920,1343.11,913,1343.12,927" style="stroke: #A80036; stroke-width: 1.0;"/><!--MD5=[4407787554ed777fb67af52573db306c]
reverse link AllSTDPSynapses to EdgesFactory--><path d="M1191.83,941.03 C1191.83,941.03 1191.83,1121.95 1191.83,1121.95 " fill="none" id="AllSTDPSynapses&lt;-EdgesFactory" style="stroke: #A80036; stroke-width: 1.0;"/><polygon fill="#A80036" points="1191.83,936.03,1187.83,945.03,1191.83,941.03,1195.83,945.03,1191.83,936.03" style="stroke: #A80036; stroke-width: 1.0;"/><text fill="#000000" font-family="sans-serif" font-size="13" lengthAdjust="spacingAndGlyphs" textLength="75" x="1209" y="1033.5669">instantiates</text><!--MD5=[541346a73ae12603d046e53bdf8cd025]
reverse link AllDSSynapses to EdgesFactory--><path d="M1119,941.03 C1119,941.03 1119,1121.95 1119,1121.95 " fill="none" id="AllDSSynapses&lt;-EdgesFactory" style="stroke: #A80036; stroke-width: 1.0;"/><polygon fill="#A80036" points="1119,936.03,1115,945.03,1119,941.03,1123,945.03,1119,936.03" style="stroke: #A80036; stroke-width: 1.0;"/><text fill="#000000" font-family="sans-serif" font-size="13" lengthAdjust="spacingAndGlyphs" textLength="75" x="1062" y="1033.5669">instantiates</text><!--MD5=[1104c1ad87384c985d15bad9d62e0bea]
reverse link AllDynamicsSTDPSynapses to EdgesFactory--><path d="M1315.43,1029 C1315.43,1029 1198.67,1029 1198.67,1029 C1198.67,1029 1198.67,1091.6 1198.67,1121.92 " fill="none" id="AllDynamicsSTDPSynapses&lt;-EdgesFactory" style="stroke: #A80036; stroke-width: 1.0;"/><polygon fill="#A80036" points="1320.43,1029,1311.43,1025,1315.43,1029,1311.43,1033,1320.43,1029" style="stroke: #A80036; stroke-width: 1.0;"/><text fill="#000000" font-family="sans-serif" font-size="13" lengthAdjust="spacingAndGlyphs" textLength="75" x="1335" y="1088.0669">instantiates</text><!--MD5=[2c61cf99b0bec386ca840c193763b14a]
link Simulator to LayoutsFactory--><path d="M629.86,100 C642.47,100 652.75,100 652.75,100 C652.75,100 652.75,293 652.75,293 C652.75,293 1040.56,293 1040.56,293 " fill="none" id="Simulator-&gt;LayoutsFactory" style="stroke: #FF0000; stroke-width: 1.0;"/><polygon fill="#FF0000" points="1045.56,293,1036.56,289,1040.56,293,1036.56,297,1045.56,293" style="stroke: #FF0000; stroke-width: 1.0;"/><text fill="#000000" font-family="sans-serif" font-size="13" lengthAdjust="spacingAndGlyphs" textLength="72" x="854" y="188.5669">commands</text><!--MD5=[54271b6078ede2b7f4d9940e12d64874]
link Simulator to ConnectionsFactory--><path d="M629.64,96 C689.29,96 786.25,96 786.25,96 C786.25,96 786.25,787.77 786.25,787.77 " fill="none" id="Simulator-&gt;ConnectionsFactory" style="stroke: #FF0000; stroke-width: 1.0;"/><polygon fill="#FF0000" points="786.25,792.77,790.25,783.77,786.25,787.77,782.25,783.77,786.25,792.77" style="stroke: #FF0000; stroke-width: 1.0;"/><text fill="#000000" font-family="sans-serif" font-size="13" lengthAdjust="spacingAndGlyphs" textLength="72" x="817" y="408.5669">commands</text><!--MD5=[a911b337811af7fd7ce810fac5ac8c54]
reverse link Model to Layout--><path d="M498.83,120.17 C498.83,120.17 498.83,138 498.83,138 C498.83,138 1246.5,138 1246.5,138 C1246.5,138 1246.5,120.77 1246.5,107.17 " fill="none" id="Model&lt;-Layout" style="stroke: #FF0000; stroke-width: 1.0;"/><polygon fill="#FFFFFF" points="498.83,107.17,494.83,113.17,498.83,119.17,502.83,113.17,498.83,107.17" style="stroke: #FF0000; stroke-width: 1.0;"/><!--MD5=[0e5738770afdb953f3cb9465cb228f84]
reverse link Model to Connections--><path d="M501.17,120.2 C501.17,120.2 501.17,184 501.17,184 C501.17,184 665.25,184 665.25,184 C665.25,184 665.25,464.49 665.25,535.71 " fill="none" id="Model&lt;-Connections" style="stroke: #FF0000; stroke-width: 1.0;"/><polygon fill="#FFFFFF" points="501.17,107.2,497.17,113.2,501.17,119.2,505.17,113.2,501.17,107.2" style="stroke: #FF0000; stroke-width: 1.0;"/><!--MD5=[efb7ef13657b6fc949565044919673f3]
reverse link Layout to AllVertices--><path d="M1309.73,97 C1309.73,97 1611.92,97 1611.92,97 " fill="none" id="Layout&lt;-AllVertices" style="stroke: #FF0000; stroke-width: 1.0;"/><polygon fill="#FFFFFF" points="1296.73,97,1302.73,101,1308.73,97,1302.73,93,1296.73,97" style="stroke: #FF0000; stroke-width: 1.0;"/><!--MD5=[30ebdb8fe104fc5727699212f68639a3]
link Layout to VerticesFactory--><path d="M1296.58,102 C1306.91,102 1315.33,102 1315.33,102 C1315.33,102 1315.33,556 1315.33,556 C1315.33,556 1590.17,556 1590.17,556 " fill="none" id="Layout-&gt;VerticesFactory" style="stroke: #FF0000; stroke-width: 1.0;"/><polygon fill="#FF0000" points="1595.17,556,1586.17,552,1590.17,556,1586.17,560,1595.17,556" style="stroke: #FF0000; stroke-width: 1.0;"/><text fill="#000000" font-family="sans-serif" font-size="13" lengthAdjust="spacingAndGlyphs" textLength="72" x="1345" y="297.5669">commands</text><!--MD5=[c1506f01115880aaa731ab3eaa932dd8]
reverse link Connections to IRecorder--><path d="M651.38,547 C651.38,547 413.5,547 413.5,547 C413.5,547 413.5,644.63 413.5,683.92 " fill="none" id="Connections&lt;-IRecorder" style="stroke: #FF0000; stroke-width: 1.0;"/><polygon fill="#FFFFFF" points="664.38,547,658.38,543,652.38,547,658.38,551,664.38,547" style="stroke: #FF0000; stroke-width: 1.0;"/><!--MD5=[25007e0d6d2bc2691ed586569b6b25e2]
reverse link Connections to AllEdges--><path d="M786.62,562 C786.62,562 1086.5,562 1086.5,562 C1086.5,562 1086.5,647.5 1086.5,683.9 " fill="none" id="Connections&lt;-AllEdges" style="stroke: #FF0000; stroke-width: 1.0;"/><polygon fill="#FFFFFF" points="773.62,562,779.62,566,785.62,562,779.62,558,773.62,562" style="stroke: #FF0000; stroke-width: 1.0;"/><!--MD5=[667bd891f405c7f0704357e7745df727]
link Connections to RecordersFactory--><path d="M664.35,558 C619.73,558 564,558 564,558 C564,558 564,1144 564,1144 C564,1144 399,1144 399,1144 " fill="none" id="Connections-&gt;RecordersFactory" style="stroke: #FF0000; stroke-width: 1.0;"/><polygon fill="#FF0000" points="394,1144,403,1148,399,1144,403,1140,394,1144" style="stroke: #FF0000; stroke-width: 1.0;"/><text fill="#000000" font-family="sans-serif" font-size="13" lengthAdjust="spacingAndGlyphs" textLength="72" x="541" y="870.0669">commands</text><!--MD5=[485b9368dfec1399f74485e1b2980e82]
link Connections to EdgesFactory--><path d="M773.84,549 C896.29,549 1181.25,549 1181.25,549 C1181.25,549 1181.25,1116.94 1181.25,1116.94 " fill="none" id="Connections-&gt;EdgesFactory" style="stroke: #FF0000; stroke-width: 1.0;"/><polygon fill="#FF0000" points="1181.25,1121.94,1185.25,1112.94,1181.25,1116.94,1177.25,1112.94,1181.25,1121.94" style="stroke: #FF0000; stroke-width: 1.0;"/><text fill="#000000" font-family="sans-serif" font-size="13" lengthAdjust="spacingAndGlyphs" textLength="72" x="655" y="870.0669">commands</text><!--MD5=[d95cba7a564e0eb2f945d9455f1e08a4]
link Core to Layouts--><!--MD5=[3a074d6a93e7e88a957dba9b80e50081]
link Layouts to Vertices--><!--MD5=[42be6bbbc523329e8d13badc94475598]
link Core to Recorders--><!--MD5=[9f00652237e409965a409b02122331f2]
link Layouts to Connections--><!--MD5=[e07bd046f8fc72b6c553dc19b1427184]
link Vertices to Edges--><!--MD5=[086435d66bd769812ff7e18463fd6f4d]
@startuml package UML

skinparam linetype ortho
hide members

package Core{
   class Simulator
   class CPUSpikingModel implements Model
   class GPUSpikingModel implements Model
   class Operations
   class OperationManager 
   class ParameterManager 

   Model -left-o Simulator 
   Operations -right-o OperationManager   
   Simulator - - -> OperationManager : commands 
  
   CPUSpikingModel -[hidden]right> GPUSpikingModel
   CPUSpikingModel -[hidden]-> Operations
   OperationManager -[hidden]-> ParameterManager
}

package Layouts{
   class FixedLayout implements Layout
   class DynamicLayout implements Layout
   class LayoutsFactory
   FixedLayout <- - LayoutsFactory : instantiates
   DynamicLayout <- - LayoutsFactory : instantiates
}

package Vertices{
   class AllSpikingNeurons implements AllVertices
   class AllIFNeurons extends AllSpikingNeurons
   class AllLiFNeurons extends AllIFNeurons
   class AllZHNeurons extends AllIFNeurons
   class VerticesFactory 
   VerticesFactory -up-> AllLiFNeurons : instantiates
   VerticesFactory -up-> AllZHNeurons : instantiates
}

package Recorders{
   class  XmLRecorder implements IRecorder
   class HDF5Recorder implements IRecorder
   class XmlGrowthRecroder extends XmLRecorder
   class Hdf5GrowthRecorder extends HDF5Recorder
   class RecordersFactory
   XmLRecorder <- - RecordersFactory : instantiates
   HDF5Recorder <- - RecordersFactory : instantiates
   XmlGrowthRecroder <- - - RecordersFactory : instantiates
   Hdf5GrowthRecorder <- - - RecordersFactory : instantiates
}

package Connections{
   class ConnStatic implements Connections
   class ConnGrowth Implements Connections
   class ConnectionsFactory
   ConnectionsFactory - -up> ConnStatic : instantiates
   ConnectionsFactory - -up> ConnGrowth  : instantiates
}

package Edges{
   class AllSpikingSynapses implements AllEdges
   class AllSTDPSynapses extends AllSpikingSynapses
   class AllDSSynapses extends AllSpikingSynapses
   class AllDynamicsSTDPSynapses extends AllSTDPSynapses
   class EdgesFactory
   EdgesFactory - -up-> AllSTDPSynapses : instantiates
   EdgesFactory - -up-> AllDSSynapses : instantiates
   EdgesFactory - -up> AllDynamicsSTDPSynapses : instantiates
}

Simulator -[#red]-> LayoutsFactory : commands
Simulator -[#red]- - - -> ConnectionsFactory: commands
Model o-[#red] Layout
Model o-[#red]- - - Connections

Layout o-[#red] AllVertices
Layout -[#red]- - -> VerticesFactory : commands

Connections o-[#red]- IRecorder
Connections o-[#red]- AllEdges
Connections -[#red]- - -> RecordersFactory : commands
Connections -[#red]- - -> EdgesFactory : commands

Core -[hidden]right>  Layouts
Layouts -[hidden]right> Vertices
Core -[hidden]down- - - -> Recorders
Layouts -[hidden]down- - - -> Connections
Vertices -[hidden]down- - - - -> Edges
@enduml

PlantUML version 1.2020.02(Sun Mar 01 10:22:07 GMT 2020)
(GPL source distribution)
Java Runtime: OpenJDK Runtime Environment
JVM: OpenJDK 64-Bit Server VM
Java Version: 11.0.9+11-Ubuntu-0ubuntu1
Operating System: Linux
Default Encoding: ANSI_X3.4-1968
Language: en
Country: US
--></g></svg>