<?xml version="1.0" encoding="UTF-8" standalone="no"?><svg xmlns="http://www.w3.org/2000/svg" xmlns:xlink="http://www.w3.org/1999/xlink" contentScriptType="application/ecmascript" contentStyleType="text/css" height="1301px" preserveAspectRatio="none" style="width:1878px;height:1301px;" version="1.1" viewBox="0 0 1878 1301" width="1878px" zoomAndPan="magnify"><defs><filter height="300%" id="fqxmx5kvdl6fy" width="300%" x="-1" y="-1"><feGaussianBlur result="blurOut" stdDeviation="2.0"/><feColorMatrix in="blurOut" result="blurOut2" type="matrix" values="0 0 0 0 0 0 0 0 0 0 0 0 0 0 0 0 0 0 .4 0"/><feOffset dx="4.0" dy="4.0" in="blurOut2" result="blurOut3"/><feBlend in="SourceGraphic" in2="blurOut3" mode="normal"/></filter></defs><g><!--MD5=[2c2e2644034c00788261e03c85b06837]
cluster Core--><polygon fill="#FFFFFF" filter="url(#fqxmx5kvdl6fy)" points="35,32,79,32,86,54.2969,550,54.2969,550,444,35,444,35,32" style="stroke: #000000; stroke-width: 1.5;"/><line style="stroke: #000000; stroke-width: 1.5;" x1="35" x2="86" y1="54.2969" y2="54.2969"/><text fill="#000000" font-family="sans-serif" font-size="14" font-weight="bold" lengthAdjust="spacingAndGlyphs" textLength="38" x="39" y="46.9951">Core</text><!--MD5=[bcaa2b9ff15208c4e2012dff6dfdc182]
cluster Layouts--><polygon fill="#FFFFFF" filter="url(#fqxmx5kvdl6fy)" points="970,32,1038,32,1045,54.2969,1292,54.2969,1292,333,970,333,970,32" style="stroke: #000000; stroke-width: 1.5;"/><line style="stroke: #000000; stroke-width: 1.5;" x1="970" x2="1045" y1="54.2969" y2="54.2969"/><text fill="#000000" font-family="sans-serif" font-size="14" font-weight="bold" lengthAdjust="spacingAndGlyphs" textLength="62" x="974" y="46.9951">Layouts</text><!--MD5=[8d26bb35548c3dcbc6e480db6528a15a]
cluster Vertices--><polygon fill="#FFFFFF" filter="url(#fqxmx5kvdl6fy)" points="1532,32,1604,32,1611,54.2969,1856,54.2969,1856,608,1532,608,1532,32" style="stroke: #000000; stroke-width: 1.5;"/><line style="stroke: #000000; stroke-width: 1.5;" x1="1532" x2="1611" y1="54.2969" y2="54.2969"/><text fill="#000000" font-family="sans-serif" font-size="14" font-weight="bold" lengthAdjust="spacingAndGlyphs" textLength="66" x="1536" y="46.9951">Vertices</text><!--MD5=[9168128f11ea68e0eeae1bee9b5f58d3]
cluster Recorders--><polygon fill="#FFFFFF" filter="url(#fqxmx5kvdl6fy)" points="204,509,292,509,299,531.2969,685,531.2969,685,1069,204,1069,204,509" style="stroke: #000000; stroke-width: 1.5;"/><line style="stroke: #000000; stroke-width: 1.5;" x1="204" x2="299" y1="531.2969" y2="531.2969"/><text fill="#000000" font-family="sans-serif" font-size="14" font-weight="bold" lengthAdjust="spacingAndGlyphs" textLength="82" x="208" y="523.9951">Recorders</text><!--MD5=[3a4496162e4aa4b8f639c92517849365]
cluster Connections--><polygon fill="#FFFFFF" filter="url(#fqxmx5kvdl6fy)" points="767,517,872,517,879,539.2969,1042,539.2969,1042,857,767,857,767,517" style="stroke: #000000; stroke-width: 1.5;"/><line style="stroke: #000000; stroke-width: 1.5;" x1="767" x2="879" y1="539.2969" y2="539.2969"/><text fill="#000000" font-family="sans-serif" font-size="14" font-weight="bold" lengthAdjust="spacingAndGlyphs" textLength="99" x="771" y="531.9951">Connections</text><!--MD5=[a69b11994f1325ca382ee696cdd1fd0b]
cluster Edges--><polygon fill="#FFFFFF" filter="url(#fqxmx5kvdl6fy)" points="1108,657,1162,657,1169,679.2969,1656,679.2969,1656,1289,1108,1289,1108,657" style="stroke: #000000; stroke-width: 1.5;"/><line style="stroke: #000000; stroke-width: 1.5;" x1="1108" x2="1169" y1="679.2969" y2="679.2969"/><text fill="#000000" font-family="sans-serif" font-size="14" font-weight="bold" lengthAdjust="spacingAndGlyphs" textLength="48" x="1112" y="671.9951">Edges</text><!--MD5=[e78d3bd29d68b8fbdb4aae8710e3db25]
class Simulator--><rect fill="#FEFECE" filter="url(#fqxmx5kvdl6fy)" height="32" id="Simulator" style="stroke: #A80036; stroke-width: 1.5;" width="91" x="415.5" y="75"/><ellipse cx="430.5" cy="91" fill="#ADD1B2" rx="11" ry="11" style="stroke: #A80036; stroke-width: 1.0;"/><path d="M433.4688,96.6406 Q432.8906,96.9375 432.25,97.0781 Q431.6094,97.2344 430.9063,97.2344 Q428.4063,97.2344 427.0781,95.5938 Q425.7656,93.9375 425.7656,90.8125 Q425.7656,87.6875 427.0781,86.0313 Q428.4063,84.375 430.9063,84.375 Q431.6094,84.375 432.25,84.5313 Q432.9063,84.6875 433.4688,84.9844 L433.4688,87.7031 Q432.8438,87.125 432.25,86.8594 Q431.6563,86.5781 431.0313,86.5781 Q429.6875,86.5781 429,87.6563 Q428.3125,88.7188 428.3125,90.8125 Q428.3125,92.9063 429,93.9844 Q429.6875,95.0469 431.0313,95.0469 Q431.6563,95.0469 432.25,94.7813 Q432.8438,94.5 433.4688,93.9219 L433.4688,96.6406 Z "/><text fill="#000000" font-family="sans-serif" font-size="12" lengthAdjust="spacingAndGlyphs" textLength="59" x="444.5" y="95.1543">Simulator</text><!--MD5=[0b94f3229ccc3f95d40f9de2aafb3991]
class CPUSpikingModel--><rect fill="#FEFECE" filter="url(#fqxmx5kvdl6fy)" height="32" id="CPUSpikingModel" style="stroke: #A80036; stroke-width: 1.5;" width="139" x="234.5" y="168"/><ellipse cx="249.5" cy="184" fill="#ADD1B2" rx="11" ry="11" style="stroke: #A80036; stroke-width: 1.0;"/><path d="M252.4688,189.6406 Q251.8906,189.9375 251.25,190.0781 Q250.6094,190.2344 249.9063,190.2344 Q247.4063,190.2344 246.0781,188.5938 Q244.7656,186.9375 244.7656,183.8125 Q244.7656,180.6875 246.0781,179.0313 Q247.4063,177.375 249.9063,177.375 Q250.6094,177.375 251.25,177.5313 Q251.9063,177.6875 252.4688,177.9844 L252.4688,180.7031 Q251.8438,180.125 251.25,179.8594 Q250.6563,179.5781 250.0313,179.5781 Q248.6875,179.5781 248,180.6563 Q247.3125,181.7188 247.3125,183.8125 Q247.3125,185.9063 248,186.9844 Q248.6875,188.0469 250.0313,188.0469 Q250.6563,188.0469 251.25,187.7813 Q251.8438,187.5 252.4688,186.9219 L252.4688,189.6406 Z "/><text fill="#000000" font-family="sans-serif" font-size="12" lengthAdjust="spacingAndGlyphs" textLength="107" x="263.5" y="188.1543">CPUSpikingModel</text><!--MD5=[7e20e022571e30ec1001cf6eabd7f3e2]
class Model--><rect fill="#FEFECE" filter="url(#fqxmx5kvdl6fy)" height="32" id="Model" style="stroke: #A80036; stroke-width: 1.5;" width="69" x="311.5" y="75"/><ellipse cx="326.5" cy="91" fill="#B4A7E5" rx="11" ry="11" style="stroke: #A80036; stroke-width: 1.0;"/><path d="M322.4219,86.7656 L322.4219,84.6094 L329.8125,84.6094 L329.8125,86.7656 L327.3438,86.7656 L327.3438,94.8438 L329.8125,94.8438 L329.8125,97 L322.4219,97 L322.4219,94.8438 L324.8906,94.8438 L324.8906,86.7656 L322.4219,86.7656 Z "/><text fill="#000000" font-family="sans-serif" font-size="12" font-style="italic" lengthAdjust="spacingAndGlyphs" textLength="37" x="340.5" y="95.1543">Model</text><!--MD5=[9f94b75dce46dbb71fc5aed3e87d7d49]
class GPUSpikingModel--><rect fill="#FEFECE" filter="url(#fqxmx5kvdl6fy)" height="32" id="GPUSpikingModel" style="stroke: #A80036; stroke-width: 1.5;" width="140" x="59" y="168"/><ellipse cx="74" cy="184" fill="#ADD1B2" rx="11" ry="11" style="stroke: #A80036; stroke-width: 1.0;"/><path d="M76.9688,189.6406 Q76.3906,189.9375 75.75,190.0781 Q75.1094,190.2344 74.4063,190.2344 Q71.9063,190.2344 70.5781,188.5938 Q69.2656,186.9375 69.2656,183.8125 Q69.2656,180.6875 70.5781,179.0313 Q71.9063,177.375 74.4063,177.375 Q75.1094,177.375 75.75,177.5313 Q76.4063,177.6875 76.9688,177.9844 L76.9688,180.7031 Q76.3438,180.125 75.75,179.8594 Q75.1563,179.5781 74.5313,179.5781 Q73.1875,179.5781 72.5,180.6563 Q71.8125,181.7188 71.8125,183.8125 Q71.8125,185.9063 72.5,186.9844 Q73.1875,188.0469 74.5313,188.0469 Q75.1563,188.0469 75.75,187.7813 Q76.3438,187.5 76.9688,186.9219 L76.9688,189.6406 Z "/><text fill="#000000" font-family="sans-serif" font-size="12" lengthAdjust="spacingAndGlyphs" textLength="108" x="88" y="188.1543">GPUSpikingModel</text><!--MD5=[fdf81c1c7218c7a86b85d500a2db5e87]
class Operations--><rect fill="#FEFECE" filter="url(#fqxmx5kvdl6fy)" height="32" id="Operations" style="stroke: #A80036; stroke-width: 1.5;" width="101" x="233.5" y="277"/><ellipse cx="248.5" cy="293" fill="#ADD1B2" rx="11" ry="11" style="stroke: #A80036; stroke-width: 1.0;"/><path d="M251.4688,298.6406 Q250.8906,298.9375 250.25,299.0781 Q249.6094,299.2344 248.9063,299.2344 Q246.4063,299.2344 245.0781,297.5938 Q243.7656,295.9375 243.7656,292.8125 Q243.7656,289.6875 245.0781,288.0313 Q246.4063,286.375 248.9063,286.375 Q249.6094,286.375 250.25,286.5313 Q250.9063,286.6875 251.4688,286.9844 L251.4688,289.7031 Q250.8438,289.125 250.25,288.8594 Q249.6563,288.5781 249.0313,288.5781 Q247.6875,288.5781 247,289.6563 Q246.3125,290.7188 246.3125,292.8125 Q246.3125,294.9063 247,295.9844 Q247.6875,297.0469 249.0313,297.0469 Q249.6563,297.0469 250.25,296.7813 Q250.8438,296.5 251.4688,295.9219 L251.4688,298.6406 Z "/><text fill="#000000" font-family="sans-serif" font-size="12" lengthAdjust="spacingAndGlyphs" textLength="69" x="262.5" y="297.1543">Operations</text><!--MD5=[314e3b7c2db0a5a356d5ece57f37d58b]
class OperationManager--><rect fill="#FEFECE" filter="url(#fqxmx5kvdl6fy)" height="32" id="OperationManager" style="stroke: #A80036; stroke-width: 1.5;" width="149" x="369.5" y="277"/><ellipse cx="384.5" cy="293" fill="#ADD1B2" rx="11" ry="11" style="stroke: #A80036; stroke-width: 1.0;"/><path d="M387.4688,298.6406 Q386.8906,298.9375 386.25,299.0781 Q385.6094,299.2344 384.9063,299.2344 Q382.4063,299.2344 381.0781,297.5938 Q379.7656,295.9375 379.7656,292.8125 Q379.7656,289.6875 381.0781,288.0313 Q382.4063,286.375 384.9063,286.375 Q385.6094,286.375 386.25,286.5313 Q386.9063,286.6875 387.4688,286.9844 L387.4688,289.7031 Q386.8438,289.125 386.25,288.8594 Q385.6563,288.5781 385.0313,288.5781 Q383.6875,288.5781 383,289.6563 Q382.3125,290.7188 382.3125,292.8125 Q382.3125,294.9063 383,295.9844 Q383.6875,297.0469 385.0313,297.0469 Q385.6563,297.0469 386.25,296.7813 Q386.8438,296.5 387.4688,295.9219 L387.4688,298.6406 Z "/><text fill="#000000" font-family="sans-serif" font-size="12" lengthAdjust="spacingAndGlyphs" textLength="117" x="398.5" y="297.1543">OperationManager</text><!--MD5=[eb1da731c4a897e81e143002ff161e69]
class ParameterManager--><rect fill="#FEFECE" filter="url(#fqxmx5kvdl6fy)" height="32" id="ParameterManager" style="stroke: #A80036; stroke-width: 1.5;" width="153" x="364.5" y="388"/><ellipse cx="379.5" cy="404" fill="#ADD1B2" rx="11" ry="11" style="stroke: #A80036; stroke-width: 1.0;"/><path d="M382.4688,409.6406 Q381.8906,409.9375 381.25,410.0781 Q380.6094,410.2344 379.9063,410.2344 Q377.4063,410.2344 376.0781,408.5938 Q374.7656,406.9375 374.7656,403.8125 Q374.7656,400.6875 376.0781,399.0313 Q377.4063,397.375 379.9063,397.375 Q380.6094,397.375 381.25,397.5313 Q381.9063,397.6875 382.4688,397.9844 L382.4688,400.7031 Q381.8438,400.125 381.25,399.8594 Q380.6563,399.5781 380.0313,399.5781 Q378.6875,399.5781 378,400.6563 Q377.3125,401.7188 377.3125,403.8125 Q377.3125,405.9063 378,406.9844 Q378.6875,408.0469 380.0313,408.0469 Q380.6563,408.0469 381.25,407.7813 Q381.8438,407.5 382.4688,406.9219 L382.4688,409.6406 Z "/><text fill="#000000" font-family="sans-serif" font-size="12" lengthAdjust="spacingAndGlyphs" textLength="121" x="393.5" y="408.1543">ParameterManager</text><!--MD5=[c01d281453c5d4cdc24a7f27a30cb7c5]
class FixedLayout--><rect fill="#FEFECE" filter="url(#fqxmx5kvdl6fy)" height="32" id="FixedLayout" style="stroke: #A80036; stroke-width: 1.5;" width="105" x="1154.5" y="168"/><ellipse cx="1169.5" cy="184" fill="#ADD1B2" rx="11" ry="11" style="stroke: #A80036; stroke-width: 1.0;"/><path d="M1172.4688,189.6406 Q1171.8906,189.9375 1171.25,190.0781 Q1170.6094,190.2344 1169.9063,190.2344 Q1167.4063,190.2344 1166.0781,188.5938 Q1164.7656,186.9375 1164.7656,183.8125 Q1164.7656,180.6875 1166.0781,179.0313 Q1167.4063,177.375 1169.9063,177.375 Q1170.6094,177.375 1171.25,177.5313 Q1171.9063,177.6875 1172.4688,177.9844 L1172.4688,180.7031 Q1171.8438,180.125 1171.25,179.8594 Q1170.6563,179.5781 1170.0313,179.5781 Q1168.6875,179.5781 1168,180.6563 Q1167.3125,181.7188 1167.3125,183.8125 Q1167.3125,185.9063 1168,186.9844 Q1168.6875,188.0469 1170.0313,188.0469 Q1170.6563,188.0469 1171.25,187.7813 Q1171.8438,187.5 1172.4688,186.9219 L1172.4688,189.6406 Z "/><text fill="#000000" font-family="sans-serif" font-size="12" lengthAdjust="spacingAndGlyphs" textLength="73" x="1183.5" y="188.1543">FixedLayout</text><!--MD5=[caebf2ddd0fe15aa1cd7c0f919e7d6a1]
class Layout--><rect fill="#FEFECE" filter="url(#fqxmx5kvdl6fy)" height="32" id="Layout" style="stroke: #A80036; stroke-width: 1.5;" width="75" x="1169.5" y="75"/><ellipse cx="1184.5" cy="91" fill="#B4A7E5" rx="11" ry="11" style="stroke: #A80036; stroke-width: 1.0;"/><path d="M1180.4219,86.7656 L1180.4219,84.6094 L1187.8125,84.6094 L1187.8125,86.7656 L1185.3438,86.7656 L1185.3438,94.8438 L1187.8125,94.8438 L1187.8125,97 L1180.4219,97 L1180.4219,94.8438 L1182.8906,94.8438 L1182.8906,86.7656 L1180.4219,86.7656 Z "/><text fill="#000000" font-family="sans-serif" font-size="12" font-style="italic" lengthAdjust="spacingAndGlyphs" textLength="43" x="1198.5" y="95.1543">Layout</text><!--MD5=[12f7f85e6a82a668bac37f73aa8a25f9]
class DynamicLayout--><rect fill="#FEFECE" filter="url(#fqxmx5kvdl6fy)" height="32" id="DynamicLayout" style="stroke: #A80036; stroke-width: 1.5;" width="125" x="994.5" y="168"/><ellipse cx="1009.5" cy="184" fill="#ADD1B2" rx="11" ry="11" style="stroke: #A80036; stroke-width: 1.0;"/><path d="M1012.4688,189.6406 Q1011.8906,189.9375 1011.25,190.0781 Q1010.6094,190.2344 1009.9063,190.2344 Q1007.4063,190.2344 1006.0781,188.5938 Q1004.7656,186.9375 1004.7656,183.8125 Q1004.7656,180.6875 1006.0781,179.0313 Q1007.4063,177.375 1009.9063,177.375 Q1010.6094,177.375 1011.25,177.5313 Q1011.9063,177.6875 1012.4688,177.9844 L1012.4688,180.7031 Q1011.8438,180.125 1011.25,179.8594 Q1010.6563,179.5781 1010.0313,179.5781 Q1008.6875,179.5781 1008,180.6563 Q1007.3125,181.7188 1007.3125,183.8125 Q1007.3125,185.9063 1008,186.9844 Q1008.6875,188.0469 1010.0313,188.0469 Q1010.6563,188.0469 1011.25,187.7813 Q1011.8438,187.5 1012.4688,186.9219 L1012.4688,189.6406 Z "/><text fill="#000000" font-family="sans-serif" font-size="12" lengthAdjust="spacingAndGlyphs" textLength="93" x="1023.5" y="188.1543">DynamicLayout</text><!--MD5=[ceff05214af216b423c504875c83215d]
class LayoutsFactory--><rect fill="#FEFECE" filter="url(#fqxmx5kvdl6fy)" height="32" id="LayoutsFactory" style="stroke: #A80036; stroke-width: 1.5;" width="126" x="994" y="277"/><ellipse cx="1009" cy="293" fill="#ADD1B2" rx="11" ry="11" style="stroke: #A80036; stroke-width: 1.0;"/><path d="M1011.9688,298.6406 Q1011.3906,298.9375 1010.75,299.0781 Q1010.1094,299.2344 1009.4063,299.2344 Q1006.9063,299.2344 1005.5781,297.5938 Q1004.2656,295.9375 1004.2656,292.8125 Q1004.2656,289.6875 1005.5781,288.0313 Q1006.9063,286.375 1009.4063,286.375 Q1010.1094,286.375 1010.75,286.5313 Q1011.4063,286.6875 1011.9688,286.9844 L1011.9688,289.7031 Q1011.3438,289.125 1010.75,288.8594 Q1010.1563,288.5781 1009.5313,288.5781 Q1008.1875,288.5781 1007.5,289.6563 Q1006.8125,290.7188 1006.8125,292.8125 Q1006.8125,294.9063 1007.5,295.9844 Q1008.1875,297.0469 1009.5313,297.0469 Q1010.1563,297.0469 1010.75,296.7813 Q1011.3438,296.5 1011.9688,295.9219 L1011.9688,298.6406 Z "/><text fill="#000000" font-family="sans-serif" font-size="12" lengthAdjust="spacingAndGlyphs" textLength="94" x="1023" y="297.1543">LayoutsFactory</text><!--MD5=[00675e18512933602d55f5e0e2b1ab32]
class AllSpikingNeurons--><rect fill="#FEFECE" filter="url(#fqxmx5kvdl6fy)" height="32" id="AllSpikingNeurons" style="stroke: #A80036; stroke-width: 1.5;" width="144" x="1564" y="168"/><ellipse cx="1579" cy="184" fill="#ADD1B2" rx="11" ry="11" style="stroke: #A80036; stroke-width: 1.0;"/><path d="M1581.9688,189.6406 Q1581.3906,189.9375 1580.75,190.0781 Q1580.1094,190.2344 1579.4063,190.2344 Q1576.9063,190.2344 1575.5781,188.5938 Q1574.2656,186.9375 1574.2656,183.8125 Q1574.2656,180.6875 1575.5781,179.0313 Q1576.9063,177.375 1579.4063,177.375 Q1580.1094,177.375 1580.75,177.5313 Q1581.4063,177.6875 1581.9688,177.9844 L1581.9688,180.7031 Q1581.3438,180.125 1580.75,179.8594 Q1580.1563,179.5781 1579.5313,179.5781 Q1578.1875,179.5781 1577.5,180.6563 Q1576.8125,181.7188 1576.8125,183.8125 Q1576.8125,185.9063 1577.5,186.9844 Q1578.1875,188.0469 1579.5313,188.0469 Q1580.1563,188.0469 1580.75,187.7813 Q1581.3438,187.5 1581.9688,186.9219 L1581.9688,189.6406 Z "/><text fill="#000000" font-family="sans-serif" font-size="12" lengthAdjust="spacingAndGlyphs" textLength="112" x="1593" y="188.1543">AllSpikingNeurons</text><!--MD5=[34dee175ca2f1207a5c8be9520f72c2f]
class AllVertices--><rect fill="#FEFECE" filter="url(#fqxmx5kvdl6fy)" height="32" id="AllVertices" style="stroke: #A80036; stroke-width: 1.5;" width="96" x="1581" y="75"/><ellipse cx="1596" cy="91" fill="#B4A7E5" rx="11" ry="11" style="stroke: #A80036; stroke-width: 1.0;"/><path d="M1591.9219,86.7656 L1591.9219,84.6094 L1599.3125,84.6094 L1599.3125,86.7656 L1596.8438,86.7656 L1596.8438,94.8438 L1599.3125,94.8438 L1599.3125,97 L1591.9219,97 L1591.9219,94.8438 L1594.3906,94.8438 L1594.3906,86.7656 L1591.9219,86.7656 Z "/><text fill="#000000" font-family="sans-serif" font-size="12" font-style="italic" lengthAdjust="spacingAndGlyphs" textLength="64" x="1610" y="95.1543">AllVertices</text><!--MD5=[cf80cca85261d84eda43dbc026d5d8d1]
class AllIFNeurons--><rect fill="#FEFECE" filter="url(#fqxmx5kvdl6fy)" height="32" id="AllIFNeurons" style="stroke: #A80036; stroke-width: 1.5;" width="109" x="1581.5" y="277"/><ellipse cx="1596.5" cy="293" fill="#ADD1B2" rx="11" ry="11" style="stroke: #A80036; stroke-width: 1.0;"/><path d="M1599.4688,298.6406 Q1598.8906,298.9375 1598.25,299.0781 Q1597.6094,299.2344 1596.9063,299.2344 Q1594.4063,299.2344 1593.0781,297.5938 Q1591.7656,295.9375 1591.7656,292.8125 Q1591.7656,289.6875 1593.0781,288.0313 Q1594.4063,286.375 1596.9063,286.375 Q1597.6094,286.375 1598.25,286.5313 Q1598.9063,286.6875 1599.4688,286.9844 L1599.4688,289.7031 Q1598.8438,289.125 1598.25,288.8594 Q1597.6563,288.5781 1597.0313,288.5781 Q1595.6875,288.5781 1595,289.6563 Q1594.3125,290.7188 1594.3125,292.8125 Q1594.3125,294.9063 1595,295.9844 Q1595.6875,297.0469 1597.0313,297.0469 Q1597.6563,297.0469 1598.25,296.7813 Q1598.8438,296.5 1599.4688,295.9219 L1599.4688,298.6406 Z "/><text fill="#000000" font-family="sans-serif" font-size="12" lengthAdjust="spacingAndGlyphs" textLength="77" x="1610.5" y="297.1543">AllIFNeurons</text><!--MD5=[260384eea3996f96db9f0f616389f648]
class AllLiFNeurons--><rect fill="#FEFECE" filter="url(#fqxmx5kvdl6fy)" height="32" id="AllLiFNeurons" style="stroke: #A80036; stroke-width: 1.5;" width="115" x="1564.5" y="388"/><ellipse cx="1579.5" cy="404" fill="#ADD1B2" rx="11" ry="11" style="stroke: #A80036; stroke-width: 1.0;"/><path d="M1582.4688,409.6406 Q1581.8906,409.9375 1581.25,410.0781 Q1580.6094,410.2344 1579.9063,410.2344 Q1577.4063,410.2344 1576.0781,408.5938 Q1574.7656,406.9375 1574.7656,403.8125 Q1574.7656,400.6875 1576.0781,399.0313 Q1577.4063,397.375 1579.9063,397.375 Q1580.6094,397.375 1581.25,397.5313 Q1581.9063,397.6875 1582.4688,397.9844 L1582.4688,400.7031 Q1581.8438,400.125 1581.25,399.8594 Q1580.6563,399.5781 1580.0313,399.5781 Q1578.6875,399.5781 1578,400.6563 Q1577.3125,401.7188 1577.3125,403.8125 Q1577.3125,405.9063 1578,406.9844 Q1578.6875,408.0469 1580.0313,408.0469 Q1580.6563,408.0469 1581.25,407.7813 Q1581.8438,407.5 1582.4688,406.9219 L1582.4688,409.6406 Z "/><text fill="#000000" font-family="sans-serif" font-size="12" lengthAdjust="spacingAndGlyphs" textLength="83" x="1593.5" y="408.1543">AllLiFNeurons</text><!--MD5=[71b076a97ded1832bf674b3762bc7b75]
class AllZHNeurons--><rect fill="#FEFECE" filter="url(#fqxmx5kvdl6fy)" height="32" id="AllZHNeurons" style="stroke: #A80036; stroke-width: 1.5;" width="117" x="1714.5" y="388"/><ellipse cx="1729.5" cy="404" fill="#ADD1B2" rx="11" ry="11" style="stroke: #A80036; stroke-width: 1.0;"/><path d="M1732.4688,409.6406 Q1731.8906,409.9375 1731.25,410.0781 Q1730.6094,410.2344 1729.9063,410.2344 Q1727.4063,410.2344 1726.0781,408.5938 Q1724.7656,406.9375 1724.7656,403.8125 Q1724.7656,400.6875 1726.0781,399.0313 Q1727.4063,397.375 1729.9063,397.375 Q1730.6094,397.375 1731.25,397.5313 Q1731.9063,397.6875 1732.4688,397.9844 L1732.4688,400.7031 Q1731.8438,400.125 1731.25,399.8594 Q1730.6563,399.5781 1730.0313,399.5781 Q1728.6875,399.5781 1728,400.6563 Q1727.3125,401.7188 1727.3125,403.8125 Q1727.3125,405.9063 1728,406.9844 Q1728.6875,408.0469 1730.0313,408.0469 Q1730.6563,408.0469 1731.25,407.7813 Q1731.8438,407.5 1732.4688,406.9219 L1732.4688,409.6406 Z "/><text fill="#000000" font-family="sans-serif" font-size="12" lengthAdjust="spacingAndGlyphs" textLength="85" x="1743.5" y="408.1543">AllZHNeurons</text><!--MD5=[cc1c410fe2850b6da0ea695abfcea755]
class VerticesFactory--><rect fill="#FEFECE" filter="url(#fqxmx5kvdl6fy)" height="32" id="VerticesFactory" style="stroke: #A80036; stroke-width: 1.5;" width="129" x="1564.5" y="552"/><ellipse cx="1579.5" cy="568" fill="#ADD1B2" rx="11" ry="11" style="stroke: #A80036; stroke-width: 1.0;"/><path d="M1582.4688,573.6406 Q1581.8906,573.9375 1581.25,574.0781 Q1580.6094,574.2344 1579.9063,574.2344 Q1577.4063,574.2344 1576.0781,572.5938 Q1574.7656,570.9375 1574.7656,567.8125 Q1574.7656,564.6875 1576.0781,563.0313 Q1577.4063,561.375 1579.9063,561.375 Q1580.6094,561.375 1581.25,561.5313 Q1581.9063,561.6875 1582.4688,561.9844 L1582.4688,564.7031 Q1581.8438,564.125 1581.25,563.8594 Q1580.6563,563.5781 1580.0313,563.5781 Q1578.6875,563.5781 1578,564.6563 Q1577.3125,565.7188 1577.3125,567.8125 Q1577.3125,569.9063 1578,570.9844 Q1578.6875,572.0469 1580.0313,572.0469 Q1580.6563,572.0469 1581.25,571.7813 Q1581.8438,571.5 1582.4688,570.9219 L1582.4688,573.6406 Z "/><text fill="#000000" font-family="sans-serif" font-size="12" lengthAdjust="spacingAndGlyphs" textLength="97" x="1593.5" y="572.1543">VerticesFactory</text><!--MD5=[9af66c322c1a3c2f0b44834865e098f3]
class XmLRecorder--><rect fill="#FEFECE" filter="url(#fqxmx5kvdl6fy)" height="32" id="XmLRecorder" style="stroke: #A80036; stroke-width: 1.5;" width="113" x="518.5" y="700"/><ellipse cx="533.5" cy="716" fill="#ADD1B2" rx="11" ry="11" style="stroke: #A80036; stroke-width: 1.0;"/><path d="M536.4688,721.6406 Q535.8906,721.9375 535.25,722.0781 Q534.6094,722.2344 533.9063,722.2344 Q531.4063,722.2344 530.0781,720.5938 Q528.7656,718.9375 528.7656,715.8125 Q528.7656,712.6875 530.0781,711.0313 Q531.4063,709.375 533.9063,709.375 Q534.6094,709.375 535.25,709.5313 Q535.9063,709.6875 536.4688,709.9844 L536.4688,712.7031 Q535.8438,712.125 535.25,711.8594 Q534.6563,711.5781 534.0313,711.5781 Q532.6875,711.5781 532,712.6563 Q531.3125,713.7188 531.3125,715.8125 Q531.3125,717.9063 532,718.9844 Q532.6875,720.0469 534.0313,720.0469 Q534.6563,720.0469 535.25,719.7813 Q535.8438,719.5 536.4688,718.9219 L536.4688,721.6406 Z "/><text fill="#000000" font-family="sans-serif" font-size="12" lengthAdjust="spacingAndGlyphs" textLength="81" x="547.5" y="720.1543">XmLRecorder</text><!--MD5=[a2efe13f97b9395dfb70e2255bd52698]
class IRecorder--><rect fill="#FEFECE" filter="url(#fqxmx5kvdl6fy)" height="32" id="IRecorder" style="stroke: #A80036; stroke-width: 1.5;" width="93" x="524.5" y="552"/><ellipse cx="539.5" cy="568" fill="#B4A7E5" rx="11" ry="11" style="stroke: #A80036; stroke-width: 1.0;"/><path d="M535.4219,563.7656 L535.4219,561.6094 L542.8125,561.6094 L542.8125,563.7656 L540.3438,563.7656 L540.3438,571.8438 L542.8125,571.8438 L542.8125,574 L535.4219,574 L535.4219,571.8438 L537.8906,571.8438 L537.8906,563.7656 L535.4219,563.7656 Z "/><text fill="#000000" font-family="sans-serif" font-size="12" font-style="italic" lengthAdjust="spacingAndGlyphs" textLength="61" x="553.5" y="572.1543">IRecorder</text><!--MD5=[68c26e8dbee30e67a392826e30173ce1]
class HDF5Recorder--><rect fill="#FEFECE" filter="url(#fqxmx5kvdl6fy)" height="32" id="HDF5Recorder" style="stroke: #A80036; stroke-width: 1.5;" width="122" x="361" y="700"/><ellipse cx="376" cy="716" fill="#ADD1B2" rx="11" ry="11" style="stroke: #A80036; stroke-width: 1.0;"/><path d="M378.9688,721.6406 Q378.3906,721.9375 377.75,722.0781 Q377.1094,722.2344 376.4063,722.2344 Q373.9063,722.2344 372.5781,720.5938 Q371.2656,718.9375 371.2656,715.8125 Q371.2656,712.6875 372.5781,711.0313 Q373.9063,709.375 376.4063,709.375 Q377.1094,709.375 377.75,709.5313 Q378.4063,709.6875 378.9688,709.9844 L378.9688,712.7031 Q378.3438,712.125 377.75,711.8594 Q377.1563,711.5781 376.5313,711.5781 Q375.1875,711.5781 374.5,712.6563 Q373.8125,713.7188 373.8125,715.8125 Q373.8125,717.9063 374.5,718.9844 Q375.1875,720.0469 376.5313,720.0469 Q377.1563,720.0469 377.75,719.7813 Q378.3438,719.5 378.9688,718.9219 L378.9688,721.6406 Z "/><text fill="#000000" font-family="sans-serif" font-size="12" lengthAdjust="spacingAndGlyphs" textLength="90" x="390" y="720.1543">HDF5Recorder</text><!--MD5=[c3e0b6f9949d2074781ec6fef8f97457]
class XmlGrowthRecroder--><rect fill="#FEFECE" filter="url(#fqxmx5kvdl6fy)" height="32" id="XmlGrowthRecroder" style="stroke: #A80036; stroke-width: 1.5;" width="154" x="462" y="809"/><ellipse cx="477" cy="825" fill="#ADD1B2" rx="11" ry="11" style="stroke: #A80036; stroke-width: 1.0;"/><path d="M479.9688,830.6406 Q479.3906,830.9375 478.75,831.0781 Q478.1094,831.2344 477.4063,831.2344 Q474.9063,831.2344 473.5781,829.5938 Q472.2656,827.9375 472.2656,824.8125 Q472.2656,821.6875 473.5781,820.0313 Q474.9063,818.375 477.4063,818.375 Q478.1094,818.375 478.75,818.5313 Q479.4063,818.6875 479.9688,818.9844 L479.9688,821.7031 Q479.3438,821.125 478.75,820.8594 Q478.1563,820.5781 477.5313,820.5781 Q476.1875,820.5781 475.5,821.6563 Q474.8125,822.7188 474.8125,824.8125 Q474.8125,826.9063 475.5,827.9844 Q476.1875,829.0469 477.5313,829.0469 Q478.1563,829.0469 478.75,828.7813 Q479.3438,828.5 479.9688,827.9219 L479.9688,830.6406 Z "/><text fill="#000000" font-family="sans-serif" font-size="12" lengthAdjust="spacingAndGlyphs" textLength="122" x="491" y="829.1543">XmlGrowthRecroder</text><!--MD5=[af68557a962a5f1f7548a7e590f8fd62]
class Hdf5GrowthRecorder--><rect fill="#FEFECE" filter="url(#fqxmx5kvdl6fy)" height="32" id="Hdf5GrowthRecorder" style="stroke: #A80036; stroke-width: 1.5;" width="162" x="228" y="809"/><ellipse cx="243" cy="825" fill="#ADD1B2" rx="11" ry="11" style="stroke: #A80036; stroke-width: 1.0;"/><path d="M245.9688,830.6406 Q245.3906,830.9375 244.75,831.0781 Q244.1094,831.2344 243.4063,831.2344 Q240.9063,831.2344 239.5781,829.5938 Q238.2656,827.9375 238.2656,824.8125 Q238.2656,821.6875 239.5781,820.0313 Q240.9063,818.375 243.4063,818.375 Q244.1094,818.375 244.75,818.5313 Q245.4063,818.6875 245.9688,818.9844 L245.9688,821.7031 Q245.3438,821.125 244.75,820.8594 Q244.1563,820.5781 243.5313,820.5781 Q242.1875,820.5781 241.5,821.6563 Q240.8125,822.7188 240.8125,824.8125 Q240.8125,826.9063 241.5,827.9844 Q242.1875,829.0469 243.5313,829.0469 Q244.1563,829.0469 244.75,828.7813 Q245.3438,828.5 245.9688,827.9219 L245.9688,830.6406 Z "/><text fill="#000000" font-family="sans-serif" font-size="12" lengthAdjust="spacingAndGlyphs" textLength="130" x="257" y="829.1543">Hdf5GrowthRecorder</text><!--MD5=[5309de41de0463c67105d9e754563b77]
class RecordersFactory--><rect fill="#FEFECE" filter="url(#fqxmx5kvdl6fy)" height="32" id="RecordersFactory" style="stroke: #A80036; stroke-width: 1.5;" width="142" x="351" y="1013"/><ellipse cx="366" cy="1029" fill="#ADD1B2" rx="11" ry="11" style="stroke: #A80036; stroke-width: 1.0;"/><path d="M368.9688,1034.6406 Q368.3906,1034.9375 367.75,1035.0781 Q367.1094,1035.2344 366.4063,1035.2344 Q363.9063,1035.2344 362.5781,1033.5938 Q361.2656,1031.9375 361.2656,1028.8125 Q361.2656,1025.6875 362.5781,1024.0313 Q363.9063,1022.375 366.4063,1022.375 Q367.1094,1022.375 367.75,1022.5313 Q368.4063,1022.6875 368.9688,1022.9844 L368.9688,1025.7031 Q368.3438,1025.125 367.75,1024.8594 Q367.1563,1024.5781 366.5313,1024.5781 Q365.1875,1024.5781 364.5,1025.6563 Q363.8125,1026.7188 363.8125,1028.8125 Q363.8125,1030.9063 364.5,1031.9844 Q365.1875,1033.0469 366.5313,1033.0469 Q367.1563,1033.0469 367.75,1032.7813 Q368.3438,1032.5 368.9688,1031.9219 L368.9688,1034.6406 Z "/><text fill="#000000" font-family="sans-serif" font-size="12" lengthAdjust="spacingAndGlyphs" textLength="110" x="380" y="1033.1543">RecordersFactory</text><!--MD5=[b671e9144a70d5380b4364952f259167]
class ConnStatic--><rect fill="#FEFECE" filter="url(#fqxmx5kvdl6fy)" height="32" id="ConnStatic" style="stroke: #A80036; stroke-width: 1.5;" width="100" x="783" y="700"/><ellipse cx="798" cy="716" fill="#ADD1B2" rx="11" ry="11" style="stroke: #A80036; stroke-width: 1.0;"/><path d="M800.9688,721.6406 Q800.3906,721.9375 799.75,722.0781 Q799.1094,722.2344 798.4063,722.2344 Q795.9063,722.2344 794.5781,720.5938 Q793.2656,718.9375 793.2656,715.8125 Q793.2656,712.6875 794.5781,711.0313 Q795.9063,709.375 798.4063,709.375 Q799.1094,709.375 799.75,709.5313 Q800.4063,709.6875 800.9688,709.9844 L800.9688,712.7031 Q800.3438,712.125 799.75,711.8594 Q799.1563,711.5781 798.5313,711.5781 Q797.1875,711.5781 796.5,712.6563 Q795.8125,713.7188 795.8125,715.8125 Q795.8125,717.9063 796.5,718.9844 Q797.1875,720.0469 798.5313,720.0469 Q799.1563,720.0469 799.75,719.7813 Q800.3438,719.5 800.9688,718.9219 L800.9688,721.6406 Z "/><text fill="#000000" font-family="sans-serif" font-size="12" lengthAdjust="spacingAndGlyphs" textLength="68" x="812" y="720.1543">ConnStatic</text><!--MD5=[24bb951fb6b9ac52df1580923e830244]
class Connections--><rect fill="#FEFECE" filter="url(#fqxmx5kvdl6fy)" height="32" id="Connections" style="stroke: #A80036; stroke-width: 1.5;" width="109" x="916.5" y="552"/><ellipse cx="931.5" cy="568" fill="#B4A7E5" rx="11" ry="11" style="stroke: #A80036; stroke-width: 1.0;"/><path d="M927.4219,563.7656 L927.4219,561.6094 L934.8125,561.6094 L934.8125,563.7656 L932.3438,563.7656 L932.3438,571.8438 L934.8125,571.8438 L934.8125,574 L927.4219,574 L927.4219,571.8438 L929.8906,571.8438 L929.8906,563.7656 L927.4219,563.7656 Z "/><text fill="#000000" font-family="sans-serif" font-size="12" font-style="italic" lengthAdjust="spacingAndGlyphs" textLength="77" x="945.5" y="572.1543">Connections</text><!--MD5=[540eab1ed52846d003b47757435df453]
class ConnGrowth--><rect fill="#FEFECE" filter="url(#fqxmx5kvdl6fy)" height="32" id="ConnGrowth" style="stroke: #A80036; stroke-width: 1.5;" width="108" x="918" y="700"/><ellipse cx="933" cy="716" fill="#ADD1B2" rx="11" ry="11" style="stroke: #A80036; stroke-width: 1.0;"/><path d="M935.9688,721.6406 Q935.3906,721.9375 934.75,722.0781 Q934.1094,722.2344 933.4063,722.2344 Q930.9063,722.2344 929.5781,720.5938 Q928.2656,718.9375 928.2656,715.8125 Q928.2656,712.6875 929.5781,711.0313 Q930.9063,709.375 933.4063,709.375 Q934.1094,709.375 934.75,709.5313 Q935.4063,709.6875 935.9688,709.9844 L935.9688,712.7031 Q935.3438,712.125 934.75,711.8594 Q934.1563,711.5781 933.5313,711.5781 Q932.1875,711.5781 931.5,712.6563 Q930.8125,713.7188 930.8125,715.8125 Q930.8125,717.9063 931.5,718.9844 Q932.1875,720.0469 933.5313,720.0469 Q934.1563,720.0469 934.75,719.7813 Q935.3438,719.5 935.9688,718.9219 L935.9688,721.6406 Z "/><text fill="#000000" font-family="sans-serif" font-size="12" lengthAdjust="spacingAndGlyphs" textLength="76" x="947" y="720.1543">ConnGrowth</text><!--MD5=[07560c205a8067cf69726ad645fec973]
class ConnectionsFactory--><rect fill="#FEFECE" filter="url(#fqxmx5kvdl6fy)" height="32" id="ConnectionsFactory" style="stroke: #A80036; stroke-width: 1.5;" width="156" x="783" y="809"/><ellipse cx="798" cy="825" fill="#ADD1B2" rx="11" ry="11" style="stroke: #A80036; stroke-width: 1.0;"/><path d="M800.9688,830.6406 Q800.3906,830.9375 799.75,831.0781 Q799.1094,831.2344 798.4063,831.2344 Q795.9063,831.2344 794.5781,829.5938 Q793.2656,827.9375 793.2656,824.8125 Q793.2656,821.6875 794.5781,820.0313 Q795.9063,818.375 798.4063,818.375 Q799.1094,818.375 799.75,818.5313 Q800.4063,818.6875 800.9688,818.9844 L800.9688,821.7031 Q800.3438,821.125 799.75,820.8594 Q799.1563,820.5781 798.5313,820.5781 Q797.1875,820.5781 796.5,821.6563 Q795.8125,822.7188 795.8125,824.8125 Q795.8125,826.9063 796.5,827.9844 Q797.1875,829.0469 798.5313,829.0469 Q799.1563,829.0469 799.75,828.7813 Q800.3438,828.5 800.9688,827.9219 L800.9688,830.6406 Z "/><text fill="#000000" font-family="sans-serif" font-size="12" lengthAdjust="spacingAndGlyphs" textLength="124" x="812" y="829.1543">ConnectionsFactory</text><!--MD5=[96f31d00847e9628d93d2720c47b9604]
class AllNeuroEdges--><rect fill="#FEFECE" filter="url(#fqxmx5kvdl6fy)" height="32" id="AllNeuroEdges" style="stroke: #A80036; stroke-width: 1.5;" width="123" x="1225.5" y="809"/><ellipse cx="1240.5" cy="825" fill="#ADD1B2" rx="11" ry="11" style="stroke: #A80036; stroke-width: 1.0;"/><path d="M1243.4688,830.6406 Q1242.8906,830.9375 1242.25,831.0781 Q1241.6094,831.2344 1240.9063,831.2344 Q1238.4063,831.2344 1237.0781,829.5938 Q1235.7656,827.9375 1235.7656,824.8125 Q1235.7656,821.6875 1237.0781,820.0313 Q1238.4063,818.375 1240.9063,818.375 Q1241.6094,818.375 1242.25,818.5313 Q1242.9063,818.6875 1243.4688,818.9844 L1243.4688,821.7031 Q1242.8438,821.125 1242.25,820.8594 Q1241.6563,820.5781 1241.0313,820.5781 Q1239.6875,820.5781 1239,821.6563 Q1238.3125,822.7188 1238.3125,824.8125 Q1238.3125,826.9063 1239,827.9844 Q1239.6875,829.0469 1241.0313,829.0469 Q1241.6563,829.0469 1242.25,828.7813 Q1242.8438,828.5 1243.4688,827.9219 L1243.4688,830.6406 Z "/><text fill="#000000" font-family="sans-serif" font-size="12" lengthAdjust="spacingAndGlyphs" textLength="91" x="1254.5" y="829.1543">AllNeuroEdges</text><!--MD5=[06f12ec46b87224fd0e1c514fed4a6e4]
class AllEdges--><rect fill="#FEFECE" filter="url(#fqxmx5kvdl6fy)" height="32" id="AllEdges" style="stroke: #A80036; stroke-width: 1.5;" width="84" x="1188" y="700"/><ellipse cx="1203" cy="716" fill="#B4A7E5" rx="11" ry="11" style="stroke: #A80036; stroke-width: 1.0;"/><path d="M1198.9219,711.7656 L1198.9219,709.6094 L1206.3125,709.6094 L1206.3125,711.7656 L1203.8438,711.7656 L1203.8438,719.8438 L1206.3125,719.8438 L1206.3125,722 L1198.9219,722 L1198.9219,719.8438 L1201.3906,719.8438 L1201.3906,711.7656 L1198.9219,711.7656 Z "/><text fill="#000000" font-family="sans-serif" font-size="12" font-style="italic" lengthAdjust="spacingAndGlyphs" textLength="52" x="1217" y="720.1543">AllEdges</text><!--MD5=[cfe37ad1a50a7dcaaf80645f5fb9fa69]
class AllSpikingSynapses--><rect fill="#FEFECE" filter="url(#fqxmx5kvdl6fy)" height="32" id="AllSpikingSynapses" style="stroke: #A80036; stroke-width: 1.5;" width="151" x="1235.5" y="920"/><ellipse cx="1250.5" cy="936" fill="#ADD1B2" rx="11" ry="11" style="stroke: #A80036; stroke-width: 1.0;"/><path d="M1253.4688,941.6406 Q1252.8906,941.9375 1252.25,942.0781 Q1251.6094,942.2344 1250.9063,942.2344 Q1248.4063,942.2344 1247.0781,940.5938 Q1245.7656,938.9375 1245.7656,935.8125 Q1245.7656,932.6875 1247.0781,931.0313 Q1248.4063,929.375 1250.9063,929.375 Q1251.6094,929.375 1252.25,929.5313 Q1252.9063,929.6875 1253.4688,929.9844 L1253.4688,932.7031 Q1252.8438,932.125 1252.25,931.8594 Q1251.6563,931.5781 1251.0313,931.5781 Q1249.6875,931.5781 1249,932.6563 Q1248.3125,933.7188 1248.3125,935.8125 Q1248.3125,937.9063 1249,938.9844 Q1249.6875,940.0469 1251.0313,940.0469 Q1251.6563,940.0469 1252.25,939.7813 Q1252.8438,939.5 1253.4688,938.9219 L1253.4688,941.6406 Z "/><text fill="#000000" font-family="sans-serif" font-size="12" lengthAdjust="spacingAndGlyphs" textLength="119" x="1264.5" y="940.1543">AllSpikingSynapses</text><!--MD5=[635988d62f36dba7a8b9baa086d12f03]
class AllSTDPSynapses--><rect fill="#FEFECE" filter="url(#fqxmx5kvdl6fy)" height="32" id="AllSTDPSynapses" style="stroke: #A80036; stroke-width: 1.5;" width="138" x="1242" y="1013"/><ellipse cx="1257" cy="1029" fill="#ADD1B2" rx="11" ry="11" style="stroke: #A80036; stroke-width: 1.0;"/><path d="M1259.9688,1034.6406 Q1259.3906,1034.9375 1258.75,1035.0781 Q1258.1094,1035.2344 1257.4063,1035.2344 Q1254.9063,1035.2344 1253.5781,1033.5938 Q1252.2656,1031.9375 1252.2656,1028.8125 Q1252.2656,1025.6875 1253.5781,1024.0313 Q1254.9063,1022.375 1257.4063,1022.375 Q1258.1094,1022.375 1258.75,1022.5313 Q1259.4063,1022.6875 1259.9688,1022.9844 L1259.9688,1025.7031 Q1259.3438,1025.125 1258.75,1024.8594 Q1258.1563,1024.5781 1257.5313,1024.5781 Q1256.1875,1024.5781 1255.5,1025.6563 Q1254.8125,1026.7188 1254.8125,1028.8125 Q1254.8125,1030.9063 1255.5,1031.9844 Q1256.1875,1033.0469 1257.5313,1033.0469 Q1258.1563,1033.0469 1258.75,1032.7813 Q1259.3438,1032.5 1259.9688,1031.9219 L1259.9688,1034.6406 Z "/><text fill="#000000" font-family="sans-serif" font-size="12" lengthAdjust="spacingAndGlyphs" textLength="106" x="1271" y="1033.1543">AllSTDPSynapses</text><!--MD5=[935a686a552498c9fe3db149d943753f]
class AllDSSynapses--><rect fill="#FEFECE" filter="url(#fqxmx5kvdl6fy)" height="32" id="AllDSSynapses" style="stroke: #A80036; stroke-width: 1.5;" width="123" x="1462.5" y="1013"/><ellipse cx="1477.5" cy="1029" fill="#ADD1B2" rx="11" ry="11" style="stroke: #A80036; stroke-width: 1.0;"/><path d="M1480.4688,1034.6406 Q1479.8906,1034.9375 1479.25,1035.0781 Q1478.6094,1035.2344 1477.9063,1035.2344 Q1475.4063,1035.2344 1474.0781,1033.5938 Q1472.7656,1031.9375 1472.7656,1028.8125 Q1472.7656,1025.6875 1474.0781,1024.0313 Q1475.4063,1022.375 1477.9063,1022.375 Q1478.6094,1022.375 1479.25,1022.5313 Q1479.9063,1022.6875 1480.4688,1022.9844 L1480.4688,1025.7031 Q1479.8438,1025.125 1479.25,1024.8594 Q1478.6563,1024.5781 1478.0313,1024.5781 Q1476.6875,1024.5781 1476,1025.6563 Q1475.3125,1026.7188 1475.3125,1028.8125 Q1475.3125,1030.9063 1476,1031.9844 Q1476.6875,1033.0469 1478.0313,1033.0469 Q1478.6563,1033.0469 1479.25,1032.7813 Q1479.8438,1032.5 1480.4688,1031.9219 L1480.4688,1034.6406 Z "/><text fill="#000000" font-family="sans-serif" font-size="12" lengthAdjust="spacingAndGlyphs" textLength="91" x="1491.5" y="1033.1543">AllDSSynapses</text><!--MD5=[fd6ea4ca2934104fc4a12eb686a910c8]
class AllDynamicsSTDPSynapses--><rect fill="#FEFECE" filter="url(#fqxmx5kvdl6fy)" height="32" id="AllDynamicsSTDPSynapses" style="stroke: #A80036; stroke-width: 1.5;" width="197" x="1132.5" y="1124"/><ellipse cx="1147.5" cy="1140" fill="#ADD1B2" rx="11" ry="11" style="stroke: #A80036; stroke-width: 1.0;"/><path d="M1150.4688,1145.6406 Q1149.8906,1145.9375 1149.25,1146.0781 Q1148.6094,1146.2344 1147.9063,1146.2344 Q1145.4063,1146.2344 1144.0781,1144.5938 Q1142.7656,1142.9375 1142.7656,1139.8125 Q1142.7656,1136.6875 1144.0781,1135.0313 Q1145.4063,1133.375 1147.9063,1133.375 Q1148.6094,1133.375 1149.25,1133.5313 Q1149.9063,1133.6875 1150.4688,1133.9844 L1150.4688,1136.7031 Q1149.8438,1136.125 1149.25,1135.8594 Q1148.6563,1135.5781 1148.0313,1135.5781 Q1146.6875,1135.5781 1146,1136.6563 Q1145.3125,1137.7188 1145.3125,1139.8125 Q1145.3125,1141.9063 1146,1142.9844 Q1146.6875,1144.0469 1148.0313,1144.0469 Q1148.6563,1144.0469 1149.25,1143.7813 Q1149.8438,1143.5 1150.4688,1142.9219 L1150.4688,1145.6406 Z "/><text fill="#000000" font-family="sans-serif" font-size="12" lengthAdjust="spacingAndGlyphs" textLength="165" x="1161.5" y="1144.1543">AllDynamicsSTDPSynapses</text><!--MD5=[2137c854024e09e8076c84fb007b1c3c]
class EdgesFactory--><rect fill="#FEFECE" filter="url(#fqxmx5kvdl6fy)" height="32" id="EdgesFactory" style="stroke: #A80036; stroke-width: 1.5;" width="117" x="1298.5" y="1233"/><ellipse cx="1313.5" cy="1249" fill="#ADD1B2" rx="11" ry="11" style="stroke: #A80036; stroke-width: 1.0;"/><path d="M1316.4688,1254.6406 Q1315.8906,1254.9375 1315.25,1255.0781 Q1314.6094,1255.2344 1313.9063,1255.2344 Q1311.4063,1255.2344 1310.0781,1253.5938 Q1308.7656,1251.9375 1308.7656,1248.8125 Q1308.7656,1245.6875 1310.0781,1244.0313 Q1311.4063,1242.375 1313.9063,1242.375 Q1314.6094,1242.375 1315.25,1242.5313 Q1315.9063,1242.6875 1316.4688,1242.9844 L1316.4688,1245.7031 Q1315.8438,1245.125 1315.25,1244.8594 Q1314.6563,1244.5781 1314.0313,1244.5781 Q1312.6875,1244.5781 1312,1245.6563 Q1311.3125,1246.7188 1311.3125,1248.8125 Q1311.3125,1250.9063 1312,1251.9844 Q1312.6875,1253.0469 1314.0313,1253.0469 Q1314.6563,1253.0469 1315.25,1252.7813 Q1315.8438,1252.5 1316.4688,1251.9219 L1316.4688,1254.6406 Z "/><text fill="#000000" font-family="sans-serif" font-size="12" lengthAdjust="spacingAndGlyphs" textLength="85" x="1327.5" y="1253.1543">EdgesFactory</text><!--MD5=[973c6b7f5e030bba668bdd48ca021633]
reverse link Model to CPUSpikingModel--><path d="M342.5,127.2 C342.5,127.2 342.5,167.99 342.5,167.99 " fill="none" id="Model&lt;-CPUSpikingModel" style="stroke: #A80036; stroke-width: 1.0; stroke-dasharray: 7.0,7.0;"/><polygon fill="none" points="335.5,127.2,342.5,107.2,349.5,127.2,335.5,127.2" style="stroke: #A80036; stroke-width: 1.0;"/><!--MD5=[9b59bd471ffb8f31c7aa79faa06b052a]
reverse link Model to GPUSpikingModel--><path d="M291.14,91 C291.14,91 129,91 129,91 C129,91 129,141.16 129,167.8 " fill="none" id="Model&lt;-GPUSpikingModel" style="stroke: #A80036; stroke-width: 1.0; stroke-dasharray: 7.0,7.0;"/><polygon fill="none" points="291.14,84,311.14,91,291.14,98,291.14,84" style="stroke: #A80036; stroke-width: 1.0;"/><!--MD5=[4261885617cbc7ccae7bbabfb2558444]
link Model to Simulator--><path d="M380.5,91 C380.5,91 402.45,91 402.45,91 " fill="none" id="Model-&gt;Simulator" style="stroke: #A80036; stroke-width: 1.0;"/><polygon fill="#FFFFFF" points="415.45,91,409.45,87,403.45,91,409.45,95,415.45,91" style="stroke: #A80036; stroke-width: 1.0;"/><!--MD5=[b4641bc02d5d8efe33d6033ed44bd980]
reverse link OperationManager to Operations--><path d="M356.15,293 C356.15,293 334.58,293 334.58,293 " fill="none" id="OperationManager&lt;-Operations" style="stroke: #A80036; stroke-width: 1.0;"/><polygon fill="#FFFFFF" points="369.15,293,363.15,289,357.15,293,363.15,297,369.15,293" style="stroke: #A80036; stroke-width: 1.0;"/><!--MD5=[e98819c6fcc605915f2efaee3c857d02]
link Simulator to OperationManager--><path d="M461,107.19 C461,107.19 461,271.73 461,271.73 " fill="none" id="Simulator-&gt;OperationManager" style="stroke: #A80036; stroke-width: 1.0;"/><polygon fill="#A80036" points="461,276.73,465,267.73,461,271.73,457,267.73,461,276.73" style="stroke: #A80036; stroke-width: 1.0;"/><text fill="#000000" font-family="sans-serif" font-size="13" lengthAdjust="spacingAndGlyphs" textLength="72" x="445" y="188.5669">commands</text><!--MD5=[b35dc4a9eded40af5f77166015eedcf0]
link CPUSpikingModel to GPUSpikingModel--><!--MD5=[1cea4de5324fc0a8457098da950d03ec]
link CPUSpikingModel to Operations--><!--MD5=[9593627a9002a106d0f96da7ffbf61a2]
link OperationManager to ParameterManager--><!--MD5=[891067ebdc7a855417ab5d2553f427ef]
reverse link Layout to FixedLayout--><path d="M1219.5,127.2 C1219.5,127.2 1219.5,167.99 1219.5,167.99 " fill="none" id="Layout&lt;-FixedLayout" style="stroke: #A80036; stroke-width: 1.0; stroke-dasharray: 7.0,7.0;"/><polygon fill="none" points="1212.5,127.2,1219.5,107.2,1226.5,127.2,1212.5,127.2" style="stroke: #A80036; stroke-width: 1.0;"/><!--MD5=[7269b632a17f4028eba21f1bd63939ed]
reverse link Layout to DynamicLayout--><path d="M1149.15,104 C1149.15,104 1057,104 1057,104 C1057,104 1057,144.43 1057,167.81 " fill="none" id="Layout&lt;-DynamicLayout" style="stroke: #A80036; stroke-width: 1.0; stroke-dasharray: 7.0,7.0;"/><polygon fill="none" points="1149.15,97,1169.15,104,1149.15,111,1149.15,97" style="stroke: #A80036; stroke-width: 1.0;"/><!--MD5=[46eb6d5f62098a9931e8efdb8e99157c]
reverse link FixedLayout to LayoutsFactory--><path d="M1171.25,205.08 C1171.25,205.08 1171.25,293 1171.25,293 C1171.25,293 1146.56,293 1120.14,293 " fill="none" id="FixedLayout&lt;-LayoutsFactory" style="stroke: #A80036; stroke-width: 1.0;"/><polygon fill="#A80036" points="1171.25,200.08,1167.25,209.08,1171.25,205.08,1175.25,209.08,1171.25,200.08" style="stroke: #A80036; stroke-width: 1.0;"/><text fill="#000000" font-family="sans-serif" font-size="13" lengthAdjust="spacingAndGlyphs" textLength="75" x="1180" y="243.0669">instantiates</text><!--MD5=[c9003fa7673fea298ac6dea79519d34f]
reverse link DynamicLayout to LayoutsFactory--><path d="M1057,205.08 C1057,205.08 1057,276.85 1057,276.85 " fill="none" id="DynamicLayout&lt;-LayoutsFactory" style="stroke: #A80036; stroke-width: 1.0;"/><polygon fill="#A80036" points="1057,200.08,1053,209.08,1057,205.08,1061,209.08,1057,200.08" style="stroke: #A80036; stroke-width: 1.0;"/><text fill="#000000" font-family="sans-serif" font-size="13" lengthAdjust="spacingAndGlyphs" textLength="75" x="1058" y="243.0669">instantiates</text><!--MD5=[f591e114573ccd2409f159b73ea72911]
reverse link AllVertices to AllSpikingNeurons--><path d="M1629,127.2 C1629,127.2 1629,167.99 1629,167.99 " fill="none" id="AllVertices&lt;-AllSpikingNeurons" style="stroke: #A80036; stroke-width: 1.0; stroke-dasharray: 7.0,7.0;"/><polygon fill="none" points="1622,127.2,1629,107.2,1636,127.2,1622,127.2" style="stroke: #A80036; stroke-width: 1.0;"/><!--MD5=[8724fdcf162cd93143062af7a28861a5]
reverse link AllSpikingNeurons to AllIFNeurons--><path d="M1636,220.08 C1636,220.08 1636,276.85 1636,276.85 " fill="none" id="AllSpikingNeurons&lt;-AllIFNeurons" style="stroke: #A80036; stroke-width: 1.0;"/><polygon fill="none" points="1629,220.08,1636,200.08,1643,220.08,1629,220.08" style="stroke: #A80036; stroke-width: 1.0;"/><!--MD5=[f5565d651accd6e6b1dad5fbc033ae63]
reverse link AllIFNeurons to AllLiFNeurons--><path d="M1630.5,329.38 C1630.5,329.38 1630.5,387.92 1630.5,387.92 " fill="none" id="AllIFNeurons&lt;-AllLiFNeurons" style="stroke: #A80036; stroke-width: 1.0;"/><polygon fill="none" points="1623.5,329.38,1630.5,309.38,1637.5,329.38,1623.5,329.38" style="stroke: #A80036; stroke-width: 1.0;"/><!--MD5=[62c6867a57863758a62158db896d0fc0]
reverse link AllIFNeurons to AllZHNeurons--><path d="M1686.83,329.1 C1686.83,329.1 1686.83,399 1686.83,399 C1686.83,399 1698.95,399 1714.1,399 " fill="none" id="AllIFNeurons&lt;-AllZHNeurons" style="stroke: #A80036; stroke-width: 1.0;"/><polygon fill="none" points="1679.83,329.1,1686.83,309.1,1693.83,329.1,1679.83,329.1" style="stroke: #A80036; stroke-width: 1.0;"/><!--MD5=[816076678d7e4925980428acffa4a6e0]
reverse link AllLiFNeurons to VerticesFactory--><path d="M1622,425.02 C1622,425.02 1622,551.67 1622,551.67 " fill="none" id="AllLiFNeurons&lt;-VerticesFactory" style="stroke: #A80036; stroke-width: 1.0;"/><polygon fill="#A80036" points="1622,420.02,1618,429.02,1622,425.02,1626,429.02,1622,420.02" style="stroke: #A80036; stroke-width: 1.0;"/><text fill="#000000" font-family="sans-serif" font-size="13" lengthAdjust="spacingAndGlyphs" textLength="75" x="1626" y="481.0669">instantiates</text><!--MD5=[3db3a0c82a3825d3c0c26b2962603658]
reverse link AllZHNeurons to VerticesFactory--><path d="M1709.33,410 C1709.33,410 1683.17,410 1683.17,410 C1683.17,410 1683.17,511.81 1683.17,551.98 " fill="none" id="AllZHNeurons&lt;-VerticesFactory" style="stroke: #A80036; stroke-width: 1.0;"/><polygon fill="#A80036" points="1714.33,410,1705.33,406,1709.33,410,1705.33,414,1714.33,410" style="stroke: #A80036; stroke-width: 1.0;"/><text fill="#000000" font-family="sans-serif" font-size="13" lengthAdjust="spacingAndGlyphs" textLength="75" x="1751" y="481.0669">instantiates</text><!--MD5=[a32c8dc18938f820152f805b5dcbc3e8]
reverse link IRecorder to XmLRecorder--><path d="M571,604.12 C571,604.12 571,699.9 571,699.9 " fill="none" id="IRecorder&lt;-XmLRecorder" style="stroke: #A80036; stroke-width: 1.0; stroke-dasharray: 7.0,7.0;"/><polygon fill="none" points="564,604.12,571,584.12,578,604.12,564,604.12" style="stroke: #A80036; stroke-width: 1.0;"/><!--MD5=[a0b975066a710a7895b5153868e55a27]
reverse link IRecorder to HDF5Recorder--><path d="M504.41,568 C504.41,568 423.75,568 423.75,568 C423.75,568 423.75,661.52 423.75,699.88 " fill="none" id="IRecorder&lt;-HDF5Recorder" style="stroke: #A80036; stroke-width: 1.0; stroke-dasharray: 7.0,7.0;"/><polygon fill="none" points="504.41,561,524.41,568,504.41,575,504.41,561" style="stroke: #A80036; stroke-width: 1.0;"/><!--MD5=[93e5a6ee61d1f05a63d1d290b5da68e0]
reverse link XmLRecorder to XmlGrowthRecroder--><path d="M567.25,752.08 C567.25,752.08 567.25,808.85 567.25,808.85 " fill="none" id="XmLRecorder&lt;-XmlGrowthRecroder" style="stroke: #A80036; stroke-width: 1.0;"/><polygon fill="none" points="560.25,752.08,567.25,732.08,574.25,752.08,560.25,752.08" style="stroke: #A80036; stroke-width: 1.0;"/><!--MD5=[9a9f80ee8e039ba0cdc0509d1d0ec35e]
reverse link HDF5Recorder to Hdf5GrowthRecorder--><path d="M375.5,752.08 C375.5,752.08 375.5,808.85 375.5,808.85 " fill="none" id="HDF5Recorder&lt;-Hdf5GrowthRecorder" style="stroke: #A80036; stroke-width: 1.0;"/><polygon fill="none" points="368.5,752.08,375.5,732.08,382.5,752.08,368.5,752.08" style="stroke: #A80036; stroke-width: 1.0;"/><!--MD5=[3af4f1eecf578f95c361f55f01de5f0e]
reverse link XmLRecorder to RecordersFactory--><path d="M623.75,737.13 C623.75,737.13 623.75,1024 623.75,1024 C623.75,1024 551.21,1024 493.13,1024 " fill="none" id="XmLRecorder&lt;-RecordersFactory" style="stroke: #A80036; stroke-width: 1.0;"/><polygon fill="#A80036" points="623.75,732.13,619.75,741.13,623.75,737.13,627.75,741.13,623.75,732.13" style="stroke: #A80036; stroke-width: 1.0;"/><text fill="#000000" font-family="sans-serif" font-size="13" lengthAdjust="spacingAndGlyphs" textLength="75" x="577" y="886.0669">instantiates</text><!--MD5=[427f0813d0781cf9b4a277c1904c7c53]
reverse link HDF5Recorder to RecordersFactory--><path d="M426,737.39 C426,737.39 426,1012.77 426,1012.77 " fill="none" id="HDF5Recorder&lt;-RecordersFactory" style="stroke: #A80036; stroke-width: 1.0;"/><polygon fill="#A80036" points="426,732.39,422,741.39,426,737.39,430,741.39,426,732.39" style="stroke: #A80036; stroke-width: 1.0;"/><text fill="#000000" font-family="sans-serif" font-size="13" lengthAdjust="spacingAndGlyphs" textLength="75" x="423" y="886.0669">instantiates</text><!--MD5=[ef7aead4e4de6a506f4bd6283eeb5cc2]
reverse link XmlGrowthRecroder to RecordersFactory--><path d="M477.5,846.01 C477.5,846.01 477.5,1012.78 477.5,1012.78 " fill="none" id="XmlGrowthRecroder&lt;-RecordersFactory" style="stroke: #A80036; stroke-width: 1.0;"/><polygon fill="#A80036" points="477.5,841.01,473.5,850.01,477.5,846.01,481.5,850.01,477.5,841.01" style="stroke: #A80036; stroke-width: 1.0;"/><text fill="#000000" font-family="sans-serif" font-size="13" lengthAdjust="spacingAndGlyphs" textLength="75" x="494" y="940.5669">instantiates</text><!--MD5=[4190e7fed19e1823e30f66c46aadd182]
reverse link Hdf5GrowthRecorder to RecordersFactory--><path d="M370.5,846.01 C370.5,846.01 370.5,1012.78 370.5,1012.78 " fill="none" id="Hdf5GrowthRecorder&lt;-RecordersFactory" style="stroke: #A80036; stroke-width: 1.0;"/><polygon fill="#A80036" points="370.5,841.01,366.5,850.01,370.5,846.01,374.5,850.01,370.5,841.01" style="stroke: #A80036; stroke-width: 1.0;"/><text fill="#000000" font-family="sans-serif" font-size="13" lengthAdjust="spacingAndGlyphs" textLength="75" x="310" y="940.5669">instantiates</text><!--MD5=[513ec0388948448dab3ce17eb36460f7]
reverse link Connections to ConnStatic--><path d="M896.46,577 C896.46,577 833,577 833,577 C833,577 833,663.12 833,699.78 " fill="none" id="Connections&lt;-ConnStatic" style="stroke: #A80036; stroke-width: 1.0; stroke-dasharray: 7.0,7.0;"/><polygon fill="none" points="896.46,570,916.46,577,896.46,584,896.46,570" style="stroke: #A80036; stroke-width: 1.0;"/><!--MD5=[10477add2578806cc5f98b33b8db5e65]
reverse link Connections to ConnGrowth--><path d="M971.75,604.12 C971.75,604.12 971.75,699.9 971.75,699.9 " fill="none" id="Connections&lt;-ConnGrowth" style="stroke: #A80036; stroke-width: 1.0; stroke-dasharray: 7.0,7.0;"/><polygon fill="none" points="964.75,604.12,971.75,584.12,978.75,604.12,964.75,604.12" style="stroke: #A80036; stroke-width: 1.0;"/><!--MD5=[ce8801c2acd2b0d49ec9478c2a92b972]
reverse link ConnStatic to ConnectionsFactory--><path d="M833,737.08 C833,737.08 833,808.85 833,808.85 " fill="none" id="ConnStatic&lt;-ConnectionsFactory" style="stroke: #A80036; stroke-width: 1.0;"/><polygon fill="#A80036" points="833,732.08,829,741.08,833,737.08,837,741.08,833,732.08" style="stroke: #A80036; stroke-width: 1.0;"/><text fill="#000000" font-family="sans-serif" font-size="13" lengthAdjust="spacingAndGlyphs" textLength="75" x="833" y="775.0669">instantiates</text><!--MD5=[de55930b9c422267ee87a004d94dc6e8]
reverse link ConnGrowth to ConnectionsFactory--><path d="M928.5,737.08 C928.5,737.08 928.5,808.85 928.5,808.85 " fill="none" id="ConnGrowth&lt;-ConnectionsFactory" style="stroke: #A80036; stroke-width: 1.0;"/><polygon fill="#A80036" points="928.5,732.08,924.5,741.08,928.5,737.08,932.5,741.08,928.5,732.08" style="stroke: #A80036; stroke-width: 1.0;"/><text fill="#000000" font-family="sans-serif" font-size="13" lengthAdjust="spacingAndGlyphs" textLength="75" x="950" y="775.0669">instantiates</text><!--MD5=[36cebae4583ca589f8881f15eca879f1]
reverse link AllEdges to AllNeuroEdges--><path d="M1248.75,752.08 C1248.75,752.08 1248.75,808.85 1248.75,808.85 " fill="none" id="AllEdges&lt;-AllNeuroEdges" style="stroke: #A80036; stroke-width: 1.0; stroke-dasharray: 7.0,7.0;"/><polygon fill="none" points="1241.75,752.08,1248.75,732.08,1255.75,752.08,1241.75,752.08" style="stroke: #A80036; stroke-width: 1.0;"/><!--MD5=[3d383143b8365dcb1c00482aec0d8f87]
reverse link AllNeuroEdges to AllSpikingSynapses--><path d="M1292,861.38 C1292,861.38 1292,919.92 1292,919.92 " fill="none" id="AllNeuroEdges&lt;-AllSpikingSynapses" style="stroke: #A80036; stroke-width: 1.0;"/><polygon fill="none" points="1285,861.38,1292,841.38,1299,861.38,1285,861.38" style="stroke: #A80036; stroke-width: 1.0;"/><!--MD5=[587b9d07fbc4fdda6579551662042140]
reverse link AllSpikingSynapses to AllSTDPSynapses--><path d="M1311,972.2 C1311,972.2 1311,1012.99 1311,1012.99 " fill="none" id="AllSpikingSynapses&lt;-AllSTDPSynapses" style="stroke: #A80036; stroke-width: 1.0;"/><polygon fill="none" points="1304,972.2,1311,952.2,1318,972.2,1304,972.2" style="stroke: #A80036; stroke-width: 1.0;"/><!--MD5=[f221506eaa2e129ebcab2e085332c1be]
reverse link AllSpikingSynapses to AllDSSynapses--><path d="M1406.54,936 C1406.54,936 1500.75,936 1500.75,936 C1500.75,936 1500.75,986.16 1500.75,1012.8 " fill="none" id="AllSpikingSynapses&lt;-AllDSSynapses" style="stroke: #A80036; stroke-width: 1.0;"/><polygon fill="none" points="1406.54,943,1386.54,936,1406.54,929,1406.54,943" style="stroke: #A80036; stroke-width: 1.0;"/><!--MD5=[b9dc5ca9d326f6b2e35f4ef44c514701]
reverse link AllSTDPSynapses to AllDynamicsSTDPSynapses--><path d="M1285.75,1065.38 C1285.75,1065.38 1285.75,1123.92 1285.75,1123.92 " fill="none" id="AllSTDPSynapses&lt;-AllDynamicsSTDPSynapses" style="stroke: #A80036; stroke-width: 1.0;"/><polygon fill="none" points="1278.75,1065.38,1285.75,1045.38,1292.75,1065.38,1278.75,1065.38" style="stroke: #A80036; stroke-width: 1.0;"/><!--MD5=[4407787554ed777fb67af52573db306c]
reverse link AllSTDPSynapses to EdgesFactory--><path d="M1354.75,1050.18 C1354.75,1050.18 1354.75,1232.8 1354.75,1232.8 " fill="none" id="AllSTDPSynapses&lt;-EdgesFactory" style="stroke: #A80036; stroke-width: 1.0;"/><polygon fill="#A80036" points="1354.75,1045.18,1350.75,1054.18,1354.75,1050.18,1358.75,1054.18,1354.75,1045.18" style="stroke: #A80036; stroke-width: 1.0;"/><text fill="#000000" font-family="sans-serif" font-size="13" lengthAdjust="spacingAndGlyphs" textLength="75" x="1401" y="1144.5669">instantiates</text><!--MD5=[541346a73ae12603d046e53bdf8cd025]
reverse link AllDSSynapses to EdgesFactory--><path d="M1457.49,1029 C1457.49,1029 1405.83,1029 1405.83,1029 C1405.83,1029 1405.83,1182.02 1405.83,1232.82 " fill="none" id="AllDSSynapses&lt;-EdgesFactory" style="stroke: #A80036; stroke-width: 1.0;"/><polygon fill="#A80036" points="1462.49,1029,1453.49,1025,1457.49,1029,1453.49,1033,1462.49,1029" style="stroke: #A80036; stroke-width: 1.0;"/><text fill="#000000" font-family="sans-serif" font-size="13" lengthAdjust="spacingAndGlyphs" textLength="75" x="1548" y="1144.5669">instantiates</text><!--MD5=[1104c1ad87384c985d15bad9d62e0bea]
reverse link AllDynamicsSTDPSynapses to EdgesFactory--><path d="M1314,1161.08 C1314,1161.08 1314,1232.85 1314,1232.85 " fill="none" id="AllDynamicsSTDPSynapses&lt;-EdgesFactory" style="stroke: #A80036; stroke-width: 1.0;"/><polygon fill="#A80036" points="1314,1156.08,1310,1165.08,1314,1161.08,1318,1165.08,1314,1156.08" style="stroke: #A80036; stroke-width: 1.0;"/><text fill="#000000" font-family="sans-serif" font-size="13" lengthAdjust="spacingAndGlyphs" textLength="75" x="1274" y="1199.0669">instantiates</text><!--MD5=[2c61cf99b0bec386ca840c193763b14a]
link Simulator to LayoutsFactory--><path d="M506.91,101 C522.24,101 535.5,101 535.5,101 C535.5,101 535.5,293 535.5,293 C535.5,293 988.84,293 988.84,293 " fill="none" id="Simulator-&gt;LayoutsFactory" style="stroke: #FF0000; stroke-width: 1.0;"/><polygon fill="#FF0000" points="993.84,293,984.84,289,988.84,293,984.84,297,993.84,293" style="stroke: #FF0000; stroke-width: 1.0;"/><text fill="#000000" font-family="sans-serif" font-size="13" lengthAdjust="spacingAndGlyphs" textLength="72" x="802" y="188.5669">commands</text><!--MD5=[54271b6078ede2b7f4d9940e12d64874]
link Simulator to ConnectionsFactory--><path d="M506.71,95 C619.09,95 899.75,95 899.75,95 C899.75,95 899.75,803.73 899.75,803.73 " fill="none" id="Simulator-&gt;ConnectionsFactory" style="stroke: #FF0000; stroke-width: 1.0;"/><polygon fill="#FF0000" points="899.75,808.73,903.75,799.73,899.75,803.73,895.75,799.73,899.75,808.73" style="stroke: #FF0000; stroke-width: 1.0;"/><text fill="#000000" font-family="sans-serif" font-size="13" lengthAdjust="spacingAndGlyphs" textLength="72" x="731" y="408.5669">commands</text><!--MD5=[b713f3d69270fc8ec7550a1fa12578d8]
link Simulator to RecordersFactory--><path d="M506.68,98 C563.68,98 653.75,98 653.75,98 C653.75,98 653.75,1035 653.75,1035 C653.75,1035 498.11,1035 498.11,1035 " fill="none" id="Simulator-&gt;RecordersFactory" style="stroke: #FF0000; stroke-width: 1.0;"/><polygon fill="#FF0000" points="493.11,1035,502.11,1039,498.11,1035,502.11,1031,493.11,1035" style="stroke: #FF0000; stroke-width: 1.0;"/><text fill="#000000" font-family="sans-serif" font-size="13" lengthAdjust="spacingAndGlyphs" textLength="72" x="7" y="572.5669">commands</text><!--MD5=[a911b337811af7fd7ce810fac5ac8c54]
reverse link Model to Layout--><path d="M377,120.34 C377,120.34 377,128 377,128 C377,128 1194.5,128 1194.5,128 C1194.5,128 1194.5,117.25 1194.5,107.34 " fill="none" id="Model&lt;-Layout" style="stroke: #FF0000; stroke-width: 1.0;"/><polygon fill="#FFFFFF" points="377,107.34,373,113.34,377,119.34,381,113.34,377,107.34" style="stroke: #FF0000; stroke-width: 1.0;"/><!--MD5=[0e5738770afdb953f3cb9465cb228f84]
reverse link Model to Connections--><path d="M378.75,120.2 C378.75,120.2 378.75,184 378.75,184 C378.75,184 955.25,184 955.25,184 C955.25,184 955.25,479.31 955.25,551.99 " fill="none" id="Model&lt;-Connections" style="stroke: #FF0000; stroke-width: 1.0;"/><polygon fill="#FFFFFF" points="378.75,107.2,374.75,113.2,378.75,119.2,382.75,113.2,378.75,107.2" style="stroke: #FF0000; stroke-width: 1.0;"/><!--MD5=[68c77613e519ddb3f64ca187dac87597]
reverse link Model to IRecorder--><path d="M375.25,120.18 C375.25,120.18 375.25,148 375.25,148 C375.25,148 530,148 530,148 C530,148 530,474.61 530,551.79 " fill="none" id="Model&lt;-IRecorder" style="stroke: #FF0000; stroke-width: 1.0;"/><polygon fill="#FFFFFF" points="375.25,107.18,371.25,113.18,375.25,119.18,379.25,113.18,375.25,107.18" style="stroke: #FF0000; stroke-width: 1.0;"/><!--MD5=[efb7ef13657b6fc949565044919673f3]
reverse link Layout to AllVertices--><path d="M1257.82,83 C1257.82,83 1580.89,83 1580.89,83 " fill="none" id="Layout&lt;-AllVertices" style="stroke: #FF0000; stroke-width: 1.0;"/><polygon fill="#FFFFFF" points="1244.82,83,1250.82,87,1256.82,83,1250.82,79,1244.82,83" style="stroke: #FF0000; stroke-width: 1.0;"/><!--MD5=[30ebdb8fe104fc5727699212f68639a3]
link Layout to VerticesFactory--><path d="M1244.54,100 C1256.05,100 1265.75,100 1265.75,100 C1265.75,100 1265.75,559 1265.75,559 C1265.75,559 1559.48,559 1559.48,559 " fill="none" id="Layout-&gt;VerticesFactory" style="stroke: #FF0000; stroke-width: 1.0;"/><polygon fill="#FF0000" points="1564.48,559,1555.48,555,1559.48,559,1555.48,563,1564.48,559" style="stroke: #FF0000; stroke-width: 1.0;"/><text fill="#000000" font-family="sans-serif" font-size="13" lengthAdjust="spacingAndGlyphs" textLength="72" x="1314" y="297.5669">commands</text><!--MD5=[25007e0d6d2bc2691ed586569b6b25e2]
reverse link Connections to AllEdges--><path d="M1038.53,578 C1038.53,578 1223.75,578 1223.75,578 C1223.75,578 1223.75,663.5 1223.75,699.9 " fill="none" id="Connections&lt;-AllEdges" style="stroke: #FF0000; stroke-width: 1.0;"/><polygon fill="#FFFFFF" points="1025.53,578,1031.53,582,1037.53,578,1031.53,574,1025.53,578" style="stroke: #FF0000; stroke-width: 1.0;"/><!--MD5=[485b9368dfec1399f74485e1b2980e82]
link Connections to EdgesFactory--><path d="M1025.71,572 C1140.54,572 1396.17,572 1396.17,572 C1396.17,572 1396.17,1227.93 1396.17,1227.93 " fill="none" id="Connections-&gt;EdgesFactory" style="stroke: #FF0000; stroke-width: 1.0;"/><polygon fill="#FF0000" points="1396.17,1232.93,1400.17,1223.93,1396.17,1227.93,1392.17,1223.93,1396.17,1232.93" style="stroke: #FF0000; stroke-width: 1.0;"/><text fill="#000000" font-family="sans-serif" font-size="13" lengthAdjust="spacingAndGlyphs" textLength="72" x="1080" y="940.5669">commands</text><!--MD5=[d95cba7a564e0eb2f945d9455f1e08a4]
link Core to Layouts--><!--MD5=[3a074d6a93e7e88a957dba9b80e50081]
link Layouts to Vertices--><!--MD5=[42be6bbbc523329e8d13badc94475598]
link Core to Recorders--><!--MD5=[9f00652237e409965a409b02122331f2]
link Layouts to Connections--><!--MD5=[e07bd046f8fc72b6c553dc19b1427184]
link Vertices to Edges--><!--MD5=[ba889aba9cfa2b73e5a844bb42e31e69]
@startuml package UML

skinparam linetype ortho
hide members

package Core{
   class Simulator
   class CPUSpikingModel implements Model
   class GPUSpikingModel implements Model
   class Operations
   class OperationManager 
   class ParameterManager 

   Model -left-o Simulator 
   Operations -right-o OperationManager   
   Simulator - - -> OperationManager : commands 
  
   CPUSpikingModel -[hidden]right> GPUSpikingModel
   CPUSpikingModel -[hidden]-> Operations
   OperationManager -[hidden]-> ParameterManager
}

package Layouts{
   class FixedLayout implements Layout
   class DynamicLayout implements Layout
   class LayoutsFactory
   FixedLayout <- - LayoutsFactory : instantiates
   DynamicLayout <- - LayoutsFactory : instantiates
}

package Vertices{
   class AllSpikingNeurons implements AllVertices
   class AllIFNeurons extends AllSpikingNeurons
   class AllLiFNeurons extends AllIFNeurons
   class AllZHNeurons extends AllIFNeurons
   class VerticesFactory 
   VerticesFactory -up-> AllLiFNeurons : instantiates
   VerticesFactory -up-> AllZHNeurons : instantiates
}

package Recorders{
   class  XmLRecorder implements IRecorder
   class HDF5Recorder implements IRecorder
   class XmlGrowthRecroder extends XmLRecorder
   class Hdf5GrowthRecorder extends HDF5Recorder
   class RecordersFactory
   XmLRecorder <- - RecordersFactory : instantiates
   HDF5Recorder <- - RecordersFactory : instantiates
   XmlGrowthRecroder <- - - RecordersFactory : instantiates
   Hdf5GrowthRecorder <- - - RecordersFactory : instantiates
}

package Connections{
   class ConnStatic implements Connections
   class ConnGrowth Implements Connections
   class ConnectionsFactory
   ConnectionsFactory - -up> ConnStatic : instantiates
   ConnectionsFactory - -up> ConnGrowth  : instantiates
}

package Edges{
   class AllNeuroEdges implements AllEdges
   class AllSpikingSynapses extends AllNeuroEdges
   class AllSTDPSynapses extends AllSpikingSynapses
   class AllDSSynapses extends AllSpikingSynapses
   class AllDynamicsSTDPSynapses extends AllSTDPSynapses
   class EdgesFactory
   EdgesFactory - -up-> AllSTDPSynapses : instantiates
   EdgesFactory - -up-> AllDSSynapses : instantiates
   EdgesFactory - -up> AllDynamicsSTDPSynapses : instantiates
}

Simulator -[#red]-> LayoutsFactory : commands
Simulator -[#red]- - - -> ConnectionsFactory: commands
Simulator -[#red]- - - -> RecordersFactory: commands
Model o-[#red] Layout
Model o-[#red]- - Connections
Model o-[#red]- - - IRecorder

Layout o-[#red] AllVertices
Layout -[#red]- - -> VerticesFactory : commands

Connections o-[#red]- AllEdges
Connections -[#red]- - -> EdgesFactory : commands

Core -[hidden]right>  Layouts
Layouts -[hidden]right> Vertices
Core -[hidden]down- - - -> Recorders
Layouts -[hidden]down- - - -> Connections
Vertices -[hidden]down- - - - -> Edges
@enduml

PlantUML version 1.2020.02(Sun Mar 01 10:22:07 GMT 2020)
(GPL source distribution)
Java Runtime: OpenJDK Runtime Environment
JVM: OpenJDK 64-Bit Server VM
Java Version: 11.0.9+11-Ubuntu-0ubuntu1
Operating System: Linux
Default Encoding: ANSI_X3.4-1968
Language: en
Country: US
--></g></svg>