<?xml version="1.0" encoding="UTF-8" standalone="no"?><svg xmlns="http://www.w3.org/2000/svg" xmlns:xlink="http://www.w3.org/1999/xlink" contentScriptType="application/ecmascript" contentStyleType="text/css" height="1836px" preserveAspectRatio="none" style="width:1908px;height:1836px;" version="1.1" viewBox="0 0 1908 1836" width="1908px" zoomAndPan="magnify"><defs><filter height="300%" id="fisg9343txvgt" width="300%" x="-1" y="-1"><feGaussianBlur result="blurOut" stdDeviation="2.0"/><feColorMatrix in="blurOut" result="blurOut2" type="matrix" values="0 0 0 0 0 0 0 0 0 0 0 0 0 0 0 0 0 0 .4 0"/><feOffset dx="4.0" dy="4.0" in="blurOut2" result="blurOut3"/><feBlend in="SourceGraphic" in2="blurOut3" mode="normal"/></filter></defs><g><text fill="#000000" font-family="sans-serif" font-size="18" lengthAdjust="spacingAndGlyphs" textLength="284" x="807.5" y="26.708">Graphitti General Program Flow</text><rect fill="#FFFFFF" filter="url(#fisg9343txvgt)" height="88.3984" style="stroke: #000000; stroke-width: 2.0;" width="1357" x="13" y="916.8359"/><rect fill="#FFFFFF" filter="url(#fisg9343txvgt)" height="383.7266" style="stroke: #000000; stroke-width: 2.0;" width="1693" x="193" y="1091.5"/><rect fill="#FFFFFF" filter="url(#fisg9343txvgt)" height="162.7969" style="stroke: #000000; stroke-width: 2.0;" width="1437" x="203" y="1157.7656"/><rect fill="#FFFFFF" filter="url(#fisg9343txvgt)" height="75.3984" style="stroke: #000000; stroke-width: 2.0;" width="949" x="421" y="1363.6953"/><rect fill="#FFFFFF" filter="url(#fisg9343txvgt)" height="59.2656" style="stroke: #000000; stroke-width: 2.0;" width="320" x="13" y="1547.4922"/><line style="stroke: #A80036; stroke-width: 1.0; stroke-dasharray: 5.0,5.0;" x1="52" x2="52" y1="73.25" y2="1796.4219"/><line style="stroke: #A80036; stroke-width: 1.0; stroke-dasharray: 5.0,5.0;" x1="254" x2="254" y1="73.25" y2="1796.4219"/><line style="stroke: #A80036; stroke-width: 1.0; stroke-dasharray: 5.0,5.0;" x1="461" x2="461" y1="73.25" y2="1796.4219"/><line style="stroke: #A80036; stroke-width: 1.0; stroke-dasharray: 5.0,5.0;" x1="619.5" x2="619.5" y1="73.25" y2="1796.4219"/><line style="stroke: #A80036; stroke-width: 1.0; stroke-dasharray: 5.0,5.0;" x1="719.5" x2="719.5" y1="73.25" y2="1796.4219"/><line style="stroke: #A80036; stroke-width: 1.0; stroke-dasharray: 5.0,5.0;" x1="907" x2="907" y1="73.25" y2="1796.4219"/><line style="stroke: #A80036; stroke-width: 1.0; stroke-dasharray: 5.0,5.0;" x1="1027" x2="1027" y1="73.25" y2="1796.4219"/><line style="stroke: #A80036; stroke-width: 1.0; stroke-dasharray: 5.0,5.0;" x1="1164" x2="1164" y1="73.25" y2="1796.4219"/><line style="stroke: #A80036; stroke-width: 1.0; stroke-dasharray: 5.0,5.0;" x1="1307" x2="1307" y1="73.25" y2="1796.4219"/><line style="stroke: #A80036; stroke-width: 1.0; stroke-dasharray: 5.0,5.0;" x1="1481" x2="1481" y1="73.25" y2="1796.4219"/><line style="stroke: #A80036; stroke-width: 1.0; stroke-dasharray: 5.0,5.0;" x1="1589" x2="1589" y1="73.25" y2="1796.4219"/><line style="stroke: #A80036; stroke-width: 1.0; stroke-dasharray: 5.0,5.0;" x1="1712" x2="1712" y1="73.25" y2="1796.4219"/><line style="stroke: #A80036; stroke-width: 1.0; stroke-dasharray: 5.0,5.0;" x1="1835" x2="1835" y1="73.25" y2="1796.4219"/><rect fill="#FEFECE" filter="url(#fisg9343txvgt)" height="30.2969" style="stroke: #A80036; stroke-width: 1.5;" width="54" x="23" y="37.9531"/><text fill="#000000" font-family="sans-serif" font-size="14" lengthAdjust="spacingAndGlyphs" textLength="40" x="30" y="57.9482">Driver</text><rect fill="#FEFECE" filter="url(#fisg9343txvgt)" height="30.2969" style="stroke: #A80036; stroke-width: 1.5;" width="54" x="23" y="1795.4219"/><text fill="#000000" font-family="sans-serif" font-size="14" lengthAdjust="spacingAndGlyphs" textLength="40" x="30" y="1815.417">Driver</text><rect fill="#FEFECE" filter="url(#fisg9343txvgt)" height="30.2969" style="stroke: #A80036; stroke-width: 1.5;" width="78" x="213" y="37.9531"/><text fill="#000000" font-family="sans-serif" font-size="14" lengthAdjust="spacingAndGlyphs" textLength="64" x="220" y="57.9482">Simulator</text><rect fill="#FEFECE" filter="url(#fisg9343txvgt)" height="30.2969" style="stroke: #A80036; stroke-width: 1.5;" width="78" x="213" y="1795.4219"/><text fill="#000000" font-family="sans-serif" font-size="14" lengthAdjust="spacingAndGlyphs" textLength="64" x="220" y="1815.417">Simulator</text><rect fill="#FEFECE" filter="url(#fisg9343txvgt)" height="30.2969" style="stroke: #A80036; stroke-width: 1.5;" width="56" x="431" y="37.9531"/><text fill="#000000" font-family="sans-serif" font-size="14" lengthAdjust="spacingAndGlyphs" textLength="42" x="438" y="57.9482">Model</text><rect fill="#FEFECE" filter="url(#fisg9343txvgt)" height="30.2969" style="stroke: #A80036; stroke-width: 1.5;" width="56" x="431" y="1795.4219"/><text fill="#000000" font-family="sans-serif" font-size="14" lengthAdjust="spacingAndGlyphs" textLength="42" x="438" y="1815.417">Model</text><rect fill="#FEFECE" filter="url(#fisg9343txvgt)" height="30.2969" style="stroke: #A80036; stroke-width: 1.5;" width="113" x="561.5" y="37.9531"/><text fill="#000000" font-family="sans-serif" font-size="14" lengthAdjust="spacingAndGlyphs" textLength="99" x="568.5" y="57.9482">Layout Factory</text><rect fill="#FEFECE" filter="url(#fisg9343txvgt)" height="30.2969" style="stroke: #A80036; stroke-width: 1.5;" width="113" x="561.5" y="1795.4219"/><text fill="#000000" font-family="sans-serif" font-size="14" lengthAdjust="spacingAndGlyphs" textLength="99" x="568.5" y="1815.417">Layout Factory</text><rect fill="#FEFECE" filter="url(#fisg9343txvgt)" height="30.2969" style="stroke: #A80036; stroke-width: 1.5;" width="59" x="688.5" y="37.9531"/><text fill="#000000" font-family="sans-serif" font-size="14" lengthAdjust="spacingAndGlyphs" textLength="45" x="695.5" y="57.9482">Layout</text><rect fill="#FEFECE" filter="url(#fisg9343txvgt)" height="30.2969" style="stroke: #A80036; stroke-width: 1.5;" width="59" x="688.5" y="1795.4219"/><text fill="#000000" font-family="sans-serif" font-size="14" lengthAdjust="spacingAndGlyphs" textLength="45" x="695.5" y="1815.417">Layout</text><rect fill="#FEFECE" filter="url(#fisg9343txvgt)" height="30.2969" style="stroke: #A80036; stroke-width: 1.5;" width="124" x="843" y="37.9531"/><text fill="#000000" font-family="sans-serif" font-size="14" lengthAdjust="spacingAndGlyphs" textLength="110" x="850" y="57.9482">Vertices Factory</text><rect fill="#FEFECE" filter="url(#fisg9343txvgt)" height="30.2969" style="stroke: #A80036; stroke-width: 1.5;" width="124" x="843" y="1795.4219"/><text fill="#000000" font-family="sans-serif" font-size="14" lengthAdjust="spacingAndGlyphs" textLength="110" x="850" y="1815.417">Vertices Factory</text><rect fill="#FEFECE" filter="url(#fisg9343txvgt)" height="30.2969" style="stroke: #A80036; stroke-width: 1.5;" width="89" x="981" y="37.9531"/><text fill="#000000" font-family="sans-serif" font-size="14" lengthAdjust="spacingAndGlyphs" textLength="75" x="988" y="57.9482">All Vertices</text><rect fill="#FEFECE" filter="url(#fisg9343txvgt)" height="30.2969" style="stroke: #A80036; stroke-width: 1.5;" width="89" x="981" y="1795.4219"/><text fill="#000000" font-family="sans-serif" font-size="14" lengthAdjust="spacingAndGlyphs" textLength="75" x="988" y="1815.417">All Vertices</text><rect fill="#FEFECE" filter="url(#fisg9343txvgt)" height="30.2969" style="stroke: #A80036; stroke-width: 1.5;" width="156" x="1084" y="37.9531"/><text fill="#000000" font-family="sans-serif" font-size="14" lengthAdjust="spacingAndGlyphs" textLength="142" x="1091" y="57.9482">Connections Factory</text><rect fill="#FEFECE" filter="url(#fisg9343txvgt)" height="30.2969" style="stroke: #A80036; stroke-width: 1.5;" width="156" x="1084" y="1795.4219"/><text fill="#000000" font-family="sans-serif" font-size="14" lengthAdjust="spacingAndGlyphs" textLength="142" x="1091" y="1815.417">Connections Factory</text><rect fill="#FEFECE" filter="url(#fisg9343txvgt)" height="30.2969" style="stroke: #A80036; stroke-width: 1.5;" width="102" x="1254" y="37.9531"/><text fill="#000000" font-family="sans-serif" font-size="14" lengthAdjust="spacingAndGlyphs" textLength="88" x="1261" y="57.9482">Connections</text><rect fill="#FEFECE" filter="url(#fisg9343txvgt)" height="30.2969" style="stroke: #A80036; stroke-width: 1.5;" width="102" x="1254" y="1795.4219"/><text fill="#000000" font-family="sans-serif" font-size="14" lengthAdjust="spacingAndGlyphs" textLength="88" x="1261" y="1815.417">Connections</text><rect fill="#FEFECE" filter="url(#fisg9343txvgt)" height="30.2969" style="stroke: #A80036; stroke-width: 1.5;" width="112" x="1423" y="37.9531"/><text fill="#000000" font-family="sans-serif" font-size="14" lengthAdjust="spacingAndGlyphs" textLength="98" x="1430" y="57.9482">Edges Factory</text><rect fill="#FEFECE" filter="url(#fisg9343txvgt)" height="30.2969" style="stroke: #A80036; stroke-width: 1.5;" width="112" x="1423" y="1795.4219"/><text fill="#000000" font-family="sans-serif" font-size="14" lengthAdjust="spacingAndGlyphs" textLength="98" x="1430" y="1815.417">Edges Factory</text><rect fill="#FEFECE" filter="url(#fisg9343txvgt)" height="30.2969" style="stroke: #A80036; stroke-width: 1.5;" width="77" x="1549" y="37.9531"/><text fill="#000000" font-family="sans-serif" font-size="14" lengthAdjust="spacingAndGlyphs" textLength="63" x="1556" y="57.9482">All Edges</text><rect fill="#FEFECE" filter="url(#fisg9343txvgt)" height="30.2969" style="stroke: #A80036; stroke-width: 1.5;" width="77" x="1549" y="1795.4219"/><text fill="#000000" font-family="sans-serif" font-size="14" lengthAdjust="spacingAndGlyphs" textLength="63" x="1556" y="1815.417">All Edges</text><rect fill="#FEFECE" filter="url(#fisg9343txvgt)" height="30.2969" style="stroke: #A80036; stroke-width: 1.5;" width="140" x="1640" y="37.9531"/><text fill="#000000" font-family="sans-serif" font-size="14" lengthAdjust="spacingAndGlyphs" textLength="126" x="1647" y="57.9482">Recorders Factory</text><rect fill="#FEFECE" filter="url(#fisg9343txvgt)" height="30.2969" style="stroke: #A80036; stroke-width: 1.5;" width="140" x="1640" y="1795.4219"/><text fill="#000000" font-family="sans-serif" font-size="14" lengthAdjust="spacingAndGlyphs" textLength="126" x="1647" y="1815.417">Recorders Factory</text><rect fill="#FEFECE" filter="url(#fisg9343txvgt)" height="30.2969" style="stroke: #A80036; stroke-width: 1.5;" width="78" x="1794" y="37.9531"/><text fill="#000000" font-family="sans-serif" font-size="14" lengthAdjust="spacingAndGlyphs" textLength="64" x="1801" y="57.9482">Recorder</text><rect fill="#FEFECE" filter="url(#fisg9343txvgt)" height="30.2969" style="stroke: #A80036; stroke-width: 1.5;" width="78" x="1794" y="1795.4219"/><text fill="#000000" font-family="sans-serif" font-size="14" lengthAdjust="spacingAndGlyphs" textLength="64" x="1801" y="1815.417">Recorder</text><rect fill="#EEEEEE" filter="url(#fisg9343txvgt)" height="3" style="stroke: #EEEEEE; stroke-width: 1.0;" width="1893" x="3" y="103.8164"/><line style="stroke: #000000; stroke-width: 1.0;" x1="3" x2="1896" y1="103.8164" y2="103.8164"/><line style="stroke: #000000; stroke-width: 1.0;" x1="3" x2="1896" y1="106.8164" y2="106.8164"/><rect fill="#EEEEEE" filter="url(#fisg9343txvgt)" height="23.1328" style="stroke: #000000; stroke-width: 2.0;" width="108" x="895.5" y="93.25"/><text fill="#000000" font-family="sans-serif" font-size="13" font-weight="bold" lengthAdjust="spacingAndGlyphs" textLength="89" x="901.5" y="109.3169">Initialization</text><polygon fill="#A80036" points="242,143.5156,252,147.5156,242,151.5156,246,147.5156" style="stroke: #A80036; stroke-width: 1.0;"/><line style="stroke: #A80036; stroke-width: 1.0;" x1="52" x2="248" y1="147.5156" y2="147.5156"/><text fill="#000000" font-family="sans-serif" font-size="13" lengthAdjust="spacingAndGlyphs" textLength="176" x="59" y="142.4497">Load Simulator Parameters</text><polygon fill="#A80036" points="242,172.6484,252,176.6484,242,180.6484,246,176.6484" style="stroke: #A80036; stroke-width: 1.0;"/><line style="stroke: #A80036; stroke-width: 1.0;" x1="52" x2="248" y1="176.6484" y2="176.6484"/><text fill="#000000" font-family="sans-serif" font-size="13" lengthAdjust="spacingAndGlyphs" textLength="178" x="59" y="171.5825">Instatiate Simulator Objects</text><polygon fill="#A80036" points="449,201.7813,459,205.7813,449,209.7813,453,205.7813" style="stroke: #A80036; stroke-width: 1.0;"/><line style="stroke: #A80036; stroke-width: 1.0;" x1="254" x2="455" y1="205.7813" y2="205.7813"/><text fill="#000000" font-family="sans-serif" font-size="13" lengthAdjust="spacingAndGlyphs" textLength="183" x="261" y="200.7153">Instantiate (CPU/GPU) Model</text><polygon fill="#A80036" points="608,230.9141,618,234.9141,608,238.9141,612,234.9141" style="stroke: #A80036; stroke-width: 1.0;"/><line style="stroke: #A80036; stroke-width: 1.0;" x1="461" x2="614" y1="234.9141" y2="234.9141"/><text fill="#000000" font-family="sans-serif" font-size="13" lengthAdjust="spacingAndGlyphs" textLength="135" x="468" y="229.8481">Invoke Layout Create</text><polygon fill="#A80036" points="708,260.0469,718,264.0469,708,268.0469,712,264.0469" style="stroke: #A80036; stroke-width: 1.0;"/><line style="stroke: #A80036; stroke-width: 1.0;" x1="620" x2="714" y1="264.0469" y2="264.0469"/><text fill="#000000" font-family="sans-serif" font-size="13" lengthAdjust="spacingAndGlyphs" textLength="68" x="627" y="258.981">Instantiate</text><polygon fill="#A80036" points="895,289.1797,905,293.1797,895,297.1797,899,293.1797" style="stroke: #A80036; stroke-width: 1.0;"/><line style="stroke: #A80036; stroke-width: 1.0;" x1="720" x2="901" y1="293.1797" y2="293.1797"/><text fill="#000000" font-family="sans-serif" font-size="13" lengthAdjust="spacingAndGlyphs" textLength="163" x="727" y="288.1138">Invoke All Vertices Create</text><polygon fill="#A80036" points="1015.5,318.3125,1025.5,322.3125,1015.5,326.3125,1019.5,322.3125" style="stroke: #A80036; stroke-width: 1.0;"/><line style="stroke: #A80036; stroke-width: 1.0;" x1="907" x2="1021.5" y1="322.3125" y2="322.3125"/><text fill="#000000" font-family="sans-serif" font-size="13" lengthAdjust="spacingAndGlyphs" textLength="68" x="914" y="317.2466">Instantiate</text><polygon fill="#A80036" points="1152,347.4453,1162,351.4453,1152,355.4453,1156,351.4453" style="stroke: #A80036; stroke-width: 1.0;"/><line style="stroke: #A80036; stroke-width: 1.0;" x1="461" x2="1158" y1="351.4453" y2="351.4453"/><text fill="#000000" font-family="sans-serif" font-size="13" lengthAdjust="spacingAndGlyphs" textLength="171" x="468" y="346.3794">Invoke Connections Create</text><polygon fill="#A80036" points="1295,376.5781,1305,380.5781,1295,384.5781,1299,380.5781" style="stroke: #A80036; stroke-width: 1.0;"/><line style="stroke: #A80036; stroke-width: 1.0;" x1="1164" x2="1301" y1="380.5781" y2="380.5781"/><text fill="#000000" font-family="sans-serif" font-size="13" lengthAdjust="spacingAndGlyphs" textLength="68" x="1171" y="375.5122">Instantiate</text><polygon fill="#A80036" points="1469,405.7109,1479,409.7109,1469,413.7109,1473,409.7109" style="stroke: #A80036; stroke-width: 1.0;"/><line style="stroke: #A80036; stroke-width: 1.0;" x1="1307" x2="1475" y1="409.7109" y2="409.7109"/><text fill="#000000" font-family="sans-serif" font-size="13" lengthAdjust="spacingAndGlyphs" textLength="150" x="1314" y="404.645">Invoke All Edges Create</text><polygon fill="#A80036" points="1577.5,434.8438,1587.5,438.8438,1577.5,442.8438,1581.5,438.8438" style="stroke: #A80036; stroke-width: 1.0;"/><line style="stroke: #A80036; stroke-width: 1.0;" x1="1481" x2="1583.5" y1="438.8438" y2="438.8438"/><text fill="#000000" font-family="sans-serif" font-size="13" lengthAdjust="spacingAndGlyphs" textLength="68" x="1488" y="433.7778">Instantiate</text><polygon fill="#A80036" points="1700,463.9766,1710,467.9766,1700,471.9766,1704,467.9766" style="stroke: #A80036; stroke-width: 1.0;"/><line style="stroke: #A80036; stroke-width: 1.0;" x1="461" x2="1706" y1="467.9766" y2="467.9766"/><text fill="#000000" font-family="sans-serif" font-size="13" lengthAdjust="spacingAndGlyphs" textLength="156" x="468" y="462.9106">Invoke Recorders Create</text><polygon fill="#A80036" points="1823,493.1094,1833,497.1094,1823,501.1094,1827,497.1094" style="stroke: #A80036; stroke-width: 1.0;"/><line style="stroke: #A80036; stroke-width: 1.0;" x1="1712" x2="1829" y1="497.1094" y2="497.1094"/><text fill="#000000" font-family="sans-serif" font-size="13" lengthAdjust="spacingAndGlyphs" textLength="75" x="1719" y="492.0435">Instantiate*</text><polygon fill="#A80036" points="242,522.2422,252,526.2422,242,530.2422,246,526.2422" style="stroke: #A80036; stroke-width: 1.0;"/><line style="stroke: #A80036; stroke-width: 1.0;" x1="52" x2="248" y1="526.2422" y2="526.2422"/><text fill="#000000" font-family="sans-serif" font-size="13" lengthAdjust="spacingAndGlyphs" textLength="38" x="59" y="521.1763">Setup</text><polygon fill="#A80036" points="449,551.375,459,555.375,449,559.375,453,555.375" style="stroke: #A80036; stroke-width: 1.0;"/><line style="stroke: #A80036; stroke-width: 1.0;" x1="254" x2="455" y1="555.375" y2="555.375"/><text fill="#000000" font-family="sans-serif" font-size="13" lengthAdjust="spacingAndGlyphs" textLength="80" x="261" y="550.3091">Model Setup</text><polygon fill="#A80036" points="708,580.5078,718,584.5078,708,588.5078,712,584.5078" style="stroke: #A80036; stroke-width: 1.0;"/><line style="stroke: #A80036; stroke-width: 1.0;" x1="461" x2="714" y1="584.5078" y2="584.5078"/><text fill="#000000" font-family="sans-serif" font-size="13" lengthAdjust="spacingAndGlyphs" textLength="79" x="468" y="579.4419">Get Vertices</text><polygon fill="#A80036" points="1015.5,609.6406,1025.5,613.6406,1015.5,617.6406,1019.5,613.6406" style="stroke: #A80036; stroke-width: 1.0;"/><line style="stroke: #A80036; stroke-width: 1.0;" x1="720" x2="1021.5" y1="613.6406" y2="613.6406"/><text fill="#000000" font-family="sans-serif" font-size="13" lengthAdjust="spacingAndGlyphs" textLength="94" x="727" y="608.5747">Setup Vertices</text><polygon fill="#A80036" points="1295,638.7734,1305,642.7734,1295,646.7734,1299,642.7734" style="stroke: #A80036; stroke-width: 1.0;"/><line style="stroke: #A80036; stroke-width: 1.0;" x1="461" x2="1301" y1="642.7734" y2="642.7734"/><text fill="#000000" font-family="sans-serif" font-size="13" lengthAdjust="spacingAndGlyphs" textLength="66" x="468" y="637.7075">Get Edges</text><polygon fill="#A80036" points="1577.5,667.9063,1587.5,671.9063,1577.5,675.9063,1581.5,671.9063" style="stroke: #A80036; stroke-width: 1.0;"/><line style="stroke: #A80036; stroke-width: 1.0;" x1="1307" x2="1583.5" y1="671.9063" y2="671.9063"/><text fill="#000000" font-family="sans-serif" font-size="13" lengthAdjust="spacingAndGlyphs" textLength="81" x="1314" y="666.8403">Setup Edges</text><polygon fill="#A80036" points="708,697.0391,718,701.0391,708,705.0391,712,701.0391" style="stroke: #A80036; stroke-width: 1.0;"/><line style="stroke: #A80036; stroke-width: 1.0;" x1="461" x2="714" y1="701.0391" y2="701.0391"/><text fill="#000000" font-family="sans-serif" font-size="13" lengthAdjust="spacingAndGlyphs" textLength="85" x="468" y="695.9731">Setup Layout</text><line style="stroke: #A80036; stroke-width: 1.0;" x1="720" x2="762" y1="730.1719" y2="730.1719"/><line style="stroke: #A80036; stroke-width: 1.0;" x1="762" x2="762" y1="730.1719" y2="743.1719"/><line style="stroke: #A80036; stroke-width: 1.0;" x1="721" x2="762" y1="743.1719" y2="743.1719"/><polygon fill="#A80036" points="731,739.1719,721,743.1719,731,747.1719,727,743.1719" style="stroke: #A80036; stroke-width: 1.0;"/><text fill="#000000" font-family="sans-serif" font-size="13" lengthAdjust="spacingAndGlyphs" textLength="172" x="727" y="725.106">Initialize Vertices Locations</text><polygon fill="#A80036" points="1823,768.3047,1833,772.3047,1823,776.3047,1827,772.3047" style="stroke: #A80036; stroke-width: 1.0;"/><line style="stroke: #A80036; stroke-width: 1.0;" x1="461" x2="1829" y1="772.3047" y2="772.3047"/><text fill="#000000" font-family="sans-serif" font-size="13" lengthAdjust="spacingAndGlyphs" textLength="112" x="468" y="767.2388">Initialize Recorder</text><line style="stroke: #A80036; stroke-width: 1.0;" x1="461" x2="503" y1="801.4375" y2="801.4375"/><line style="stroke: #A80036; stroke-width: 1.0;" x1="503" x2="503" y1="801.4375" y2="814.4375"/><line style="stroke: #A80036; stroke-width: 1.0;" x1="462" x2="503" y1="814.4375" y2="814.4375"/><polygon fill="#A80036" points="472,810.4375,462,814.4375,472,818.4375,468,814.4375" style="stroke: #A80036; stroke-width: 1.0;"/><text fill="#000000" font-family="sans-serif" font-size="13" lengthAdjust="spacingAndGlyphs" textLength="125" x="468" y="796.3716">Create All Vertices*</text><polygon fill="#A80036" points="708,839.5703,718,843.5703,708,847.5703,712,843.5703" style="stroke: #A80036; stroke-width: 1.0;"/><line style="stroke: #A80036; stroke-width: 1.0;" x1="461" x2="714" y1="843.5703" y2="843.5703"/><text fill="#000000" font-family="sans-serif" font-size="13" lengthAdjust="spacingAndGlyphs" textLength="137" x="468" y="838.5044">Generate Vertex Map</text><polygon fill="#A80036" points="708,868.7031,718,872.7031,708,876.7031,712,872.7031" style="stroke: #A80036; stroke-width: 1.0;"/><line style="stroke: #A80036; stroke-width: 1.0;" x1="461" x2="714" y1="872.7031" y2="872.7031"/><text fill="#000000" font-family="sans-serif" font-size="13" lengthAdjust="spacingAndGlyphs" textLength="131" x="468" y="867.6372">Initialize Starter Map</text><polygon fill="#A80036" points="708,897.8359,718,901.8359,708,905.8359,712,901.8359" style="stroke: #A80036; stroke-width: 1.0;"/><line style="stroke: #A80036; stroke-width: 1.0;" x1="461" x2="714" y1="901.8359" y2="901.8359"/><text fill="#000000" font-family="sans-serif" font-size="13" lengthAdjust="spacingAndGlyphs" textLength="118" x="468" y="896.77">Create All Vertices</text><path d="M13,916.8359 L83,916.8359 L83,923.8359 L73,933.8359 L13,933.8359 L13,916.8359 " fill="#EEEEEE" style="stroke: #000000; stroke-width: 1.0;"/><rect fill="none" height="88.3984" style="stroke: #000000; stroke-width: 2.0;" width="1357" x="13" y="916.8359"/><text fill="#000000" font-family="sans-serif" font-size="13" font-weight="bold" lengthAdjust="spacingAndGlyphs" textLength="25" x="28" y="929.9028">opt</text><text fill="#000000" font-family="sans-serif" font-size="11" font-weight="bold" lengthAdjust="spacingAndGlyphs" textLength="213" x="98" y="929.0464">[if serialized file name available]</text><line style="stroke: #A80036; stroke-width: 1.0;" x1="52" x2="94" y1="955.1016" y2="955.1016"/><line style="stroke: #A80036; stroke-width: 1.0;" x1="94" x2="94" y1="955.1016" y2="968.1016"/><line style="stroke: #A80036; stroke-width: 1.0;" x1="53" x2="94" y1="968.1016" y2="968.1016"/><polygon fill="#A80036" points="63,964.1016,53,968.1016,63,972.1016,59,968.1016" style="stroke: #A80036; stroke-width: 1.0;"/><text fill="#000000" font-family="sans-serif" font-size="13" lengthAdjust="spacingAndGlyphs" textLength="92" x="59" y="950.0356">Deserialize file</text><polygon fill="#A80036" points="1295,993.2344,1305,997.2344,1295,1001.2344,1299,997.2344" style="stroke: #A80036; stroke-width: 1.0;"/><line style="stroke: #A80036; stroke-width: 1.0;" x1="52" x2="1301" y1="997.2344" y2="997.2344"/><text fill="#000000" font-family="sans-serif" font-size="13" lengthAdjust="spacingAndGlyphs" textLength="197" x="59" y="992.1685">Create Synapses from Weights</text><rect fill="#EEEEEE" filter="url(#fisg9343txvgt)" height="3" style="stroke: #EEEEEE; stroke-width: 1.0;" width="1893" x="3" y="1032.8008"/><line style="stroke: #000000; stroke-width: 1.0;" x1="3" x2="1896" y1="1032.8008" y2="1032.8008"/><line style="stroke: #000000; stroke-width: 1.0;" x1="3" x2="1896" y1="1035.8008" y2="1035.8008"/><rect fill="#EEEEEE" filter="url(#fisg9343txvgt)" height="23.1328" style="stroke: #000000; stroke-width: 2.0;" width="96" x="901.5" y="1022.2344"/><text fill="#000000" font-family="sans-serif" font-size="13" font-weight="bold" lengthAdjust="spacingAndGlyphs" textLength="77" x="907.5" y="1038.3013">Simulation</text><polygon fill="#A80036" points="242,1072.5,252,1076.5,242,1080.5,246,1076.5" style="stroke: #A80036; stroke-width: 1.0;"/><line style="stroke: #A80036; stroke-width: 1.0;" x1="52" x2="248" y1="1076.5" y2="1076.5"/><text fill="#000000" font-family="sans-serif" font-size="13" lengthAdjust="spacingAndGlyphs" textLength="57" x="59" y="1071.4341">Simulate</text><path d="M193,1091.5 L270,1091.5 L270,1098.5 L260,1108.5 L193,1108.5 L193,1091.5 " fill="#EEEEEE" style="stroke: #000000; stroke-width: 1.0;"/><rect fill="none" height="383.7266" style="stroke: #000000; stroke-width: 2.0;" width="1693" x="193" y="1091.5"/><text fill="#000000" font-family="sans-serif" font-size="13" font-weight="bold" lengthAdjust="spacingAndGlyphs" textLength="32" x="208" y="1104.5669">loop</text><text fill="#000000" font-family="sans-serif" font-size="11" font-weight="bold" lengthAdjust="spacingAndGlyphs" textLength="172" x="285" y="1103.7104">[for i=0 to currentEpoch-1]</text><line style="stroke: #A80036; stroke-width: 1.0;" x1="254" x2="296" y1="1129.7656" y2="1129.7656"/><line style="stroke: #A80036; stroke-width: 1.0;" x1="296" x2="296" y1="1129.7656" y2="1142.7656"/><line style="stroke: #A80036; stroke-width: 1.0;" x1="255" x2="296" y1="1142.7656" y2="1142.7656"/><polygon fill="#A80036" points="265,1138.7656,255,1142.7656,265,1146.7656,261,1142.7656" style="stroke: #A80036; stroke-width: 1.0;"/><text fill="#000000" font-family="sans-serif" font-size="13" lengthAdjust="spacingAndGlyphs" textLength="98" x="261" y="1124.6997">Advance Epoch</text><path d="M203,1157.7656 L280,1157.7656 L280,1164.7656 L270,1174.7656 L203,1174.7656 L203,1157.7656 " fill="#EEEEEE" style="stroke: #000000; stroke-width: 1.0;"/><rect fill="none" height="162.7969" style="stroke: #000000; stroke-width: 2.0;" width="1437" x="203" y="1157.7656"/><text fill="#000000" font-family="sans-serif" font-size="13" font-weight="bold" lengthAdjust="spacingAndGlyphs" textLength="32" x="218" y="1170.8325">loop</text><text fill="#000000" font-family="sans-serif" font-size="11" font-weight="bold" lengthAdjust="spacingAndGlyphs" textLength="181" x="295" y="1169.9761">[for i=0 to epochDuration-1]</text><polygon fill="#A80036" points="449,1192.0313,459,1196.0313,449,1200.0313,453,1196.0313" style="stroke: #A80036; stroke-width: 1.0;"/><line style="stroke: #A80036; stroke-width: 1.0;" x1="254" x2="455" y1="1196.0313" y2="1196.0313"/><text fill="#000000" font-family="sans-serif" font-size="13" lengthAdjust="spacingAndGlyphs" textLength="55" x="261" y="1190.9653">Advance</text><polygon fill="#A80036" points="708,1221.1641,718,1225.1641,708,1229.1641,712,1225.1641" style="stroke: #A80036; stroke-width: 1.0;"/><line style="stroke: #A80036; stroke-width: 1.0;" x1="461" x2="714" y1="1225.1641" y2="1225.1641"/><text fill="#000000" font-family="sans-serif" font-size="13" lengthAdjust="spacingAndGlyphs" textLength="79" x="468" y="1220.0981">Get Vertices</text><polygon fill="#A80036" points="1015.5,1250.2969,1025.5,1254.2969,1015.5,1258.2969,1019.5,1254.2969" style="stroke: #A80036; stroke-width: 1.0;"/><line style="stroke: #A80036; stroke-width: 1.0;" x1="720" x2="1021.5" y1="1254.2969" y2="1254.2969"/><text fill="#000000" font-family="sans-serif" font-size="13" lengthAdjust="spacingAndGlyphs" textLength="111" x="727" y="1249.231">Advance Vertices</text><polygon fill="#A80036" points="1295,1279.4297,1305,1283.4297,1295,1287.4297,1299,1283.4297" style="stroke: #A80036; stroke-width: 1.0;"/><line style="stroke: #A80036; stroke-width: 1.0;" x1="461" x2="1301" y1="1283.4297" y2="1283.4297"/><text fill="#000000" font-family="sans-serif" font-size="13" lengthAdjust="spacingAndGlyphs" textLength="66" x="468" y="1278.3638">Get Edges</text><polygon fill="#A80036" points="1577.5,1308.5625,1587.5,1312.5625,1577.5,1316.5625,1581.5,1312.5625" style="stroke: #A80036; stroke-width: 1.0;"/><line style="stroke: #A80036; stroke-width: 1.0;" x1="1307" x2="1583.5" y1="1312.5625" y2="1312.5625"/><text fill="#000000" font-family="sans-serif" font-size="13" lengthAdjust="spacingAndGlyphs" textLength="98" x="1314" y="1307.4966">Advance Edges</text><polygon fill="#A80036" points="1295,1344.6953,1305,1348.6953,1295,1352.6953,1299,1348.6953" style="stroke: #A80036; stroke-width: 1.0;"/><line style="stroke: #A80036; stroke-width: 1.0;" x1="461" x2="1301" y1="1348.6953" y2="1348.6953"/><text fill="#000000" font-family="sans-serif" font-size="13" lengthAdjust="spacingAndGlyphs" textLength="130" x="468" y="1343.6294">Update Connections</text><path d="M421,1363.6953 L491,1363.6953 L491,1370.6953 L481,1380.6953 L421,1380.6953 L421,1363.6953 " fill="#EEEEEE" style="stroke: #000000; stroke-width: 1.0;"/><rect fill="none" height="75.3984" style="stroke: #000000; stroke-width: 2.0;" width="949" x="421" y="1363.6953"/><text fill="#000000" font-family="sans-serif" font-size="13" font-weight="bold" lengthAdjust="spacingAndGlyphs" textLength="25" x="436" y="1376.7622">opt</text><text fill="#000000" font-family="sans-serif" font-size="11" font-weight="bold" lengthAdjust="spacingAndGlyphs" textLength="228" x="506" y="1375.9058">[if updateConnections returns true]</text><polygon fill="#A80036" points="1295,1397.9609,1305,1401.9609,1295,1405.9609,1299,1401.9609" style="stroke: #A80036; stroke-width: 1.0;"/><line style="stroke: #A80036; stroke-width: 1.0;" x1="461" x2="1301" y1="1401.9609" y2="1401.9609"/><text fill="#000000" font-family="sans-serif" font-size="13" lengthAdjust="spacingAndGlyphs" textLength="167" x="468" y="1396.895">Update Synapses Weights</text><polygon fill="#A80036" points="1295,1427.0938,1305,1431.0938,1295,1435.0938,1299,1431.0938" style="stroke: #A80036; stroke-width: 1.0;"/><line style="stroke: #A80036; stroke-width: 1.0;" x1="461" x2="1301" y1="1431.0938" y2="1431.0938"/><text fill="#000000" font-family="sans-serif" font-size="13" lengthAdjust="spacingAndGlyphs" textLength="148" x="468" y="1426.0278">Create Edge Index Map</text><polygon fill="#A80036" points="1823,1463.2266,1833,1467.2266,1823,1471.2266,1827,1467.2266" style="stroke: #A80036; stroke-width: 1.0;"/><line style="stroke: #A80036; stroke-width: 1.0;" x1="461" x2="1829" y1="1467.2266" y2="1467.2266"/><text fill="#000000" font-family="sans-serif" font-size="13" lengthAdjust="spacingAndGlyphs" textLength="162" x="468" y="1462.1606">Update (Compile) History</text><polygon fill="#A80036" points="449,1499.3594,459,1503.3594,449,1507.3594,453,1503.3594" style="stroke: #A80036; stroke-width: 1.0;"/><line style="stroke: #A80036; stroke-width: 1.0;" x1="254" x2="455" y1="1503.3594" y2="1503.3594"/><text fill="#000000" font-family="sans-serif" font-size="13" lengthAdjust="spacingAndGlyphs" textLength="82" x="261" y="1498.2935">Save Results</text><polygon fill="#A80036" points="1823,1528.4922,1833,1532.4922,1823,1536.4922,1827,1532.4922" style="stroke: #A80036; stroke-width: 1.0;"/><line style="stroke: #A80036; stroke-width: 1.0;" x1="461" x2="1829" y1="1532.4922" y2="1532.4922"/><text fill="#000000" font-family="sans-serif" font-size="13" lengthAdjust="spacingAndGlyphs" textLength="139" x="468" y="1527.4263">Save Simulation Data</text><path d="M13,1547.4922 L83,1547.4922 L83,1554.4922 L73,1564.4922 L13,1564.4922 L13,1547.4922 " fill="#EEEEEE" style="stroke: #000000; stroke-width: 1.0;"/><rect fill="none" height="59.2656" style="stroke: #000000; stroke-width: 2.0;" width="320" x="13" y="1547.4922"/><text fill="#000000" font-family="sans-serif" font-size="13" font-weight="bold" lengthAdjust="spacingAndGlyphs" textLength="25" x="28" y="1560.5591">opt</text><text fill="#000000" font-family="sans-serif" font-size="11" font-weight="bold" lengthAdjust="spacingAndGlyphs" textLength="230" x="98" y="1559.7026">[if serialization file name available]</text><line style="stroke: #A80036; stroke-width: 1.0;" x1="52" x2="94" y1="1585.7578" y2="1585.7578"/><line style="stroke: #A80036; stroke-width: 1.0;" x1="94" x2="94" y1="1585.7578" y2="1598.7578"/><line style="stroke: #A80036; stroke-width: 1.0;" x1="53" x2="94" y1="1598.7578" y2="1598.7578"/><polygon fill="#A80036" points="63,1594.7578,53,1598.7578,63,1602.7578,59,1598.7578" style="stroke: #A80036; stroke-width: 1.0;"/><text fill="#000000" font-family="sans-serif" font-size="13" lengthAdjust="spacingAndGlyphs" textLength="120" x="59" y="1580.6919">Serialize Synapses</text><rect fill="#EEEEEE" filter="url(#fisg9343txvgt)" height="3" style="stroke: #EEEEEE; stroke-width: 1.0;" width="1893" x="3" y="1634.3242"/><line style="stroke: #000000; stroke-width: 1.0;" x1="3" x2="1896" y1="1634.3242" y2="1634.3242"/><line style="stroke: #000000; stroke-width: 1.0;" x1="3" x2="1896" y1="1637.3242" y2="1637.3242"/><rect fill="#EEEEEE" filter="url(#fisg9343txvgt)" height="23.1328" style="stroke: #000000; stroke-width: 2.0;" width="106" x="896.5" y="1623.7578"/><text fill="#000000" font-family="sans-serif" font-size="13" font-weight="bold" lengthAdjust="spacingAndGlyphs" textLength="87" x="902.5" y="1639.8247">Termination</text><polygon fill="#A80036" points="242,1674.0234,252,1678.0234,242,1682.0234,246,1678.0234" style="stroke: #A80036; stroke-width: 1.0;"/><line style="stroke: #A80036; stroke-width: 1.0;" x1="52" x2="248" y1="1678.0234" y2="1678.0234"/><text fill="#000000" font-family="sans-serif" font-size="13" lengthAdjust="spacingAndGlyphs" textLength="79" x="59" y="1672.9575">Finish Signal</text><polygon fill="#A80036" points="449,1703.1563,459,1707.1563,449,1711.1563,453,1707.1563" style="stroke: #A80036; stroke-width: 1.0;"/><line style="stroke: #A80036; stroke-width: 1.0;" x1="254" x2="455" y1="1707.1563" y2="1707.1563"/><text fill="#000000" font-family="sans-serif" font-size="13" lengthAdjust="spacingAndGlyphs" textLength="167" x="261" y="1702.0903">Clean up model resources</text><polygon fill="#A80036" points="1823,1732.2891,1833,1736.2891,1823,1740.2891,1827,1736.2891" style="stroke: #A80036; stroke-width: 1.0;"/><line style="stroke: #A80036; stroke-width: 1.0;" x1="52" x2="1829" y1="1736.2891" y2="1736.2891"/><text fill="#000000" font-family="sans-serif" font-size="13" lengthAdjust="spacingAndGlyphs" textLength="132" x="59" y="1731.2231">Terminate Recording</text><line style="stroke: #A80036; stroke-width: 1.0;" x1="52" x2="94" y1="1765.4219" y2="1765.4219"/><line style="stroke: #A80036; stroke-width: 1.0;" x1="94" x2="94" y1="1765.4219" y2="1778.4219"/><line style="stroke: #A80036; stroke-width: 1.0;" x1="53" x2="94" y1="1778.4219" y2="1778.4219"/><polygon fill="#A80036" points="63,1774.4219,53,1778.4219,63,1782.4219,59,1778.4219" style="stroke: #A80036; stroke-width: 1.0;"/><text fill="#000000" font-family="sans-serif" font-size="13" lengthAdjust="spacingAndGlyphs" textLength="82" x="59" y="1760.356">Exit program</text><!--MD5=[01dfcfdb9ab83caa1e2355ef602a3b51]
@startuml graphitti program flow

title Graphitti General Program Flow

== Initialization ==
Driver -> Simulator: Load Simulator Parameters
Driver -> Simulator: Instatiate Simulator Objects
Simulator -> Model: Instantiate (CPU/GPU) Model
Model -> "Layout Factory": Invoke Layout Create 
"Layout Factory" -> Layout: Instantiate
Layout -> "Vertices Factory": Invoke All Vertices Create 
"Vertices Factory" -> "All Vertices": Instantiate

Model -> "Connections Factory": Invoke Connections Create 
"Connections Factory" -> Connections: Instantiate 
Connections -> "Edges Factory": Invoke All Edges Create 
"Edges Factory" -> "All Edges": Instantiate

Model -> "Recorders Factory": Invoke Recorders Create
"Recorders Factory" -> Recorder: Instantiate*

Driver -> Simulator: Setup 
Simulator -> Model: Model Setup
Model -> Layout: Get Vertices 
Layout -> "All Vertices": Setup Vertices
Model -> Connections: Get Edges
Connections -> "All Edges": Setup Edges
Model -> Layout: Setup Layout
Layout -> Layout: Initialize Vertices Locations
Model -> Recorder: Initialize Recorder 
Model -> Model: Create All Vertices*
Model -> Layout: Generate Vertex Map 
Model -> Layout: Initialize Starter Map 
Model -> Layout: Create All Vertices
opt if serialized file name available
    Driver -> Driver: Deserialize file
    Driver -> Connections: Create Synapses from Weights
end

== Simulation ==

Driver -> Simulator: Simulate
loop for i=0 to currentEpoch-1
    Simulator -> Simulator: Advance Epoch
    loop for i=0 to epochDuration-1
        Simulator->Model: Advance
        Model -> Layout: Get Vertices 
        Layout -> "All Vertices": Advance Vertices
        Model -> Connections: Get Edges
        Connections -> "All Edges": Advance Edges
    end
    Model -> Connections: Update Connections
    opt if updateConnections returns true
        Model -> Connections: Update Synapses Weights
        Model -> Connections: Create Edge Index Map
    end
    Model->Recorder: Update (Compile) History
end
Simulator -> Model: Save Results 
Model -> Recorder: Save Simulation Data 
opt if serialization file name available 
    Driver -> Driver: Serialize Synapses
end

== Termination ==

Driver -> Simulator: Finish Signal 
Simulator -> Model: Clean up model resources
Driver -> Recorder: Terminate Recording
Driver -> Driver: Exit program

@enduml

PlantUML version 1.2020.02(Sun Mar 01 10:22:07 GMT 2020)
(GPL source distribution)
Java Runtime: OpenJDK Runtime Environment
JVM: OpenJDK 64-Bit Server VM
Java Version: 11.0.9+11-Ubuntu-0ubuntu1
Operating System: Linux
Default Encoding: ANSI_X3.4-1968
Language: en
Country: US
--></g></svg>