<?xml version="1.0" encoding="UTF-8" standalone="no"?><svg xmlns="http://www.w3.org/2000/svg" xmlns:xlink="http://www.w3.org/1999/xlink" contentScriptType="application/ecmascript" contentStyleType="text/css" height="1810px" preserveAspectRatio="none" style="width:1994px;height:1810px;" version="1.1" viewBox="0 0 1994 1810" width="1994px" zoomAndPan="magnify"><defs><filter height="300%" id="fkh18rtga7jwb" width="300%" x="-1" y="-1"><feGaussianBlur result="blurOut" stdDeviation="2.0"/><feColorMatrix in="blurOut" result="blurOut2" type="matrix" values="0 0 0 0 0 0 0 0 0 0 0 0 0 0 0 0 0 0 .4 0"/><feOffset dx="4.0" dy="4.0" in="blurOut2" result="blurOut3"/><feBlend in="SourceGraphic" in2="blurOut3" mode="normal"/></filter></defs><g><text fill="#000000" font-family="sans-serif" font-size="18" lengthAdjust="spacingAndGlyphs" textLength="284" x="850.75" y="26.708">Graphitti General Program Flow</text><rect fill="#FFFFFF" filter="url(#fkh18rtga7jwb)" height="75.3984" style="stroke: #000000; stroke-width: 2.0;" width="1959.5" x="13" y="916.8359"/><rect fill="#FFFFFF" filter="url(#fkh18rtga7jwb)" height="383.7266" style="stroke: #000000; stroke-width: 2.0;" width="1693" x="189.5" y="1078.5"/><rect fill="#FFFFFF" filter="url(#fkh18rtga7jwb)" height="162.7969" style="stroke: #000000; stroke-width: 2.0;" width="1437" x="199.5" y="1144.7656"/><rect fill="#FFFFFF" filter="url(#fkh18rtga7jwb)" height="75.3984" style="stroke: #000000; stroke-width: 2.0;" width="949" x="417.5" y="1350.6953"/><rect fill="#FFFFFF" filter="url(#fkh18rtga7jwb)" height="46.2656" style="stroke: #000000; stroke-width: 2.0;" width="1959.5" x="13" y="1534.4922"/><line style="stroke: #A80036; stroke-width: 1.0; stroke-dasharray: 5.0,5.0;" x1="48" x2="48" y1="73.25" y2="1770.4219"/><line style="stroke: #A80036; stroke-width: 1.0; stroke-dasharray: 5.0,5.0;" x1="250.5" x2="250.5" y1="73.25" y2="1770.4219"/><line style="stroke: #A80036; stroke-width: 1.0; stroke-dasharray: 5.0,5.0;" x1="457.5" x2="457.5" y1="73.25" y2="1770.4219"/><line style="stroke: #A80036; stroke-width: 1.0; stroke-dasharray: 5.0,5.0;" x1="616" x2="616" y1="73.25" y2="1770.4219"/><line style="stroke: #A80036; stroke-width: 1.0; stroke-dasharray: 5.0,5.0;" x1="716" x2="716" y1="73.25" y2="1770.4219"/><line style="stroke: #A80036; stroke-width: 1.0; stroke-dasharray: 5.0,5.0;" x1="903.5" x2="903.5" y1="73.25" y2="1770.4219"/><line style="stroke: #A80036; stroke-width: 1.0; stroke-dasharray: 5.0,5.0;" x1="1023.5" x2="1023.5" y1="73.25" y2="1770.4219"/><line style="stroke: #A80036; stroke-width: 1.0; stroke-dasharray: 5.0,5.0;" x1="1160.5" x2="1160.5" y1="73.25" y2="1770.4219"/><line style="stroke: #A80036; stroke-width: 1.0; stroke-dasharray: 5.0,5.0;" x1="1303.5" x2="1303.5" y1="73.25" y2="1770.4219"/><line style="stroke: #A80036; stroke-width: 1.0; stroke-dasharray: 5.0,5.0;" x1="1477.5" x2="1477.5" y1="73.25" y2="1770.4219"/><line style="stroke: #A80036; stroke-width: 1.0; stroke-dasharray: 5.0,5.0;" x1="1585.5" x2="1585.5" y1="73.25" y2="1770.4219"/><line style="stroke: #A80036; stroke-width: 1.0; stroke-dasharray: 5.0,5.0;" x1="1708.5" x2="1708.5" y1="73.25" y2="1770.4219"/><line style="stroke: #A80036; stroke-width: 1.0; stroke-dasharray: 5.0,5.0;" x1="1831.5" x2="1831.5" y1="73.25" y2="1770.4219"/><line style="stroke: #A80036; stroke-width: 1.0; stroke-dasharray: 5.0,5.0;" x1="1922.5" x2="1922.5" y1="73.25" y2="1770.4219"/><rect fill="#FEFECE" filter="url(#fkh18rtga7jwb)" height="30.2969" style="stroke: #A80036; stroke-width: 1.5;" width="47" x="23" y="37.9531"/><text fill="#000000" font-family="sans-serif" font-size="14" lengthAdjust="spacingAndGlyphs" textLength="33" x="30" y="57.9482">Core</text><rect fill="#FEFECE" filter="url(#fkh18rtga7jwb)" height="30.2969" style="stroke: #A80036; stroke-width: 1.5;" width="47" x="23" y="1769.4219"/><text fill="#000000" font-family="sans-serif" font-size="14" lengthAdjust="spacingAndGlyphs" textLength="33" x="30" y="1789.417">Core</text><rect fill="#FEFECE" filter="url(#fkh18rtga7jwb)" height="30.2969" style="stroke: #A80036; stroke-width: 1.5;" width="78" x="209.5" y="37.9531"/><text fill="#000000" font-family="sans-serif" font-size="14" lengthAdjust="spacingAndGlyphs" textLength="64" x="216.5" y="57.9482">Simulator</text><rect fill="#FEFECE" filter="url(#fkh18rtga7jwb)" height="30.2969" style="stroke: #A80036; stroke-width: 1.5;" width="78" x="209.5" y="1769.4219"/><text fill="#000000" font-family="sans-serif" font-size="14" lengthAdjust="spacingAndGlyphs" textLength="64" x="216.5" y="1789.417">Simulator</text><rect fill="#FEFECE" filter="url(#fkh18rtga7jwb)" height="30.2969" style="stroke: #A80036; stroke-width: 1.5;" width="56" x="427.5" y="37.9531"/><text fill="#000000" font-family="sans-serif" font-size="14" lengthAdjust="spacingAndGlyphs" textLength="42" x="434.5" y="57.9482">Model</text><rect fill="#FEFECE" filter="url(#fkh18rtga7jwb)" height="30.2969" style="stroke: #A80036; stroke-width: 1.5;" width="56" x="427.5" y="1769.4219"/><text fill="#000000" font-family="sans-serif" font-size="14" lengthAdjust="spacingAndGlyphs" textLength="42" x="434.5" y="1789.417">Model</text><rect fill="#FEFECE" filter="url(#fkh18rtga7jwb)" height="30.2969" style="stroke: #A80036; stroke-width: 1.5;" width="113" x="558" y="37.9531"/><text fill="#000000" font-family="sans-serif" font-size="14" lengthAdjust="spacingAndGlyphs" textLength="99" x="565" y="57.9482">Layout Factory</text><rect fill="#FEFECE" filter="url(#fkh18rtga7jwb)" height="30.2969" style="stroke: #A80036; stroke-width: 1.5;" width="113" x="558" y="1769.4219"/><text fill="#000000" font-family="sans-serif" font-size="14" lengthAdjust="spacingAndGlyphs" textLength="99" x="565" y="1789.417">Layout Factory</text><rect fill="#FEFECE" filter="url(#fkh18rtga7jwb)" height="30.2969" style="stroke: #A80036; stroke-width: 1.5;" width="59" x="685" y="37.9531"/><text fill="#000000" font-family="sans-serif" font-size="14" lengthAdjust="spacingAndGlyphs" textLength="45" x="692" y="57.9482">Layout</text><rect fill="#FEFECE" filter="url(#fkh18rtga7jwb)" height="30.2969" style="stroke: #A80036; stroke-width: 1.5;" width="59" x="685" y="1769.4219"/><text fill="#000000" font-family="sans-serif" font-size="14" lengthAdjust="spacingAndGlyphs" textLength="45" x="692" y="1789.417">Layout</text><rect fill="#FEFECE" filter="url(#fkh18rtga7jwb)" height="30.2969" style="stroke: #A80036; stroke-width: 1.5;" width="124" x="839.5" y="37.9531"/><text fill="#000000" font-family="sans-serif" font-size="14" lengthAdjust="spacingAndGlyphs" textLength="110" x="846.5" y="57.9482">Vertices Factory</text><rect fill="#FEFECE" filter="url(#fkh18rtga7jwb)" height="30.2969" style="stroke: #A80036; stroke-width: 1.5;" width="124" x="839.5" y="1769.4219"/><text fill="#000000" font-family="sans-serif" font-size="14" lengthAdjust="spacingAndGlyphs" textLength="110" x="846.5" y="1789.417">Vertices Factory</text><rect fill="#FEFECE" filter="url(#fkh18rtga7jwb)" height="30.2969" style="stroke: #A80036; stroke-width: 1.5;" width="89" x="977.5" y="37.9531"/><text fill="#000000" font-family="sans-serif" font-size="14" lengthAdjust="spacingAndGlyphs" textLength="75" x="984.5" y="57.9482">All Vertices</text><rect fill="#FEFECE" filter="url(#fkh18rtga7jwb)" height="30.2969" style="stroke: #A80036; stroke-width: 1.5;" width="89" x="977.5" y="1769.4219"/><text fill="#000000" font-family="sans-serif" font-size="14" lengthAdjust="spacingAndGlyphs" textLength="75" x="984.5" y="1789.417">All Vertices</text><rect fill="#FEFECE" filter="url(#fkh18rtga7jwb)" height="30.2969" style="stroke: #A80036; stroke-width: 1.5;" width="156" x="1080.5" y="37.9531"/><text fill="#000000" font-family="sans-serif" font-size="14" lengthAdjust="spacingAndGlyphs" textLength="142" x="1087.5" y="57.9482">Connections Factory</text><rect fill="#FEFECE" filter="url(#fkh18rtga7jwb)" height="30.2969" style="stroke: #A80036; stroke-width: 1.5;" width="156" x="1080.5" y="1769.4219"/><text fill="#000000" font-family="sans-serif" font-size="14" lengthAdjust="spacingAndGlyphs" textLength="142" x="1087.5" y="1789.417">Connections Factory</text><rect fill="#FEFECE" filter="url(#fkh18rtga7jwb)" height="30.2969" style="stroke: #A80036; stroke-width: 1.5;" width="102" x="1250.5" y="37.9531"/><text fill="#000000" font-family="sans-serif" font-size="14" lengthAdjust="spacingAndGlyphs" textLength="88" x="1257.5" y="57.9482">Connections</text><rect fill="#FEFECE" filter="url(#fkh18rtga7jwb)" height="30.2969" style="stroke: #A80036; stroke-width: 1.5;" width="102" x="1250.5" y="1769.4219"/><text fill="#000000" font-family="sans-serif" font-size="14" lengthAdjust="spacingAndGlyphs" textLength="88" x="1257.5" y="1789.417">Connections</text><rect fill="#FEFECE" filter="url(#fkh18rtga7jwb)" height="30.2969" style="stroke: #A80036; stroke-width: 1.5;" width="112" x="1419.5" y="37.9531"/><text fill="#000000" font-family="sans-serif" font-size="14" lengthAdjust="spacingAndGlyphs" textLength="98" x="1426.5" y="57.9482">Edges Factory</text><rect fill="#FEFECE" filter="url(#fkh18rtga7jwb)" height="30.2969" style="stroke: #A80036; stroke-width: 1.5;" width="112" x="1419.5" y="1769.4219"/><text fill="#000000" font-family="sans-serif" font-size="14" lengthAdjust="spacingAndGlyphs" textLength="98" x="1426.5" y="1789.417">Edges Factory</text><rect fill="#FEFECE" filter="url(#fkh18rtga7jwb)" height="30.2969" style="stroke: #A80036; stroke-width: 1.5;" width="77" x="1545.5" y="37.9531"/><text fill="#000000" font-family="sans-serif" font-size="14" lengthAdjust="spacingAndGlyphs" textLength="63" x="1552.5" y="57.9482">All Edges</text><rect fill="#FEFECE" filter="url(#fkh18rtga7jwb)" height="30.2969" style="stroke: #A80036; stroke-width: 1.5;" width="77" x="1545.5" y="1769.4219"/><text fill="#000000" font-family="sans-serif" font-size="14" lengthAdjust="spacingAndGlyphs" textLength="63" x="1552.5" y="1789.417">All Edges</text><rect fill="#FEFECE" filter="url(#fkh18rtga7jwb)" height="30.2969" style="stroke: #A80036; stroke-width: 1.5;" width="140" x="1636.5" y="37.9531"/><text fill="#000000" font-family="sans-serif" font-size="14" lengthAdjust="spacingAndGlyphs" textLength="126" x="1643.5" y="57.9482">Recorders Factory</text><rect fill="#FEFECE" filter="url(#fkh18rtga7jwb)" height="30.2969" style="stroke: #A80036; stroke-width: 1.5;" width="140" x="1636.5" y="1769.4219"/><text fill="#000000" font-family="sans-serif" font-size="14" lengthAdjust="spacingAndGlyphs" textLength="126" x="1643.5" y="1789.417">Recorders Factory</text><rect fill="#FEFECE" filter="url(#fkh18rtga7jwb)" height="30.2969" style="stroke: #A80036; stroke-width: 1.5;" width="78" x="1790.5" y="37.9531"/><text fill="#000000" font-family="sans-serif" font-size="14" lengthAdjust="spacingAndGlyphs" textLength="64" x="1797.5" y="57.9482">Recorder</text><rect fill="#FEFECE" filter="url(#fkh18rtga7jwb)" height="30.2969" style="stroke: #A80036; stroke-width: 1.5;" width="78" x="1790.5" y="1769.4219"/><text fill="#000000" font-family="sans-serif" font-size="14" lengthAdjust="spacingAndGlyphs" textLength="64" x="1797.5" y="1789.417">Recorder</text><rect fill="#FEFECE" filter="url(#fkh18rtga7jwb)" height="30.2969" style="stroke: #A80036; stroke-width: 1.5;" width="76" x="1882.5" y="37.9531"/><text fill="#000000" font-family="sans-serif" font-size="14" lengthAdjust="spacingAndGlyphs" textLength="62" x="1889.5" y="57.9482">Serializer</text><rect fill="#FEFECE" filter="url(#fkh18rtga7jwb)" height="30.2969" style="stroke: #A80036; stroke-width: 1.5;" width="76" x="1882.5" y="1769.4219"/><text fill="#000000" font-family="sans-serif" font-size="14" lengthAdjust="spacingAndGlyphs" textLength="62" x="1889.5" y="1789.417">Serializer</text><rect fill="#EEEEEE" filter="url(#fkh18rtga7jwb)" height="3" style="stroke: #EEEEEE; stroke-width: 1.0;" width="1979.5" x="3" y="103.8164"/><line style="stroke: #000000; stroke-width: 1.0;" x1="3" x2="1982.5" y1="103.8164" y2="103.8164"/><line style="stroke: #000000; stroke-width: 1.0;" x1="3" x2="1982.5" y1="106.8164" y2="106.8164"/><rect fill="#EEEEEE" filter="url(#fkh18rtga7jwb)" height="23.1328" style="stroke: #000000; stroke-width: 2.0;" width="108" x="938.75" y="93.25"/><text fill="#000000" font-family="sans-serif" font-size="13" font-weight="bold" lengthAdjust="spacingAndGlyphs" textLength="89" x="944.75" y="109.3169">Initialization</text><polygon fill="#A80036" points="238.5,143.5156,248.5,147.5156,238.5,151.5156,242.5,147.5156" style="stroke: #A80036; stroke-width: 1.0;"/><line style="stroke: #A80036; stroke-width: 1.0;" x1="48.5" x2="244.5" y1="147.5156" y2="147.5156"/><text fill="#000000" font-family="sans-serif" font-size="13" lengthAdjust="spacingAndGlyphs" textLength="176" x="55.5" y="142.4497">Load Simulator Parameters</text><polygon fill="#A80036" points="238.5,172.6484,248.5,176.6484,238.5,180.6484,242.5,176.6484" style="stroke: #A80036; stroke-width: 1.0;"/><line style="stroke: #A80036; stroke-width: 1.0;" x1="48.5" x2="244.5" y1="176.6484" y2="176.6484"/><text fill="#000000" font-family="sans-serif" font-size="13" lengthAdjust="spacingAndGlyphs" textLength="178" x="55.5" y="171.5825">Instatiate Simulator Objects</text><polygon fill="#A80036" points="445.5,201.7813,455.5,205.7813,445.5,209.7813,449.5,205.7813" style="stroke: #A80036; stroke-width: 1.0;"/><line style="stroke: #A80036; stroke-width: 1.0;" x1="250.5" x2="451.5" y1="205.7813" y2="205.7813"/><text fill="#000000" font-family="sans-serif" font-size="13" lengthAdjust="spacingAndGlyphs" textLength="183" x="257.5" y="200.7153">Instantiate (CPU/GPU) Model</text><polygon fill="#A80036" points="604.5,230.9141,614.5,234.9141,604.5,238.9141,608.5,234.9141" style="stroke: #A80036; stroke-width: 1.0;"/><line style="stroke: #A80036; stroke-width: 1.0;" x1="457.5" x2="610.5" y1="234.9141" y2="234.9141"/><text fill="#000000" font-family="sans-serif" font-size="13" lengthAdjust="spacingAndGlyphs" textLength="135" x="464.5" y="229.8481">Invoke Layout Create</text><polygon fill="#A80036" points="704.5,260.0469,714.5,264.0469,704.5,268.0469,708.5,264.0469" style="stroke: #A80036; stroke-width: 1.0;"/><line style="stroke: #A80036; stroke-width: 1.0;" x1="616.5" x2="710.5" y1="264.0469" y2="264.0469"/><text fill="#000000" font-family="sans-serif" font-size="13" lengthAdjust="spacingAndGlyphs" textLength="68" x="623.5" y="258.981">Instantiate</text><polygon fill="#A80036" points="891.5,289.1797,901.5,293.1797,891.5,297.1797,895.5,293.1797" style="stroke: #A80036; stroke-width: 1.0;"/><line style="stroke: #A80036; stroke-width: 1.0;" x1="716.5" x2="897.5" y1="293.1797" y2="293.1797"/><text fill="#000000" font-family="sans-serif" font-size="13" lengthAdjust="spacingAndGlyphs" textLength="163" x="723.5" y="288.1138">Invoke All Vertices Create</text><polygon fill="#A80036" points="1012,318.3125,1022,322.3125,1012,326.3125,1016,322.3125" style="stroke: #A80036; stroke-width: 1.0;"/><line style="stroke: #A80036; stroke-width: 1.0;" x1="903.5" x2="1018" y1="322.3125" y2="322.3125"/><text fill="#000000" font-family="sans-serif" font-size="13" lengthAdjust="spacingAndGlyphs" textLength="68" x="910.5" y="317.2466">Instantiate</text><polygon fill="#A80036" points="1148.5,347.4453,1158.5,351.4453,1148.5,355.4453,1152.5,351.4453" style="stroke: #A80036; stroke-width: 1.0;"/><line style="stroke: #A80036; stroke-width: 1.0;" x1="457.5" x2="1154.5" y1="351.4453" y2="351.4453"/><text fill="#000000" font-family="sans-serif" font-size="13" lengthAdjust="spacingAndGlyphs" textLength="171" x="464.5" y="346.3794">Invoke Connections Create</text><polygon fill="#A80036" points="1291.5,376.5781,1301.5,380.5781,1291.5,384.5781,1295.5,380.5781" style="stroke: #A80036; stroke-width: 1.0;"/><line style="stroke: #A80036; stroke-width: 1.0;" x1="1160.5" x2="1297.5" y1="380.5781" y2="380.5781"/><text fill="#000000" font-family="sans-serif" font-size="13" lengthAdjust="spacingAndGlyphs" textLength="68" x="1167.5" y="375.5122">Instantiate</text><polygon fill="#A80036" points="1465.5,405.7109,1475.5,409.7109,1465.5,413.7109,1469.5,409.7109" style="stroke: #A80036; stroke-width: 1.0;"/><line style="stroke: #A80036; stroke-width: 1.0;" x1="1303.5" x2="1471.5" y1="409.7109" y2="409.7109"/><text fill="#000000" font-family="sans-serif" font-size="13" lengthAdjust="spacingAndGlyphs" textLength="150" x="1310.5" y="404.645">Invoke All Edges Create</text><polygon fill="#A80036" points="1574,434.8438,1584,438.8438,1574,442.8438,1578,438.8438" style="stroke: #A80036; stroke-width: 1.0;"/><line style="stroke: #A80036; stroke-width: 1.0;" x1="1477.5" x2="1580" y1="438.8438" y2="438.8438"/><text fill="#000000" font-family="sans-serif" font-size="13" lengthAdjust="spacingAndGlyphs" textLength="68" x="1484.5" y="433.7778">Instantiate</text><polygon fill="#A80036" points="1696.5,463.9766,1706.5,467.9766,1696.5,471.9766,1700.5,467.9766" style="stroke: #A80036; stroke-width: 1.0;"/><line style="stroke: #A80036; stroke-width: 1.0;" x1="457.5" x2="1702.5" y1="467.9766" y2="467.9766"/><text fill="#000000" font-family="sans-serif" font-size="13" lengthAdjust="spacingAndGlyphs" textLength="156" x="464.5" y="462.9106">Invoke Recorders Create</text><polygon fill="#A80036" points="1819.5,493.1094,1829.5,497.1094,1819.5,501.1094,1823.5,497.1094" style="stroke: #A80036; stroke-width: 1.0;"/><line style="stroke: #A80036; stroke-width: 1.0;" x1="1708.5" x2="1825.5" y1="497.1094" y2="497.1094"/><text fill="#000000" font-family="sans-serif" font-size="13" lengthAdjust="spacingAndGlyphs" textLength="75" x="1715.5" y="492.0435">Instantiate*</text><polygon fill="#A80036" points="238.5,522.2422,248.5,526.2422,238.5,530.2422,242.5,526.2422" style="stroke: #A80036; stroke-width: 1.0;"/><line style="stroke: #A80036; stroke-width: 1.0;" x1="48.5" x2="244.5" y1="526.2422" y2="526.2422"/><text fill="#000000" font-family="sans-serif" font-size="13" lengthAdjust="spacingAndGlyphs" textLength="38" x="55.5" y="521.1763">Setup</text><polygon fill="#A80036" points="445.5,551.375,455.5,555.375,445.5,559.375,449.5,555.375" style="stroke: #A80036; stroke-width: 1.0;"/><line style="stroke: #A80036; stroke-width: 1.0;" x1="250.5" x2="451.5" y1="555.375" y2="555.375"/><text fill="#000000" font-family="sans-serif" font-size="13" lengthAdjust="spacingAndGlyphs" textLength="80" x="257.5" y="550.3091">Model Setup</text><polygon fill="#A80036" points="704.5,580.5078,714.5,584.5078,704.5,588.5078,708.5,584.5078" style="stroke: #A80036; stroke-width: 1.0;"/><line style="stroke: #A80036; stroke-width: 1.0;" x1="457.5" x2="710.5" y1="584.5078" y2="584.5078"/><text fill="#000000" font-family="sans-serif" font-size="13" lengthAdjust="spacingAndGlyphs" textLength="79" x="464.5" y="579.4419">Get Vertices</text><polygon fill="#A80036" points="1012,609.6406,1022,613.6406,1012,617.6406,1016,613.6406" style="stroke: #A80036; stroke-width: 1.0;"/><line style="stroke: #A80036; stroke-width: 1.0;" x1="716.5" x2="1018" y1="613.6406" y2="613.6406"/><text fill="#000000" font-family="sans-serif" font-size="13" lengthAdjust="spacingAndGlyphs" textLength="94" x="723.5" y="608.5747">Setup Vertices</text><polygon fill="#A80036" points="1291.5,638.7734,1301.5,642.7734,1291.5,646.7734,1295.5,642.7734" style="stroke: #A80036; stroke-width: 1.0;"/><line style="stroke: #A80036; stroke-width: 1.0;" x1="457.5" x2="1297.5" y1="642.7734" y2="642.7734"/><text fill="#000000" font-family="sans-serif" font-size="13" lengthAdjust="spacingAndGlyphs" textLength="66" x="464.5" y="637.7075">Get Edges</text><polygon fill="#A80036" points="1574,667.9063,1584,671.9063,1574,675.9063,1578,671.9063" style="stroke: #A80036; stroke-width: 1.0;"/><line style="stroke: #A80036; stroke-width: 1.0;" x1="1303.5" x2="1580" y1="671.9063" y2="671.9063"/><text fill="#000000" font-family="sans-serif" font-size="13" lengthAdjust="spacingAndGlyphs" textLength="81" x="1310.5" y="666.8403">Setup Edges</text><polygon fill="#A80036" points="704.5,697.0391,714.5,701.0391,704.5,705.0391,708.5,701.0391" style="stroke: #A80036; stroke-width: 1.0;"/><line style="stroke: #A80036; stroke-width: 1.0;" x1="457.5" x2="710.5" y1="701.0391" y2="701.0391"/><text fill="#000000" font-family="sans-serif" font-size="13" lengthAdjust="spacingAndGlyphs" textLength="85" x="464.5" y="695.9731">Setup Layout</text><line style="stroke: #A80036; stroke-width: 1.0;" x1="716.5" x2="758.5" y1="730.1719" y2="730.1719"/><line style="stroke: #A80036; stroke-width: 1.0;" x1="758.5" x2="758.5" y1="730.1719" y2="743.1719"/><line style="stroke: #A80036; stroke-width: 1.0;" x1="717.5" x2="758.5" y1="743.1719" y2="743.1719"/><polygon fill="#A80036" points="727.5,739.1719,717.5,743.1719,727.5,747.1719,723.5,743.1719" style="stroke: #A80036; stroke-width: 1.0;"/><text fill="#000000" font-family="sans-serif" font-size="13" lengthAdjust="spacingAndGlyphs" textLength="172" x="723.5" y="725.106">Initialize Vertices Locations</text><polygon fill="#A80036" points="1819.5,768.3047,1829.5,772.3047,1819.5,776.3047,1823.5,772.3047" style="stroke: #A80036; stroke-width: 1.0;"/><line style="stroke: #A80036; stroke-width: 1.0;" x1="457.5" x2="1825.5" y1="772.3047" y2="772.3047"/><text fill="#000000" font-family="sans-serif" font-size="13" lengthAdjust="spacingAndGlyphs" textLength="112" x="464.5" y="767.2388">Initialize Recorder</text><line style="stroke: #A80036; stroke-width: 1.0;" x1="457.5" x2="499.5" y1="801.4375" y2="801.4375"/><line style="stroke: #A80036; stroke-width: 1.0;" x1="499.5" x2="499.5" y1="801.4375" y2="814.4375"/><line style="stroke: #A80036; stroke-width: 1.0;" x1="458.5" x2="499.5" y1="814.4375" y2="814.4375"/><polygon fill="#A80036" points="468.5,810.4375,458.5,814.4375,468.5,818.4375,464.5,814.4375" style="stroke: #A80036; stroke-width: 1.0;"/><text fill="#000000" font-family="sans-serif" font-size="13" lengthAdjust="spacingAndGlyphs" textLength="125" x="464.5" y="796.3716">Create All Vertices*</text><polygon fill="#A80036" points="704.5,839.5703,714.5,843.5703,704.5,847.5703,708.5,843.5703" style="stroke: #A80036; stroke-width: 1.0;"/><line style="stroke: #A80036; stroke-width: 1.0;" x1="457.5" x2="710.5" y1="843.5703" y2="843.5703"/><text fill="#000000" font-family="sans-serif" font-size="13" lengthAdjust="spacingAndGlyphs" textLength="137" x="464.5" y="838.5044">Generate Vertex Map</text><polygon fill="#A80036" points="704.5,868.7031,714.5,872.7031,704.5,876.7031,708.5,872.7031" style="stroke: #A80036; stroke-width: 1.0;"/><line style="stroke: #A80036; stroke-width: 1.0;" x1="457.5" x2="710.5" y1="872.7031" y2="872.7031"/><text fill="#000000" font-family="sans-serif" font-size="13" lengthAdjust="spacingAndGlyphs" textLength="131" x="464.5" y="867.6372">Initialize Starter Map</text><polygon fill="#A80036" points="704.5,897.8359,714.5,901.8359,704.5,905.8359,708.5,901.8359" style="stroke: #A80036; stroke-width: 1.0;"/><line style="stroke: #A80036; stroke-width: 1.0;" x1="457.5" x2="710.5" y1="901.8359" y2="901.8359"/><text fill="#000000" font-family="sans-serif" font-size="13" lengthAdjust="spacingAndGlyphs" textLength="118" x="464.5" y="896.77">Create All Vertices</text><path d="M13,916.8359 L83,916.8359 L83,923.8359 L73,933.8359 L13,933.8359 L13,916.8359 " fill="#EEEEEE" style="stroke: #000000; stroke-width: 1.0;"/><rect fill="none" height="75.3984" style="stroke: #000000; stroke-width: 2.0;" width="1959.5" x="13" y="916.8359"/><text fill="#000000" font-family="sans-serif" font-size="13" font-weight="bold" lengthAdjust="spacingAndGlyphs" textLength="25" x="28" y="929.9028">opt</text><text fill="#000000" font-family="sans-serif" font-size="11" font-weight="bold" lengthAdjust="spacingAndGlyphs" textLength="213" x="98" y="929.0464">[if serialized file name available]</text><polygon fill="#A80036" points="1910.5,951.1016,1920.5,955.1016,1910.5,959.1016,1914.5,955.1016" style="stroke: #A80036; stroke-width: 1.0;"/><line style="stroke: #A80036; stroke-width: 1.0;" x1="48.5" x2="1916.5" y1="955.1016" y2="955.1016"/><text fill="#000000" font-family="sans-serif" font-size="13" lengthAdjust="spacingAndGlyphs" textLength="92" x="55.5" y="950.0356">Deserialize file</text><polygon fill="#A80036" points="1314.5,980.2344,1304.5,984.2344,1314.5,988.2344,1310.5,984.2344" style="stroke: #A80036; stroke-width: 1.0;"/><line style="stroke: #A80036; stroke-width: 1.0;" x1="1308.5" x2="1921.5" y1="984.2344" y2="984.2344"/><text fill="#000000" font-family="sans-serif" font-size="13" lengthAdjust="spacingAndGlyphs" textLength="197" x="1320.5" y="979.1685">Create Synapses from Weights</text><rect fill="#EEEEEE" filter="url(#fkh18rtga7jwb)" height="3" style="stroke: #EEEEEE; stroke-width: 1.0;" width="1979.5" x="3" y="1019.8008"/><line style="stroke: #000000; stroke-width: 1.0;" x1="3" x2="1982.5" y1="1019.8008" y2="1019.8008"/><line style="stroke: #000000; stroke-width: 1.0;" x1="3" x2="1982.5" y1="1022.8008" y2="1022.8008"/><rect fill="#EEEEEE" filter="url(#fkh18rtga7jwb)" height="23.1328" style="stroke: #000000; stroke-width: 2.0;" width="96" x="944.75" y="1009.2344"/><text fill="#000000" font-family="sans-serif" font-size="13" font-weight="bold" lengthAdjust="spacingAndGlyphs" textLength="77" x="950.75" y="1025.3013">Simulation</text><polygon fill="#A80036" points="238.5,1059.5,248.5,1063.5,238.5,1067.5,242.5,1063.5" style="stroke: #A80036; stroke-width: 1.0;"/><line style="stroke: #A80036; stroke-width: 1.0;" x1="48.5" x2="244.5" y1="1063.5" y2="1063.5"/><text fill="#000000" font-family="sans-serif" font-size="13" lengthAdjust="spacingAndGlyphs" textLength="57" x="55.5" y="1058.4341">Simulate</text><path d="M189.5,1078.5 L266.5,1078.5 L266.5,1085.5 L256.5,1095.5 L189.5,1095.5 L189.5,1078.5 " fill="#EEEEEE" style="stroke: #000000; stroke-width: 1.0;"/><rect fill="none" height="383.7266" style="stroke: #000000; stroke-width: 2.0;" width="1693" x="189.5" y="1078.5"/><text fill="#000000" font-family="sans-serif" font-size="13" font-weight="bold" lengthAdjust="spacingAndGlyphs" textLength="32" x="204.5" y="1091.5669">loop</text><text fill="#000000" font-family="sans-serif" font-size="11" font-weight="bold" lengthAdjust="spacingAndGlyphs" textLength="172" x="281.5" y="1090.7104">[for i=0 to currentEpoch-1]</text><line style="stroke: #A80036; stroke-width: 1.0;" x1="250.5" x2="292.5" y1="1116.7656" y2="1116.7656"/><line style="stroke: #A80036; stroke-width: 1.0;" x1="292.5" x2="292.5" y1="1116.7656" y2="1129.7656"/><line style="stroke: #A80036; stroke-width: 1.0;" x1="251.5" x2="292.5" y1="1129.7656" y2="1129.7656"/><polygon fill="#A80036" points="261.5,1125.7656,251.5,1129.7656,261.5,1133.7656,257.5,1129.7656" style="stroke: #A80036; stroke-width: 1.0;"/><text fill="#000000" font-family="sans-serif" font-size="13" lengthAdjust="spacingAndGlyphs" textLength="98" x="257.5" y="1111.6997">Advance Epoch</text><path d="M199.5,1144.7656 L276.5,1144.7656 L276.5,1151.7656 L266.5,1161.7656 L199.5,1161.7656 L199.5,1144.7656 " fill="#EEEEEE" style="stroke: #000000; stroke-width: 1.0;"/><rect fill="none" height="162.7969" style="stroke: #000000; stroke-width: 2.0;" width="1437" x="199.5" y="1144.7656"/><text fill="#000000" font-family="sans-serif" font-size="13" font-weight="bold" lengthAdjust="spacingAndGlyphs" textLength="32" x="214.5" y="1157.8325">loop</text><text fill="#000000" font-family="sans-serif" font-size="11" font-weight="bold" lengthAdjust="spacingAndGlyphs" textLength="181" x="291.5" y="1156.9761">[for i=0 to epochDuration-1]</text><polygon fill="#A80036" points="445.5,1179.0313,455.5,1183.0313,445.5,1187.0313,449.5,1183.0313" style="stroke: #A80036; stroke-width: 1.0;"/><line style="stroke: #A80036; stroke-width: 1.0;" x1="250.5" x2="451.5" y1="1183.0313" y2="1183.0313"/><text fill="#000000" font-family="sans-serif" font-size="13" lengthAdjust="spacingAndGlyphs" textLength="55" x="257.5" y="1177.9653">Advance</text><polygon fill="#A80036" points="704.5,1208.1641,714.5,1212.1641,704.5,1216.1641,708.5,1212.1641" style="stroke: #A80036; stroke-width: 1.0;"/><line style="stroke: #A80036; stroke-width: 1.0;" x1="457.5" x2="710.5" y1="1212.1641" y2="1212.1641"/><text fill="#000000" font-family="sans-serif" font-size="13" lengthAdjust="spacingAndGlyphs" textLength="79" x="464.5" y="1207.0981">Get Vertices</text><polygon fill="#A80036" points="1012,1237.2969,1022,1241.2969,1012,1245.2969,1016,1241.2969" style="stroke: #A80036; stroke-width: 1.0;"/><line style="stroke: #A80036; stroke-width: 1.0;" x1="716.5" x2="1018" y1="1241.2969" y2="1241.2969"/><text fill="#000000" font-family="sans-serif" font-size="13" lengthAdjust="spacingAndGlyphs" textLength="111" x="723.5" y="1236.231">Advance Vertices</text><polygon fill="#A80036" points="1291.5,1266.4297,1301.5,1270.4297,1291.5,1274.4297,1295.5,1270.4297" style="stroke: #A80036; stroke-width: 1.0;"/><line style="stroke: #A80036; stroke-width: 1.0;" x1="457.5" x2="1297.5" y1="1270.4297" y2="1270.4297"/><text fill="#000000" font-family="sans-serif" font-size="13" lengthAdjust="spacingAndGlyphs" textLength="66" x="464.5" y="1265.3638">Get Edges</text><polygon fill="#A80036" points="1574,1295.5625,1584,1299.5625,1574,1303.5625,1578,1299.5625" style="stroke: #A80036; stroke-width: 1.0;"/><line style="stroke: #A80036; stroke-width: 1.0;" x1="1303.5" x2="1580" y1="1299.5625" y2="1299.5625"/><text fill="#000000" font-family="sans-serif" font-size="13" lengthAdjust="spacingAndGlyphs" textLength="98" x="1310.5" y="1294.4966">Advance Edges</text><polygon fill="#A80036" points="1291.5,1331.6953,1301.5,1335.6953,1291.5,1339.6953,1295.5,1335.6953" style="stroke: #A80036; stroke-width: 1.0;"/><line style="stroke: #A80036; stroke-width: 1.0;" x1="457.5" x2="1297.5" y1="1335.6953" y2="1335.6953"/><text fill="#000000" font-family="sans-serif" font-size="13" lengthAdjust="spacingAndGlyphs" textLength="130" x="464.5" y="1330.6294">Update Connections</text><path d="M417.5,1350.6953 L487.5,1350.6953 L487.5,1357.6953 L477.5,1367.6953 L417.5,1367.6953 L417.5,1350.6953 " fill="#EEEEEE" style="stroke: #000000; stroke-width: 1.0;"/><rect fill="none" height="75.3984" style="stroke: #000000; stroke-width: 2.0;" width="949" x="417.5" y="1350.6953"/><text fill="#000000" font-family="sans-serif" font-size="13" font-weight="bold" lengthAdjust="spacingAndGlyphs" textLength="25" x="432.5" y="1363.7622">opt</text><text fill="#000000" font-family="sans-serif" font-size="11" font-weight="bold" lengthAdjust="spacingAndGlyphs" textLength="228" x="502.5" y="1362.9058">[if updateConnections returns true]</text><polygon fill="#A80036" points="1291.5,1384.9609,1301.5,1388.9609,1291.5,1392.9609,1295.5,1388.9609" style="stroke: #A80036; stroke-width: 1.0;"/><line style="stroke: #A80036; stroke-width: 1.0;" x1="457.5" x2="1297.5" y1="1388.9609" y2="1388.9609"/><text fill="#000000" font-family="sans-serif" font-size="13" lengthAdjust="spacingAndGlyphs" textLength="167" x="464.5" y="1383.895">Update Synapses Weights</text><polygon fill="#A80036" points="1291.5,1414.0938,1301.5,1418.0938,1291.5,1422.0938,1295.5,1418.0938" style="stroke: #A80036; stroke-width: 1.0;"/><line style="stroke: #A80036; stroke-width: 1.0;" x1="457.5" x2="1297.5" y1="1418.0938" y2="1418.0938"/><text fill="#000000" font-family="sans-serif" font-size="13" lengthAdjust="spacingAndGlyphs" textLength="148" x="464.5" y="1413.0278">Create Edge Index Map</text><polygon fill="#A80036" points="1819.5,1450.2266,1829.5,1454.2266,1819.5,1458.2266,1823.5,1454.2266" style="stroke: #A80036; stroke-width: 1.0;"/><line style="stroke: #A80036; stroke-width: 1.0;" x1="457.5" x2="1825.5" y1="1454.2266" y2="1454.2266"/><text fill="#000000" font-family="sans-serif" font-size="13" lengthAdjust="spacingAndGlyphs" textLength="162" x="464.5" y="1449.1606">Update (Compile) History</text><polygon fill="#A80036" points="445.5,1486.3594,455.5,1490.3594,445.5,1494.3594,449.5,1490.3594" style="stroke: #A80036; stroke-width: 1.0;"/><line style="stroke: #A80036; stroke-width: 1.0;" x1="250.5" x2="451.5" y1="1490.3594" y2="1490.3594"/><text fill="#000000" font-family="sans-serif" font-size="13" lengthAdjust="spacingAndGlyphs" textLength="82" x="257.5" y="1485.2935">Save Results</text><polygon fill="#A80036" points="1819.5,1515.4922,1829.5,1519.4922,1819.5,1523.4922,1823.5,1519.4922" style="stroke: #A80036; stroke-width: 1.0;"/><line style="stroke: #A80036; stroke-width: 1.0;" x1="457.5" x2="1825.5" y1="1519.4922" y2="1519.4922"/><text fill="#000000" font-family="sans-serif" font-size="13" lengthAdjust="spacingAndGlyphs" textLength="139" x="464.5" y="1514.4263">Save Simulation Data</text><path d="M13,1534.4922 L83,1534.4922 L83,1541.4922 L73,1551.4922 L13,1551.4922 L13,1534.4922 " fill="#EEEEEE" style="stroke: #000000; stroke-width: 1.0;"/><rect fill="none" height="46.2656" style="stroke: #000000; stroke-width: 2.0;" width="1959.5" x="13" y="1534.4922"/><text fill="#000000" font-family="sans-serif" font-size="13" font-weight="bold" lengthAdjust="spacingAndGlyphs" textLength="25" x="28" y="1547.5591">opt</text><text fill="#000000" font-family="sans-serif" font-size="11" font-weight="bold" lengthAdjust="spacingAndGlyphs" textLength="230" x="98" y="1546.7026">[if serialization file name available]</text><polygon fill="#A80036" points="1910.5,1568.7578,1920.5,1572.7578,1910.5,1576.7578,1914.5,1572.7578" style="stroke: #A80036; stroke-width: 1.0;"/><line style="stroke: #A80036; stroke-width: 1.0;" x1="48.5" x2="1916.5" y1="1572.7578" y2="1572.7578"/><text fill="#000000" font-family="sans-serif" font-size="13" lengthAdjust="spacingAndGlyphs" textLength="120" x="55.5" y="1567.6919">Serialize Synapses</text><rect fill="#EEEEEE" filter="url(#fkh18rtga7jwb)" height="3" style="stroke: #EEEEEE; stroke-width: 1.0;" width="1979.5" x="3" y="1608.3242"/><line style="stroke: #000000; stroke-width: 1.0;" x1="3" x2="1982.5" y1="1608.3242" y2="1608.3242"/><line style="stroke: #000000; stroke-width: 1.0;" x1="3" x2="1982.5" y1="1611.3242" y2="1611.3242"/><rect fill="#EEEEEE" filter="url(#fkh18rtga7jwb)" height="23.1328" style="stroke: #000000; stroke-width: 2.0;" width="106" x="939.75" y="1597.7578"/><text fill="#000000" font-family="sans-serif" font-size="13" font-weight="bold" lengthAdjust="spacingAndGlyphs" textLength="87" x="945.75" y="1613.8247">Termination</text><polygon fill="#A80036" points="238.5,1648.0234,248.5,1652.0234,238.5,1656.0234,242.5,1652.0234" style="stroke: #A80036; stroke-width: 1.0;"/><line style="stroke: #A80036; stroke-width: 1.0;" x1="48.5" x2="244.5" y1="1652.0234" y2="1652.0234"/><text fill="#000000" font-family="sans-serif" font-size="13" lengthAdjust="spacingAndGlyphs" textLength="79" x="55.5" y="1646.9575">Finish Signal</text><polygon fill="#A80036" points="445.5,1677.1563,455.5,1681.1563,445.5,1685.1563,449.5,1681.1563" style="stroke: #A80036; stroke-width: 1.0;"/><line style="stroke: #A80036; stroke-width: 1.0;" x1="250.5" x2="451.5" y1="1681.1563" y2="1681.1563"/><text fill="#000000" font-family="sans-serif" font-size="13" lengthAdjust="spacingAndGlyphs" textLength="167" x="257.5" y="1676.0903">Clean up model resources</text><polygon fill="#A80036" points="1819.5,1706.2891,1829.5,1710.2891,1819.5,1714.2891,1823.5,1710.2891" style="stroke: #A80036; stroke-width: 1.0;"/><line style="stroke: #A80036; stroke-width: 1.0;" x1="48.5" x2="1825.5" y1="1710.2891" y2="1710.2891"/><text fill="#000000" font-family="sans-serif" font-size="13" lengthAdjust="spacingAndGlyphs" textLength="132" x="55.5" y="1705.2231">Terminate Recording</text><line style="stroke: #A80036; stroke-width: 1.0;" x1="48.5" x2="90.5" y1="1739.4219" y2="1739.4219"/><line style="stroke: #A80036; stroke-width: 1.0;" x1="90.5" x2="90.5" y1="1739.4219" y2="1752.4219"/><line style="stroke: #A80036; stroke-width: 1.0;" x1="49.5" x2="90.5" y1="1752.4219" y2="1752.4219"/><polygon fill="#A80036" points="59.5,1748.4219,49.5,1752.4219,59.5,1756.4219,55.5,1752.4219" style="stroke: #A80036; stroke-width: 1.0;"/><text fill="#000000" font-family="sans-serif" font-size="13" lengthAdjust="spacingAndGlyphs" textLength="82" x="55.5" y="1734.356">Exit program</text><!--MD5=[ca57e7a122e79f368e11dbf05181d55e]
@startuml graphitti program flow

title Graphitti General Program Flow

== Initialization ==
Core -> Simulator: Load Simulator Parameters
Core -> Simulator: Instatiate Simulator Objects
Simulator -> Model: Instantiate (CPU/GPU) Model
Model -> "Layout Factory": Invoke Layout Create 
"Layout Factory" -> Layout: Instantiate
Layout -> "Vertices Factory": Invoke All Vertices Create 
"Vertices Factory" -> "All Vertices": Instantiate

Model -> "Connections Factory": Invoke Connections Create 
"Connections Factory" -> Connections: Instantiate 
Connections -> "Edges Factory": Invoke All Edges Create 
"Edges Factory" -> "All Edges": Instantiate

Model -> "Recorders Factory": Invoke Recorders Create
"Recorders Factory" -> Recorder: Instantiate*

Core -> Simulator: Setup 
Simulator -> Model: Model Setup
Model -> Layout: Get Vertices 
Layout -> "All Vertices": Setup Vertices
Model -> Connections: Get Edges
Connections -> "All Edges": Setup Edges
Model -> Layout: Setup Layout
Layout -> Layout: Initialize Vertices Locations
Model -> Recorder: Initialize Recorder 
Model -> Model: Create All Vertices*
Model -> Layout: Generate Vertex Map 
Model -> Layout: Initialize Starter Map 
Model -> Layout: Create All Vertices
opt if serialized file name available
    Core -> Serializer: Deserialize file
    Serializer -> Connections: Create Synapses from Weights
end

== Simulation ==

Core -> Simulator: Simulate
loop for i=0 to currentEpoch-1
    Simulator -> Simulator: Advance Epoch
    loop for i=0 to epochDuration-1
        Simulator->Model: Advance
        Model -> Layout: Get Vertices 
        Layout -> "All Vertices": Advance Vertices
        Model -> Connections: Get Edges
        Connections -> "All Edges": Advance Edges
    end
    Model -> Connections: Update Connections
    opt if updateConnections returns true
        Model -> Connections: Update Synapses Weights
        Model -> Connections: Create Edge Index Map
    end
    Model->Recorder: Update (Compile) History
end
Simulator -> Model: Save Results 
Model -> Recorder: Save Simulation Data 
opt if serialization file name available 
    Core -> Serializer: Serialize Synapses
end

== Termination ==

Core -> Simulator: Finish Signal 
Simulator -> Model: Clean up model resources
Core -> Recorder: Terminate Recording
Core -> Core: Exit program

@enduml

PlantUML version 1.2020.02(Sun Mar 01 10:22:07 GMT 2020)
(GPL source distribution)
Java Runtime: OpenJDK Runtime Environment
JVM: OpenJDK 64-Bit Server VM
Java Version: 11.0.9+11-Ubuntu-0ubuntu1
Operating System: Linux
Default Encoding: ANSI_X3.4-1968
Language: en
Country: US
--></g></svg>