<?xml version="1.0" encoding="UTF-8" standalone="no"?><svg xmlns="http://www.w3.org/2000/svg" xmlns:xlink="http://www.w3.org/1999/xlink" contentScriptType="application/ecmascript" contentStyleType="text/css" height="555px" preserveAspectRatio="none" style="width:892px;height:555px;" version="1.1" viewBox="0 0 892 555" width="892px" zoomAndPan="magnify"><defs><filter height="300%" id="f19tm2j1wyw8yy" width="300%" x="-1" y="-1"><feGaussianBlur result="blurOut" stdDeviation="2.0"/><feColorMatrix in="blurOut" result="blurOut2" type="matrix" values="0 0 0 0 0 0 0 0 0 0 0 0 0 0 0 0 0 0 .4 0"/><feOffset dx="4.0" dy="4.0" in="blurOut2" result="blurOut3"/><feBlend in="SourceGraphic" in2="blurOut3" mode="normal"/></filter></defs><g><text fill="#000000" font-family="sans-serif" font-size="18" lengthAdjust="spacingAndGlyphs" textLength="372" x="257.75" y="28.708">Simulator Object Creation Sequence Diagram</text><rect fill="#FFFFFF" filter="url(#f19tm2j1wyw8yy)" height="387.3125" style="stroke:#A80036;stroke-width:1.0;" width="10" x="215.5" y="116.3828"/><line style="stroke:#A80036;stroke-width:1.0;stroke-dasharray:5.0,5.0;" x1="44" x2="44" y1="75.25" y2="512.6953"/><line style="stroke:#A80036;stroke-width:1.0;stroke-dasharray:5.0,5.0;" x1="220.5" x2="220.5" y1="117.8984" y2="512.6953"/><line style="stroke:#A80036;stroke-width:1.0;stroke-dasharray:5.0,5.0;" x1="364.5" x2="364.5" y1="75.25" y2="512.6953"/><line style="stroke:#A80036;stroke-width:1.0;stroke-dasharray:5.0,5.0;" x1="481.5" x2="481.5" y1="192.3281" y2="512.6953"/><line style="stroke:#A80036;stroke-width:1.0;stroke-dasharray:5.0,5.0;" x1="564.5" x2="564.5" y1="266.7578" y2="512.6953"/><line style="stroke:#A80036;stroke-width:1.0;stroke-dasharray:5.0,5.0;" x1="666.5" x2="666.5" y1="341.1875" y2="512.6953"/><line style="stroke:#A80036;stroke-width:1.0;stroke-dasharray:5.0,5.0;" x1="761.5" x2="761.5" y1="415.6172" y2="512.6953"/><line style="stroke:#A80036;stroke-width:1.0;stroke-dasharray:5.0,5.0;" x1="844.5" x2="844.5" y1="490.0469" y2="512.6953"/><rect fill="#FEFECE" filter="url(#f19tm2j1wyw8yy)" height="30.2969" style="stroke:#A80036;stroke-width:1.5;" width="75" x="5" y="39.9531"/><text fill="#000000" font-family="sans-serif" font-size="14" lengthAdjust="spacingAndGlyphs" textLength="61" x="12" y="59.9482">Simulator</text><rect fill="#FEFECE" filter="url(#f19tm2j1wyw8yy)" height="30.2969" style="stroke:#A80036;stroke-width:1.5;" width="75" x="5" y="511.6953"/><text fill="#000000" font-family="sans-serif" font-size="14" lengthAdjust="spacingAndGlyphs" textLength="61" x="12" y="531.6904">Simulator</text><rect fill="#FEFECE" filter="url(#f19tm2j1wyw8yy)" height="30.2969" style="stroke:#A80036;stroke-width:1.5;" width="54" x="191.5" y="511.6953"/><text fill="#000000" font-family="sans-serif" font-size="14" lengthAdjust="spacingAndGlyphs" textLength="40" x="198.5" y="531.6904">Model</text><rect fill="#FEFECE" filter="url(#f19tm2j1wyw8yy)" height="30.2969" style="stroke:#A80036;stroke-width:1.5;" width="60" x="332.5" y="39.9531"/><text fill="#000000" font-family="sans-serif" font-size="14" lengthAdjust="spacingAndGlyphs" textLength="46" x="339.5" y="59.9482">Factory</text><rect fill="#FEFECE" filter="url(#f19tm2j1wyw8yy)" height="30.2969" style="stroke:#A80036;stroke-width:1.5;" width="60" x="332.5" y="511.6953"/><text fill="#000000" font-family="sans-serif" font-size="14" lengthAdjust="spacingAndGlyphs" textLength="46" x="339.5" y="531.6904">Factory</text><rect fill="#FEFECE" filter="url(#f19tm2j1wyw8yy)" height="30.2969" style="stroke:#A80036;stroke-width:1.5;" width="56" x="451.5" y="511.6953"/><text fill="#000000" font-family="sans-serif" font-size="14" lengthAdjust="spacingAndGlyphs" textLength="42" x="458.5" y="531.6904">Layout</text><rect fill="#FEFECE" filter="url(#f19tm2j1wyw8yy)" height="30.2969" style="stroke:#A80036;stroke-width:1.5;" width="83" x="521.5" y="511.6953"/><text fill="#000000" font-family="sans-serif" font-size="14" lengthAdjust="spacingAndGlyphs" textLength="69" x="528.5" y="531.6904">AllVertices</text><rect fill="#FEFECE" filter="url(#f19tm2j1wyw8yy)" height="30.2969" style="stroke:#A80036;stroke-width:1.5;" width="93" x="618.5" y="511.6953"/><text fill="#000000" font-family="sans-serif" font-size="14" lengthAdjust="spacingAndGlyphs" textLength="79" x="625.5" y="531.6904">Connections</text><rect fill="#FEFECE" filter="url(#f19tm2j1wyw8yy)" height="30.2969" style="stroke:#A80036;stroke-width:1.5;" width="68" x="725.5" y="511.6953"/><text fill="#000000" font-family="sans-serif" font-size="14" lengthAdjust="spacingAndGlyphs" textLength="54" x="732.5" y="531.6904">AllEdges</text><rect fill="#FEFECE" filter="url(#f19tm2j1wyw8yy)" height="30.2969" style="stroke:#A80036;stroke-width:1.5;" width="71" x="807.5" y="511.6953"/><text fill="#000000" font-family="sans-serif" font-size="14" lengthAdjust="spacingAndGlyphs" textLength="57" x="814.5" y="531.6904">Recorder</text><rect fill="#FFFFFF" filter="url(#f19tm2j1wyw8yy)" height="387.3125" style="stroke:#A80036;stroke-width:1.0;" width="10" x="215.5" y="116.3828"/><polygon fill="#A80036" points="179.5,102.3828,189.5,106.3828,179.5,110.3828,183.5,106.3828" style="stroke:#A80036;stroke-width:1.0;"/><line style="stroke:#A80036;stroke-width:1.0;" x1="44.5" x2="185.5" y1="106.3828" y2="106.3828"/><text fill="#000000" font-family="sans-serif" font-size="13" lengthAdjust="spacingAndGlyphs" textLength="123" x="51.5" y="101.3169">New CPU/GPU Model</text><rect fill="#FEFECE" filter="url(#f19tm2j1wyw8yy)" height="30.2969" style="stroke:#A80036;stroke-width:1.5;" width="54" x="191.5" y="85.25"/><text fill="#000000" font-family="sans-serif" font-size="14" lengthAdjust="spacingAndGlyphs" textLength="40" x="198.5" y="105.2451">Model</text><polygon fill="#A80036" points="352.5,147.6797,362.5,151.6797,352.5,155.6797,356.5,151.6797" style="stroke:#A80036;stroke-width:1.0;"/><line style="stroke:#A80036;stroke-width:1.0;" x1="225.5" x2="358.5" y1="151.6797" y2="151.6797"/><text fill="#000000" font-family="sans-serif" font-size="13" lengthAdjust="spacingAndGlyphs" textLength="80" x="232.5" y="146.6138">Create Layout</text><polygon fill="#A80036" points="439.5,176.8125,449.5,180.8125,439.5,184.8125,443.5,180.8125" style="stroke:#A80036;stroke-width:1.0;"/><line style="stroke:#A80036;stroke-width:1.0;" x1="364.5" x2="445.5" y1="180.8125" y2="180.8125"/><text fill="#000000" font-family="sans-serif" font-size="13" lengthAdjust="spacingAndGlyphs" textLength="63" x="371.5" y="175.7466">Instantiate</text><rect fill="#FEFECE" filter="url(#f19tm2j1wyw8yy)" height="30.2969" style="stroke:#A80036;stroke-width:1.5;" width="56" x="451.5" y="159.6797"/><text fill="#000000" font-family="sans-serif" font-size="14" lengthAdjust="spacingAndGlyphs" textLength="42" x="458.5" y="179.6748">Layout</text><polygon fill="#A80036" points="375.5,222.1094,365.5,226.1094,375.5,230.1094,371.5,226.1094" style="stroke:#A80036;stroke-width:1.0;"/><line style="stroke:#A80036;stroke-width:1.0;" x1="369.5" x2="480.5" y1="226.1094" y2="226.1094"/><text fill="#000000" font-family="sans-serif" font-size="13" lengthAdjust="spacingAndGlyphs" textLength="86" x="381.5" y="221.0435">Create Vertices</text><polygon fill="#A80036" points="509.5,251.2422,519.5,255.2422,509.5,259.2422,513.5,255.2422" style="stroke:#A80036;stroke-width:1.0;"/><line style="stroke:#A80036;stroke-width:1.0;" x1="364.5" x2="515.5" y1="255.2422" y2="255.2422"/><text fill="#000000" font-family="sans-serif" font-size="13" lengthAdjust="spacingAndGlyphs" textLength="63" x="371.5" y="250.1763">Instantiate</text><rect fill="#FEFECE" filter="url(#f19tm2j1wyw8yy)" height="30.2969" style="stroke:#A80036;stroke-width:1.5;" width="83" x="521.5" y="234.1094"/><text fill="#000000" font-family="sans-serif" font-size="14" lengthAdjust="spacingAndGlyphs" textLength="69" x="528.5" y="254.1045">AllVertices</text><polygon fill="#A80036" points="352.5,296.5391,362.5,300.5391,352.5,304.5391,356.5,300.5391" style="stroke:#A80036;stroke-width:1.0;"/><line style="stroke:#A80036;stroke-width:1.0;" x1="225.5" x2="358.5" y1="300.5391" y2="300.5391"/><text fill="#000000" font-family="sans-serif" font-size="13" lengthAdjust="spacingAndGlyphs" textLength="115" x="232.5" y="295.4731">Create Connections</text><polygon fill="#A80036" points="606.5,325.6719,616.5,329.6719,606.5,333.6719,610.5,329.6719" style="stroke:#A80036;stroke-width:1.0;"/><line style="stroke:#A80036;stroke-width:1.0;" x1="364.5" x2="612.5" y1="329.6719" y2="329.6719"/><text fill="#000000" font-family="sans-serif" font-size="13" lengthAdjust="spacingAndGlyphs" textLength="63" x="371.5" y="324.606">Instantiate</text><rect fill="#FEFECE" filter="url(#f19tm2j1wyw8yy)" height="30.2969" style="stroke:#A80036;stroke-width:1.5;" width="93" x="618.5" y="308.5391"/><text fill="#000000" font-family="sans-serif" font-size="14" lengthAdjust="spacingAndGlyphs" textLength="79" x="625.5" y="328.5342">Connections</text><polygon fill="#A80036" points="375.5,370.9688,365.5,374.9688,375.5,378.9688,371.5,374.9688" style="stroke:#A80036;stroke-width:1.0;"/><line style="stroke:#A80036;stroke-width:1.0;" x1="369.5" x2="666" y1="374.9688" y2="374.9688"/><text fill="#000000" font-family="sans-serif" font-size="13" lengthAdjust="spacingAndGlyphs" textLength="93" x="381.5" y="369.9028">Create  AllEdges</text><polygon fill="#A80036" points="713.5,400.1016,723.5,404.1016,713.5,408.1016,717.5,404.1016" style="stroke:#A80036;stroke-width:1.0;"/><line style="stroke:#A80036;stroke-width:1.0;" x1="364.5" x2="719.5" y1="404.1016" y2="404.1016"/><text fill="#000000" font-family="sans-serif" font-size="13" lengthAdjust="spacingAndGlyphs" textLength="63" x="371.5" y="399.0356">Instantiate</text><rect fill="#FEFECE" filter="url(#f19tm2j1wyw8yy)" height="30.2969" style="stroke:#A80036;stroke-width:1.5;" width="68" x="725.5" y="382.9688"/><text fill="#000000" font-family="sans-serif" font-size="14" lengthAdjust="spacingAndGlyphs" textLength="54" x="732.5" y="402.9639">AllEdges</text><polygon fill="#A80036" points="352.5,445.3984,362.5,449.3984,352.5,453.3984,356.5,449.3984" style="stroke:#A80036;stroke-width:1.0;"/><line style="stroke:#A80036;stroke-width:1.0;" x1="225.5" x2="358.5" y1="449.3984" y2="449.3984"/><text fill="#000000" font-family="sans-serif" font-size="13" lengthAdjust="spacingAndGlyphs" textLength="101" x="232.5" y="444.3325">Create Recorders</text><polygon fill="#A80036" points="795.5,474.5313,805.5,478.5313,795.5,482.5313,799.5,478.5313" style="stroke:#A80036;stroke-width:1.0;"/><line style="stroke:#A80036;stroke-width:1.0;" x1="364.5" x2="801.5" y1="478.5313" y2="478.5313"/><text fill="#000000" font-family="sans-serif" font-size="13" lengthAdjust="spacingAndGlyphs" textLength="63" x="371.5" y="473.4653">Instantiate</text><rect fill="#FEFECE" filter="url(#f19tm2j1wyw8yy)" height="30.2969" style="stroke:#A80036;stroke-width:1.5;" width="71" x="807.5" y="457.3984"/><text fill="#000000" font-family="sans-serif" font-size="14" lengthAdjust="spacingAndGlyphs" textLength="57" x="814.5" y="477.3936">Recorder</text><!--MD5=[e0f00893e0f6be9437a2e7a3bb5f4224]
@startuml simObjectsCreation

title Simulator Object Creation Sequence Diagram

Simulator -> Model ** : New CPU/GPU Model
activate Model
Model -> Factory: Create Layout
Factory -> Layout **: Instantiate
Layout -> Factory: Create Vertices
Factory -> AllVertices **: Instantiate

Model -> Factory: Create Connections
Factory -> Connections **: Instantiate
Connections -> Factory: Create  AllEdges
Factory -> AllEdges **: Instantiate

Model -> Factory: Create Recorders
Factory -> Recorder **: Instantiate

@enduml

PlantUML version 1.2020.23(Sun Dec 13 19:14:58 GMT 2020)
(GPL source distribution)
Java Runtime: OpenJDK Runtime Environment
JVM: OpenJDK 64-Bit Server VM
Default Encoding: UTF-8
Language: en
Country: US
--></g></svg>