<?xml version="1.0" encoding="UTF-8" standalone="no"?><svg xmlns="http://www.w3.org/2000/svg" xmlns:xlink="http://www.w3.org/1999/xlink" contentScriptType="application/ecmascript" contentStyleType="text/css" height="543px" preserveAspectRatio="none" style="width:850px;height:543px;" version="1.1" viewBox="0 0 850 543" width="850px" zoomAndPan="magnify"><defs><filter height="300%" id="fmnhh6gq5ktxp" width="300%" x="-1" y="-1"><feGaussianBlur result="blurOut" stdDeviation="2.0"/><feColorMatrix in="blurOut" result="blurOut2" type="matrix" values="0 0 0 0 0 0 0 0 0 0 0 0 0 0 0 0 0 0 .4 0"/><feOffset dx="4.0" dy="4.0" in="blurOut2" result="blurOut3"/><feBlend in="SourceGraphic" in2="blurOut3" mode="normal"/></filter></defs><g><text fill="#000000" font-family="sans-serif" font-size="18" lengthAdjust="spacingAndGlyphs" textLength="131" x="357" y="28.708">Simulator Setup</text><line style="stroke:#A80036;stroke-width:1.0;stroke-dasharray:5.0,5.0;" x1="28" x2="28" y1="75.25" y2="499.9766"/><line style="stroke:#A80036;stroke-width:1.0;stroke-dasharray:5.0,5.0;" x1="101" x2="101" y1="75.25" y2="499.9766"/><line style="stroke:#A80036;stroke-width:1.0;stroke-dasharray:5.0,5.0;" x1="199.5" x2="199.5" y1="75.25" y2="499.9766"/><line style="stroke:#A80036;stroke-width:1.0;stroke-dasharray:5.0,5.0;" x1="346.5" x2="346.5" y1="75.25" y2="499.9766"/><line style="stroke:#A80036;stroke-width:1.0;stroke-dasharray:5.0,5.0;" x1="516" x2="516" y1="75.25" y2="499.9766"/><line style="stroke:#A80036;stroke-width:1.0;stroke-dasharray:5.0,5.0;" x1="620" x2="620" y1="75.25" y2="499.9766"/><line style="stroke:#A80036;stroke-width:1.0;stroke-dasharray:5.0,5.0;" x1="717" x2="717" y1="75.25" y2="499.9766"/><line style="stroke:#A80036;stroke-width:1.0;stroke-dasharray:5.0,5.0;" x1="802" x2="802" y1="75.25" y2="499.9766"/><rect fill="#FEFECE" filter="url(#fmnhh6gq5ktxp)" height="30.2969" style="stroke:#A80036;stroke-width:1.5;" width="43" x="5" y="39.9531"/><text fill="#000000" font-family="sans-serif" font-size="14" lengthAdjust="spacingAndGlyphs" textLength="29" x="12" y="59.9482">Core</text><rect fill="#FEFECE" filter="url(#fmnhh6gq5ktxp)" height="30.2969" style="stroke:#A80036;stroke-width:1.5;" width="43" x="5" y="498.9766"/><text fill="#000000" font-family="sans-serif" font-size="14" lengthAdjust="spacingAndGlyphs" textLength="29" x="12" y="518.9717">Core</text><rect fill="#FEFECE" filter="url(#fmnhh6gq5ktxp)" height="30.2969" style="stroke:#A80036;stroke-width:1.5;" width="75" x="62" y="39.9531"/><text fill="#000000" font-family="sans-serif" font-size="14" lengthAdjust="spacingAndGlyphs" textLength="61" x="69" y="59.9482">Simulator</text><rect fill="#FEFECE" filter="url(#fmnhh6gq5ktxp)" height="30.2969" style="stroke:#A80036;stroke-width:1.5;" width="75" x="62" y="498.9766"/><text fill="#000000" font-family="sans-serif" font-size="14" lengthAdjust="spacingAndGlyphs" textLength="61" x="69" y="518.9717">Simulator</text><rect fill="#FEFECE" filter="url(#fmnhh6gq5ktxp)" height="30.2969" style="stroke:#A80036;stroke-width:1.5;" width="54" x="170.5" y="39.9531"/><text fill="#000000" font-family="sans-serif" font-size="14" lengthAdjust="spacingAndGlyphs" textLength="40" x="177.5" y="59.9482">Model</text><rect fill="#FEFECE" filter="url(#fmnhh6gq5ktxp)" height="30.2969" style="stroke:#A80036;stroke-width:1.5;" width="54" x="170.5" y="498.9766"/><text fill="#000000" font-family="sans-serif" font-size="14" lengthAdjust="spacingAndGlyphs" textLength="40" x="177.5" y="518.9717">Model</text><rect fill="#FEFECE" filter="url(#fmnhh6gq5ktxp)" height="30.2969" style="stroke:#A80036;stroke-width:1.5;" width="56" x="316.5" y="39.9531"/><text fill="#000000" font-family="sans-serif" font-size="14" lengthAdjust="spacingAndGlyphs" textLength="42" x="323.5" y="59.9482">Layout</text><rect fill="#FEFECE" filter="url(#fmnhh6gq5ktxp)" height="30.2969" style="stroke:#A80036;stroke-width:1.5;" width="56" x="316.5" y="498.9766"/><text fill="#000000" font-family="sans-serif" font-size="14" lengthAdjust="spacingAndGlyphs" textLength="42" x="323.5" y="518.9717">Layout</text><rect fill="#FEFECE" filter="url(#fmnhh6gq5ktxp)" height="30.2969" style="stroke:#A80036;stroke-width:1.5;" width="87" x="471" y="39.9531"/><text fill="#000000" font-family="sans-serif" font-size="14" lengthAdjust="spacingAndGlyphs" textLength="73" x="478" y="59.9482">All Vertices</text><rect fill="#FEFECE" filter="url(#fmnhh6gq5ktxp)" height="30.2969" style="stroke:#A80036;stroke-width:1.5;" width="87" x="471" y="498.9766"/><text fill="#000000" font-family="sans-serif" font-size="14" lengthAdjust="spacingAndGlyphs" textLength="73" x="478" y="518.9717">All Vertices</text><rect fill="#FEFECE" filter="url(#fmnhh6gq5ktxp)" height="30.2969" style="stroke:#A80036;stroke-width:1.5;" width="93" x="572" y="39.9531"/><text fill="#000000" font-family="sans-serif" font-size="14" lengthAdjust="spacingAndGlyphs" textLength="79" x="579" y="59.9482">Connections</text><rect fill="#FEFECE" filter="url(#fmnhh6gq5ktxp)" height="30.2969" style="stroke:#A80036;stroke-width:1.5;" width="93" x="572" y="498.9766"/><text fill="#000000" font-family="sans-serif" font-size="14" lengthAdjust="spacingAndGlyphs" textLength="79" x="579" y="518.9717">Connections</text><rect fill="#FEFECE" filter="url(#fmnhh6gq5ktxp)" height="30.2969" style="stroke:#A80036;stroke-width:1.5;" width="72" x="679" y="39.9531"/><text fill="#000000" font-family="sans-serif" font-size="14" lengthAdjust="spacingAndGlyphs" textLength="58" x="686" y="59.9482">All Edges</text><rect fill="#FEFECE" filter="url(#fmnhh6gq5ktxp)" height="30.2969" style="stroke:#A80036;stroke-width:1.5;" width="72" x="679" y="498.9766"/><text fill="#000000" font-family="sans-serif" font-size="14" lengthAdjust="spacingAndGlyphs" textLength="58" x="686" y="518.9717">All Edges</text><rect fill="#FEFECE" filter="url(#fmnhh6gq5ktxp)" height="30.2969" style="stroke:#A80036;stroke-width:1.5;" width="71" x="765" y="39.9531"/><text fill="#000000" font-family="sans-serif" font-size="14" lengthAdjust="spacingAndGlyphs" textLength="57" x="772" y="59.9482">Recorder</text><rect fill="#FEFECE" filter="url(#fmnhh6gq5ktxp)" height="30.2969" style="stroke:#A80036;stroke-width:1.5;" width="71" x="765" y="498.9766"/><text fill="#000000" font-family="sans-serif" font-size="14" lengthAdjust="spacingAndGlyphs" textLength="57" x="772" y="518.9717">Recorder</text><polygon fill="#A80036" points="89.5,102.3828,99.5,106.3828,89.5,110.3828,93.5,106.3828" style="stroke:#A80036;stroke-width:1.0;"/><line style="stroke:#A80036;stroke-width:1.0;" x1="28.5" x2="95.5" y1="106.3828" y2="106.3828"/><text fill="#000000" font-family="sans-serif" font-size="13" lengthAdjust="spacingAndGlyphs" textLength="34" x="35.5" y="101.3169">Setup</text><polygon fill="#A80036" points="187.5,131.5156,197.5,135.5156,187.5,139.5156,191.5,135.5156" style="stroke:#A80036;stroke-width:1.0;"/><line style="stroke:#A80036;stroke-width:1.0;" x1="101.5" x2="193.5" y1="135.5156" y2="135.5156"/><text fill="#000000" font-family="sans-serif" font-size="13" lengthAdjust="spacingAndGlyphs" textLength="74" x="108.5" y="130.4497">Model Setup</text><polygon fill="#A80036" points="334.5,160.6484,344.5,164.6484,334.5,168.6484,338.5,164.6484" style="stroke:#A80036;stroke-width:1.0;"/><line style="stroke:#A80036;stroke-width:1.0;" x1="199.5" x2="340.5" y1="164.6484" y2="164.6484"/><text fill="#000000" font-family="sans-serif" font-size="13" lengthAdjust="spacingAndGlyphs" textLength="68" x="206.5" y="159.5825">Get Vertices</text><polygon fill="#A80036" points="504.5,189.7813,514.5,193.7813,504.5,197.7813,508.5,193.7813" style="stroke:#A80036;stroke-width:1.0;"/><line style="stroke:#A80036;stroke-width:1.0;" x1="346.5" x2="510.5" y1="193.7813" y2="193.7813"/><text fill="#000000" font-family="sans-serif" font-size="13" lengthAdjust="spacingAndGlyphs" textLength="82" x="353.5" y="188.7153">Setup Vertices</text><polygon fill="#A80036" points="608.5,218.9141,618.5,222.9141,608.5,226.9141,612.5,222.9141" style="stroke:#A80036;stroke-width:1.0;"/><line style="stroke:#A80036;stroke-width:1.0;" x1="199.5" x2="614.5" y1="222.9141" y2="222.9141"/><text fill="#000000" font-family="sans-serif" font-size="13" lengthAdjust="spacingAndGlyphs" textLength="58" x="206.5" y="217.8481">Get Edges</text><polygon fill="#A80036" points="705,248.0469,715,252.0469,705,256.0469,709,252.0469" style="stroke:#A80036;stroke-width:1.0;"/><line style="stroke:#A80036;stroke-width:1.0;" x1="620.5" x2="711" y1="252.0469" y2="252.0469"/><text fill="#000000" font-family="sans-serif" font-size="13" lengthAdjust="spacingAndGlyphs" textLength="72" x="627.5" y="246.981">Setup Edges</text><polygon fill="#A80036" points="334.5,277.1797,344.5,281.1797,334.5,285.1797,338.5,281.1797" style="stroke:#A80036;stroke-width:1.0;"/><line style="stroke:#A80036;stroke-width:1.0;" x1="199.5" x2="340.5" y1="281.1797" y2="281.1797"/><text fill="#000000" font-family="sans-serif" font-size="13" lengthAdjust="spacingAndGlyphs" textLength="76" x="206.5" y="276.1138">Setup Layout</text><line style="stroke:#A80036;stroke-width:1.0;" x1="346.5" x2="388.5" y1="310.3125" y2="310.3125"/><line style="stroke:#A80036;stroke-width:1.0;" x1="388.5" x2="388.5" y1="310.3125" y2="323.3125"/><line style="stroke:#A80036;stroke-width:1.0;" x1="347.5" x2="388.5" y1="323.3125" y2="323.3125"/><polygon fill="#A80036" points="357.5,319.3125,347.5,323.3125,357.5,327.3125,353.5,323.3125" style="stroke:#A80036;stroke-width:1.0;"/><text fill="#000000" font-family="sans-serif" font-size="13" lengthAdjust="spacingAndGlyphs" textLength="156" x="353.5" y="305.2466">Initialize Vertices Locations</text><polygon fill="#A80036" points="790.5,348.4453,800.5,352.4453,790.5,356.4453,794.5,352.4453" style="stroke:#A80036;stroke-width:1.0;"/><line style="stroke:#A80036;stroke-width:1.0;" x1="199.5" x2="796.5" y1="352.4453" y2="352.4453"/><text fill="#000000" font-family="sans-serif" font-size="13" lengthAdjust="spacingAndGlyphs" textLength="106" x="206.5" y="347.3794">Initialize Recorder</text><line style="stroke:#A80036;stroke-width:1.0;" x1="199.5" x2="241.5" y1="381.5781" y2="381.5781"/><line style="stroke:#A80036;stroke-width:1.0;" x1="241.5" x2="241.5" y1="381.5781" y2="394.5781"/><line style="stroke:#A80036;stroke-width:1.0;" x1="200.5" x2="241.5" y1="394.5781" y2="394.5781"/><polygon fill="#A80036" points="210.5,390.5781,200.5,394.5781,210.5,398.5781,206.5,394.5781" style="stroke:#A80036;stroke-width:1.0;"/><text fill="#000000" font-family="sans-serif" font-size="13" lengthAdjust="spacingAndGlyphs" textLength="110" x="206.5" y="376.5122">Create All Vertices*</text><polygon fill="#A80036" points="334.5,419.7109,344.5,423.7109,334.5,427.7109,338.5,423.7109" style="stroke:#A80036;stroke-width:1.0;"/><line style="stroke:#A80036;stroke-width:1.0;" x1="199.5" x2="340.5" y1="423.7109" y2="423.7109"/><text fill="#000000" font-family="sans-serif" font-size="13" lengthAdjust="spacingAndGlyphs" textLength="123" x="206.5" y="418.645">Generate Vertex Map</text><polygon fill="#A80036" points="334.5,448.8438,344.5,452.8438,334.5,456.8438,338.5,452.8438" style="stroke:#A80036;stroke-width:1.0;"/><line style="stroke:#A80036;stroke-width:1.0;" x1="199.5" x2="340.5" y1="452.8438" y2="452.8438"/><text fill="#000000" font-family="sans-serif" font-size="13" lengthAdjust="spacingAndGlyphs" textLength="120" x="206.5" y="447.7778">Initialize Starter Map</text><polygon fill="#A80036" points="334.5,477.9766,344.5,481.9766,334.5,485.9766,338.5,481.9766" style="stroke:#A80036;stroke-width:1.0;"/><line style="stroke:#A80036;stroke-width:1.0;" x1="199.5" x2="340.5" y1="481.9766" y2="481.9766"/><text fill="#000000" font-family="sans-serif" font-size="13" lengthAdjust="spacingAndGlyphs" textLength="103" x="206.5" y="476.9106">Create All Vertices</text><!--MD5=[75cb3120b725f91f4ab138d04ee2fe61]
@startuml simulatorSetup

title Simulator Setup

Core -> Simulator: Setup 
Simulator -> Model: Model Setup
Model -> Layout: Get Vertices 
Layout -> "All Vertices": Setup Vertices
Model -> Connections: Get Edges
Connections -> "All Edges": Setup Edges
Model -> Layout: Setup Layout
Layout -> Layout: Initialize Vertices Locations
Model -> Recorder: Initialize Recorder 
Model -> Model: Create All Vertices*
Model -> Layout: Generate Vertex Map 
Model -> Layout: Initialize Starter Map 
Model -> Layout: Create All Vertices

@enduml

PlantUML version 1.2020.23(Sun Dec 13 19:14:58 GMT 2020)
(GPL source distribution)
Java Runtime: OpenJDK Runtime Environment
JVM: OpenJDK 64-Bit Server VM
Default Encoding: UTF-8
Language: en
Country: US
--></g></svg>