<?xml version="1.0" encoding="UTF-8" standalone="no"?><svg xmlns="http://www.w3.org/2000/svg" xmlns:xlink="http://www.w3.org/1999/xlink" contentStyleType="text/css" height="607px" preserveAspectRatio="none" style="width:740px;height:607px;background:#FFFFFF;" version="1.1" viewBox="0 0 740 607" width="740px" zoomAndPan="magnify"><defs/><g><rect fill="none" height="27.6094" id="_title" style="stroke:none;stroke-width:1.0;" width="219" x="262.25" y="10"/><text fill="#000000" font-family="sans-serif" font-size="14" font-weight="bold" lengthAdjust="spacing" textLength="209" x="267.25" y="29.5332">Simulation Sequence Diagram</text><rect fill="none" height="399.5703" style="stroke:#000000;stroke-width:1.5;" width="724.5" x="10" y="93.2188"/><rect fill="none" height="170.1094" style="stroke:#000000;stroke-width:1.5;" width="631.5" x="20" y="161.9219"/><rect fill="none" height="79.0547" style="stroke:#000000;stroke-width:1.5;" width="413" x="134.5" y="376.3828"/><line style="stroke:#181818;stroke-width:0.5;stroke-dasharray:5.0,5.0;" x1="66" x2="66" y1="76.2188" y2="570.4922"/><line style="stroke:#181818;stroke-width:0.5;stroke-dasharray:5.0,5.0;" x1="170.5" x2="170.5" y1="76.2188" y2="570.4922"/><line style="stroke:#181818;stroke-width:0.5;stroke-dasharray:5.0,5.0;" x1="267" x2="267" y1="76.2188" y2="570.4922"/><line style="stroke:#181818;stroke-width:0.5;stroke-dasharray:5.0,5.0;" x1="392.5" x2="392.5" y1="76.2188" y2="570.4922"/><line style="stroke:#181818;stroke-width:0.5;stroke-dasharray:5.0,5.0;" x1="490.5" x2="490.5" y1="76.2188" y2="570.4922"/><line style="stroke:#181818;stroke-width:0.5;stroke-dasharray:5.0,5.0;" x1="604.5" x2="604.5" y1="76.2188" y2="570.4922"/><line style="stroke:#181818;stroke-width:0.5;stroke-dasharray:5.0,5.0;" x1="687.5" x2="687.5" y1="76.2188" y2="570.4922"/><rect fill="#E2E2F0" height="31.6094" rx="2.5" ry="2.5" style="stroke:#181818;stroke-width:0.5;" width="73" x="30" y="43.6094"/><text fill="#000000" font-family="sans-serif" font-size="14" lengthAdjust="spacing" textLength="59" x="37" y="65.1426">Simulator</text><rect fill="#E2E2F0" height="31.6094" rx="2.5" ry="2.5" style="stroke:#181818;stroke-width:0.5;" width="73" x="30" y="569.4922"/><text fill="#000000" font-family="sans-serif" font-size="14" lengthAdjust="spacing" textLength="59" x="37" y="591.0254">Simulator</text><rect fill="#E2E2F0" height="31.6094" rx="2.5" ry="2.5" style="stroke:#181818;stroke-width:0.5;" width="52" x="144.5" y="43.6094"/><text fill="#000000" font-family="sans-serif" font-size="14" lengthAdjust="spacing" textLength="38" x="151.5" y="65.1426">Model</text><rect fill="#E2E2F0" height="31.6094" rx="2.5" ry="2.5" style="stroke:#181818;stroke-width:0.5;" width="52" x="144.5" y="569.4922"/><text fill="#000000" font-family="sans-serif" font-size="14" lengthAdjust="spacing" textLength="38" x="151.5" y="591.0254">Model</text><rect fill="#E2E2F0" height="31.6094" rx="2.5" ry="2.5" style="stroke:#181818;stroke-width:0.5;" width="57" x="239" y="43.6094"/><text fill="#000000" font-family="sans-serif" font-size="14" lengthAdjust="spacing" textLength="43" x="246" y="65.1426">Layout</text><rect fill="#E2E2F0" height="31.6094" rx="2.5" ry="2.5" style="stroke:#181818;stroke-width:0.5;" width="57" x="239" y="569.4922"/><text fill="#000000" font-family="sans-serif" font-size="14" lengthAdjust="spacing" textLength="43" x="246" y="591.0254">Layout</text><rect fill="#E2E2F0" height="31.6094" rx="2.5" ry="2.5" style="stroke:#181818;stroke-width:0.5;" width="84" x="350.5" y="43.6094"/><text fill="#000000" font-family="sans-serif" font-size="14" lengthAdjust="spacing" textLength="70" x="357.5" y="65.1426">All Vertices</text><rect fill="#E2E2F0" height="31.6094" rx="2.5" ry="2.5" style="stroke:#181818;stroke-width:0.5;" width="84" x="350.5" y="569.4922"/><text fill="#000000" font-family="sans-serif" font-size="14" lengthAdjust="spacing" textLength="70" x="357.5" y="591.0254">All Vertices</text><rect fill="#E2E2F0" height="31.6094" rx="2.5" ry="2.5" style="stroke:#181818;stroke-width:0.5;" width="93" x="444.5" y="43.6094"/><text fill="#000000" font-family="sans-serif" font-size="14" lengthAdjust="spacing" textLength="79" x="451.5" y="65.1426">Connections</text><rect fill="#E2E2F0" height="31.6094" rx="2.5" ry="2.5" style="stroke:#181818;stroke-width:0.5;" width="93" x="444.5" y="569.4922"/><text fill="#000000" font-family="sans-serif" font-size="14" lengthAdjust="spacing" textLength="79" x="451.5" y="591.0254">Connections</text><rect fill="#E2E2F0" height="31.6094" rx="2.5" ry="2.5" style="stroke:#181818;stroke-width:0.5;" width="73" x="568.5" y="43.6094"/><text fill="#000000" font-family="sans-serif" font-size="14" lengthAdjust="spacing" textLength="59" x="575.5" y="65.1426">All Edges</text><rect fill="#E2E2F0" height="31.6094" rx="2.5" ry="2.5" style="stroke:#181818;stroke-width:0.5;" width="73" x="568.5" y="569.4922"/><text fill="#000000" font-family="sans-serif" font-size="14" lengthAdjust="spacing" textLength="59" x="575.5" y="591.0254">All Edges</text><rect fill="#E2E2F0" height="31.6094" rx="2.5" ry="2.5" style="stroke:#181818;stroke-width:0.5;" width="73" x="651.5" y="43.6094"/><text fill="#000000" font-family="sans-serif" font-size="14" lengthAdjust="spacing" textLength="59" x="658.5" y="65.1426">Recorder</text><rect fill="#E2E2F0" height="31.6094" rx="2.5" ry="2.5" style="stroke:#181818;stroke-width:0.5;" width="73" x="651.5" y="569.4922"/><text fill="#000000" font-family="sans-serif" font-size="14" lengthAdjust="spacing" textLength="59" x="658.5" y="591.0254">Recorder</text><path d="M10,93.2188 L83,93.2188 L83,101.5703 L73,111.5703 L10,111.5703 L10,93.2188 " fill="#EEEEEE" style="stroke:#000000;stroke-width:1.5;"/><rect fill="none" height="399.5703" style="stroke:#000000;stroke-width:1.5;" width="724.5" x="10" y="93.2188"/><text fill="#000000" font-family="sans-serif" font-size="13" font-weight="bold" lengthAdjust="spacing" textLength="28" x="25" y="107.7139">loop</text><text fill="#000000" font-family="sans-serif" font-size="11" font-weight="bold" lengthAdjust="spacing" textLength="143" x="98" y="106.6377">[for i=0 to currentEpoch-1]</text><line style="stroke:#181818;stroke-width:1.0;" x1="66.5" x2="108.5" y1="133.9219" y2="133.9219"/><line style="stroke:#181818;stroke-width:1.0;" x1="108.5" x2="108.5" y1="133.9219" y2="146.9219"/><line style="stroke:#181818;stroke-width:1.0;" x1="67.5" x2="108.5" y1="146.9219" y2="146.9219"/><polygon fill="#181818" points="77.5,142.9219,67.5,146.9219,77.5,150.9219,73.5,146.9219" style="stroke:#181818;stroke-width:1.0;"/><text fill="#000000" font-family="sans-serif" font-size="13" lengthAdjust="spacing" textLength="90" x="73.5" y="129.0654">Advance Epoch</text><path d="M20,161.9219 L93,161.9219 L93,170.2734 L83,180.2734 L20,180.2734 L20,161.9219 " fill="#EEEEEE" style="stroke:#000000;stroke-width:1.5;"/><rect fill="none" height="170.1094" style="stroke:#000000;stroke-width:1.5;" width="631.5" x="20" y="161.9219"/><text fill="#000000" font-family="sans-serif" font-size="13" font-weight="bold" lengthAdjust="spacing" textLength="28" x="35" y="176.417">loop</text><text fill="#000000" font-family="sans-serif" font-size="11" font-weight="bold" lengthAdjust="spacing" textLength="149" x="108" y="175.3408">[for i=0 to epochDuration-1]</text><polygon fill="#181818" points="158.5,198.625,168.5,202.625,158.5,206.625,162.5,202.625" style="stroke:#181818;stroke-width:1.0;"/><line style="stroke:#181818;stroke-width:1.0;" x1="66.5" x2="164.5" y1="202.625" y2="202.625"/><text fill="#000000" font-family="sans-serif" font-size="13" lengthAdjust="spacing" textLength="49" x="73.5" y="197.7686">Advance</text><polygon fill="#181818" points="255.5,228.9766,265.5,232.9766,255.5,236.9766,259.5,232.9766" style="stroke:#181818;stroke-width:1.0;"/><line style="stroke:#181818;stroke-width:1.0;" x1="170.5" x2="261.5" y1="232.9766" y2="232.9766"/><text fill="#000000" font-family="sans-serif" font-size="13" lengthAdjust="spacing" textLength="73" x="177.5" y="228.1201">Get Vertices</text><polygon fill="#181818" points="380.5,259.3281,390.5,263.3281,380.5,267.3281,384.5,263.3281" style="stroke:#181818;stroke-width:1.0;"/><line style="stroke:#181818;stroke-width:1.0;" x1="267.5" x2="386.5" y1="263.3281" y2="263.3281"/><text fill="#000000" font-family="sans-serif" font-size="13" lengthAdjust="spacing" textLength="101" x="274.5" y="258.4717">Advance Vertices</text><polygon fill="#181818" points="479,289.6797,489,293.6797,479,297.6797,483,293.6797" style="stroke:#181818;stroke-width:1.0;"/><line style="stroke:#181818;stroke-width:1.0;" x1="170.5" x2="485" y1="293.6797" y2="293.6797"/><text fill="#000000" font-family="sans-serif" font-size="13" lengthAdjust="spacing" textLength="62" x="177.5" y="288.8232">Get Edges</text><polygon fill="#181818" points="593,320.0313,603,324.0313,593,328.0313,597,324.0313" style="stroke:#181818;stroke-width:1.0;"/><line style="stroke:#181818;stroke-width:1.0;" x1="491" x2="599" y1="324.0313" y2="324.0313"/><text fill="#000000" font-family="sans-serif" font-size="13" lengthAdjust="spacing" textLength="90" x="498" y="319.1748">Advance Edges</text><polygon fill="#181818" points="479,357.3828,489,361.3828,479,365.3828,483,361.3828" style="stroke:#181818;stroke-width:1.0;"/><line style="stroke:#181818;stroke-width:1.0;" x1="170.5" x2="485" y1="361.3828" y2="361.3828"/><text fill="#000000" font-family="sans-serif" font-size="13" lengthAdjust="spacing" textLength="117" x="177.5" y="356.5264">Update Connections</text><path d="M134.5,376.3828 L199.5,376.3828 L199.5,384.7344 L189.5,394.7344 L134.5,394.7344 L134.5,376.3828 " fill="#EEEEEE" style="stroke:#000000;stroke-width:1.5;"/><rect fill="none" height="79.0547" style="stroke:#000000;stroke-width:1.5;" width="413" x="134.5" y="376.3828"/><text fill="#000000" font-family="sans-serif" font-size="13" font-weight="bold" lengthAdjust="spacing" textLength="20" x="149.5" y="390.8779">opt</text><text fill="#000000" font-family="sans-serif" font-size="11" font-weight="bold" lengthAdjust="spacing" textLength="197" x="214.5" y="389.8018">[if updateConnections returns true]</text><polygon fill="#181818" points="479,413.0859,489,417.0859,479,421.0859,483,417.0859" style="stroke:#181818;stroke-width:1.0;"/><line style="stroke:#181818;stroke-width:1.0;" x1="170.5" x2="485" y1="417.0859" y2="417.0859"/><text fill="#000000" font-family="sans-serif" font-size="13" lengthAdjust="spacing" textLength="155" x="177.5" y="412.2295">Update Synapses Weights</text><polygon fill="#181818" points="479,443.4375,489,447.4375,479,451.4375,483,447.4375" style="stroke:#181818;stroke-width:1.0;"/><line style="stroke:#181818;stroke-width:1.0;" x1="170.5" x2="485" y1="447.4375" y2="447.4375"/><text fill="#000000" font-family="sans-serif" font-size="13" lengthAdjust="spacing" textLength="136" x="177.5" y="442.5811">Create Edge Index Map</text><polygon fill="#181818" points="676,480.7891,686,484.7891,676,488.7891,680,484.7891" style="stroke:#181818;stroke-width:1.0;"/><line style="stroke:#181818;stroke-width:1.0;" x1="170.5" x2="682" y1="484.7891" y2="484.7891"/><text fill="#000000" font-family="sans-serif" font-size="13" lengthAdjust="spacing" textLength="145" x="177.5" y="479.9326">Update (Compile) History</text><polygon fill="#181818" points="158.5,518.1406,168.5,522.1406,158.5,526.1406,162.5,522.1406" style="stroke:#181818;stroke-width:1.0;"/><line style="stroke:#181818;stroke-width:1.0;" x1="66.5" x2="164.5" y1="522.1406" y2="522.1406"/><text fill="#000000" font-family="sans-serif" font-size="13" lengthAdjust="spacing" textLength="76" x="73.5" y="517.2842">Save Results</text><polygon fill="#181818" points="676,548.4922,686,552.4922,676,556.4922,680,552.4922" style="stroke:#181818;stroke-width:1.0;"/><line style="stroke:#181818;stroke-width:1.0;" x1="170.5" x2="682" y1="552.4922" y2="552.4922"/><text fill="#000000" font-family="sans-serif" font-size="13" lengthAdjust="spacing" textLength="124" x="177.5" y="547.6357">Save Simulation Data</text><!--MD5=[e3b4541ff5495884d25f3d4a29c0258b]
@startuml simulatorSimulate

title Simulation Sequence Diagram

loop for i=0 to currentEpoch-1
    Simulator -> Simulator: Advance Epoch
    loop for i=0 to epochDuration-1
        Simulator -> Model: Advance
        Model -> Layout: Get Vertices 
        Layout -> "All Vertices": Advance Vertices
        Model -> Connections: Get Edges
        Connections -> "All Edges": Advance Edges
    end
    Model -> Connections: Update Connections
    opt if updateConnections returns true
        Model -> Connections: Update Synapses Weights
        Model -> Connections: Create Edge Index Map
    end
    Model->Recorder: Update (Compile) History
end

Simulator -> Model: Save Results
Model -> Recorder: Save Simulation Data


@enduml

PlantUML version 1.2022.7(Mon Aug 22 10:01:30 PDT 2022)
(GPL source distribution)
Java Runtime: Java(TM) SE Runtime Environment
JVM: Java HotSpot(TM) 64-Bit Server VM
Default Encoding: UTF-8
Language: en
Country: US
--></g></svg>