<?xml version="1.0" encoding="UTF-8" standalone="no"?><svg xmlns="http://www.w3.org/2000/svg" xmlns:xlink="http://www.w3.org/1999/xlink" contentScriptType="application/ecmascript" contentStyleType="text/css" height="594px" preserveAspectRatio="none" style="width:750px;height:594px;" version="1.1" viewBox="0 0 750 594" width="750px" zoomAndPan="magnify"><defs><filter height="300%" id="f1cckizy71clgr" width="300%" x="-1" y="-1"><feGaussianBlur result="blurOut" stdDeviation="2.0"/><feColorMatrix in="blurOut" result="blurOut2" type="matrix" values="0 0 0 0 0 0 0 0 0 0 0 0 0 0 0 0 0 0 .4 0"/><feOffset dx="4.0" dy="4.0" in="blurOut2" result="blurOut3"/><feBlend in="SourceGraphic" in2="blurOut3" mode="normal"/></filter></defs><g><text fill="#000000" font-family="sans-serif" font-size="18" lengthAdjust="spacingAndGlyphs" textLength="248" x="249.25" y="28.708">Simulation Sequence Diagram</text><rect fill="#FFFFFF" filter="url(#f1cckizy71clgr)" height="383.7266" style="stroke:#000000;stroke-width:2.0;" width="726.5" x="10" y="92.25"/><rect fill="#FFFFFF" filter="url(#f1cckizy71clgr)" height="162.7969" style="stroke:#000000;stroke-width:2.0;" width="631.5" x="20" y="158.5156"/><rect fill="#FFFFFF" filter="url(#f1cckizy71clgr)" height="75.3984" style="stroke:#000000;stroke-width:2.0;" width="415.5" x="134.5" y="364.4453"/><line style="stroke:#A80036;stroke-width:1.0;stroke-dasharray:5.0,5.0;" x1="69" x2="69" y1="75.25" y2="551.2422"/><line style="stroke:#A80036;stroke-width:1.0;stroke-dasharray:5.0,5.0;" x1="173.5" x2="173.5" y1="75.25" y2="551.2422"/><line style="stroke:#A80036;stroke-width:1.0;stroke-dasharray:5.0,5.0;" x1="265.5" x2="265.5" y1="75.25" y2="551.2422"/><line style="stroke:#A80036;stroke-width:1.0;stroke-dasharray:5.0,5.0;" x1="387" x2="387" y1="75.25" y2="551.2422"/><line style="stroke:#A80036;stroke-width:1.0;stroke-dasharray:5.0,5.0;" x1="491" x2="491" y1="75.25" y2="551.2422"/><line style="stroke:#A80036;stroke-width:1.0;stroke-dasharray:5.0,5.0;" x1="603.5" x2="603.5" y1="75.25" y2="551.2422"/><line style="stroke:#A80036;stroke-width:1.0;stroke-dasharray:5.0,5.0;" x1="688.5" x2="688.5" y1="75.25" y2="551.2422"/><rect fill="#FEFECE" filter="url(#f1cckizy71clgr)" height="30.2969" style="stroke:#A80036;stroke-width:1.5;" width="75" x="30" y="39.9531"/><text fill="#000000" font-family="sans-serif" font-size="14" lengthAdjust="spacingAndGlyphs" textLength="61" x="37" y="59.9482">Simulator</text><rect fill="#FEFECE" filter="url(#f1cckizy71clgr)" height="30.2969" style="stroke:#A80036;stroke-width:1.5;" width="75" x="30" y="550.2422"/><text fill="#000000" font-family="sans-serif" font-size="14" lengthAdjust="spacingAndGlyphs" textLength="61" x="37" y="570.2373">Simulator</text><rect fill="#FEFECE" filter="url(#f1cckizy71clgr)" height="30.2969" style="stroke:#A80036;stroke-width:1.5;" width="54" x="144.5" y="39.9531"/><text fill="#000000" font-family="sans-serif" font-size="14" lengthAdjust="spacingAndGlyphs" textLength="40" x="151.5" y="59.9482">Model</text><rect fill="#FEFECE" filter="url(#f1cckizy71clgr)" height="30.2969" style="stroke:#A80036;stroke-width:1.5;" width="54" x="144.5" y="550.2422"/><text fill="#000000" font-family="sans-serif" font-size="14" lengthAdjust="spacingAndGlyphs" textLength="40" x="151.5" y="570.2373">Model</text><rect fill="#FEFECE" filter="url(#f1cckizy71clgr)" height="30.2969" style="stroke:#A80036;stroke-width:1.5;" width="56" x="235.5" y="39.9531"/><text fill="#000000" font-family="sans-serif" font-size="14" lengthAdjust="spacingAndGlyphs" textLength="42" x="242.5" y="59.9482">Layout</text><rect fill="#FEFECE" filter="url(#f1cckizy71clgr)" height="30.2969" style="stroke:#A80036;stroke-width:1.5;" width="56" x="235.5" y="550.2422"/><text fill="#000000" font-family="sans-serif" font-size="14" lengthAdjust="spacingAndGlyphs" textLength="42" x="242.5" y="570.2373">Layout</text><rect fill="#FEFECE" filter="url(#f1cckizy71clgr)" height="30.2969" style="stroke:#A80036;stroke-width:1.5;" width="87" x="342" y="39.9531"/><text fill="#000000" font-family="sans-serif" font-size="14" lengthAdjust="spacingAndGlyphs" textLength="73" x="349" y="59.9482">All Vertices</text><rect fill="#FEFECE" filter="url(#f1cckizy71clgr)" height="30.2969" style="stroke:#A80036;stroke-width:1.5;" width="87" x="342" y="550.2422"/><text fill="#000000" font-family="sans-serif" font-size="14" lengthAdjust="spacingAndGlyphs" textLength="73" x="349" y="570.2373">All Vertices</text><rect fill="#FEFECE" filter="url(#f1cckizy71clgr)" height="30.2969" style="stroke:#A80036;stroke-width:1.5;" width="93" x="443" y="39.9531"/><text fill="#000000" font-family="sans-serif" font-size="14" lengthAdjust="spacingAndGlyphs" textLength="79" x="450" y="59.9482">Connections</text><rect fill="#FEFECE" filter="url(#f1cckizy71clgr)" height="30.2969" style="stroke:#A80036;stroke-width:1.5;" width="93" x="443" y="550.2422"/><text fill="#000000" font-family="sans-serif" font-size="14" lengthAdjust="spacingAndGlyphs" textLength="79" x="450" y="570.2373">Connections</text><rect fill="#FEFECE" filter="url(#f1cckizy71clgr)" height="30.2969" style="stroke:#A80036;stroke-width:1.5;" width="72" x="565.5" y="39.9531"/><text fill="#000000" font-family="sans-serif" font-size="14" lengthAdjust="spacingAndGlyphs" textLength="58" x="572.5" y="59.9482">All Edges</text><rect fill="#FEFECE" filter="url(#f1cckizy71clgr)" height="30.2969" style="stroke:#A80036;stroke-width:1.5;" width="72" x="565.5" y="550.2422"/><text fill="#000000" font-family="sans-serif" font-size="14" lengthAdjust="spacingAndGlyphs" textLength="58" x="572.5" y="570.2373">All Edges</text><rect fill="#FEFECE" filter="url(#f1cckizy71clgr)" height="30.2969" style="stroke:#A80036;stroke-width:1.5;" width="71" x="651.5" y="39.9531"/><text fill="#000000" font-family="sans-serif" font-size="14" lengthAdjust="spacingAndGlyphs" textLength="57" x="658.5" y="59.9482">Recorder</text><rect fill="#FEFECE" filter="url(#f1cckizy71clgr)" height="30.2969" style="stroke:#A80036;stroke-width:1.5;" width="71" x="651.5" y="550.2422"/><text fill="#000000" font-family="sans-serif" font-size="14" lengthAdjust="spacingAndGlyphs" textLength="57" x="658.5" y="570.2373">Recorder</text><path d="M10,92.25 L83,92.25 L83,99.25 L73,109.25 L10,109.25 L10,92.25 " fill="#EEEEEE" style="stroke:#000000;stroke-width:1.0;"/><rect fill="none" height="383.7266" style="stroke:#000000;stroke-width:2.0;" width="726.5" x="10" y="92.25"/><text fill="#000000" font-family="sans-serif" font-size="13" font-weight="bold" lengthAdjust="spacingAndGlyphs" textLength="28" x="25" y="105.3169">loop</text><text fill="#000000" font-family="sans-serif" font-size="11" font-weight="bold" lengthAdjust="spacingAndGlyphs" textLength="145" x="98" y="104.4604">[for i=0 to currentEpoch-1]</text><line style="stroke:#A80036;stroke-width:1.0;" x1="69.5" x2="111.5" y1="130.5156" y2="130.5156"/><line style="stroke:#A80036;stroke-width:1.0;" x1="111.5" x2="111.5" y1="130.5156" y2="143.5156"/><line style="stroke:#A80036;stroke-width:1.0;" x1="70.5" x2="111.5" y1="143.5156" y2="143.5156"/><polygon fill="#A80036" points="80.5,139.5156,70.5,143.5156,80.5,147.5156,76.5,143.5156" style="stroke:#A80036;stroke-width:1.0;"/><text fill="#000000" font-family="sans-serif" font-size="13" lengthAdjust="spacingAndGlyphs" textLength="90" x="76.5" y="125.4497">Advance Epoch</text><path d="M20,158.5156 L93,158.5156 L93,165.5156 L83,175.5156 L20,175.5156 L20,158.5156 " fill="#EEEEEE" style="stroke:#000000;stroke-width:1.0;"/><rect fill="none" height="162.7969" style="stroke:#000000;stroke-width:2.0;" width="631.5" x="20" y="158.5156"/><text fill="#000000" font-family="sans-serif" font-size="13" font-weight="bold" lengthAdjust="spacingAndGlyphs" textLength="28" x="35" y="171.5825">loop</text><text fill="#000000" font-family="sans-serif" font-size="11" font-weight="bold" lengthAdjust="spacingAndGlyphs" textLength="152" x="108" y="170.7261">[for i=0 to epochDuration-1]</text><polygon fill="#A80036" points="161.5,192.7813,171.5,196.7813,161.5,200.7813,165.5,196.7813" style="stroke:#A80036;stroke-width:1.0;"/><line style="stroke:#A80036;stroke-width:1.0;" x1="69.5" x2="167.5" y1="196.7813" y2="196.7813"/><text fill="#000000" font-family="sans-serif" font-size="13" lengthAdjust="spacingAndGlyphs" textLength="50" x="76.5" y="191.7153">Advance</text><polygon fill="#A80036" points="253.5,221.9141,263.5,225.9141,253.5,229.9141,257.5,225.9141" style="stroke:#A80036;stroke-width:1.0;"/><line style="stroke:#A80036;stroke-width:1.0;" x1="173.5" x2="259.5" y1="225.9141" y2="225.9141"/><text fill="#000000" font-family="sans-serif" font-size="13" lengthAdjust="spacingAndGlyphs" textLength="68" x="180.5" y="220.8481">Get Vertices</text><polygon fill="#A80036" points="375.5,251.0469,385.5,255.0469,375.5,259.0469,379.5,255.0469" style="stroke:#A80036;stroke-width:1.0;"/><line style="stroke:#A80036;stroke-width:1.0;" x1="265.5" x2="381.5" y1="255.0469" y2="255.0469"/><text fill="#000000" font-family="sans-serif" font-size="13" lengthAdjust="spacingAndGlyphs" textLength="98" x="272.5" y="249.981">Advance Vertices</text><polygon fill="#A80036" points="479.5,280.1797,489.5,284.1797,479.5,288.1797,483.5,284.1797" style="stroke:#A80036;stroke-width:1.0;"/><line style="stroke:#A80036;stroke-width:1.0;" x1="173.5" x2="485.5" y1="284.1797" y2="284.1797"/><text fill="#000000" font-family="sans-serif" font-size="13" lengthAdjust="spacingAndGlyphs" textLength="58" x="180.5" y="279.1138">Get Edges</text><polygon fill="#A80036" points="591.5,309.3125,601.5,313.3125,591.5,317.3125,595.5,313.3125" style="stroke:#A80036;stroke-width:1.0;"/><line style="stroke:#A80036;stroke-width:1.0;" x1="491.5" x2="597.5" y1="313.3125" y2="313.3125"/><text fill="#000000" font-family="sans-serif" font-size="13" lengthAdjust="spacingAndGlyphs" textLength="88" x="498.5" y="308.2466">Advance Edges</text><polygon fill="#A80036" points="479.5,345.4453,489.5,349.4453,479.5,353.4453,483.5,349.4453" style="stroke:#A80036;stroke-width:1.0;"/><line style="stroke:#A80036;stroke-width:1.0;" x1="173.5" x2="485.5" y1="349.4453" y2="349.4453"/><text fill="#000000" font-family="sans-serif" font-size="13" lengthAdjust="spacingAndGlyphs" textLength="120" x="180.5" y="344.3794">Update Connections</text><path d="M134.5,364.4453 L201.5,364.4453 L201.5,371.4453 L191.5,381.4453 L134.5,381.4453 L134.5,364.4453 " fill="#EEEEEE" style="stroke:#000000;stroke-width:1.0;"/><rect fill="none" height="75.3984" style="stroke:#000000;stroke-width:2.0;" width="415.5" x="134.5" y="364.4453"/><text fill="#000000" font-family="sans-serif" font-size="13" font-weight="bold" lengthAdjust="spacingAndGlyphs" textLength="22" x="149.5" y="377.5122">opt</text><text fill="#000000" font-family="sans-serif" font-size="11" font-weight="bold" lengthAdjust="spacingAndGlyphs" textLength="193" x="216.5" y="376.6558">[if updateConnections returns true]</text><polygon fill="#A80036" points="479.5,398.7109,489.5,402.7109,479.5,406.7109,483.5,402.7109" style="stroke:#A80036;stroke-width:1.0;"/><line style="stroke:#A80036;stroke-width:1.0;" x1="173.5" x2="485.5" y1="402.7109" y2="402.7109"/><text fill="#000000" font-family="sans-serif" font-size="13" lengthAdjust="spacingAndGlyphs" textLength="150" x="180.5" y="397.645">Update Synapses Weights</text><polygon fill="#A80036" points="479.5,427.8438,489.5,431.8438,479.5,435.8438,483.5,431.8438" style="stroke:#A80036;stroke-width:1.0;"/><line style="stroke:#A80036;stroke-width:1.0;" x1="173.5" x2="485.5" y1="431.8438" y2="431.8438"/><text fill="#000000" font-family="sans-serif" font-size="13" lengthAdjust="spacingAndGlyphs" textLength="137" x="180.5" y="426.7778">Create Edge Index Map</text><polygon fill="#A80036" points="677,463.9766,687,467.9766,677,471.9766,681,467.9766" style="stroke:#A80036;stroke-width:1.0;"/><line style="stroke:#A80036;stroke-width:1.0;" x1="173.5" x2="683" y1="467.9766" y2="467.9766"/><text fill="#000000" font-family="sans-serif" font-size="13" lengthAdjust="spacingAndGlyphs" textLength="146" x="180.5" y="462.9106">Update (Compile) History</text><polygon fill="#A80036" points="161.5,500.1094,171.5,504.1094,161.5,508.1094,165.5,504.1094" style="stroke:#A80036;stroke-width:1.0;"/><line style="stroke:#A80036;stroke-width:1.0;" x1="69.5" x2="167.5" y1="504.1094" y2="504.1094"/><text fill="#000000" font-family="sans-serif" font-size="13" lengthAdjust="spacingAndGlyphs" textLength="72" x="76.5" y="499.0435">Save Results</text><polygon fill="#A80036" points="677,529.2422,687,533.2422,677,537.2422,681,533.2422" style="stroke:#A80036;stroke-width:1.0;"/><line style="stroke:#A80036;stroke-width:1.0;" x1="173.5" x2="683" y1="533.2422" y2="533.2422"/><text fill="#000000" font-family="sans-serif" font-size="13" lengthAdjust="spacingAndGlyphs" textLength="122" x="180.5" y="528.1763">Save Simulation Data</text><!--MD5=[697195cc61e3aed697d21e8e8cb0410c]
@startuml simulatorSimulate

title Simulation Sequence Diagram

loop for i=0 to currentEpoch-1
    Simulator -> Simulator: Advance Epoch
    loop for i=0 to epochDuration-1
        Simulator -> Model: Advance
        Model -> Layout: Get Vertices 
        Layout -> "All Vertices": Advance Vertices
        Model -> Connections: Get Edges
        Connections -> "All Edges": Advance Edges
    end
    Model -> Connections: Update Connections
    opt if updateConnections returns true
        Model -> Connections: Update Synapses Weights
        Model -> Connections: Create Edge Index Map
    end
    Model->Recorder: Update (Compile) History
end

Simulator -> Model: Save Results
Model -> Recorder: Save Simulation Data


@enduml

PlantUML version 1.2020.23(Sun Dec 13 19:14:58 GMT 2020)
(GPL source distribution)
Java Runtime: OpenJDK Runtime Environment
JVM: OpenJDK 64-Bit Server VM
Default Encoding: UTF-8
Language: en
Country: US
--></g></svg>