<?xml version="1.0" encoding="UTF-8" standalone="no"?><svg xmlns="http://www.w3.org/2000/svg" xmlns:xlink="http://www.w3.org/1999/xlink" contentStyleType="text/css" height="1100px" preserveAspectRatio="none" style="width:1106px;height:1100px;background:#FFFFFF;" version="1.1" viewBox="0 0 1106 1100" width="1106px" zoomAndPan="magnify"><defs/><g><rect fill="none" height="27.6094" id="_title" style="stroke:none;stroke-width:1.0;" width="231" x="436.5" y="10"/><text fill="#000000" font-family="sans-serif" font-size="14" font-weight="bold" lengthAdjust="spacing" textLength="221" x="441.5" y="29.5332">Graphitti General Program Flow</text><rect fill="#FFFFFF" height="136.1094" style="stroke:#181818;stroke-width:1.0;" width="10" x="245" y="118.5703"/><rect fill="none" height="48.7031" style="stroke:#000000;stroke-width:1.5;" width="955" x="10" y="748.0078"/><rect fill="none" height="48.7031" style="stroke:#000000;stroke-width:1.5;" width="955" x="10" y="863.4141"/><line style="stroke:#181818;stroke-width:0.5;stroke-dasharray:5.0,5.0;" x1="42" x2="42" y1="76.2188" y2="1063.5234"/><line style="stroke:#181818;stroke-width:0.5;stroke-dasharray:5.0,5.0;" x1="249.5" x2="249.5" y1="138.9219" y2="1063.5234"/><line style="stroke:#181818;stroke-width:0.5;stroke-dasharray:5.0,5.0;" x1="369.5" x2="369.5" y1="76.2188" y2="1063.5234"/><line style="stroke:#181818;stroke-width:0.5;stroke-dasharray:5.0,5.0;" x1="542" x2="542" y1="76.2188" y2="1063.5234"/><line style="stroke:#181818;stroke-width:0.5;stroke-dasharray:5.0,5.0;" x1="686" x2="686" y1="76.2188" y2="1063.5234"/><line style="stroke:#181818;stroke-width:0.5;stroke-dasharray:5.0,5.0;" x1="818" x2="818" y1="76.2188" y2="1063.5234"/><line style="stroke:#181818;stroke-width:0.5;stroke-dasharray:5.0,5.0;" x1="919" x2="919" y1="76.2188" y2="1063.5234"/><line style="stroke:#181818;stroke-width:0.5;stroke-dasharray:5.0,5.0;" x1="991" x2="991" y1="76.2188" y2="1063.5234"/><line style="stroke:#181818;stroke-width:0.5;stroke-dasharray:5.0,5.0;" x1="1063" x2="1063" y1="76.2188" y2="1063.5234"/><rect fill="#E2E2F0" height="31.6094" rx="2.5" ry="2.5" style="stroke:#181818;stroke-width:0.5;" width="45" x="20" y="43.6094"/><text fill="#000000" font-family="sans-serif" font-size="14" lengthAdjust="spacing" textLength="31" x="27" y="65.1426">Core</text><rect fill="#E2E2F0" height="31.6094" rx="2.5" ry="2.5" style="stroke:#181818;stroke-width:0.5;" width="45" x="20" y="1062.5234"/><text fill="#000000" font-family="sans-serif" font-size="14" lengthAdjust="spacing" textLength="31" x="27" y="1084.0566">Core</text><rect fill="#E2E2F0" height="31.6094" rx="2.5" ry="2.5" style="stroke:#181818;stroke-width:0.5;" width="117" x="191.5" y="1062.5234"/><text fill="#000000" font-family="sans-serif" font-size="14" lengthAdjust="spacing" textLength="103" x="198.5" y="1084.0566">ParamContainer</text><rect fill="#E2E2F0" height="31.6094" rx="2.5" ry="2.5" style="stroke:#181818;stroke-width:0.5;" width="73" x="333.5" y="43.6094"/><text fill="#000000" font-family="sans-serif" font-size="14" lengthAdjust="spacing" textLength="59" x="340.5" y="65.1426">Simulator</text><rect fill="#E2E2F0" height="31.6094" rx="2.5" ry="2.5" style="stroke:#181818;stroke-width:0.5;" width="73" x="333.5" y="1062.5234"/><text fill="#000000" font-family="sans-serif" font-size="14" lengthAdjust="spacing" textLength="59" x="340.5" y="1084.0566">Simulator</text><rect fill="#E2E2F0" height="31.6094" rx="2.5" ry="2.5" style="stroke:#181818;stroke-width:0.5;" width="136" x="474" y="43.6094"/><text fill="#000000" font-family="sans-serif" font-size="14" lengthAdjust="spacing" textLength="122" x="481" y="65.1426">ParameterManager</text><rect fill="#E2E2F0" height="31.6094" rx="2.5" ry="2.5" style="stroke:#181818;stroke-width:0.5;" width="136" x="474" y="1062.5234"/><text fill="#000000" font-family="sans-serif" font-size="14" lengthAdjust="spacing" textLength="122" x="481" y="1084.0566">ParameterManager</text><rect fill="#E2E2F0" height="31.6094" rx="2.5" ry="2.5" style="stroke:#181818;stroke-width:0.5;" width="133" x="620" y="43.6094"/><text fill="#000000" font-family="sans-serif" font-size="14" lengthAdjust="spacing" textLength="119" x="627" y="65.1426">OperationManager</text><rect fill="#E2E2F0" height="31.6094" rx="2.5" ry="2.5" style="stroke:#181818;stroke-width:0.5;" width="133" x="620" y="1062.5234"/><text fill="#000000" font-family="sans-serif" font-size="14" lengthAdjust="spacing" textLength="119" x="627" y="1084.0566">OperationManager</text><rect fill="#E2E2F0" height="31.6094" rx="2.5" ry="2.5" style="stroke:#181818;stroke-width:0.5;" width="110" x="763" y="43.6094"/><text fill="#000000" font-family="sans-serif" font-size="14" lengthAdjust="spacing" textLength="96" x="770" y="65.1426">GraphManager</text><rect fill="#E2E2F0" height="31.6094" rx="2.5" ry="2.5" style="stroke:#181818;stroke-width:0.5;" width="110" x="763" y="1062.5234"/><text fill="#000000" font-family="sans-serif" font-size="14" lengthAdjust="spacing" textLength="96" x="770" y="1084.0566">GraphManager</text><rect fill="#E2E2F0" height="31.6094" rx="2.5" ry="2.5" style="stroke:#181818;stroke-width:0.5;" width="72" x="883" y="43.6094"/><text fill="#000000" font-family="sans-serif" font-size="14" lengthAdjust="spacing" textLength="58" x="890" y="65.1426">Serializer</text><rect fill="#E2E2F0" height="31.6094" rx="2.5" ry="2.5" style="stroke:#181818;stroke-width:0.5;" width="72" x="883" y="1062.5234"/><text fill="#000000" font-family="sans-serif" font-size="14" lengthAdjust="spacing" textLength="58" x="890" y="1084.0566">Serializer</text><rect fill="#E2E2F0" height="31.6094" rx="2.5" ry="2.5" style="stroke:#181818;stroke-width:0.5;" width="52" x="965" y="43.6094"/><text fill="#000000" font-family="sans-serif" font-size="14" lengthAdjust="spacing" textLength="38" x="972" y="65.1426">Model</text><rect fill="#E2E2F0" height="31.6094" rx="2.5" ry="2.5" style="stroke:#181818;stroke-width:0.5;" width="52" x="965" y="1062.5234"/><text fill="#000000" font-family="sans-serif" font-size="14" lengthAdjust="spacing" textLength="38" x="972" y="1084.0566">Model</text><rect fill="#E2E2F0" height="31.6094" rx="2.5" ry="2.5" style="stroke:#181818;stroke-width:0.5;" width="73" x="1027" y="43.6094"/><text fill="#000000" font-family="sans-serif" font-size="14" lengthAdjust="spacing" textLength="59" x="1034" y="65.1426">Recorder</text><rect fill="#E2E2F0" height="31.6094" rx="2.5" ry="2.5" style="stroke:#181818;stroke-width:0.5;" width="73" x="1027" y="1062.5234"/><text fill="#000000" font-family="sans-serif" font-size="14" lengthAdjust="spacing" textLength="59" x="1034" y="1084.0566">Recorder</text><rect fill="#FFFFFF" height="136.1094" style="stroke:#181818;stroke-width:1.0;" width="10" x="245" y="118.5703"/><polygon fill="#181818" points="179.5,104.5703,189.5,108.5703,179.5,112.5703,183.5,108.5703" style="stroke:#181818;stroke-width:1.0;"/><line style="stroke:#181818;stroke-width:1.0;" x1="42.5" x2="185.5" y1="108.5703" y2="108.5703"/><text fill="#000000" font-family="sans-serif" font-size="13" lengthAdjust="spacing" textLength="125" x="49.5" y="103.7139">Parse Command Line</text><rect fill="#E2E2F0" height="31.6094" rx="2.5" ry="2.5" style="stroke:#181818;stroke-width:0.5;" width="117" x="191.5" y="107.6172"/><text fill="#000000" font-family="sans-serif" font-size="14" lengthAdjust="spacing" textLength="103" x="198.5" y="129.1504">ParamContainer</text><path d="M318.5,91.2188 L318.5,166.2188 L428.5,166.2188 L428.5,101.2188 L418.5,91.2188 L318.5,91.2188 " fill="#FEFFDD" style="stroke:#181818;stroke-width:0.5;"/><path d="M418.5,91.2188 L418.5,101.2188 L428.5,101.2188 L418.5,91.2188 " fill="#FEFFDD" style="stroke:#181818;stroke-width:0.5;"/><text fill="#000000" font-family="sans-serif" font-size="13" lengthAdjust="spacing" textLength="61" x="324.5" y="109.7139">Config File</text><text fill="#000000" font-family="sans-serif" font-size="13" lengthAdjust="spacing" textLength="89" x="324.5" y="126.0654">Deserialize File</text><text fill="#000000" font-family="sans-serif" font-size="13" lengthAdjust="spacing" textLength="79" x="324.5" y="142.417">Serealize File</text><text fill="#000000" font-family="sans-serif" font-size="13" lengthAdjust="spacing" textLength="76" x="324.5" y="158.7686">Stimulus File</text><polygon fill="#181818" points="358,189.9766,368,193.9766,358,197.9766,362,193.9766" style="stroke:#181818;stroke-width:1.0;"/><line style="stroke:#181818;stroke-width:1.0;" x1="42.5" x2="364" y1="193.9766" y2="193.9766"/><text fill="#000000" font-family="sans-serif" font-size="13" lengthAdjust="spacing" textLength="90" x="49.5" y="189.1201">Set File Names</text><polygon fill="#181818" points="266,220.3281,256,224.3281,266,228.3281,262,224.3281" style="stroke:#181818;stroke-width:1.0;"/><line style="stroke:#181818;stroke-width:1.0;" x1="260" x2="369" y1="224.3281" y2="224.3281"/><text fill="#000000" font-family="sans-serif" font-size="13" lengthAdjust="spacing" textLength="91" x="272" y="219.4717">Get File Names</text><polygon fill="#181818" points="358,250.6797,368,254.6797,358,258.6797,362,254.6797" style="stroke:#181818;stroke-width:1.0;"/><line style="stroke:#181818;stroke-width:1.0;" x1="250" x2="364" y1="254.6797" y2="254.6797"/><text fill="#000000" font-family="sans-serif" font-size="13" lengthAdjust="spacing" textLength="66" x="257" y="249.8232">File Names</text><polygon fill="#181818" points="530,281.0313,540,285.0313,530,289.0313,534,285.0313" style="stroke:#181818;stroke-width:1.0;"/><line style="stroke:#181818;stroke-width:1.0;" x1="42.5" x2="536" y1="285.0313" y2="285.0313"/><text fill="#000000" font-family="sans-serif" font-size="13" lengthAdjust="spacing" textLength="117" x="49.5" y="280.1748">Load Parameter File</text><polygon fill="#181818" points="381,311.3828,371,315.3828,381,319.3828,377,315.3828" style="stroke:#181818;stroke-width:1.0;"/><line style="stroke:#181818;stroke-width:1.0;" x1="375" x2="541" y1="315.3828" y2="315.3828"/><text fill="#000000" font-family="sans-serif" font-size="13" lengthAdjust="spacing" textLength="124" x="387" y="310.5264">Get Config File Name</text><polygon fill="#181818" points="530,341.7344,540,345.7344,530,349.7344,534,345.7344" style="stroke:#181818;stroke-width:1.0;"/><line style="stroke:#181818;stroke-width:1.0;" x1="370" x2="536" y1="345.7344" y2="345.7344"/><text fill="#000000" font-family="sans-serif" font-size="13" lengthAdjust="spacing" textLength="99" x="377" y="340.8779">Config File Name</text><polygon fill="#181818" points="358,372.0859,368,376.0859,358,380.0859,362,376.0859" style="stroke:#181818;stroke-width:1.0;"/><line style="stroke:#181818;stroke-width:1.0;" x1="42.5" x2="364" y1="376.0859" y2="376.0859"/><text fill="#000000" font-family="sans-serif" font-size="13" lengthAdjust="spacing" textLength="99" x="49.5" y="371.2295">Load Parameters</text><polygon fill="#181818" points="530,402.4375,540,406.4375,530,410.4375,534,406.4375" style="stroke:#181818;stroke-width:1.0;"/><line style="stroke:#181818;stroke-width:1.0;" x1="370" x2="536" y1="406.4375" y2="406.4375"/><text fill="#000000" font-family="sans-serif" font-size="13" lengthAdjust="spacing" textLength="148" x="377" y="401.5811">Get parameters from XML</text><polygon fill="#181818" points="381,452.1406,371,456.1406,381,460.1406,377,456.1406" style="stroke:#181818;stroke-width:1.0;"/><line style="stroke:#181818;stroke-width:1.0;" x1="375" x2="541" y1="456.1406" y2="456.1406"/><text fill="#000000" font-family="sans-serif" font-size="13" lengthAdjust="spacing" textLength="67" x="387" y="451.2842">Parameters</text><path d="M547,419.4375 L547,478.4375 L761,478.4375 L761,429.4375 L751,419.4375 L547,419.4375 " fill="#FEFFDD" style="stroke:#181818;stroke-width:0.5;"/><path d="M751,419.4375 L751,429.4375 L761,429.4375 L751,419.4375 " fill="#FEFFDD" style="stroke:#181818;stroke-width:0.5;"/><text fill="#000000" font-family="sans-serif" font-size="13" lengthAdjust="spacing" textLength="189" x="553" y="437.9326">width_, height_, epochDuration_,</text><text fill="#000000" font-family="sans-serif" font-size="13" lengthAdjust="spacing" textLength="179" x="553" y="454.2842">numEpochs_, maxFiringRate_,</text><text fill="#000000" font-family="sans-serif" font-size="13" lengthAdjust="spacing" textLength="193" x="553" y="470.6357">maxEdgesPerVertex_, RNG, etc.</text><polygon fill="#181818" points="358,513.0195,368,517.0195,358,521.0195,362,517.0195" style="stroke:#181818;stroke-width:1.0;"/><line style="stroke:#181818;stroke-width:1.0;" x1="42.5" x2="364" y1="517.0195" y2="517.0195"/><text fill="#000000" font-family="sans-serif" font-size="13" lengthAdjust="spacing" textLength="168" x="49.5" y="512.1631">Instantiate Simulator Objects</text><path d="M375,488.4922 L375,530.4922 L537,530.4922 L537,498.4922 L527,488.4922 L375,488.4922 " fill="#FEFFDD" style="stroke:#181818;stroke-width:0.5;"/><path d="M527,488.4922 L527,498.4922 L537,498.4922 L527,488.4922 " fill="#FEFFDD" style="stroke:#181818;stroke-width:0.5;"/><text fill="#000000" font-family="sans-serif" font-size="13" lengthAdjust="spacing" textLength="141" x="381" y="506.9873">Details are in a separate</text><text fill="#000000" font-family="sans-serif" font-size="13" lengthAdjust="spacing" textLength="110" x="381" y="523.3389">sequence diagram.</text><polygon fill="#181818" points="674.5,557.5469,684.5,561.5469,674.5,565.5469,678.5,561.5469" style="stroke:#181818;stroke-width:1.0;"/><line style="stroke:#181818;stroke-width:1.0;" x1="42.5" x2="680.5" y1="561.5469" y2="561.5469"/><text fill="#000000" font-family="sans-serif" font-size="13" lengthAdjust="spacing" textLength="150" x="49.5" y="556.6904">Register Graph Properties</text><path d="M691,541.1953 L691,567.1953 L989,567.1953 L989,551.1953 L979,541.1953 L691,541.1953 " fill="#FEFFDD" style="stroke:#181818;stroke-width:0.5;"/><path d="M979,541.1953 L979,551.1953 L989,551.1953 L979,541.1953 " fill="#FEFFDD" style="stroke:#181818;stroke-width:0.5;"/><text fill="#000000" font-family="sans-serif" font-size="13" lengthAdjust="spacing" textLength="277" x="697" y="559.6904">Ask all objects to register their Graph properties</text><polygon fill="#181818" points="806,590.8984,816,594.8984,806,598.8984,810,594.8984" style="stroke:#181818;stroke-width:1.0;"/><line style="stroke:#181818;stroke-width:1.0;" x1="42.5" x2="812" y1="594.8984" y2="594.8984"/><text fill="#000000" font-family="sans-serif" font-size="13" lengthAdjust="spacing" textLength="69" x="49.5" y="590.042">Read Graph</text><polygon fill="#181818" points="674.5,648.7773,684.5,652.7773,674.5,656.7773,678.5,652.7773" style="stroke:#181818;stroke-width:1.0;"/><line style="stroke:#181818;stroke-width:1.0;" x1="42.5" x2="680.5" y1="652.7773" y2="652.7773"/><text fill="#000000" font-family="sans-serif" font-size="13" lengthAdjust="spacing" textLength="99" x="49.5" y="647.9209">Load Parameters</text><path d="M691,607.8984 L691,682.8984 L914,682.8984 L914,617.8984 L904,607.8984 L691,607.8984 " fill="#FEFFDD" style="stroke:#181818;stroke-width:0.5;"/><path d="M904,607.8984 L904,617.8984 L914,617.8984 L904,607.8984 " fill="#FEFFDD" style="stroke:#181818;stroke-width:0.5;"/><text fill="#000000" font-family="sans-serif" font-size="13" lengthAdjust="spacing" textLength="190" x="697" y="626.3936">Runs loadParameters method for</text><text fill="#000000" font-family="sans-serif" font-size="13" lengthAdjust="spacing" textLength="142" x="697" y="642.7451">each instantiated object.</text><text fill="#000000" font-family="sans-serif" font-size="13" lengthAdjust="spacing" textLength="148" x="697" y="659.0967">Methods are registered to</text><text fill="#000000" font-family="sans-serif" font-size="13" lengthAdjust="spacing" textLength="202" x="697" y="675.4482">OperationManager on instantiation.</text><polygon fill="#181818" points="358,717.832,368,721.832,358,725.832,362,721.832" style="stroke:#181818;stroke-width:1.0;"/><line style="stroke:#181818;stroke-width:1.0;" x1="42.5" x2="364" y1="721.832" y2="721.832"/><text fill="#000000" font-family="sans-serif" font-size="13" lengthAdjust="spacing" textLength="34" x="49.5" y="716.9756">Setup</text><path d="M375,693.3047 L375,735.3047 L537,735.3047 L537,703.3047 L527,693.3047 L375,693.3047 " fill="#FEFFDD" style="stroke:#181818;stroke-width:0.5;"/><path d="M527,693.3047 L527,703.3047 L537,703.3047 L527,693.3047 " fill="#FEFFDD" style="stroke:#181818;stroke-width:0.5;"/><text fill="#000000" font-family="sans-serif" font-size="13" lengthAdjust="spacing" textLength="141" x="381" y="711.7998">Details are in a separate</text><text fill="#000000" font-family="sans-serif" font-size="13" lengthAdjust="spacing" textLength="110" x="381" y="728.1514">sequence diagram.</text><path d="M10,748.0078 L75,748.0078 L75,756.3594 L65,766.3594 L10,766.3594 L10,748.0078 " fill="#EEEEEE" style="stroke:#000000;stroke-width:1.5;"/><rect fill="none" height="48.7031" style="stroke:#000000;stroke-width:1.5;" width="955" x="10" y="748.0078"/><text fill="#000000" font-family="sans-serif" font-size="13" font-weight="bold" lengthAdjust="spacing" textLength="20" x="25" y="762.5029">opt</text><text fill="#000000" font-family="sans-serif" font-size="11" font-weight="bold" lengthAdjust="spacing" textLength="176" x="90" y="761.4268">[if serialized file name available]</text><polygon fill="#181818" points="907,784.7109,917,788.7109,907,792.7109,911,788.7109" style="stroke:#181818;stroke-width:1.0;"/><line style="stroke:#181818;stroke-width:1.0;" x1="42.5" x2="913" y1="788.7109" y2="788.7109"/><text fill="#000000" font-family="sans-serif" font-size="13" lengthAdjust="spacing" textLength="84" x="49.5" y="783.8545">Deserialize file</text><polygon fill="#181818" points="358,833.2383,368,837.2383,358,841.2383,362,837.2383" style="stroke:#181818;stroke-width:1.0;"/><line style="stroke:#181818;stroke-width:1.0;" x1="42.5" x2="364" y1="837.2383" y2="837.2383"/><text fill="#000000" font-family="sans-serif" font-size="13" lengthAdjust="spacing" textLength="51" x="49.5" y="832.3818">Simulate</text><path d="M375,808.7109 L375,850.7109 L537,850.7109 L537,818.7109 L527,808.7109 L375,808.7109 " fill="#FEFFDD" style="stroke:#181818;stroke-width:0.5;"/><path d="M527,808.7109 L527,818.7109 L537,818.7109 L527,808.7109 " fill="#FEFFDD" style="stroke:#181818;stroke-width:0.5;"/><text fill="#000000" font-family="sans-serif" font-size="13" lengthAdjust="spacing" textLength="141" x="381" y="827.2061">Details are in a separate</text><text fill="#000000" font-family="sans-serif" font-size="13" lengthAdjust="spacing" textLength="110" x="381" y="843.5576">sequence diagram.</text><path d="M10,863.4141 L75,863.4141 L75,871.7656 L65,881.7656 L10,881.7656 L10,863.4141 " fill="#EEEEEE" style="stroke:#000000;stroke-width:1.5;"/><rect fill="none" height="48.7031" style="stroke:#000000;stroke-width:1.5;" width="955" x="10" y="863.4141"/><text fill="#000000" font-family="sans-serif" font-size="13" font-weight="bold" lengthAdjust="spacing" textLength="20" x="25" y="877.9092">opt</text><text fill="#000000" font-family="sans-serif" font-size="11" font-weight="bold" lengthAdjust="spacing" textLength="149" x="90" y="876.833">[if serializtion file available]</text><polygon fill="#181818" points="907,900.1172,917,904.1172,907,908.1172,911,904.1172" style="stroke:#181818;stroke-width:1.0;"/><line style="stroke:#181818;stroke-width:1.0;" x1="42.5" x2="913" y1="904.1172" y2="904.1172"/><text fill="#000000" font-family="sans-serif" font-size="13" lengthAdjust="spacing" textLength="112" x="49.5" y="899.2607">Serialize Synapses</text><polygon fill="#181818" points="358,937.4688,368,941.4688,358,945.4688,362,941.4688" style="stroke:#181818;stroke-width:1.0;"/><line style="stroke:#181818;stroke-width:1.0;" x1="42.5" x2="364" y1="941.4688" y2="941.4688"/><text fill="#000000" font-family="sans-serif" font-size="13" lengthAdjust="spacing" textLength="35" x="49.5" y="936.6123">Finish</text><polygon fill="#181818" points="979,967.8203,989,971.8203,979,975.8203,983,971.8203" style="stroke:#181818;stroke-width:1.0;"/><line style="stroke:#181818;stroke-width:1.0;" x1="370" x2="985" y1="971.8203" y2="971.8203"/><text fill="#000000" font-family="sans-serif" font-size="13" lengthAdjust="spacing" textLength="151" x="377" y="966.9639">Clean up model resources</text><polygon fill="#181818" points="1051.5,998.1719,1061.5,1002.1719,1051.5,1006.1719,1055.5,1002.1719" style="stroke:#181818;stroke-width:1.0;"/><line style="stroke:#181818;stroke-width:1.0;" x1="42.5" x2="1057.5" y1="1002.1719" y2="1002.1719"/><text fill="#000000" font-family="sans-serif" font-size="13" lengthAdjust="spacing" textLength="119" x="49.5" y="997.3154">Terminate Recording</text><line style="stroke:#181818;stroke-width:1.0;" x1="42.5" x2="84.5" y1="1032.5234" y2="1032.5234"/><line style="stroke:#181818;stroke-width:1.0;" x1="84.5" x2="84.5" y1="1032.5234" y2="1045.5234"/><line style="stroke:#181818;stroke-width:1.0;" x1="43.5" x2="84.5" y1="1045.5234" y2="1045.5234"/><polygon fill="#181818" points="53.5,1041.5234,43.5,1045.5234,53.5,1049.5234,49.5,1045.5234" style="stroke:#181818;stroke-width:1.0;"/><text fill="#000000" font-family="sans-serif" font-size="13" lengthAdjust="spacing" textLength="74" x="49.5" y="1027.667">Exit program</text><!--MD5=[8eab660da8f0a006cee9dd4910f9fa81]
@startuml topLevelFlow

title Graphitti General Program Flow

Core -> ParamContainer **: Parse Command Line
activate ParamContainer
note right
    Config File
    Deserialize File
    Serealize File
    Stimulus File
end note

Core -> Simulator: Set File Names
Simulator -> ParamContainer: Get File Names
ParamContainer -> Simulator: File Names
deactivate ParamContainer

Core -> ParameterManager: Load Parameter File
ParameterManager -> Simulator: Get Config File Name
Simulator -> ParameterManager: Config File Name
Core -> Simulator: Load Parameters
Simulator -> ParameterManager: Get parameters from XML
ParameterManager -> Simulator: Parameters
note right
    width_, height_, epochDuration_,
    numEpochs_, maxFiringRate_,
    maxEdgesPerVertex_, RNG, etc.
end note

Core -> Simulator: Instantiate Simulator Objects
note right
    Details are in a separate
    sequence diagram.
end note

Core -> OperationManager: Register Graph Properties
note right
    Ask all objects to register their Graph properties
end note

Core -> GraphManager: Read Graph

' Expand in a separate diagram
Core -> OperationManager: Load Parameters
note right
    Runs loadParameters method for
    each instantiated object.
    Methods are registered to
    OperationManager on instantiation.
end note

Core -> Simulator: Setup
note right
    Details are in a separate
    sequence diagram.
end note


opt if serialized file name available
    Core -> Serializer: Deserialize file
end

Core -> Simulator: Simulate
note right
    Details are in a separate
    sequence diagram.
end note

opt if serializtion file available
    Core -> Serializer: Serialize Synapses
end

Core -> Simulator: Finish
Simulator -> Model: Clean up model resources
Core -> Recorder: Terminate Recording
Core -> Core: Exit program

@enduml

@startuml topLevelFlow

title Graphitti General Program Flow

Core -> ParamContainer **: Parse Command Line
activate ParamContainer
note right
    Config File
    Deserialize File
    Serealize File
    Stimulus File
end note

Core -> Simulator: Set File Names
Simulator -> ParamContainer: Get File Names
ParamContainer -> Simulator: File Names
deactivate ParamContainer

Core -> ParameterManager: Load Parameter File
ParameterManager -> Simulator: Get Config File Name
Simulator -> ParameterManager: Config File Name
Core -> Simulator: Load Parameters
Simulator -> ParameterManager: Get parameters from XML
ParameterManager -> Simulator: Parameters
note right
    width_, height_, epochDuration_,
    numEpochs_, maxFiringRate_,
    maxEdgesPerVertex_, RNG, etc.
end note

Core -> Simulator: Instantiate Simulator Objects
note right
    Details are in a separate
    sequence diagram.
end note

Core -> OperationManager: Register Graph Properties
note right
    Ask all objects to register their Graph properties
end note

Core -> GraphManager: Read Graph

Core -> OperationManager: Load Parameters
note right
    Runs loadParameters method for
    each instantiated object.
    Methods are registered to
    OperationManager on instantiation.
end note

Core -> Simulator: Setup
note right
    Details are in a separate
    sequence diagram.
end note


opt if serialized file name available
    Core -> Serializer: Deserialize file
end

Core -> Simulator: Simulate
note right
    Details are in a separate
    sequence diagram.
end note

opt if serializtion file available
    Core -> Serializer: Serialize Synapses
end

Core -> Simulator: Finish
Simulator -> Model: Clean up model resources
Core -> Recorder: Terminate Recording
Core -> Core: Exit program

@enduml

PlantUML version 1.2022.7(Mon Aug 22 10:01:30 PDT 2022)
(GPL source distribution)
Java Runtime: Java(TM) SE Runtime Environment
JVM: Java HotSpot(TM) 64-Bit Server VM
Default Encoding: UTF-8
Language: en
Country: US
--></g></svg>
