<?xml version="1.0" encoding="UTF-8" standalone="no"?><svg xmlns="http://www.w3.org/2000/svg" xmlns:xlink="http://www.w3.org/1999/xlink" contentScriptType="application/ecmascript" contentStyleType="text/css" height="1324px" preserveAspectRatio="none" style="width:1245px;height:1324px;" version="1.1" viewBox="0 0 1245 1324" width="1245px" zoomAndPan="magnify"><defs><filter height="300%" id="f1r2qp1slnsfnm" width="300%" x="-1" y="-1"><feGaussianBlur result="blurOut" stdDeviation="2.0"/><feColorMatrix in="blurOut" result="blurOut2" type="matrix" values="0 0 0 0 0 0 0 0 0 0 0 0 0 0 0 0 0 0 .4 0"/><feOffset dx="4.0" dy="4.0" in="blurOut2" result="blurOut3"/><feBlend in="SourceGraphic" in2="blurOut3" mode="normal"/></filter></defs><g><text fill="#000000" font-family="sans-serif" font-size="18" lengthAdjust="spacingAndGlyphs" textLength="284" x="483" y="26.708">Graphitti General Program Flow</text><rect fill="#FFFFFF" filter="url(#f1r2qp1slnsfnm)" height="132.7969" style="stroke: #A80036; stroke-width: 1.0;" width="10" x="268.5" y="114.3828"/><rect fill="#FFFFFF" filter="url(#f1r2qp1slnsfnm)" height="46.2656" style="stroke: #000000; stroke-width: 2.0;" width="978" x="13" y="744.8359"/><rect fill="#FFFFFF" filter="url(#f1r2qp1slnsfnm)" height="46.2656" style="stroke: #000000; stroke-width: 2.0;" width="978" x="13" y="1091.4297"/><line style="stroke: #A80036; stroke-width: 1.0; stroke-dasharray: 5.0,5.0;" x1="48" x2="48" y1="73.25" y2="1284.2266"/><line style="stroke: #A80036; stroke-width: 1.0; stroke-dasharray: 5.0,5.0;" x1="273.5" x2="273.5" y1="135.5156" y2="1284.2266"/><line style="stroke: #A80036; stroke-width: 1.0; stroke-dasharray: 5.0,5.0;" x1="400.5" x2="400.5" y1="73.25" y2="1284.2266"/><line style="stroke: #A80036; stroke-width: 1.0; stroke-dasharray: 5.0,5.0;" x1="590" x2="590" y1="73.25" y2="1284.2266"/><line style="stroke: #A80036; stroke-width: 1.0; stroke-dasharray: 5.0,5.0;" x1="748" x2="748" y1="73.25" y2="1284.2266"/><line style="stroke: #A80036; stroke-width: 1.0; stroke-dasharray: 5.0,5.0;" x1="861" x2="861" y1="73.25" y2="1284.2266"/><line style="stroke: #A80036; stroke-width: 1.0; stroke-dasharray: 5.0,5.0;" x1="941" x2="941" y1="73.25" y2="1284.2266"/><line style="stroke: #A80036; stroke-width: 1.0; stroke-dasharray: 5.0,5.0;" x1="1032" x2="1032" y1="73.25" y2="1284.2266"/><rect fill="#FEFECE" filter="url(#f1r2qp1slnsfnm)" height="30.2969" style="stroke: #A80036; stroke-width: 1.5;" width="47" x="23" y="37.9531"/><text fill="#000000" font-family="sans-serif" font-size="14" lengthAdjust="spacingAndGlyphs" textLength="33" x="30" y="57.9482">Core</text><rect fill="#FEFECE" filter="url(#f1r2qp1slnsfnm)" height="30.2969" style="stroke: #A80036; stroke-width: 1.5;" width="47" x="23" y="1283.2266"/><text fill="#000000" font-family="sans-serif" font-size="14" lengthAdjust="spacingAndGlyphs" textLength="33" x="30" y="1303.2217">Core</text><rect fill="#FEFECE" filter="url(#f1r2qp1slnsfnm)" height="30.2969" style="stroke: #A80036; stroke-width: 1.5;" width="124" x="209.5" y="1283.2266"/><text fill="#000000" font-family="sans-serif" font-size="14" lengthAdjust="spacingAndGlyphs" textLength="110" x="216.5" y="1303.2217">ParamContainer</text><rect fill="#FEFECE" filter="url(#f1r2qp1slnsfnm)" height="30.2969" style="stroke: #A80036; stroke-width: 1.5;" width="78" x="359.5" y="37.9531"/><text fill="#000000" font-family="sans-serif" font-size="14" lengthAdjust="spacingAndGlyphs" textLength="64" x="366.5" y="57.9482">Simulator</text><rect fill="#FEFECE" filter="url(#f1r2qp1slnsfnm)" height="30.2969" style="stroke: #A80036; stroke-width: 1.5;" width="78" x="359.5" y="1283.2266"/><text fill="#000000" font-family="sans-serif" font-size="14" lengthAdjust="spacingAndGlyphs" textLength="64" x="366.5" y="1303.2217">Simulator</text><rect fill="#FEFECE" filter="url(#f1r2qp1slnsfnm)" height="30.2969" style="stroke: #A80036; stroke-width: 1.5;" width="145" x="516" y="37.9531"/><text fill="#000000" font-family="sans-serif" font-size="14" lengthAdjust="spacingAndGlyphs" textLength="131" x="523" y="57.9482">ParameterManager</text><rect fill="#FEFECE" filter="url(#f1r2qp1slnsfnm)" height="30.2969" style="stroke: #A80036; stroke-width: 1.5;" width="145" x="516" y="1283.2266"/><text fill="#000000" font-family="sans-serif" font-size="14" lengthAdjust="spacingAndGlyphs" textLength="131" x="523" y="1303.2217">ParameterManager</text><rect fill="#FEFECE" filter="url(#f1r2qp1slnsfnm)" height="30.2969" style="stroke: #A80036; stroke-width: 1.5;" width="142" x="675" y="37.9531"/><text fill="#000000" font-family="sans-serif" font-size="14" lengthAdjust="spacingAndGlyphs" textLength="128" x="682" y="57.9482">OperationManager</text><rect fill="#FEFECE" filter="url(#f1r2qp1slnsfnm)" height="30.2969" style="stroke: #A80036; stroke-width: 1.5;" width="142" x="675" y="1283.2266"/><text fill="#000000" font-family="sans-serif" font-size="14" lengthAdjust="spacingAndGlyphs" textLength="128" x="682" y="1303.2217">OperationManager</text><rect fill="#FEFECE" filter="url(#f1r2qp1slnsfnm)" height="30.2969" style="stroke: #A80036; stroke-width: 1.5;" width="56" x="831" y="37.9531"/><text fill="#000000" font-family="sans-serif" font-size="14" lengthAdjust="spacingAndGlyphs" textLength="42" x="838" y="57.9482">Model</text><rect fill="#FEFECE" filter="url(#f1r2qp1slnsfnm)" height="30.2969" style="stroke: #A80036; stroke-width: 1.5;" width="56" x="831" y="1283.2266"/><text fill="#000000" font-family="sans-serif" font-size="14" lengthAdjust="spacingAndGlyphs" textLength="42" x="838" y="1303.2217">Model</text><rect fill="#FEFECE" filter="url(#f1r2qp1slnsfnm)" height="30.2969" style="stroke: #A80036; stroke-width: 1.5;" width="76" x="901" y="37.9531"/><text fill="#000000" font-family="sans-serif" font-size="14" lengthAdjust="spacingAndGlyphs" textLength="62" x="908" y="57.9482">Serializer</text><rect fill="#FEFECE" filter="url(#f1r2qp1slnsfnm)" height="30.2969" style="stroke: #A80036; stroke-width: 1.5;" width="76" x="901" y="1283.2266"/><text fill="#000000" font-family="sans-serif" font-size="14" lengthAdjust="spacingAndGlyphs" textLength="62" x="908" y="1303.2217">Serializer</text><rect fill="#FEFECE" filter="url(#f1r2qp1slnsfnm)" height="30.2969" style="stroke: #A80036; stroke-width: 1.5;" width="78" x="991" y="37.9531"/><text fill="#000000" font-family="sans-serif" font-size="14" lengthAdjust="spacingAndGlyphs" textLength="64" x="998" y="57.9482">Recorder</text><rect fill="#FEFECE" filter="url(#f1r2qp1slnsfnm)" height="30.2969" style="stroke: #A80036; stroke-width: 1.5;" width="78" x="991" y="1283.2266"/><text fill="#000000" font-family="sans-serif" font-size="14" lengthAdjust="spacingAndGlyphs" textLength="64" x="998" y="1303.2217">Recorder</text><rect fill="#FFFFFF" filter="url(#f1r2qp1slnsfnm)" height="132.7969" style="stroke: #A80036; stroke-width: 1.0;" width="10" x="268.5" y="114.3828"/><polygon fill="#A80036" points="197.5,100.3828,207.5,104.3828,197.5,108.3828,201.5,104.3828" style="stroke: #A80036; stroke-width: 1.0;"/><line style="stroke: #A80036; stroke-width: 1.0;" x1="48.5" x2="203.5" y1="104.3828" y2="104.3828"/><text fill="#000000" font-family="sans-serif" font-size="13" lengthAdjust="spacingAndGlyphs" textLength="137" x="55.5" y="99.3169">Parse Command Line</text><rect fill="#FEFECE" filter="url(#f1r2qp1slnsfnm)" height="30.2969" style="stroke: #A80036; stroke-width: 1.5;" width="124" x="209.5" y="102.8672"/><text fill="#000000" font-family="sans-serif" font-size="14" lengthAdjust="spacingAndGlyphs" textLength="110" x="216.5" y="122.8623">ParamContainer</text><path d="M347,88.25 L347,158.25 L463,158.25 L463,98.25 L453,88.25 L347,88.25 " fill="#FBFB77" filter="url(#f1r2qp1slnsfnm)" style="stroke: #A80036; stroke-width: 1.0;"/><path d="M453,88.25 L453,98.25 L463,98.25 L453,88.25 " fill="#FBFB77" style="stroke: #A80036; stroke-width: 1.0;"/><text fill="#000000" font-family="sans-serif" font-size="13" lengthAdjust="spacingAndGlyphs" textLength="65" x="353" y="105.3169">Config File</text><text fill="#000000" font-family="sans-serif" font-size="13" lengthAdjust="spacingAndGlyphs" textLength="95" x="353" y="120.4497">Deserialize File</text><text fill="#000000" font-family="sans-serif" font-size="13" lengthAdjust="spacingAndGlyphs" textLength="84" x="353" y="135.5825">Serealize File</text><text fill="#000000" font-family="sans-serif" font-size="13" lengthAdjust="spacingAndGlyphs" textLength="81" x="353" y="150.7153">Stimulus File</text><polygon fill="#A80036" points="388.5,184.9141,398.5,188.9141,388.5,192.9141,392.5,188.9141" style="stroke: #A80036; stroke-width: 1.0;"/><line style="stroke: #A80036; stroke-width: 1.0;" x1="48.5" x2="394.5" y1="188.9141" y2="188.9141"/><text fill="#000000" font-family="sans-serif" font-size="13" lengthAdjust="spacingAndGlyphs" textLength="97" x="55.5" y="183.8481">Set File Names</text><polygon fill="#A80036" points="289.5,214.0469,279.5,218.0469,289.5,222.0469,285.5,218.0469" style="stroke: #A80036; stroke-width: 1.0;"/><line style="stroke: #A80036; stroke-width: 1.0;" x1="283.5" x2="399.5" y1="218.0469" y2="218.0469"/><text fill="#000000" font-family="sans-serif" font-size="13" lengthAdjust="spacingAndGlyphs" textLength="98" x="295.5" y="212.981">Get File Names</text><polygon fill="#A80036" points="388.5,243.1797,398.5,247.1797,388.5,251.1797,392.5,247.1797" style="stroke: #A80036; stroke-width: 1.0;"/><line style="stroke: #A80036; stroke-width: 1.0;" x1="273.5" x2="394.5" y1="247.1797" y2="247.1797"/><text fill="#000000" font-family="sans-serif" font-size="13" lengthAdjust="spacingAndGlyphs" textLength="71" x="280.5" y="242.1138">File Names</text><polygon fill="#A80036" points="578.5,272.3125,588.5,276.3125,578.5,280.3125,582.5,276.3125" style="stroke: #A80036; stroke-width: 1.0;"/><line style="stroke: #A80036; stroke-width: 1.0;" x1="48.5" x2="584.5" y1="276.3125" y2="276.3125"/><text fill="#000000" font-family="sans-serif" font-size="13" lengthAdjust="spacingAndGlyphs" textLength="128" x="55.5" y="271.2466">Load Parameter File</text><polygon fill="#A80036" points="411.5,301.4453,401.5,305.4453,411.5,309.4453,407.5,305.4453" style="stroke: #A80036; stroke-width: 1.0;"/><line style="stroke: #A80036; stroke-width: 1.0;" x1="405.5" x2="589.5" y1="305.4453" y2="305.4453"/><text fill="#000000" font-family="sans-serif" font-size="13" lengthAdjust="spacingAndGlyphs" textLength="135" x="417.5" y="300.3794">Get Config File Name</text><polygon fill="#A80036" points="578.5,330.5781,588.5,334.5781,578.5,338.5781,582.5,334.5781" style="stroke: #A80036; stroke-width: 1.0;"/><line style="stroke: #A80036; stroke-width: 1.0;" x1="400.5" x2="584.5" y1="334.5781" y2="334.5781"/><text fill="#000000" font-family="sans-serif" font-size="13" lengthAdjust="spacingAndGlyphs" textLength="108" x="407.5" y="329.5122">Config File Name</text><polygon fill="#A80036" points="388.5,359.7109,398.5,363.7109,388.5,367.7109,392.5,363.7109" style="stroke: #A80036; stroke-width: 1.0;"/><line style="stroke: #A80036; stroke-width: 1.0;" x1="48.5" x2="394.5" y1="363.7109" y2="363.7109"/><text fill="#000000" font-family="sans-serif" font-size="13" lengthAdjust="spacingAndGlyphs" textLength="110" x="55.5" y="358.645">Load Parameters</text><polygon fill="#A80036" points="578.5,388.8438,588.5,392.8438,578.5,396.8438,582.5,392.8438" style="stroke: #A80036; stroke-width: 1.0;"/><line style="stroke: #A80036; stroke-width: 1.0;" x1="400.5" x2="584.5" y1="392.8438" y2="392.8438"/><text fill="#000000" font-family="sans-serif" font-size="13" lengthAdjust="spacingAndGlyphs" textLength="166" x="407.5" y="387.7778">Get parameters from XML</text><polygon fill="#A80036" points="411.5,438.1094,401.5,442.1094,411.5,446.1094,407.5,442.1094" style="stroke: #A80036; stroke-width: 1.0;"/><line style="stroke: #A80036; stroke-width: 1.0;" x1="405.5" x2="589.5" y1="442.1094" y2="442.1094"/><text fill="#000000" font-family="sans-serif" font-size="13" lengthAdjust="spacingAndGlyphs" textLength="75" x="417.5" y="437.0435">Parameters</text><path d="M595,405.8438 L595,460.8438 L824,460.8438 L824,415.8438 L814,405.8438 L595,405.8438 " fill="#FBFB77" filter="url(#f1r2qp1slnsfnm)" style="stroke: #A80036; stroke-width: 1.0;"/><path d="M814,405.8438 L814,415.8438 L824,415.8438 L814,405.8438 " fill="#FBFB77" style="stroke: #A80036; stroke-width: 1.0;"/><text fill="#000000" font-family="sans-serif" font-size="13" lengthAdjust="spacingAndGlyphs" textLength="208" x="601" y="422.9106">width_, height_, epochDuration_,</text><text fill="#000000" font-family="sans-serif" font-size="13" lengthAdjust="spacingAndGlyphs" textLength="192" x="601" y="438.0435">numEpochs_, maxFiringRate_,</text><text fill="#000000" font-family="sans-serif" font-size="13" lengthAdjust="spacingAndGlyphs" textLength="205" x="601" y="453.1763">maxEdgesPerVertex_, RNG, etc.</text><polygon fill="#A80036" points="388.5,499.9414,398.5,503.9414,388.5,507.9414,392.5,503.9414" style="stroke: #A80036; stroke-width: 1.0;"/><line style="stroke: #A80036; stroke-width: 1.0;" x1="48.5" x2="394.5" y1="503.9414" y2="503.9414"/><text fill="#000000" font-family="sans-serif" font-size="13" lengthAdjust="spacingAndGlyphs" textLength="186" x="55.5" y="498.8755">Instantiate Simulator Objects</text><path d="M405,475.2422 L405,515.2422 L583,515.2422 L583,485.2422 L573,475.2422 L405,475.2422 " fill="#FBFB77" filter="url(#f1r2qp1slnsfnm)" style="stroke: #A80036; stroke-width: 1.0;"/><path d="M573,475.2422 L573,485.2422 L583,485.2422 L573,475.2422 " fill="#FBFB77" style="stroke: #A80036; stroke-width: 1.0;"/><text fill="#000000" font-family="sans-serif" font-size="13" lengthAdjust="spacingAndGlyphs" textLength="157" x="411" y="492.3091">Details are in a separate</text><text fill="#000000" font-family="sans-serif" font-size="13" lengthAdjust="spacingAndGlyphs" textLength="123" x="411" y="507.4419">sequence diagram.</text><polygon fill="#A80036" points="736,569.3398,746,573.3398,736,577.3398,740,573.3398" style="stroke: #A80036; stroke-width: 1.0;"/><line style="stroke: #A80036; stroke-width: 1.0;" x1="48.5" x2="742" y1="573.3398" y2="573.3398"/><text fill="#000000" font-family="sans-serif" font-size="13" lengthAdjust="spacingAndGlyphs" textLength="110" x="55.5" y="568.2739">Load Parameters</text><path d="M753,529.5078 L753,599.5078 L1000,599.5078 L1000,539.5078 L990,529.5078 L753,529.5078 " fill="#FBFB77" filter="url(#f1r2qp1slnsfnm)" style="stroke: #A80036; stroke-width: 1.0;"/><path d="M990,529.5078 L990,539.5078 L1000,539.5078 L990,529.5078 " fill="#FBFB77" style="stroke: #A80036; stroke-width: 1.0;"/><text fill="#000000" font-family="sans-serif" font-size="13" lengthAdjust="spacingAndGlyphs" textLength="212" x="759" y="546.5747">Runs loadParameters method for</text><text fill="#000000" font-family="sans-serif" font-size="13" lengthAdjust="spacingAndGlyphs" textLength="158" x="759" y="561.7075">each instantiated object.</text><text fill="#000000" font-family="sans-serif" font-size="13" lengthAdjust="spacingAndGlyphs" textLength="166" x="759" y="576.8403">Methods are registered to</text><text fill="#000000" font-family="sans-serif" font-size="13" lengthAdjust="spacingAndGlyphs" textLength="226" x="759" y="591.9731">OperationManager on instantiation.</text><polygon fill="#A80036" points="388.5,626.1719,398.5,630.1719,388.5,634.1719,392.5,630.1719" style="stroke: #A80036; stroke-width: 1.0;"/><line style="stroke: #A80036; stroke-width: 1.0;" x1="48.5" x2="394.5" y1="630.1719" y2="630.1719"/><text fill="#000000" font-family="sans-serif" font-size="13" lengthAdjust="spacingAndGlyphs" textLength="38" x="55.5" y="625.106">Setup</text><polygon fill="#A80036" points="849,690.5703,859,694.5703,849,698.5703,853,694.5703" style="stroke: #A80036; stroke-width: 1.0;"/><line style="stroke: #A80036; stroke-width: 1.0;" x1="400.5" x2="855" y1="694.5703" y2="694.5703"/><text fill="#000000" font-family="sans-serif" font-size="13" lengthAdjust="spacingAndGlyphs" textLength="110" x="407.5" y="689.5044">Setup Simulation</text><path d="M866,643.1719 L866,728.1719 L1084,728.1719 L1084,653.1719 L1074,643.1719 L866,643.1719 " fill="#FBFB77" filter="url(#f1r2qp1slnsfnm)" style="stroke: #A80036; stroke-width: 1.0;"/><path d="M1074,643.1719 L1074,653.1719 L1084,653.1719 L1074,643.1719 " fill="#FBFB77" style="stroke: #A80036; stroke-width: 1.0;"/><text fill="#000000" font-family="sans-serif" font-size="13" lengthAdjust="spacingAndGlyphs" textLength="197" x="872" y="660.2388">Sets up vertices, edges, layout</text><text fill="#000000" font-family="sans-serif" font-size="13" lengthAdjust="spacingAndGlyphs" textLength="116" x="872" y="675.3716">Initializes recorder</text><text fill="#000000" font-family="sans-serif" font-size="13" lengthAdjust="spacingAndGlyphs" textLength="122" x="872" y="690.5044">Creates all vertices</text><text fill="#000000" font-family="sans-serif" font-size="13" lengthAdjust="spacingAndGlyphs" textLength="158" x="872" y="705.6372">Sets up connections and</text><text fill="#000000" font-family="sans-serif" font-size="13" lengthAdjust="spacingAndGlyphs" textLength="147" x="872" y="720.77">Creates EdgeIndexMap</text><path d="M13,744.8359 L83,744.8359 L83,751.8359 L73,761.8359 L13,761.8359 L13,744.8359 " fill="#EEEEEE" style="stroke: #000000; stroke-width: 1.0;"/><rect fill="none" height="46.2656" style="stroke: #000000; stroke-width: 2.0;" width="978" x="13" y="744.8359"/><text fill="#000000" font-family="sans-serif" font-size="13" font-weight="bold" lengthAdjust="spacingAndGlyphs" textLength="25" x="28" y="757.9028">opt</text><text fill="#000000" font-family="sans-serif" font-size="11" font-weight="bold" lengthAdjust="spacingAndGlyphs" textLength="213" x="98" y="757.0464">[if serialized file name available]</text><polygon fill="#A80036" points="929,779.1016,939,783.1016,929,787.1016,933,783.1016" style="stroke: #A80036; stroke-width: 1.0;"/><line style="stroke: #A80036; stroke-width: 1.0;" x1="48.5" x2="935" y1="783.1016" y2="783.1016"/><text fill="#000000" font-family="sans-serif" font-size="13" lengthAdjust="spacingAndGlyphs" textLength="92" x="55.5" y="778.0356">Deserialize file</text><polygon fill="#A80036" points="388.5,815.2344,398.5,819.2344,388.5,823.2344,392.5,819.2344" style="stroke: #A80036; stroke-width: 1.0;"/><line style="stroke: #A80036; stroke-width: 1.0;" x1="48.5" x2="394.5" y1="819.2344" y2="819.2344"/><text fill="#000000" font-family="sans-serif" font-size="13" lengthAdjust="spacingAndGlyphs" textLength="57" x="55.5" y="814.1685">Simulate</text><line style="stroke: #A80036; stroke-width: 1.0;" x1="400.5" x2="442.5" y1="848.3672" y2="848.3672"/><line style="stroke: #A80036; stroke-width: 1.0;" x1="442.5" x2="442.5" y1="848.3672" y2="861.3672"/><line style="stroke: #A80036; stroke-width: 1.0;" x1="401.5" x2="442.5" y1="861.3672" y2="861.3672"/><polygon fill="#A80036" points="411.5,857.3672,401.5,861.3672,411.5,865.3672,407.5,861.3672" style="stroke: #A80036; stroke-width: 1.0;"/><text fill="#000000" font-family="sans-serif" font-size="13" lengthAdjust="spacingAndGlyphs" textLength="98" x="407.5" y="843.3013">Advance Epoch</text><polygon fill="#A80036" points="849,886.5,859,890.5,849,894.5,853,890.5" style="stroke: #A80036; stroke-width: 1.0;"/><line style="stroke: #A80036; stroke-width: 1.0;" x1="400.5" x2="855" y1="890.5" y2="890.5"/><text fill="#000000" font-family="sans-serif" font-size="13" lengthAdjust="spacingAndGlyphs" textLength="130" x="407.5" y="885.4341">Update Connections</text><polygon fill="#A80036" points="849,915.6328,859,919.6328,849,923.6328,853,919.6328" style="stroke: #A80036; stroke-width: 1.0;"/><line style="stroke: #A80036; stroke-width: 1.0;" x1="400.5" x2="855" y1="919.6328" y2="919.6328"/><text fill="#000000" font-family="sans-serif" font-size="13" lengthAdjust="spacingAndGlyphs" textLength="96" x="407.5" y="914.5669">Update History</text><polygon fill="#A80036" points="1020,964.8984,1030,968.8984,1020,972.8984,1024,968.8984" style="stroke: #A80036; stroke-width: 1.0;"/><line style="stroke: #A80036; stroke-width: 1.0;" x1="861" x2="1026" y1="968.8984" y2="968.8984"/><text fill="#000000" font-family="sans-serif" font-size="13" lengthAdjust="spacingAndGlyphs" textLength="112" x="868" y="963.8325">Compile Histories</text><path d="M1037,932.6328 L1037,987.6328 L1233,987.6328 L1233,942.6328 L1223,932.6328 L1037,932.6328 " fill="#FBFB77" filter="url(#f1r2qp1slnsfnm)" style="stroke: #A80036; stroke-width: 1.0;"/><path d="M1223,932.6328 L1223,942.6328 L1233,942.6328 L1223,932.6328 " fill="#FBFB77" style="stroke: #A80036; stroke-width: 1.0;"/><text fill="#000000" font-family="sans-serif" font-size="13" lengthAdjust="spacingAndGlyphs" textLength="169" x="1043" y="949.6997">Only vertices are compiled</text><text fill="#000000" font-family="sans-serif" font-size="13" lengthAdjust="spacingAndGlyphs" textLength="175" x="1043" y="964.8325">and saved. Implementation</text><text fill="#000000" font-family="sans-serif" font-size="13" lengthAdjust="spacingAndGlyphs" textLength="157" x="1043" y="979.9653">is simulation dependent.</text><polygon fill="#A80036" points="388.5,1014.1641,398.5,1018.1641,388.5,1022.1641,392.5,1018.1641" style="stroke: #A80036; stroke-width: 1.0;"/><line style="stroke: #A80036; stroke-width: 1.0;" x1="48.5" x2="394.5" y1="1018.1641" y2="1018.1641"/><text fill="#000000" font-family="sans-serif" font-size="13" lengthAdjust="spacingAndGlyphs" textLength="82" x="55.5" y="1013.0981">Save Results</text><polygon fill="#A80036" points="849,1043.2969,859,1047.2969,849,1051.2969,853,1047.2969" style="stroke: #A80036; stroke-width: 1.0;"/><line style="stroke: #A80036; stroke-width: 1.0;" x1="400.5" x2="855" y1="1047.2969" y2="1047.2969"/><text fill="#000000" font-family="sans-serif" font-size="13" lengthAdjust="spacingAndGlyphs" textLength="82" x="407.5" y="1042.231">Save Results</text><polygon fill="#A80036" points="1020,1072.4297,1030,1076.4297,1020,1080.4297,1024,1076.4297" style="stroke: #A80036; stroke-width: 1.0;"/><line style="stroke: #A80036; stroke-width: 1.0;" x1="861" x2="1026" y1="1076.4297" y2="1076.4297"/><text fill="#000000" font-family="sans-serif" font-size="13" lengthAdjust="spacingAndGlyphs" textLength="139" x="868" y="1071.3638">Save Simulation Data</text><path d="M13,1091.4297 L83,1091.4297 L83,1098.4297 L73,1108.4297 L13,1108.4297 L13,1091.4297 " fill="#EEEEEE" style="stroke: #000000; stroke-width: 1.0;"/><rect fill="none" height="46.2656" style="stroke: #000000; stroke-width: 2.0;" width="978" x="13" y="1091.4297"/><text fill="#000000" font-family="sans-serif" font-size="13" font-weight="bold" lengthAdjust="spacingAndGlyphs" textLength="25" x="28" y="1104.4966">opt</text><text fill="#000000" font-family="sans-serif" font-size="11" font-weight="bold" lengthAdjust="spacingAndGlyphs" textLength="183" x="98" y="1103.6401">[if serializtion file available]</text><polygon fill="#A80036" points="929,1125.6953,939,1129.6953,929,1133.6953,933,1129.6953" style="stroke: #A80036; stroke-width: 1.0;"/><line style="stroke: #A80036; stroke-width: 1.0;" x1="48.5" x2="935" y1="1129.6953" y2="1129.6953"/><text fill="#000000" font-family="sans-serif" font-size="13" lengthAdjust="spacingAndGlyphs" textLength="120" x="55.5" y="1124.6294">Serialize Synapses</text><polygon fill="#A80036" points="388.5,1161.8281,398.5,1165.8281,388.5,1169.8281,392.5,1165.8281" style="stroke: #A80036; stroke-width: 1.0;"/><line style="stroke: #A80036; stroke-width: 1.0;" x1="48.5" x2="394.5" y1="1165.8281" y2="1165.8281"/><text fill="#000000" font-family="sans-serif" font-size="13" lengthAdjust="spacingAndGlyphs" textLength="36" x="55.5" y="1160.7622">Finish</text><polygon fill="#A80036" points="849,1190.9609,859,1194.9609,849,1198.9609,853,1194.9609" style="stroke: #A80036; stroke-width: 1.0;"/><line style="stroke: #A80036; stroke-width: 1.0;" x1="400.5" x2="855" y1="1194.9609" y2="1194.9609"/><text fill="#000000" font-family="sans-serif" font-size="13" lengthAdjust="spacingAndGlyphs" textLength="167" x="407.5" y="1189.895">Clean up model resources</text><polygon fill="#A80036" points="1020,1220.0938,1030,1224.0938,1020,1228.0938,1024,1224.0938" style="stroke: #A80036; stroke-width: 1.0;"/><line style="stroke: #A80036; stroke-width: 1.0;" x1="48.5" x2="1026" y1="1224.0938" y2="1224.0938"/><text fill="#000000" font-family="sans-serif" font-size="13" lengthAdjust="spacingAndGlyphs" textLength="132" x="55.5" y="1219.0278">Terminate Recording</text><line style="stroke: #A80036; stroke-width: 1.0;" x1="48.5" x2="90.5" y1="1253.2266" y2="1253.2266"/><line style="stroke: #A80036; stroke-width: 1.0;" x1="90.5" x2="90.5" y1="1253.2266" y2="1266.2266"/><line style="stroke: #A80036; stroke-width: 1.0;" x1="49.5" x2="90.5" y1="1266.2266" y2="1266.2266"/><polygon fill="#A80036" points="59.5,1262.2266,49.5,1266.2266,59.5,1270.2266,55.5,1266.2266" style="stroke: #A80036; stroke-width: 1.0;"/><text fill="#000000" font-family="sans-serif" font-size="13" lengthAdjust="spacingAndGlyphs" textLength="82" x="55.5" y="1248.1606">Exit program</text><!--MD5=[96597805e5375ede59a8438e12438a1c]
@startuml topLevelFlow

title Graphitti General Program Flow

Core -> ParamContainer **: Parse Command Line
activate ParamContainer
note right
    Config File
    Deserialize File
    Serealize File
    Stimulus File
end note

Core -> Simulator: Set File Names
Simulator -> ParamContainer: Get File Names
ParamContainer -> Simulator: File Names
deactivate ParamContainer

Core -> ParameterManager: Load Parameter File
ParameterManager -> Simulator: Get Config File Name
Simulator -> ParameterManager: Config File Name
Core -> Simulator: Load Parameters
Simulator -> ParameterManager: Get parameters from XML
ParameterManager -> Simulator: Parameters
note right
    width_, height_, epochDuration_,
    numEpochs_, maxFiringRate_,
    maxEdgesPerVertex_, RNG, etc.
end note

Core -> Simulator: Instantiate Simulator Objects
note right
    Details are in a separate
    sequence diagram.
end note

Core -> OperationManager: Load Parameters
note right
    Runs loadParameters method for
    each instantiated object.
    Methods are registered to
    OperationManager on instantiation.
end note

Core -> Simulator: Setup
Simulator -> Model: Setup Simulation
note right
    Sets up vertices, edges, layout
    Initializes recorder
    Creates all vertices
    Sets up connections and
    Creates EdgeIndexMap
end note

opt if serialized file name available
    Core -> Serializer: Deserialize file
end

Core -> Simulator: Simulate
Simulator -> Simulator: Advance Epoch
Simulator -> Model: Update Connections
Simulator -> Model: Update History
Model -> Recorder: Compile Histories
note right
    Only vertices are compiled
    and saved. Implementation
    is simulation dependent.
end note

Core -> Simulator: Save Results
Simulator -> Model: Save Results
Model -> Recorder: Save Simulation Data

opt if serializtion file available
    Core -> Serializer: Serialize Synapses
end

Core -> Simulator: Finish
Simulator -> Model: Clean up model resources
Core -> Recorder: Terminate Recording
Core -> Core: Exit program

@enduml

PlantUML version 1.2020.02(Sun Mar 01 10:22:07 GMT 2020)
(GPL source distribution)
Java Runtime: OpenJDK Runtime Environment
JVM: OpenJDK 64-Bit Server VM
Java Version: 11.0.9+11-Ubuntu-0ubuntu1
Operating System: Linux
Default Encoding: ANSI_X3.4-1968
Language: en
Country: US
--></g></svg>