<?xml version="1.0" encoding="UTF-8" standalone="no"?><svg xmlns="http://www.w3.org/2000/svg" xmlns:xlink="http://www.w3.org/1999/xlink" contentScriptType="application/ecmascript" contentStyleType="text/css" height="1091px" preserveAspectRatio="none" style="width:1121px;height:1091px;" version="1.1" viewBox="0 0 1121 1091" width="1121px" zoomAndPan="magnify"><defs><filter height="300%" id="f3e8uqb66yfx1" width="300%" x="-1" y="-1"><feGaussianBlur result="blurOut" stdDeviation="2.0"/><feColorMatrix in="blurOut" result="blurOut2" type="matrix" values="0 0 0 0 0 0 0 0 0 0 0 0 0 0 0 0 0 0 .4 0"/><feOffset dx="4.0" dy="4.0" in="blurOut2" result="blurOut3"/><feBlend in="SourceGraphic" in2="blurOut3" mode="normal"/></filter></defs><g><text fill="#000000" font-family="sans-serif" font-size="18" lengthAdjust="spacingAndGlyphs" textLength="261" x="427.5" y="28.708">Graphitti General Program Flow</text><rect fill="#FFFFFF" filter="url(#f3e8uqb66yfx1)" height="132.7969" style="stroke:#A80036;stroke-width:1.0;" width="10" x="245" y="116.3828"/><rect fill="#FFFFFF" filter="url(#f3e8uqb66yfx1)" height="46.2656" style="stroke:#000000;stroke-width:2.0;" width="958" x="10" y="740.5703"/><rect fill="#FFFFFF" filter="url(#f3e8uqb66yfx1)" height="46.2656" style="stroke:#000000;stroke-width:2.0;" width="958" x="10" y="855.1016"/><line style="stroke:#A80036;stroke-width:1.0;stroke-dasharray:5.0,5.0;" x1="43" x2="43" y1="75.25" y2="1047.8984"/><line style="stroke:#A80036;stroke-width:1.0;stroke-dasharray:5.0,5.0;" x1="249.5" x2="249.5" y1="137.5156" y2="1047.8984"/><line style="stroke:#A80036;stroke-width:1.0;stroke-dasharray:5.0,5.0;" x1="363.5" x2="363.5" y1="75.25" y2="1047.8984"/><line style="stroke:#A80036;stroke-width:1.0;stroke-dasharray:5.0,5.0;" x1="536" x2="536" y1="75.25" y2="1047.8984"/><line style="stroke:#A80036;stroke-width:1.0;stroke-dasharray:5.0,5.0;" x1="683" x2="683" y1="75.25" y2="1047.8984"/><line style="stroke:#A80036;stroke-width:1.0;stroke-dasharray:5.0,5.0;" x1="816" x2="816" y1="75.25" y2="1047.8984"/><line style="stroke:#A80036;stroke-width:1.0;stroke-dasharray:5.0,5.0;" x1="919" x2="919" y1="75.25" y2="1047.8984"/><line style="stroke:#A80036;stroke-width:1.0;stroke-dasharray:5.0,5.0;" x1="997" x2="997" y1="75.25" y2="1047.8984"/><line style="stroke:#A80036;stroke-width:1.0;stroke-dasharray:5.0,5.0;" x1="1073" x2="1073" y1="75.25" y2="1047.8984"/><rect fill="#FEFECE" filter="url(#f3e8uqb66yfx1)" height="30.2969" style="stroke:#A80036;stroke-width:1.5;" width="43" x="20" y="39.9531"/><text fill="#000000" font-family="sans-serif" font-size="14" lengthAdjust="spacingAndGlyphs" textLength="29" x="27" y="59.9482">Core</text><rect fill="#FEFECE" filter="url(#f3e8uqb66yfx1)" height="30.2969" style="stroke:#A80036;stroke-width:1.5;" width="43" x="20" y="1046.8984"/><text fill="#000000" font-family="sans-serif" font-size="14" lengthAdjust="spacingAndGlyphs" textLength="29" x="27" y="1066.8936">Core</text><rect fill="#FEFECE" filter="url(#f3e8uqb66yfx1)" height="30.2969" style="stroke:#A80036;stroke-width:1.5;" width="115" x="190.5" y="1046.8984"/><text fill="#000000" font-family="sans-serif" font-size="14" lengthAdjust="spacingAndGlyphs" textLength="101" x="197.5" y="1066.8936">ParamContainer</text><rect fill="#FEFECE" filter="url(#f3e8uqb66yfx1)" height="30.2969" style="stroke:#A80036;stroke-width:1.5;" width="75" x="324.5" y="39.9531"/><text fill="#000000" font-family="sans-serif" font-size="14" lengthAdjust="spacingAndGlyphs" textLength="61" x="331.5" y="59.9482">Simulator</text><rect fill="#FEFECE" filter="url(#f3e8uqb66yfx1)" height="30.2969" style="stroke:#A80036;stroke-width:1.5;" width="75" x="324.5" y="1046.8984"/><text fill="#000000" font-family="sans-serif" font-size="14" lengthAdjust="spacingAndGlyphs" textLength="61" x="331.5" y="1066.8936">Simulator</text><rect fill="#FEFECE" filter="url(#f3e8uqb66yfx1)" height="30.2969" style="stroke:#A80036;stroke-width:1.5;" width="134" x="467" y="39.9531"/><text fill="#000000" font-family="sans-serif" font-size="14" lengthAdjust="spacingAndGlyphs" textLength="120" x="474" y="59.9482">ParameterManager</text><rect fill="#FEFECE" filter="url(#f3e8uqb66yfx1)" height="30.2969" style="stroke:#A80036;stroke-width:1.5;" width="134" x="467" y="1046.8984"/><text fill="#000000" font-family="sans-serif" font-size="14" lengthAdjust="spacingAndGlyphs" textLength="120" x="474" y="1066.8936">ParameterManager</text><rect fill="#FEFECE" filter="url(#f3e8uqb66yfx1)" height="30.2969" style="stroke:#A80036;stroke-width:1.5;" width="132" x="615" y="39.9531"/><text fill="#000000" font-family="sans-serif" font-size="14" lengthAdjust="spacingAndGlyphs" textLength="118" x="622" y="59.9482">OperationManager</text><rect fill="#FEFECE" filter="url(#f3e8uqb66yfx1)" height="30.2969" style="stroke:#A80036;stroke-width:1.5;" width="132" x="615" y="1046.8984"/><text fill="#000000" font-family="sans-serif" font-size="14" lengthAdjust="spacingAndGlyphs" textLength="118" x="622" y="1066.8936">OperationManager</text><rect fill="#FEFECE" filter="url(#f3e8uqb66yfx1)" height="30.2969" style="stroke:#A80036;stroke-width:1.5;" width="106" x="761" y="39.9531"/><text fill="#000000" font-family="sans-serif" font-size="14" lengthAdjust="spacingAndGlyphs" textLength="92" x="768" y="59.9482">GraphManager</text><rect fill="#FEFECE" filter="url(#f3e8uqb66yfx1)" height="30.2969" style="stroke:#A80036;stroke-width:1.5;" width="106" x="761" y="1046.8984"/><text fill="#000000" font-family="sans-serif" font-size="14" lengthAdjust="spacingAndGlyphs" textLength="92" x="768" y="1066.8936">GraphManager</text><rect fill="#FEFECE" filter="url(#f3e8uqb66yfx1)" height="30.2969" style="stroke:#A80036;stroke-width:1.5;" width="73" x="881" y="39.9531"/><text fill="#000000" font-family="sans-serif" font-size="14" lengthAdjust="spacingAndGlyphs" textLength="59" x="888" y="59.9482">Serializer</text><rect fill="#FEFECE" filter="url(#f3e8uqb66yfx1)" height="30.2969" style="stroke:#A80036;stroke-width:1.5;" width="73" x="881" y="1046.8984"/><text fill="#000000" font-family="sans-serif" font-size="14" lengthAdjust="spacingAndGlyphs" textLength="59" x="888" y="1066.8936">Serializer</text><rect fill="#FEFECE" filter="url(#f3e8uqb66yfx1)" height="30.2969" style="stroke:#A80036;stroke-width:1.5;" width="54" x="968" y="39.9531"/><text fill="#000000" font-family="sans-serif" font-size="14" lengthAdjust="spacingAndGlyphs" textLength="40" x="975" y="59.9482">Model</text><rect fill="#FEFECE" filter="url(#f3e8uqb66yfx1)" height="30.2969" style="stroke:#A80036;stroke-width:1.5;" width="54" x="968" y="1046.8984"/><text fill="#000000" font-family="sans-serif" font-size="14" lengthAdjust="spacingAndGlyphs" textLength="40" x="975" y="1066.8936">Model</text><rect fill="#FEFECE" filter="url(#f3e8uqb66yfx1)" height="30.2969" style="stroke:#A80036;stroke-width:1.5;" width="71" x="1036" y="39.9531"/><text fill="#000000" font-family="sans-serif" font-size="14" lengthAdjust="spacingAndGlyphs" textLength="57" x="1043" y="59.9482">Recorder</text><rect fill="#FEFECE" filter="url(#f3e8uqb66yfx1)" height="30.2969" style="stroke:#A80036;stroke-width:1.5;" width="71" x="1036" y="1046.8984"/><text fill="#000000" font-family="sans-serif" font-size="14" lengthAdjust="spacingAndGlyphs" textLength="57" x="1043" y="1066.8936">Recorder</text><rect fill="#FFFFFF" filter="url(#f3e8uqb66yfx1)" height="132.7969" style="stroke:#A80036;stroke-width:1.0;" width="10" x="245" y="116.3828"/><polygon fill="#A80036" points="178.5,102.3828,188.5,106.3828,178.5,110.3828,182.5,106.3828" style="stroke:#A80036;stroke-width:1.0;"/><line style="stroke:#A80036;stroke-width:1.0;" x1="43.5" x2="184.5" y1="106.3828" y2="106.3828"/><text fill="#000000" font-family="sans-serif" font-size="13" lengthAdjust="spacingAndGlyphs" textLength="123" x="50.5" y="101.3169">Parse Command Line</text><rect fill="#FEFECE" filter="url(#f3e8uqb66yfx1)" height="30.2969" style="stroke:#A80036;stroke-width:1.5;" width="115" x="190.5" y="104.8672"/><text fill="#000000" font-family="sans-serif" font-size="14" lengthAdjust="spacingAndGlyphs" textLength="101" x="197.5" y="124.8623">ParamContainer</text><path d="M319.5,90.25 L319.5,160.25 L425.5,160.25 L425.5,100.25 L415.5,90.25 L319.5,90.25 " fill="#FBFB77" filter="url(#f3e8uqb66yfx1)" style="stroke:#A80036;stroke-width:1.0;"/><path d="M415.5,90.25 L415.5,100.25 L425.5,100.25 L415.5,90.25 " fill="#FBFB77" style="stroke:#A80036;stroke-width:1.0;"/><text fill="#000000" font-family="sans-serif" font-size="13" lengthAdjust="spacingAndGlyphs" textLength="60" x="325.5" y="107.3169">Config File</text><text fill="#000000" font-family="sans-serif" font-size="13" lengthAdjust="spacingAndGlyphs" textLength="85" x="325.5" y="122.4497">Deserialize File</text><text fill="#000000" font-family="sans-serif" font-size="13" lengthAdjust="spacingAndGlyphs" textLength="74" x="325.5" y="137.5825">Serealize File</text><text fill="#000000" font-family="sans-serif" font-size="13" lengthAdjust="spacingAndGlyphs" textLength="72" x="325.5" y="152.7153">Stimulus File</text><polygon fill="#A80036" points="352,186.9141,362,190.9141,352,194.9141,356,190.9141" style="stroke:#A80036;stroke-width:1.0;"/><line style="stroke:#A80036;stroke-width:1.0;" x1="43.5" x2="358" y1="190.9141" y2="190.9141"/><text fill="#000000" font-family="sans-serif" font-size="13" lengthAdjust="spacingAndGlyphs" textLength="83" x="50.5" y="185.8481">Set File Names</text><polygon fill="#A80036" points="266,216.0469,256,220.0469,266,224.0469,262,220.0469" style="stroke:#A80036;stroke-width:1.0;"/><line style="stroke:#A80036;stroke-width:1.0;" x1="260" x2="363" y1="220.0469" y2="220.0469"/><text fill="#000000" font-family="sans-serif" font-size="13" lengthAdjust="spacingAndGlyphs" textLength="85" x="272" y="214.981">Get File Names</text><polygon fill="#A80036" points="352,245.1797,362,249.1797,352,253.1797,356,249.1797" style="stroke:#A80036;stroke-width:1.0;"/><line style="stroke:#A80036;stroke-width:1.0;" x1="250" x2="358" y1="249.1797" y2="249.1797"/><text fill="#000000" font-family="sans-serif" font-size="13" lengthAdjust="spacingAndGlyphs" textLength="62" x="257" y="244.1138">File Names</text><polygon fill="#A80036" points="524,274.3125,534,278.3125,524,282.3125,528,278.3125" style="stroke:#A80036;stroke-width:1.0;"/><line style="stroke:#A80036;stroke-width:1.0;" x1="43.5" x2="530" y1="278.3125" y2="278.3125"/><text fill="#000000" font-family="sans-serif" font-size="13" lengthAdjust="spacingAndGlyphs" textLength="114" x="50.5" y="273.2466">Load Parameter File</text><polygon fill="#A80036" points="375,303.4453,365,307.4453,375,311.4453,371,307.4453" style="stroke:#A80036;stroke-width:1.0;"/><line style="stroke:#A80036;stroke-width:1.0;" x1="369" x2="535" y1="307.4453" y2="307.4453"/><text fill="#000000" font-family="sans-serif" font-size="13" lengthAdjust="spacingAndGlyphs" textLength="120" x="381" y="302.3794">Get Config File Name</text><polygon fill="#A80036" points="524,332.5781,534,336.5781,524,340.5781,528,336.5781" style="stroke:#A80036;stroke-width:1.0;"/><line style="stroke:#A80036;stroke-width:1.0;" x1="364" x2="530" y1="336.5781" y2="336.5781"/><text fill="#000000" font-family="sans-serif" font-size="13" lengthAdjust="spacingAndGlyphs" textLength="97" x="371" y="331.5122">Config File Name</text><polygon fill="#A80036" points="352,361.7109,362,365.7109,352,369.7109,356,365.7109" style="stroke:#A80036;stroke-width:1.0;"/><line style="stroke:#A80036;stroke-width:1.0;" x1="43.5" x2="358" y1="365.7109" y2="365.7109"/><text fill="#000000" font-family="sans-serif" font-size="13" lengthAdjust="spacingAndGlyphs" textLength="98" x="50.5" y="360.645">Load Parameters</text><polygon fill="#A80036" points="524,390.8438,534,394.8438,524,398.8438,528,394.8438" style="stroke:#A80036;stroke-width:1.0;"/><line style="stroke:#A80036;stroke-width:1.0;" x1="364" x2="530" y1="394.8438" y2="394.8438"/><text fill="#000000" font-family="sans-serif" font-size="13" lengthAdjust="spacingAndGlyphs" textLength="148" x="371" y="389.7778">Get parameters from XML</text><polygon fill="#A80036" points="375,440.1094,365,444.1094,375,448.1094,371,444.1094" style="stroke:#A80036;stroke-width:1.0;"/><line style="stroke:#A80036;stroke-width:1.0;" x1="369" x2="535" y1="444.1094" y2="444.1094"/><text fill="#000000" font-family="sans-serif" font-size="13" lengthAdjust="spacingAndGlyphs" textLength="66" x="381" y="439.0435">Parameters</text><path d="M541,407.8438 L541,462.8438 L751,462.8438 L751,417.8438 L741,407.8438 L541,407.8438 " fill="#FBFB77" filter="url(#f3e8uqb66yfx1)" style="stroke:#A80036;stroke-width:1.0;"/><path d="M741,407.8438 L741,417.8438 L751,417.8438 L741,407.8438 " fill="#FBFB77" style="stroke:#A80036;stroke-width:1.0;"/><text fill="#000000" font-family="sans-serif" font-size="13" lengthAdjust="spacingAndGlyphs" textLength="189" x="547" y="424.9106">width_, height_, epochDuration_,</text><text fill="#000000" font-family="sans-serif" font-size="13" lengthAdjust="spacingAndGlyphs" textLength="172" x="547" y="440.0435">numEpochs_, maxFiringRate_,</text><text fill="#000000" font-family="sans-serif" font-size="13" lengthAdjust="spacingAndGlyphs" textLength="179" x="547" y="455.1763">maxEdgesPerVertex_, RNG, etc.</text><polygon fill="#A80036" points="352,501.9414,362,505.9414,352,509.9414,356,505.9414" style="stroke:#A80036;stroke-width:1.0;"/><line style="stroke:#A80036;stroke-width:1.0;" x1="43.5" x2="358" y1="505.9414" y2="505.9414"/><text fill="#000000" font-family="sans-serif" font-size="13" lengthAdjust="spacingAndGlyphs" textLength="169" x="50.5" y="500.8755">Instantiate Simulator Objects</text><path d="M369,477.2422 L369,517.2422 L529,517.2422 L529,487.2422 L519,477.2422 L369,477.2422 " fill="#FBFB77" filter="url(#f3e8uqb66yfx1)" style="stroke:#A80036;stroke-width:1.0;"/><path d="M519,477.2422 L519,487.2422 L529,487.2422 L519,477.2422 " fill="#FBFB77" style="stroke:#A80036;stroke-width:1.0;"/><text fill="#000000" font-family="sans-serif" font-size="13" lengthAdjust="spacingAndGlyphs" textLength="139" x="375" y="494.3091">Details are in a separate</text><text fill="#000000" font-family="sans-serif" font-size="13" lengthAdjust="spacingAndGlyphs" textLength="111" x="375" y="509.4419">sequence diagram.</text><polygon fill="#A80036" points="671,548.6406,681,552.6406,671,556.6406,675,552.6406" style="stroke:#A80036;stroke-width:1.0;"/><line style="stroke:#A80036;stroke-width:1.0;" x1="43.5" x2="677" y1="552.6406" y2="552.6406"/><text fill="#000000" font-family="sans-serif" font-size="13" lengthAdjust="spacingAndGlyphs" textLength="150" x="50.5" y="547.5747">Register Graph Properties</text><path d="M688,531.5078 L688,556.5078 L986,556.5078 L986,541.5078 L976,531.5078 L688,531.5078 " fill="#FBFB77" filter="url(#f3e8uqb66yfx1)" style="stroke:#A80036;stroke-width:1.0;"/><path d="M976,531.5078 L976,541.5078 L986,541.5078 L976,531.5078 " fill="#FBFB77" style="stroke:#A80036;stroke-width:1.0;"/><text fill="#000000" font-family="sans-serif" font-size="13" lengthAdjust="spacingAndGlyphs" textLength="277" x="694" y="548.5747">Ask all objects to register their Graph properties</text><polygon fill="#A80036" points="804,582.7734,814,586.7734,804,590.7734,808,586.7734" style="stroke:#A80036;stroke-width:1.0;"/><line style="stroke:#A80036;stroke-width:1.0;" x1="43.5" x2="810" y1="586.7734" y2="586.7734"/><text fill="#000000" font-family="sans-serif" font-size="13" lengthAdjust="spacingAndGlyphs" textLength="70" x="50.5" y="581.7075">Read Graph</text><polygon fill="#A80036" points="671,639.6055,681,643.6055,671,647.6055,675,643.6055" style="stroke:#A80036;stroke-width:1.0;"/><line style="stroke:#A80036;stroke-width:1.0;" x1="43.5" x2="677" y1="643.6055" y2="643.6055"/><text fill="#000000" font-family="sans-serif" font-size="13" lengthAdjust="spacingAndGlyphs" textLength="98" x="50.5" y="638.5396">Load Parameters</text><path d="M688,599.7734 L688,669.7734 L919,669.7734 L919,609.7734 L909,599.7734 L688,599.7734 " fill="#FBFB77" filter="url(#f3e8uqb66yfx1)" style="stroke:#A80036;stroke-width:1.0;"/><path d="M909,599.7734 L909,609.7734 L919,609.7734 L909,599.7734 " fill="#FBFB77" style="stroke:#A80036;stroke-width:1.0;"/><text fill="#000000" font-family="sans-serif" font-size="13" lengthAdjust="spacingAndGlyphs" textLength="194" x="694" y="616.8403">Runs loadParameters method for</text><text fill="#000000" font-family="sans-serif" font-size="13" lengthAdjust="spacingAndGlyphs" textLength="142" x="694" y="631.9731">each instantiated object.</text><text fill="#000000" font-family="sans-serif" font-size="13" lengthAdjust="spacingAndGlyphs" textLength="151" x="694" y="647.106">Methods are registered to</text><text fill="#000000" font-family="sans-serif" font-size="13" lengthAdjust="spacingAndGlyphs" textLength="210" x="694" y="662.2388">OperationManager on instantiation.</text><polygon fill="#A80036" points="352,709.0039,362,713.0039,352,717.0039,356,713.0039" style="stroke:#A80036;stroke-width:1.0;"/><line style="stroke:#A80036;stroke-width:1.0;" x1="43.5" x2="358" y1="713.0039" y2="713.0039"/><text fill="#000000" font-family="sans-serif" font-size="13" lengthAdjust="spacingAndGlyphs" textLength="34" x="50.5" y="707.938">Setup</text><path d="M369,684.3047 L369,724.3047 L529,724.3047 L529,694.3047 L519,684.3047 L369,684.3047 " fill="#FBFB77" filter="url(#f3e8uqb66yfx1)" style="stroke:#A80036;stroke-width:1.0;"/><path d="M519,684.3047 L519,694.3047 L529,694.3047 L519,684.3047 " fill="#FBFB77" style="stroke:#A80036;stroke-width:1.0;"/><text fill="#000000" font-family="sans-serif" font-size="13" lengthAdjust="spacingAndGlyphs" textLength="139" x="375" y="701.3716">Details are in a separate</text><text fill="#000000" font-family="sans-serif" font-size="13" lengthAdjust="spacingAndGlyphs" textLength="111" x="375" y="716.5044">sequence diagram.</text><path d="M10,740.5703 L77,740.5703 L77,747.5703 L67,757.5703 L10,757.5703 L10,740.5703 " fill="#EEEEEE" style="stroke:#000000;stroke-width:1.0;"/><rect fill="none" height="46.2656" style="stroke:#000000;stroke-width:2.0;" width="958" x="10" y="740.5703"/><text fill="#000000" font-family="sans-serif" font-size="13" font-weight="bold" lengthAdjust="spacingAndGlyphs" textLength="22" x="25" y="753.6372">opt</text><text fill="#000000" font-family="sans-serif" font-size="11" font-weight="bold" lengthAdjust="spacingAndGlyphs" textLength="170" x="92" y="752.7808">[if serialized file name available]</text><polygon fill="#A80036" points="907.5,774.8359,917.5,778.8359,907.5,782.8359,911.5,778.8359" style="stroke:#A80036;stroke-width:1.0;"/><line style="stroke:#A80036;stroke-width:1.0;" x1="43.5" x2="913.5" y1="778.8359" y2="778.8359"/><text fill="#000000" font-family="sans-serif" font-size="13" lengthAdjust="spacingAndGlyphs" textLength="83" x="50.5" y="773.77">Deserialize file</text><polygon fill="#A80036" points="352,823.5352,362,827.5352,352,831.5352,356,827.5352" style="stroke:#A80036;stroke-width:1.0;"/><line style="stroke:#A80036;stroke-width:1.0;" x1="43.5" x2="358" y1="827.5352" y2="827.5352"/><text fill="#000000" font-family="sans-serif" font-size="13" lengthAdjust="spacingAndGlyphs" textLength="50" x="50.5" y="822.4692">Simulate</text><path d="M369,798.8359 L369,838.8359 L529,838.8359 L529,808.8359 L519,798.8359 L369,798.8359 " fill="#FBFB77" filter="url(#f3e8uqb66yfx1)" style="stroke:#A80036;stroke-width:1.0;"/><path d="M519,798.8359 L519,808.8359 L529,808.8359 L519,798.8359 " fill="#FBFB77" style="stroke:#A80036;stroke-width:1.0;"/><text fill="#000000" font-family="sans-serif" font-size="13" lengthAdjust="spacingAndGlyphs" textLength="139" x="375" y="815.9028">Details are in a separate</text><text fill="#000000" font-family="sans-serif" font-size="13" lengthAdjust="spacingAndGlyphs" textLength="111" x="375" y="831.0356">sequence diagram.</text><path d="M10,855.1016 L77,855.1016 L77,862.1016 L67,872.1016 L10,872.1016 L10,855.1016 " fill="#EEEEEE" style="stroke:#000000;stroke-width:1.0;"/><rect fill="none" height="46.2656" style="stroke:#000000;stroke-width:2.0;" width="958" x="10" y="855.1016"/><text fill="#000000" font-family="sans-serif" font-size="13" font-weight="bold" lengthAdjust="spacingAndGlyphs" textLength="22" x="25" y="868.1685">opt</text><text fill="#000000" font-family="sans-serif" font-size="11" font-weight="bold" lengthAdjust="spacingAndGlyphs" textLength="147" x="92" y="867.312">[if serializtion file available]</text><polygon fill="#A80036" points="907.5,889.3672,917.5,893.3672,907.5,897.3672,911.5,893.3672" style="stroke:#A80036;stroke-width:1.0;"/><line style="stroke:#A80036;stroke-width:1.0;" x1="43.5" x2="913.5" y1="893.3672" y2="893.3672"/><text fill="#000000" font-family="sans-serif" font-size="13" lengthAdjust="spacingAndGlyphs" textLength="106" x="50.5" y="888.3013">Serialize Synapses</text><polygon fill="#A80036" points="352,925.5,362,929.5,352,933.5,356,929.5" style="stroke:#A80036;stroke-width:1.0;"/><line style="stroke:#A80036;stroke-width:1.0;" x1="43.5" x2="358" y1="929.5" y2="929.5"/><text fill="#000000" font-family="sans-serif" font-size="13" lengthAdjust="spacingAndGlyphs" textLength="34" x="50.5" y="924.4341">Finish</text><polygon fill="#A80036" points="985,954.6328,995,958.6328,985,962.6328,989,958.6328" style="stroke:#A80036;stroke-width:1.0;"/><line style="stroke:#A80036;stroke-width:1.0;" x1="364" x2="991" y1="958.6328" y2="958.6328"/><text fill="#000000" font-family="sans-serif" font-size="13" lengthAdjust="spacingAndGlyphs" textLength="153" x="371" y="953.5669">Clean up model resources</text><polygon fill="#A80036" points="1061.5,983.7656,1071.5,987.7656,1061.5,991.7656,1065.5,987.7656" style="stroke:#A80036;stroke-width:1.0;"/><line style="stroke:#A80036;stroke-width:1.0;" x1="43.5" x2="1067.5" y1="987.7656" y2="987.7656"/><text fill="#000000" font-family="sans-serif" font-size="13" lengthAdjust="spacingAndGlyphs" textLength="122" x="50.5" y="982.6997">Terminate Recording</text><line style="stroke:#A80036;stroke-width:1.0;" x1="43.5" x2="85.5" y1="1016.8984" y2="1016.8984"/><line style="stroke:#A80036;stroke-width:1.0;" x1="85.5" x2="85.5" y1="1016.8984" y2="1029.8984"/><line style="stroke:#A80036;stroke-width:1.0;" x1="44.5" x2="85.5" y1="1029.8984" y2="1029.8984"/><polygon fill="#A80036" points="54.5,1025.8984,44.5,1029.8984,54.5,1033.8984,50.5,1029.8984" style="stroke:#A80036;stroke-width:1.0;"/><text fill="#000000" font-family="sans-serif" font-size="13" lengthAdjust="spacingAndGlyphs" textLength="75" x="50.5" y="1011.8325">Exit program</text><!--MD5=[4e95b112c754d7a3250792b5b0ba3a91]
@startuml topLevelFlow

title Graphitti General Program Flow

Core -> ParamContainer **: Parse Command Line
activate ParamContainer
note right
    Config File
    Deserialize File
    Serealize File
    Stimulus File
end note

Core -> Simulator: Set File Names
Simulator -> ParamContainer: Get File Names
ParamContainer -> Simulator: File Names
deactivate ParamContainer

Core -> ParameterManager: Load Parameter File
ParameterManager -> Simulator: Get Config File Name
Simulator -> ParameterManager: Config File Name
Core -> Simulator: Load Parameters
Simulator -> ParameterManager: Get parameters from XML
ParameterManager -> Simulator: Parameters
note right
    width_, height_, epochDuration_,
    numEpochs_, maxFiringRate_,
    maxEdgesPerVertex_, RNG, etc.
end note

Core -> Simulator: Instantiate Simulator Objects
note right
    Details are in a separate
    sequence diagram.
end note

Core -> OperationManager: Register Graph Properties
note right
    Ask all objects to register their Graph properties
end note

Core -> GraphManager: Read Graph

' Expand in a separate diagram
Core -> OperationManager: Load Parameters
note right
    Runs loadParameters method for
    each instantiated object.
    Methods are registered to
    OperationManager on instantiation.
end note

Core -> Simulator: Setup
note right
    Details are in a separate
    sequence diagram.
end note


opt if serialized file name available
    Core -> Serializer: Deserialize file
end

Core -> Simulator: Simulate
note right
    Details are in a separate
    sequence diagram.
end note

opt if serializtion file available
    Core -> Serializer: Serialize Synapses
end

Core -> Simulator: Finish
Simulator -> Model: Clean up model resources
Core -> Recorder: Terminate Recording
Core -> Core: Exit program

@enduml

@startuml topLevelFlow

title Graphitti General Program Flow

Core -> ParamContainer **: Parse Command Line
activate ParamContainer
note right
    Config File
    Deserialize File
    Serealize File
    Stimulus File
end note

Core -> Simulator: Set File Names
Simulator -> ParamContainer: Get File Names
ParamContainer -> Simulator: File Names
deactivate ParamContainer

Core -> ParameterManager: Load Parameter File
ParameterManager -> Simulator: Get Config File Name
Simulator -> ParameterManager: Config File Name
Core -> Simulator: Load Parameters
Simulator -> ParameterManager: Get parameters from XML
ParameterManager -> Simulator: Parameters
note right
    width_, height_, epochDuration_,
    numEpochs_, maxFiringRate_,
    maxEdgesPerVertex_, RNG, etc.
end note

Core -> Simulator: Instantiate Simulator Objects
note right
    Details are in a separate
    sequence diagram.
end note

Core -> OperationManager: Register Graph Properties
note right
    Ask all objects to register their Graph properties
end note

Core -> GraphManager: Read Graph

Core -> OperationManager: Load Parameters
note right
    Runs loadParameters method for
    each instantiated object.
    Methods are registered to
    OperationManager on instantiation.
end note

Core -> Simulator: Setup
note right
    Details are in a separate
    sequence diagram.
end note


opt if serialized file name available
    Core -> Serializer: Deserialize file
end

Core -> Simulator: Simulate
note right
    Details are in a separate
    sequence diagram.
end note

opt if serializtion file available
    Core -> Serializer: Serialize Synapses
end

Core -> Simulator: Finish
Simulator -> Model: Clean up model resources
Core -> Recorder: Terminate Recording
Core -> Core: Exit program

@enduml

PlantUML version 1.2020.23(Sun Dec 13 19:14:58 GMT 2020)
(GPL source distribution)
Java Runtime: OpenJDK Runtime Environment
JVM: OpenJDK 64-Bit Server VM
Default Encoding: UTF-8
Language: en
Country: US
--></g></svg>