<?xml version="1.0" encoding="UTF-8" standalone="no"?><svg xmlns="http://www.w3.org/2000/svg" xmlns:xlink="http://www.w3.org/1999/xlink" contentScriptType="application/ecmascript" contentStyleType="text/css" height="662px" preserveAspectRatio="none" style="width:1119px;height:662px;" version="1.1" viewBox="0 0 1119 662" width="1119px" zoomAndPan="magnify"><defs><filter height="300%" id="ff9kp0hnti6fj" width="300%" x="-1" y="-1"><feGaussianBlur result="blurOut" stdDeviation="2.0"/><feColorMatrix in="blurOut" result="blurOut2" type="matrix" values="0 0 0 0 0 0 0 0 0 0 0 0 0 0 0 0 0 0 .4 0"/><feOffset dx="4.0" dy="4.0" in="blurOut2" result="blurOut3"/><feBlend in="SourceGraphic" in2="blurOut3" mode="normal"/></filter></defs><g><text fill="#000000" font-family="sans-serif" font-size="18" lengthAdjust="spacingAndGlyphs" textLength="266" x="427.5" y="26.708">Simulation Sequence Diagram</text><rect fill="#FFFFFF" filter="url(#ff9kp0hnti6fj)" height="383.7266" style="stroke: #000000; stroke-width: 2.0;" width="785" x="13" y="90.25"/><rect fill="#FFFFFF" filter="url(#ff9kp0hnti6fj)" height="162.7969" style="stroke: #000000; stroke-width: 2.0;" width="683" x="23" y="156.5156"/><rect fill="#FFFFFF" filter="url(#ff9kp0hnti6fj)" height="75.3984" style="stroke: #000000; stroke-width: 2.0;" width="450.5" x="146" y="362.4453"/><rect fill="#FFFFFF" filter="url(#ff9kp0hnti6fj)" height="59.2656" style="stroke: #000000; stroke-width: 2.0;" width="320" x="788" y="546.2422"/><line style="stroke: #A80036; stroke-width: 1.0; stroke-dasharray: 5.0,5.0;" x1="74" x2="74" y1="73.25" y2="622.5078"/><line style="stroke: #A80036; stroke-width: 1.0; stroke-dasharray: 5.0,5.0;" x1="186" x2="186" y1="73.25" y2="622.5078"/><line style="stroke: #A80036; stroke-width: 1.0; stroke-dasharray: 5.0,5.0;" x1="288.5" x2="288.5" y1="73.25" y2="622.5078"/><line style="stroke: #A80036; stroke-width: 1.0; stroke-dasharray: 5.0,5.0;" x1="423.5" x2="423.5" y1="73.25" y2="622.5078"/><line style="stroke: #A80036; stroke-width: 1.0; stroke-dasharray: 5.0,5.0;" x1="533.5" x2="533.5" y1="73.25" y2="622.5078"/><line style="stroke: #A80036; stroke-width: 1.0; stroke-dasharray: 5.0,5.0;" x1="655" x2="655" y1="73.25" y2="622.5078"/><line style="stroke: #A80036; stroke-width: 1.0; stroke-dasharray: 5.0,5.0;" x1="747" x2="747" y1="73.25" y2="622.5078"/><line style="stroke: #A80036; stroke-width: 1.0; stroke-dasharray: 5.0,5.0;" x1="827" x2="827" y1="73.25" y2="622.5078"/><rect fill="#FEFECE" filter="url(#ff9kp0hnti6fj)" height="30.2969" style="stroke: #A80036; stroke-width: 1.5;" width="78" x="33" y="37.9531"/><text fill="#000000" font-family="sans-serif" font-size="14" lengthAdjust="spacingAndGlyphs" textLength="64" x="40" y="57.9482">Simulator</text><rect fill="#FEFECE" filter="url(#ff9kp0hnti6fj)" height="30.2969" style="stroke: #A80036; stroke-width: 1.5;" width="78" x="33" y="621.5078"/><text fill="#000000" font-family="sans-serif" font-size="14" lengthAdjust="spacingAndGlyphs" textLength="64" x="40" y="641.5029">Simulator</text><rect fill="#FEFECE" filter="url(#ff9kp0hnti6fj)" height="30.2969" style="stroke: #A80036; stroke-width: 1.5;" width="56" x="156" y="37.9531"/><text fill="#000000" font-family="sans-serif" font-size="14" lengthAdjust="spacingAndGlyphs" textLength="42" x="163" y="57.9482">Model</text><rect fill="#FEFECE" filter="url(#ff9kp0hnti6fj)" height="30.2969" style="stroke: #A80036; stroke-width: 1.5;" width="56" x="156" y="621.5078"/><text fill="#000000" font-family="sans-serif" font-size="14" lengthAdjust="spacingAndGlyphs" textLength="42" x="163" y="641.5029">Model</text><rect fill="#FEFECE" filter="url(#ff9kp0hnti6fj)" height="30.2969" style="stroke: #A80036; stroke-width: 1.5;" width="59" x="257.5" y="37.9531"/><text fill="#000000" font-family="sans-serif" font-size="14" lengthAdjust="spacingAndGlyphs" textLength="45" x="264.5" y="57.9482">Layout</text><rect fill="#FEFECE" filter="url(#ff9kp0hnti6fj)" height="30.2969" style="stroke: #A80036; stroke-width: 1.5;" width="59" x="257.5" y="621.5078"/><text fill="#000000" font-family="sans-serif" font-size="14" lengthAdjust="spacingAndGlyphs" textLength="45" x="264.5" y="641.5029">Layout</text><rect fill="#FEFECE" filter="url(#ff9kp0hnti6fj)" height="30.2969" style="stroke: #A80036; stroke-width: 1.5;" width="89" x="377.5" y="37.9531"/><text fill="#000000" font-family="sans-serif" font-size="14" lengthAdjust="spacingAndGlyphs" textLength="75" x="384.5" y="57.9482">All Vertices</text><rect fill="#FEFECE" filter="url(#ff9kp0hnti6fj)" height="30.2969" style="stroke: #A80036; stroke-width: 1.5;" width="89" x="377.5" y="621.5078"/><text fill="#000000" font-family="sans-serif" font-size="14" lengthAdjust="spacingAndGlyphs" textLength="75" x="384.5" y="641.5029">All Vertices</text><rect fill="#FEFECE" filter="url(#ff9kp0hnti6fj)" height="30.2969" style="stroke: #A80036; stroke-width: 1.5;" width="102" x="480.5" y="37.9531"/><text fill="#000000" font-family="sans-serif" font-size="14" lengthAdjust="spacingAndGlyphs" textLength="88" x="487.5" y="57.9482">Connections</text><rect fill="#FEFECE" filter="url(#ff9kp0hnti6fj)" height="30.2969" style="stroke: #A80036; stroke-width: 1.5;" width="102" x="480.5" y="621.5078"/><text fill="#000000" font-family="sans-serif" font-size="14" lengthAdjust="spacingAndGlyphs" textLength="88" x="487.5" y="641.5029">Connections</text><rect fill="#FEFECE" filter="url(#ff9kp0hnti6fj)" height="30.2969" style="stroke: #A80036; stroke-width: 1.5;" width="77" x="615" y="37.9531"/><text fill="#000000" font-family="sans-serif" font-size="14" lengthAdjust="spacingAndGlyphs" textLength="63" x="622" y="57.9482">All Edges</text><rect fill="#FEFECE" filter="url(#ff9kp0hnti6fj)" height="30.2969" style="stroke: #A80036; stroke-width: 1.5;" width="77" x="615" y="621.5078"/><text fill="#000000" font-family="sans-serif" font-size="14" lengthAdjust="spacingAndGlyphs" textLength="63" x="622" y="641.5029">All Edges</text><rect fill="#FEFECE" filter="url(#ff9kp0hnti6fj)" height="30.2969" style="stroke: #A80036; stroke-width: 1.5;" width="78" x="706" y="37.9531"/><text fill="#000000" font-family="sans-serif" font-size="14" lengthAdjust="spacingAndGlyphs" textLength="64" x="713" y="57.9482">Recorder</text><rect fill="#FEFECE" filter="url(#ff9kp0hnti6fj)" height="30.2969" style="stroke: #A80036; stroke-width: 1.5;" width="78" x="706" y="621.5078"/><text fill="#000000" font-family="sans-serif" font-size="14" lengthAdjust="spacingAndGlyphs" textLength="64" x="713" y="641.5029">Recorder</text><rect fill="#FEFECE" filter="url(#ff9kp0hnti6fj)" height="30.2969" style="stroke: #A80036; stroke-width: 1.5;" width="54" x="798" y="37.9531"/><text fill="#000000" font-family="sans-serif" font-size="14" lengthAdjust="spacingAndGlyphs" textLength="40" x="805" y="57.9482">Driver</text><rect fill="#FEFECE" filter="url(#ff9kp0hnti6fj)" height="30.2969" style="stroke: #A80036; stroke-width: 1.5;" width="54" x="798" y="621.5078"/><text fill="#000000" font-family="sans-serif" font-size="14" lengthAdjust="spacingAndGlyphs" textLength="40" x="805" y="641.5029">Driver</text><path d="M13,90.25 L90,90.25 L90,97.25 L80,107.25 L13,107.25 L13,90.25 " fill="#EEEEEE" style="stroke: #000000; stroke-width: 1.0;"/><rect fill="none" height="383.7266" style="stroke: #000000; stroke-width: 2.0;" width="785" x="13" y="90.25"/><text fill="#000000" font-family="sans-serif" font-size="13" font-weight="bold" lengthAdjust="spacingAndGlyphs" textLength="32" x="28" y="103.3169">loop</text><text fill="#000000" font-family="sans-serif" font-size="11" font-weight="bold" lengthAdjust="spacingAndGlyphs" textLength="172" x="105" y="102.4604">[for i=0 to currentEpoch-1]</text><line style="stroke: #A80036; stroke-width: 1.0;" x1="74" x2="116" y1="128.5156" y2="128.5156"/><line style="stroke: #A80036; stroke-width: 1.0;" x1="116" x2="116" y1="128.5156" y2="141.5156"/><line style="stroke: #A80036; stroke-width: 1.0;" x1="75" x2="116" y1="141.5156" y2="141.5156"/><polygon fill="#A80036" points="85,137.5156,75,141.5156,85,145.5156,81,141.5156" style="stroke: #A80036; stroke-width: 1.0;"/><text fill="#000000" font-family="sans-serif" font-size="13" lengthAdjust="spacingAndGlyphs" textLength="98" x="81" y="123.4497">Advance Epoch</text><path d="M23,156.5156 L100,156.5156 L100,163.5156 L90,173.5156 L23,173.5156 L23,156.5156 " fill="#EEEEEE" style="stroke: #000000; stroke-width: 1.0;"/><rect fill="none" height="162.7969" style="stroke: #000000; stroke-width: 2.0;" width="683" x="23" y="156.5156"/><text fill="#000000" font-family="sans-serif" font-size="13" font-weight="bold" lengthAdjust="spacingAndGlyphs" textLength="32" x="38" y="169.5825">loop</text><text fill="#000000" font-family="sans-serif" font-size="11" font-weight="bold" lengthAdjust="spacingAndGlyphs" textLength="181" x="115" y="168.7261">[for i=0 to epochDuration-1]</text><polygon fill="#A80036" points="174,190.7813,184,194.7813,174,198.7813,178,194.7813" style="stroke: #A80036; stroke-width: 1.0;"/><line style="stroke: #A80036; stroke-width: 1.0;" x1="74" x2="180" y1="194.7813" y2="194.7813"/><text fill="#000000" font-family="sans-serif" font-size="13" lengthAdjust="spacingAndGlyphs" textLength="55" x="81" y="189.7153">Advance</text><polygon fill="#A80036" points="277,219.9141,287,223.9141,277,227.9141,281,223.9141" style="stroke: #A80036; stroke-width: 1.0;"/><line style="stroke: #A80036; stroke-width: 1.0;" x1="186" x2="283" y1="223.9141" y2="223.9141"/><text fill="#000000" font-family="sans-serif" font-size="13" lengthAdjust="spacingAndGlyphs" textLength="79" x="193" y="218.8481">Get Vertices</text><polygon fill="#A80036" points="412,249.0469,422,253.0469,412,257.0469,416,253.0469" style="stroke: #A80036; stroke-width: 1.0;"/><line style="stroke: #A80036; stroke-width: 1.0;" x1="289" x2="418" y1="253.0469" y2="253.0469"/><text fill="#000000" font-family="sans-serif" font-size="13" lengthAdjust="spacingAndGlyphs" textLength="111" x="296" y="247.981">Advance Vertices</text><polygon fill="#A80036" points="521.5,278.1797,531.5,282.1797,521.5,286.1797,525.5,282.1797" style="stroke: #A80036; stroke-width: 1.0;"/><line style="stroke: #A80036; stroke-width: 1.0;" x1="186" x2="527.5" y1="282.1797" y2="282.1797"/><text fill="#000000" font-family="sans-serif" font-size="13" lengthAdjust="spacingAndGlyphs" textLength="66" x="193" y="277.1138">Get Edges</text><polygon fill="#A80036" points="643.5,307.3125,653.5,311.3125,643.5,315.3125,647.5,311.3125" style="stroke: #A80036; stroke-width: 1.0;"/><line style="stroke: #A80036; stroke-width: 1.0;" x1="533.5" x2="649.5" y1="311.3125" y2="311.3125"/><text fill="#000000" font-family="sans-serif" font-size="13" lengthAdjust="spacingAndGlyphs" textLength="98" x="540.5" y="306.2466">Advance Edges</text><polygon fill="#A80036" points="521.5,343.4453,531.5,347.4453,521.5,351.4453,525.5,347.4453" style="stroke: #A80036; stroke-width: 1.0;"/><line style="stroke: #A80036; stroke-width: 1.0;" x1="186" x2="527.5" y1="347.4453" y2="347.4453"/><text fill="#000000" font-family="sans-serif" font-size="13" lengthAdjust="spacingAndGlyphs" textLength="130" x="193" y="342.3794">Update Connections</text><path d="M146,362.4453 L216,362.4453 L216,369.4453 L206,379.4453 L146,379.4453 L146,362.4453 " fill="#EEEEEE" style="stroke: #000000; stroke-width: 1.0;"/><rect fill="none" height="75.3984" style="stroke: #000000; stroke-width: 2.0;" width="450.5" x="146" y="362.4453"/><text fill="#000000" font-family="sans-serif" font-size="13" font-weight="bold" lengthAdjust="spacingAndGlyphs" textLength="25" x="161" y="375.5122">opt</text><text fill="#000000" font-family="sans-serif" font-size="11" font-weight="bold" lengthAdjust="spacingAndGlyphs" textLength="228" x="231" y="374.6558">[if updateConnections returns true]</text><polygon fill="#A80036" points="521.5,396.7109,531.5,400.7109,521.5,404.7109,525.5,400.7109" style="stroke: #A80036; stroke-width: 1.0;"/><line style="stroke: #A80036; stroke-width: 1.0;" x1="186" x2="527.5" y1="400.7109" y2="400.7109"/><text fill="#000000" font-family="sans-serif" font-size="13" lengthAdjust="spacingAndGlyphs" textLength="167" x="193" y="395.645">Update Synapses Weights</text><polygon fill="#A80036" points="521.5,425.8438,531.5,429.8438,521.5,433.8438,525.5,429.8438" style="stroke: #A80036; stroke-width: 1.0;"/><line style="stroke: #A80036; stroke-width: 1.0;" x1="186" x2="527.5" y1="429.8438" y2="429.8438"/><text fill="#000000" font-family="sans-serif" font-size="13" lengthAdjust="spacingAndGlyphs" textLength="148" x="193" y="424.7778">Create Edge Index Map</text><polygon fill="#A80036" points="735,461.9766,745,465.9766,735,469.9766,739,465.9766" style="stroke: #A80036; stroke-width: 1.0;"/><line style="stroke: #A80036; stroke-width: 1.0;" x1="186" x2="741" y1="465.9766" y2="465.9766"/><text fill="#000000" font-family="sans-serif" font-size="13" lengthAdjust="spacingAndGlyphs" textLength="162" x="193" y="460.9106">Update (Compile) History</text><polygon fill="#A80036" points="174,498.1094,184,502.1094,174,506.1094,178,502.1094" style="stroke: #A80036; stroke-width: 1.0;"/><line style="stroke: #A80036; stroke-width: 1.0;" x1="74" x2="180" y1="502.1094" y2="502.1094"/><text fill="#000000" font-family="sans-serif" font-size="13" lengthAdjust="spacingAndGlyphs" textLength="82" x="81" y="497.0435">Save Results</text><polygon fill="#A80036" points="735,527.2422,745,531.2422,735,535.2422,739,531.2422" style="stroke: #A80036; stroke-width: 1.0;"/><line style="stroke: #A80036; stroke-width: 1.0;" x1="186" x2="741" y1="531.2422" y2="531.2422"/><text fill="#000000" font-family="sans-serif" font-size="13" lengthAdjust="spacingAndGlyphs" textLength="139" x="193" y="526.1763">Save Simulation Data</text><path d="M788,546.2422 L858,546.2422 L858,553.2422 L848,563.2422 L788,563.2422 L788,546.2422 " fill="#EEEEEE" style="stroke: #000000; stroke-width: 1.0;"/><rect fill="none" height="59.2656" style="stroke: #000000; stroke-width: 2.0;" width="320" x="788" y="546.2422"/><text fill="#000000" font-family="sans-serif" font-size="13" font-weight="bold" lengthAdjust="spacingAndGlyphs" textLength="25" x="803" y="559.3091">opt</text><text fill="#000000" font-family="sans-serif" font-size="11" font-weight="bold" lengthAdjust="spacingAndGlyphs" textLength="230" x="873" y="558.4526">[if serialization file name available]</text><line style="stroke: #A80036; stroke-width: 1.0;" x1="827" x2="869" y1="584.5078" y2="584.5078"/><line style="stroke: #A80036; stroke-width: 1.0;" x1="869" x2="869" y1="584.5078" y2="597.5078"/><line style="stroke: #A80036; stroke-width: 1.0;" x1="828" x2="869" y1="597.5078" y2="597.5078"/><polygon fill="#A80036" points="838,593.5078,828,597.5078,838,601.5078,834,597.5078" style="stroke: #A80036; stroke-width: 1.0;"/><text fill="#000000" font-family="sans-serif" font-size="13" lengthAdjust="spacingAndGlyphs" textLength="120" x="834" y="579.4419">Serialize Synapses</text><!--MD5=[912e4384072cb35cb8dfd7d74625c9dd]
@startuml simulatorSimulate

title Simulation Sequence Diagram

loop for i=0 to currentEpoch-1
    Simulator -> Simulator: Advance Epoch
    loop for i=0 to epochDuration-1
        Simulator -> Model: Advance
        Model -> Layout: Get Vertices 
        Layout -> "All Vertices": Advance Vertices
        Model -> Connections: Get Edges
        Connections -> "All Edges": Advance Edges
    end
    Model -> Connections: Update Connections
    opt if updateConnections returns true
        Model -> Connections: Update Synapses Weights
        Model -> Connections: Create Edge Index Map
    end
    Model->Recorder: Update (Compile) History
end

Simulator -> Model: Save Results
Model -> Recorder: Save Simulation Data
opt if serialization file name available 
    Driver -> Driver: Serialize Synapses
end

@enduml

PlantUML version 1.2020.02(Sun Mar 01 10:22:07 GMT 2020)
(GPL source distribution)
Java Runtime: OpenJDK Runtime Environment
JVM: OpenJDK 64-Bit Server VM
Java Version: 11.0.9+11-Ubuntu-0ubuntu1
Operating System: Linux
Default Encoding: ANSI_X3.4-1968
Language: en
Country: US
--></g></svg>