<?xml version="1.0" encoding="UTF-8" standalone="no"?><svg xmlns="http://www.w3.org/2000/svg" xmlns:xlink="http://www.w3.org/1999/xlink" contentScriptType="application/ecmascript" contentStyleType="text/css" height="1350px" preserveAspectRatio="none" style="width:1240px;height:1350px;" version="1.1" viewBox="0 0 1240 1350" width="1240px" zoomAndPan="magnify"><defs><filter height="300%" id="f28t1y94qsqx5" width="300%" x="-1" y="-1"><feGaussianBlur result="blurOut" stdDeviation="2.0"/><feColorMatrix in="blurOut" result="blurOut2" type="matrix" values="0 0 0 0 0 0 0 0 0 0 0 0 0 0 0 0 0 0 .4 0"/><feOffset dx="4.0" dy="4.0" in="blurOut2" result="blurOut3"/><feBlend in="SourceGraphic" in2="blurOut3" mode="normal"/></filter></defs><g><text fill="#000000" font-family="sans-serif" font-size="18" lengthAdjust="spacingAndGlyphs" textLength="284" x="480.75" y="26.708">Graphitti General Program Flow</text><rect fill="#FFFFFF" filter="url(#f28t1y94qsqx5)" height="132.7969" style="stroke: #A80036; stroke-width: 1.0;" width="10" x="272" y="114.3828"/><rect fill="#FFFFFF" filter="url(#f28t1y94qsqx5)" height="59.2656" style="stroke: #000000; stroke-width: 2.0;" width="303" x="13" y="744.8359"/><rect fill="#FFFFFF" filter="url(#f28t1y94qsqx5)" height="59.2656" style="stroke: #000000; stroke-width: 2.0;" width="273" x="13" y="1104.4297"/><line style="stroke: #A80036; stroke-width: 1.0; stroke-dasharray: 5.0,5.0;" x1="52" x2="52" y1="73.25" y2="1310.2266"/><line style="stroke: #A80036; stroke-width: 1.0; stroke-dasharray: 5.0,5.0;" x1="277" x2="277" y1="135.5156" y2="1310.2266"/><line style="stroke: #A80036; stroke-width: 1.0; stroke-dasharray: 5.0,5.0;" x1="404" x2="404" y1="73.25" y2="1310.2266"/><line style="stroke: #A80036; stroke-width: 1.0; stroke-dasharray: 5.0,5.0;" x1="593.5" x2="593.5" y1="73.25" y2="1310.2266"/><line style="stroke: #A80036; stroke-width: 1.0; stroke-dasharray: 5.0,5.0;" x1="751.5" x2="751.5" y1="73.25" y2="1310.2266"/><line style="stroke: #A80036; stroke-width: 1.0; stroke-dasharray: 5.0,5.0;" x1="864.5" x2="864.5" y1="73.25" y2="1310.2266"/><line style="stroke: #A80036; stroke-width: 1.0; stroke-dasharray: 5.0,5.0;" x1="1027.5" x2="1027.5" y1="73.25" y2="1310.2266"/><rect fill="#FEFECE" filter="url(#f28t1y94qsqx5)" height="30.2969" style="stroke: #A80036; stroke-width: 1.5;" width="54" x="23" y="37.9531"/><text fill="#000000" font-family="sans-serif" font-size="14" lengthAdjust="spacingAndGlyphs" textLength="40" x="30" y="57.9482">Driver</text><rect fill="#FEFECE" filter="url(#f28t1y94qsqx5)" height="30.2969" style="stroke: #A80036; stroke-width: 1.5;" width="54" x="23" y="1309.2266"/><text fill="#000000" font-family="sans-serif" font-size="14" lengthAdjust="spacingAndGlyphs" textLength="40" x="30" y="1329.2217">Driver</text><rect fill="#FEFECE" filter="url(#f28t1y94qsqx5)" height="30.2969" style="stroke: #A80036; stroke-width: 1.5;" width="124" x="213" y="1309.2266"/><text fill="#000000" font-family="sans-serif" font-size="14" lengthAdjust="spacingAndGlyphs" textLength="110" x="220" y="1329.2217">ParamContainer</text><rect fill="#FEFECE" filter="url(#f28t1y94qsqx5)" height="30.2969" style="stroke: #A80036; stroke-width: 1.5;" width="78" x="363" y="37.9531"/><text fill="#000000" font-family="sans-serif" font-size="14" lengthAdjust="spacingAndGlyphs" textLength="64" x="370" y="57.9482">Simulator</text><rect fill="#FEFECE" filter="url(#f28t1y94qsqx5)" height="30.2969" style="stroke: #A80036; stroke-width: 1.5;" width="78" x="363" y="1309.2266"/><text fill="#000000" font-family="sans-serif" font-size="14" lengthAdjust="spacingAndGlyphs" textLength="64" x="370" y="1329.2217">Simulator</text><rect fill="#FEFECE" filter="url(#f28t1y94qsqx5)" height="30.2969" style="stroke: #A80036; stroke-width: 1.5;" width="145" x="519.5" y="37.9531"/><text fill="#000000" font-family="sans-serif" font-size="14" lengthAdjust="spacingAndGlyphs" textLength="131" x="526.5" y="57.9482">ParameterManager</text><rect fill="#FEFECE" filter="url(#f28t1y94qsqx5)" height="30.2969" style="stroke: #A80036; stroke-width: 1.5;" width="145" x="519.5" y="1309.2266"/><text fill="#000000" font-family="sans-serif" font-size="14" lengthAdjust="spacingAndGlyphs" textLength="131" x="526.5" y="1329.2217">ParameterManager</text><rect fill="#FEFECE" filter="url(#f28t1y94qsqx5)" height="30.2969" style="stroke: #A80036; stroke-width: 1.5;" width="142" x="678.5" y="37.9531"/><text fill="#000000" font-family="sans-serif" font-size="14" lengthAdjust="spacingAndGlyphs" textLength="128" x="685.5" y="57.9482">OperationManager</text><rect fill="#FEFECE" filter="url(#f28t1y94qsqx5)" height="30.2969" style="stroke: #A80036; stroke-width: 1.5;" width="142" x="678.5" y="1309.2266"/><text fill="#000000" font-family="sans-serif" font-size="14" lengthAdjust="spacingAndGlyphs" textLength="128" x="685.5" y="1329.2217">OperationManager</text><rect fill="#FEFECE" filter="url(#f28t1y94qsqx5)" height="30.2969" style="stroke: #A80036; stroke-width: 1.5;" width="56" x="834.5" y="37.9531"/><text fill="#000000" font-family="sans-serif" font-size="14" lengthAdjust="spacingAndGlyphs" textLength="42" x="841.5" y="57.9482">Model</text><rect fill="#FEFECE" filter="url(#f28t1y94qsqx5)" height="30.2969" style="stroke: #A80036; stroke-width: 1.5;" width="56" x="834.5" y="1309.2266"/><text fill="#000000" font-family="sans-serif" font-size="14" lengthAdjust="spacingAndGlyphs" textLength="42" x="841.5" y="1329.2217">Model</text><rect fill="#FEFECE" filter="url(#f28t1y94qsqx5)" height="30.2969" style="stroke: #A80036; stroke-width: 1.5;" width="78" x="986.5" y="37.9531"/><text fill="#000000" font-family="sans-serif" font-size="14" lengthAdjust="spacingAndGlyphs" textLength="64" x="993.5" y="57.9482">Recorder</text><rect fill="#FEFECE" filter="url(#f28t1y94qsqx5)" height="30.2969" style="stroke: #A80036; stroke-width: 1.5;" width="78" x="986.5" y="1309.2266"/><text fill="#000000" font-family="sans-serif" font-size="14" lengthAdjust="spacingAndGlyphs" textLength="64" x="993.5" y="1329.2217">Recorder</text><rect fill="#FFFFFF" filter="url(#f28t1y94qsqx5)" height="132.7969" style="stroke: #A80036; stroke-width: 1.0;" width="10" x="272" y="114.3828"/><polygon fill="#A80036" points="201,100.3828,211,104.3828,201,108.3828,205,104.3828" style="stroke: #A80036; stroke-width: 1.0;"/><line style="stroke: #A80036; stroke-width: 1.0;" x1="52" x2="207" y1="104.3828" y2="104.3828"/><text fill="#000000" font-family="sans-serif" font-size="13" lengthAdjust="spacingAndGlyphs" textLength="137" x="59" y="99.3169">Parse Command Line</text><rect fill="#FEFECE" filter="url(#f28t1y94qsqx5)" height="30.2969" style="stroke: #A80036; stroke-width: 1.5;" width="124" x="213" y="102.8672"/><text fill="#000000" font-family="sans-serif" font-size="14" lengthAdjust="spacingAndGlyphs" textLength="110" x="220" y="122.8623">ParamContainer</text><path d="M351,88.25 L351,158.25 L467,158.25 L467,98.25 L457,88.25 L351,88.25 " fill="#FBFB77" filter="url(#f28t1y94qsqx5)" style="stroke: #A80036; stroke-width: 1.0;"/><path d="M457,88.25 L457,98.25 L467,98.25 L457,88.25 " fill="#FBFB77" style="stroke: #A80036; stroke-width: 1.0;"/><text fill="#000000" font-family="sans-serif" font-size="13" lengthAdjust="spacingAndGlyphs" textLength="65" x="357" y="105.3169">Config File</text><text fill="#000000" font-family="sans-serif" font-size="13" lengthAdjust="spacingAndGlyphs" textLength="95" x="357" y="120.4497">Deserialize File</text><text fill="#000000" font-family="sans-serif" font-size="13" lengthAdjust="spacingAndGlyphs" textLength="84" x="357" y="135.5825">Serealize File</text><text fill="#000000" font-family="sans-serif" font-size="13" lengthAdjust="spacingAndGlyphs" textLength="81" x="357" y="150.7153">Stimulus File</text><polygon fill="#A80036" points="392,184.9141,402,188.9141,392,192.9141,396,188.9141" style="stroke: #A80036; stroke-width: 1.0;"/><line style="stroke: #A80036; stroke-width: 1.0;" x1="52" x2="398" y1="188.9141" y2="188.9141"/><text fill="#000000" font-family="sans-serif" font-size="13" lengthAdjust="spacingAndGlyphs" textLength="97" x="59" y="183.8481">Set File Names</text><polygon fill="#A80036" points="293,214.0469,283,218.0469,293,222.0469,289,218.0469" style="stroke: #A80036; stroke-width: 1.0;"/><line style="stroke: #A80036; stroke-width: 1.0;" x1="287" x2="403" y1="218.0469" y2="218.0469"/><text fill="#000000" font-family="sans-serif" font-size="13" lengthAdjust="spacingAndGlyphs" textLength="98" x="299" y="212.981">Get File Names</text><polygon fill="#A80036" points="392,243.1797,402,247.1797,392,251.1797,396,247.1797" style="stroke: #A80036; stroke-width: 1.0;"/><line style="stroke: #A80036; stroke-width: 1.0;" x1="277" x2="398" y1="247.1797" y2="247.1797"/><text fill="#000000" font-family="sans-serif" font-size="13" lengthAdjust="spacingAndGlyphs" textLength="71" x="284" y="242.1138">File Names</text><polygon fill="#A80036" points="582,272.3125,592,276.3125,582,280.3125,586,276.3125" style="stroke: #A80036; stroke-width: 1.0;"/><line style="stroke: #A80036; stroke-width: 1.0;" x1="52" x2="588" y1="276.3125" y2="276.3125"/><text fill="#000000" font-family="sans-serif" font-size="13" lengthAdjust="spacingAndGlyphs" textLength="128" x="59" y="271.2466">Load Parameter File</text><polygon fill="#A80036" points="415,301.4453,405,305.4453,415,309.4453,411,305.4453" style="stroke: #A80036; stroke-width: 1.0;"/><line style="stroke: #A80036; stroke-width: 1.0;" x1="409" x2="593" y1="305.4453" y2="305.4453"/><text fill="#000000" font-family="sans-serif" font-size="13" lengthAdjust="spacingAndGlyphs" textLength="135" x="421" y="300.3794">Get Config File Name</text><polygon fill="#A80036" points="582,330.5781,592,334.5781,582,338.5781,586,334.5781" style="stroke: #A80036; stroke-width: 1.0;"/><line style="stroke: #A80036; stroke-width: 1.0;" x1="404" x2="588" y1="334.5781" y2="334.5781"/><text fill="#000000" font-family="sans-serif" font-size="13" lengthAdjust="spacingAndGlyphs" textLength="108" x="411" y="329.5122">Config File Name</text><polygon fill="#A80036" points="392,359.7109,402,363.7109,392,367.7109,396,363.7109" style="stroke: #A80036; stroke-width: 1.0;"/><line style="stroke: #A80036; stroke-width: 1.0;" x1="52" x2="398" y1="363.7109" y2="363.7109"/><text fill="#000000" font-family="sans-serif" font-size="13" lengthAdjust="spacingAndGlyphs" textLength="110" x="59" y="358.645">Load Parameters</text><polygon fill="#A80036" points="582,388.8438,592,392.8438,582,396.8438,586,392.8438" style="stroke: #A80036; stroke-width: 1.0;"/><line style="stroke: #A80036; stroke-width: 1.0;" x1="404" x2="588" y1="392.8438" y2="392.8438"/><text fill="#000000" font-family="sans-serif" font-size="13" lengthAdjust="spacingAndGlyphs" textLength="166" x="411" y="387.7778">Get parameters from XML</text><polygon fill="#A80036" points="415,438.1094,405,442.1094,415,446.1094,411,442.1094" style="stroke: #A80036; stroke-width: 1.0;"/><line style="stroke: #A80036; stroke-width: 1.0;" x1="409" x2="593" y1="442.1094" y2="442.1094"/><text fill="#000000" font-family="sans-serif" font-size="13" lengthAdjust="spacingAndGlyphs" textLength="75" x="421" y="437.0435">Parameters</text><path d="M599,405.8438 L599,460.8438 L828,460.8438 L828,415.8438 L818,405.8438 L599,405.8438 " fill="#FBFB77" filter="url(#f28t1y94qsqx5)" style="stroke: #A80036; stroke-width: 1.0;"/><path d="M818,405.8438 L818,415.8438 L828,415.8438 L818,405.8438 " fill="#FBFB77" style="stroke: #A80036; stroke-width: 1.0;"/><text fill="#000000" font-family="sans-serif" font-size="13" lengthAdjust="spacingAndGlyphs" textLength="208" x="605" y="422.9106">width_, height_, epochDuration_,</text><text fill="#000000" font-family="sans-serif" font-size="13" lengthAdjust="spacingAndGlyphs" textLength="192" x="605" y="438.0435">numEpochs_, maxFiringRate_,</text><text fill="#000000" font-family="sans-serif" font-size="13" lengthAdjust="spacingAndGlyphs" textLength="205" x="605" y="453.1763">maxEdgesPerVertex_, RNG, etc.</text><polygon fill="#A80036" points="392,499.9414,402,503.9414,392,507.9414,396,503.9414" style="stroke: #A80036; stroke-width: 1.0;"/><line style="stroke: #A80036; stroke-width: 1.0;" x1="52" x2="398" y1="503.9414" y2="503.9414"/><text fill="#000000" font-family="sans-serif" font-size="13" lengthAdjust="spacingAndGlyphs" textLength="186" x="59" y="498.8755">Instantiate Simulator Objects</text><path d="M409,475.2422 L409,515.2422 L587,515.2422 L587,485.2422 L577,475.2422 L409,475.2422 " fill="#FBFB77" filter="url(#f28t1y94qsqx5)" style="stroke: #A80036; stroke-width: 1.0;"/><path d="M577,475.2422 L577,485.2422 L587,485.2422 L577,475.2422 " fill="#FBFB77" style="stroke: #A80036; stroke-width: 1.0;"/><text fill="#000000" font-family="sans-serif" font-size="13" lengthAdjust="spacingAndGlyphs" textLength="157" x="415" y="492.3091">Details are in a separate</text><text fill="#000000" font-family="sans-serif" font-size="13" lengthAdjust="spacingAndGlyphs" textLength="123" x="415" y="507.4419">sequence diagram.</text><polygon fill="#A80036" points="739.5,569.3398,749.5,573.3398,739.5,577.3398,743.5,573.3398" style="stroke: #A80036; stroke-width: 1.0;"/><line style="stroke: #A80036; stroke-width: 1.0;" x1="52" x2="745.5" y1="573.3398" y2="573.3398"/><text fill="#000000" font-family="sans-serif" font-size="13" lengthAdjust="spacingAndGlyphs" textLength="110" x="59" y="568.2739">Load Parameters</text><path d="M756,529.5078 L756,599.5078 L1003,599.5078 L1003,539.5078 L993,529.5078 L756,529.5078 " fill="#FBFB77" filter="url(#f28t1y94qsqx5)" style="stroke: #A80036; stroke-width: 1.0;"/><path d="M993,529.5078 L993,539.5078 L1003,539.5078 L993,529.5078 " fill="#FBFB77" style="stroke: #A80036; stroke-width: 1.0;"/><text fill="#000000" font-family="sans-serif" font-size="13" lengthAdjust="spacingAndGlyphs" textLength="212" x="762" y="546.5747">Runs loadParameters method for</text><text fill="#000000" font-family="sans-serif" font-size="13" lengthAdjust="spacingAndGlyphs" textLength="158" x="762" y="561.7075">each instantiated object.</text><text fill="#000000" font-family="sans-serif" font-size="13" lengthAdjust="spacingAndGlyphs" textLength="166" x="762" y="576.8403">Methods are registered to</text><text fill="#000000" font-family="sans-serif" font-size="13" lengthAdjust="spacingAndGlyphs" textLength="226" x="762" y="591.9731">OperationManager on instantiation.</text><polygon fill="#A80036" points="392,626.1719,402,630.1719,392,634.1719,396,630.1719" style="stroke: #A80036; stroke-width: 1.0;"/><line style="stroke: #A80036; stroke-width: 1.0;" x1="52" x2="398" y1="630.1719" y2="630.1719"/><text fill="#000000" font-family="sans-serif" font-size="13" lengthAdjust="spacingAndGlyphs" textLength="38" x="59" y="625.106">Setup</text><polygon fill="#A80036" points="852.5,690.5703,862.5,694.5703,852.5,698.5703,856.5,694.5703" style="stroke: #A80036; stroke-width: 1.0;"/><line style="stroke: #A80036; stroke-width: 1.0;" x1="404" x2="858.5" y1="694.5703" y2="694.5703"/><text fill="#000000" font-family="sans-serif" font-size="13" lengthAdjust="spacingAndGlyphs" textLength="110" x="411" y="689.5044">Setup Simulation</text><path d="M869,643.1719 L869,728.1719 L1087,728.1719 L1087,653.1719 L1077,643.1719 L869,643.1719 " fill="#FBFB77" filter="url(#f28t1y94qsqx5)" style="stroke: #A80036; stroke-width: 1.0;"/><path d="M1077,643.1719 L1077,653.1719 L1087,653.1719 L1077,643.1719 " fill="#FBFB77" style="stroke: #A80036; stroke-width: 1.0;"/><text fill="#000000" font-family="sans-serif" font-size="13" lengthAdjust="spacingAndGlyphs" textLength="197" x="875" y="660.2388">Sets up vertices, edges, layout</text><text fill="#000000" font-family="sans-serif" font-size="13" lengthAdjust="spacingAndGlyphs" textLength="116" x="875" y="675.3716">Initializes recorder</text><text fill="#000000" font-family="sans-serif" font-size="13" lengthAdjust="spacingAndGlyphs" textLength="122" x="875" y="690.5044">Creates all vertices</text><text fill="#000000" font-family="sans-serif" font-size="13" lengthAdjust="spacingAndGlyphs" textLength="158" x="875" y="705.6372">Sets up connections and</text><text fill="#000000" font-family="sans-serif" font-size="13" lengthAdjust="spacingAndGlyphs" textLength="147" x="875" y="720.77">Creates EdgeIndexMap</text><path d="M13,744.8359 L83,744.8359 L83,751.8359 L73,761.8359 L13,761.8359 L13,744.8359 " fill="#EEEEEE" style="stroke: #000000; stroke-width: 1.0;"/><rect fill="none" height="59.2656" style="stroke: #000000; stroke-width: 2.0;" width="303" x="13" y="744.8359"/><text fill="#000000" font-family="sans-serif" font-size="13" font-weight="bold" lengthAdjust="spacingAndGlyphs" textLength="25" x="28" y="757.9028">opt</text><text fill="#000000" font-family="sans-serif" font-size="11" font-weight="bold" lengthAdjust="spacingAndGlyphs" textLength="213" x="98" y="757.0464">[if serialized file name available]</text><line style="stroke: #A80036; stroke-width: 1.0;" x1="52" x2="94" y1="783.1016" y2="783.1016"/><line style="stroke: #A80036; stroke-width: 1.0;" x1="94" x2="94" y1="783.1016" y2="796.1016"/><line style="stroke: #A80036; stroke-width: 1.0;" x1="53" x2="94" y1="796.1016" y2="796.1016"/><polygon fill="#A80036" points="63,792.1016,53,796.1016,63,800.1016,59,796.1016" style="stroke: #A80036; stroke-width: 1.0;"/><text fill="#000000" font-family="sans-serif" font-size="13" lengthAdjust="spacingAndGlyphs" textLength="92" x="59" y="778.0356">Deserialize file</text><polygon fill="#A80036" points="392,828.2344,402,832.2344,392,836.2344,396,832.2344" style="stroke: #A80036; stroke-width: 1.0;"/><line style="stroke: #A80036; stroke-width: 1.0;" x1="52" x2="398" y1="832.2344" y2="832.2344"/><text fill="#000000" font-family="sans-serif" font-size="13" lengthAdjust="spacingAndGlyphs" textLength="57" x="59" y="827.1685">Simulate</text><line style="stroke: #A80036; stroke-width: 1.0;" x1="404" x2="446" y1="861.3672" y2="861.3672"/><line style="stroke: #A80036; stroke-width: 1.0;" x1="446" x2="446" y1="861.3672" y2="874.3672"/><line style="stroke: #A80036; stroke-width: 1.0;" x1="405" x2="446" y1="874.3672" y2="874.3672"/><polygon fill="#A80036" points="415,870.3672,405,874.3672,415,878.3672,411,874.3672" style="stroke: #A80036; stroke-width: 1.0;"/><text fill="#000000" font-family="sans-serif" font-size="13" lengthAdjust="spacingAndGlyphs" textLength="98" x="411" y="856.3013">Advance Epoch</text><polygon fill="#A80036" points="852.5,899.5,862.5,903.5,852.5,907.5,856.5,903.5" style="stroke: #A80036; stroke-width: 1.0;"/><line style="stroke: #A80036; stroke-width: 1.0;" x1="404" x2="858.5" y1="903.5" y2="903.5"/><text fill="#000000" font-family="sans-serif" font-size="13" lengthAdjust="spacingAndGlyphs" textLength="130" x="411" y="898.4341">Update Connections</text><polygon fill="#A80036" points="852.5,928.6328,862.5,932.6328,852.5,936.6328,856.5,932.6328" style="stroke: #A80036; stroke-width: 1.0;"/><line style="stroke: #A80036; stroke-width: 1.0;" x1="404" x2="858.5" y1="932.6328" y2="932.6328"/><text fill="#000000" font-family="sans-serif" font-size="13" lengthAdjust="spacingAndGlyphs" textLength="96" x="411" y="927.5669">Update History</text><polygon fill="#A80036" points="1015.5,977.8984,1025.5,981.8984,1015.5,985.8984,1019.5,981.8984" style="stroke: #A80036; stroke-width: 1.0;"/><line style="stroke: #A80036; stroke-width: 1.0;" x1="864.5" x2="1021.5" y1="981.8984" y2="981.8984"/><text fill="#000000" font-family="sans-serif" font-size="13" lengthAdjust="spacingAndGlyphs" textLength="112" x="871.5" y="976.8325">Compile Histories</text><path d="M1032,945.6328 L1032,1000.6328 L1228,1000.6328 L1228,955.6328 L1218,945.6328 L1032,945.6328 " fill="#FBFB77" filter="url(#f28t1y94qsqx5)" style="stroke: #A80036; stroke-width: 1.0;"/><path d="M1218,945.6328 L1218,955.6328 L1228,955.6328 L1218,945.6328 " fill="#FBFB77" style="stroke: #A80036; stroke-width: 1.0;"/><text fill="#000000" font-family="sans-serif" font-size="13" lengthAdjust="spacingAndGlyphs" textLength="169" x="1038" y="962.6997">Only vertices are compiled</text><text fill="#000000" font-family="sans-serif" font-size="13" lengthAdjust="spacingAndGlyphs" textLength="175" x="1038" y="977.8325">and saved. Implementation</text><text fill="#000000" font-family="sans-serif" font-size="13" lengthAdjust="spacingAndGlyphs" textLength="157" x="1038" y="992.9653">is simulation dependent.</text><polygon fill="#A80036" points="392,1027.1641,402,1031.1641,392,1035.1641,396,1031.1641" style="stroke: #A80036; stroke-width: 1.0;"/><line style="stroke: #A80036; stroke-width: 1.0;" x1="52" x2="398" y1="1031.1641" y2="1031.1641"/><text fill="#000000" font-family="sans-serif" font-size="13" lengthAdjust="spacingAndGlyphs" textLength="82" x="59" y="1026.0981">Save Results</text><polygon fill="#A80036" points="852.5,1056.2969,862.5,1060.2969,852.5,1064.2969,856.5,1060.2969" style="stroke: #A80036; stroke-width: 1.0;"/><line style="stroke: #A80036; stroke-width: 1.0;" x1="404" x2="858.5" y1="1060.2969" y2="1060.2969"/><text fill="#000000" font-family="sans-serif" font-size="13" lengthAdjust="spacingAndGlyphs" textLength="82" x="411" y="1055.231">Save Results</text><polygon fill="#A80036" points="1015.5,1085.4297,1025.5,1089.4297,1015.5,1093.4297,1019.5,1089.4297" style="stroke: #A80036; stroke-width: 1.0;"/><line style="stroke: #A80036; stroke-width: 1.0;" x1="864.5" x2="1021.5" y1="1089.4297" y2="1089.4297"/><text fill="#000000" font-family="sans-serif" font-size="13" lengthAdjust="spacingAndGlyphs" textLength="139" x="871.5" y="1084.3638">Save Simulation Data</text><path d="M13,1104.4297 L83,1104.4297 L83,1111.4297 L73,1121.4297 L13,1121.4297 L13,1104.4297 " fill="#EEEEEE" style="stroke: #000000; stroke-width: 1.0;"/><rect fill="none" height="59.2656" style="stroke: #000000; stroke-width: 2.0;" width="273" x="13" y="1104.4297"/><text fill="#000000" font-family="sans-serif" font-size="13" font-weight="bold" lengthAdjust="spacingAndGlyphs" textLength="25" x="28" y="1117.4966">opt</text><text fill="#000000" font-family="sans-serif" font-size="11" font-weight="bold" lengthAdjust="spacingAndGlyphs" textLength="183" x="98" y="1116.6401">[if serializtion file available]</text><line style="stroke: #A80036; stroke-width: 1.0;" x1="52" x2="94" y1="1142.6953" y2="1142.6953"/><line style="stroke: #A80036; stroke-width: 1.0;" x1="94" x2="94" y1="1142.6953" y2="1155.6953"/><line style="stroke: #A80036; stroke-width: 1.0;" x1="53" x2="94" y1="1155.6953" y2="1155.6953"/><polygon fill="#A80036" points="63,1151.6953,53,1155.6953,63,1159.6953,59,1155.6953" style="stroke: #A80036; stroke-width: 1.0;"/><text fill="#000000" font-family="sans-serif" font-size="13" lengthAdjust="spacingAndGlyphs" textLength="120" x="59" y="1137.6294">Serialize Synapses</text><polygon fill="#A80036" points="392,1187.8281,402,1191.8281,392,1195.8281,396,1191.8281" style="stroke: #A80036; stroke-width: 1.0;"/><line style="stroke: #A80036; stroke-width: 1.0;" x1="52" x2="398" y1="1191.8281" y2="1191.8281"/><text fill="#000000" font-family="sans-serif" font-size="13" lengthAdjust="spacingAndGlyphs" textLength="36" x="59" y="1186.7622">Finish</text><polygon fill="#A80036" points="852.5,1216.9609,862.5,1220.9609,852.5,1224.9609,856.5,1220.9609" style="stroke: #A80036; stroke-width: 1.0;"/><line style="stroke: #A80036; stroke-width: 1.0;" x1="404" x2="858.5" y1="1220.9609" y2="1220.9609"/><text fill="#000000" font-family="sans-serif" font-size="13" lengthAdjust="spacingAndGlyphs" textLength="167" x="411" y="1215.895">Clean up model resources</text><polygon fill="#A80036" points="1015.5,1246.0938,1025.5,1250.0938,1015.5,1254.0938,1019.5,1250.0938" style="stroke: #A80036; stroke-width: 1.0;"/><line style="stroke: #A80036; stroke-width: 1.0;" x1="52" x2="1021.5" y1="1250.0938" y2="1250.0938"/><text fill="#000000" font-family="sans-serif" font-size="13" lengthAdjust="spacingAndGlyphs" textLength="132" x="59" y="1245.0278">Terminate Recording</text><line style="stroke: #A80036; stroke-width: 1.0;" x1="52" x2="94" y1="1279.2266" y2="1279.2266"/><line style="stroke: #A80036; stroke-width: 1.0;" x1="94" x2="94" y1="1279.2266" y2="1292.2266"/><line style="stroke: #A80036; stroke-width: 1.0;" x1="53" x2="94" y1="1292.2266" y2="1292.2266"/><polygon fill="#A80036" points="63,1288.2266,53,1292.2266,63,1296.2266,59,1292.2266" style="stroke: #A80036; stroke-width: 1.0;"/><text fill="#000000" font-family="sans-serif" font-size="13" lengthAdjust="spacingAndGlyphs" textLength="82" x="59" y="1274.1606">Exit program</text><!--MD5=[d5d5e4cc0b45d613e4b501eb66a853ee]
@startuml topLevelFlow

title Graphitti General Program Flow

Driver -> ParamContainer **: Parse Command Line
activate ParamContainer
note right
    Config File
    Deserialize File
    Serealize File
    Stimulus File
end note

Driver -> Simulator: Set File Names
Simulator -> ParamContainer: Get File Names
ParamContainer -> Simulator: File Names
deactivate ParamContainer

Driver -> ParameterManager: Load Parameter File
ParameterManager -> Simulator: Get Config File Name
Simulator -> ParameterManager: Config File Name
Driver -> Simulator: Load Parameters
Simulator -> ParameterManager: Get parameters from XML
ParameterManager -> Simulator: Parameters
note right
    width_, height_, epochDuration_,
    numEpochs_, maxFiringRate_,
    maxEdgesPerVertex_, RNG, etc.
end note

Driver -> Simulator: Instantiate Simulator Objects
note right
    Details are in a separate
    sequence diagram.
end note

Driver -> OperationManager: Load Parameters
note right
    Runs loadParameters method for
    each instantiated object.
    Methods are registered to
    OperationManager on instantiation.
end note

Driver -> Simulator: Setup
Simulator -> Model: Setup Simulation
note right
    Sets up vertices, edges, layout
    Initializes recorder
    Creates all vertices
    Sets up connections and
    Creates EdgeIndexMap
end note

opt if serialized file name available
    Driver -> Driver: Deserialize file
end

Driver -> Simulator: Simulate
Simulator -> Simulator: Advance Epoch
Simulator -> Model: Update Connections
Simulator -> Model: Update History
Model -> Recorder: Compile Histories
note right
    Only vertices are compiled
    and saved. Implementation
    is simulation dependent.
end note

Driver -> Simulator: Save Results
Simulator -> Model: Save Results
Model -> Recorder: Save Simulation Data

opt if serializtion file available
    Driver -> Driver: Serialize Synapses
end

Driver -> Simulator: Finish
Simulator -> Model: Clean up model resources
Driver -> Recorder: Terminate Recording
Driver -> Driver: Exit program

@enduml

PlantUML version 1.2020.02(Sun Mar 01 10:22:07 GMT 2020)
(GPL source distribution)
Java Runtime: OpenJDK Runtime Environment
JVM: OpenJDK 64-Bit Server VM
Java Version: 11.0.9+11-Ubuntu-0ubuntu1
Operating System: Linux
Default Encoding: ANSI_X3.4-1968
Language: en
Country: US
--></g></svg>